<?xml version="1.0" encoding="utf-8"?>
<!-- Generator: Adobe Illustrator 19.1.0, SVG Export Plug-In . SVG Version: 6.00 Build 0)  -->
<svg version="1.1" id="Layer_1" xmlns="http://www.w3.org/2000/svg" xmlns:xlink="http://www.w3.org/1999/xlink" x="0px" y="0px"
	 viewBox="0 0 34.889 22.672" style="enable-background:new 0 0 34.889 22.672;" xml:space="preserve">
<style type="text/css">
	.st0{fill:#D0D3DD;}
	.st1{fill:#C3C3C3;}
	.st2{fill:#FFFFFF;}
	.st3{fill:#EBEBEB;}
	.st4{fill:url(#SVGID_1_);}
	.st5{fill:#D0BFAD;}
	.st6{fill:#D1D2D2;}
	.st7{fill:#FBFCFC;}
	.st8{fill:#DDD5CC;}
	.st9{fill:url(#SVGID_2_);}
	.st10{fill:#C2BEC3;}
	.st11{fill:url(#SVGID_3_);}
	.st12{fill:#C7C6C6;}
	.st13{fill:#B3ADB4;}
	.st14{fill:#A0A9B4;}
	.st15{fill:url(#SVGID_4_);}
	.st16{fill:#E4DCD3;}
	.st17{fill:url(#SVGID_5_);}
	.st18{fill:#B3B5C3;}
	.st19{fill:url(#SVGID_6_);}
	.st20{fill:url(#SVGID_7_);}
	.st21{fill:#8A8D9C;}
</style>
<g transform="matrix( 1, 0, 0, 1, 712.55,108.4) ">
	<g>
		<g id="people_0_Layer5_4_FILL">
			<path class="st0" d="M-703.044-89.029c0.245-0.927,0.341-1.737,0.286-2.428l-0.218-0.859c-0.027,0.491-0.2,1.037-0.518,1.637
				c-0.036,0.064-0.077,0.136-0.123,0.218c-0.073,0.127-0.155,0.255-0.245,0.382c-0.045,0.073-0.095,0.146-0.15,0.218
				c-0.327,0.464-0.718,0.923-1.173,1.378v2.755c0.646-0.646,1.168-1.305,1.568-1.978c0.282-0.482,0.473-0.932,0.573-1.35
				C-703.044-89.047-703.044-89.038-703.044-89.029z"/>
			<path class="st1" d="M-688.6-97.635c0-0.018,0.005-0.032,0.014-0.041c-0.3,0.127-0.609,0.255-0.927,0.382
				c0.164,0.073,0.368,0.104,0.614,0.095c0.136-0.009,0.264-0.027,0.382-0.054c0.036-0.018,0.068-0.032,0.095-0.041
				C-688.568-97.385-688.627-97.499-688.6-97.635 M-693.319-95.221c-0.009-0.036-0.009-0.073,0-0.109
				c0.018-0.136,0.127-0.264,0.327-0.382c-0.182,0.082-0.382,0.132-0.6,0.15c-0.2,0-0.373-0.023-0.518-0.068
				c-0.127,0.046-0.25,0.086-0.368,0.123c0,0.018,0,0.036,0,0.054c-0.027,0.118,0.014,0.218,0.123,0.3
				c0.018,0.009,0.032,0.018,0.041,0.027c0.018,0,0.032,0.009,0.041,0.027c0.082,0.046,0.177,0.077,0.286,0.095
				C-693.769-95.076-693.546-95.148-693.319-95.221 M-692.91-95.753c0.064-0.027,0.132-0.05,0.205-0.068
				c-0.027-0.009-0.046-0.023-0.055-0.041C-692.805-95.826-692.855-95.789-692.91-95.753 M-685.299-98.74
				c-0.118,0.027-0.255,0.046-0.409,0.055c-0.2,0.009-0.377-0.014-0.532-0.068c-0.236,0.118-0.482,0.236-0.736,0.355
				c-0.009,0.027-0.014,0.055-0.014,0.082c-0.018,0.091,0.009,0.182,0.082,0.273c0.009,0,0.014,0.005,0.014,0.014
				c0.018,0.009,0.036,0.018,0.055,0.027c0.018,0.009,0.041,0.018,0.068,0.027c0.055,0.036,0.114,0.064,0.177,0.082
				c0.409-0.2,0.814-0.4,1.214-0.6c0.027-0.073,0.073-0.141,0.136-0.205C-685.254-98.717-685.272-98.731-685.299-98.74
				 M-702.403-93.407c-0.255,0.009-0.464-0.023-0.627-0.096c-0.091,0.018-0.173,0.05-0.246,0.096
				c-0.2,0.118-0.314,0.245-0.341,0.382c-0.027,0.146,0.046,0.264,0.218,0.355c0.118,0.064,0.255,0.105,0.409,0.123
				c-0.018-0.091-0.036-0.177-0.055-0.259c0.218-0.009,0.455-0.027,0.709-0.055c0.118-0.018,0.241-0.036,0.368-0.054
				c-0.082-0.082-0.118-0.177-0.109-0.286c0.018-0.091,0.068-0.173,0.15-0.245c-0.009-0.009-0.018-0.018-0.027-0.027
				c-0.009,0-0.018-0.005-0.027-0.014C-702.116-93.444-702.257-93.416-702.403-93.407z"/>
			<path class="st2" d="M-694.11-97.172c-0.127,0.046-0.268,0.068-0.423,0.068c-0.255,0.018-0.464-0.014-0.627-0.096h-0.027
				c-0.082,0.027-0.155,0.059-0.218,0.096c-0.2,0.118-0.314,0.245-0.341,0.382c0,0.091,0.023,0.173,0.068,0.245
				c0.009,0,0.014,0.009,0.014,0.027c0.045,0.027,0.096,0.055,0.15,0.082c0.164,0.1,0.377,0.141,0.641,0.123
				c0.264,0,0.491-0.059,0.682-0.177c0.073-0.036,0.132-0.077,0.177-0.123c-0.146-0.091-0.209-0.205-0.191-0.341
				c0.018-0.091,0.068-0.177,0.15-0.259l-0.014-0.014C-694.087-97.167-694.101-97.172-694.11-97.172 M-691.137-97.212
				c-0.027-0.018-0.05-0.032-0.068-0.041c-0.1,0.082-0.159,0.173-0.177,0.273c-0.018,0.118,0.023,0.218,0.123,0.3
				c0.018,0.009,0.036,0.018,0.055,0.027c0.373-0.136,0.741-0.273,1.105-0.409c0.054-0.055,0.118-0.104,0.191-0.15
				c-0.173,0.073-0.364,0.118-0.573,0.136C-690.746-97.076-690.964-97.122-691.137-97.212 M-688.968-100.813
				c-0.073,0.073-0.109,0.15-0.109,0.232c-0.027,0.127,0.027,0.236,0.164,0.327c0.018,0.009,0.032,0.018,0.041,0.027
				c0.018,0,0.027,0.005,0.027,0.014c0.164,0.091,0.373,0.127,0.627,0.109c0.155-0.009,0.3-0.032,0.436-0.068
				c0.009-0.009,0.027-0.018,0.055-0.027c-0.145-0.091-0.209-0.205-0.191-0.341c0.018-0.146,0.127-0.273,0.327-0.382
				c0.064-0.027,0.127-0.055,0.191-0.082c0-0.009-0.009-0.014-0.027-0.014c0-0.009-0.009-0.014-0.027-0.014
				c-0.036,0.036-0.086,0.068-0.15,0.095c-0.2,0.118-0.432,0.182-0.696,0.191c-0.246,0.009-0.45-0.027-0.614-0.109
				C-688.932-100.845-688.95-100.831-688.968-100.813 M-678.507-104.4c0.018-0.091,0.064-0.177,0.136-0.259l-0.014-0.014
				c-0.009,0-0.018-0.005-0.027-0.014c-0.136,0.036-0.277,0.059-0.423,0.068c-0.255,0.018-0.464-0.014-0.627-0.096
				c-0.009,0-0.018,0-0.027,0c-0.082,0.027-0.159,0.059-0.232,0.096c-0.2,0.109-0.309,0.241-0.327,0.396
				c-0.009,0.082,0.009,0.155,0.055,0.218c0.009,0.018,0.018,0.027,0.027,0.027c0.036,0.036,0.082,0.068,0.136,0.095
				c0.173,0.091,0.386,0.136,0.641,0.136c0.264-0.018,0.495-0.082,0.695-0.191c0.064-0.036,0.118-0.077,0.164-0.123
				c0.009,0,0.018-0.005,0.027-0.014C-678.466-104.155-678.534-104.264-678.507-104.4 M-680.676-105.423
				c-0.1,0.036-0.196,0.077-0.286,0.123c-0.2,0.109-0.309,0.236-0.327,0.382c-0.018,0.082,0,0.159,0.055,0.232
				c0.018,0.018,0.036,0.036,0.055,0.055c0.027,0.027,0.064,0.05,0.109,0.068c0.173,0.1,0.386,0.146,0.641,0.136
				c0.264-0.018,0.496-0.086,0.696-0.205c0.082-0.036,0.146-0.082,0.191-0.136c-0.136-0.082-0.191-0.191-0.164-0.327
				c0.009-0.073,0.041-0.141,0.095-0.205c-0.045-0.027-0.095-0.05-0.15-0.068c-0.091,0.018-0.182,0.032-0.273,0.041
				c-0.246,0.009-0.445-0.023-0.6-0.095C-680.653-105.423-680.667-105.423-680.676-105.423 M-682.503-105.355
				c0.027,0.018,0.055,0.036,0.082,0.055c0.018,0.018,0.041,0.036,0.068,0.054c0.173,0.1,0.391,0.141,0.655,0.123
				c0.255-0.009,0.482-0.068,0.682-0.177c0.109-0.064,0.186-0.132,0.232-0.205c-0.1-0.082-0.141-0.182-0.123-0.3
				c0.009-0.045,0.027-0.095,0.055-0.15c-0.036-0.018-0.073-0.041-0.109-0.068c-0.136,0.046-0.282,0.068-0.436,0.068
				c-0.264,0.018-0.477-0.023-0.641-0.123c-0.009,0-0.018,0-0.027,0c-0.055,0.027-0.114,0.059-0.177,0.096
				c-0.027,0.018-0.055,0.036-0.082,0.055c-0.146,0.1-0.227,0.209-0.245,0.327C-682.581-105.51-682.558-105.428-682.503-105.355
				 M-690.878-98.017c-0.009-0.018-0.018-0.032-0.027-0.041c-0.045,0.045-0.105,0.086-0.177,0.123c-0.2,0.1-0.427,0.164-0.682,0.191
				c-0.264,0-0.482-0.046-0.655-0.136c-0.055-0.027-0.095-0.059-0.123-0.095l-0.014,0.014c-0.082,0.082-0.127,0.168-0.136,0.259
				c-0.027,0.127,0.036,0.241,0.191,0.341c0.009,0.009,0.018,0.014,0.027,0.014c0.009,0.009,0.018,0.014,0.027,0.014
				c0.164,0.082,0.373,0.118,0.627,0.109c0.173-0.018,0.336-0.055,0.491-0.109h0.027c-0.055-0.073-0.073-0.15-0.055-0.232
				c0.018-0.146,0.127-0.273,0.327-0.382C-690.973-97.976-690.923-97.999-690.878-98.017 M-688-98.74
				c0.018,0.018,0.041,0.036,0.068,0.055c0.173,0.091,0.391,0.127,0.655,0.109c0.218,0,0.414-0.041,0.586-0.123
				c0.009-0.009,0.018-0.014,0.027-0.014c0.027-0.018,0.055-0.032,0.082-0.041c0.055-0.036,0.1-0.073,0.136-0.109
				c-0.1-0.082-0.141-0.182-0.123-0.3c0.018-0.1,0.073-0.191,0.164-0.273c-0.018-0.018-0.045-0.036-0.082-0.054
				c-0.009-0.009-0.018-0.018-0.027-0.027c-0.155,0.055-0.323,0.091-0.505,0.109c-0.246,0.009-0.45-0.027-0.614-0.109
				c-0.009,0-0.023,0.005-0.041,0.014c-0.055,0.018-0.105,0.041-0.15,0.068c-0.2,0.118-0.305,0.246-0.314,0.382
				c-0.018,0.082-0.005,0.155,0.041,0.218C-688.059-98.799-688.027-98.767-688-98.74 M-689.364-99.463
				c-0.009,0-0.018-0.005-0.027-0.014c-0.127,0.036-0.273,0.059-0.437,0.068c-0.245,0.018-0.45-0.018-0.614-0.109
				c-0.036,0.018-0.068,0.032-0.096,0.041c-0.055,0.018-0.109,0.041-0.164,0.068c-0.2,0.118-0.309,0.25-0.327,0.396
				c-0.018,0.109,0.023,0.205,0.123,0.286c0.035-0.009,0.062-0.018,0.082-0.027c-0.02,0.01-0.042,0.024-0.068,0.041
				c0.027,0.018,0.055,0.036,0.082,0.055c0.173,0.091,0.391,0.127,0.655,0.109c0.255,0,0.482-0.059,0.682-0.177
				c0.046-0.018,0.086-0.046,0.123-0.082c0.018-0.009,0.036-0.018,0.055-0.027c-0.155-0.1-0.218-0.218-0.191-0.355
				c0.009-0.091,0.055-0.173,0.136-0.246v-0.014C-689.35-99.458-689.355-99.463-689.364-99.463 M-697.193-95.699
				c-0.009,0.009-0.018,0.018-0.027,0.027c-0.082,0.073-0.127,0.159-0.136,0.259c-0.027,0.136,0.036,0.25,0.191,0.341
				c0.009,0.009,0.018,0.014,0.027,0.014c0.009,0.009,0.018,0.014,0.027,0.014c0.164,0.082,0.373,0.114,0.627,0.095
				c0.173,0,0.336-0.027,0.491-0.082c0.009-0.009,0.027-0.018,0.055-0.027c-0.1-0.082-0.146-0.182-0.136-0.3
				c0.027-0.136,0.141-0.264,0.341-0.382c0.046-0.018,0.086-0.036,0.123-0.054c-0.009-0.009-0.018-0.018-0.027-0.027
				c-0.045,0.036-0.096,0.068-0.15,0.095c-0.2,0.109-0.427,0.173-0.682,0.191c-0.264,0.009-0.482-0.032-0.655-0.123
				C-697.143-95.676-697.165-95.689-697.193-95.699 M-684.304-103.105c-0.009-0.018-0.018-0.032-0.027-0.041
				c-0.018-0.009-0.036-0.014-0.055-0.014c-0.118,0.027-0.236,0.041-0.355,0.041c-0.245,0.018-0.45-0.014-0.614-0.096
				c-0.027,0.009-0.05,0.018-0.068,0.027c-0.091,0.027-0.173,0.059-0.245,0.095c-0.2,0.118-0.309,0.245-0.327,0.382
				c-0.027,0.118,0.014,0.218,0.123,0.3c0.009,0.018,0.023,0.032,0.041,0.041c0.018,0.009,0.036,0.018,0.055,0.027
				c0.164,0.091,0.377,0.132,0.641,0.123c0.264-0.009,0.496-0.073,0.696-0.191c0.064-0.036,0.118-0.073,0.164-0.109
				c0.009-0.009,0.018-0.018,0.027-0.027c-0.136-0.091-0.191-0.2-0.164-0.327C-684.413-102.964-684.376-103.041-684.304-103.105
				 M-681.494-103.145c0-0.009-0.009-0.018-0.027-0.027c-0.127,0.045-0.273,0.073-0.436,0.082c-0.246,0.009-0.45-0.027-0.614-0.109
				c-0.009,0-0.018,0.005-0.027,0.014c-0.073,0.027-0.146,0.059-0.218,0.095c-0.2,0.109-0.309,0.236-0.327,0.382
				c-0.009,0.082,0.005,0.159,0.041,0.232c0.018,0,0.032,0.014,0.041,0.041c0.036,0.027,0.077,0.054,0.123,0.082
				c0.173,0.1,0.391,0.141,0.655,0.123c0.255-0.009,0.482-0.068,0.682-0.177c0.073-0.045,0.127-0.086,0.164-0.123h0.014
				c-0.146-0.1-0.209-0.218-0.191-0.355c0.018-0.091,0.068-0.177,0.15-0.259C-681.476-103.145-681.485-103.145-681.494-103.145z"/>
			<path class="st3" d="M-693.919-97.922c0.055-0.045,0.105-0.086,0.15-0.123c0.018,0,0.032-0.009,0.041-0.027
				c-0.127-0.082-0.186-0.177-0.177-0.286c-0.382,0.2-0.75,0.396-1.105,0.586c0.118,0.027,0.25,0.036,0.396,0.027
				C-694.351-97.763-694.119-97.822-693.919-97.922 M-690.564-100.118c-0.009-0.018-0.018-0.027-0.027-0.027
				c-0.127,0.073-0.254,0.141-0.382,0.205c-0.346,0.2-0.705,0.4-1.078,0.6c0.173,0.091,0.391,0.127,0.655,0.109
				c0.255-0.009,0.482-0.068,0.682-0.177c0.055-0.036,0.1-0.068,0.136-0.095c0.027-0.018,0.045-0.032,0.055-0.041
				c-0.136-0.1-0.191-0.209-0.164-0.327c0-0.018,0.005-0.041,0.014-0.068C-690.655-100.004-690.618-100.063-690.564-100.118z"/>
			
				<linearGradient id="SVGID_1_" gradientUnits="userSpaceOnUse" x1="-1665.2524" y1="269.2092" x2="-1830.9941" y2="269.2092" gradientTransform="matrix(0.2105 0 0 -0.2105 -327.1258 -40.1416)">
				<stop  offset="0" style="stop-color:#D6C7B9"/>
				<stop  offset="1" style="stop-color:#9FA2AE"/>
			</linearGradient>
			<path class="st4" d="M-693.319-95.221c0.437-0.155,0.864-0.305,1.282-0.45c0.146-0.046,0.282-0.091,0.409-0.136
				c0.5-0.191,0.986-0.377,1.459-0.559c0.073-0.036,0.15-0.064,0.232-0.082c0.455-0.191,0.905-0.377,1.35-0.559
				c0.146-0.064,0.286-0.123,0.423-0.177c0.391-0.182,0.777-0.359,1.159-0.532c0.136-0.064,0.273-0.123,0.409-0.177
				c-0.064-0.018-0.123-0.045-0.177-0.082c-0.027-0.009-0.05-0.018-0.068-0.027c-0.018-0.009-0.036-0.018-0.055-0.027
				c0-0.009-0.005-0.014-0.014-0.014c-0.073-0.091-0.1-0.182-0.082-0.273c0-0.027,0.005-0.055,0.014-0.082
				c-0.264,0.127-0.532,0.25-0.805,0.368c-0.255,0.118-0.523,0.236-0.805,0.355c-0.009,0.009-0.014,0.023-0.014,0.041
				c-0.027,0.136,0.032,0.25,0.177,0.341c-0.027,0.009-0.059,0.023-0.095,0.041c-0.118,0.027-0.246,0.045-0.382,0.054
				c-0.246,0.009-0.45-0.023-0.614-0.095c-0.191,0.073-0.386,0.15-0.586,0.232c-0.364,0.136-0.732,0.273-1.105,0.409
				c-0.018,0.009-0.036,0.018-0.055,0.027c-0.009,0-0.018,0-0.027,0l-0.027,0.014c-0.027,0.009-0.05,0.018-0.068,0.027
				c-0.164,0.055-0.323,0.109-0.477,0.164c-0.355,0.127-0.696,0.25-1.023,0.368c-0.427,0.145-0.837,0.286-1.228,0.423
				c0.146,0.046,0.318,0.068,0.518,0.068c0.218-0.018,0.418-0.068,0.6-0.15c-0.2,0.118-0.309,0.245-0.327,0.382
				C-693.328-95.294-693.328-95.258-693.319-95.221 M-692.705-95.821c-0.073,0.018-0.141,0.041-0.205,0.068
				c0.055-0.036,0.105-0.073,0.15-0.109C-692.751-95.844-692.733-95.83-692.705-95.821z"/>
			<path class="st5" d="M-694.915-98.713c-0.082,0.027-0.159,0.064-0.232,0.109c-0.2,0.109-0.314,0.236-0.341,0.382
				c-0.018,0.127,0.041,0.236,0.177,0.327c0.018,0.009,0.032,0.018,0.041,0.027h0.027c0.073,0.036,0.15,0.068,0.232,0.095
				c0.355-0.191,0.723-0.386,1.105-0.586c0.009-0.018,0.014-0.032,0.014-0.041c0-0.091,0.041-0.168,0.123-0.232
				c0-0.009-0.005-0.014-0.014-0.014c-0.009-0.009-0.023-0.018-0.041-0.027c-0.009,0-0.023-0.009-0.041-0.027
				c-0.118,0.036-0.241,0.059-0.368,0.068c-0.245,0.018-0.445-0.014-0.6-0.095C-694.86-98.726-694.888-98.722-694.915-98.713z"/>
			<path class="st6" d="M-694.928-99.258c-0.036-0.009-0.064-0.023-0.082-0.041v0.014c-0.045,0.045-0.073,0.104-0.082,0.177
				c-0.027,0.118,0.014,0.218,0.123,0.3c0.027,0.018,0.059,0.036,0.095,0.055c0.009,0.009,0.023,0.018,0.041,0.027
				c0.155,0.082,0.355,0.114,0.6,0.095c0.127-0.009,0.25-0.032,0.368-0.068c0.009,0,0.023,0,0.041,0
				c-0.046-0.064-0.059-0.136-0.041-0.218c0.009-0.146,0.114-0.273,0.314-0.382c0.091-0.045,0.186-0.086,0.286-0.123
				c-0.027-0.027-0.059-0.055-0.096-0.082c-0.055,0.064-0.136,0.127-0.245,0.191c-0.2,0.118-0.432,0.177-0.696,0.177
				C-694.556-99.117-694.765-99.158-694.928-99.258 M-696.879-97.117c-0.018-0.009-0.036-0.018-0.055-0.027
				c-0.018-0.009-0.032-0.014-0.041-0.014c-0.109,0.018-0.232,0.036-0.368,0.055c-0.236,0-0.436-0.036-0.6-0.109
				c-0.018,0.009-0.041,0.018-0.068,0.027c-0.091,0.018-0.173,0.05-0.246,0.095c-0.2,0.109-0.309,0.237-0.327,0.382
				c-0.018,0.118,0.023,0.218,0.123,0.3c0.018,0.009,0.036,0.023,0.055,0.041c0.009,0,0.023,0.005,0.041,0.014
				c0.136,0.073,0.309,0.114,0.518,0.123c0.273-0.146,0.559-0.305,0.859-0.477c-0.018-0.055-0.027-0.114-0.027-0.177
				C-696.997-96.967-696.952-97.044-696.879-97.117z"/>
			<path class="st7" d="M-687.904-101.645c-0.054,0-0.109,0-0.164,0c-0.327,0.209-0.673,0.423-1.037,0.641
				c0.027,0.045,0.068,0.082,0.123,0.109c0.009,0.009,0.027,0.018,0.054,0.027c0,0.009,0.005,0.014,0.014,0.014
				c0.164,0.082,0.368,0.118,0.614,0.109c0.264-0.009,0.496-0.073,0.696-0.191c0.064-0.027,0.114-0.059,0.15-0.095
				c0.018-0.018,0.032-0.032,0.041-0.041c-0.136-0.091-0.191-0.2-0.164-0.327c0-0.082,0.041-0.159,0.123-0.232
				c-0.018-0.018-0.032-0.032-0.041-0.041c-0.018-0.009-0.036-0.014-0.055-0.014C-687.668-101.659-687.786-101.645-687.904-101.645
				 M-700.289-94.185c0.091,0.045,0.195,0.077,0.314,0.095c0.246-0.009,0.541-0.041,0.887-0.095
				c0.045-0.018,0.091-0.041,0.136-0.068c0.055-0.027,0.1-0.059,0.136-0.096c0.018-0.009,0.032-0.018,0.041-0.027
				c-0.155-0.091-0.218-0.205-0.191-0.341c0.018-0.091,0.068-0.177,0.15-0.259c-0.009,0-0.018-0.005-0.027-0.014
				c-0.009-0.009-0.018-0.014-0.027-0.014c-0.136,0.046-0.282,0.068-0.436,0.068c-0.227,0.009-0.427-0.023-0.6-0.096
				c-0.227,0.146-0.414,0.273-0.559,0.382c-0.018,0.027-0.032,0.059-0.041,0.095c-0.018,0.136,0.045,0.25,0.191,0.341
				c0.055-0.018,0.109-0.041,0.164-0.068C-700.198-94.253-700.243-94.221-700.289-94.185 M-696.838-96.544
				c0.018,0,0.036,0.009,0.055,0.027h0.027c0.164,0.082,0.368,0.123,0.614,0.123c0.155-0.009,0.295-0.036,0.423-0.082
				c0.018,0,0.032,0,0.041,0c-0.045-0.073-0.068-0.155-0.068-0.245c0.027-0.136,0.141-0.264,0.341-0.382
				c0.064-0.036,0.136-0.068,0.218-0.096c-0.009-0.009-0.027-0.027-0.055-0.054c-0.045,0.054-0.104,0.104-0.177,0.15
				c-0.2,0.109-0.432,0.168-0.695,0.177c-0.155,0-0.291-0.009-0.409-0.027c-0.155,0.082-0.309,0.164-0.464,0.245
				C-696.961-96.644-696.911-96.59-696.838-96.544 M-678.152-104.809h0.014c-0.036-0.018-0.077-0.036-0.123-0.055
				c-0.027-0.009-0.055-0.018-0.082-0.027c-0.464-0.118-0.887-0.255-1.268-0.409c-0.055,0.064-0.086,0.132-0.095,0.205
				c-0.027,0.136,0.027,0.245,0.164,0.327c0.018,0.018,0.036,0.027,0.055,0.027c0.009,0.009,0.018,0.018,0.027,0.027
				c0.164,0.082,0.373,0.114,0.627,0.096c0.146-0.009,0.286-0.032,0.423-0.068c0.054-0.018,0.104-0.036,0.15-0.054
				c0.027-0.018,0.055-0.032,0.082-0.041C-678.171-104.791-678.162-104.8-678.152-104.809z"/>
			<path class="st8" d="M-690.441-101.918c0.018-0.136,0.127-0.264,0.327-0.382c0.046-0.018,0.091-0.036,0.136-0.054
				c-0.018-0.018-0.036-0.027-0.055-0.027c-0.055,0.036-0.118,0.077-0.191,0.123c-0.2,0.109-0.427,0.173-0.682,0.191
				c-0.191,0.009-0.355-0.009-0.491-0.055c-0.073,0.045-0.15,0.095-0.232,0.15c0,0.018,0,0.036,0,0.055
				c-0.036,0.118,0.004,0.218,0.123,0.3l0.014,0.014c0.027,0.009,0.055,0.023,0.082,0.041c0.164,0.091,0.377,0.132,0.641,0.123
				c0.173-0.009,0.332-0.041,0.477-0.095c0.018,0,0.036-0.009,0.055-0.027C-690.4-101.654-690.469-101.772-690.441-101.918
				 M-698.202-97.826v-0.014c-0.155,0.064-0.318,0.096-0.491,0.096c-0.046,0-0.086,0-0.123,0c-0.355,0.191-0.691,0.382-1.009,0.573
				c0.018,0.027,0.05,0.059,0.096,0.095c0.027,0.018,0.05,0.032,0.068,0.041h0.014c0.164,0.091,0.377,0.132,0.641,0.123
				c0.264-0.009,0.491-0.068,0.682-0.177c0.1-0.054,0.177-0.114,0.232-0.177c0.009-0.009,0.018-0.014,0.027-0.014
				c-0.109-0.091-0.155-0.195-0.136-0.314c0.009-0.064,0.032-0.123,0.068-0.177C-698.152-97.799-698.174-97.817-698.202-97.826
				 M-702.566-95.467c-0.109,0.073-0.214,0.146-0.314,0.218c-0.009,0.091,0.036,0.173,0.136,0.245h0.014
				c0.009,0.018,0.023,0.032,0.041,0.041c0.009,0.009,0.018,0.014,0.027,0.014c0.027,0.018,0.045,0.027,0.055,0.027
				c0.164,0.082,0.364,0.114,0.6,0.095c0.136,0,0.259-0.018,0.368-0.054c0.027,0,0.05-0.005,0.068-0.014
				c-0.136-0.091-0.195-0.205-0.177-0.341c0.018-0.146,0.127-0.273,0.327-0.382c0.082-0.045,0.164-0.082,0.245-0.109
				c-0.009-0.009-0.023-0.014-0.041-0.014c-0.018-0.018-0.041-0.027-0.068-0.027c-0.046,0.055-0.109,0.1-0.191,0.136
				c-0.2,0.118-0.427,0.182-0.682,0.191C-702.312-95.43-702.448-95.439-702.566-95.467 M-687.1-103.009
				c-0.018-0.018-0.045-0.036-0.082-0.054c-0.145,0.064-0.305,0.1-0.477,0.109c-0.273,0.009-0.491-0.032-0.655-0.123l-0.027,0.014
				c-0.055,0.018-0.114,0.041-0.177,0.068c-0.2,0.109-0.305,0.236-0.314,0.382c-0.027,0.091-0.005,0.177,0.068,0.259
				c0.018,0.018,0.036,0.036,0.055,0.054h0.014c0.018,0.009,0.045,0.023,0.082,0.041c0.164,0.091,0.377,0.132,0.641,0.123
				c0.255-0.009,0.482-0.073,0.682-0.191c0.109-0.055,0.191-0.114,0.245-0.177c-0.1-0.082-0.146-0.186-0.136-0.314
				C-687.163-102.882-687.136-102.945-687.1-103.009 M-686.39-105.219c-0.018,0-0.032,0-0.041,0
				c-0.091,0.036-0.177,0.077-0.259,0.123c-0.2,0.109-0.305,0.236-0.314,0.382c-0.027,0.082-0.009,0.15,0.055,0.205
				c0.018,0.036,0.041,0.068,0.068,0.095c0.027,0.018,0.059,0.036,0.095,0.055c0.164,0.091,0.377,0.132,0.641,0.123
				c0.255-0.009,0.482-0.068,0.682-0.177c0.1-0.064,0.182-0.123,0.246-0.177h-0.014c-0.109-0.091-0.155-0.2-0.136-0.327
				c0.009-0.064,0.041-0.132,0.096-0.205c-0.027-0.009-0.055-0.023-0.082-0.041c-0.009-0.009-0.023-0.018-0.041-0.027
				c-0.118,0.045-0.245,0.068-0.382,0.068C-686.022-105.105-686.227-105.137-686.39-105.219z"/>
			
				<linearGradient id="SVGID_2_" gradientUnits="userSpaceOnUse" x1="-1665.2887" y1="257.5788" x2="-1775.4984" y2="257.5788" gradientTransform="matrix(0.2105 0 0 -0.2105 -327.1258 -40.1416)">
				<stop  offset="0" style="stop-color:#FFFFFF"/>
				<stop  offset="1" style="stop-color:#E1E1E1"/>
			</linearGradient>
			<path class="st9" d="M-699.975-94.089c-0.118-0.018-0.223-0.05-0.314-0.095c0.045-0.036,0.091-0.068,0.136-0.096
				c-0.055,0.027-0.109,0.05-0.164,0.068c-0.145-0.091-0.209-0.205-0.191-0.341c0.009-0.036,0.023-0.068,0.041-0.095
				c-0.3,0.218-0.432,0.355-0.396,0.409c0.036,0.055,0.109,0.095,0.218,0.123c0.073,0.018,0.159,0.032,0.259,0.041
				C-700.266-94.075-700.13-94.08-699.975-94.089z"/>
			<path class="st10" d="M-701.107-95.739c-0.027,0.009-0.05,0.014-0.068,0.014c-0.082,0.027-0.164,0.064-0.245,0.109
				c-0.2,0.109-0.309,0.236-0.327,0.382c-0.018,0.136,0.041,0.25,0.177,0.341c0.018,0,0.032,0.005,0.041,0.014
				s0.018,0.018,0.027,0.027c0.164,0.073,0.368,0.105,0.614,0.096c0.255-0.009,0.482-0.068,0.682-0.177
				c0.064-0.027,0.118-0.064,0.164-0.109c0.018-0.009,0.032-0.018,0.041-0.027c-0.136-0.1-0.195-0.214-0.177-0.341
				c0.018-0.082,0.064-0.159,0.136-0.232c-0.009-0.009-0.023-0.023-0.041-0.041c-0.018,0-0.036,0-0.055,0
				c-0.1,0.018-0.223,0.032-0.368,0.041C-700.743-95.635-700.943-95.667-701.107-95.739z"/>
			
				<linearGradient id="SVGID_3_" gradientUnits="userSpaceOnUse" x1="-1665.2524" y1="273.8745" x2="-1830.9943" y2="273.8745" gradientTransform="matrix(0.2105 0 0 -0.2105 -327.1258 -40.1416)">
				<stop  offset="0" style="stop-color:#FFF4E8"/>
				<stop  offset="1" style="stop-color:#B8BBC5"/>
			</linearGradient>
			<path class="st11" d="M-700.18-96.967c0.146-0.009,0.282-0.036,0.409-0.082c0.036,0.009,0.068,0.023,0.095,0.041
				c0-0.009,0.005-0.018,0.014-0.027c-0.018-0.009-0.041-0.023-0.068-0.041c-0.045-0.036-0.077-0.068-0.096-0.095
				C-699.943-97.108-700.061-97.04-700.18-96.967 M-698.816-97.744c0.036,0,0.077,0,0.123,0c0.173,0,0.336-0.032,0.491-0.096
				c-0.055-0.055-0.077-0.123-0.068-0.205C-698.461-97.944-698.643-97.844-698.816-97.744 M-696.879-97.117
				c-0.073,0.073-0.118,0.15-0.136,0.232c0,0.064,0.009,0.123,0.027,0.177c0.155-0.082,0.309-0.164,0.464-0.245
				c-0.091-0.027-0.173-0.059-0.246-0.095C-696.815-97.076-696.852-97.099-696.879-97.117 M-696.606-98.522
				c0.036,0.009,0.064,0.023,0.082,0.041c-0.036,0.064-0.059,0.132-0.068,0.205c-0.027,0.109,0.014,0.204,0.123,0.286
				c-0.055,0.073-0.136,0.141-0.246,0.205c-0.2,0.1-0.427,0.159-0.682,0.177c-0.264,0.018-0.482-0.018-0.655-0.109
				c-0.027-0.018-0.055-0.041-0.082-0.068c-0.018-0.018-0.041-0.036-0.068-0.055v0.014c0.027,0.009,0.05,0.027,0.068,0.055
				c-0.036,0.055-0.059,0.114-0.068,0.177c-0.018,0.118,0.027,0.223,0.136,0.314c-0.009,0-0.018,0.005-0.027,0.014
				c0.036,0.027,0.064,0.055,0.082,0.082c0.027-0.009,0.05-0.018,0.068-0.027c0.164,0.073,0.364,0.109,0.6,0.109
				c0.136-0.018,0.259-0.036,0.368-0.055c0.009,0,0.023,0.005,0.041,0.014c0.018,0.009,0.036,0.018,0.055,0.027
				c-0.018-0.018-0.036-0.041-0.055-0.068c-0.045-0.064-0.064-0.136-0.055-0.218c0.027-0.145,0.141-0.273,0.341-0.382
				c0.091-0.046,0.182-0.082,0.273-0.109c0.009-0.009,0.018-0.014,0.027-0.014c0.164,0.073,0.368,0.105,0.614,0.096
				c0.127-0.009,0.25-0.027,0.368-0.055c0.018,0,0.032,0.005,0.041,0.014c0.018,0.009,0.032,0.023,0.041,0.041
				c-0.073,0.073-0.109,0.15-0.109,0.232v0.014c0.118-0.064,0.246-0.132,0.382-0.205c-0.082-0.027-0.159-0.059-0.232-0.095h-0.027
				c-0.009-0.009-0.023-0.018-0.041-0.027c-0.136-0.091-0.195-0.2-0.177-0.327c0.027-0.146,0.141-0.273,0.341-0.382
				c0.073-0.045,0.15-0.082,0.232-0.109c0.027-0.009,0.055-0.014,0.082-0.014c-0.018-0.009-0.032-0.018-0.041-0.027
				c-0.036-0.018-0.068-0.036-0.095-0.055c-0.009,0.018-0.023,0.032-0.041,0.041c-0.045,0.046-0.114,0.095-0.205,0.15
				c-0.2,0.109-0.427,0.173-0.682,0.191c-0.227,0.009-0.423-0.023-0.586-0.095c-0.018-0.009-0.041-0.018-0.068-0.027
				c-0.155-0.091-0.227-0.2-0.218-0.327c-0.236,0.136-0.477,0.273-0.723,0.409c0.118,0.027,0.255,0.036,0.409,0.027
				C-696.911-98.449-696.751-98.476-696.606-98.522z"/>
			<path class="st12" d="M-699.77-97.049c-0.127,0.045-0.264,0.073-0.409,0.082c-0.391,0.227-0.759,0.45-1.105,0.668
				c0.018,0.009,0.041,0.023,0.068,0.041c0.173,0.091,0.391,0.132,0.655,0.123c0.255-0.018,0.482-0.082,0.682-0.191
				c0.118-0.054,0.2-0.118,0.245-0.191c-0.109-0.082-0.15-0.182-0.123-0.3c0.009-0.064,0.036-0.127,0.082-0.191
				C-699.702-97.026-699.734-97.04-699.77-97.049 M-704.858-93.707c-0.027,0.136,0.045,0.255,0.218,0.355
				c0.164,0.091,0.382,0.132,0.655,0.123c0.255-0.009,0.482-0.068,0.682-0.177c0.073-0.046,0.141-0.096,0.205-0.15
				c-0.136-0.091-0.195-0.2-0.177-0.327c0.009-0.091,0.05-0.173,0.123-0.245c-0.01-0.009-0.023-0.019-0.041-0.027
				c-0.018-0.009-0.036-0.018-0.055-0.027c-0.109,0.036-0.227,0.059-0.355,0.068c-0.218,0.009-0.4-0.014-0.545-0.068
				c-0.109,0.109-0.2,0.218-0.273,0.327c-0.1-0.036-0.205-0.064-0.314-0.082C-704.808-93.866-704.849-93.789-704.858-93.707
				 M-696.552-98.549c0.027,0.009,0.05,0.018,0.068,0.027c0.164,0.073,0.359,0.104,0.586,0.095c0.255-0.018,0.482-0.082,0.682-0.191
				c0.091-0.055,0.159-0.105,0.205-0.15c0.018-0.009,0.032-0.023,0.041-0.041c-0.109-0.082-0.15-0.182-0.123-0.3
				c0.009-0.073,0.036-0.132,0.082-0.177c-0.027-0.027-0.059-0.05-0.095-0.068c-0.145,0.055-0.305,0.086-0.477,0.095
				c-0.164,0-0.309-0.014-0.437-0.041c-0.236,0.146-0.486,0.286-0.75,0.423C-696.779-98.749-696.706-98.64-696.552-98.549z"/>
			<path class="st13" d="M-698.011-97.185c-0.018-0.027-0.045-0.055-0.082-0.082c-0.055,0.064-0.132,0.123-0.232,0.177
				c-0.191,0.109-0.418,0.168-0.682,0.177c-0.264,0.009-0.477-0.032-0.641-0.123h-0.014c-0.009,0.009-0.014,0.018-0.014,0.027
				c-0.045,0.064-0.073,0.127-0.082,0.191c-0.027,0.118,0.014,0.218,0.123,0.3c0.027,0.027,0.059,0.045,0.096,0.054
				c0.009,0.009,0.023,0.018,0.041,0.027c0.155,0.073,0.355,0.105,0.6,0.096c0.127-0.009,0.25-0.027,0.368-0.055
				c0.027-0.009,0.05-0.014,0.068-0.014c-0.1-0.082-0.141-0.182-0.123-0.3c0.018-0.145,0.127-0.273,0.327-0.382
				C-698.184-97.135-698.102-97.167-698.011-97.185 M-702.607-94.921c-0.009,0-0.023,0-0.041,0c-0.1,0.036-0.191,0.077-0.273,0.123
				c-0.2,0.118-0.309,0.245-0.327,0.382c-0.018,0.082,0,0.155,0.055,0.218c0.009,0.027,0.023,0.05,0.041,0.068
				c0.036,0.027,0.077,0.055,0.123,0.082c0.173,0.091,0.386,0.127,0.641,0.109c0.255,0,0.482-0.059,0.682-0.177
				c0.082-0.045,0.15-0.091,0.204-0.136v-0.014c-0.136-0.082-0.195-0.186-0.177-0.314c0.018-0.091,0.064-0.173,0.136-0.246
				c-0.018-0.009-0.032-0.018-0.041-0.027c-0.018-0.009-0.036-0.018-0.055-0.027c-0.109,0.036-0.232,0.054-0.368,0.054
				C-702.243-94.807-702.443-94.839-702.607-94.921 M-696.524-98.481c-0.018-0.018-0.046-0.032-0.082-0.041
				c-0.145,0.045-0.305,0.073-0.477,0.082c-0.155,0.009-0.291,0-0.409-0.027c-0.173,0.1-0.355,0.2-0.545,0.3
				c-0.073,0.045-0.15,0.086-0.232,0.123c-0.009,0.082,0.014,0.15,0.068,0.205c0.027,0.018,0.05,0.036,0.068,0.055
				c0.027,0.027,0.055,0.05,0.082,0.068c0.173,0.091,0.391,0.127,0.655,0.109c0.255-0.018,0.482-0.077,0.682-0.177
				c0.109-0.064,0.191-0.132,0.246-0.205c-0.109-0.082-0.15-0.177-0.123-0.286C-696.583-98.349-696.561-98.417-696.524-98.481z"/>
			<path class="st14" d="M-696.374-97.894c-0.091,0.027-0.182,0.064-0.273,0.109c-0.2,0.109-0.314,0.236-0.341,0.382
				c-0.009,0.082,0.009,0.155,0.055,0.218c0.018,0.027,0.036,0.05,0.055,0.068c0.027,0.018,0.064,0.041,0.109,0.068
				c0.073,0.036,0.155,0.068,0.246,0.095c0.355-0.2,0.727-0.405,1.118-0.614h0.014v-0.014c0-0.082,0.036-0.159,0.109-0.232
				c-0.009-0.018-0.023-0.032-0.041-0.041c-0.009-0.009-0.023-0.014-0.041-0.014c-0.118,0.027-0.241,0.045-0.368,0.055
				c-0.245,0.009-0.45-0.023-0.614-0.096C-696.356-97.908-696.365-97.903-696.374-97.894z"/>
			
				<linearGradient id="SVGID_4_" gradientUnits="userSpaceOnUse" x1="-1665.2533" y1="248.7344" x2="-1830.9939" y2="248.7344" gradientTransform="matrix(0.2105 0 0 -0.2105 -327.1258 -40.1416)">
				<stop  offset="0" style="stop-color:#DFCAB0"/>
				<stop  offset="1" style="stop-color:#B8BBC5"/>
			</linearGradient>
			<path class="st15" d="M-702.607-94.921c-0.01,0-0.028-0.009-0.055-0.027c-0.009,0-0.018-0.005-0.027-0.014
				c-0.018-0.009-0.032-0.023-0.041-0.041h-0.014c-0.1-0.073-0.146-0.155-0.136-0.245c-0.309,0.227-0.582,0.437-0.818,0.627
				c-0.173,0.155-0.323,0.3-0.45,0.437c0.146,0.054,0.327,0.077,0.545,0.068c0.127-0.009,0.246-0.032,0.355-0.068
				c0.018,0.009,0.036,0.018,0.055,0.027c0.018,0.009,0.031,0.018,0.041,0.027c-0.018-0.019-0.032-0.041-0.041-0.068
				c-0.055-0.064-0.073-0.136-0.055-0.218c0.018-0.136,0.127-0.264,0.327-0.382c0.082-0.046,0.173-0.086,0.273-0.123
				C-702.63-94.921-702.617-94.921-702.607-94.921 M-708.704-93.966c-0.909,0.118-2.191,0.355-3.846,0.709h0.014
				c2.964,0.736,5.06,1.018,6.288,0.846c0.245-0.036,0.455-0.095,0.627-0.177c-0.309,0.227-0.464,0.596-0.464,1.105v0.164
				c0,0.009,0,0.023,0,0.041v0.027c0.036,0.391,0.146,0.855,0.327,1.391c0.018,0.027,0.027,0.055,0.027,0.082
				c0.009,0.009,0.014,0.018,0.014,0.027c0.136,0.373,0.305,0.777,0.505,1.214c0.009,0.018,0.018,0.036,0.027,0.055
				c0.455-0.455,0.846-0.914,1.173-1.378c0.055-0.073,0.104-0.146,0.15-0.218c0.091-0.127,0.173-0.255,0.245-0.382
				c0.046-0.082,0.086-0.155,0.123-0.218c0.318-0.6,0.491-1.146,0.518-1.637c0-0.018,0-0.041,0-0.068c0-0.009,0-0.018,0-0.027
				c0-0.045-0.005-0.091-0.014-0.136c-0.155-0.018-0.291-0.059-0.409-0.123c-0.173-0.091-0.245-0.209-0.218-0.355
				c0.027-0.136,0.141-0.264,0.341-0.382c0.073-0.046,0.155-0.077,0.246-0.096c0.164,0.073,0.373,0.105,0.627,0.096
				c0.146-0.009,0.286-0.036,0.423-0.082c0.009,0.009,0.018,0.014,0.027,0.014c0.009,0.009,0.018,0.018,0.027,0.027
				c-0.082,0.073-0.132,0.155-0.15,0.245c-0.009,0.109,0.027,0.205,0.109,0.286c0.382-0.055,0.8-0.127,1.255-0.218
				c0.418-0.082,0.868-0.182,1.35-0.3c0.045-0.018,0.095-0.032,0.15-0.041c0.045-0.018,0.082-0.027,0.109-0.027
				c0.027-0.009,0.055-0.018,0.082-0.027c0.427-0.109,0.882-0.227,1.364-0.355c0.237-0.073,0.473-0.141,0.709-0.205
				c0.327-0.1,0.664-0.2,1.009-0.3c0.255-0.073,0.514-0.15,0.777-0.232c0.091-0.036,0.177-0.068,0.259-0.096
				c0.309-0.091,0.614-0.186,0.914-0.286c-0.109-0.018-0.205-0.05-0.286-0.095c-0.009-0.018-0.023-0.027-0.041-0.027
				c-0.009-0.009-0.023-0.018-0.041-0.027c-0.109-0.082-0.15-0.182-0.123-0.3c0-0.018,0-0.036,0-0.054
				c-0.509,0.182-0.987,0.341-1.432,0.477c-0.009,0.009-0.023,0.018-0.041,0.027c-0.636,0.191-1.196,0.355-1.678,0.491
				c-0.355,0.1-0.664,0.177-0.927,0.232c-0.1,0.018-0.191,0.036-0.273,0.055c-0.055,0.009-0.109,0.018-0.164,0.027
				c-0.027,0-0.059,0.005-0.095,0.014c-0.346,0.054-0.641,0.086-0.887,0.095c-0.155,0.009-0.291,0.014-0.409,0.014
				c-0.1-0.009-0.186-0.023-0.259-0.041c-0.109-0.027-0.182-0.068-0.218-0.123c-0.036-0.055,0.096-0.191,0.396-0.409
				c0.146-0.109,0.332-0.236,0.559-0.382c0.2-0.127,0.436-0.268,0.709-0.423c0.209-0.136,0.446-0.273,0.709-0.409
				c0.2-0.118,0.414-0.241,0.641-0.368c-0.209-0.009-0.382-0.05-0.518-0.123c-0.018-0.009-0.032-0.014-0.041-0.014
				c-0.018-0.018-0.036-0.032-0.055-0.041c-0.018,0-0.041,0.004-0.068,0.014c-0.118,0.027-0.241,0.045-0.368,0.055
				c-0.245,0.009-0.445-0.023-0.6-0.096c-0.018-0.009-0.032-0.018-0.041-0.027c-0.036-0.009-0.068-0.027-0.096-0.054
				c-0.045,0.073-0.127,0.136-0.245,0.191c-0.2,0.109-0.427,0.173-0.682,0.191c-0.264,0.009-0.482-0.032-0.655-0.123
				c-0.027-0.018-0.05-0.032-0.068-0.041h-0.014c-0.473,0.291-0.896,0.568-1.268,0.832c0.118,0.027,0.255,0.036,0.409,0.027
				c0.255-0.009,0.482-0.073,0.682-0.191c0.082-0.036,0.145-0.082,0.191-0.136c0.027,0,0.05,0.009,0.068,0.027
				c0.018,0,0.032,0.005,0.041,0.014c0.018,0,0.041-0.005,0.068-0.014c0.164,0.073,0.364,0.105,0.6,0.095
				c0.146-0.009,0.268-0.023,0.368-0.041c0.018,0,0.036,0,0.055,0c0.018,0.018,0.032,0.032,0.041,0.041
				c-0.073,0.073-0.118,0.15-0.136,0.232c-0.018,0.127,0.041,0.241,0.177,0.341c-0.009,0.009-0.023,0.018-0.041,0.027
				c-0.045,0.045-0.1,0.082-0.164,0.109c-0.2,0.109-0.427,0.168-0.682,0.177c-0.246,0.009-0.45-0.023-0.614-0.096
				c-0.009-0.009-0.018-0.018-0.027-0.027s-0.023-0.014-0.041-0.014c-0.018,0.009-0.041,0.014-0.068,0.014
				c0.018,0.009,0.036,0.018,0.055,0.027c0.009,0.009,0.023,0.018,0.041,0.027c-0.073,0.073-0.118,0.155-0.136,0.246
				c-0.018,0.127,0.041,0.232,0.177,0.314v0.014c-0.055,0.045-0.123,0.091-0.204,0.136c-0.2,0.118-0.427,0.177-0.682,0.177
				c-0.255,0.018-0.468-0.018-0.641-0.109c-0.046-0.027-0.086-0.055-0.123-0.082c-0.073,0.073-0.114,0.155-0.123,0.245
				c-0.018,0.127,0.041,0.236,0.177,0.327c-0.064,0.055-0.132,0.105-0.205,0.15c-0.2,0.109-0.427,0.168-0.682,0.177
				c-0.273,0.009-0.491-0.032-0.655-0.123c-0.173-0.1-0.245-0.218-0.218-0.355c0.009-0.082,0.05-0.159,0.123-0.232
				c-0.055-0.009-0.114-0.018-0.177-0.027c-0.291-0.055-0.609-0.091-0.955-0.109c-0.046,0-0.086,0-0.123,0
				c-0.082-0.009-0.168-0.014-0.259-0.014C-707.104-94.116-707.922-94.075-708.704-93.966z"/>
			<path class="st16" d="M-681.767-101.113c-0.082,0.036-0.159,0.077-0.232,0.123c-0.2,0.109-0.314,0.232-0.341,0.368
				c-0.018,0.127,0.036,0.236,0.164,0.327c0.236-0.136,0.464-0.277,0.682-0.423c0.136-0.091,0.264-0.177,0.382-0.259
				c-0.237,0.009-0.427-0.032-0.573-0.123c-0.009-0.009-0.023-0.014-0.041-0.014C-681.735-101.113-681.749-101.113-681.767-101.113
				 M-683.24-100.322c-0.018-0.009-0.032-0.018-0.041-0.027c-0.1,0.036-0.195,0.077-0.286,0.123
				c-0.154,0.091-0.259,0.186-0.314,0.286c0,0.027-0.005,0.059-0.014,0.095c-0.018,0.1,0.014,0.191,0.095,0.273
				c0.018,0.018,0.036,0.036,0.055,0.055h0.014c0.018,0.009,0.036,0.018,0.055,0.027c0.027,0.018,0.055,0.032,0.082,0.041
				c0.282-0.164,0.559-0.327,0.832-0.491c0.191-0.109,0.373-0.214,0.546-0.314c-0.118,0.036-0.241,0.055-0.368,0.055
				C-682.858-100.19-683.076-100.231-683.24-100.322 M-678.63-103.255c-0.018-0.009-0.045-0.023-0.082-0.041
				c-0.009-0.009-0.023-0.018-0.041-0.027c-0.146,0.055-0.309,0.086-0.491,0.095c-0.055,0-0.109,0-0.164,0
				c-0.273,0.191-0.564,0.4-0.873,0.627c0.018,0.027,0.046,0.05,0.082,0.068c0.018,0.009,0.036,0.018,0.055,0.027
				c0.027,0.009,0.05,0.018,0.068,0.027c0.155,0.073,0.345,0.105,0.573,0.095c0.154-0.009,0.295-0.036,0.423-0.082
				c0.118-0.1,0.232-0.196,0.341-0.286c-0.045-0.064-0.064-0.136-0.055-0.218C-678.775-103.068-678.721-103.164-678.63-103.255z"/>
			
				<linearGradient id="SVGID_5_" gradientUnits="userSpaceOnUse" x1="-1665.285" y1="291.1743" x2="-1831.0267" y2="291.1743" gradientTransform="matrix(0.2105 0 0 -0.2105 -327.1258 -40.1416)">
				<stop  offset="0" style="stop-color:#E8D5BE"/>
				<stop  offset="1" style="stop-color:#B8BBC5"/>
			</linearGradient>
			<path class="st17" d="M-679.08-102.463c-0.127,0.045-0.268,0.073-0.423,0.082c-0.227,0.009-0.418-0.023-0.573-0.095
				c-0.018-0.009-0.041-0.018-0.068-0.027c-0.018-0.009-0.036-0.018-0.055-0.027c-0.036-0.018-0.064-0.041-0.082-0.068
				c-0.082,0.054-0.164,0.114-0.245,0.177c-0.327,0.236-0.682,0.495-1.064,0.777c-0.1,0.073-0.205,0.15-0.314,0.232
				c-0.1,0.082-0.209,0.164-0.327,0.245c-0.136,0.1-0.273,0.2-0.409,0.3c-0.227,0.164-0.464,0.323-0.709,0.477
				c-0.1,0.064-0.209,0.136-0.327,0.218c-0.127,0.082-0.259,0.159-0.396,0.232c-0.209,0.127-0.423,0.255-0.641,0.382
				c-0.255,0.146-0.518,0.286-0.791,0.423c-0.236,0.127-0.482,0.255-0.737,0.382c0.155,0.055,0.332,0.077,0.532,0.068
				c0.155-0.009,0.291-0.027,0.409-0.055c0.027,0.009,0.045,0.023,0.055,0.041c-0.064,0.064-0.109,0.132-0.136,0.205
				c0.127-0.073,0.255-0.141,0.382-0.205c0.382-0.191,0.755-0.386,1.118-0.586c0.1-0.055,0.195-0.109,0.286-0.164
				c-0.027-0.009-0.055-0.023-0.082-0.041c-0.018-0.009-0.036-0.018-0.055-0.027h-0.014c-0.018-0.018-0.036-0.036-0.055-0.055
				c-0.082-0.082-0.114-0.173-0.095-0.273c0.009-0.036,0.014-0.068,0.014-0.095c0.055-0.1,0.159-0.196,0.314-0.286
				c0.091-0.045,0.186-0.086,0.286-0.123c0.009,0.009,0.023,0.018,0.041,0.027c0.164,0.091,0.382,0.132,0.655,0.123
				c0.127,0,0.25-0.018,0.368-0.055c0.018-0.018,0.032-0.032,0.041-0.041c-0.127-0.091-0.182-0.2-0.164-0.327
				c0.027-0.136,0.141-0.259,0.341-0.368c0.073-0.046,0.15-0.086,0.232-0.123c0.018,0,0.032,0,0.041,0
				c0.018,0,0.032,0.005,0.041,0.014c0.146,0.091,0.336,0.132,0.573,0.123c0.136-0.091,0.264-0.177,0.382-0.259
				c0.264-0.173,0.509-0.346,0.737-0.518c0.3-0.218,0.573-0.427,0.818-0.627C-679.139-102.409-679.107-102.436-679.08-102.463
				 M-677.743-103.923c0.036-0.082,0.059-0.159,0.068-0.232c0.009-0.082,0.009-0.15,0-0.204v-0.014
				c-0.164,0.091-0.355,0.209-0.573,0.355l-0.014,0.014c-0.146,0.091-0.3,0.191-0.464,0.3c-0.209,0.146-0.437,0.305-0.682,0.477
				c0.055,0,0.109,0,0.164,0c0.182-0.009,0.346-0.041,0.491-0.095c0.018,0.009,0.032,0.018,0.041,0.027
				c0.036,0.018,0.064,0.032,0.082,0.041c-0.091,0.091-0.145,0.186-0.164,0.286c-0.009,0.082,0.009,0.155,0.055,0.218
				c0.155-0.127,0.286-0.25,0.396-0.368c0.027-0.036,0.055-0.068,0.082-0.096C-678.016-103.477-677.843-103.714-677.743-103.923z"/>
			<path class="st18" d="M-677.675-104.155c-0.009,0.073-0.032,0.15-0.068,0.232c-0.1,0.209-0.273,0.446-0.518,0.709
				c-0.027,0.027-0.055,0.059-0.082,0.096c-0.109,0.118-0.241,0.241-0.396,0.368c-0.109,0.091-0.223,0.186-0.341,0.286
				c-0.027,0.027-0.059,0.054-0.096,0.082c-0.245,0.2-0.518,0.409-0.818,0.627c-0.227,0.173-0.473,0.345-0.737,0.518
				c-0.118,0.082-0.245,0.168-0.382,0.259c-0.118,0.082-0.246,0.168-0.382,0.259c-0.218,0.146-0.446,0.286-0.682,0.423
				c-0.009,0.009-0.023,0.023-0.041,0.041c-0.173,0.1-0.355,0.205-0.546,0.314c-0.273,0.164-0.55,0.327-0.832,0.491
				c-0.091,0.055-0.186,0.109-0.286,0.164c-0.364,0.2-0.737,0.396-1.118,0.586c-0.127,0.064-0.255,0.132-0.382,0.205
				c-0.4,0.2-0.805,0.4-1.214,0.6c-0.136,0.055-0.273,0.114-0.409,0.177c-0.382,0.173-0.768,0.35-1.159,0.532
				c-0.136,0.054-0.277,0.114-0.423,0.177c-0.446,0.182-0.896,0.368-1.35,0.559c-0.082,0.018-0.159,0.045-0.232,0.082
				c-0.473,0.182-0.959,0.368-1.459,0.559c-0.127,0.046-0.264,0.091-0.409,0.136c-0.418,0.146-0.846,0.296-1.282,0.45
				c-0.227,0.073-0.45,0.145-0.668,0.218c-0.3,0.1-0.605,0.196-0.914,0.286c-0.082,0.027-0.168,0.059-0.259,0.096
				c-0.264,0.082-0.523,0.159-0.777,0.232c-0.346,0.1-0.682,0.2-1.009,0.3c-0.236,0.064-0.473,0.132-0.709,0.205
				c-0.482,0.127-0.936,0.246-1.364,0.355c-0.027,0.009-0.055,0.018-0.082,0.027c-0.027,0-0.064,0.009-0.109,0.027
				c-0.055,0.009-0.105,0.023-0.15,0.041c-0.482,0.118-0.932,0.218-1.35,0.3c-0.455,0.091-0.873,0.164-1.255,0.218
				c-0.127,0.018-0.25,0.036-0.368,0.054c-0.255,0.027-0.491,0.046-0.709,0.055c0.018,0.082,0.036,0.168,0.055,0.259
				c0.009,0.046,0.014,0.091,0.014,0.136c0,0.009,0,0.018,0,0.027c0,0.027,0,0.05,0,0.068l0.218,0.859
				c2.528,0.173,5.792-0.277,9.793-1.35c4.01-1.073,7.833-2.791,11.47-5.155c1.164-0.755,2.064-1.414,2.701-1.978
				c0.209-0.173,0.386-0.336,0.532-0.491c0.2-0.218,0.35-0.418,0.45-0.6c0.082-0.155,0.132-0.291,0.15-0.409
				c0-0.036,0-0.077,0-0.123L-677.675-104.155z"/>
			
				<linearGradient id="SVGID_6_" gradientUnits="userSpaceOnUse" x1="-1665.3174" y1="287.3835" x2="-1775.5312" y2="287.3835" gradientTransform="matrix(0.2105 0 0 -0.2105 -327.1258 -40.1416)">
				<stop  offset="0" style="stop-color:#FFFFFF"/>
				<stop  offset="1" style="stop-color:#C7C6C6"/>
			</linearGradient>
			<path class="st19" d="M-682.422-106.664c-0.191,0.218-0.445,0.518-0.764,0.9c-0.109,0.136-0.227,0.282-0.355,0.436
				c-0.145,0.173-0.295,0.359-0.45,0.559c-0.027,0.036-0.064,0.073-0.109,0.109c-0.055,0.073-0.114,0.141-0.177,0.205
				c-0.246,0.255-0.55,0.532-0.914,0.832c-0.118,0.091-0.241,0.186-0.368,0.286c-0.164,0.127-0.336,0.255-0.518,0.382
				c-0.246,0.173-0.509,0.355-0.791,0.546c-0.218,0.146-0.445,0.296-0.682,0.45c-0.164,0.109-0.336,0.214-0.518,0.314
				c0.055,0,0.109,0,0.164,0c0.118,0,0.236-0.014,0.355-0.041c0.018,0,0.036,0.005,0.055,0.014c0.009,0.009,0.023,0.023,0.041,0.041
				c-0.082,0.073-0.123,0.15-0.123,0.232c-0.027,0.127,0.027,0.236,0.164,0.327c-0.009,0.009-0.023,0.023-0.041,0.041
				c0.018,0,0.027,0.005,0.027,0.014c0.018,0,0.027,0.005,0.027,0.014c-0.064,0.027-0.127,0.055-0.191,0.082
				c-0.2,0.109-0.309,0.236-0.327,0.382c-0.018,0.136,0.045,0.25,0.191,0.341c-0.027,0.009-0.045,0.018-0.055,0.027
				c-0.136,0.036-0.282,0.059-0.436,0.068c-0.255,0.018-0.464-0.018-0.627-0.109c0-0.009-0.009-0.014-0.027-0.014
				c-0.009-0.009-0.023-0.018-0.041-0.027c-0.136-0.091-0.191-0.2-0.164-0.327c0-0.082,0.036-0.159,0.109-0.232
				c0.018-0.018,0.036-0.032,0.055-0.041c-0.009,0-0.014-0.005-0.014-0.014c-0.027-0.009-0.045-0.018-0.054-0.027
				c-0.055-0.027-0.096-0.064-0.123-0.109c-0.109,0.064-0.218,0.127-0.327,0.191c-0.373,0.209-0.759,0.432-1.159,0.668
				c0.009,0,0.018,0.009,0.027,0.027c-0.055,0.054-0.091,0.114-0.109,0.177c-0.009,0.027-0.014,0.05-0.014,0.068
				c-0.027,0.118,0.027,0.227,0.164,0.327c-0.009,0.009-0.027,0.023-0.055,0.041c-0.036,0.027-0.082,0.059-0.136,0.095
				c-0.2,0.109-0.427,0.168-0.682,0.177c-0.264,0.018-0.482-0.018-0.655-0.109c-0.064,0.036-0.127,0.073-0.191,0.109
				c-0.373,0.191-0.755,0.391-1.146,0.6c-0.064,0.036-0.127,0.068-0.191,0.096c-0.109,0.055-0.218,0.114-0.327,0.177
				c-0.009,0.109,0.05,0.205,0.177,0.286c-0.009,0.018-0.023,0.027-0.041,0.027c-0.045,0.036-0.095,0.077-0.15,0.123
				c-0.2,0.1-0.432,0.159-0.696,0.177c-0.145,0.009-0.277,0-0.396-0.027c-0.136,0.073-0.264,0.141-0.382,0.205h-0.014
				c-0.391,0.209-0.764,0.414-1.118,0.614c0.118,0.018,0.255,0.027,0.409,0.027c0.264-0.009,0.495-0.068,0.695-0.177
				c0.073-0.046,0.132-0.096,0.177-0.15c0.027,0.027,0.045,0.045,0.055,0.054h0.027c0.164,0.082,0.373,0.114,0.627,0.096
				c0.155,0,0.296-0.023,0.423-0.068c0.009,0,0.023,0.005,0.041,0.014l0.014,0.014c-0.082,0.082-0.132,0.168-0.15,0.259
				c-0.018,0.136,0.045,0.25,0.191,0.341c-0.045,0.045-0.105,0.086-0.177,0.123c-0.191,0.118-0.418,0.177-0.682,0.177
				c-0.264,0.018-0.477-0.023-0.641-0.123c-0.055-0.027-0.105-0.054-0.15-0.082c0-0.018-0.005-0.027-0.014-0.027s-0.023,0-0.041,0
				c-0.127,0.046-0.268,0.073-0.423,0.082c-0.245,0-0.45-0.041-0.614-0.123h-0.027c-0.018-0.018-0.036-0.027-0.055-0.027
				c-0.073-0.046-0.123-0.1-0.15-0.164c-0.3,0.173-0.586,0.332-0.859,0.477c-0.227,0.127-0.441,0.25-0.641,0.368
				c-0.264,0.136-0.5,0.273-0.709,0.409c-0.273,0.155-0.509,0.296-0.709,0.423c0.173,0.073,0.373,0.105,0.6,0.096
				c0.155,0,0.3-0.023,0.436-0.068c0.009,0,0.018,0.005,0.027,0.014c0.009,0.009,0.018,0.014,0.027,0.014
				c-0.082,0.082-0.132,0.168-0.15,0.259c-0.027,0.136,0.036,0.25,0.191,0.341c-0.009,0.009-0.023,0.018-0.041,0.027
				c-0.036,0.036-0.082,0.068-0.136,0.096c-0.045,0.027-0.091,0.05-0.136,0.068c0.036-0.009,0.068-0.014,0.095-0.014
				c0.055-0.009,0.109-0.018,0.164-0.027c0.082-0.018,0.173-0.036,0.273-0.055c0.264-0.055,0.573-0.132,0.927-0.232
				c0.482-0.136,1.041-0.3,1.678-0.491c0.018-0.009,0.032-0.018,0.041-0.027c0.446-0.136,0.923-0.296,1.432-0.477
				c0.118-0.036,0.241-0.077,0.368-0.123c0.391-0.136,0.8-0.277,1.228-0.423c0.327-0.118,0.668-0.241,1.023-0.368
				c0.155-0.055,0.314-0.109,0.477-0.164c0.018-0.009,0.041-0.018,0.068-0.027l0.027-0.014c0.009,0,0.018,0,0.027,0
				c0.018-0.009,0.036-0.018,0.055-0.027c-0.018-0.009-0.036-0.018-0.055-0.027c-0.1-0.082-0.141-0.182-0.123-0.3
				c0.018-0.1,0.077-0.191,0.177-0.273c0.018,0.009,0.041,0.023,0.068,0.041c0.173,0.091,0.391,0.136,0.655,0.136
				c0.209-0.018,0.4-0.064,0.573-0.136c-0.073,0.046-0.136,0.095-0.191,0.15c0.2-0.082,0.395-0.159,0.586-0.232
				c0.318-0.127,0.627-0.255,0.927-0.382c0.282-0.118,0.55-0.236,0.805-0.355c0.273-0.118,0.541-0.241,0.805-0.368
				c0.255-0.118,0.5-0.236,0.736-0.355c0.255-0.127,0.5-0.255,0.737-0.382c0.273-0.136,0.536-0.277,0.791-0.423
				c0.218-0.127,0.432-0.255,0.641-0.382c0.136-0.073,0.268-0.15,0.396-0.232c0.118-0.082,0.227-0.155,0.327-0.218
				c0.245-0.155,0.482-0.314,0.709-0.477c0.136-0.1,0.273-0.2,0.409-0.3c0.118-0.082,0.227-0.164,0.327-0.245
				c0.109-0.082,0.214-0.159,0.314-0.232c0.382-0.282,0.737-0.541,1.064-0.777c0.082-0.064,0.164-0.123,0.245-0.177
				c0.309-0.227,0.6-0.437,0.873-0.627c0.245-0.173,0.473-0.332,0.682-0.477c0.164-0.109,0.318-0.209,0.464-0.3l0.014-0.014
				c0.218-0.145,0.409-0.264,0.573-0.355c-0.045-0.191-0.195-0.336-0.45-0.436h-0.014h-0.014c-0.009,0.009-0.018,0.018-0.027,0.027
				c-0.027,0.009-0.055,0.023-0.082,0.041c-0.045,0.018-0.096,0.036-0.15,0.054c0.009,0.009,0.018,0.014,0.027,0.014l0.014,0.014
				c-0.073,0.082-0.118,0.168-0.136,0.259c-0.027,0.136,0.041,0.245,0.205,0.327c-0.009,0.009-0.018,0.014-0.027,0.014
				c-0.046,0.046-0.1,0.086-0.164,0.123c-0.2,0.109-0.432,0.173-0.695,0.191c-0.255,0-0.468-0.045-0.641-0.136
				c-0.055-0.027-0.1-0.059-0.136-0.095c-0.009,0-0.018-0.009-0.027-0.027c-0.045-0.064-0.064-0.136-0.055-0.218
				c0.018-0.155,0.127-0.286,0.327-0.396c0.073-0.036,0.15-0.068,0.232-0.096c0.009,0,0.018,0,0.027,0
				c-0.009-0.009-0.018-0.018-0.027-0.027c-0.018,0-0.036-0.009-0.055-0.027c-0.045,0.054-0.109,0.1-0.191,0.136
				c-0.2,0.118-0.432,0.186-0.696,0.205c-0.255,0.009-0.468-0.036-0.641-0.136c-0.046-0.018-0.082-0.041-0.109-0.068
				c-0.018-0.018-0.036-0.036-0.055-0.055c-0.055-0.073-0.073-0.15-0.055-0.232c0.018-0.146,0.127-0.273,0.327-0.382
				c0.091-0.046,0.186-0.086,0.286-0.123c0.009,0,0.023,0,0.041,0c0.155,0.073,0.355,0.105,0.6,0.095
				c0.091-0.009,0.182-0.023,0.273-0.041c-0.409-0.173-0.773-0.368-1.091-0.587c-0.027,0.055-0.046,0.105-0.055,0.15
				c-0.018,0.118,0.023,0.218,0.123,0.3c-0.045,0.073-0.123,0.141-0.232,0.205c-0.2,0.109-0.427,0.168-0.682,0.177
				c-0.264,0.018-0.482-0.023-0.655-0.123c-0.027-0.018-0.05-0.036-0.068-0.054c-0.027-0.018-0.055-0.036-0.082-0.055
				c-0.055-0.073-0.077-0.155-0.068-0.245c0.018-0.118,0.1-0.227,0.245-0.327c0.027-0.018,0.055-0.036,0.082-0.055
				c0.064-0.036,0.123-0.068,0.177-0.096c0.009,0,0.018,0,0.027,0c0.164,0.1,0.377,0.141,0.641,0.123c0.155,0,0.3-0.023,0.436-0.068
				c-0.264-0.191-0.491-0.4-0.682-0.627c-0.064-0.073-0.127-0.145-0.191-0.218c-0.009-0.009-0.018-0.018-0.027-0.027
				c-0.054-0.073-0.109-0.136-0.164-0.191C-682.09-107.042-682.221-106.901-682.422-106.664 M-681.521-103.173
				c0.018,0.009,0.027,0.018,0.027,0.027c0.009,0,0.018,0,0.027,0c-0.082,0.082-0.132,0.168-0.15,0.259
				c-0.018,0.136,0.045,0.255,0.191,0.355h-0.014c-0.036,0.036-0.091,0.077-0.164,0.123c-0.2,0.109-0.427,0.168-0.682,0.177
				c-0.264,0.018-0.482-0.023-0.655-0.123c-0.045-0.027-0.086-0.055-0.123-0.082c-0.009-0.027-0.023-0.041-0.041-0.041
				c-0.036-0.073-0.05-0.15-0.041-0.232c0.018-0.146,0.127-0.273,0.327-0.382c0.073-0.036,0.146-0.068,0.218-0.095
				c0.009-0.009,0.018-0.014,0.027-0.014c0.164,0.082,0.368,0.118,0.614,0.109C-681.794-103.1-681.649-103.127-681.521-103.173
				 M-684.331-103.145c0.009,0.009,0.018,0.023,0.027,0.041c-0.073,0.064-0.109,0.141-0.109,0.232
				c-0.027,0.127,0.027,0.236,0.164,0.327c-0.009,0.009-0.018,0.018-0.027,0.027c-0.046,0.036-0.1,0.073-0.164,0.109
				c-0.2,0.118-0.432,0.182-0.696,0.191c-0.264,0.009-0.477-0.032-0.641-0.123c-0.018-0.009-0.036-0.018-0.055-0.027
				c-0.018-0.009-0.032-0.023-0.041-0.041c-0.109-0.082-0.15-0.182-0.123-0.3c0.018-0.136,0.127-0.264,0.327-0.382
				c0.073-0.036,0.155-0.068,0.245-0.095c0.018-0.009,0.041-0.018,0.068-0.027c0.164,0.082,0.368,0.114,0.614,0.096
				c0.118,0,0.236-0.014,0.355-0.041C-684.367-103.159-684.349-103.155-684.331-103.145 M-697.22-95.671
				c0.009-0.009,0.018-0.018,0.027-0.027c0.027,0.009,0.05,0.023,0.068,0.041c0.173,0.091,0.391,0.132,0.655,0.123
				c0.255-0.018,0.482-0.082,0.682-0.191c0.054-0.027,0.105-0.059,0.15-0.095c0.009,0.009,0.018,0.018,0.027,0.027
				c-0.036,0.018-0.077,0.036-0.123,0.054c-0.2,0.118-0.314,0.245-0.341,0.382c-0.009,0.118,0.036,0.218,0.136,0.3
				c-0.027,0.009-0.046,0.018-0.055,0.027c-0.155,0.055-0.318,0.082-0.491,0.082c-0.255,0.018-0.464-0.014-0.627-0.095
				c-0.009,0-0.018-0.005-0.027-0.014c-0.009,0-0.018-0.005-0.027-0.014c-0.155-0.091-0.218-0.205-0.191-0.341
				C-697.347-95.512-697.302-95.599-697.22-95.671 M-689.391-99.477c0.009,0.009,0.018,0.014,0.027,0.014s0.014,0.005,0.014,0.014
				v0.014c-0.082,0.073-0.127,0.155-0.136,0.246c-0.027,0.136,0.036,0.255,0.191,0.355c-0.018,0.009-0.036,0.018-0.055,0.027
				c-0.036,0.036-0.077,0.064-0.123,0.082c-0.2,0.118-0.427,0.177-0.682,0.177c-0.264,0.018-0.482-0.018-0.655-0.109
				c-0.027-0.018-0.055-0.036-0.082-0.055c0.026-0.017,0.049-0.031,0.068-0.041c-0.02,0.01-0.047,0.019-0.082,0.027
				c-0.1-0.082-0.141-0.177-0.123-0.286c0.018-0.145,0.127-0.277,0.327-0.396c0.055-0.027,0.109-0.05,0.164-0.068
				c0.027-0.009,0.059-0.023,0.096-0.041c0.164,0.091,0.368,0.127,0.614,0.109C-689.664-99.417-689.518-99.44-689.391-99.477
				 M-687.932-98.685c-0.027-0.018-0.05-0.036-0.068-0.055c-0.027-0.027-0.059-0.059-0.096-0.095
				c-0.045-0.064-0.059-0.136-0.041-0.218c0.009-0.136,0.114-0.264,0.314-0.382c0.045-0.027,0.095-0.05,0.15-0.068
				c0.018-0.009,0.032-0.014,0.041-0.014c0.164,0.082,0.368,0.118,0.614,0.109c0.182-0.018,0.35-0.055,0.505-0.109
				c0.009,0.009,0.018,0.018,0.027,0.027c0.036,0.018,0.064,0.036,0.082,0.054c-0.091,0.082-0.145,0.173-0.164,0.273
				c-0.018,0.118,0.023,0.218,0.123,0.3c-0.036,0.036-0.082,0.073-0.136,0.109c-0.027,0.009-0.055,0.023-0.082,0.041
				c-0.009,0-0.018,0.005-0.027,0.014c-0.173,0.082-0.368,0.123-0.586,0.123C-687.541-98.558-687.759-98.595-687.932-98.685
				 M-690.905-98.058c0.009,0.009,0.018,0.023,0.027,0.041c-0.045,0.018-0.095,0.041-0.15,0.068c-0.2,0.109-0.309,0.236-0.327,0.382
				c-0.018,0.082,0,0.159,0.055,0.232h-0.027c-0.155,0.055-0.318,0.091-0.491,0.109c-0.255,0.009-0.464-0.027-0.627-0.109
				c-0.009,0-0.018-0.005-0.027-0.014c-0.009,0-0.018-0.005-0.027-0.014c-0.155-0.1-0.218-0.214-0.191-0.341
				c0.009-0.091,0.055-0.177,0.136-0.259l0.014-0.014c0.027,0.036,0.068,0.068,0.123,0.095c0.173,0.091,0.391,0.136,0.655,0.136
				c0.255-0.027,0.482-0.091,0.682-0.191C-691.009-97.972-690.95-98.013-690.905-98.058z"/>
			
				<linearGradient id="SVGID_7_" gradientUnits="userSpaceOnUse" x1="-1665.2529" y1="300.4158" x2="-1830.9943" y2="300.4158" gradientTransform="matrix(0.2105 0 0 -0.2105 -327.1258 -40.1416)">
				<stop  offset="0" style="stop-color:#E1CDB7"/>
				<stop  offset="1" style="stop-color:#B8BBC5"/>
			</linearGradient>
			<path class="st20" d="M-682.94-108.287c-0.009-0.018-0.018-0.032-0.027-0.041c-0.064-0.1-0.214-0.096-0.45,0.014
				c-0.018,0.009-0.036,0.018-0.055,0.027c-0.282,0.136-0.687,0.414-1.214,0.832c-0.073,0.055-0.15,0.114-0.232,0.177
				c-0.246,0.2-0.514,0.423-0.805,0.668c-0.255,0.218-0.523,0.459-0.805,0.723c-0.009,0.009-0.023,0.018-0.041,0.027
				c-0.1,0.1-0.209,0.205-0.327,0.314c-0.218,0.191-0.445,0.391-0.682,0.6c-0.155,0.127-0.318,0.259-0.491,0.396
				c-0.009,0.009-0.018,0.014-0.027,0.014c-0.036,0.036-0.073,0.068-0.109,0.095c-0.109,0.091-0.227,0.186-0.355,0.286
				c-0.209,0.164-0.432,0.332-0.668,0.505c-0.273,0.209-0.568,0.423-0.886,0.641l-0.014,0.014c-0.4,0.291-0.823,0.582-1.268,0.873
				c0.136,0.045,0.3,0.064,0.491,0.055c0.255-0.018,0.482-0.082,0.682-0.191c0.073-0.046,0.136-0.086,0.191-0.123
				c0.018,0,0.036,0.009,0.055,0.027c-0.046,0.018-0.091,0.036-0.136,0.054c-0.2,0.118-0.309,0.245-0.327,0.382
				c-0.027,0.146,0.041,0.264,0.205,0.355c-0.018,0.018-0.036,0.027-0.055,0.027c-0.146,0.055-0.305,0.086-0.477,0.095
				c-0.264,0.009-0.477-0.032-0.641-0.123c-0.027-0.018-0.055-0.032-0.082-0.041l-0.014-0.014c-0.118-0.082-0.159-0.182-0.123-0.3
				c0-0.018,0-0.036,0-0.055c-0.355,0.236-0.723,0.473-1.105,0.709c-0.146,0.091-0.295,0.186-0.45,0.286
				c-0.218,0.136-0.445,0.277-0.682,0.423c-0.146,0.082-0.291,0.168-0.437,0.259c-0.118,0.064-0.236,0.132-0.355,0.205v0.014
				c-0.036,0.018-0.077,0.036-0.123,0.055c-0.055,0.036-0.114,0.073-0.177,0.109c-0.336,0.2-0.691,0.405-1.064,0.614
				c0.127,0.027,0.273,0.041,0.437,0.041c0.173-0.009,0.332-0.041,0.477-0.095c0.036,0.018,0.068,0.041,0.095,0.068v-0.014
				c0.018,0.018,0.046,0.032,0.082,0.041c0.164,0.1,0.373,0.141,0.627,0.123c0.264,0,0.496-0.059,0.696-0.177
				c0.109-0.064,0.191-0.127,0.245-0.191c0.036,0.027,0.068,0.055,0.096,0.082c-0.1,0.036-0.195,0.077-0.286,0.123
				c-0.2,0.109-0.305,0.236-0.314,0.382c-0.018,0.082-0.005,0.155,0.041,0.218c-0.018,0-0.032,0-0.041,0
				c0.018,0.018,0.032,0.027,0.041,0.027c0.018,0.009,0.032,0.018,0.041,0.027c0.009,0,0.014,0.005,0.014,0.014
				c-0.082,0.064-0.123,0.141-0.123,0.232c0,0.009-0.004,0.023-0.014,0.041c0.109-0.064,0.218-0.123,0.327-0.177
				c0.064-0.027,0.127-0.059,0.191-0.096c0.391-0.209,0.773-0.409,1.146-0.6c0.064-0.036,0.127-0.073,0.191-0.109
				c0.373-0.2,0.732-0.4,1.078-0.6c0.127-0.064,0.255-0.132,0.382-0.205c0.4-0.236,0.787-0.459,1.159-0.668
				c0.109-0.064,0.218-0.127,0.327-0.191c0.364-0.218,0.709-0.432,1.037-0.641c0.182-0.1,0.355-0.205,0.518-0.314
				c0.237-0.155,0.464-0.305,0.682-0.45c0.282-0.191,0.546-0.373,0.791-0.546c0.182-0.127,0.355-0.255,0.518-0.382
				c0.127-0.1,0.25-0.195,0.368-0.286c0.364-0.3,0.668-0.577,0.914-0.832c0.064-0.064,0.123-0.132,0.177-0.205
				c0.045-0.036,0.082-0.073,0.109-0.109c0.155-0.2,0.305-0.386,0.45-0.559c0.127-0.155,0.246-0.3,0.355-0.436
				c0.318-0.382,0.573-0.682,0.764-0.9c0.2-0.236,0.332-0.377,0.396-0.423c-0.173-0.227-0.332-0.427-0.477-0.6
				C-682.694-107.933-682.84-108.133-682.94-108.287 M-686.431-105.219c0.009,0,0.023,0,0.041,0
				c0.164,0.082,0.368,0.114,0.614,0.096c0.136,0,0.264-0.023,0.382-0.068c0.018,0.009,0.032,0.018,0.041,0.027
				c0.027,0.018,0.055,0.032,0.082,0.041c-0.055,0.073-0.086,0.141-0.096,0.205c-0.018,0.127,0.027,0.236,0.136,0.327h0.014
				c-0.064,0.055-0.146,0.114-0.246,0.177c-0.2,0.109-0.427,0.168-0.682,0.177c-0.264,0.009-0.477-0.032-0.641-0.123
				c-0.036-0.018-0.068-0.036-0.095-0.055c-0.027-0.027-0.05-0.059-0.068-0.095c-0.064-0.055-0.082-0.123-0.055-0.205
				c0.009-0.145,0.114-0.273,0.314-0.382C-686.609-105.141-686.522-105.182-686.431-105.219 M-687.182-103.064
				c0.036,0.018,0.064,0.036,0.082,0.054c-0.036,0.064-0.064,0.127-0.082,0.191c-0.009,0.127,0.036,0.232,0.136,0.314
				c-0.055,0.064-0.136,0.123-0.245,0.177c-0.2,0.118-0.427,0.182-0.682,0.191c-0.264,0.009-0.477-0.032-0.641-0.123
				c-0.036-0.018-0.064-0.032-0.082-0.041h-0.014c-0.018-0.018-0.036-0.036-0.055-0.054c-0.073-0.082-0.095-0.168-0.068-0.259
				c0.009-0.146,0.114-0.273,0.314-0.382c0.064-0.027,0.123-0.05,0.177-0.068l0.027-0.014c0.164,0.091,0.382,0.132,0.655,0.123
				C-687.486-102.964-687.327-103-687.182-103.064z"/>
			<path class="st21" d="M-712.536-90.502h-0.014c3.11,0.773,5.265,1.041,6.465,0.805v0.764c-0.009,0.118-0.009,0.245,0,0.382
				c0.046,0.7,0.346,1.641,0.9,2.823v-2.755c-0.009-0.018-0.018-0.036-0.027-0.055c-0.2-0.437-0.368-0.841-0.505-1.214
				c0-0.009-0.005-0.018-0.014-0.027c0-0.027-0.009-0.054-0.027-0.082c-0.182-0.537-0.291-1-0.327-1.391v-0.027
				c0-0.018,0-0.032,0-0.041v-0.164c0-0.509,0.155-0.878,0.464-1.105c-0.173,0.082-0.382,0.141-0.627,0.177
				c-1.228,0.173-3.323-0.109-6.288-0.846V-90.502z"/>
		</g>
	</g>
</g>
</svg>
