<?xml version="1.0" encoding="utf-8"?>
<!-- Generator: Adobe Illustrator 19.1.0, SVG Export Plug-In . SVG Version: 6.00 Build 0)  -->
<svg version="1.1" id="Layer_1" xmlns="http://www.w3.org/2000/svg" xmlns:xlink="http://www.w3.org/1999/xlink" x="0px" y="0px"
	 viewBox="0 0 30.169 20.169" style="enable-background:new 0 0 30.169 20.169;" xml:space="preserve">
<style type="text/css">
	.st0{fill:#74B568;}
	.st1{fill:#4D7637;}
	.st2{fill:#86B65A;}
	.st3{fill:#B5DA99;}
</style>
<g transform="matrix( -1, 0, 0, 1, -76.6,1222.05) ">
	<g>
		<g id="people_0_Layer12_12_FILL">
			<path class="st0" d="M-80.023-1204.756h-0.014v0.873h0.014c0.055,0.027,0.123,0.041,0.205,0.041
				c0.064-0.009,0.123-0.027,0.177-0.055c0.027-0.036,0.041-0.073,0.041-0.109v-0.068l-0.014-0.75c0,0.018-0.009,0.036-0.027,0.055
				c-0.055,0.027-0.114,0.045-0.177,0.055C-79.901-1204.715-79.969-1204.729-80.023-1204.756z"/>
			<path class="st1" d="M-76.614-1207.17l0.014-0.586c-0.009,0.109-0.023,0.218-0.041,0.327c-0.191,1.146-1.196,1.978-3.014,2.496
				c0.018,0.009,0.032,0.023,0.041,0.041c0,0.018,0,0.041,0,0.068l0.014,0.75C-77.518-1204.683-76.523-1205.715-76.614-1207.17
				 M-97.045-1204.919c2.937,1.646,6.169,2.632,9.697,2.96c3.464,0.318,5.901-0.323,7.311-1.923v-0.873
				c-1.409,1.6-3.846,2.241-7.311,1.923c-3.528-0.327-6.76-1.314-9.697-2.96c-2.937-1.646-5.197-3.478-6.779-5.496
				c-1.5-1.91-2.455-5.197-2.864-9.861c-0.036-0.3-0.064-0.6-0.082-0.9v2.169c0.436,4.365,1.418,7.52,2.946,9.466
				C-102.241-1208.397-99.982-1206.565-97.045-1204.919z"/>
			<path class="st2" d="M-94.904-1217.399c-0.018-0.027-0.023-0.05-0.014-0.068c0.009-0.027,0.036-0.046,0.082-0.055
				c0.018-0.009,0.046-0.005,0.082,0.014c0.036,0.009,0.073,0.023,0.109,0.041c1.237,1.364,0.682,2.591-1.664,3.682
				c2.282,1.546,4.751,3.023,7.406,4.433c0.991-0.8,1.396-2.087,1.214-3.86c0-0.027,0.014-0.05,0.041-0.068
				c0.027-0.009,0.059-0.009,0.095,0c0.036-0.009,0.068-0.005,0.096,0.014c0.027,0.009,0.045,0.032,0.055,0.068
				c0.182,1.818-0.25,3.141-1.296,3.969c1.846,0.991,3.796,1.95,5.851,2.878c1.364-0.982,1.718-2.669,1.064-5.06
				c-0.018-0.027-0.014-0.046,0.014-0.055c0.027-0.018,0.068-0.027,0.123-0.027c0.027-0.009,0.055-0.005,0.082,0.014
				c0.027,0.018,0.045,0.036,0.054,0.055c0.682,2.446,0.314,4.169-1.105,5.169c0.937,0.427,1.896,0.85,2.878,1.268
				c0.036,0.018,0.064,0.036,0.082,0.055c1.819-0.518,2.823-1.35,3.014-2.496c0.018-0.109,0.032-0.218,0.041-0.327
				c-0.009-0.018-0.009-0.036,0-0.055c0-0.018,0-0.036,0-0.055c-0.009-0.318-0.068-0.659-0.177-1.023
				c-0.618-2-2.4-3.833-5.346-5.496c-2.946-1.673-6.36-2.978-10.243-3.914c-3.892-0.946-8.693-2.196-14.403-3.751
				c0.018,0.3,0.046,0.6,0.082,0.9c0.409,4.665,1.364,7.952,2.864,9.861c1.582,2.018,3.842,3.851,6.779,5.496
				c2.937,1.646,6.169,2.632,9.697,2.96c3.464,0.318,5.901-0.323,7.311-1.923c-0.009,0-0.018,0-0.027,0
				c-1-0.418-1.969-0.841-2.905-1.268c-1.846,1.037-5.51,1.05-10.993,0.041c-0.046-0.009-0.073-0.023-0.082-0.041
				c-0.018-0.018-0.027-0.041-0.027-0.068c0-0.018,0.023-0.032,0.068-0.041c0.018-0.009,0.05-0.009,0.096,0
				c5.328,0.973,8.897,0.973,10.707,0c-2.046-0.918-3.992-1.878-5.837-2.878c-1.391,0.818-4.192,0.927-8.402,0.327
				c-0.045-0.009-0.077-0.027-0.095-0.055c-0.018-0.009-0.027-0.027-0.027-0.055c0-0.018,0.014-0.032,0.041-0.041
				c0.036-0.018,0.077-0.023,0.123-0.014c4.083,0.6,6.797,0.514,8.143-0.259c-1.764-0.955-3.446-1.928-5.047-2.919
				c-1.337,0.964-3.783,0.987-7.338,0.068c-0.036-0.009-0.064-0.023-0.082-0.041c-0.018-0.027-0.018-0.045,0-0.054
				c0-0.027,0.023-0.041,0.068-0.041c0.036-0.018,0.073-0.023,0.109-0.014c3.41,0.882,5.756,0.864,7.038-0.054
				c-0.8-0.5-1.573-1-2.319-1.5c-0.918-0.636-1.809-1.277-2.673-1.923c-1.428,0.482-2.923,0.305-4.487-0.532
				c-0.027-0.018-0.041-0.036-0.041-0.055c-0.009-0.027,0-0.05,0.027-0.068c0.027-0.009,0.064-0.009,0.109,0
				c0.036,0,0.068,0.009,0.096,0.027c1.437,0.773,2.805,0.941,4.105,0.505c-1.164-0.891-2.273-1.796-3.328-2.714
				c-0.064-0.027-0.082-0.068-0.054-0.123c0.018-0.036,0.059-0.064,0.123-0.082c0.055-0.027,0.123-0.032,0.205-0.014
				c0.073,0.009,0.132,0.032,0.177,0.068c1.855,1.609,3.878,3.16,6.069,4.651C-94.272-1214.958-93.74-1216.117-94.904-1217.399z"/>
			<path class="st3" d="M-94.917-1217.467c-0.009,0.018-0.005,0.041,0.014,0.068c1.164,1.282,0.632,2.441-1.596,3.478
				c-2.191-1.491-4.215-3.042-6.069-4.651c-0.046-0.036-0.105-0.059-0.177-0.068c-0.082-0.018-0.15-0.014-0.205,0.014
				c-0.064,0.018-0.105,0.045-0.123,0.082c-0.027,0.055-0.009,0.095,0.054,0.123c1.055,0.918,2.164,1.823,3.328,2.714
				c-1.3,0.436-2.669,0.268-4.105-0.505c-0.027-0.018-0.059-0.027-0.096-0.027c-0.045-0.009-0.082-0.009-0.109,0
				c-0.027,0.018-0.036,0.041-0.027,0.068c0,0.018,0.014,0.036,0.041,0.055c1.564,0.837,3.06,1.014,4.487,0.532
				c0.864,0.646,1.755,1.286,2.673,1.923c0.746,0.5,1.519,1,2.319,1.5c-1.282,0.918-3.628,0.937-7.038,0.054
				c-0.036-0.009-0.073-0.004-0.109,0.014c-0.045,0-0.068,0.014-0.068,0.041c-0.018,0.009-0.018,0.027,0,0.054
				c0.018,0.018,0.046,0.032,0.082,0.041c3.555,0.918,6.001,0.896,7.338-0.068c1.6,0.991,3.283,1.964,5.047,2.919
				c-1.346,0.773-4.06,0.859-8.143,0.259c-0.046-0.009-0.086-0.005-0.123,0.014c-0.027,0.009-0.041,0.023-0.041,0.041
				c0,0.027,0.009,0.046,0.027,0.055c0.018,0.027,0.05,0.045,0.095,0.055c4.21,0.6,7.01,0.491,8.402-0.327
				c1.846,1,3.792,1.959,5.837,2.878c-1.809,0.973-5.378,0.973-10.707,0c-0.046-0.009-0.077-0.009-0.096,0
				c-0.045,0.009-0.068,0.023-0.068,0.041c0,0.027,0.009,0.05,0.027,0.068c0.009,0.018,0.036,0.032,0.082,0.041
				c5.483,1.009,9.147,0.996,10.993-0.041c0.937,0.427,1.905,0.85,2.905,1.268c0.009,0,0.018,0,0.027,0h0.014
				c0.055,0.027,0.123,0.041,0.205,0.041c0.064-0.009,0.123-0.027,0.177-0.055c0.018-0.018,0.027-0.036,0.027-0.055
				c0-0.027,0-0.05,0-0.068c-0.009-0.018-0.023-0.032-0.041-0.041c-0.018-0.018-0.045-0.036-0.082-0.055
				c-0.982-0.418-1.941-0.841-2.878-1.268c1.418-1,1.787-2.723,1.105-5.169c-0.009-0.018-0.027-0.036-0.054-0.055
				c-0.027-0.018-0.055-0.023-0.082-0.014c-0.054,0-0.095,0.009-0.123,0.027c-0.027,0.009-0.032,0.027-0.014,0.055
				c0.655,2.391,0.3,4.078-1.064,5.06c-2.055-0.927-4.005-1.887-5.851-2.878c1.046-0.828,1.478-2.151,1.296-3.969
				c-0.009-0.036-0.027-0.059-0.055-0.068c-0.027-0.018-0.059-0.023-0.096-0.014c-0.036-0.009-0.068-0.009-0.095,0
				c-0.027,0.018-0.041,0.041-0.041,0.068c0.182,1.773-0.223,3.06-1.214,3.86c-2.655-1.409-5.124-2.887-7.406-4.433
				c2.346-1.091,2.901-2.319,1.664-3.682c-0.036-0.018-0.073-0.032-0.109-0.041c-0.036-0.018-0.064-0.023-0.082-0.014
				C-94.881-1217.513-94.908-1217.495-94.917-1217.467z"/>
		</g>
	</g>
</g>
</svg>
