<?xml version="1.0" encoding="utf-8"?>
<!-- Generator: Adobe Illustrator 19.1.0, SVG Export Plug-In . SVG Version: 6.00 Build 0)  -->
<svg version="1.1" id="Layer_1" xmlns="http://www.w3.org/2000/svg" xmlns:xlink="http://www.w3.org/1999/xlink" x="0px" y="0px"
	 viewBox="0 0 43.154 23.144" style="enable-background:new 0 0 43.154 23.144;" xml:space="preserve">
<style type="text/css">
	.st0{fill:#546F32;}
	.st1{fill:#709342;}
	.st2{fill:#9C3321;}
	.st3{fill:#DD4E34;}
</style>
<g transform="matrix( 1, 0, 0, 1, -762.55,1022.95) ">
	<g>
		<g id="people_0_Layer3_1_FILL">
			<path class="st0" d="M772.766-1014.333c-0.364-0.082-0.714-0.186-1.05-0.314c-0.4-0.073-0.846-0.1-1.337-0.082
				c-0.082,0-0.168,0.005-0.259,0.014c-0.173,0.009-0.341,0.023-0.505,0.041c-0.937,0.082-1.832,0.246-2.687,0.491
				c-1.018,0.282-2.178,0.195-3.478-0.259c-0.327-0.118-0.614-0.291-0.859-0.518l-0.014,3.355c0.245,0.236,0.536,0.418,0.873,0.546
				c1.3,0.455,2.46,0.541,3.478,0.259c1.009-0.291,2.073-0.468,3.191-0.532c0.091-0.009,0.177-0.014,0.259-0.014
				c0.491-0.018,0.937,0.009,1.337,0.082c0.336,0.127,0.687,0.232,1.05,0.314c0.336,0.082,0.673,0.141,1.009,0.177v-3.382
				C773.438-1014.192,773.102-1014.252,772.766-1014.333z"/>
			<path class="st1" d="M774.02-1016.925c-0.073-0.237-0.182-0.446-0.327-0.627c-0.264-0.364-0.65-0.646-1.159-0.846
				c-1.427-0.573-2.328-0.609-2.701-0.109c-0.036,0.064-0.073,0.127-0.109,0.191c-0.136,0.264-0.223,0.536-0.259,0.818
				c-0.018,0.182-0.023,0.355-0.014,0.518c0,0.073,0.009,0.141,0.027,0.205c0.009,0.073-0.027,0.273-0.109,0.6
				c-0.082,0.318-0.514,0.691-1.296,1.118c-0.782,0.409-1.655,0.614-2.619,0.614c-0.964-0.018-1.564-0.186-1.8-0.505
				c-0.245-0.327-0.414-0.464-0.505-0.409c-0.109,0.036-0.25,0.114-0.423,0.232l-0.136,0.109l-0.041,0.014
				c0.009,0.009,0.023,0.023,0.041,0.041c0.245,0.227,0.532,0.4,0.859,0.518c1.3,0.455,2.46,0.541,3.478,0.259
				c0.855-0.245,1.75-0.409,2.687-0.491c0.164-0.018,0.332-0.032,0.505-0.041c0.091-0.009,0.177-0.014,0.259-0.014
				c0.491-0.018,0.937,0.009,1.337,0.082c0.336,0.127,0.687,0.232,1.05,0.314c0.336,0.082,0.673,0.141,1.009,0.177h0.014
				c0.009-0.027,0.018-0.05,0.027-0.068C774.18-1015.324,774.248-1016.225,774.02-1016.925z"/>
			<path class="st2" d="M805.69-1011.742c-0.009,0.245-0.032,0.495-0.068,0.75c-0.027,0.218-0.064,0.432-0.109,0.641
				c-0.455,2.146-1.714,4.137-3.778,5.974c-0.373,0.318-0.768,0.636-1.187,0.955l-0.014,0.014c-0.055,0.036-0.105,0.068-0.15,0.096
				c-0.127,0.073-0.277,0.114-0.45,0.123c-0.191,0.009-0.346-0.023-0.464-0.095c-0.098-0.054-0.148-0.122-0.15-0.205v3.341
				c-0.009,0.1,0.041,0.182,0.15,0.245c0.118,0.073,0.273,0.105,0.464,0.096c0.173-0.009,0.323-0.05,0.45-0.123
				c0.046-0.027,0.096-0.059,0.15-0.095l0.014-0.014c3.01-2.264,4.701-4.787,5.074-7.57c0.055-0.373,0.082-0.741,0.082-1.105
				c0-0.118-0.005-0.232-0.014-0.341V-1011.742 M801.517-1006.682c0.146-0.491,0.223-1,0.232-1.528
				c0.009-0.927-0.15-1.782-0.477-2.564c-0.618-1.455-1.814-2.687-3.587-3.696c-2.737-1.564-6.183-2.26-10.338-2.087
				c-2.992,0.118-5.733,0.664-8.224,1.637c-0.182,0.064-0.368,0.136-0.559,0.218c-1.009,0.364-2.1,0.564-3.273,0.6
				c-0.536,0.009-1.037-0.009-1.5-0.055h-0.014v3.382h0.014c0.464,0.046,0.964,0.064,1.5,0.055c1.173-0.036,2.264-0.236,3.273-0.6
				c0.191-0.082,0.377-0.155,0.559-0.218c2.491-0.973,5.233-1.518,8.224-1.637c4.155-0.173,7.601,0.523,10.338,2.087
				c1.773,1.009,2.969,2.241,3.587,3.696C801.371-1007.164,801.453-1006.927,801.517-1006.682z"/>
			<path class="st3" d="M801.748-1008.209c-0.009,0.527-0.086,1.036-0.232,1.528c-0.318,1.055-0.973,2.014-1.964,2.878h-0.014
				c-0.055,0.045-0.109,0.095-0.164,0.15c-0.027,0.036-0.046,0.073-0.055,0.109c0,0.018,0,0.032,0,0.041v0.014
				c0.002,0.083,0.052,0.151,0.15,0.205c0.118,0.073,0.273,0.104,0.464,0.095c0.173-0.009,0.323-0.05,0.45-0.123
				c0.046-0.027,0.096-0.059,0.15-0.096l0.014-0.014c0.418-0.318,0.814-0.636,1.187-0.955c2.064-1.837,3.323-3.828,3.778-5.974
				c0.046-0.209,0.082-0.423,0.109-0.641c0.036-0.255,0.059-0.505,0.068-0.75c0.009-0.164,0.014-0.323,0.014-0.477
				c-0.055-3.001-1.882-5.528-5.483-7.583c-4.083-2.328-9.252-3.364-15.508-3.11c-3.819,0.155-7.365,0.768-10.638,1.841
				c-0.673,0.218-1.337,0.459-1.991,0.723c-0.146,0.073-0.282,0.146-0.409,0.218c-0.864,0.482-1.477,1.023-1.841,1.623
				c0.373-0.5,1.273-0.464,2.701,0.109c0.509,0.2,0.896,0.482,1.159,0.846c0.146,0.182,0.255,0.391,0.327,0.627
				c0.227,0.7,0.159,1.6-0.205,2.701c-0.009,0.018-0.018,0.041-0.027,0.068c0.464,0.045,0.964,0.064,1.5,0.055
				c1.173-0.036,2.264-0.236,3.273-0.6c0.191-0.082,0.377-0.155,0.559-0.218c2.491-0.973,5.233-1.518,8.224-1.637
				c4.155-0.173,7.601,0.523,10.338,2.087c1.773,1.009,2.969,2.241,3.587,3.696C801.598-1009.992,801.758-1009.137,801.748-1008.209
				z"/>
		</g>
	</g>
</g>
</svg>
