<?xml version="1.0" encoding="utf-8"?>
<!-- Generator: Adobe Illustrator 19.1.0, SVG Export Plug-In . SVG Version: 6.00 Build 0)  -->
<svg version="1.1" id="Layer_1" xmlns="http://www.w3.org/2000/svg" xmlns:xlink="http://www.w3.org/1999/xlink" x="0px" y="0px"
	 viewBox="0 0 39.056 26.958" style="enable-background:new 0 0 39.056 26.958;" xml:space="preserve">
<style type="text/css">
	.st0{fill:#E9E9E9;}
	.st1{fill:#FFFFFF;}
</style>
<g transform="matrix( 1, 0, 0, 1, 81.7,481.55) ">
	<g>
		<g id="people_0_Layer6_0_FILL">
			<path class="st0" d="M-42.706-463.715v-3.86c-0.091,0.627-0.273,1.227-0.546,1.8c-0.736,1.5-2.128,2.823-4.174,3.969
				c-3.546,1.982-7.038,2.05-10.475,0.205c-3.17-1.708-7.308-2.922-12.411-3.642l0.641,0.068c-0.54-0.125-0.922-0.18-1.146-0.164
				c-0.947-0.119-1.461-0.183-1.541-0.191c-4.374-0.946-7.22-2.423-8.538-4.433c-0.327-0.509-0.55-1.05-0.668-1.623
				c-0.082-0.382-0.127-0.75-0.136-1.105l0.014,5.333c-0.009,0.136-0.009,0.277,0,0.423c0.009,0.336,0.05,0.677,0.123,1.023
				c0.582,2.828,3.719,4.624,9.411,5.387l0.396,0.014c5.801,1.218,10.42,2.746,13.857,4.583c3.437,1.846,6.929,1.778,10.475-0.205
				c3.292-1.837,4.883-4.146,4.774-6.929C-42.66-463.279-42.678-463.497-42.706-463.715 M-74.157-469.839
				c-0.018-0.012-0.036-0.026-0.055-0.041C-74.726-469.964-74.708-469.951-74.157-469.839 M-78.194-472.117l1.228,1.296
				c0.457,0.27,1.334,0.556,2.632,0.859c-4.372-3.078-3.686-5.837,2.06-8.279C-77.522-476.568-79.495-474.526-78.194-472.117z"/>
			<path class="st1" d="M-42.651-468.08c0.018-0.427,0-0.864-0.055-1.309c-0.382-3.082-2.623-5.806-6.724-8.17
				c-4.101-2.364-8.865-3.678-14.294-3.942c-5.41-0.273-9.888,0.582-13.434,2.564c-3.055,1.709-4.569,3.764-4.542,6.165v0.082
				c0.009,0.355,0.055,0.723,0.136,1.105c0.118,0.573,0.341,1.114,0.668,1.623c1.318,2.009,4.164,3.487,8.538,4.433
				c0.08,0.008,0.594,0.072,1.541,0.191c0.224-0.016,0.606,0.039,1.146,0.164l-0.641-0.068c5.104,0.72,9.241,1.934,12.411,3.642
				c3.437,1.846,6.929,1.778,10.475-0.205c2.046-1.146,3.437-2.469,4.174-3.969c0.273-0.573,0.455-1.173,0.546-1.8
				C-42.678-467.739-42.66-467.907-42.651-468.08 M-76.967-470.821l-1.228-1.296c-1.3-2.41,0.673-4.451,5.919-6.124
				c-5.745,2.442-6.432,5.201-2.06,8.279C-75.633-470.265-76.51-470.552-76.967-470.821 M-74.212-469.88
				c0.018,0.015,0.037,0.029,0.055,0.041C-74.708-469.951-74.726-469.964-74.212-469.88z"/>
		</g>
	</g>
</g>
</svg>
