<?xml version="1.0" encoding="utf-8"?>
<!-- Generator: Adobe Illustrator 19.1.0, SVG Export Plug-In . SVG Version: 6.00 Build 0)  -->
<svg version="1.1" id="Layer_1" xmlns="http://www.w3.org/2000/svg" xmlns:xlink="http://www.w3.org/1999/xlink" x="0px" y="0px"
	 viewBox="0 0 27.823 17.23" style="enable-background:new 0 0 27.823 17.23;" xml:space="preserve">
<style type="text/css">
	.st0{fill:#918778;}
	.st1{fill:#C6C1B7;}
	.st2{fill:#B4ADA3;}
	.st3{fill:#706B60;}
	.st4{fill:#C8C4BB;}
	.st5{fill:#F7F1E6;}
</style>
<g transform="matrix( 1, 0, 0, 1, 216.95,475.75) ">
	<g>
		<g id="people_0_Layer1_1_FILL">
			<path class="st0" d="M-202.111-464.194c0.091,0.064,0.168,0.132,0.232,0.205c0.064,0.082,0.1,0.168,0.109,0.259v0.027
				c0,0.018,0,0.036,0,0.055c0.9-0.073,1.664-0.291,2.291-0.655c0.064-0.036,0.123-0.073,0.177-0.109
				c0.837-0.546,1.15-1.246,0.941-2.1c-0.091-0.355-0.264-0.696-0.518-1.023l-0.695,0.409c0.1,0.173,0.173,0.35,0.218,0.532
				c0.127,0.491,0.041,0.923-0.259,1.296c-0.018,0.027-0.041,0.059-0.068,0.096c-0.164,0.164-0.368,0.318-0.614,0.464
				c-0.291,0.164-0.614,0.296-0.968,0.396C-201.529-464.281-201.811-464.231-202.111-464.194 M-204.961-470.086l0.682-0.396
				c-0.5-0.1-1.009-0.168-1.528-0.205c-1.6-0.109-2.887,0.118-3.86,0.682c-0.546,0.309-0.909,0.673-1.091,1.091
				c0.009,0,0.023,0,0.041,0c0.309,0.009,0.591,0.073,0.846,0.191c0.155-0.346,0.445-0.641,0.873-0.887
				c0.818-0.473,1.905-0.659,3.26-0.559C-205.484-470.15-205.225-470.123-204.961-470.086z"/>
			<path class="st1" d="M-210.049-467.427c-0.155,0.027-0.323,0.041-0.505,0.041c-0.373-0.009-0.7-0.091-0.982-0.245
				c-0.064-0.036-0.118-0.073-0.164-0.109c-0.027-0.027-0.055-0.05-0.082-0.068l-0.014-0.027c-0.027-0.036-0.064-0.082-0.109-0.136
				c-0.536-0.682-0.896-1.391-1.077-2.128v-0.014c-0.064-0.273-0.1-0.536-0.109-0.791l-0.014,1.596c0,0.009,0,0.027,0,0.055
				s0,0.055,0,0.082c0.009,0.291,0.05,0.595,0.123,0.914c0.173,0.7,0.5,1.373,0.982,2.018c0.727-0.345,1.446-0.7,2.155-1.064
				c0.182-0.1,0.364-0.195,0.546-0.286v-0.423c-0.018,0.164-0.127,0.305-0.327,0.423c-0.073,0.036-0.145,0.073-0.218,0.109
				C-209.908-467.463-209.976-467.445-210.049-467.427z"/>
			<path class="st2" d="M-204.443-463.799c0-0.018,0-0.036,0-0.055c0-0.173,0.114-0.327,0.341-0.464
				c0.245-0.145,0.55-0.214,0.914-0.204c0.373,0.009,0.696,0.095,0.968,0.259c0.009,0,0.018,0,0.027,0
				c0.027,0.018,0.055,0.041,0.082,0.068c0.3-0.036,0.582-0.086,0.846-0.15c0.509-0.291,1.037-0.577,1.582-0.859
				c0.027-0.036,0.05-0.068,0.068-0.096c0.3-0.373,0.387-0.805,0.259-1.296c-0.046-0.182-0.118-0.359-0.218-0.532
				c-4.11,2.146-7.288,4.396-9.534,6.751l-0.027-0.014v1.855l0.027,0.014c1.264-1.318,2.819-2.605,4.664-3.86v0.382
				c0,0.018,0,0.036,0,0.054c0.027,0.218,0.177,0.409,0.45,0.573c0.027,0.009,0.055,0.023,0.082,0.041
				c0.091,0.036,0.177,0.068,0.259,0.096c0.036,0.009,0.068,0.018,0.095,0.027c1.437,0.418,2.955,0.677,4.555,0.777
				c3.191,0.227,5.756-0.218,7.692-1.337c1.373-0.791,2.096-1.714,2.169-2.769c0.009-0.109,0.009-0.218,0-0.327l0.014-1.637
				c-0.018,0.282-0.073,0.559-0.164,0.832c-0.291,0.755-0.964,1.437-2.019,2.046c-1.937,1.118-4.501,1.564-7.692,1.337
				c-0.736-0.045-1.455-0.123-2.155-0.232c-0.791-0.136-1.559-0.309-2.305-0.518c-0.036-0.009-0.068-0.018-0.095-0.027
				c-0.027-0.009-0.059-0.018-0.095-0.027c-0.082-0.027-0.168-0.059-0.259-0.095c-0.027-0.018-0.055-0.032-0.082-0.041
				C-204.266-463.39-204.416-463.581-204.443-463.799z"/>
			<path class="st3" d="M-204.961-470.086c-0.264-0.036-0.523-0.064-0.777-0.082c-1.355-0.1-2.441,0.086-3.26,0.559
				c-0.427,0.246-0.718,0.541-0.873,0.887c0.027,0.009,0.059,0.023,0.096,0.041c0.009,0.009,0.018,0.018,0.027,0.027
				c0.282,0.155,0.432,0.332,0.45,0.532v0.014c0,0.027,0,0.059,0,0.096v0.423c0.1-0.055,0.2-0.109,0.3-0.164
				c0.064-0.036,0.132-0.073,0.205-0.109C-207.475-468.572-206.198-469.314-204.961-470.086z"/>
			<path class="st4" d="M-216.95-464.085l0.014,1.868l7.801,3.683v-1.855L-216.95-464.085z"/>
			<path class="st5" d="M-203.338-475.61c-2.992-0.373-5.456,0-7.392,1.118c-1.509,0.873-2.296,1.955-2.359,3.246
				c-0.009,0.091-0.009,0.186,0,0.286v0.055c0.009,0.255,0.046,0.518,0.109,0.791v0.014c0.182,0.737,0.541,1.446,1.077,2.128
				c0.046,0.055,0.082,0.1,0.109,0.136l0.014,0.027c0.027,0.018,0.055,0.041,0.082,0.068c0.045,0.036,0.1,0.073,0.164,0.109
				c0.282,0.154,0.609,0.236,0.982,0.245c0.182,0,0.35-0.014,0.505-0.041c0.073-0.018,0.141-0.036,0.205-0.055
				c0.073-0.036,0.146-0.073,0.218-0.109c0.2-0.118,0.309-0.259,0.327-0.423c0-0.036,0-0.068,0-0.096v-0.014
				c-0.018-0.2-0.168-0.377-0.45-0.532c-0.009-0.009-0.018-0.018-0.027-0.027c-0.036-0.018-0.068-0.032-0.096-0.041
				c-0.255-0.118-0.536-0.182-0.846-0.191c-0.018,0-0.032,0-0.041,0c0.182-0.418,0.546-0.782,1.091-1.091
				c0.973-0.564,2.259-0.791,3.86-0.682c0.518,0.036,1.028,0.105,1.528,0.205l-0.682,0.396c-1.237,0.773-2.514,1.514-3.833,2.223
				c-0.073,0.036-0.141,0.073-0.205,0.109c-0.1,0.055-0.2,0.109-0.3,0.164c-0.182,0.091-0.364,0.186-0.546,0.286
				c-0.709,0.364-1.428,0.718-2.155,1.064c-1.591,0.755-3.242,1.473-4.951,2.155l7.815,3.696l0.027,0.014
				c2.246-2.355,5.424-4.605,9.534-6.751l0.695-0.409c0.255,0.327,0.427,0.668,0.518,1.023c0.209,0.855-0.105,1.555-0.941,2.1
				c-0.055,0.036-0.114,0.073-0.177,0.109c-0.627,0.364-1.391,0.582-2.291,0.655c0-0.018,0-0.036,0-0.055v-0.027
				c-0.009-0.091-0.045-0.177-0.109-0.259c-0.064-0.073-0.141-0.141-0.232-0.205c-0.027-0.027-0.055-0.05-0.082-0.068
				c-0.009,0-0.018,0-0.027,0c-0.273-0.164-0.596-0.25-0.968-0.259c-0.364-0.009-0.668,0.059-0.914,0.204
				c-0.227,0.136-0.341,0.291-0.341,0.464c0,0.018,0,0.036,0,0.055c0.027,0.218,0.177,0.409,0.45,0.573
				c0.027,0.009,0.055,0.023,0.082,0.041c0.091,0.036,0.177,0.068,0.259,0.095c0.036,0.009,0.068,0.018,0.095,0.027
				c0.027,0.009,0.059,0.018,0.095,0.027c0.746,0.209,1.514,0.382,2.305,0.518c0.7,0.109,1.419,0.186,2.155,0.232
				c3.191,0.227,5.756-0.218,7.692-1.337c1.055-0.609,1.728-1.291,2.019-2.046c0.091-0.273,0.145-0.55,0.164-0.832v-0.055
				c-0.009-0.391-0.095-0.796-0.259-1.214c-0.655-1.655-2.255-3.201-4.801-4.637c-0.027-0.018-0.059-0.036-0.096-0.055
				c-0.036-0.018-0.077-0.041-0.123-0.068l-0.109-0.068c-0.691-0.382-1.096-0.605-1.214-0.668
				C-198.083-474.492-200.62-475.274-203.338-475.61z"/>
		</g>
	</g>
</g>
</svg>
