<?xml version="1.0" encoding="utf-8"?>
<!-- Generator: Adobe Illustrator 19.1.0, SVG Export Plug-In . SVG Version: 6.00 Build 0)  -->
<svg version="1.1" id="Layer_1" xmlns="http://www.w3.org/2000/svg" xmlns:xlink="http://www.w3.org/1999/xlink" x="0px" y="0px"
	 viewBox="0 0 39.526 24.471" style="enable-background:new 0 0 39.526 24.471;" xml:space="preserve">
<style type="text/css">
	.st0{fill:#815443;}
	.st1{fill:#96614F;}
	.st2{fill:#B1694F;}
	.st3{fill:#F4B6A1;}
	.st4{fill:#884832;}
	.st5{fill:#CD7B5E;}
</style>
<g transform="matrix( 1, 0, 0, 1, 273.2,146.15) ">
	<g>
		<g id="people_0_Layer15_0_FILL">
			<path class="st0" d="M-273.2-132.878c0,0.027,0,0.055,0,0.082s0,0.046,0,0.055c0.027,3.092,1.982,5.719,5.865,7.883
				c3.883,2.155,8.552,3.214,14.007,3.178c5.447-0.036,10.088-1.164,13.926-3.382c3.792-2.182,5.701-4.796,5.728-7.842
				c0-0.036,0-0.073,0-0.109v-1.841c-0.009,0.3-0.036,0.591-0.082,0.873c-0.391,2.619-2.273,4.901-5.646,6.847
				c-3.837,2.21-8.479,3.332-13.926,3.369c-5.456,0.046-10.125-1.014-14.007-3.178c-3.473-1.928-5.406-4.228-5.797-6.901
				c-0.036-0.245-0.059-0.491-0.068-0.736V-132.878z"/>
			<path class="st1" d="M-273.2-134.896c0,0.027,0,0.055,0,0.082v0.232c0.009,0.245,0.032,0.491,0.068,0.736
				c0.391,2.673,2.323,4.974,5.797,6.901c3.883,2.164,8.552,3.223,14.007,3.178c5.447-0.036,10.088-1.159,13.926-3.369
				c3.373-1.946,5.255-4.228,5.646-6.847c0.046-0.282,0.073-0.573,0.082-0.873c0-0.036,0-0.077,0-0.123c0-0.036,0-0.077,0-0.123
				v-0.027c-0.055-3.073-2.014-5.687-5.878-7.842c-3.883-2.164-8.552-3.223-14.007-3.178c-5.456,0.036-10.102,1.164-13.939,3.382
				C-271.3-140.575-273.2-137.951-273.2-134.896 M-271.863-134.828c-0.009-1.064,0.227-2.069,0.709-3.014
				c0.818-1.628,2.359-3.091,4.624-4.392c3.564-2.064,7.892-3.114,12.984-3.151c5.074-0.036,9.42,0.95,13.039,2.96
				c2.337,1.3,3.928,2.778,4.774,4.433c0.464,0.918,0.7,1.891,0.709,2.919c0.018,2.873-1.759,5.342-5.333,7.406
				c-3.582,2.064-7.911,3.114-12.984,3.151c-5.074,0.027-9.42-0.964-13.039-2.973C-269.999-129.509-271.827-131.955-271.863-134.828
				z"/>
			<path class="st2" d="M-271.154-137.842c-0.482,0.946-0.718,1.95-0.709,3.014c0.036,2.873,1.864,5.319,5.483,7.338
				c3.619,2.01,7.965,3.001,13.039,2.973c5.074-0.036,9.402-1.087,12.984-3.151c3.574-2.064,5.351-4.533,5.333-7.406
				c-0.009-1.027-0.245-2-0.709-2.919c-0.846-1.655-2.437-3.132-4.774-4.433c-3.619-2.01-7.965-2.996-13.039-2.96
				c-5.092,0.036-9.42,1.087-12.984,3.151C-268.795-140.934-270.336-139.47-271.154-137.842 M-257.051-144.116
				c0,0.091-0.059,0.173-0.177,0.246h-0.014c-0.109,0.064-0.25,0.1-0.423,0.109c-0.082,0-0.154-0.009-0.218-0.027
				c-0.082-0.018-0.15-0.045-0.205-0.082c-0.118-0.055-0.182-0.136-0.191-0.246c0-0.1,0.059-0.182,0.177-0.245
				c0.118-0.073,0.264-0.109,0.436-0.109c0.182,0.009,0.327,0.046,0.437,0.109C-257.101-144.298-257.042-144.216-257.051-144.116
				 M-256.083-143.08c0.309-0.173,0.668-0.259,1.077-0.259c0.436-0.009,0.8,0.073,1.091,0.245c0.3,0.164,0.45,0.364,0.45,0.6
				c0.009,0.246-0.136,0.455-0.436,0.627c-0.3,0.173-0.659,0.259-1.078,0.259c-0.427,0-0.791-0.082-1.091-0.245
				c-0.291-0.173-0.441-0.377-0.45-0.614C-256.52-142.702-256.374-142.907-256.083-143.08 M-262.998-143.312
				c0.273-0.155,0.609-0.232,1.009-0.232c0.427-0.009,0.782,0.064,1.064,0.218c0.036,0.018,0.068,0.041,0.096,0.068
				c0.218,0.136,0.323,0.314,0.314,0.532c0.009,0.227-0.127,0.423-0.409,0.587c-0.282,0.164-0.627,0.245-1.036,0.245
				c-0.409,0-0.755-0.082-1.037-0.245c-0.209-0.109-0.345-0.241-0.409-0.396c-0.018-0.055-0.032-0.114-0.041-0.177
				C-263.43-142.948-263.28-143.148-262.998-143.312 M-260.843-140.216c-0.109,0.064-0.241,0.095-0.396,0.095
				c-0.155,0.009-0.286-0.018-0.396-0.082c-0.109-0.064-0.164-0.136-0.164-0.218c0-0.091,0.055-0.173,0.164-0.245
				c0.109-0.055,0.236-0.082,0.382-0.082c0.155,0,0.286,0.027,0.395,0.082c0.109,0.064,0.164,0.141,0.164,0.232
				C-260.684-140.352-260.734-140.279-260.843-140.216 M-262.084-137.815c0.464,0,0.864,0.091,1.2,0.273
				c0.336,0.191,0.505,0.418,0.505,0.682c0.009,0.264-0.155,0.491-0.491,0.682c-0.327,0.191-0.727,0.286-1.2,0.286
				c-0.473,0.009-0.877-0.082-1.214-0.273c-0.327-0.182-0.491-0.405-0.491-0.668c0-0.273,0.164-0.505,0.491-0.696
				C-262.957-137.711-262.557-137.806-262.084-137.815 M-261.402-133.614c0.3-0.173,0.655-0.259,1.064-0.259
				c0.427,0,0.791,0.082,1.091,0.245c0.3,0.173,0.45,0.377,0.45,0.614c0.009,0.236-0.136,0.441-0.436,0.614
				c-0.291,0.173-0.65,0.259-1.078,0.259c-0.418,0-0.777-0.082-1.077-0.245s-0.455-0.368-0.464-0.614
				C-261.843-133.237-261.693-133.442-261.402-133.614 M-254.978-137.951c-0.427-0.236-0.636-0.523-0.627-0.859
				c-0.009-0.327,0.191-0.614,0.6-0.859c0.418-0.236,0.927-0.359,1.527-0.368c0.591,0,1.096,0.118,1.514,0.355
				c0.418,0.227,0.627,0.509,0.627,0.846c0,0.346-0.209,0.636-0.627,0.873c-0.409,0.236-0.905,0.355-1.487,0.355
				C-254.051-137.61-254.56-137.724-254.978-137.951 M-256.751-135.769c0-0.082,0.055-0.15,0.164-0.205
				c0.1-0.064,0.227-0.095,0.382-0.095c0.155-0.009,0.282,0.018,0.382,0.082c0.109,0.055,0.164,0.127,0.164,0.218
				s-0.05,0.164-0.15,0.218c-0.109,0.055-0.241,0.082-0.395,0.082s-0.282-0.027-0.382-0.082
				C-256.688-135.606-256.742-135.678-256.751-135.769 M-267.485-139.52c0.191-0.118,0.432-0.177,0.723-0.177
				c0.291-0.009,0.536,0.045,0.737,0.164c0.2,0.109,0.305,0.245,0.314,0.409c0,0.164-0.1,0.305-0.3,0.423
				c-0.2,0.118-0.441,0.177-0.723,0.177c-0.309,0-0.559-0.054-0.75-0.164c-0.209-0.118-0.309-0.255-0.3-0.409
				C-267.785-139.261-267.685-139.402-267.485-139.52 M-270.568-137.01c-0.109-0.064-0.164-0.136-0.164-0.218
				c0-0.091,0.055-0.164,0.164-0.218c0.1-0.055,0.223-0.086,0.368-0.096c0.155,0,0.286,0.032,0.395,0.096
				c0.1,0.055,0.15,0.123,0.15,0.205c0,0.091-0.05,0.164-0.15,0.218c-0.109,0.064-0.241,0.1-0.395,0.109
				C-270.345-136.924-270.468-136.956-270.568-137.01 M-269.504-133.123c-0.282-0.146-0.423-0.327-0.423-0.546
				s0.136-0.409,0.409-0.573c0.273-0.164,0.605-0.245,0.996-0.245c0.391,0,0.723,0.077,0.996,0.232
				c0.282,0.155,0.418,0.341,0.409,0.559c0.009,0.218-0.123,0.409-0.396,0.573c-0.273,0.164-0.605,0.245-0.996,0.245
				C-268.89-132.878-269.222-132.96-269.504-133.123 M-267.158-130.982c0.109-0.064,0.241-0.1,0.395-0.109
				c0.155,0.009,0.286,0.046,0.396,0.109c0.109,0.055,0.164,0.123,0.164,0.205c0,0.091-0.055,0.168-0.164,0.232
				c-0.109,0.064-0.241,0.095-0.396,0.095c-0.154,0-0.286-0.027-0.395-0.082c-0.109-0.064-0.164-0.141-0.164-0.232
				C-267.322-130.855-267.267-130.927-267.158-130.982 M-256.097-130.477c-0.009-0.255,0.145-0.468,0.464-0.641
				c0.309-0.182,0.682-0.268,1.118-0.259c0.455-0.009,0.841,0.077,1.159,0.259c0.327,0.173,0.491,0.391,0.491,0.655
				c0.018,0.255-0.127,0.468-0.436,0.641c-0.318,0.182-0.7,0.268-1.146,0.259c-0.436-0.009-0.814-0.1-1.132-0.273
				C-255.906-130.018-256.079-130.232-256.097-130.477 M-257.461-127.258c0-0.182,0.114-0.341,0.341-0.477
				c0.227-0.127,0.5-0.191,0.818-0.191c0.318-0.009,0.591,0.05,0.818,0.177c0.236,0.127,0.355,0.282,0.355,0.464
				c0,0.182-0.114,0.336-0.341,0.464c-0.227,0.136-0.5,0.205-0.818,0.205c-0.318,0-0.591-0.064-0.818-0.191
				C-257.333-126.936-257.452-127.086-257.461-127.258 M-265.33-128.377c-0.009-0.337,0.196-0.627,0.614-0.873
				c0.409-0.236,0.914-0.355,1.514-0.355c0.609,0,1.128,0.118,1.555,0.355c0.436,0.246,0.655,0.536,0.655,0.873
				c0.009,0.345-0.191,0.636-0.6,0.873c-0.409,0.237-0.918,0.355-1.528,0.355c-0.6,0-1.118-0.118-1.555-0.355
				C-265.103-127.74-265.321-128.031-265.33-128.377 M-242.962-141.089c0.427,0.236,0.641,0.527,0.641,0.873
				c0,0.345-0.214,0.641-0.641,0.886c-0.427,0.246-0.941,0.368-1.541,0.368c-0.609,0.009-1.132-0.105-1.568-0.341
				c-0.437-0.246-0.65-0.541-0.641-0.887c-0.009-0.346,0.2-0.641,0.627-0.887c0.427-0.246,0.946-0.368,1.555-0.368
				C-243.922-141.443-243.399-141.325-242.962-141.089 M-238.461-137.01c-0.091-0.055-0.136-0.118-0.136-0.191
				c0-0.082,0.045-0.15,0.136-0.205c0.1-0.055,0.218-0.082,0.355-0.082c0.136,0,0.255,0.027,0.355,0.082
				c0.1,0.046,0.15,0.109,0.15,0.191s-0.05,0.15-0.15,0.205c-0.091,0.055-0.205,0.082-0.341,0.082
				C-238.23-136.938-238.352-136.965-238.461-137.01 M-240.235-134.119c0.327-0.191,0.727-0.286,1.2-0.286
				c0.473,0,0.873,0.091,1.2,0.273c0.336,0.182,0.509,0.409,0.518,0.682c0,0.264-0.164,0.491-0.491,0.682
				c-0.327,0.191-0.727,0.286-1.2,0.286c-0.482,0.009-0.886-0.082-1.214-0.273c-0.336-0.182-0.505-0.409-0.505-0.682
				C-240.726-133.701-240.562-133.928-240.235-134.119 M-248.091-143.134c0.155,0,0.286,0.027,0.396,0.082
				c0.109,0.064,0.168,0.145,0.177,0.245c0,0.082-0.055,0.15-0.164,0.205c-0.109,0.073-0.241,0.109-0.396,0.109
				c-0.155-0.009-0.286-0.045-0.396-0.109c-0.109-0.055-0.164-0.123-0.164-0.205c-0.009-0.082,0.041-0.159,0.15-0.232
				C-248.377-143.102-248.245-143.134-248.091-143.134 M-252.551-133.11c-0.318-0.173-0.482-0.382-0.491-0.627
				c0.009-0.245,0.168-0.459,0.477-0.641c0.309-0.182,0.677-0.273,1.105-0.273c0.445,0,0.827,0.086,1.146,0.259
				c0.3,0.182,0.45,0.391,0.45,0.627c0.009,0.246-0.141,0.459-0.45,0.641c-0.3,0.182-0.677,0.273-1.132,0.273
				C-251.873-132.841-252.241-132.928-252.551-133.11 M-245.663-136.219c0-0.173,0.104-0.323,0.314-0.45
				c0.209-0.118,0.468-0.182,0.777-0.191c0.309-0.009,0.573,0.05,0.791,0.177c0.209,0.118,0.314,0.264,0.314,0.436
				c0,0.182-0.105,0.332-0.314,0.45c-0.209,0.127-0.464,0.191-0.764,0.191c-0.318,0-0.582-0.064-0.791-0.191
				C-245.554-135.915-245.663-136.056-245.663-136.219 M-245.472-133.887c0,0.091-0.05,0.164-0.15,0.218
				c-0.109,0.055-0.236,0.082-0.382,0.082c-0.155,0-0.286-0.027-0.396-0.082c-0.1-0.055-0.15-0.123-0.15-0.205
				c0-0.091,0.05-0.164,0.15-0.218c0.109-0.064,0.236-0.096,0.382-0.096c0.154-0.009,0.282,0.018,0.382,0.082
				C-245.526-134.051-245.472-133.978-245.472-133.887 M-246.086-131.964c0.427-0.009,0.791,0.073,1.091,0.245
				c0.3,0.164,0.45,0.368,0.45,0.614c0,0.245-0.145,0.45-0.436,0.614c-0.291,0.173-0.655,0.259-1.091,0.259
				c-0.409,0-0.768-0.082-1.077-0.246c-0.3-0.173-0.45-0.373-0.45-0.6c0-0.245,0.15-0.45,0.45-0.614
				C-246.859-131.864-246.504-131.955-246.086-131.964 M-247.491-127.081c-0.264,0.145-0.582,0.218-0.955,0.218
				c-0.373,0.009-0.696-0.059-0.968-0.205c-0.264-0.146-0.391-0.327-0.382-0.546c-0.009-0.218,0.118-0.4,0.382-0.545
				c0.255-0.155,0.573-0.227,0.955-0.218c0.373-0.009,0.691,0.064,0.955,0.218c0.264,0.145,0.396,0.323,0.396,0.532
				S-247.236-127.236-247.491-127.081 M-252.005-125.172c-0.109,0.064-0.236,0.1-0.382,0.109c-0.154-0.009-0.286-0.045-0.395-0.109
				c-0.109-0.064-0.168-0.136-0.177-0.218c0-0.082,0.055-0.155,0.164-0.218c0.109-0.064,0.241-0.1,0.395-0.109
				c0.155,0,0.286,0.032,0.395,0.095c0.109,0.064,0.168,0.141,0.177,0.232C-251.837-125.308-251.896-125.235-252.005-125.172
				 M-240.644-128.268c-0.3,0.164-0.659,0.245-1.077,0.245c-0.418,0-0.777-0.082-1.077-0.245c-0.3-0.164-0.455-0.364-0.464-0.6
				c0-0.236,0.145-0.441,0.436-0.614c0.309-0.173,0.668-0.264,1.077-0.273c0.427,0,0.791,0.082,1.091,0.245
				c0.3,0.164,0.45,0.368,0.45,0.614C-240.198-128.65-240.344-128.441-240.644-128.268z"/>
			<path class="st3" d="M-241.721-128.022c0.418,0,0.777-0.082,1.077-0.245c0.3-0.173,0.446-0.382,0.436-0.627
				c0-0.245-0.15-0.45-0.45-0.614c-0.3-0.164-0.664-0.245-1.091-0.245c-0.409,0.009-0.768,0.1-1.077,0.273
				c-0.291,0.173-0.436,0.377-0.436,0.614c0.009,0.236,0.164,0.437,0.464,0.6C-242.499-128.104-242.139-128.022-241.721-128.022
				 M-244.995-131.718c-0.3-0.173-0.664-0.255-1.091-0.245c-0.418,0.009-0.773,0.1-1.064,0.273c-0.3,0.164-0.45,0.368-0.45,0.614
				c0,0.227,0.15,0.427,0.45,0.6c0.309,0.164,0.668,0.246,1.077,0.246c0.436,0,0.8-0.086,1.091-0.259
				c0.291-0.164,0.436-0.368,0.436-0.614C-244.544-131.35-244.695-131.555-244.995-131.718 M-253.042-133.737
				c0.009,0.245,0.173,0.455,0.491,0.627c0.309,0.182,0.677,0.268,1.105,0.259c0.455,0,0.832-0.091,1.132-0.273
				c0.309-0.182,0.459-0.396,0.45-0.641c0-0.236-0.15-0.445-0.45-0.627c-0.318-0.173-0.7-0.259-1.146-0.259
				c-0.427,0-0.796,0.091-1.105,0.273C-252.873-134.196-253.032-133.983-253.042-133.737 M-239.034-134.405
				c-0.473,0-0.873,0.096-1.2,0.286c-0.327,0.191-0.491,0.418-0.491,0.682c0,0.273,0.168,0.5,0.505,0.682
				c0.327,0.191,0.732,0.282,1.214,0.273c0.473,0,0.873-0.095,1.2-0.286c0.327-0.191,0.491-0.418,0.491-0.682
				c-0.009-0.273-0.182-0.5-0.518-0.682C-238.161-134.314-238.562-134.405-239.034-134.405 M-242.321-140.216
				c0-0.346-0.214-0.637-0.641-0.873c-0.436-0.236-0.959-0.355-1.568-0.355c-0.609,0-1.128,0.123-1.555,0.368
				c-0.427,0.245-0.636,0.541-0.627,0.887c-0.009,0.346,0.204,0.641,0.641,0.887c0.436,0.236,0.959,0.35,1.568,0.341
				c0.6,0,1.114-0.123,1.541-0.368C-242.535-139.575-242.321-139.87-242.321-140.216 M-264.717-129.25
				c-0.418,0.246-0.623,0.536-0.614,0.873c0.009,0.345,0.227,0.636,0.655,0.873c0.436,0.237,0.955,0.355,1.555,0.355
				c0.609,0,1.118-0.118,1.528-0.355c0.409-0.236,0.609-0.527,0.6-0.873c0-0.337-0.218-0.627-0.655-0.873
				c-0.427-0.236-0.946-0.355-1.555-0.355C-263.803-129.604-264.307-129.486-264.717-129.25 M-255.633-131.118
				c-0.318,0.173-0.473,0.386-0.464,0.641c0.018,0.246,0.191,0.459,0.518,0.641c0.318,0.173,0.696,0.264,1.132,0.273
				c0.446,0.009,0.827-0.077,1.146-0.259c0.309-0.173,0.455-0.386,0.436-0.641c0-0.264-0.164-0.482-0.491-0.655
				c-0.318-0.182-0.705-0.268-1.159-0.259C-254.951-131.387-255.324-131.3-255.633-131.118 M-269.927-133.669
				c0,0.218,0.141,0.4,0.423,0.546c0.282,0.164,0.614,0.245,0.996,0.245c0.391,0,0.723-0.082,0.996-0.245
				c0.273-0.164,0.405-0.355,0.396-0.573c0.009-0.218-0.127-0.405-0.409-0.559c-0.273-0.154-0.605-0.232-0.996-0.232
				c-0.391,0-0.723,0.082-0.996,0.245C-269.79-134.078-269.927-133.887-269.927-133.669 M-255.606-138.811
				c-0.009,0.336,0.2,0.623,0.627,0.859c0.418,0.227,0.928,0.341,1.528,0.341c0.582,0,1.077-0.118,1.487-0.355
				c0.418-0.236,0.627-0.527,0.627-0.873c0-0.336-0.209-0.618-0.627-0.846c-0.418-0.236-0.923-0.355-1.514-0.355
				c-0.6,0.009-1.109,0.132-1.527,0.368C-255.415-139.424-255.615-139.138-255.606-138.811 M-260.884-137.542
				c-0.336-0.182-0.737-0.273-1.2-0.273c-0.473,0.009-0.873,0.104-1.2,0.286c-0.327,0.191-0.491,0.423-0.491,0.696
				c0,0.264,0.164,0.486,0.491,0.668c0.336,0.191,0.741,0.282,1.214,0.273c0.473,0,0.873-0.095,1.2-0.286
				c0.336-0.191,0.5-0.418,0.491-0.682C-260.379-137.124-260.548-137.351-260.884-137.542 M-261.989-143.543
				c-0.4,0-0.737,0.077-1.009,0.232c-0.282,0.164-0.432,0.364-0.45,0.6c0.009,0.064,0.023,0.123,0.041,0.177
				c0.064,0.154,0.2,0.286,0.409,0.396c0.282,0.164,0.627,0.245,1.037,0.245c0.409,0,0.755-0.082,1.036-0.245
				c0.282-0.164,0.418-0.359,0.409-0.587c0.009-0.218-0.095-0.396-0.314-0.532c-0.027-0.027-0.059-0.05-0.096-0.068
				C-261.207-143.48-261.561-143.553-261.989-143.543 M-255.006-143.339c-0.409,0-0.768,0.086-1.077,0.259
				c-0.291,0.173-0.436,0.377-0.436,0.614c0.009,0.236,0.159,0.441,0.45,0.614c0.3,0.164,0.664,0.245,1.091,0.245
				c0.418,0,0.778-0.086,1.078-0.259c0.3-0.173,0.445-0.382,0.436-0.627c0-0.236-0.15-0.436-0.45-0.6
				C-254.205-143.266-254.569-143.348-255.006-143.339z"/>
			<path class="st4" d="M-252.387-125.063c0.146-0.009,0.273-0.045,0.382-0.109c0.109-0.064,0.168-0.136,0.177-0.218
				c-0.009-0.091-0.068-0.168-0.177-0.232c-0.109-0.064-0.241-0.095-0.395-0.095c-0.155,0.009-0.286,0.045-0.395,0.109
				c-0.109,0.064-0.164,0.136-0.164,0.218c0.009,0.082,0.068,0.155,0.177,0.218C-252.673-125.108-252.541-125.072-252.387-125.063
				 M-245.622-133.669c0.1-0.055,0.15-0.127,0.15-0.218c0-0.091-0.055-0.164-0.164-0.218c-0.1-0.064-0.227-0.091-0.382-0.082
				c-0.146,0-0.273,0.032-0.382,0.096c-0.1,0.055-0.15,0.127-0.15,0.218c0,0.082,0.05,0.15,0.15,0.205
				c0.109,0.055,0.241,0.082,0.396,0.082C-245.858-133.587-245.731-133.614-245.622-133.669 M-247.695-143.052
				c-0.109-0.055-0.241-0.082-0.396-0.082c-0.155,0-0.286,0.032-0.396,0.095c-0.109,0.073-0.159,0.15-0.15,0.232
				c0,0.082,0.054,0.15,0.164,0.205c0.109,0.064,0.241,0.1,0.396,0.109c0.155,0,0.286-0.036,0.396-0.109
				c0.109-0.055,0.164-0.123,0.164-0.205C-247.527-142.907-247.586-142.989-247.695-143.052 M-238.598-137.201
				c0,0.073,0.045,0.136,0.136,0.191c0.109,0.045,0.232,0.073,0.368,0.082c0.136,0,0.25-0.027,0.341-0.082
				c0.1-0.055,0.15-0.123,0.15-0.205s-0.05-0.145-0.15-0.191c-0.1-0.055-0.218-0.082-0.355-0.082c-0.136,0-0.255,0.027-0.355,0.082
				C-238.552-137.351-238.598-137.283-238.598-137.201 M-266.762-131.091c-0.154,0.009-0.286,0.046-0.395,0.109
				c-0.109,0.055-0.164,0.127-0.164,0.218c0,0.091,0.055,0.168,0.164,0.232c0.109,0.054,0.241,0.082,0.395,0.082
				c0.155,0,0.286-0.032,0.396-0.095c0.109-0.064,0.164-0.141,0.164-0.232c0-0.082-0.055-0.15-0.164-0.205
				C-266.476-131.046-266.608-131.082-266.762-131.091 M-270.731-137.229c0,0.082,0.055,0.155,0.164,0.218
				c0.1,0.055,0.223,0.086,0.368,0.095c0.155-0.009,0.286-0.045,0.395-0.109c0.1-0.055,0.15-0.127,0.15-0.218
				c0-0.082-0.05-0.15-0.15-0.205c-0.109-0.064-0.241-0.096-0.395-0.096c-0.146,0.009-0.268,0.041-0.368,0.096
				C-270.677-137.392-270.731-137.32-270.731-137.229 M-256.588-135.974c-0.109,0.055-0.164,0.123-0.164,0.205
				c0.009,0.091,0.064,0.164,0.164,0.218c0.1,0.055,0.227,0.082,0.382,0.082s0.286-0.027,0.395-0.082
				c0.1-0.054,0.15-0.127,0.15-0.218s-0.055-0.164-0.164-0.218c-0.1-0.064-0.227-0.091-0.382-0.082
				C-256.36-136.069-256.488-136.037-256.588-135.974 M-261.239-140.12c0.155,0,0.286-0.032,0.396-0.095
				c0.109-0.064,0.159-0.136,0.15-0.218c0-0.091-0.055-0.168-0.164-0.232c-0.109-0.055-0.241-0.082-0.395-0.082
				c-0.146,0-0.273,0.027-0.382,0.082c-0.109,0.073-0.164,0.155-0.164,0.245c0,0.082,0.055,0.155,0.164,0.218
				C-261.525-140.138-261.393-140.111-261.239-140.12 M-257.229-143.871c0.118-0.073,0.177-0.155,0.177-0.246
				c0.009-0.1-0.05-0.182-0.177-0.245c-0.109-0.064-0.255-0.1-0.437-0.109c-0.173,0-0.318,0.036-0.436,0.109
				c-0.118,0.064-0.177,0.145-0.177,0.245c0.009,0.109,0.073,0.191,0.191,0.246c0.055,0.036,0.123,0.064,0.205,0.082
				c0.064,0.018,0.136,0.027,0.218,0.027c0.173-0.009,0.314-0.046,0.423-0.109H-257.229z"/>
			<path class="st5" d="M-248.445-126.863c0.373,0,0.691-0.073,0.955-0.218c0.255-0.155,0.382-0.337,0.382-0.546
				s-0.132-0.386-0.396-0.532c-0.264-0.155-0.582-0.227-0.955-0.218c-0.382-0.009-0.7,0.064-0.955,0.218
				c-0.264,0.145-0.391,0.327-0.382,0.545c-0.009,0.218,0.118,0.4,0.382,0.546C-249.141-126.922-248.818-126.854-248.445-126.863
				 M-245.349-136.669c-0.209,0.127-0.314,0.277-0.314,0.45c0,0.164,0.109,0.305,0.327,0.423c0.209,0.127,0.473,0.191,0.791,0.191
				c0.3,0,0.555-0.064,0.764-0.191c0.209-0.118,0.314-0.268,0.314-0.45c0-0.173-0.105-0.318-0.314-0.436
				c-0.218-0.127-0.482-0.186-0.791-0.177C-244.881-136.851-245.14-136.788-245.349-136.669 M-257.12-127.736
				c-0.227,0.136-0.341,0.295-0.341,0.477c0.009,0.173,0.127,0.323,0.355,0.45c0.227,0.127,0.5,0.191,0.818,0.191
				c0.318,0,0.591-0.068,0.818-0.205c0.227-0.127,0.341-0.282,0.341-0.464c0-0.182-0.118-0.336-0.355-0.464
				c-0.227-0.127-0.5-0.186-0.818-0.177C-256.62-127.927-256.892-127.863-257.12-127.736 M-266.762-139.697
				c-0.291,0-0.532,0.059-0.723,0.177c-0.2,0.118-0.3,0.259-0.3,0.423c-0.009,0.155,0.091,0.291,0.3,0.409
				c0.191,0.109,0.441,0.164,0.75,0.164c0.282,0,0.523-0.059,0.723-0.177c0.2-0.118,0.3-0.259,0.3-0.423
				c-0.009-0.164-0.114-0.3-0.314-0.409C-266.226-139.652-266.471-139.706-266.762-139.697 M-260.338-133.873
				c-0.409,0-0.764,0.086-1.064,0.259c-0.291,0.173-0.441,0.377-0.45,0.614c0.009,0.245,0.164,0.45,0.464,0.614
				s0.659,0.245,1.077,0.245c0.427,0,0.787-0.086,1.078-0.259c0.3-0.173,0.445-0.377,0.436-0.614c0-0.236-0.15-0.441-0.45-0.614
				C-259.547-133.792-259.911-133.873-260.338-133.873z"/>
		</g>
	</g>
</g>
</svg>
