<?xml version="1.0" encoding="utf-8"?>
<!-- Generator: Adobe Illustrator 19.1.0, SVG Export Plug-In . SVG Version: 6.00 Build 0)  -->
<svg version="1.1" id="Layer_1" xmlns="http://www.w3.org/2000/svg" xmlns:xlink="http://www.w3.org/1999/xlink" x="0px" y="0px"
	 viewBox="0 0 34.087 22.42" style="enable-background:new 0 0 34.087 22.42;" xml:space="preserve">
<style type="text/css">
	.st0{fill:#E8B282;}
	.st1{fill:#FFE5CC;}
	.st2{fill:#FDCA97;}
	.st3{fill:#E4B585;}
</style>
<g transform="matrix( -1, 0, 0, 1, 1068.65,23.45) ">
	<g>
		<g id="people_0_Layer10_0_FILL">
			<path class="st0" d="M1051.326-9.671c-0.036,0.173-0.136,0.364-0.3,0.573c-0.146,0.191-0.382,0.423-0.709,0.696
				c-0.255,0.2-0.536,0.405-0.846,0.614c-0.173,0.109-0.35,0.218-0.532,0.327c-1.918,1.1-4.137,1.709-6.656,1.828
				c-1.232,0.052-2.357-0.02-3.374-0.216c-0.098-0.019-0.197-0.046-0.292-0.079c-0.97-0.336-1.767-0.742-2.39-1.219
				c0-0.009-0.005-0.018-0.014-0.027c-0.045-0.036-0.095-0.073-0.15-0.109c-0.464-0.382-0.814-0.809-1.05-1.282
				c-0.146-0.291-0.255-0.596-0.327-0.914c-0.009-0.082-0.027-0.168-0.055-0.259c-0.036-0.227-0.059-0.45-0.068-0.668v4.214
				c0,0.073,0,0.15,0,0.232c0,0.273,0.023,0.541,0.068,0.805c0.027,0.091,0.046,0.177,0.055,0.259
				c0.191,0.855,0.65,1.587,1.378,2.196c0.055,0.036,0.1,0.073,0.136,0.109c0.018,0.009,0.027,0.023,0.027,0.041
				c0.626,0.478,1.426,0.881,2.4,1.21c0.088,0.03,0.18,0.055,0.271,0.073c1.02,0.206,2.148,0.278,3.385,0.217
				c2.519-0.118,4.737-0.727,6.656-1.828c0.509-0.3,0.969-0.614,1.378-0.941c0.327-0.273,0.564-0.5,0.709-0.682
				c0.164-0.209,0.264-0.405,0.3-0.586V-9.671z"/>
			<path class="st1" d="M1050.439-11.103c-0.073-0.082-0.146-0.164-0.218-0.246l-0.014-0.014c-0.027-0.027-0.045-0.055-0.054-0.082
				c-0.4-0.146-0.823-0.268-1.268-0.368c-1.037-0.227-2.205-0.309-3.505-0.246c-2.3,0.1-4.333,0.641-6.097,1.623
				c-0.045,0.027-0.095,0.054-0.15,0.082c-0.8,0.464-1.437,0.959-1.909,1.487c-0.015,0.016-0.029,0.032-0.044,0.047
				c0.361-0.184-1.103,0.578-0.966,1.644c0.073,0.572,1.649,0.79,1.537,0.906c0.272,0.12,0.561,0.233,0.867,0.339
				c0.095,0.033,0.194,0.06,0.292,0.079c1.017,0.196,2.141,0.268,3.374,0.216c2.519-0.118,4.737-0.727,6.656-1.828
				c0.182-0.109,0.359-0.218,0.532-0.327c0.309-0.209,0.591-0.414,0.846-0.614c0.327-0.273,0.564-0.505,0.709-0.696
				c0.164-0.209,0.264-0.4,0.3-0.573c0.009-0.064,0.014-0.127,0.014-0.191c0-0.027,0-0.055,0-0.082
				c-0.027-0.109-0.127-0.273-0.3-0.491c-0.073-0.082-0.232-0.255-0.477-0.518C1050.516-10.999,1050.476-11.049,1050.439-11.103
				 M1049.539-14.431c-0.236-0.2-0.523-0.396-0.859-0.586c-0.164-0.1-0.336-0.191-0.518-0.273c-1.173-0.555-2.551-0.85-4.133-0.887
				c-0.091-0.009-0.177-0.014-0.259-0.014c-0.327,0-0.659,0.009-0.996,0.027c-1.064,0.036-2.064,0.173-3,0.409
				c-1.146,0.291-2.214,0.718-3.205,1.282l-0.027,0.014c-0.389,0.224-0.739,0.455-1.051,0.693c-0.174,0.236-0.34,0.462-0.514,0.698
				c-0.275,0.748-0.412,1.512-0.412,2.292c0,0.118,0,0.241,0,0.368c0.009,0.218,0.032,0.441,0.068,0.668
				c0.027,0.091,0.046,0.177,0.055,0.259c0.082-0.255,0.196-0.5,0.341-0.736c0.291-0.518,0.732-1.005,1.323-1.459
				c0.345-0.273,0.736-0.532,1.173-0.777c0.364-0.218,0.746-0.414,1.146-0.587c0.1-0.045,0.195-0.086,0.286-0.123
				c1.282-0.527,2.691-0.85,4.228-0.968c0.182-0.018,0.373-0.032,0.573-0.041c1.282-0.064,2.441,0.023,3.478,0.259
				c0.6,0.127,1.159,0.3,1.678,0.518c0.118,0.055,0.227,0.105,0.327,0.15c0-0.045,0-0.086,0-0.123
				c0.009-0.064,0.023-0.127,0.041-0.191c0.036-0.236,0.105-0.473,0.205-0.709C1049.494-14.322,1049.512-14.377,1049.539-14.431
				 M1050.739-18.305c-0.236-0.191-0.505-0.373-0.805-0.546c-1.546-0.882-3.51-1.268-5.892-1.159
				c-0.646,0.036-1.268,0.1-1.869,0.191c-0.036,0.018-0.068,0.036-0.095,0.055c-0.336,0.191-0.655,0.377-0.955,0.559
				c-0.9,0.564-1.705,1.109-2.414,1.637c-0.455,0.355-0.873,0.705-1.255,1.05c0.436-0.236,0.891-0.441,1.364-0.614
				c0.873-0.327,1.8-0.573,2.782-0.736c0.564-0.082,1.141-0.136,1.732-0.164c1.628-0.082,3.069,0.077,4.324,0.477
				c0.555,0.173,1.077,0.4,1.568,0.682c0.555,0.309,1,0.655,1.337,1.037c0.355-0.355,0.782-0.696,1.282-1.023
				C1051.653-17.395,1051.285-17.877,1050.739-18.305 M1052.485-23.16c-0.191,0.027-0.377,0.05-0.559,0.068
				c-1.091,0.164-2.146,0.373-3.164,0.627c-0.491,0.136-0.977,0.277-1.459,0.423c0.418,0.045,0.828,0.114,1.228,0.205
				c0.9,0.191,1.714,0.496,2.441,0.914c1.118,0.636,1.787,1.405,2.005,2.305c0.055,0.227,0.077,0.468,0.068,0.723
				c0,0.109-0.009,0.218-0.027,0.327c-0.009,0.009-0.014,0.023-0.014,0.041c0.227-0.109,0.455-0.214,0.682-0.314
				c0.636-0.282,1.305-0.509,2.005-0.682c0.009-0.027,0.023-0.059,0.041-0.095c0.018-0.073,0.036-0.146,0.055-0.218
				c0.027-0.118,0.046-0.241,0.055-0.368c0.2-1.355-0.477-2.473-2.032-3.355C1053.399-22.796,1052.958-22.997,1052.485-23.16
				 M1063.874-18.414c0.191,0.064,0.382,0.132,0.573,0.205c0.364,0.1,0.773,0.136,1.227,0.109c0.764-0.027,1.437-0.205,2.019-0.532
				c0.582-0.336,0.896-0.727,0.941-1.173c0.008-0.033,0.013-0.065,0.014-0.095v-0.014c0.009-0.1-0.005-0.195-0.041-0.286
				c-0.082-0.246-0.264-0.455-0.546-0.627l-0.041-0.027c-0.009-0.009-0.023-0.014-0.041-0.014c-0.009-0.009-0.018-0.018-0.027-0.027
				l-0.014-0.014c-0.018-0.009-0.041-0.018-0.068-0.027c-0.146-0.082-0.286-0.159-0.423-0.232c-0.199-0.105-0.949-0.371-1.154-0.469
				c-0.665-0.319-0.95-0.058-1.44,0.494c-0.395,0.445-0.931,0.864-1.607,1.257c-0.664,0.382-1.364,0.682-2.1,0.9
				c0.564,0.045,1.105,0.132,1.623,0.259c0.309,0.064,0.614,0.141,0.914,0.232C1063.746-18.477,1063.81-18.45,1063.874-18.414
				 M1062.469-22.178c0.046-0.264,0.05-0.509,0.014-0.736c-0.937-0.2-1.914-0.341-2.932-0.423c-0.646-0.055-1.305-0.086-1.978-0.095
				c-0.173,0-0.345-0.005-0.518-0.014c0.091,0.073,0.182,0.15,0.273,0.232c0.791,0.736,1.118,1.6,0.982,2.591
				c-0.055,0.437-0.191,0.855-0.409,1.255c-0.091,0.164-0.191,0.318-0.3,0.464c0.373-0.036,0.75-0.068,1.132-0.095
				c0.109-0.009,0.214-0.014,0.314-0.014c0.209-0.009,0.427-0.014,0.655-0.014c0.073-0.046,0.146-0.091,0.218-0.136
				c0.055-0.027,0.105-0.055,0.15-0.082C1061.541-20.091,1062.342-21.069,1062.469-22.178z"/>
			<path class="st2" d="M1049.239-13.245c-0.1-0.045-0.209-0.095-0.327-0.15c-0.518-0.218-1.077-0.391-1.678-0.518
				c-1.036-0.236-2.196-0.323-3.478-0.259c-0.2,0.009-0.391,0.023-0.573,0.041c-1.537,0.118-2.946,0.441-4.228,0.968
				c-0.091,0.036-0.186,0.077-0.286,0.123c-0.4,0.173-0.782,0.368-1.146,0.587c-0.437,0.245-0.828,0.505-1.173,0.777
				c-0.591,0.455-1.032,0.941-1.323,1.459c-0.145,0.236-0.259,0.482-0.341,0.736c0.073,0.318,0.182,0.623,0.327,0.914
				c0.236,0.473,0.586,0.9,1.05,1.282c0.055,0.036,0.105,0.073,0.15,0.109c0.182-0.6,0.518-1.164,1.009-1.691
				c0.473-0.527,1.109-1.023,1.909-1.487c0.055-0.027,0.105-0.055,0.15-0.082c1.764-0.982,3.796-1.523,6.097-1.623
				c1.3-0.064,2.469,0.018,3.505,0.246c0.446,0.1,0.868,0.223,1.268,0.368c-0.245-0.273-0.441-0.527-0.587-0.764
				C1049.339-12.599,1049.23-12.945,1049.239-13.245 M1048.68-15.018c0.336,0.191,0.623,0.386,0.859,0.586
				c0.073-0.164,0.164-0.323,0.273-0.477c0.1-0.173,0.214-0.332,0.341-0.477c0.118-0.155,0.255-0.305,0.409-0.45
				c-0.337-0.382-0.782-0.727-1.337-1.037c-0.491-0.282-1.014-0.509-1.568-0.682c-1.255-0.4-2.696-0.559-4.324-0.477
				c-0.591,0.027-1.168,0.082-1.732,0.164c-0.982,0.164-1.909,0.409-2.782,0.736c-0.394,0.144-0.775,0.31-1.144,0.498
				c-0.147,0.075-0.286,0.175-0.406,0.289c-0.438,0.414-0.812,0.825-1.123,1.232c-0.109,0.136-0.204,0.264-0.286,0.382
				c-0.291,0.418-0.527,0.832-0.709,1.241c0.391-0.336,0.855-0.659,1.391-0.968l0.027-0.014c0.991-0.564,2.059-0.991,3.205-1.282
				c0.937-0.236,1.937-0.373,3-0.409c0.336-0.018,0.668-0.027,0.996-0.027c0.082,0,0.168,0.004,0.259,0.014
				c1.582,0.036,2.96,0.332,4.133,0.887C1048.343-15.209,1048.516-15.118,1048.68-15.018 M1057.327-23.215
				c-0.091-0.082-0.182-0.159-0.273-0.232c-0.555-0.009-1.118,0-1.691,0.027c-0.982,0.055-1.941,0.141-2.878,0.259
				c0.473,0.164,0.914,0.364,1.323,0.6c1.555,0.882,2.232,2,2.032,3.355c-0.009,0.127-0.027,0.25-0.055,0.368
				c-0.018,0.073-0.036,0.145-0.055,0.218c-0.018,0.036-0.032,0.068-0.041,0.095c0.073-0.027,0.146-0.045,0.218-0.055
				c0.436-0.109,0.887-0.2,1.35-0.273c0.118-0.018,0.232-0.036,0.341-0.055c0.109-0.145,0.209-0.3,0.3-0.464
				c0.218-0.4,0.355-0.818,0.409-1.255C1058.445-21.614,1058.118-22.478,1057.327-23.215 M1049.935-18.85
				c0.3,0.173,0.568,0.355,0.805,0.546c0.546,0.427,0.914,0.909,1.105,1.446c0.173-0.109,0.355-0.218,0.546-0.327
				c0.2-0.118,0.405-0.232,0.614-0.341c0-0.018,0.005-0.032,0.014-0.041c0.018-0.109,0.027-0.218,0.027-0.327
				c0.009-0.255-0.014-0.496-0.068-0.723c-0.218-0.9-0.887-1.669-2.005-2.305c-0.727-0.418-1.541-0.723-2.441-0.914
				c-0.4-0.091-0.809-0.159-1.228-0.205c-1.819,0.573-3.528,1.314-5.128,2.223c0.6-0.091,1.223-0.155,1.869-0.191
				C1046.425-20.119,1048.389-19.732,1049.935-18.85 M1062.482-22.915c0.036,0.227,0.032,0.473-0.014,0.736
				c-0.127,1.109-0.927,2.087-2.401,2.932c-0.045,0.027-0.095,0.055-0.15,0.082c-0.073,0.045-0.146,0.091-0.218,0.136
				c0.155-0.009,0.314-0.009,0.477,0c0.327,0,0.65,0.014,0.968,0.041c0.737-0.218,1.437-0.518,2.1-0.9
				c0.011-0.007,0.022-0.014,0.034-0.02c1.6-0.687,3.944-1.758,2.833-1.745C1066.015-21.651,1062.579-22.895,1062.482-22.915z"/>
			<path class="st3" d="M1061.146-18.987c-0.318-0.027-0.641-0.041-0.968-0.041c-0.164-0.009-0.323-0.009-0.477,0
				c-0.227,0-0.445,0.004-0.655,0.014c-0.1,0-0.205,0.005-0.314,0.014c-0.382,0.027-0.759,0.059-1.132,0.095
				c-0.109,0.018-0.223,0.036-0.341,0.055c-0.464,0.073-0.914,0.164-1.35,0.273c-0.073,0.009-0.145,0.027-0.218,0.055
				c-0.7,0.173-1.368,0.4-2.005,0.682c-0.227,0.1-0.455,0.205-0.682,0.314c-0.209,0.109-0.414,0.223-0.614,0.341
				c-0.191,0.109-0.373,0.218-0.546,0.327c-0.5,0.327-0.927,0.668-1.282,1.023c-0.155,0.146-0.291,0.296-0.409,0.45
				c-0.127,0.146-0.241,0.305-0.341,0.477c-0.109,0.154-0.2,0.314-0.273,0.477c-0.027,0.055-0.045,0.109-0.055,0.164
				c-0.1,0.236-0.168,0.473-0.205,0.709c-0.018,0.064-0.032,0.127-0.041,0.191c0,0.036,0,0.077,0,0.123
				c-0.009,0.3,0.1,0.646,0.327,1.037c0.146,0.236,0.341,0.491,0.587,0.764c0.009,0.027,0.027,0.054,0.054,0.082l0.014,0.014
				c0.073,0.082,0.146,0.164,0.218,0.246c0.027-0.055,0.068-0.105,0.123-0.15c0.355-0.345,0.782-0.682,1.282-1.009
				c0.173-0.118,0.355-0.232,0.546-0.341c0.2-0.118,0.405-0.232,0.614-0.341c0.227-0.109,0.455-0.214,0.682-0.314
				c0.636-0.273,1.305-0.5,2.005-0.682c0.073-0.018,0.146-0.036,0.218-0.054c0.546-0.136,1.109-0.241,1.691-0.314
				c0.373-0.045,0.75-0.077,1.132-0.095c0.109-0.009,0.214-0.018,0.314-0.027c0.209-0.009,0.427-0.014,0.655-0.014
				c0.155-0.009,0.314-0.009,0.477,0c0.327,0,0.65,0.014,0.968,0.041c0.564,0.055,1.105,0.141,1.623,0.259
				c0.309,0.064,0.614,0.141,0.914,0.232c0.064,0.027,0.127,0.055,0.191,0.082c0.191,0.064,0.382,0.136,0.573,0.218
				c0.364,0.1,0.773,0.136,1.227,0.109c0.764-0.036,1.437-0.218,2.019-0.546c0.509-0.291,0.814-0.627,0.914-1.009l0.041-0.259
				c0-0.027,0-0.059,0-0.095V-19.9c-0.001,0.031-0.005,0.062-0.014,0.095c-0.045,0.446-0.359,0.837-0.941,1.173
				c-0.582,0.327-1.255,0.505-2.019,0.532c-0.455,0.027-0.864-0.009-1.227-0.109c-0.191-0.073-0.382-0.141-0.573-0.205
				c-0.064-0.036-0.127-0.064-0.191-0.082c-0.3-0.091-0.605-0.168-0.914-0.232C1062.251-18.855,1061.71-18.941,1061.146-18.987z"/>
		</g>
	</g>
</g>
</svg>
