<?xml version="1.0" encoding="utf-8"?>
<!-- Generator: Adobe Illustrator 19.1.0, SVG Export Plug-In . SVG Version: 6.00 Build 0)  -->
<svg version="1.1" id="Layer_1" xmlns="http://www.w3.org/2000/svg" xmlns:xlink="http://www.w3.org/1999/xlink" x="0px" y="0px"
	 viewBox="0 0 35.509 17.346" style="enable-background:new 0 0 35.509 17.346;" xml:space="preserve">
<style type="text/css">
	.st0{fill:#EFCE48;}
	.st1{fill:#EBD784;}
	.st2{fill:#FFF0B5;}
	.st3{fill:#FEE581;}
</style>
<g transform="matrix( 1, 0, 0, 1, 1594.9,539.65) ">
	<g>
		<g id="people_0_Layer4_0_FILL">
			<path class="st0" d="M-1575.383-529.814c0.082,0.045,0.159,0.095,0.232,0.15c0.509,0.355,2.346-0.091,5.51-1.337
				c2.737-1.091,4.173-1.955,4.31-2.591c0.009-0.064,0.009-0.123,0-0.177v-2.646c-0.009,0.327-0.414,0.732-1.214,1.214
				c-0.555,0.327-1.291,0.682-2.21,1.064c-0.282,0.127-0.577,0.255-0.886,0.382c-3.164,1.237-5.001,1.678-5.51,1.323
				c-0.073-0.045-0.15-0.091-0.232-0.136V-529.814 M-1577.456-533.442c-0.227-0.118-0.35-0.295-0.368-0.532l-0.014,2.673
				c0,0.018,0,0.032,0,0.041c0.009,0.264,0.136,0.459,0.382,0.586V-533.442z"/>
			<path class="st1" d="M-1576.815-533.224c-0.146-0.055-0.305-0.104-0.477-0.15c-0.064-0.027-0.118-0.05-0.164-0.068v2.769h0.014
				c0.046,0.009,0.095,0.027,0.15,0.055c0.782,0.236,1.418,0.505,1.91,0.805v-2.755v-0.014c-0.036-0.009-0.073-0.027-0.109-0.055
				C-1575.855-532.846-1576.296-533.042-1576.815-533.224z"/>
			<path class="st2" d="M-1571.291-537.82c-0.737,0-1.369,0.145-1.896,0.436c-0.518,0.3-1.805,1.478-3.86,3.533
				c-0.155,0.136-0.291,0.273-0.409,0.409c0.045,0.018,0.1,0.041,0.164,0.068c0.173,0.045,0.332,0.095,0.477,0.15
				c0.518,0.182,0.959,0.377,1.323,0.587c0.036,0.027,0.073,0.045,0.109,0.055c1.227-0.482,2.305-0.927,3.232-1.337
				c0.873-0.391,1.573-0.718,2.1-0.982c0.282-0.146,0.518-0.268,0.709-0.368c0.509-0.273,0.764-0.609,0.764-1.009
				c0-0.009,0-0.023,0-0.041c0-0.409-0.264-0.759-0.791-1.05C-1569.904-537.67-1570.545-537.82-1571.291-537.82z"/>
			<path class="st3" d="M-1573.187-537.384c0.527-0.291,1.159-0.436,1.896-0.436c0.746,0,1.387,0.15,1.923,0.45
				c0.527,0.291,0.791,0.641,0.791,1.05c0,0.018,0,0.032,0,0.041c0,0.4-0.255,0.736-0.764,1.009c-0.191,0.1-0.427,0.223-0.709,0.368
				c-0.527,0.264-1.228,0.591-2.1,0.982c-0.927,0.409-2.005,0.855-3.232,1.337v0.014c0.082,0.045,0.159,0.091,0.232,0.136
				c0.509,0.355,2.346-0.086,5.51-1.323c0.309-0.127,0.605-0.255,0.886-0.382c0.918-0.382,1.655-0.737,2.21-1.064
				c0.8-0.482,1.205-0.886,1.214-1.214v-0.027c0-0.054-0.009-0.109-0.027-0.164c-0.291-0.664-0.964-1.287-2.018-1.869
				c-1.055-0.582-2.182-0.95-3.383-1.105s-2.119-0.055-2.755,0.3c-0.646,0.355-1.664,1.355-3.055,3.001
				c-0.882,1.037-1.3,1.805-1.255,2.305c0.018,0.236,0.141,0.414,0.368,0.532c0.118-0.136,0.255-0.273,0.409-0.409
				C-1574.992-535.906-1573.705-537.084-1573.187-537.384z"/>
		</g>
	</g>
</g>
<g transform="matrix( 1, 0, 0, 1, 1602.3,613.25) ">
	<g>
		<g id="people_0_Layer4_1_FILL">
			<path class="st0" d="M-1578.923-599.8c-0.227-0.118-0.35-0.295-0.368-0.532l-0.014,2.673c0,0.018,0,0.032,0,0.041
				c0.009,0.264,0.136,0.459,0.382,0.586V-599.8 M-1568.012-601.559c-0.555,0.327-1.291,0.682-2.21,1.064
				c-0.282,0.127-0.577,0.255-0.886,0.382c-3.164,1.237-5.001,1.678-5.51,1.323c-0.073-0.045-0.15-0.091-0.232-0.136v2.755
				c0.082,0.046,0.159,0.096,0.232,0.15c0.509,0.355,2.346-0.091,5.51-1.337c2.737-1.091,4.173-1.955,4.31-2.591
				c0.009-0.064,0.009-0.123,0-0.177v-2.646C-1566.807-602.446-1567.211-602.041-1568.012-601.559z"/>
			<path class="st1" d="M-1578.759-599.732c-0.064-0.027-0.118-0.05-0.164-0.068v2.769h0.014c0.045,0.009,0.095,0.027,0.15,0.055
				c0.782,0.236,1.418,0.505,1.91,0.805v-2.755v-0.014c-0.036-0.009-0.073-0.027-0.109-0.055c-0.364-0.209-0.805-0.405-1.323-0.586
				C-1578.427-599.636-1578.586-599.686-1578.759-599.732z"/>
			<path class="st2" d="M-1570.044-602.637c0-0.009,0-0.023,0-0.041c0-0.409-0.264-0.759-0.791-1.05
				c-0.536-0.3-1.177-0.45-1.923-0.45c-0.737,0-1.369,0.146-1.896,0.437c-0.518,0.3-1.805,1.477-3.86,3.533
				c-0.155,0.136-0.291,0.273-0.409,0.409c0.046,0.018,0.1,0.041,0.164,0.068c0.173,0.045,0.332,0.095,0.477,0.15
				c0.518,0.182,0.959,0.377,1.323,0.586c0.036,0.027,0.073,0.046,0.109,0.055c1.227-0.482,2.305-0.927,3.232-1.337
				c0.873-0.391,1.573-0.718,2.1-0.982c0.282-0.146,0.518-0.268,0.709-0.368C-1570.298-601.9-1570.044-602.237-1570.044-602.637z"/>
			<path class="st3" d="M-1566.798-602.773v-0.027c0-0.055-0.009-0.109-0.027-0.164c-0.291-0.664-0.964-1.287-2.018-1.869
				c-1.055-0.582-2.182-0.95-3.383-1.105c-1.2-0.155-2.119-0.055-2.755,0.3c-0.646,0.355-1.664,1.355-3.055,3.001
				c-0.882,1.037-1.3,1.805-1.255,2.305c0.018,0.236,0.141,0.414,0.368,0.532c0.118-0.136,0.255-0.273,0.409-0.409
				c2.055-2.055,3.342-3.233,3.86-3.533c0.527-0.291,1.159-0.437,1.896-0.437c0.746,0,1.387,0.15,1.923,0.45
				c0.527,0.291,0.791,0.641,0.791,1.05c0,0.018,0,0.032,0,0.041c0,0.4-0.255,0.737-0.764,1.009c-0.191,0.1-0.427,0.223-0.709,0.368
				c-0.527,0.264-1.228,0.591-2.1,0.982c-0.927,0.409-2.005,0.855-3.232,1.337v0.014c0.082,0.045,0.159,0.091,0.232,0.136
				c0.509,0.355,2.346-0.086,5.51-1.323c0.309-0.127,0.605-0.255,0.886-0.382c0.918-0.382,1.655-0.736,2.21-1.064
				C-1567.211-602.041-1566.807-602.446-1566.798-602.773z"/>
		</g>
	</g>
</g>
<g transform="matrix( 1, 0, 0, 1, 1594.9,539.65) ">
	<g>
		<g id="people_0_Layer4_2_FILL">
			<path class="st0" d="M-1592.213-530.823c-0.073-0.045-0.15-0.091-0.232-0.136v2.755c0.082,0.045,0.159,0.096,0.232,0.15
				c0.509,0.355,2.346-0.091,5.51-1.337c2.737-1.091,4.173-1.955,4.31-2.591c0.009-0.064,0.009-0.123,0-0.177v-2.646
				c-0.009,0.327-0.414,0.732-1.214,1.214c-0.555,0.327-1.291,0.682-2.21,1.064c-0.282,0.127-0.577,0.255-0.886,0.382
				C-1589.867-530.91-1591.704-530.469-1592.213-530.823 M-1594.9-529.65c0.009,0.264,0.136,0.459,0.382,0.586v-2.769
				c-0.227-0.118-0.35-0.296-0.368-0.532l-0.014,2.673C-1594.9-529.673-1594.9-529.66-1594.9-529.65z"/>
			<path class="st2" d="M-1594.518-531.833c0.045,0.018,0.1,0.041,0.164,0.068c0.173,0.046,0.332,0.096,0.477,0.15
				c0.518,0.182,0.959,0.377,1.323,0.586c0.036,0.027,0.073,0.045,0.109,0.055c1.228-0.482,2.305-0.928,3.232-1.337
				c0.873-0.391,1.573-0.718,2.1-0.982c0.282-0.146,0.518-0.268,0.709-0.368c0.509-0.273,0.764-0.609,0.764-1.009
				c0-0.009,0-0.023,0-0.041c0-0.409-0.264-0.759-0.791-1.05c-0.536-0.3-1.177-0.45-1.923-0.45c-0.737,0-1.368,0.146-1.896,0.437
				c-0.518,0.3-1.805,1.477-3.86,3.532C-1594.264-532.106-1594.4-531.969-1594.518-531.833z"/>
			<path class="st1" d="M-1594.518-531.833v2.769h0.014c0.046,0.009,0.095,0.027,0.15,0.055c0.782,0.236,1.418,0.505,1.909,0.805
				v-2.755v-0.014c-0.036-0.009-0.073-0.027-0.109-0.055c-0.364-0.209-0.805-0.405-1.323-0.586c-0.146-0.055-0.305-0.105-0.477-0.15
				C-1594.418-531.792-1594.473-531.815-1594.518-531.833z"/>
			<path class="st3" d="M-1593.632-534.67c-0.882,1.037-1.3,1.805-1.255,2.305c0.018,0.236,0.141,0.414,0.368,0.532
				c0.118-0.136,0.255-0.273,0.409-0.409c2.055-2.055,3.342-3.232,3.86-3.532c0.527-0.291,1.159-0.437,1.896-0.437
				c0.746,0,1.387,0.15,1.923,0.45c0.527,0.291,0.791,0.641,0.791,1.05c0,0.018,0,0.032,0,0.041c0,0.4-0.255,0.737-0.764,1.009
				c-0.191,0.1-0.427,0.223-0.709,0.368c-0.527,0.264-1.228,0.591-2.1,0.982c-0.927,0.409-2.005,0.855-3.232,1.337v0.014
				c0.082,0.046,0.159,0.091,0.232,0.136c0.509,0.355,2.346-0.086,5.51-1.323c0.309-0.127,0.605-0.255,0.886-0.382
				c0.918-0.382,1.655-0.737,2.21-1.064c0.8-0.482,1.205-0.887,1.214-1.214v-0.027c0-0.055-0.009-0.109-0.027-0.164
				c-0.291-0.664-0.964-1.287-2.019-1.869c-1.055-0.582-2.182-0.95-3.382-1.105c-1.2-0.155-2.119-0.055-2.755,0.3
				C-1591.222-537.315-1592.24-536.315-1593.632-534.67z"/>
		</g>
	</g>
</g>
</svg>
