<?xml version="1.0" encoding="utf-8"?>
<!-- Generator: Adobe Illustrator 19.1.0, SVG Export Plug-In . SVG Version: 6.00 Build 0)  -->
<svg version="1.1" id="Layer_1" xmlns="http://www.w3.org/2000/svg" xmlns:xlink="http://www.w3.org/1999/xlink" x="0px" y="0px"
	 viewBox="0 0 45.609 28.833" style="enable-background:new 0 0 45.609 28.833;" xml:space="preserve">
<style type="text/css">
	.st0{fill:#C85629;}
	.st1{fill:#F26929;}
	.st2{fill:#F6936F;}
	.st3{fill:#D75527;}
	.st4{fill:#ED9F7C;}
</style>
<g transform="matrix( 1, 0, 0, 1, -282.8,-172.05) ">
	<g>
		<g id="people_0_Layer16_17_FILL">
			<path class="st0" d="M321.835,194.459c-0.409,0.236-0.832,0.464-1.268,0.682c-4.174,2.091-9.111,3.128-14.812,3.11
				c-6.292-0.009-11.68-1.3-16.162-3.873c-3.91-2.237-6.133-4.874-6.669-7.911c-0.073-0.418-0.114-0.846-0.123-1.282v2.428
				c0,0.036,0,0.073,0,0.109c0.036,3.619,2.3,6.715,6.792,9.288c4.483,2.573,9.87,3.864,16.162,3.873
				c5.701,0.018,10.638-1.018,14.812-3.11c0.436-0.218,0.859-0.446,1.268-0.682c4.428-2.546,6.62-5.628,6.574-9.247
				c0-0.073,0-0.145,0-0.218v-2.1c-0.009,0.373-0.041,0.741-0.095,1.105C327.831,189.64,325.672,192.249,321.835,194.459z"/>
			<path class="st1" d="M321.63,175.937c-4.492-2.573-9.884-3.869-16.176-3.887c-6.301-0.009-10.566,1.578-12.793,4.76
				c-6.52,1.882-9.806,4.587-9.861,8.115c0,0.055,0,0.109,0,0.164v0.095c0.009,0.437,0.05,0.864,0.123,1.282
				c0.536,3.037,2.76,5.674,6.669,7.911c4.483,2.573,9.87,3.864,16.162,3.873c5.701,0.018,10.638-1.018,14.812-3.11
				c0.436-0.218,0.859-0.446,1.268-0.682c3.837-2.21,5.997-4.819,6.479-7.829c0.055-0.364,0.086-0.732,0.095-1.105v-0.164
				c0-0.046,0-0.096,0-0.15C328.372,181.602,326.113,178.51,321.63,175.937 M305.536,173.305c5.71,0.018,10.602,1.196,14.676,3.532
				c2.173,1.246,3.773,2.628,4.801,4.146c0.9,1.319,1.359,2.742,1.378,4.269c0.036,3.273-1.955,6.069-5.974,8.388
				c-0.373,0.218-0.759,0.423-1.159,0.614c-3.792,1.9-8.274,2.846-13.448,2.837c-5.71-0.018-10.602-1.196-14.676-3.533
				c-4.074-2.337-6.133-5.142-6.178-8.415c-0.009-0.882,0.2-1.709,0.627-2.482c1.164-2.091,3.946-3.764,8.347-5.019
				C295.948,174.723,299.817,173.278,305.536,173.305z"/>
			<path class="st2" d="M320.212,176.837c-4.074-2.337-8.965-3.514-14.676-3.532c-5.719-0.027-9.588,1.418-11.607,4.337
				c-4.401,1.255-7.183,2.928-8.347,5.019c-0.427,0.773-0.636,1.6-0.627,2.482c0.046,3.273,2.105,6.078,6.178,8.415
				c4.073,2.337,8.965,3.514,14.676,3.533c5.174,0.009,9.656-0.937,13.448-2.837c0.4-0.191,0.786-0.395,1.159-0.614
				c4.019-2.319,6.01-5.115,5.974-8.388c-0.018-1.528-0.477-2.951-1.378-4.269C323.985,179.465,322.385,178.083,320.212,176.837
				 M305.754,174.805c4.765,0.054,8.911,1.091,12.439,3.11c3.519,2.018,5.297,4.446,5.333,7.283
				c0.036,2.391-1.355,4.592-4.173,6.601c-0.336-0.236-0.673-0.468-1.009-0.696c-4.81-3.328-9.193-6.747-13.148-10.257
				c-0.573-0.618-1.218-0.991-1.937-1.118c-1.391-0.164-2.478-0.559-3.26-1.187c-0.236-0.173-0.441-0.373-0.614-0.6
				C298.858,175.805,300.981,174.76,305.754,174.805 M316.938,192.031c0.409,0.2,0.814,0.405,1.214,0.614
				c-3.937,1.882-8.079,2.814-12.425,2.796c-4.946-0.009-9.179-1.023-12.698-3.042c-3.528-2.019-5.31-4.451-5.346-7.297
				c-0.027-2.491,1.669-3.682,5.087-3.573c0.9,0.046,1.614,0.205,2.141,0.477c0.673,0.345,1.073,0.873,1.2,1.582
				c0.236,0.555,0.996,0.982,2.278,1.282C304.809,186.762,310.992,189.149,316.938,192.031z"/>
			<path class="st3" d="M318.152,192.645c-0.4-0.209-0.805-0.414-1.214-0.614c-5.947-2.882-12.13-5.269-18.549-7.16
				c-1.282-0.3-2.041-0.728-2.278-1.282c-0.127-0.709-0.527-1.237-1.2-1.582c-0.527-0.273-1.241-0.432-2.141-0.477
				c-3.419-0.109-5.115,1.082-5.087,3.573c0.036,2.846,1.819,5.278,5.346,7.297c3.519,2.018,7.752,3.032,12.698,3.042
				C310.073,195.459,314.215,194.527,318.152,192.645 M308.864,191.963c0.255-0.154,0.509-0.218,0.764-0.191
				c0.245,0.027,0.427,0.141,0.546,0.341c0.127,0.209,0.145,0.436,0.055,0.682c-0.091,0.255-0.255,0.464-0.491,0.627
				c-0.246,0.155-0.491,0.218-0.737,0.191c-0.255-0.027-0.45-0.145-0.587-0.355c-0.109-0.2-0.118-0.427-0.027-0.682
				C308.469,192.331,308.628,192.127,308.864,191.963 M304.622,192.59c0.291-0.136,0.559-0.182,0.805-0.136
				c0.245,0.045,0.4,0.173,0.464,0.382c0.1,0.209,0.082,0.436-0.055,0.682c-0.136,0.245-0.346,0.432-0.627,0.559
				c-0.264,0.155-0.518,0.209-0.764,0.164c-0.246-0.045-0.414-0.173-0.505-0.382c-0.064-0.209-0.032-0.432,0.095-0.668
				C304.172,192.936,304.368,192.736,304.622,192.59 M301.035,192.168c0.118,0.2,0.132,0.427,0.041,0.682
				c-0.082,0.245-0.246,0.45-0.491,0.614c-0.245,0.173-0.491,0.241-0.736,0.205c-0.255-0.027-0.445-0.146-0.573-0.355
				c-0.109-0.2-0.118-0.423-0.027-0.668c0.082-0.255,0.241-0.464,0.477-0.627c0.255-0.155,0.509-0.218,0.764-0.191
				C300.735,191.863,300.917,191.977,301.035,192.168 M293.22,186.316c-0.091,0.2-0.291,0.391-0.6,0.573
				c-0.318,0.182-0.659,0.305-1.023,0.368c-0.355,0.055-0.623,0.027-0.805-0.082c-0.182-0.1-0.227-0.255-0.136-0.464
				c0.1-0.209,0.309-0.405,0.627-0.587c0.309-0.182,0.641-0.3,0.996-0.355c0.364-0.045,0.637-0.018,0.818,0.082
				C293.279,185.962,293.32,186.116,293.22,186.316 M292.375,190.394c-0.209-0.091-0.305-0.236-0.286-0.436
				c0.046-0.218,0.2-0.432,0.464-0.641c0.264-0.209,0.564-0.355,0.9-0.437c0.346-0.091,0.623-0.091,0.832,0
				c0.2,0.082,0.277,0.227,0.232,0.437c-0.027,0.227-0.173,0.441-0.437,0.641c-0.264,0.218-0.573,0.364-0.927,0.436
				C292.834,190.476,292.575,190.476,292.375,190.394 M296.521,190.776c0.046-0.209,0.2-0.418,0.464-0.627
				c0.264-0.209,0.564-0.355,0.9-0.436c0.346-0.091,0.623-0.091,0.832,0c0.2,0.091,0.277,0.241,0.232,0.45
				c-0.027,0.218-0.173,0.427-0.436,0.627c-0.264,0.209-0.573,0.355-0.927,0.436c-0.318,0.082-0.577,0.082-0.777,0
				C296.598,191.136,296.503,190.986,296.521,190.776 M318.193,177.915c-3.528-2.019-7.674-3.055-12.439-3.11
				c-4.774-0.046-6.897,1-6.369,3.137c0.173,0.227,0.377,0.427,0.614,0.6c0.782,0.627,1.868,1.023,3.26,1.187
				c0.718,0.127,1.364,0.5,1.937,1.118c3.955,3.51,8.338,6.929,13.148,10.257c0.336,0.227,0.673,0.459,1.009,0.696
				c2.819-2.009,4.21-4.21,4.173-6.601C323.49,182.361,321.712,179.933,318.193,177.915 M307.787,176.878
				c0.182,0.109,0.223,0.264,0.123,0.464c-0.091,0.209-0.291,0.405-0.6,0.587c-0.318,0.182-0.659,0.3-1.023,0.355
				c-0.355,0.055-0.623,0.027-0.805-0.082c-0.182-0.1-0.227-0.255-0.136-0.464c0.091-0.2,0.296-0.391,0.614-0.573
				c0.309-0.182,0.646-0.305,1.009-0.368C307.332,176.751,307.605,176.778,307.787,176.878 M311.796,177.356
				c0.336-0.1,0.618-0.118,0.846-0.055c0.218,0.073,0.332,0.209,0.341,0.409c0.027,0.218-0.068,0.441-0.286,0.668
				c-0.2,0.227-0.464,0.396-0.791,0.505c-0.309,0.118-0.577,0.141-0.805,0.068c-0.227-0.064-0.35-0.209-0.368-0.436
				c0-0.2,0.091-0.418,0.273-0.655C311.224,177.642,311.487,177.474,311.796,177.356 M319.639,182.075
				c0.364,0.064,0.582,0.168,0.655,0.314c0.073,0.136-0.023,0.282-0.286,0.436c-0.245,0.155-0.586,0.268-1.023,0.341
				c-0.427,0.064-0.823,0.073-1.186,0.027c-0.364-0.064-0.582-0.164-0.655-0.3c-0.073-0.145,0.023-0.296,0.286-0.45
				c0.255-0.146,0.591-0.255,1.009-0.327C318.875,182.052,319.275,182.038,319.639,182.075 M317.511,184.721
				c0.436-0.064,0.837-0.077,1.2-0.041c0.364,0.064,0.582,0.168,0.655,0.314c0.073,0.127-0.023,0.268-0.286,0.423
				c-0.255,0.164-0.595,0.277-1.023,0.341c-0.427,0.064-0.823,0.073-1.187,0.027c-0.364-0.055-0.582-0.15-0.655-0.286
				c-0.082-0.136,0.009-0.291,0.273-0.464C316.734,184.898,317.075,184.793,317.511,184.721 M317.088,179.947
				c-0.136,0.2-0.377,0.382-0.723,0.546c-0.355,0.155-0.714,0.245-1.077,0.273c-0.373,0.027-0.637-0.014-0.791-0.123
				c-0.164-0.118-0.173-0.277-0.027-0.477c0.136-0.191,0.382-0.368,0.736-0.532c0.346-0.164,0.696-0.259,1.05-0.286
				c0.364-0.027,0.627,0.014,0.791,0.123C317.202,179.597,317.216,179.756,317.088,179.947 M320.348,186.739
				c0.364,0.064,0.582,0.168,0.655,0.314c0.073,0.136-0.018,0.277-0.273,0.423c-0.255,0.164-0.6,0.277-1.036,0.341
				c-0.427,0.064-0.818,0.073-1.173,0.027c-0.373-0.046-0.595-0.141-0.668-0.286c-0.073-0.136,0.018-0.286,0.273-0.45
				c0.255-0.145,0.596-0.255,1.023-0.327C319.584,186.717,319.984,186.703,320.348,186.739z"/>
			<path class="st4" d="M296.984,190.149c-0.264,0.209-0.418,0.418-0.464,0.627c-0.018,0.209,0.077,0.359,0.286,0.45
				c0.2,0.082,0.459,0.082,0.777,0c0.355-0.082,0.664-0.227,0.927-0.436c0.264-0.2,0.409-0.409,0.436-0.627
				c0.045-0.209-0.032-0.359-0.232-0.45c-0.209-0.091-0.486-0.091-0.832,0C297.548,189.794,297.248,189.94,296.984,190.149
				 M292.088,189.958c-0.018,0.2,0.077,0.346,0.286,0.436c0.2,0.082,0.459,0.082,0.777,0c0.355-0.073,0.664-0.218,0.927-0.436
				c0.264-0.2,0.409-0.414,0.437-0.641c0.045-0.209-0.032-0.355-0.232-0.437c-0.209-0.091-0.486-0.091-0.832,0
				c-0.336,0.082-0.636,0.227-0.9,0.437C292.288,189.526,292.134,189.74,292.088,189.958 M292.62,186.889
				c0.309-0.182,0.509-0.373,0.6-0.573c0.1-0.2,0.059-0.355-0.123-0.464c-0.182-0.1-0.455-0.127-0.818-0.082
				c-0.355,0.055-0.686,0.173-0.996,0.355c-0.318,0.182-0.527,0.377-0.627,0.587c-0.091,0.209-0.046,0.364,0.136,0.464
				c0.182,0.109,0.45,0.136,0.805,0.082C291.961,187.194,292.302,187.071,292.62,186.889 M301.076,192.85
				c0.091-0.255,0.077-0.482-0.041-0.682c-0.118-0.191-0.3-0.305-0.546-0.341c-0.255-0.027-0.509,0.036-0.764,0.191
				c-0.236,0.164-0.396,0.373-0.477,0.627c-0.091,0.245-0.082,0.468,0.027,0.668c0.127,0.209,0.318,0.327,0.573,0.355
				c0.245,0.036,0.491-0.032,0.736-0.205C300.831,193.3,300.994,193.095,301.076,192.85 M305.427,192.454
				c-0.246-0.045-0.514,0-0.805,0.136c-0.255,0.146-0.45,0.346-0.586,0.6c-0.127,0.236-0.159,0.459-0.095,0.668
				c0.091,0.209,0.259,0.336,0.505,0.382c0.245,0.046,0.5-0.009,0.764-0.164c0.282-0.127,0.491-0.314,0.627-0.559
				c0.136-0.246,0.155-0.473,0.055-0.682C305.827,192.627,305.673,192.499,305.427,192.454 M309.628,191.772
				c-0.255-0.027-0.509,0.036-0.764,0.191c-0.236,0.164-0.395,0.368-0.477,0.614c-0.091,0.255-0.082,0.482,0.027,0.682
				c0.136,0.209,0.332,0.327,0.587,0.355c0.245,0.027,0.491-0.036,0.737-0.191c0.236-0.164,0.4-0.373,0.491-0.627
				c0.091-0.245,0.073-0.473-0.055-0.682C310.055,191.913,309.873,191.799,309.628,191.772 M321.003,187.053
				c-0.073-0.146-0.291-0.25-0.655-0.314c-0.364-0.036-0.764-0.023-1.2,0.041c-0.427,0.073-0.768,0.182-1.023,0.327
				c-0.255,0.164-0.346,0.314-0.273,0.45c0.073,0.146,0.296,0.241,0.668,0.286c0.355,0.045,0.746,0.036,1.173-0.027
				c0.436-0.064,0.782-0.177,1.036-0.341C320.985,187.33,321.076,187.189,321.003,187.053 M316.366,180.493
				c0.346-0.164,0.586-0.345,0.723-0.546c0.127-0.191,0.114-0.35-0.041-0.477c-0.164-0.109-0.427-0.15-0.791-0.123
				c-0.355,0.027-0.705,0.123-1.05,0.286c-0.355,0.164-0.6,0.341-0.736,0.532c-0.145,0.2-0.136,0.359,0.027,0.477
				c0.155,0.109,0.418,0.15,0.791,0.123C315.652,180.738,316.011,180.647,316.366,180.493 M318.711,184.68
				c-0.364-0.036-0.764-0.023-1.2,0.041c-0.436,0.073-0.777,0.177-1.023,0.314c-0.264,0.173-0.355,0.327-0.273,0.464
				c0.073,0.136,0.291,0.232,0.655,0.286c0.364,0.045,0.759,0.036,1.187-0.027c0.427-0.064,0.768-0.177,1.023-0.341
				c0.264-0.155,0.359-0.296,0.286-0.423C319.293,184.848,319.075,184.743,318.711,184.68 M320.294,182.388
				c-0.073-0.146-0.291-0.25-0.655-0.314c-0.364-0.036-0.764-0.023-1.2,0.041c-0.418,0.073-0.755,0.182-1.009,0.327
				c-0.264,0.155-0.359,0.305-0.286,0.45c0.073,0.136,0.291,0.236,0.655,0.3c0.364,0.045,0.759,0.036,1.186-0.027
				c0.436-0.073,0.777-0.186,1.023-0.341C320.271,182.67,320.366,182.525,320.294,182.388 M312.642,177.301
				c-0.227-0.064-0.509-0.046-0.846,0.055c-0.309,0.118-0.573,0.286-0.791,0.505c-0.182,0.236-0.273,0.455-0.273,0.655
				c0.018,0.227,0.141,0.373,0.368,0.436c0.227,0.073,0.496,0.05,0.805-0.068c0.327-0.109,0.591-0.277,0.791-0.505
				c0.218-0.227,0.314-0.45,0.286-0.668C312.974,177.51,312.86,177.374,312.642,177.301 M307.909,177.342
				c0.1-0.2,0.059-0.355-0.123-0.464c-0.182-0.1-0.455-0.127-0.818-0.082c-0.364,0.064-0.7,0.186-1.009,0.368
				c-0.318,0.182-0.523,0.373-0.614,0.573c-0.091,0.209-0.046,0.364,0.136,0.464c0.182,0.109,0.45,0.136,0.805,0.082
				c0.364-0.054,0.705-0.173,1.023-0.355C307.618,177.747,307.818,177.551,307.909,177.342z"/>
		</g>
	</g>
</g>
</svg>
