<?xml version="1.0" encoding="UTF-8"?>
<svg width="225px" height="159px" viewBox="0 0 225 159" version="1.1" xmlns="http://www.w3.org/2000/svg" xmlns:xlink="http://www.w3.org/1999/xlink">
    <!-- Generator: Sketch 46.2 (44496) - http://www.bohemiancoding.com/sketch -->
    <title>Artboard</title>
    <desc>Created with Sketch.</desc>
    <defs></defs>
    <g id="Page-1" stroke="none" stroke-width="1" fill="none" fill-rule="evenodd">
        <g id="Artboard" fill-rule="nonzero">
            <g id="basil" transform="translate(73.000000, 57.000000)">
                <g id="Group" transform="translate(10.434375, 7.206522) scale(-1, 1) translate(-10.434375, -7.206522) translate(0.262500, 0.032609)">
                    <g id="people_0_Layer12_12_FILL">
                        <g>
                            <path d="M17.7036563,11.8982609 L17.6944688,11.8982609 L17.6944688,12.4676087 L17.7036563,12.4676087 C17.73975,12.4852174 17.784375,12.4943478 17.8381875,12.4943478 C17.8801875,12.4884783 17.9189063,12.4767391 17.9543438,12.4584783 C17.9720625,12.435 17.98125,12.4108696 17.98125,12.3873913 L17.98125,12.3430435 L17.9720625,11.853913 C17.9720625,11.8656522 17.9661563,11.8773913 17.9543438,11.8897826 C17.91825,11.9073913 17.8795313,11.9191304 17.8381875,11.9256522 C17.7837188,11.925 17.7390938,11.9158696 17.7036563,11.8982609 Z" id="Shape" fill="#74B568"></path>
                            <path d="M19.9408125,10.323913 L19.95,9.94173913 C19.9440937,10.0128261 19.9349062,10.083913 19.9230937,10.155 C19.79775,10.9023913 19.1382187,11.445 17.9451562,11.7828261 C17.9569687,11.7886957 17.9661562,11.7978261 17.9720625,11.8095652 C17.9720625,11.8213043 17.9720625,11.8363043 17.9720625,11.853913 L17.98125,12.3430435 C19.3475625,11.9458696 20.0005312,11.2728261 19.9408125,10.323913 L19.9408125,10.323913 Z M6.53296875,11.7919565 C8.460375,12.8654348 10.581375,13.5084783 12.896625,13.7223913 C15.169875,13.9297826 16.7691562,13.5117391 17.6944687,12.4682609 L17.6944687,11.898913 C16.7698125,12.9423913 15.1705312,13.3604348 12.896625,13.1530435 C10.581375,12.9397826 8.460375,12.296087 6.53296875,11.2226087 C4.6055625,10.1491304 3.1224375,8.95434783 2.08425,7.63826087 C1.099875,6.3926087 0.47315625,4.24891304 0.20475,1.20717391 C0.181125,1.01152174 0.16275,0.815869565 0.1509375,0.620217391 L0.1509375,2.03478261 C0.4370625,4.88152174 1.0815,6.93913043 2.08425,8.20826087 C3.12309375,9.52369565 4.6055625,10.7184783 6.53296875,11.7919565 Z" id="Shape" fill="#4D7637"></path>
                            <path d="M7.938,3.65282609 C7.9261875,3.63521739 7.92290625,3.62021739 7.9288125,3.60847826 C7.93471875,3.59086957 7.9524375,3.57847826 7.982625,3.5726087 C7.9944375,3.56673913 8.0128125,3.56934783 8.0364375,3.58173913 C8.0600625,3.5876087 8.08434375,3.59673913 8.10796875,3.60847826 C8.91975,4.49804348 8.55553125,5.29826087 7.01596875,6.00978261 C8.51353125,7.01804348 10.1338125,7.98130435 11.8761562,8.90086957 C12.5265,8.37913043 12.7922812,7.53978261 12.6728437,6.38347826 C12.6728437,6.36586957 12.6820312,6.35086957 12.69975,6.33913043 C12.7174687,6.33326087 12.7384687,6.33326087 12.7620937,6.33913043 C12.7857187,6.33326087 12.8067187,6.33586957 12.8250937,6.34826087 C12.8428125,6.35413043 12.854625,6.36913043 12.8611875,6.3926087 C12.980625,7.57826087 12.697125,8.44108696 12.0106875,8.98108696 C13.222125,9.6273913 14.5018125,10.2528261 15.8504062,10.8580435 C16.7455312,10.2176087 16.9778437,9.1173913 16.5486562,7.55804348 C16.5368437,7.54043478 16.5394687,7.52804348 16.5578437,7.52217391 C16.5755625,7.51043478 16.6024687,7.50456522 16.6385625,7.50456522 C16.6562812,7.49869565 16.6746562,7.50130435 16.692375,7.51369565 C16.7100937,7.52543478 16.7219062,7.53717391 16.7278125,7.54956522 C17.175375,9.14478261 16.933875,10.2684783 16.0026562,10.9206522 C16.6175625,11.1991304 17.2469062,11.475 17.8913437,11.7476087 C17.9149687,11.7593478 17.9333437,11.771087 17.9451562,11.7834783 C19.138875,11.4456522 19.79775,10.9030435 19.9230937,10.1556522 C19.9349062,10.0845652 19.9440937,10.0134783 19.95,9.9423913 C19.9440937,9.93065217 19.9440937,9.91891304 19.95,9.90652174 C19.95,9.89478261 19.95,9.88304348 19.95,9.87065217 C19.9440937,9.66326087 19.905375,9.44086957 19.8338437,9.20347826 C19.4282812,7.89913043 18.2588437,6.70369565 16.3255312,5.61913043 C14.3922187,4.52804348 12.1517812,3.67695652 9.6035625,3.06652174 C7.0494375,2.44956522 3.89878125,1.63434783 0.15159375,0.620217391 C0.16340625,0.815869565 0.18178125,1.01152174 0.20540625,1.20717391 C0.4738125,4.24956522 1.10053125,6.39326087 2.08490625,7.63826087 C3.12309375,8.95434783 4.60621875,10.1497826 6.533625,11.2226087 C8.46103125,12.296087 10.5820312,12.9391304 12.8972812,13.1530435 C15.1705312,13.3604348 16.7698125,12.9423913 17.695125,11.898913 C17.6892187,11.898913 17.6833125,11.898913 17.6774062,11.898913 C17.0211562,11.6263043 16.38525,11.3504348 15.771,11.0719565 C14.5595625,11.7482609 12.1550625,11.7567391 8.55684375,11.0986957 C8.52665625,11.0928261 8.5089375,11.0836957 8.50303125,11.0719565 C8.49121875,11.0602174 8.4853125,11.0452174 8.4853125,11.0276087 C8.4853125,11.0158696 8.50040625,11.0067391 8.5299375,11.0008696 C8.54175,10.995 8.56275,10.995 8.5929375,11.0008696 C12.0894375,11.6354348 14.4315937,11.6354348 15.6194062,11.0008696 C14.2767187,10.4021739 12.9996562,9.77608696 11.788875,9.12391304 C10.8760312,9.6573913 9.037875,9.72847826 6.2750625,9.33717391 C6.24553125,9.33130435 6.22453125,9.31956522 6.21271875,9.30130435 C6.20090625,9.29543478 6.195,9.28369565 6.195,9.26543478 C6.195,9.25369565 6.2041875,9.24456522 6.22190625,9.23869565 C6.24553125,9.22695652 6.2724375,9.22369565 6.302625,9.22956522 C8.98209375,9.62086957 10.7631562,9.56478261 11.6464687,9.06065217 C10.4888437,8.43782609 9.38503125,7.80326087 8.334375,7.15695652 C7.45696875,7.78565217 5.85178125,7.80065217 3.5188125,7.20130435 C3.4951875,7.19543478 3.4768125,7.18630435 3.465,7.17456522 C3.4531875,7.15695652 3.4531875,7.14521739 3.465,7.13934783 C3.465,7.12173913 3.48009375,7.1126087 3.509625,7.1126087 C3.53325,7.10086957 3.55753125,7.0976087 3.58115625,7.10347826 C5.81896875,7.67869565 7.35853125,7.66695652 8.19984375,7.06826087 C7.67484375,6.74217391 7.1675625,6.41608696 6.678,6.09 C6.0755625,5.67521739 5.49084375,5.25717391 4.92384375,4.83586957 C3.98671875,5.15021739 3.005625,5.03478261 1.97925,4.48891304 C1.96153125,4.47717391 1.95234375,4.46543478 1.95234375,4.45304348 C1.9464375,4.43543478 1.95234375,4.42043478 1.9700625,4.40869565 C1.98778125,4.40282609 2.0120625,4.40282609 2.04159375,4.40869565 C2.06521875,4.40869565 2.08621875,4.41456522 2.10459375,4.42630435 C3.047625,4.93043478 3.945375,5.04 4.7985,4.75565217 C4.034625,4.17456522 3.30684375,3.58434783 2.6145,2.98565217 C2.5725,2.96804348 2.5606875,2.94130435 2.5790625,2.90543478 C2.590875,2.88195652 2.61778125,2.86369565 2.65978125,2.85195652 C2.695875,2.83434783 2.7405,2.83108696 2.7943125,2.84282609 C2.84221875,2.84869565 2.8809375,2.86369565 2.91046875,2.88717391 C4.1278125,3.93652174 5.45540625,4.94804348 6.89325,5.92043478 C8.35275,5.24478261 8.701875,4.48891304 7.938,3.65282609 Z" id="Shape" fill="#86B65A"></path>
                            <path d="M7.92946875,3.60847826 C7.9235625,3.62021739 7.9261875,3.63521739 7.93865625,3.65282609 C8.70253125,4.48891304 8.35340625,5.24478261 6.89128125,5.92108696 C5.4534375,4.94869565 4.1251875,3.93717391 2.9085,2.88782609 C2.8783125,2.86434783 2.83959375,2.84934783 2.79234375,2.84347826 C2.73853125,2.83173913 2.69390625,2.83434783 2.6578125,2.8526087 C2.6158125,2.86434783 2.58890625,2.88195652 2.57709375,2.90608696 C2.559375,2.94195652 2.5711875,2.96804348 2.61253125,2.98630435 C3.304875,3.585 4.03265625,4.17521739 4.79653125,4.75630435 C3.94340625,5.04065217 3.045,4.93108696 2.102625,4.42695652 C2.08490625,4.41521739 2.06390625,4.40934783 2.039625,4.40934783 C2.01009375,4.40347826 1.9858125,4.40347826 1.96809375,4.40934783 C1.950375,4.42108696 1.94446875,4.43608696 1.950375,4.45369565 C1.950375,4.46543478 1.9595625,4.47717391 1.97728125,4.48956522 C3.00365625,5.03543478 3.98540625,5.15086957 4.921875,4.83652174 C5.488875,5.25782609 6.07359375,5.67521739 6.67603125,6.09065217 C7.16559375,6.41673913 7.672875,6.74282609 8.197875,7.06891304 C7.3565625,7.6676087 5.817,7.68 3.5791875,7.10413043 C3.5555625,7.09826087 3.53128125,7.10152174 3.50765625,7.11326087 C3.478125,7.11326087 3.46303125,7.1223913 3.46303125,7.14 C3.45121875,7.14586957 3.45121875,7.1576087 3.46303125,7.17521739 C3.47484375,7.18695652 3.49321875,7.19608696 3.51684375,7.20195652 C5.8498125,7.80065217 7.455,7.78630435 8.33240625,7.1576087 C9.38240625,7.80391304 10.486875,8.43847826 11.6445,9.06130435 C10.7611875,9.56543478 8.980125,9.62152174 6.30065625,9.23021739 C6.27046875,9.22434783 6.24421875,9.22695652 6.2199375,9.23934783 C6.20221875,9.24521739 6.19303125,9.25434783 6.19303125,9.26608696 C6.19303125,9.28369565 6.1989375,9.29608696 6.21075,9.30195652 C6.2225625,9.31956522 6.2435625,9.33130435 6.27309375,9.33782609 C9.03590625,9.72913043 10.8734062,9.65804348 11.7869062,9.12456522 C12.9983437,9.77673913 14.2754062,10.4021739 15.6174375,11.0015217 C14.4302812,11.636087 12.088125,11.636087 8.59096875,11.0015217 C8.56078125,10.9956522 8.5404375,10.9956522 8.52796875,11.0015217 C8.4984375,11.0073913 8.48334375,11.0165217 8.48334375,11.0282609 C8.48334375,11.0458696 8.48925,11.0608696 8.5010625,11.0726087 C8.50696875,11.0843478 8.5246875,11.0934783 8.554875,11.0993478 C12.1530937,11.7573913 14.5575937,11.748913 15.7690312,11.0726087 C16.3839375,11.351087 17.0191875,11.6269565 17.6754375,11.8995652 C17.6813437,11.8995652 17.68725,11.8995652 17.6931562,11.8995652 L17.7023437,11.8995652 C17.7384375,11.9171739 17.7830625,11.9263043 17.836875,11.9263043 C17.878875,11.9204348 17.9175937,11.9086957 17.9530312,11.8904348 C17.9648437,11.8786957 17.97075,11.8669565 17.97075,11.8545652 C17.97075,11.8369565 17.97075,11.8219565 17.97075,11.8102174 C17.9648437,11.7984783 17.9556562,11.7893478 17.9438437,11.7834783 C17.9320312,11.7717391 17.9143125,11.76 17.8900312,11.7476087 C17.2455937,11.475 16.61625,11.1991304 16.0013437,10.9206522 C16.9319062,10.2684783 17.1740625,9.14478261 16.7265,7.54956522 C16.7205937,7.53782609 16.7087812,7.52608696 16.6910625,7.51369565 C16.6733437,7.50195652 16.6549687,7.49869565 16.63725,7.50456522 C16.6018125,7.50456522 16.5749062,7.51043478 16.5565312,7.52217391 C16.5388125,7.52804348 16.5355312,7.53978261 16.5473437,7.55804348 C16.9771875,9.1173913 16.7442187,10.2176087 15.8490937,10.8580435 C14.5005,10.2534783 13.2208125,9.6273913 12.009375,8.98108696 C12.6958125,8.44108696 12.9793125,7.57826087 12.859875,6.3926087 C12.8539687,6.36913043 12.8421562,6.35413043 12.8237812,6.34826087 C12.8060625,6.33652174 12.7850625,6.33326087 12.7607812,6.33913043 C12.7371562,6.33326087 12.7161562,6.33326087 12.6984375,6.33913043 C12.6807187,6.35086957 12.6715312,6.36586957 12.6715312,6.38347826 C12.7909687,7.53978261 12.5251875,8.37913043 11.8748437,8.90086957 C10.1325,7.98195652 8.51221875,7.01804348 7.01465625,6.00978261 C8.55421875,5.29826087 8.9184375,4.4973913 8.10665625,3.60847826 C8.08303125,3.59673913 8.05875,3.5876087 8.035125,3.58173913 C8.0115,3.57 7.993125,3.56673913 7.9813125,3.5726087 C7.95309375,3.57847826 7.935375,3.59021739 7.92946875,3.60847826 Z" id="Shape" fill="#B5DA99"></path>
                        </g>
                    </g>
                </g>
            </g>
            <g id="basil-copy" transform="translate(126.000000, 19.000000)">
                <g id="Group" transform="translate(10.434375, 7.206522) scale(-1, 1) translate(-10.434375, -7.206522) translate(0.262500, 0.032609)">
                    <g id="people_0_Layer12_12_FILL">
                        <g>
                            <path d="M17.7036563,11.8982609 L17.6944688,11.8982609 L17.6944688,12.4676087 L17.7036563,12.4676087 C17.73975,12.4852174 17.784375,12.4943478 17.8381875,12.4943478 C17.8801875,12.4884783 17.9189063,12.4767391 17.9543438,12.4584783 C17.9720625,12.435 17.98125,12.4108696 17.98125,12.3873913 L17.98125,12.3430435 L17.9720625,11.853913 C17.9720625,11.8656522 17.9661563,11.8773913 17.9543438,11.8897826 C17.91825,11.9073913 17.8795313,11.9191304 17.8381875,11.9256522 C17.7837188,11.925 17.7390938,11.9158696 17.7036563,11.8982609 Z" id="Shape" fill="#74B568"></path>
                            <path d="M19.9408125,10.323913 L19.95,9.94173913 C19.9440937,10.0128261 19.9349062,10.083913 19.9230937,10.155 C19.79775,10.9023913 19.1382187,11.445 17.9451562,11.7828261 C17.9569687,11.7886957 17.9661562,11.7978261 17.9720625,11.8095652 C17.9720625,11.8213043 17.9720625,11.8363043 17.9720625,11.853913 L17.98125,12.3430435 C19.3475625,11.9458696 20.0005312,11.2728261 19.9408125,10.323913 L19.9408125,10.323913 Z M6.53296875,11.7919565 C8.460375,12.8654348 10.581375,13.5084783 12.896625,13.7223913 C15.169875,13.9297826 16.7691562,13.5117391 17.6944687,12.4682609 L17.6944687,11.898913 C16.7698125,12.9423913 15.1705312,13.3604348 12.896625,13.1530435 C10.581375,12.9397826 8.460375,12.296087 6.53296875,11.2226087 C4.6055625,10.1491304 3.1224375,8.95434783 2.08425,7.63826087 C1.099875,6.3926087 0.47315625,4.24891304 0.20475,1.20717391 C0.181125,1.01152174 0.16275,0.815869565 0.1509375,0.620217391 L0.1509375,2.03478261 C0.4370625,4.88152174 1.0815,6.93913043 2.08425,8.20826087 C3.12309375,9.52369565 4.6055625,10.7184783 6.53296875,11.7919565 Z" id="Shape" fill="#4D7637"></path>
                            <path d="M7.938,3.65282609 C7.9261875,3.63521739 7.92290625,3.62021739 7.9288125,3.60847826 C7.93471875,3.59086957 7.9524375,3.57847826 7.982625,3.5726087 C7.9944375,3.56673913 8.0128125,3.56934783 8.0364375,3.58173913 C8.0600625,3.5876087 8.08434375,3.59673913 8.10796875,3.60847826 C8.91975,4.49804348 8.55553125,5.29826087 7.01596875,6.00978261 C8.51353125,7.01804348 10.1338125,7.98130435 11.8761562,8.90086957 C12.5265,8.37913043 12.7922812,7.53978261 12.6728437,6.38347826 C12.6728437,6.36586957 12.6820312,6.35086957 12.69975,6.33913043 C12.7174687,6.33326087 12.7384687,6.33326087 12.7620937,6.33913043 C12.7857187,6.33326087 12.8067187,6.33586957 12.8250937,6.34826087 C12.8428125,6.35413043 12.854625,6.36913043 12.8611875,6.3926087 C12.980625,7.57826087 12.697125,8.44108696 12.0106875,8.98108696 C13.222125,9.6273913 14.5018125,10.2528261 15.8504062,10.8580435 C16.7455312,10.2176087 16.9778437,9.1173913 16.5486562,7.55804348 C16.5368437,7.54043478 16.5394687,7.52804348 16.5578437,7.52217391 C16.5755625,7.51043478 16.6024687,7.50456522 16.6385625,7.50456522 C16.6562812,7.49869565 16.6746562,7.50130435 16.692375,7.51369565 C16.7100937,7.52543478 16.7219062,7.53717391 16.7278125,7.54956522 C17.175375,9.14478261 16.933875,10.2684783 16.0026562,10.9206522 C16.6175625,11.1991304 17.2469062,11.475 17.8913437,11.7476087 C17.9149687,11.7593478 17.9333437,11.771087 17.9451562,11.7834783 C19.138875,11.4456522 19.79775,10.9030435 19.9230937,10.1556522 C19.9349062,10.0845652 19.9440937,10.0134783 19.95,9.9423913 C19.9440937,9.93065217 19.9440937,9.91891304 19.95,9.90652174 C19.95,9.89478261 19.95,9.88304348 19.95,9.87065217 C19.9440937,9.66326087 19.905375,9.44086957 19.8338437,9.20347826 C19.4282812,7.89913043 18.2588437,6.70369565 16.3255312,5.61913043 C14.3922187,4.52804348 12.1517812,3.67695652 9.6035625,3.06652174 C7.0494375,2.44956522 3.89878125,1.63434783 0.15159375,0.620217391 C0.16340625,0.815869565 0.18178125,1.01152174 0.20540625,1.20717391 C0.4738125,4.24956522 1.10053125,6.39326087 2.08490625,7.63826087 C3.12309375,8.95434783 4.60621875,10.1497826 6.533625,11.2226087 C8.46103125,12.296087 10.5820312,12.9391304 12.8972812,13.1530435 C15.1705312,13.3604348 16.7698125,12.9423913 17.695125,11.898913 C17.6892187,11.898913 17.6833125,11.898913 17.6774062,11.898913 C17.0211562,11.6263043 16.38525,11.3504348 15.771,11.0719565 C14.5595625,11.7482609 12.1550625,11.7567391 8.55684375,11.0986957 C8.52665625,11.0928261 8.5089375,11.0836957 8.50303125,11.0719565 C8.49121875,11.0602174 8.4853125,11.0452174 8.4853125,11.0276087 C8.4853125,11.0158696 8.50040625,11.0067391 8.5299375,11.0008696 C8.54175,10.995 8.56275,10.995 8.5929375,11.0008696 C12.0894375,11.6354348 14.4315937,11.6354348 15.6194062,11.0008696 C14.2767187,10.4021739 12.9996562,9.77608696 11.788875,9.12391304 C10.8760312,9.6573913 9.037875,9.72847826 6.2750625,9.33717391 C6.24553125,9.33130435 6.22453125,9.31956522 6.21271875,9.30130435 C6.20090625,9.29543478 6.195,9.28369565 6.195,9.26543478 C6.195,9.25369565 6.2041875,9.24456522 6.22190625,9.23869565 C6.24553125,9.22695652 6.2724375,9.22369565 6.302625,9.22956522 C8.98209375,9.62086957 10.7631562,9.56478261 11.6464687,9.06065217 C10.4888437,8.43782609 9.38503125,7.80326087 8.334375,7.15695652 C7.45696875,7.78565217 5.85178125,7.80065217 3.5188125,7.20130435 C3.4951875,7.19543478 3.4768125,7.18630435 3.465,7.17456522 C3.4531875,7.15695652 3.4531875,7.14521739 3.465,7.13934783 C3.465,7.12173913 3.48009375,7.1126087 3.509625,7.1126087 C3.53325,7.10086957 3.55753125,7.0976087 3.58115625,7.10347826 C5.81896875,7.67869565 7.35853125,7.66695652 8.19984375,7.06826087 C7.67484375,6.74217391 7.1675625,6.41608696 6.678,6.09 C6.0755625,5.67521739 5.49084375,5.25717391 4.92384375,4.83586957 C3.98671875,5.15021739 3.005625,5.03478261 1.97925,4.48891304 C1.96153125,4.47717391 1.95234375,4.46543478 1.95234375,4.45304348 C1.9464375,4.43543478 1.95234375,4.42043478 1.9700625,4.40869565 C1.98778125,4.40282609 2.0120625,4.40282609 2.04159375,4.40869565 C2.06521875,4.40869565 2.08621875,4.41456522 2.10459375,4.42630435 C3.047625,4.93043478 3.945375,5.04 4.7985,4.75565217 C4.034625,4.17456522 3.30684375,3.58434783 2.6145,2.98565217 C2.5725,2.96804348 2.5606875,2.94130435 2.5790625,2.90543478 C2.590875,2.88195652 2.61778125,2.86369565 2.65978125,2.85195652 C2.695875,2.83434783 2.7405,2.83108696 2.7943125,2.84282609 C2.84221875,2.84869565 2.8809375,2.86369565 2.91046875,2.88717391 C4.1278125,3.93652174 5.45540625,4.94804348 6.89325,5.92043478 C8.35275,5.24478261 8.701875,4.48891304 7.938,3.65282609 Z" id="Shape" fill="#86B65A"></path>
                            <path d="M7.92946875,3.60847826 C7.9235625,3.62021739 7.9261875,3.63521739 7.93865625,3.65282609 C8.70253125,4.48891304 8.35340625,5.24478261 6.89128125,5.92108696 C5.4534375,4.94869565 4.1251875,3.93717391 2.9085,2.88782609 C2.8783125,2.86434783 2.83959375,2.84934783 2.79234375,2.84347826 C2.73853125,2.83173913 2.69390625,2.83434783 2.6578125,2.8526087 C2.6158125,2.86434783 2.58890625,2.88195652 2.57709375,2.90608696 C2.559375,2.94195652 2.5711875,2.96804348 2.61253125,2.98630435 C3.304875,3.585 4.03265625,4.17521739 4.79653125,4.75630435 C3.94340625,5.04065217 3.045,4.93108696 2.102625,4.42695652 C2.08490625,4.41521739 2.06390625,4.40934783 2.039625,4.40934783 C2.01009375,4.40347826 1.9858125,4.40347826 1.96809375,4.40934783 C1.950375,4.42108696 1.94446875,4.43608696 1.950375,4.45369565 C1.950375,4.46543478 1.9595625,4.47717391 1.97728125,4.48956522 C3.00365625,5.03543478 3.98540625,5.15086957 4.921875,4.83652174 C5.488875,5.25782609 6.07359375,5.67521739 6.67603125,6.09065217 C7.16559375,6.41673913 7.672875,6.74282609 8.197875,7.06891304 C7.3565625,7.6676087 5.817,7.68 3.5791875,7.10413043 C3.5555625,7.09826087 3.53128125,7.10152174 3.50765625,7.11326087 C3.478125,7.11326087 3.46303125,7.1223913 3.46303125,7.14 C3.45121875,7.14586957 3.45121875,7.1576087 3.46303125,7.17521739 C3.47484375,7.18695652 3.49321875,7.19608696 3.51684375,7.20195652 C5.8498125,7.80065217 7.455,7.78630435 8.33240625,7.1576087 C9.38240625,7.80391304 10.486875,8.43847826 11.6445,9.06130435 C10.7611875,9.56543478 8.980125,9.62152174 6.30065625,9.23021739 C6.27046875,9.22434783 6.24421875,9.22695652 6.2199375,9.23934783 C6.20221875,9.24521739 6.19303125,9.25434783 6.19303125,9.26608696 C6.19303125,9.28369565 6.1989375,9.29608696 6.21075,9.30195652 C6.2225625,9.31956522 6.2435625,9.33130435 6.27309375,9.33782609 C9.03590625,9.72913043 10.8734062,9.65804348 11.7869062,9.12456522 C12.9983437,9.77673913 14.2754062,10.4021739 15.6174375,11.0015217 C14.4302812,11.636087 12.088125,11.636087 8.59096875,11.0015217 C8.56078125,10.9956522 8.5404375,10.9956522 8.52796875,11.0015217 C8.4984375,11.0073913 8.48334375,11.0165217 8.48334375,11.0282609 C8.48334375,11.0458696 8.48925,11.0608696 8.5010625,11.0726087 C8.50696875,11.0843478 8.5246875,11.0934783 8.554875,11.0993478 C12.1530937,11.7573913 14.5575937,11.748913 15.7690312,11.0726087 C16.3839375,11.351087 17.0191875,11.6269565 17.6754375,11.8995652 C17.6813437,11.8995652 17.68725,11.8995652 17.6931562,11.8995652 L17.7023437,11.8995652 C17.7384375,11.9171739 17.7830625,11.9263043 17.836875,11.9263043 C17.878875,11.9204348 17.9175937,11.9086957 17.9530312,11.8904348 C17.9648437,11.8786957 17.97075,11.8669565 17.97075,11.8545652 C17.97075,11.8369565 17.97075,11.8219565 17.97075,11.8102174 C17.9648437,11.7984783 17.9556562,11.7893478 17.9438437,11.7834783 C17.9320312,11.7717391 17.9143125,11.76 17.8900312,11.7476087 C17.2455937,11.475 16.61625,11.1991304 16.0013437,10.9206522 C16.9319062,10.2684783 17.1740625,9.14478261 16.7265,7.54956522 C16.7205937,7.53782609 16.7087812,7.52608696 16.6910625,7.51369565 C16.6733437,7.50195652 16.6549687,7.49869565 16.63725,7.50456522 C16.6018125,7.50456522 16.5749062,7.51043478 16.5565312,7.52217391 C16.5388125,7.52804348 16.5355312,7.53978261 16.5473437,7.55804348 C16.9771875,9.1173913 16.7442187,10.2176087 15.8490937,10.8580435 C14.5005,10.2534783 13.2208125,9.6273913 12.009375,8.98108696 C12.6958125,8.44108696 12.9793125,7.57826087 12.859875,6.3926087 C12.8539687,6.36913043 12.8421562,6.35413043 12.8237812,6.34826087 C12.8060625,6.33652174 12.7850625,6.33326087 12.7607812,6.33913043 C12.7371562,6.33326087 12.7161562,6.33326087 12.6984375,6.33913043 C12.6807187,6.35086957 12.6715312,6.36586957 12.6715312,6.38347826 C12.7909687,7.53978261 12.5251875,8.37913043 11.8748437,8.90086957 C10.1325,7.98195652 8.51221875,7.01804348 7.01465625,6.00978261 C8.55421875,5.29826087 8.9184375,4.4973913 8.10665625,3.60847826 C8.08303125,3.59673913 8.05875,3.5876087 8.035125,3.58173913 C8.0115,3.57 7.993125,3.56673913 7.9813125,3.5726087 C7.95309375,3.57847826 7.935375,3.59021739 7.92946875,3.60847826 Z" id="Shape" fill="#B5DA99"></path>
                        </g>
                    </g>
                </g>
            </g>
            <g id="basil-copy-2" transform="translate(113.000000, 45.000000)">
                <g id="Group" transform="translate(10.434375, 7.206522) scale(-1, 1) translate(-10.434375, -7.206522) translate(0.262500, 0.032609)">
                    <g id="people_0_Layer12_12_FILL">
                        <g>
                            <path d="M17.7036563,11.8982609 L17.6944688,11.8982609 L17.6944688,12.4676087 L17.7036563,12.4676087 C17.73975,12.4852174 17.784375,12.4943478 17.8381875,12.4943478 C17.8801875,12.4884783 17.9189063,12.4767391 17.9543438,12.4584783 C17.9720625,12.435 17.98125,12.4108696 17.98125,12.3873913 L17.98125,12.3430435 L17.9720625,11.853913 C17.9720625,11.8656522 17.9661563,11.8773913 17.9543438,11.8897826 C17.91825,11.9073913 17.8795313,11.9191304 17.8381875,11.9256522 C17.7837188,11.925 17.7390938,11.9158696 17.7036563,11.8982609 Z" id="Shape" fill="#74B568"></path>
                            <path d="M19.9408125,10.323913 L19.95,9.94173913 C19.9440937,10.0128261 19.9349062,10.083913 19.9230937,10.155 C19.79775,10.9023913 19.1382187,11.445 17.9451562,11.7828261 C17.9569687,11.7886957 17.9661562,11.7978261 17.9720625,11.8095652 C17.9720625,11.8213043 17.9720625,11.8363043 17.9720625,11.853913 L17.98125,12.3430435 C19.3475625,11.9458696 20.0005312,11.2728261 19.9408125,10.323913 L19.9408125,10.323913 Z M6.53296875,11.7919565 C8.460375,12.8654348 10.581375,13.5084783 12.896625,13.7223913 C15.169875,13.9297826 16.7691562,13.5117391 17.6944687,12.4682609 L17.6944687,11.898913 C16.7698125,12.9423913 15.1705312,13.3604348 12.896625,13.1530435 C10.581375,12.9397826 8.460375,12.296087 6.53296875,11.2226087 C4.6055625,10.1491304 3.1224375,8.95434783 2.08425,7.63826087 C1.099875,6.3926087 0.47315625,4.24891304 0.20475,1.20717391 C0.181125,1.01152174 0.16275,0.815869565 0.1509375,0.620217391 L0.1509375,2.03478261 C0.4370625,4.88152174 1.0815,6.93913043 2.08425,8.20826087 C3.12309375,9.52369565 4.6055625,10.7184783 6.53296875,11.7919565 Z" id="Shape" fill="#4D7637"></path>
                            <path d="M7.938,3.65282609 C7.9261875,3.63521739 7.92290625,3.62021739 7.9288125,3.60847826 C7.93471875,3.59086957 7.9524375,3.57847826 7.982625,3.5726087 C7.9944375,3.56673913 8.0128125,3.56934783 8.0364375,3.58173913 C8.0600625,3.5876087 8.08434375,3.59673913 8.10796875,3.60847826 C8.91975,4.49804348 8.55553125,5.29826087 7.01596875,6.00978261 C8.51353125,7.01804348 10.1338125,7.98130435 11.8761562,8.90086957 C12.5265,8.37913043 12.7922812,7.53978261 12.6728437,6.38347826 C12.6728437,6.36586957 12.6820312,6.35086957 12.69975,6.33913043 C12.7174687,6.33326087 12.7384687,6.33326087 12.7620937,6.33913043 C12.7857187,6.33326087 12.8067187,6.33586957 12.8250937,6.34826087 C12.8428125,6.35413043 12.854625,6.36913043 12.8611875,6.3926087 C12.980625,7.57826087 12.697125,8.44108696 12.0106875,8.98108696 C13.222125,9.6273913 14.5018125,10.2528261 15.8504062,10.8580435 C16.7455312,10.2176087 16.9778437,9.1173913 16.5486562,7.55804348 C16.5368437,7.54043478 16.5394687,7.52804348 16.5578437,7.52217391 C16.5755625,7.51043478 16.6024687,7.50456522 16.6385625,7.50456522 C16.6562812,7.49869565 16.6746562,7.50130435 16.692375,7.51369565 C16.7100937,7.52543478 16.7219062,7.53717391 16.7278125,7.54956522 C17.175375,9.14478261 16.933875,10.2684783 16.0026562,10.9206522 C16.6175625,11.1991304 17.2469062,11.475 17.8913437,11.7476087 C17.9149687,11.7593478 17.9333437,11.771087 17.9451562,11.7834783 C19.138875,11.4456522 19.79775,10.9030435 19.9230937,10.1556522 C19.9349062,10.0845652 19.9440937,10.0134783 19.95,9.9423913 C19.9440937,9.93065217 19.9440937,9.91891304 19.95,9.90652174 C19.95,9.89478261 19.95,9.88304348 19.95,9.87065217 C19.9440937,9.66326087 19.905375,9.44086957 19.8338437,9.20347826 C19.4282812,7.89913043 18.2588437,6.70369565 16.3255312,5.61913043 C14.3922187,4.52804348 12.1517812,3.67695652 9.6035625,3.06652174 C7.0494375,2.44956522 3.89878125,1.63434783 0.15159375,0.620217391 C0.16340625,0.815869565 0.18178125,1.01152174 0.20540625,1.20717391 C0.4738125,4.24956522 1.10053125,6.39326087 2.08490625,7.63826087 C3.12309375,8.95434783 4.60621875,10.1497826 6.533625,11.2226087 C8.46103125,12.296087 10.5820312,12.9391304 12.8972812,13.1530435 C15.1705312,13.3604348 16.7698125,12.9423913 17.695125,11.898913 C17.6892187,11.898913 17.6833125,11.898913 17.6774062,11.898913 C17.0211562,11.6263043 16.38525,11.3504348 15.771,11.0719565 C14.5595625,11.7482609 12.1550625,11.7567391 8.55684375,11.0986957 C8.52665625,11.0928261 8.5089375,11.0836957 8.50303125,11.0719565 C8.49121875,11.0602174 8.4853125,11.0452174 8.4853125,11.0276087 C8.4853125,11.0158696 8.50040625,11.0067391 8.5299375,11.0008696 C8.54175,10.995 8.56275,10.995 8.5929375,11.0008696 C12.0894375,11.6354348 14.4315937,11.6354348 15.6194062,11.0008696 C14.2767187,10.4021739 12.9996562,9.77608696 11.788875,9.12391304 C10.8760312,9.6573913 9.037875,9.72847826 6.2750625,9.33717391 C6.24553125,9.33130435 6.22453125,9.31956522 6.21271875,9.30130435 C6.20090625,9.29543478 6.195,9.28369565 6.195,9.26543478 C6.195,9.25369565 6.2041875,9.24456522 6.22190625,9.23869565 C6.24553125,9.22695652 6.2724375,9.22369565 6.302625,9.22956522 C8.98209375,9.62086957 10.7631562,9.56478261 11.6464687,9.06065217 C10.4888437,8.43782609 9.38503125,7.80326087 8.334375,7.15695652 C7.45696875,7.78565217 5.85178125,7.80065217 3.5188125,7.20130435 C3.4951875,7.19543478 3.4768125,7.18630435 3.465,7.17456522 C3.4531875,7.15695652 3.4531875,7.14521739 3.465,7.13934783 C3.465,7.12173913 3.48009375,7.1126087 3.509625,7.1126087 C3.53325,7.10086957 3.55753125,7.0976087 3.58115625,7.10347826 C5.81896875,7.67869565 7.35853125,7.66695652 8.19984375,7.06826087 C7.67484375,6.74217391 7.1675625,6.41608696 6.678,6.09 C6.0755625,5.67521739 5.49084375,5.25717391 4.92384375,4.83586957 C3.98671875,5.15021739 3.005625,5.03478261 1.97925,4.48891304 C1.96153125,4.47717391 1.95234375,4.46543478 1.95234375,4.45304348 C1.9464375,4.43543478 1.95234375,4.42043478 1.9700625,4.40869565 C1.98778125,4.40282609 2.0120625,4.40282609 2.04159375,4.40869565 C2.06521875,4.40869565 2.08621875,4.41456522 2.10459375,4.42630435 C3.047625,4.93043478 3.945375,5.04 4.7985,4.75565217 C4.034625,4.17456522 3.30684375,3.58434783 2.6145,2.98565217 C2.5725,2.96804348 2.5606875,2.94130435 2.5790625,2.90543478 C2.590875,2.88195652 2.61778125,2.86369565 2.65978125,2.85195652 C2.695875,2.83434783 2.7405,2.83108696 2.7943125,2.84282609 C2.84221875,2.84869565 2.8809375,2.86369565 2.91046875,2.88717391 C4.1278125,3.93652174 5.45540625,4.94804348 6.89325,5.92043478 C8.35275,5.24478261 8.701875,4.48891304 7.938,3.65282609 Z" id="Shape" fill="#86B65A"></path>
                            <path d="M7.92946875,3.60847826 C7.9235625,3.62021739 7.9261875,3.63521739 7.93865625,3.65282609 C8.70253125,4.48891304 8.35340625,5.24478261 6.89128125,5.92108696 C5.4534375,4.94869565 4.1251875,3.93717391 2.9085,2.88782609 C2.8783125,2.86434783 2.83959375,2.84934783 2.79234375,2.84347826 C2.73853125,2.83173913 2.69390625,2.83434783 2.6578125,2.8526087 C2.6158125,2.86434783 2.58890625,2.88195652 2.57709375,2.90608696 C2.559375,2.94195652 2.5711875,2.96804348 2.61253125,2.98630435 C3.304875,3.585 4.03265625,4.17521739 4.79653125,4.75630435 C3.94340625,5.04065217 3.045,4.93108696 2.102625,4.42695652 C2.08490625,4.41521739 2.06390625,4.40934783 2.039625,4.40934783 C2.01009375,4.40347826 1.9858125,4.40347826 1.96809375,4.40934783 C1.950375,4.42108696 1.94446875,4.43608696 1.950375,4.45369565 C1.950375,4.46543478 1.9595625,4.47717391 1.97728125,4.48956522 C3.00365625,5.03543478 3.98540625,5.15086957 4.921875,4.83652174 C5.488875,5.25782609 6.07359375,5.67521739 6.67603125,6.09065217 C7.16559375,6.41673913 7.672875,6.74282609 8.197875,7.06891304 C7.3565625,7.6676087 5.817,7.68 3.5791875,7.10413043 C3.5555625,7.09826087 3.53128125,7.10152174 3.50765625,7.11326087 C3.478125,7.11326087 3.46303125,7.1223913 3.46303125,7.14 C3.45121875,7.14586957 3.45121875,7.1576087 3.46303125,7.17521739 C3.47484375,7.18695652 3.49321875,7.19608696 3.51684375,7.20195652 C5.8498125,7.80065217 7.455,7.78630435 8.33240625,7.1576087 C9.38240625,7.80391304 10.486875,8.43847826 11.6445,9.06130435 C10.7611875,9.56543478 8.980125,9.62152174 6.30065625,9.23021739 C6.27046875,9.22434783 6.24421875,9.22695652 6.2199375,9.23934783 C6.20221875,9.24521739 6.19303125,9.25434783 6.19303125,9.26608696 C6.19303125,9.28369565 6.1989375,9.29608696 6.21075,9.30195652 C6.2225625,9.31956522 6.2435625,9.33130435 6.27309375,9.33782609 C9.03590625,9.72913043 10.8734062,9.65804348 11.7869062,9.12456522 C12.9983437,9.77673913 14.2754062,10.4021739 15.6174375,11.0015217 C14.4302812,11.636087 12.088125,11.636087 8.59096875,11.0015217 C8.56078125,10.9956522 8.5404375,10.9956522 8.52796875,11.0015217 C8.4984375,11.0073913 8.48334375,11.0165217 8.48334375,11.0282609 C8.48334375,11.0458696 8.48925,11.0608696 8.5010625,11.0726087 C8.50696875,11.0843478 8.5246875,11.0934783 8.554875,11.0993478 C12.1530937,11.7573913 14.5575937,11.748913 15.7690312,11.0726087 C16.3839375,11.351087 17.0191875,11.6269565 17.6754375,11.8995652 C17.6813437,11.8995652 17.68725,11.8995652 17.6931562,11.8995652 L17.7023437,11.8995652 C17.7384375,11.9171739 17.7830625,11.9263043 17.836875,11.9263043 C17.878875,11.9204348 17.9175937,11.9086957 17.9530312,11.8904348 C17.9648437,11.8786957 17.97075,11.8669565 17.97075,11.8545652 C17.97075,11.8369565 17.97075,11.8219565 17.97075,11.8102174 C17.9648437,11.7984783 17.9556562,11.7893478 17.9438437,11.7834783 C17.9320312,11.7717391 17.9143125,11.76 17.8900312,11.7476087 C17.2455937,11.475 16.61625,11.1991304 16.0013437,10.9206522 C16.9319062,10.2684783 17.1740625,9.14478261 16.7265,7.54956522 C16.7205937,7.53782609 16.7087812,7.52608696 16.6910625,7.51369565 C16.6733437,7.50195652 16.6549687,7.49869565 16.63725,7.50456522 C16.6018125,7.50456522 16.5749062,7.51043478 16.5565312,7.52217391 C16.5388125,7.52804348 16.5355312,7.53978261 16.5473437,7.55804348 C16.9771875,9.1173913 16.7442187,10.2176087 15.8490937,10.8580435 C14.5005,10.2534783 13.2208125,9.6273913 12.009375,8.98108696 C12.6958125,8.44108696 12.9793125,7.57826087 12.859875,6.3926087 C12.8539687,6.36913043 12.8421562,6.35413043 12.8237812,6.34826087 C12.8060625,6.33652174 12.7850625,6.33326087 12.7607812,6.33913043 C12.7371562,6.33326087 12.7161562,6.33326087 12.6984375,6.33913043 C12.6807187,6.35086957 12.6715312,6.36586957 12.6715312,6.38347826 C12.7909687,7.53978261 12.5251875,8.37913043 11.8748437,8.90086957 C10.1325,7.98195652 8.51221875,7.01804348 7.01465625,6.00978261 C8.55421875,5.29826087 8.9184375,4.4973913 8.10665625,3.60847826 C8.08303125,3.59673913 8.05875,3.5876087 8.035125,3.58173913 C8.0115,3.57 7.993125,3.56673913 7.9813125,3.5726087 C7.95309375,3.57847826 7.935375,3.59021739 7.92946875,3.60847826 Z" id="Shape" fill="#B5DA99"></path>
                        </g>
                    </g>
                </g>
            </g>
            <g id="basil-copy-3" transform="translate(125.000000, 72.000000)">
                <g id="Group" transform="translate(10.434375, 7.206522) scale(-1, 1) translate(-10.434375, -7.206522) translate(0.262500, 0.032609)">
                    <g id="people_0_Layer12_12_FILL">
                        <g>
                            <path d="M17.7036563,11.8982609 L17.6944688,11.8982609 L17.6944688,12.4676087 L17.7036563,12.4676087 C17.73975,12.4852174 17.784375,12.4943478 17.8381875,12.4943478 C17.8801875,12.4884783 17.9189063,12.4767391 17.9543438,12.4584783 C17.9720625,12.435 17.98125,12.4108696 17.98125,12.3873913 L17.98125,12.3430435 L17.9720625,11.853913 C17.9720625,11.8656522 17.9661563,11.8773913 17.9543438,11.8897826 C17.91825,11.9073913 17.8795313,11.9191304 17.8381875,11.9256522 C17.7837188,11.925 17.7390938,11.9158696 17.7036563,11.8982609 Z" id="Shape" fill="#74B568"></path>
                            <path d="M19.9408125,10.323913 L19.95,9.94173913 C19.9440937,10.0128261 19.9349062,10.083913 19.9230937,10.155 C19.79775,10.9023913 19.1382187,11.445 17.9451562,11.7828261 C17.9569687,11.7886957 17.9661562,11.7978261 17.9720625,11.8095652 C17.9720625,11.8213043 17.9720625,11.8363043 17.9720625,11.853913 L17.98125,12.3430435 C19.3475625,11.9458696 20.0005312,11.2728261 19.9408125,10.323913 L19.9408125,10.323913 Z M6.53296875,11.7919565 C8.460375,12.8654348 10.581375,13.5084783 12.896625,13.7223913 C15.169875,13.9297826 16.7691562,13.5117391 17.6944687,12.4682609 L17.6944687,11.898913 C16.7698125,12.9423913 15.1705312,13.3604348 12.896625,13.1530435 C10.581375,12.9397826 8.460375,12.296087 6.53296875,11.2226087 C4.6055625,10.1491304 3.1224375,8.95434783 2.08425,7.63826087 C1.099875,6.3926087 0.47315625,4.24891304 0.20475,1.20717391 C0.181125,1.01152174 0.16275,0.815869565 0.1509375,0.620217391 L0.1509375,2.03478261 C0.4370625,4.88152174 1.0815,6.93913043 2.08425,8.20826087 C3.12309375,9.52369565 4.6055625,10.7184783 6.53296875,11.7919565 Z" id="Shape" fill="#4D7637"></path>
                            <path d="M7.938,3.65282609 C7.9261875,3.63521739 7.92290625,3.62021739 7.9288125,3.60847826 C7.93471875,3.59086957 7.9524375,3.57847826 7.982625,3.5726087 C7.9944375,3.56673913 8.0128125,3.56934783 8.0364375,3.58173913 C8.0600625,3.5876087 8.08434375,3.59673913 8.10796875,3.60847826 C8.91975,4.49804348 8.55553125,5.29826087 7.01596875,6.00978261 C8.51353125,7.01804348 10.1338125,7.98130435 11.8761562,8.90086957 C12.5265,8.37913043 12.7922812,7.53978261 12.6728437,6.38347826 C12.6728437,6.36586957 12.6820312,6.35086957 12.69975,6.33913043 C12.7174687,6.33326087 12.7384687,6.33326087 12.7620937,6.33913043 C12.7857187,6.33326087 12.8067187,6.33586957 12.8250937,6.34826087 C12.8428125,6.35413043 12.854625,6.36913043 12.8611875,6.3926087 C12.980625,7.57826087 12.697125,8.44108696 12.0106875,8.98108696 C13.222125,9.6273913 14.5018125,10.2528261 15.8504062,10.8580435 C16.7455312,10.2176087 16.9778437,9.1173913 16.5486562,7.55804348 C16.5368437,7.54043478 16.5394687,7.52804348 16.5578437,7.52217391 C16.5755625,7.51043478 16.6024687,7.50456522 16.6385625,7.50456522 C16.6562812,7.49869565 16.6746562,7.50130435 16.692375,7.51369565 C16.7100937,7.52543478 16.7219062,7.53717391 16.7278125,7.54956522 C17.175375,9.14478261 16.933875,10.2684783 16.0026562,10.9206522 C16.6175625,11.1991304 17.2469062,11.475 17.8913437,11.7476087 C17.9149687,11.7593478 17.9333437,11.771087 17.9451562,11.7834783 C19.138875,11.4456522 19.79775,10.9030435 19.9230937,10.1556522 C19.9349062,10.0845652 19.9440937,10.0134783 19.95,9.9423913 C19.9440937,9.93065217 19.9440937,9.91891304 19.95,9.90652174 C19.95,9.89478261 19.95,9.88304348 19.95,9.87065217 C19.9440937,9.66326087 19.905375,9.44086957 19.8338437,9.20347826 C19.4282812,7.89913043 18.2588437,6.70369565 16.3255312,5.61913043 C14.3922187,4.52804348 12.1517812,3.67695652 9.6035625,3.06652174 C7.0494375,2.44956522 3.89878125,1.63434783 0.15159375,0.620217391 C0.16340625,0.815869565 0.18178125,1.01152174 0.20540625,1.20717391 C0.4738125,4.24956522 1.10053125,6.39326087 2.08490625,7.63826087 C3.12309375,8.95434783 4.60621875,10.1497826 6.533625,11.2226087 C8.46103125,12.296087 10.5820312,12.9391304 12.8972812,13.1530435 C15.1705312,13.3604348 16.7698125,12.9423913 17.695125,11.898913 C17.6892187,11.898913 17.6833125,11.898913 17.6774062,11.898913 C17.0211562,11.6263043 16.38525,11.3504348 15.771,11.0719565 C14.5595625,11.7482609 12.1550625,11.7567391 8.55684375,11.0986957 C8.52665625,11.0928261 8.5089375,11.0836957 8.50303125,11.0719565 C8.49121875,11.0602174 8.4853125,11.0452174 8.4853125,11.0276087 C8.4853125,11.0158696 8.50040625,11.0067391 8.5299375,11.0008696 C8.54175,10.995 8.56275,10.995 8.5929375,11.0008696 C12.0894375,11.6354348 14.4315937,11.6354348 15.6194062,11.0008696 C14.2767187,10.4021739 12.9996562,9.77608696 11.788875,9.12391304 C10.8760312,9.6573913 9.037875,9.72847826 6.2750625,9.33717391 C6.24553125,9.33130435 6.22453125,9.31956522 6.21271875,9.30130435 C6.20090625,9.29543478 6.195,9.28369565 6.195,9.26543478 C6.195,9.25369565 6.2041875,9.24456522 6.22190625,9.23869565 C6.24553125,9.22695652 6.2724375,9.22369565 6.302625,9.22956522 C8.98209375,9.62086957 10.7631562,9.56478261 11.6464687,9.06065217 C10.4888437,8.43782609 9.38503125,7.80326087 8.334375,7.15695652 C7.45696875,7.78565217 5.85178125,7.80065217 3.5188125,7.20130435 C3.4951875,7.19543478 3.4768125,7.18630435 3.465,7.17456522 C3.4531875,7.15695652 3.4531875,7.14521739 3.465,7.13934783 C3.465,7.12173913 3.48009375,7.1126087 3.509625,7.1126087 C3.53325,7.10086957 3.55753125,7.0976087 3.58115625,7.10347826 C5.81896875,7.67869565 7.35853125,7.66695652 8.19984375,7.06826087 C7.67484375,6.74217391 7.1675625,6.41608696 6.678,6.09 C6.0755625,5.67521739 5.49084375,5.25717391 4.92384375,4.83586957 C3.98671875,5.15021739 3.005625,5.03478261 1.97925,4.48891304 C1.96153125,4.47717391 1.95234375,4.46543478 1.95234375,4.45304348 C1.9464375,4.43543478 1.95234375,4.42043478 1.9700625,4.40869565 C1.98778125,4.40282609 2.0120625,4.40282609 2.04159375,4.40869565 C2.06521875,4.40869565 2.08621875,4.41456522 2.10459375,4.42630435 C3.047625,4.93043478 3.945375,5.04 4.7985,4.75565217 C4.034625,4.17456522 3.30684375,3.58434783 2.6145,2.98565217 C2.5725,2.96804348 2.5606875,2.94130435 2.5790625,2.90543478 C2.590875,2.88195652 2.61778125,2.86369565 2.65978125,2.85195652 C2.695875,2.83434783 2.7405,2.83108696 2.7943125,2.84282609 C2.84221875,2.84869565 2.8809375,2.86369565 2.91046875,2.88717391 C4.1278125,3.93652174 5.45540625,4.94804348 6.89325,5.92043478 C8.35275,5.24478261 8.701875,4.48891304 7.938,3.65282609 Z" id="Shape" fill="#86B65A"></path>
                            <path d="M7.92946875,3.60847826 C7.9235625,3.62021739 7.9261875,3.63521739 7.93865625,3.65282609 C8.70253125,4.48891304 8.35340625,5.24478261 6.89128125,5.92108696 C5.4534375,4.94869565 4.1251875,3.93717391 2.9085,2.88782609 C2.8783125,2.86434783 2.83959375,2.84934783 2.79234375,2.84347826 C2.73853125,2.83173913 2.69390625,2.83434783 2.6578125,2.8526087 C2.6158125,2.86434783 2.58890625,2.88195652 2.57709375,2.90608696 C2.559375,2.94195652 2.5711875,2.96804348 2.61253125,2.98630435 C3.304875,3.585 4.03265625,4.17521739 4.79653125,4.75630435 C3.94340625,5.04065217 3.045,4.93108696 2.102625,4.42695652 C2.08490625,4.41521739 2.06390625,4.40934783 2.039625,4.40934783 C2.01009375,4.40347826 1.9858125,4.40347826 1.96809375,4.40934783 C1.950375,4.42108696 1.94446875,4.43608696 1.950375,4.45369565 C1.950375,4.46543478 1.9595625,4.47717391 1.97728125,4.48956522 C3.00365625,5.03543478 3.98540625,5.15086957 4.921875,4.83652174 C5.488875,5.25782609 6.07359375,5.67521739 6.67603125,6.09065217 C7.16559375,6.41673913 7.672875,6.74282609 8.197875,7.06891304 C7.3565625,7.6676087 5.817,7.68 3.5791875,7.10413043 C3.5555625,7.09826087 3.53128125,7.10152174 3.50765625,7.11326087 C3.478125,7.11326087 3.46303125,7.1223913 3.46303125,7.14 C3.45121875,7.14586957 3.45121875,7.1576087 3.46303125,7.17521739 C3.47484375,7.18695652 3.49321875,7.19608696 3.51684375,7.20195652 C5.8498125,7.80065217 7.455,7.78630435 8.33240625,7.1576087 C9.38240625,7.80391304 10.486875,8.43847826 11.6445,9.06130435 C10.7611875,9.56543478 8.980125,9.62152174 6.30065625,9.23021739 C6.27046875,9.22434783 6.24421875,9.22695652 6.2199375,9.23934783 C6.20221875,9.24521739 6.19303125,9.25434783 6.19303125,9.26608696 C6.19303125,9.28369565 6.1989375,9.29608696 6.21075,9.30195652 C6.2225625,9.31956522 6.2435625,9.33130435 6.27309375,9.33782609 C9.03590625,9.72913043 10.8734062,9.65804348 11.7869062,9.12456522 C12.9983437,9.77673913 14.2754062,10.4021739 15.6174375,11.0015217 C14.4302812,11.636087 12.088125,11.636087 8.59096875,11.0015217 C8.56078125,10.9956522 8.5404375,10.9956522 8.52796875,11.0015217 C8.4984375,11.0073913 8.48334375,11.0165217 8.48334375,11.0282609 C8.48334375,11.0458696 8.48925,11.0608696 8.5010625,11.0726087 C8.50696875,11.0843478 8.5246875,11.0934783 8.554875,11.0993478 C12.1530937,11.7573913 14.5575937,11.748913 15.7690312,11.0726087 C16.3839375,11.351087 17.0191875,11.6269565 17.6754375,11.8995652 C17.6813437,11.8995652 17.68725,11.8995652 17.6931562,11.8995652 L17.7023437,11.8995652 C17.7384375,11.9171739 17.7830625,11.9263043 17.836875,11.9263043 C17.878875,11.9204348 17.9175937,11.9086957 17.9530312,11.8904348 C17.9648437,11.8786957 17.97075,11.8669565 17.97075,11.8545652 C17.97075,11.8369565 17.97075,11.8219565 17.97075,11.8102174 C17.9648437,11.7984783 17.9556562,11.7893478 17.9438437,11.7834783 C17.9320312,11.7717391 17.9143125,11.76 17.8900312,11.7476087 C17.2455937,11.475 16.61625,11.1991304 16.0013437,10.9206522 C16.9319062,10.2684783 17.1740625,9.14478261 16.7265,7.54956522 C16.7205937,7.53782609 16.7087812,7.52608696 16.6910625,7.51369565 C16.6733437,7.50195652 16.6549687,7.49869565 16.63725,7.50456522 C16.6018125,7.50456522 16.5749062,7.51043478 16.5565312,7.52217391 C16.5388125,7.52804348 16.5355312,7.53978261 16.5473437,7.55804348 C16.9771875,9.1173913 16.7442187,10.2176087 15.8490937,10.8580435 C14.5005,10.2534783 13.2208125,9.6273913 12.009375,8.98108696 C12.6958125,8.44108696 12.9793125,7.57826087 12.859875,6.3926087 C12.8539687,6.36913043 12.8421562,6.35413043 12.8237812,6.34826087 C12.8060625,6.33652174 12.7850625,6.33326087 12.7607812,6.33913043 C12.7371562,6.33326087 12.7161562,6.33326087 12.6984375,6.33913043 C12.6807187,6.35086957 12.6715312,6.36586957 12.6715312,6.38347826 C12.7909687,7.53978261 12.5251875,8.37913043 11.8748437,8.90086957 C10.1325,7.98195652 8.51221875,7.01804348 7.01465625,6.00978261 C8.55421875,5.29826087 8.9184375,4.4973913 8.10665625,3.60847826 C8.08303125,3.59673913 8.05875,3.5876087 8.035125,3.58173913 C8.0115,3.57 7.993125,3.56673913 7.9813125,3.5726087 C7.95309375,3.57847826 7.935375,3.59021739 7.92946875,3.60847826 Z" id="Shape" fill="#B5DA99"></path>
                        </g>
                    </g>
                </g>
            </g>
            <g id="basil-copy-4" transform="translate(146.000000, 50.000000)">
                <g id="Group" transform="translate(10.434375, 7.206522) scale(-1, 1) translate(-10.434375, -7.206522) translate(0.262500, 0.032609)">
                    <g id="people_0_Layer12_12_FILL">
                        <g>
                            <path d="M17.7036563,11.8982609 L17.6944688,11.8982609 L17.6944688,12.4676087 L17.7036563,12.4676087 C17.73975,12.4852174 17.784375,12.4943478 17.8381875,12.4943478 C17.8801875,12.4884783 17.9189063,12.4767391 17.9543438,12.4584783 C17.9720625,12.435 17.98125,12.4108696 17.98125,12.3873913 L17.98125,12.3430435 L17.9720625,11.853913 C17.9720625,11.8656522 17.9661563,11.8773913 17.9543438,11.8897826 C17.91825,11.9073913 17.8795313,11.9191304 17.8381875,11.9256522 C17.7837188,11.925 17.7390938,11.9158696 17.7036563,11.8982609 Z" id="Shape" fill="#74B568"></path>
                            <path d="M19.9408125,10.323913 L19.95,9.94173913 C19.9440937,10.0128261 19.9349062,10.083913 19.9230937,10.155 C19.79775,10.9023913 19.1382187,11.445 17.9451562,11.7828261 C17.9569687,11.7886957 17.9661562,11.7978261 17.9720625,11.8095652 C17.9720625,11.8213043 17.9720625,11.8363043 17.9720625,11.853913 L17.98125,12.3430435 C19.3475625,11.9458696 20.0005312,11.2728261 19.9408125,10.323913 L19.9408125,10.323913 Z M6.53296875,11.7919565 C8.460375,12.8654348 10.581375,13.5084783 12.896625,13.7223913 C15.169875,13.9297826 16.7691562,13.5117391 17.6944687,12.4682609 L17.6944687,11.898913 C16.7698125,12.9423913 15.1705312,13.3604348 12.896625,13.1530435 C10.581375,12.9397826 8.460375,12.296087 6.53296875,11.2226087 C4.6055625,10.1491304 3.1224375,8.95434783 2.08425,7.63826087 C1.099875,6.3926087 0.47315625,4.24891304 0.20475,1.20717391 C0.181125,1.01152174 0.16275,0.815869565 0.1509375,0.620217391 L0.1509375,2.03478261 C0.4370625,4.88152174 1.0815,6.93913043 2.08425,8.20826087 C3.12309375,9.52369565 4.6055625,10.7184783 6.53296875,11.7919565 Z" id="Shape" fill="#4D7637"></path>
                            <path d="M7.938,3.65282609 C7.9261875,3.63521739 7.92290625,3.62021739 7.9288125,3.60847826 C7.93471875,3.59086957 7.9524375,3.57847826 7.982625,3.5726087 C7.9944375,3.56673913 8.0128125,3.56934783 8.0364375,3.58173913 C8.0600625,3.5876087 8.08434375,3.59673913 8.10796875,3.60847826 C8.91975,4.49804348 8.55553125,5.29826087 7.01596875,6.00978261 C8.51353125,7.01804348 10.1338125,7.98130435 11.8761562,8.90086957 C12.5265,8.37913043 12.7922812,7.53978261 12.6728437,6.38347826 C12.6728437,6.36586957 12.6820312,6.35086957 12.69975,6.33913043 C12.7174687,6.33326087 12.7384687,6.33326087 12.7620937,6.33913043 C12.7857187,6.33326087 12.8067187,6.33586957 12.8250937,6.34826087 C12.8428125,6.35413043 12.854625,6.36913043 12.8611875,6.3926087 C12.980625,7.57826087 12.697125,8.44108696 12.0106875,8.98108696 C13.222125,9.6273913 14.5018125,10.2528261 15.8504062,10.8580435 C16.7455312,10.2176087 16.9778437,9.1173913 16.5486562,7.55804348 C16.5368437,7.54043478 16.5394687,7.52804348 16.5578437,7.52217391 C16.5755625,7.51043478 16.6024687,7.50456522 16.6385625,7.50456522 C16.6562812,7.49869565 16.6746562,7.50130435 16.692375,7.51369565 C16.7100937,7.52543478 16.7219062,7.53717391 16.7278125,7.54956522 C17.175375,9.14478261 16.933875,10.2684783 16.0026562,10.9206522 C16.6175625,11.1991304 17.2469062,11.475 17.8913437,11.7476087 C17.9149687,11.7593478 17.9333437,11.771087 17.9451562,11.7834783 C19.138875,11.4456522 19.79775,10.9030435 19.9230937,10.1556522 C19.9349062,10.0845652 19.9440937,10.0134783 19.95,9.9423913 C19.9440937,9.93065217 19.9440937,9.91891304 19.95,9.90652174 C19.95,9.89478261 19.95,9.88304348 19.95,9.87065217 C19.9440937,9.66326087 19.905375,9.44086957 19.8338437,9.20347826 C19.4282812,7.89913043 18.2588437,6.70369565 16.3255312,5.61913043 C14.3922187,4.52804348 12.1517812,3.67695652 9.6035625,3.06652174 C7.0494375,2.44956522 3.89878125,1.63434783 0.15159375,0.620217391 C0.16340625,0.815869565 0.18178125,1.01152174 0.20540625,1.20717391 C0.4738125,4.24956522 1.10053125,6.39326087 2.08490625,7.63826087 C3.12309375,8.95434783 4.60621875,10.1497826 6.533625,11.2226087 C8.46103125,12.296087 10.5820312,12.9391304 12.8972812,13.1530435 C15.1705312,13.3604348 16.7698125,12.9423913 17.695125,11.898913 C17.6892187,11.898913 17.6833125,11.898913 17.6774062,11.898913 C17.0211562,11.6263043 16.38525,11.3504348 15.771,11.0719565 C14.5595625,11.7482609 12.1550625,11.7567391 8.55684375,11.0986957 C8.52665625,11.0928261 8.5089375,11.0836957 8.50303125,11.0719565 C8.49121875,11.0602174 8.4853125,11.0452174 8.4853125,11.0276087 C8.4853125,11.0158696 8.50040625,11.0067391 8.5299375,11.0008696 C8.54175,10.995 8.56275,10.995 8.5929375,11.0008696 C12.0894375,11.6354348 14.4315937,11.6354348 15.6194062,11.0008696 C14.2767187,10.4021739 12.9996562,9.77608696 11.788875,9.12391304 C10.8760312,9.6573913 9.037875,9.72847826 6.2750625,9.33717391 C6.24553125,9.33130435 6.22453125,9.31956522 6.21271875,9.30130435 C6.20090625,9.29543478 6.195,9.28369565 6.195,9.26543478 C6.195,9.25369565 6.2041875,9.24456522 6.22190625,9.23869565 C6.24553125,9.22695652 6.2724375,9.22369565 6.302625,9.22956522 C8.98209375,9.62086957 10.7631562,9.56478261 11.6464687,9.06065217 C10.4888437,8.43782609 9.38503125,7.80326087 8.334375,7.15695652 C7.45696875,7.78565217 5.85178125,7.80065217 3.5188125,7.20130435 C3.4951875,7.19543478 3.4768125,7.18630435 3.465,7.17456522 C3.4531875,7.15695652 3.4531875,7.14521739 3.465,7.13934783 C3.465,7.12173913 3.48009375,7.1126087 3.509625,7.1126087 C3.53325,7.10086957 3.55753125,7.0976087 3.58115625,7.10347826 C5.81896875,7.67869565 7.35853125,7.66695652 8.19984375,7.06826087 C7.67484375,6.74217391 7.1675625,6.41608696 6.678,6.09 C6.0755625,5.67521739 5.49084375,5.25717391 4.92384375,4.83586957 C3.98671875,5.15021739 3.005625,5.03478261 1.97925,4.48891304 C1.96153125,4.47717391 1.95234375,4.46543478 1.95234375,4.45304348 C1.9464375,4.43543478 1.95234375,4.42043478 1.9700625,4.40869565 C1.98778125,4.40282609 2.0120625,4.40282609 2.04159375,4.40869565 C2.06521875,4.40869565 2.08621875,4.41456522 2.10459375,4.42630435 C3.047625,4.93043478 3.945375,5.04 4.7985,4.75565217 C4.034625,4.17456522 3.30684375,3.58434783 2.6145,2.98565217 C2.5725,2.96804348 2.5606875,2.94130435 2.5790625,2.90543478 C2.590875,2.88195652 2.61778125,2.86369565 2.65978125,2.85195652 C2.695875,2.83434783 2.7405,2.83108696 2.7943125,2.84282609 C2.84221875,2.84869565 2.8809375,2.86369565 2.91046875,2.88717391 C4.1278125,3.93652174 5.45540625,4.94804348 6.89325,5.92043478 C8.35275,5.24478261 8.701875,4.48891304 7.938,3.65282609 Z" id="Shape" fill="#86B65A"></path>
                            <path d="M7.92946875,3.60847826 C7.9235625,3.62021739 7.9261875,3.63521739 7.93865625,3.65282609 C8.70253125,4.48891304 8.35340625,5.24478261 6.89128125,5.92108696 C5.4534375,4.94869565 4.1251875,3.93717391 2.9085,2.88782609 C2.8783125,2.86434783 2.83959375,2.84934783 2.79234375,2.84347826 C2.73853125,2.83173913 2.69390625,2.83434783 2.6578125,2.8526087 C2.6158125,2.86434783 2.58890625,2.88195652 2.57709375,2.90608696 C2.559375,2.94195652 2.5711875,2.96804348 2.61253125,2.98630435 C3.304875,3.585 4.03265625,4.17521739 4.79653125,4.75630435 C3.94340625,5.04065217 3.045,4.93108696 2.102625,4.42695652 C2.08490625,4.41521739 2.06390625,4.40934783 2.039625,4.40934783 C2.01009375,4.40347826 1.9858125,4.40347826 1.96809375,4.40934783 C1.950375,4.42108696 1.94446875,4.43608696 1.950375,4.45369565 C1.950375,4.46543478 1.9595625,4.47717391 1.97728125,4.48956522 C3.00365625,5.03543478 3.98540625,5.15086957 4.921875,4.83652174 C5.488875,5.25782609 6.07359375,5.67521739 6.67603125,6.09065217 C7.16559375,6.41673913 7.672875,6.74282609 8.197875,7.06891304 C7.3565625,7.6676087 5.817,7.68 3.5791875,7.10413043 C3.5555625,7.09826087 3.53128125,7.10152174 3.50765625,7.11326087 C3.478125,7.11326087 3.46303125,7.1223913 3.46303125,7.14 C3.45121875,7.14586957 3.45121875,7.1576087 3.46303125,7.17521739 C3.47484375,7.18695652 3.49321875,7.19608696 3.51684375,7.20195652 C5.8498125,7.80065217 7.455,7.78630435 8.33240625,7.1576087 C9.38240625,7.80391304 10.486875,8.43847826 11.6445,9.06130435 C10.7611875,9.56543478 8.980125,9.62152174 6.30065625,9.23021739 C6.27046875,9.22434783 6.24421875,9.22695652 6.2199375,9.23934783 C6.20221875,9.24521739 6.19303125,9.25434783 6.19303125,9.26608696 C6.19303125,9.28369565 6.1989375,9.29608696 6.21075,9.30195652 C6.2225625,9.31956522 6.2435625,9.33130435 6.27309375,9.33782609 C9.03590625,9.72913043 10.8734062,9.65804348 11.7869062,9.12456522 C12.9983437,9.77673913 14.2754062,10.4021739 15.6174375,11.0015217 C14.4302812,11.636087 12.088125,11.636087 8.59096875,11.0015217 C8.56078125,10.9956522 8.5404375,10.9956522 8.52796875,11.0015217 C8.4984375,11.0073913 8.48334375,11.0165217 8.48334375,11.0282609 C8.48334375,11.0458696 8.48925,11.0608696 8.5010625,11.0726087 C8.50696875,11.0843478 8.5246875,11.0934783 8.554875,11.0993478 C12.1530937,11.7573913 14.5575937,11.748913 15.7690312,11.0726087 C16.3839375,11.351087 17.0191875,11.6269565 17.6754375,11.8995652 C17.6813437,11.8995652 17.68725,11.8995652 17.6931562,11.8995652 L17.7023437,11.8995652 C17.7384375,11.9171739 17.7830625,11.9263043 17.836875,11.9263043 C17.878875,11.9204348 17.9175937,11.9086957 17.9530312,11.8904348 C17.9648437,11.8786957 17.97075,11.8669565 17.97075,11.8545652 C17.97075,11.8369565 17.97075,11.8219565 17.97075,11.8102174 C17.9648437,11.7984783 17.9556562,11.7893478 17.9438437,11.7834783 C17.9320312,11.7717391 17.9143125,11.76 17.8900312,11.7476087 C17.2455937,11.475 16.61625,11.1991304 16.0013437,10.9206522 C16.9319062,10.2684783 17.1740625,9.14478261 16.7265,7.54956522 C16.7205937,7.53782609 16.7087812,7.52608696 16.6910625,7.51369565 C16.6733437,7.50195652 16.6549687,7.49869565 16.63725,7.50456522 C16.6018125,7.50456522 16.5749062,7.51043478 16.5565312,7.52217391 C16.5388125,7.52804348 16.5355312,7.53978261 16.5473437,7.55804348 C16.9771875,9.1173913 16.7442187,10.2176087 15.8490937,10.8580435 C14.5005,10.2534783 13.2208125,9.6273913 12.009375,8.98108696 C12.6958125,8.44108696 12.9793125,7.57826087 12.859875,6.3926087 C12.8539687,6.36913043 12.8421562,6.35413043 12.8237812,6.34826087 C12.8060625,6.33652174 12.7850625,6.33326087 12.7607812,6.33913043 C12.7371562,6.33326087 12.7161562,6.33326087 12.6984375,6.33913043 C12.6807187,6.35086957 12.6715312,6.36586957 12.6715312,6.38347826 C12.7909687,7.53978261 12.5251875,8.37913043 11.8748437,8.90086957 C10.1325,7.98195652 8.51221875,7.01804348 7.01465625,6.00978261 C8.55421875,5.29826087 8.9184375,4.4973913 8.10665625,3.60847826 C8.08303125,3.59673913 8.05875,3.5876087 8.035125,3.58173913 C8.0115,3.57 7.993125,3.56673913 7.9813125,3.5726087 C7.95309375,3.57847826 7.935375,3.59021739 7.92946875,3.60847826 Z" id="Shape" fill="#B5DA99"></path>
                        </g>
                    </g>
                </g>
            </g>
        </g>
    </g>
</svg>