<?xml version="1.0" encoding="UTF-8"?>
<svg width="225px" height="159px" viewBox="0 0 225 159" version="1.1" xmlns="http://www.w3.org/2000/svg" xmlns:xlink="http://www.w3.org/1999/xlink">
    <!-- Generator: Sketch 46.2 (44496) - http://www.bohemiancoding.com/sketch -->
    <title>Artboard</title>
    <desc>Created with Sketch.</desc>
    <defs></defs>
    <g id="Page-1" stroke="none" stroke-width="1" fill="none" fill-rule="evenodd">
        <g id="Artboard" fill-rule="nonzero">
            <g id="chili" transform="translate(62.000000, 39.000000)">
                <path d="M6.7296,5.7702 C6.5112,5.721 6.3012,5.6586 6.0996,5.5818 C5.8596,5.538 5.592,5.5218 5.2974,5.5326 C5.2482,5.5326 5.1966,5.5356 5.142,5.541 C5.0382,5.5464 4.9374,5.5548 4.839,5.5656 C4.2768,5.6148 3.7398,5.7132 3.2268,5.8602 C2.616,6.0294 1.92,5.9772 1.14,5.7048 C0.9438,5.634 0.7716,5.5302 0.6246,5.394 L0.6162,7.407 C0.7632,7.5486 0.9378,7.6578 1.14,7.7346 C1.92,8.0076 2.616,8.0592 3.2268,7.89 C3.8322,7.7154 4.4706,7.6092 5.1414,7.5708 C5.196,7.5654 5.2476,7.5624 5.2968,7.5624 C5.5914,7.5516 5.859,7.5678 6.099,7.6116 C6.3006,7.6878 6.5112,7.7508 6.729,7.8 C6.9306,7.8492 7.1328,7.8846 7.3344,7.9062 L7.3344,5.877 C7.1328,5.8548 6.9312,5.8188 6.7296,5.7702 Z" id="Shape" fill="#546F32"></path>
                <path d="M7.482,4.215 C7.4382,4.0728 7.3728,3.9474 7.2858,3.8388 C7.1274,3.6204 6.8958,3.4512 6.5904,3.3312 C5.7342,2.9874 5.1936,2.9658 4.9698,3.2658 C4.9482,3.3042 4.926,3.342 4.9044,3.3804 C4.8228,3.5388 4.7706,3.702 4.749,3.8712 C4.7382,3.9804 4.7352,4.0842 4.7406,4.182 C4.7406,4.2258 4.746,4.2666 4.7568,4.305 C4.7622,4.3488 4.7406,4.4688 4.6914,4.665 C4.6422,4.8558 4.383,5.0796 3.9138,5.3358 C3.4446,5.5812 2.9208,5.7042 2.3424,5.7042 C1.764,5.6934 1.404,5.5926 1.2624,5.4012 C1.1154,5.205 1.014,5.1228 0.9594,5.1558 C0.894,5.1774 0.8094,5.2242 0.7056,5.295 L0.624,5.3604 L0.5994,5.3688 C0.6048,5.3742 0.6132,5.3826 0.624,5.3934 C0.771,5.5296 0.9432,5.6334 1.1394,5.7042 C1.9194,5.9772 2.6154,6.0288 3.2262,5.8596 C3.7392,5.7126 4.2762,5.6142 4.8384,5.565 C4.9368,5.5542 5.0376,5.5458 5.1414,5.5404 C5.196,5.535 5.2476,5.532 5.2968,5.532 C5.5914,5.5212 5.859,5.5374 6.099,5.5812 C6.3006,5.6574 6.5112,5.7204 6.729,5.7696 C6.9306,5.8188 7.1328,5.8542 7.3344,5.8758 L7.3428,5.8758 C7.3482,5.8596 7.3536,5.8458 7.359,5.835 C7.578,5.1756 7.6188,4.635 7.482,4.215 Z" id="Shape" fill="#709342"></path>
                <path d="M26.484,7.3248 C26.4786,7.4718 26.4648,7.6218 26.4432,7.7748 C26.427,7.9056 26.4048,8.034 26.3778,8.1594 C26.1048,9.447 25.3494,10.6416 24.111,11.7438 C23.8872,11.9346 23.6502,12.1254 23.3988,12.3168 L23.3904,12.3252 C23.3574,12.3468 23.3274,12.366 23.3004,12.3828 C23.2242,12.4266 23.1342,12.4512 23.0304,12.4566 C22.9158,12.462 22.8228,12.4428 22.752,12.3996 C22.6932,12.3672 22.6632,12.3264 22.662,12.2766 L22.662,14.2812 C22.6566,14.3412 22.6866,14.3904 22.752,14.4282 C22.8228,14.472 22.9158,14.4912 23.0304,14.4858 C23.1342,14.4804 23.2242,14.4558 23.3004,14.412 C23.328,14.3958 23.358,14.3766 23.3904,14.355 L23.3988,14.3466 C25.2048,12.9882 26.2194,11.4744 26.4432,9.8046 C26.4762,9.5808 26.4924,9.36 26.4924,9.1416 C26.4924,9.0708 26.4894,9.0024 26.484,8.937 L26.484,7.3248 L26.484,7.3248 Z M23.9802,10.3608 C24.0678,10.0662 24.114,9.7608 24.1194,9.444 C24.1248,8.8878 24.0294,8.3748 23.8332,7.9056 C23.4624,7.0326 22.7448,6.2934 21.681,5.688 C20.0388,4.7496 17.9712,4.332 15.4782,4.4358 C13.683,4.5066 12.0384,4.8342 10.5438,5.418 C10.4346,5.4564 10.323,5.4996 10.2084,5.5488 C9.603,5.7672 8.9484,5.8872 8.2446,5.9088 C7.923,5.9142 7.6224,5.9034 7.3446,5.8758 L7.3362,5.8758 L7.3362,7.905 L7.3446,7.905 C7.623,7.9326 7.923,7.9434 8.2446,7.938 C8.9484,7.9164 9.603,7.7964 10.2084,7.578 C10.323,7.5288 10.4346,7.485 10.5438,7.4472 C12.0384,6.8634 13.6836,6.5364 15.4782,6.465 C17.9712,6.3612 20.0388,6.7788 21.681,7.7172 C22.7448,8.3226 23.4624,9.0618 23.8332,9.9348 C23.8926,10.0716 23.9418,10.2138 23.9802,10.3608 Z" id="Shape" fill="#9C3321"></path>
                <path d="M24.1188,9.4446 C24.1134,9.7608 24.0672,10.0662 23.9796,10.3614 C23.7888,10.9944 23.3958,11.5698 22.8012,12.0882 L22.7928,12.0882 C22.7598,12.1152 22.7274,12.1452 22.6944,12.1782 C22.6782,12.1998 22.6668,12.222 22.6614,12.2436 C22.6614,12.2544 22.6614,12.2628 22.6614,12.2682 L22.6614,12.2766 C22.6626,12.3264 22.6926,12.3672 22.7514,12.3996 C22.8222,12.4434 22.9152,12.462 23.0298,12.4566 C23.1336,12.4512 23.2236,12.4266 23.2998,12.3828 C23.3274,12.3666 23.3574,12.3474 23.3898,12.3252 L23.3982,12.3168 C23.649,12.126 23.8866,11.9352 24.1104,11.7438 C25.3488,10.6416 26.1042,9.447 26.3772,8.1594 C26.4048,8.034 26.4264,7.9056 26.4426,7.7748 C26.4642,7.6218 26.478,7.4718 26.4834,7.3248 C26.4888,7.2264 26.4918,7.131 26.4918,7.0386 C26.4588,5.238 25.3626,3.7218 23.202,2.4888 C20.7522,1.092 17.6508,0.4704 13.8972,0.6228 C11.6058,0.7158 9.4782,1.0836 7.5144,1.7274 C7.1106,1.8582 6.7122,2.0028 6.3198,2.1612 C6.2322,2.205 6.1506,2.2488 6.0744,2.292 C5.556,2.5812 5.1882,2.9058 4.9698,3.2658 C5.1936,2.9658 5.7336,2.9874 6.5904,3.3312 C6.8958,3.4512 7.128,3.6204 7.2858,3.8388 C7.3734,3.948 7.4388,4.0734 7.482,4.215 C7.6182,4.635 7.5774,5.175 7.359,5.8356 C7.3536,5.8464 7.3482,5.8602 7.3428,5.8764 C7.6212,5.9034 7.9212,5.9148 8.2428,5.9094 C8.9466,5.8878 9.6012,5.7678 10.2066,5.5494 C10.3212,5.5002 10.4328,5.4564 10.542,5.4186 C12.0366,4.8348 13.6818,4.5078 15.4764,4.4364 C17.9694,4.3326 20.037,4.7502 21.6792,5.6886 C22.743,6.294 23.4606,7.0332 23.8314,7.9062 C24.0288,8.3748 24.1248,8.8878 24.1188,9.4446 Z" id="Shape" fill="#DD4E34"></path>
            </g>
            <g id="chili-copy" transform="translate(99.000000, 24.000000)">
                <path d="M6.7296,5.7702 C6.5112,5.721 6.3012,5.6586 6.0996,5.5818 C5.8596,5.538 5.592,5.5218 5.2974,5.5326 C5.2482,5.5326 5.1966,5.5356 5.142,5.541 C5.0382,5.5464 4.9374,5.5548 4.839,5.5656 C4.2768,5.6148 3.7398,5.7132 3.2268,5.8602 C2.616,6.0294 1.92,5.9772 1.14,5.7048 C0.9438,5.634 0.7716,5.5302 0.6246,5.394 L0.6162,7.407 C0.7632,7.5486 0.9378,7.6578 1.14,7.7346 C1.92,8.0076 2.616,8.0592 3.2268,7.89 C3.8322,7.7154 4.4706,7.6092 5.1414,7.5708 C5.196,7.5654 5.2476,7.5624 5.2968,7.5624 C5.5914,7.5516 5.859,7.5678 6.099,7.6116 C6.3006,7.6878 6.5112,7.7508 6.729,7.8 C6.9306,7.8492 7.1328,7.8846 7.3344,7.9062 L7.3344,5.877 C7.1328,5.8548 6.9312,5.8188 6.7296,5.7702 Z" id="Shape" fill="#546F32"></path>
                <path d="M7.482,4.215 C7.4382,4.0728 7.3728,3.9474 7.2858,3.8388 C7.1274,3.6204 6.8958,3.4512 6.5904,3.3312 C5.7342,2.9874 5.1936,2.9658 4.9698,3.2658 C4.9482,3.3042 4.926,3.342 4.9044,3.3804 C4.8228,3.5388 4.7706,3.702 4.749,3.8712 C4.7382,3.9804 4.7352,4.0842 4.7406,4.182 C4.7406,4.2258 4.746,4.2666 4.7568,4.305 C4.7622,4.3488 4.7406,4.4688 4.6914,4.665 C4.6422,4.8558 4.383,5.0796 3.9138,5.3358 C3.4446,5.5812 2.9208,5.7042 2.3424,5.7042 C1.764,5.6934 1.404,5.5926 1.2624,5.4012 C1.1154,5.205 1.014,5.1228 0.9594,5.1558 C0.894,5.1774 0.8094,5.2242 0.7056,5.295 L0.624,5.3604 L0.5994,5.3688 C0.6048,5.3742 0.6132,5.3826 0.624,5.3934 C0.771,5.5296 0.9432,5.6334 1.1394,5.7042 C1.9194,5.9772 2.6154,6.0288 3.2262,5.8596 C3.7392,5.7126 4.2762,5.6142 4.8384,5.565 C4.9368,5.5542 5.0376,5.5458 5.1414,5.5404 C5.196,5.535 5.2476,5.532 5.2968,5.532 C5.5914,5.5212 5.859,5.5374 6.099,5.5812 C6.3006,5.6574 6.5112,5.7204 6.729,5.7696 C6.9306,5.8188 7.1328,5.8542 7.3344,5.8758 L7.3428,5.8758 C7.3482,5.8596 7.3536,5.8458 7.359,5.835 C7.578,5.1756 7.6188,4.635 7.482,4.215 Z" id="Shape" fill="#709342"></path>
                <path d="M26.484,7.3248 C26.4786,7.4718 26.4648,7.6218 26.4432,7.7748 C26.427,7.9056 26.4048,8.034 26.3778,8.1594 C26.1048,9.447 25.3494,10.6416 24.111,11.7438 C23.8872,11.9346 23.6502,12.1254 23.3988,12.3168 L23.3904,12.3252 C23.3574,12.3468 23.3274,12.366 23.3004,12.3828 C23.2242,12.4266 23.1342,12.4512 23.0304,12.4566 C22.9158,12.462 22.8228,12.4428 22.752,12.3996 C22.6932,12.3672 22.6632,12.3264 22.662,12.2766 L22.662,14.2812 C22.6566,14.3412 22.6866,14.3904 22.752,14.4282 C22.8228,14.472 22.9158,14.4912 23.0304,14.4858 C23.1342,14.4804 23.2242,14.4558 23.3004,14.412 C23.328,14.3958 23.358,14.3766 23.3904,14.355 L23.3988,14.3466 C25.2048,12.9882 26.2194,11.4744 26.4432,9.8046 C26.4762,9.5808 26.4924,9.36 26.4924,9.1416 C26.4924,9.0708 26.4894,9.0024 26.484,8.937 L26.484,7.3248 L26.484,7.3248 Z M23.9802,10.3608 C24.0678,10.0662 24.114,9.7608 24.1194,9.444 C24.1248,8.8878 24.0294,8.3748 23.8332,7.9056 C23.4624,7.0326 22.7448,6.2934 21.681,5.688 C20.0388,4.7496 17.9712,4.332 15.4782,4.4358 C13.683,4.5066 12.0384,4.8342 10.5438,5.418 C10.4346,5.4564 10.323,5.4996 10.2084,5.5488 C9.603,5.7672 8.9484,5.8872 8.2446,5.9088 C7.923,5.9142 7.6224,5.9034 7.3446,5.8758 L7.3362,5.8758 L7.3362,7.905 L7.3446,7.905 C7.623,7.9326 7.923,7.9434 8.2446,7.938 C8.9484,7.9164 9.603,7.7964 10.2084,7.578 C10.323,7.5288 10.4346,7.485 10.5438,7.4472 C12.0384,6.8634 13.6836,6.5364 15.4782,6.465 C17.9712,6.3612 20.0388,6.7788 21.681,7.7172 C22.7448,8.3226 23.4624,9.0618 23.8332,9.9348 C23.8926,10.0716 23.9418,10.2138 23.9802,10.3608 Z" id="Shape" fill="#9C3321"></path>
                <path d="M24.1188,9.4446 C24.1134,9.7608 24.0672,10.0662 23.9796,10.3614 C23.7888,10.9944 23.3958,11.5698 22.8012,12.0882 L22.7928,12.0882 C22.7598,12.1152 22.7274,12.1452 22.6944,12.1782 C22.6782,12.1998 22.6668,12.222 22.6614,12.2436 C22.6614,12.2544 22.6614,12.2628 22.6614,12.2682 L22.6614,12.2766 C22.6626,12.3264 22.6926,12.3672 22.7514,12.3996 C22.8222,12.4434 22.9152,12.462 23.0298,12.4566 C23.1336,12.4512 23.2236,12.4266 23.2998,12.3828 C23.3274,12.3666 23.3574,12.3474 23.3898,12.3252 L23.3982,12.3168 C23.649,12.126 23.8866,11.9352 24.1104,11.7438 C25.3488,10.6416 26.1042,9.447 26.3772,8.1594 C26.4048,8.034 26.4264,7.9056 26.4426,7.7748 C26.4642,7.6218 26.478,7.4718 26.4834,7.3248 C26.4888,7.2264 26.4918,7.131 26.4918,7.0386 C26.4588,5.238 25.3626,3.7218 23.202,2.4888 C20.7522,1.092 17.6508,0.4704 13.8972,0.6228 C11.6058,0.7158 9.4782,1.0836 7.5144,1.7274 C7.1106,1.8582 6.7122,2.0028 6.3198,2.1612 C6.2322,2.205 6.1506,2.2488 6.0744,2.292 C5.556,2.5812 5.1882,2.9058 4.9698,3.2658 C5.1936,2.9658 5.7336,2.9874 6.5904,3.3312 C6.8958,3.4512 7.128,3.6204 7.2858,3.8388 C7.3734,3.948 7.4388,4.0734 7.482,4.215 C7.6182,4.635 7.5774,5.175 7.359,5.8356 C7.3536,5.8464 7.3482,5.8602 7.3428,5.8764 C7.6212,5.9034 7.9212,5.9148 8.2428,5.9094 C8.9466,5.8878 9.6012,5.7678 10.2066,5.5494 C10.3212,5.5002 10.4328,5.4564 10.542,5.4186 C12.0366,4.8348 13.6818,4.5078 15.4764,4.4364 C17.9694,4.3326 20.037,4.7502 21.6792,5.6886 C22.743,6.294 23.4606,7.0332 23.8314,7.9062 C24.0288,8.3748 24.1248,8.8878 24.1188,9.4446 Z" id="Shape" fill="#DD4E34"></path>
            </g>
            <g id="chili-copy-2" transform="translate(113.000000, 79.000000)">
                <path d="M6.7296,5.7702 C6.5112,5.721 6.3012,5.6586 6.0996,5.5818 C5.8596,5.538 5.592,5.5218 5.2974,5.5326 C5.2482,5.5326 5.1966,5.5356 5.142,5.541 C5.0382,5.5464 4.9374,5.5548 4.839,5.5656 C4.2768,5.6148 3.7398,5.7132 3.2268,5.8602 C2.616,6.0294 1.92,5.9772 1.14,5.7048 C0.9438,5.634 0.7716,5.5302 0.6246,5.394 L0.6162,7.407 C0.7632,7.5486 0.9378,7.6578 1.14,7.7346 C1.92,8.0076 2.616,8.0592 3.2268,7.89 C3.8322,7.7154 4.4706,7.6092 5.1414,7.5708 C5.196,7.5654 5.2476,7.5624 5.2968,7.5624 C5.5914,7.5516 5.859,7.5678 6.099,7.6116 C6.3006,7.6878 6.5112,7.7508 6.729,7.8 C6.9306,7.8492 7.1328,7.8846 7.3344,7.9062 L7.3344,5.877 C7.1328,5.8548 6.9312,5.8188 6.7296,5.7702 Z" id="Shape" fill="#546F32"></path>
                <path d="M7.482,4.215 C7.4382,4.0728 7.3728,3.9474 7.2858,3.8388 C7.1274,3.6204 6.8958,3.4512 6.5904,3.3312 C5.7342,2.9874 5.1936,2.9658 4.9698,3.2658 C4.9482,3.3042 4.926,3.342 4.9044,3.3804 C4.8228,3.5388 4.7706,3.702 4.749,3.8712 C4.7382,3.9804 4.7352,4.0842 4.7406,4.182 C4.7406,4.2258 4.746,4.2666 4.7568,4.305 C4.7622,4.3488 4.7406,4.4688 4.6914,4.665 C4.6422,4.8558 4.383,5.0796 3.9138,5.3358 C3.4446,5.5812 2.9208,5.7042 2.3424,5.7042 C1.764,5.6934 1.404,5.5926 1.2624,5.4012 C1.1154,5.205 1.014,5.1228 0.9594,5.1558 C0.894,5.1774 0.8094,5.2242 0.7056,5.295 L0.624,5.3604 L0.5994,5.3688 C0.6048,5.3742 0.6132,5.3826 0.624,5.3934 C0.771,5.5296 0.9432,5.6334 1.1394,5.7042 C1.9194,5.9772 2.6154,6.0288 3.2262,5.8596 C3.7392,5.7126 4.2762,5.6142 4.8384,5.565 C4.9368,5.5542 5.0376,5.5458 5.1414,5.5404 C5.196,5.535 5.2476,5.532 5.2968,5.532 C5.5914,5.5212 5.859,5.5374 6.099,5.5812 C6.3006,5.6574 6.5112,5.7204 6.729,5.7696 C6.9306,5.8188 7.1328,5.8542 7.3344,5.8758 L7.3428,5.8758 C7.3482,5.8596 7.3536,5.8458 7.359,5.835 C7.578,5.1756 7.6188,4.635 7.482,4.215 Z" id="Shape" fill="#709342"></path>
                <path d="M26.484,7.3248 C26.4786,7.4718 26.4648,7.6218 26.4432,7.7748 C26.427,7.9056 26.4048,8.034 26.3778,8.1594 C26.1048,9.447 25.3494,10.6416 24.111,11.7438 C23.8872,11.9346 23.6502,12.1254 23.3988,12.3168 L23.3904,12.3252 C23.3574,12.3468 23.3274,12.366 23.3004,12.3828 C23.2242,12.4266 23.1342,12.4512 23.0304,12.4566 C22.9158,12.462 22.8228,12.4428 22.752,12.3996 C22.6932,12.3672 22.6632,12.3264 22.662,12.2766 L22.662,14.2812 C22.6566,14.3412 22.6866,14.3904 22.752,14.4282 C22.8228,14.472 22.9158,14.4912 23.0304,14.4858 C23.1342,14.4804 23.2242,14.4558 23.3004,14.412 C23.328,14.3958 23.358,14.3766 23.3904,14.355 L23.3988,14.3466 C25.2048,12.9882 26.2194,11.4744 26.4432,9.8046 C26.4762,9.5808 26.4924,9.36 26.4924,9.1416 C26.4924,9.0708 26.4894,9.0024 26.484,8.937 L26.484,7.3248 L26.484,7.3248 Z M23.9802,10.3608 C24.0678,10.0662 24.114,9.7608 24.1194,9.444 C24.1248,8.8878 24.0294,8.3748 23.8332,7.9056 C23.4624,7.0326 22.7448,6.2934 21.681,5.688 C20.0388,4.7496 17.9712,4.332 15.4782,4.4358 C13.683,4.5066 12.0384,4.8342 10.5438,5.418 C10.4346,5.4564 10.323,5.4996 10.2084,5.5488 C9.603,5.7672 8.9484,5.8872 8.2446,5.9088 C7.923,5.9142 7.6224,5.9034 7.3446,5.8758 L7.3362,5.8758 L7.3362,7.905 L7.3446,7.905 C7.623,7.9326 7.923,7.9434 8.2446,7.938 C8.9484,7.9164 9.603,7.7964 10.2084,7.578 C10.323,7.5288 10.4346,7.485 10.5438,7.4472 C12.0384,6.8634 13.6836,6.5364 15.4782,6.465 C17.9712,6.3612 20.0388,6.7788 21.681,7.7172 C22.7448,8.3226 23.4624,9.0618 23.8332,9.9348 C23.8926,10.0716 23.9418,10.2138 23.9802,10.3608 Z" id="Shape" fill="#9C3321"></path>
                <path d="M24.1188,9.4446 C24.1134,9.7608 24.0672,10.0662 23.9796,10.3614 C23.7888,10.9944 23.3958,11.5698 22.8012,12.0882 L22.7928,12.0882 C22.7598,12.1152 22.7274,12.1452 22.6944,12.1782 C22.6782,12.1998 22.6668,12.222 22.6614,12.2436 C22.6614,12.2544 22.6614,12.2628 22.6614,12.2682 L22.6614,12.2766 C22.6626,12.3264 22.6926,12.3672 22.7514,12.3996 C22.8222,12.4434 22.9152,12.462 23.0298,12.4566 C23.1336,12.4512 23.2236,12.4266 23.2998,12.3828 C23.3274,12.3666 23.3574,12.3474 23.3898,12.3252 L23.3982,12.3168 C23.649,12.126 23.8866,11.9352 24.1104,11.7438 C25.3488,10.6416 26.1042,9.447 26.3772,8.1594 C26.4048,8.034 26.4264,7.9056 26.4426,7.7748 C26.4642,7.6218 26.478,7.4718 26.4834,7.3248 C26.4888,7.2264 26.4918,7.131 26.4918,7.0386 C26.4588,5.238 25.3626,3.7218 23.202,2.4888 C20.7522,1.092 17.6508,0.4704 13.8972,0.6228 C11.6058,0.7158 9.4782,1.0836 7.5144,1.7274 C7.1106,1.8582 6.7122,2.0028 6.3198,2.1612 C6.2322,2.205 6.1506,2.2488 6.0744,2.292 C5.556,2.5812 5.1882,2.9058 4.9698,3.2658 C5.1936,2.9658 5.7336,2.9874 6.5904,3.3312 C6.8958,3.4512 7.128,3.6204 7.2858,3.8388 C7.3734,3.948 7.4388,4.0734 7.482,4.215 C7.6182,4.635 7.5774,5.175 7.359,5.8356 C7.3536,5.8464 7.3482,5.8602 7.3428,5.8764 C7.6212,5.9034 7.9212,5.9148 8.2428,5.9094 C8.9466,5.8878 9.6012,5.7678 10.2066,5.5494 C10.3212,5.5002 10.4328,5.4564 10.542,5.4186 C12.0366,4.8348 13.6818,4.5078 15.4764,4.4364 C17.9694,4.3326 20.037,4.7502 21.6792,5.6886 C22.743,6.294 23.4606,7.0332 23.8314,7.9062 C24.0288,8.3748 24.1248,8.8878 24.1188,9.4446 Z" id="Shape" fill="#DD4E34"></path>
            </g>
            <g id="chili-copy-3" transform="translate(175.000000, 47.000000)">
                <path d="M6.7296,5.7702 C6.5112,5.721 6.3012,5.6586 6.0996,5.5818 C5.8596,5.538 5.592,5.5218 5.2974,5.5326 C5.2482,5.5326 5.1966,5.5356 5.142,5.541 C5.0382,5.5464 4.9374,5.5548 4.839,5.5656 C4.2768,5.6148 3.7398,5.7132 3.2268,5.8602 C2.616,6.0294 1.92,5.9772 1.14,5.7048 C0.9438,5.634 0.7716,5.5302 0.6246,5.394 L0.6162,7.407 C0.7632,7.5486 0.9378,7.6578 1.14,7.7346 C1.92,8.0076 2.616,8.0592 3.2268,7.89 C3.8322,7.7154 4.4706,7.6092 5.1414,7.5708 C5.196,7.5654 5.2476,7.5624 5.2968,7.5624 C5.5914,7.5516 5.859,7.5678 6.099,7.6116 C6.3006,7.6878 6.5112,7.7508 6.729,7.8 C6.9306,7.8492 7.1328,7.8846 7.3344,7.9062 L7.3344,5.877 C7.1328,5.8548 6.9312,5.8188 6.7296,5.7702 Z" id="Shape" fill="#546F32"></path>
                <path d="M7.482,4.215 C7.4382,4.0728 7.3728,3.9474 7.2858,3.8388 C7.1274,3.6204 6.8958,3.4512 6.5904,3.3312 C5.7342,2.9874 5.1936,2.9658 4.9698,3.2658 C4.9482,3.3042 4.926,3.342 4.9044,3.3804 C4.8228,3.5388 4.7706,3.702 4.749,3.8712 C4.7382,3.9804 4.7352,4.0842 4.7406,4.182 C4.7406,4.2258 4.746,4.2666 4.7568,4.305 C4.7622,4.3488 4.7406,4.4688 4.6914,4.665 C4.6422,4.8558 4.383,5.0796 3.9138,5.3358 C3.4446,5.5812 2.9208,5.7042 2.3424,5.7042 C1.764,5.6934 1.404,5.5926 1.2624,5.4012 C1.1154,5.205 1.014,5.1228 0.9594,5.1558 C0.894,5.1774 0.8094,5.2242 0.7056,5.295 L0.624,5.3604 L0.5994,5.3688 C0.6048,5.3742 0.6132,5.3826 0.624,5.3934 C0.771,5.5296 0.9432,5.6334 1.1394,5.7042 C1.9194,5.9772 2.6154,6.0288 3.2262,5.8596 C3.7392,5.7126 4.2762,5.6142 4.8384,5.565 C4.9368,5.5542 5.0376,5.5458 5.1414,5.5404 C5.196,5.535 5.2476,5.532 5.2968,5.532 C5.5914,5.5212 5.859,5.5374 6.099,5.5812 C6.3006,5.6574 6.5112,5.7204 6.729,5.7696 C6.9306,5.8188 7.1328,5.8542 7.3344,5.8758 L7.3428,5.8758 C7.3482,5.8596 7.3536,5.8458 7.359,5.835 C7.578,5.1756 7.6188,4.635 7.482,4.215 Z" id="Shape" fill="#709342"></path>
                <path d="M26.484,7.3248 C26.4786,7.4718 26.4648,7.6218 26.4432,7.7748 C26.427,7.9056 26.4048,8.034 26.3778,8.1594 C26.1048,9.447 25.3494,10.6416 24.111,11.7438 C23.8872,11.9346 23.6502,12.1254 23.3988,12.3168 L23.3904,12.3252 C23.3574,12.3468 23.3274,12.366 23.3004,12.3828 C23.2242,12.4266 23.1342,12.4512 23.0304,12.4566 C22.9158,12.462 22.8228,12.4428 22.752,12.3996 C22.6932,12.3672 22.6632,12.3264 22.662,12.2766 L22.662,14.2812 C22.6566,14.3412 22.6866,14.3904 22.752,14.4282 C22.8228,14.472 22.9158,14.4912 23.0304,14.4858 C23.1342,14.4804 23.2242,14.4558 23.3004,14.412 C23.328,14.3958 23.358,14.3766 23.3904,14.355 L23.3988,14.3466 C25.2048,12.9882 26.2194,11.4744 26.4432,9.8046 C26.4762,9.5808 26.4924,9.36 26.4924,9.1416 C26.4924,9.0708 26.4894,9.0024 26.484,8.937 L26.484,7.3248 L26.484,7.3248 Z M23.9802,10.3608 C24.0678,10.0662 24.114,9.7608 24.1194,9.444 C24.1248,8.8878 24.0294,8.3748 23.8332,7.9056 C23.4624,7.0326 22.7448,6.2934 21.681,5.688 C20.0388,4.7496 17.9712,4.332 15.4782,4.4358 C13.683,4.5066 12.0384,4.8342 10.5438,5.418 C10.4346,5.4564 10.323,5.4996 10.2084,5.5488 C9.603,5.7672 8.9484,5.8872 8.2446,5.9088 C7.923,5.9142 7.6224,5.9034 7.3446,5.8758 L7.3362,5.8758 L7.3362,7.905 L7.3446,7.905 C7.623,7.9326 7.923,7.9434 8.2446,7.938 C8.9484,7.9164 9.603,7.7964 10.2084,7.578 C10.323,7.5288 10.4346,7.485 10.5438,7.4472 C12.0384,6.8634 13.6836,6.5364 15.4782,6.465 C17.9712,6.3612 20.0388,6.7788 21.681,7.7172 C22.7448,8.3226 23.4624,9.0618 23.8332,9.9348 C23.8926,10.0716 23.9418,10.2138 23.9802,10.3608 Z" id="Shape" fill="#9C3321"></path>
                <path d="M24.1188,9.4446 C24.1134,9.7608 24.0672,10.0662 23.9796,10.3614 C23.7888,10.9944 23.3958,11.5698 22.8012,12.0882 L22.7928,12.0882 C22.7598,12.1152 22.7274,12.1452 22.6944,12.1782 C22.6782,12.1998 22.6668,12.222 22.6614,12.2436 C22.6614,12.2544 22.6614,12.2628 22.6614,12.2682 L22.6614,12.2766 C22.6626,12.3264 22.6926,12.3672 22.7514,12.3996 C22.8222,12.4434 22.9152,12.462 23.0298,12.4566 C23.1336,12.4512 23.2236,12.4266 23.2998,12.3828 C23.3274,12.3666 23.3574,12.3474 23.3898,12.3252 L23.3982,12.3168 C23.649,12.126 23.8866,11.9352 24.1104,11.7438 C25.3488,10.6416 26.1042,9.447 26.3772,8.1594 C26.4048,8.034 26.4264,7.9056 26.4426,7.7748 C26.4642,7.6218 26.478,7.4718 26.4834,7.3248 C26.4888,7.2264 26.4918,7.131 26.4918,7.0386 C26.4588,5.238 25.3626,3.7218 23.202,2.4888 C20.7522,1.092 17.6508,0.4704 13.8972,0.6228 C11.6058,0.7158 9.4782,1.0836 7.5144,1.7274 C7.1106,1.8582 6.7122,2.0028 6.3198,2.1612 C6.2322,2.205 6.1506,2.2488 6.0744,2.292 C5.556,2.5812 5.1882,2.9058 4.9698,3.2658 C5.1936,2.9658 5.7336,2.9874 6.5904,3.3312 C6.8958,3.4512 7.128,3.6204 7.2858,3.8388 C7.3734,3.948 7.4388,4.0734 7.482,4.215 C7.6182,4.635 7.5774,5.175 7.359,5.8356 C7.3536,5.8464 7.3482,5.8602 7.3428,5.8764 C7.6212,5.9034 7.9212,5.9148 8.2428,5.9094 C8.9466,5.8878 9.6012,5.7678 10.2066,5.5494 C10.3212,5.5002 10.4328,5.4564 10.542,5.4186 C12.0366,4.8348 13.6818,4.5078 15.4764,4.4364 C17.9694,4.3326 20.037,4.7502 21.6792,5.6886 C22.743,6.294 23.4606,7.0332 23.8314,7.9062 C24.0288,8.3748 24.1248,8.8878 24.1188,9.4446 Z" id="Shape" fill="#DD4E34"></path>
            </g>
        </g>
    </g>
</svg>