<?xml version="1.0" encoding="UTF-8"?>
<svg width="225px" height="159px" viewBox="0 0 225 159" version="1.1" xmlns="http://www.w3.org/2000/svg" xmlns:xlink="http://www.w3.org/1999/xlink">
    <!-- Generator: Sketch 46.2 (44496) - http://www.bohemiancoding.com/sketch -->
    <title>Artboard</title>
    <desc>Created with Sketch.</desc>
    <defs></defs>
    <g id="Page-1" stroke="none" stroke-width="1" fill="none" fill-rule="evenodd">
        <g id="Artboard" fill-rule="nonzero">
            <g id="olive" transform="translate(89.000000, 75.000000)">
                <g id="Group" transform="translate(0.187500, 8.737500)">
                    <g id="people_0_Layer14_0_FILL">
                        <g>
                            <path d="M10.7715,4.308 C10.86,4.11675 10.911,3.9225 10.92525,3.72525 L10.93575,3.48975 C10.92225,2.6985 10.4205,2.0235 9.432,1.464 C8.42925,0.891 7.212,0.6045 5.78025,0.6045 C4.3485,0.6045 3.12375,0.89475 2.10825,1.47375 C1.08525,2.0535 0.57075,2.74875 0.564,3.56025 C0.564,3.57375 0.564,3.58425 0.564,3.591 L0.564,3.642 C0.57075,3.88725 0.6255,4.12275 0.7275,4.34775 C0.94575,4.839 1.389,5.27175 2.05725,5.64675 C3.06675,6.2265 4.287,6.513 5.7195,6.50625 C7.15125,6.50625 8.379,6.21675 9.402,5.637 C10.08975,5.2425 10.5465,4.79925 10.7715,4.308 L10.7715,4.308 Z M7.866,2.34375 C7.893,2.364 7.92375,2.38125 7.95825,2.39475 C8.4765,2.715 8.73225,3.1005 8.7255,3.5505 C8.7255,3.75525 8.66775,3.9525 8.5515,4.14375 C8.517,4.185 8.48325,4.22925 8.4495,4.2765 C8.2995,4.45425 8.0985,4.614 7.84575,4.75725 C7.25925,5.08425 6.5535,5.2485 5.7285,5.2485 C4.91025,5.2485 4.21125,5.085 3.6315,4.75725 C3.393,4.614 3.20175,4.467 3.0585,4.317 C3.01725,4.269 2.9835,4.22175 2.9565,4.17375 C2.82,3.9825 2.75175,3.7785 2.75175,3.56025 C2.76525,3.117 3.03825,2.73525 3.57,2.41425 C3.597,2.40075 3.62475,2.3835 3.65175,2.36325 C4.245,2.02875 4.94775,1.86225 5.75925,1.86225 C6.58425,1.85625 7.28625,2.01675 7.866,2.34375 Z" id="Shape" fill="#C5CA8A"></path>
                            <path d="M7.95825,2.3955 C7.9245,2.382 7.89375,2.36475 7.866,2.3445 C7.28625,2.0175 6.58425,1.857 5.7585,1.86375 C4.947,1.86375 4.24425,2.031 3.651,2.36475 C3.624,2.385 3.59625,2.40225 3.56925,2.41575 C3.0375,2.736 2.7645,3.1185 2.751,3.56175 C2.751,3.78 2.81925,3.98475 2.95575,4.17525 C2.98275,4.22325 3.01725,4.2705 3.05775,4.3185 C3.1875,4.16175 3.35775,4.02225 3.56925,3.89925 C3.59625,3.879 3.624,3.86175 3.651,3.84825 C4.24425,3.507 4.947,3.33675 5.7585,3.33675 C6.5835,3.33 7.28625,3.4935 7.866,3.828 C7.893,3.8415 7.92375,3.85875 7.95825,3.879 C8.15625,4.002 8.31975,4.13475 8.4495,4.278 C8.48325,4.23 8.51775,4.18575 8.5515,4.14525 C8.66775,3.954 8.7255,3.75675 8.7255,3.552 C8.73225,3.10125 8.4765,2.71575 7.95825,2.3955 L7.95825,2.3955 Z M10.9245,3.72525 C10.911,3.92325 10.86,4.1175 10.77075,4.308 C10.54575,4.79925 10.089,5.2425 9.39975,5.63775 C8.37675,6.2175 7.149,6.507 5.71725,6.507 C4.2855,6.51375 3.0645,6.22725 2.055,5.6475 C1.38675,5.2725 0.9435,4.83975 0.72525,4.3485 C0.62325,4.1235 0.5685,3.888 0.56175,3.64275 L0.56175,5.034 C0.56175,5.05425 0.56175,5.07525 0.56175,5.0955 C0.555,5.9205 1.053,6.6165 2.055,7.182 C3.0645,7.755 4.28475,8.03775 5.71725,8.031 C7.149,8.031 8.37675,7.74075 9.39975,7.16175 C10.3815,6.60225 10.893,5.934 10.93425,5.157 L10.9245,3.72525 Z" id="Shape" fill="#9BA166"></path>
                        </g>
                    </g>
                </g>
                <g id="Group" transform="translate(9.787500, 0.487500)">
                    <g id="people_0_Layer13_0_FILL">
                        <g>
                            <path d="M1.9485,6.84 C2.958,7.413 4.17825,7.69575 5.61075,7.689 C7.0425,7.689 8.27025,7.3995 9.29325,6.81975 C10.275,6.26025 10.7865,5.592 10.82775,4.815 L10.81725,3.38325 C10.80375,3.58125 10.75275,3.7755 10.6635,3.966 C10.4385,4.45725 9.98175,4.9005 9.2925,5.29575 C8.2695,5.8755 7.04175,6.165 5.61,6.165 C4.17825,6.17175 2.95725,5.88525 1.94775,5.3055 C1.2795,4.9305 0.83625,4.49775 0.618,4.0065 C0.516,3.7815 0.46125,3.546 0.4545,3.30075 L0.4545,4.692 C0.4545,4.71225 0.4545,4.73325 0.4545,4.7535 C0.4485,5.5785 0.9465,6.27375 1.9485,6.84 L1.9485,6.84 Z M7.851,2.05275 C7.81725,2.03925 7.7865,2.022 7.75875,2.00175 C7.179,1.67475 6.477,1.51425 5.65125,1.521 C4.83975,1.521 4.137,1.68825 3.54375,2.022 C3.51675,2.04225 3.489,2.0595 3.462,2.073 C2.93025,2.39325 2.65725,2.775 2.64375,3.219 C2.64375,3.43725 2.712,3.642 2.8485,3.8325 C2.8755,3.8805 2.91,3.92775 2.9505,3.97575 C3.08025,3.819 3.2505,3.67875 3.462,3.5565 C3.489,3.53625 3.51675,3.519 3.54375,3.5055 C4.137,3.16425 4.83975,2.994 5.65125,2.994 C6.47625,2.98725 7.179,3.15075 7.75875,3.48525 C7.78575,3.49875 7.8165,3.516 7.851,3.53625 C8.049,3.65925 8.2125,3.792 8.34225,3.93525 C8.376,3.88725 8.4105,3.843 8.44425,3.8025 C8.55975,3.61125 8.61825,3.414 8.61825,3.20925 C8.625,2.7585 8.36925,2.373 7.851,2.05275 Z" id="Shape" fill="#3E4055"></path>
                            <path d="M5.67225,0.2625 C4.2405,0.2625 3.01575,0.552 2.00025,1.13175 C0.97725,1.7115 0.46275,2.40675 0.45525,3.21825 C0.45525,3.23175 0.45525,3.24225 0.45525,3.249 L0.45525,3.3 C0.462,3.54525 0.51675,3.78075 0.61875,4.00575 C0.837,4.497 1.28025,4.92975 1.9485,5.30475 C2.958,5.8845 4.17825,6.171 5.61075,6.16425 C7.0425,6.16425 8.27025,5.87475 9.29325,5.295 C9.98175,4.89975 10.43925,4.4565 10.66425,3.96525 C10.75275,3.774 10.80375,3.57975 10.818,3.3825 L10.8285,3.147 C10.815,2.35575 10.31325,1.68075 9.32475,1.12125 C8.322,0.549 7.10475,0.2625 5.67225,0.2625 L5.67225,0.2625 Z M7.75875,2.00175 C7.78575,2.022 7.8165,2.03925 7.851,2.05275 C8.36925,2.373 8.625,2.7585 8.61825,3.2085 C8.61825,3.41325 8.5605,3.6105 8.44425,3.80175 C8.4105,3.843 8.376,3.88725 8.34225,3.9345 C8.19225,4.1115 7.99125,4.272 7.7385,4.41525 C7.152,4.743 6.44625,4.9065 5.62125,4.9065 C4.803,4.9065 4.104,4.743 3.52425,4.41525 C3.28575,4.272 3.0945,4.12575 2.95125,3.97575 C2.91,3.92775 2.87625,3.8805 2.84925,3.8325 C2.71275,3.64125 2.6445,3.43725 2.6445,3.219 C2.658,2.77575 2.931,2.394 3.46275,2.073 C3.48975,2.0595 3.5175,2.04225 3.5445,2.022 C4.13775,1.68825 4.8405,1.521 5.652,1.521 C6.477,1.5135 7.17975,1.674 7.75875,2.00175 Z" id="Shape" fill="#66687D"></path>
                        </g>
                    </g>
                </g>
                <g id="Group" transform="translate(15.487500, 9.487500)">
                    <g id="people_0_Layer13_19_FILL">
                        <g>
                            <path d="M9.32175,6.7395 C10.3035,6.18 10.815,5.51175 10.85625,4.73475 L10.84575,3.303 C10.83225,3.501 10.78125,3.69525 10.692,3.88575 C10.467,4.377 10.01025,4.82025 9.321,5.2155 C8.298,5.79525 7.07025,6.08475 5.6385,6.08475 C4.20675,6.0915 2.98575,5.805 1.97625,5.22525 C1.308,4.85025 0.86475,4.4175 0.6465,3.92625 C0.5445,3.70125 0.48975,3.46575 0.483,3.2205 L0.483,4.61175 C0.483,4.632 0.483,4.653 0.483,4.67325 C0.47625,5.49825 0.97425,6.19425 1.97625,6.75975 C2.98575,7.33275 4.20675,7.6155 5.6385,7.60875 C7.071,7.60875 8.29875,7.31925 9.32175,6.7395 L9.32175,6.7395 Z M7.8795,1.9725 C7.845,1.959 7.815,1.94175 7.78725,1.9215 C7.2075,1.5945 6.5055,1.434 5.67975,1.44075 C4.86825,1.44075 4.1655,1.608 3.57225,1.94175 C3.54525,1.962 3.5175,1.97925 3.4905,1.99275 C2.95875,2.313 2.68575,2.69475 2.67225,3.13875 C2.67225,3.357 2.7405,3.56175 2.877,3.75225 C2.904,3.80025 2.9385,3.8475 2.979,3.8955 C3.10875,3.73875 3.279,3.5985 3.4905,3.47625 C3.5175,3.456 3.54525,3.43875 3.57225,3.42525 C4.1655,3.084 4.86825,2.91375 5.67975,2.91375 C6.50475,2.907 7.2075,3.0705 7.78725,3.405 C7.81425,3.4185 7.845,3.43575 7.8795,3.456 C8.0775,3.579 8.241,3.71175 8.37075,3.855 C8.40525,3.807 8.439,3.76275 8.47275,3.72225 C8.589,3.531 8.64675,3.33375 8.64675,3.129 C8.6535,2.67825 8.39775,2.29275 7.8795,1.9725 Z" id="Shape" fill="#3E4055"></path>
                            <path d="M10.85625,3.06675 C10.84275,2.2755 10.341,1.6005 9.3525,1.04175 C8.34975,0.46875 7.1325,0.18225 5.70075,0.18225 C4.269,0.18225 3.045,0.47175 2.02875,1.0515 C1.00575,1.63125 0.49125,2.3265 0.4845,3.138 C0.4845,3.1515 0.4845,3.162 0.4845,3.16875 L0.4845,3.21975 C0.49125,3.465 0.546,3.7005 0.648,3.9255 C0.86625,4.41675 1.3095,4.8495 1.97775,5.2245 C2.98725,5.80425 4.20825,6.09075 5.64,6.084 C7.0725,6.084 8.2995,5.7945 9.3225,5.21475 C10.011,4.8195 10.46775,4.37625 10.6935,3.885 C10.782,3.69375 10.833,3.4995 10.84725,3.30225 L10.85625,3.06675 L10.85625,3.06675 Z M7.78725,1.9215 C7.81425,1.94175 7.845,1.959 7.8795,1.9725 C8.39775,2.29275 8.6535,2.67825 8.64675,3.12825 C8.64675,3.333 8.589,3.53025 8.47275,3.7215 C8.43825,3.76275 8.4045,3.807 8.37075,3.85425 C8.22075,4.03125 8.01975,4.19175 7.767,4.335 C7.1805,4.662 6.47475,4.82625 5.64975,4.82625 C4.8315,4.82625 4.1325,4.66275 3.55275,4.335 C3.31425,4.19175 3.123,4.0455 2.97975,3.8955 C2.9385,3.8475 2.90475,3.80025 2.87775,3.75225 C2.74125,3.561 2.673,3.357 2.673,3.13875 C2.6865,2.6955 2.9595,2.31375 3.49125,1.99275 C3.51825,1.97925 3.546,1.962 3.573,1.94175 C4.16625,1.608 4.869,1.44075 5.6805,1.44075 C6.5055,1.434 7.2075,1.59375 7.78725,1.9215 Z" id="Shape" fill="#66687D"></path>
                        </g>
                    </g>
                </g>
            </g>
            <g id="olive-copy" transform="translate(142.000000, 23.000000)">
                <g id="Group" transform="translate(0.187500, 8.737500)">
                    <g id="people_0_Layer14_0_FILL">
                        <g>
                            <path d="M10.7715,4.308 C10.86,4.11675 10.911,3.9225 10.92525,3.72525 L10.93575,3.48975 C10.92225,2.6985 10.4205,2.0235 9.432,1.464 C8.42925,0.891 7.212,0.6045 5.78025,0.6045 C4.3485,0.6045 3.12375,0.89475 2.10825,1.47375 C1.08525,2.0535 0.57075,2.74875 0.564,3.56025 C0.564,3.57375 0.564,3.58425 0.564,3.591 L0.564,3.642 C0.57075,3.88725 0.6255,4.12275 0.7275,4.34775 C0.94575,4.839 1.389,5.27175 2.05725,5.64675 C3.06675,6.2265 4.287,6.513 5.7195,6.50625 C7.15125,6.50625 8.379,6.21675 9.402,5.637 C10.08975,5.2425 10.5465,4.79925 10.7715,4.308 L10.7715,4.308 Z M7.866,2.34375 C7.893,2.364 7.92375,2.38125 7.95825,2.39475 C8.4765,2.715 8.73225,3.1005 8.7255,3.5505 C8.7255,3.75525 8.66775,3.9525 8.5515,4.14375 C8.517,4.185 8.48325,4.22925 8.4495,4.2765 C8.2995,4.45425 8.0985,4.614 7.84575,4.75725 C7.25925,5.08425 6.5535,5.2485 5.7285,5.2485 C4.91025,5.2485 4.21125,5.085 3.6315,4.75725 C3.393,4.614 3.20175,4.467 3.0585,4.317 C3.01725,4.269 2.9835,4.22175 2.9565,4.17375 C2.82,3.9825 2.75175,3.7785 2.75175,3.56025 C2.76525,3.117 3.03825,2.73525 3.57,2.41425 C3.597,2.40075 3.62475,2.3835 3.65175,2.36325 C4.245,2.02875 4.94775,1.86225 5.75925,1.86225 C6.58425,1.85625 7.28625,2.01675 7.866,2.34375 Z" id="Shape" fill="#C5CA8A"></path>
                            <path d="M7.95825,2.3955 C7.9245,2.382 7.89375,2.36475 7.866,2.3445 C7.28625,2.0175 6.58425,1.857 5.7585,1.86375 C4.947,1.86375 4.24425,2.031 3.651,2.36475 C3.624,2.385 3.59625,2.40225 3.56925,2.41575 C3.0375,2.736 2.7645,3.1185 2.751,3.56175 C2.751,3.78 2.81925,3.98475 2.95575,4.17525 C2.98275,4.22325 3.01725,4.2705 3.05775,4.3185 C3.1875,4.16175 3.35775,4.02225 3.56925,3.89925 C3.59625,3.879 3.624,3.86175 3.651,3.84825 C4.24425,3.507 4.947,3.33675 5.7585,3.33675 C6.5835,3.33 7.28625,3.4935 7.866,3.828 C7.893,3.8415 7.92375,3.85875 7.95825,3.879 C8.15625,4.002 8.31975,4.13475 8.4495,4.278 C8.48325,4.23 8.51775,4.18575 8.5515,4.14525 C8.66775,3.954 8.7255,3.75675 8.7255,3.552 C8.73225,3.10125 8.4765,2.71575 7.95825,2.3955 L7.95825,2.3955 Z M10.9245,3.72525 C10.911,3.92325 10.86,4.1175 10.77075,4.308 C10.54575,4.79925 10.089,5.2425 9.39975,5.63775 C8.37675,6.2175 7.149,6.507 5.71725,6.507 C4.2855,6.51375 3.0645,6.22725 2.055,5.6475 C1.38675,5.2725 0.9435,4.83975 0.72525,4.3485 C0.62325,4.1235 0.5685,3.888 0.56175,3.64275 L0.56175,5.034 C0.56175,5.05425 0.56175,5.07525 0.56175,5.0955 C0.555,5.9205 1.053,6.6165 2.055,7.182 C3.0645,7.755 4.28475,8.03775 5.71725,8.031 C7.149,8.031 8.37675,7.74075 9.39975,7.16175 C10.3815,6.60225 10.893,5.934 10.93425,5.157 L10.9245,3.72525 Z" id="Shape" fill="#9BA166"></path>
                        </g>
                    </g>
                </g>
                <g id="Group" transform="translate(9.787500, 0.487500)">
                    <g id="people_0_Layer13_0_FILL">
                        <g>
                            <path d="M1.9485,6.84 C2.958,7.413 4.17825,7.69575 5.61075,7.689 C7.0425,7.689 8.27025,7.3995 9.29325,6.81975 C10.275,6.26025 10.7865,5.592 10.82775,4.815 L10.81725,3.38325 C10.80375,3.58125 10.75275,3.7755 10.6635,3.966 C10.4385,4.45725 9.98175,4.9005 9.2925,5.29575 C8.2695,5.8755 7.04175,6.165 5.61,6.165 C4.17825,6.17175 2.95725,5.88525 1.94775,5.3055 C1.2795,4.9305 0.83625,4.49775 0.618,4.0065 C0.516,3.7815 0.46125,3.546 0.4545,3.30075 L0.4545,4.692 C0.4545,4.71225 0.4545,4.73325 0.4545,4.7535 C0.4485,5.5785 0.9465,6.27375 1.9485,6.84 L1.9485,6.84 Z M7.851,2.05275 C7.81725,2.03925 7.7865,2.022 7.75875,2.00175 C7.179,1.67475 6.477,1.51425 5.65125,1.521 C4.83975,1.521 4.137,1.68825 3.54375,2.022 C3.51675,2.04225 3.489,2.0595 3.462,2.073 C2.93025,2.39325 2.65725,2.775 2.64375,3.219 C2.64375,3.43725 2.712,3.642 2.8485,3.8325 C2.8755,3.8805 2.91,3.92775 2.9505,3.97575 C3.08025,3.819 3.2505,3.67875 3.462,3.5565 C3.489,3.53625 3.51675,3.519 3.54375,3.5055 C4.137,3.16425 4.83975,2.994 5.65125,2.994 C6.47625,2.98725 7.179,3.15075 7.75875,3.48525 C7.78575,3.49875 7.8165,3.516 7.851,3.53625 C8.049,3.65925 8.2125,3.792 8.34225,3.93525 C8.376,3.88725 8.4105,3.843 8.44425,3.8025 C8.55975,3.61125 8.61825,3.414 8.61825,3.20925 C8.625,2.7585 8.36925,2.373 7.851,2.05275 Z" id="Shape" fill="#3E4055"></path>
                            <path d="M5.67225,0.2625 C4.2405,0.2625 3.01575,0.552 2.00025,1.13175 C0.97725,1.7115 0.46275,2.40675 0.45525,3.21825 C0.45525,3.23175 0.45525,3.24225 0.45525,3.249 L0.45525,3.3 C0.462,3.54525 0.51675,3.78075 0.61875,4.00575 C0.837,4.497 1.28025,4.92975 1.9485,5.30475 C2.958,5.8845 4.17825,6.171 5.61075,6.16425 C7.0425,6.16425 8.27025,5.87475 9.29325,5.295 C9.98175,4.89975 10.43925,4.4565 10.66425,3.96525 C10.75275,3.774 10.80375,3.57975 10.818,3.3825 L10.8285,3.147 C10.815,2.35575 10.31325,1.68075 9.32475,1.12125 C8.322,0.549 7.10475,0.2625 5.67225,0.2625 L5.67225,0.2625 Z M7.75875,2.00175 C7.78575,2.022 7.8165,2.03925 7.851,2.05275 C8.36925,2.373 8.625,2.7585 8.61825,3.2085 C8.61825,3.41325 8.5605,3.6105 8.44425,3.80175 C8.4105,3.843 8.376,3.88725 8.34225,3.9345 C8.19225,4.1115 7.99125,4.272 7.7385,4.41525 C7.152,4.743 6.44625,4.9065 5.62125,4.9065 C4.803,4.9065 4.104,4.743 3.52425,4.41525 C3.28575,4.272 3.0945,4.12575 2.95125,3.97575 C2.91,3.92775 2.87625,3.8805 2.84925,3.8325 C2.71275,3.64125 2.6445,3.43725 2.6445,3.219 C2.658,2.77575 2.931,2.394 3.46275,2.073 C3.48975,2.0595 3.5175,2.04225 3.5445,2.022 C4.13775,1.68825 4.8405,1.521 5.652,1.521 C6.477,1.5135 7.17975,1.674 7.75875,2.00175 Z" id="Shape" fill="#66687D"></path>
                        </g>
                    </g>
                </g>
                <g id="Group" transform="translate(15.487500, 9.487500)">
                    <g id="people_0_Layer13_19_FILL">
                        <g>
                            <path d="M9.32175,6.7395 C10.3035,6.18 10.815,5.51175 10.85625,4.73475 L10.84575,3.303 C10.83225,3.501 10.78125,3.69525 10.692,3.88575 C10.467,4.377 10.01025,4.82025 9.321,5.2155 C8.298,5.79525 7.07025,6.08475 5.6385,6.08475 C4.20675,6.0915 2.98575,5.805 1.97625,5.22525 C1.308,4.85025 0.86475,4.4175 0.6465,3.92625 C0.5445,3.70125 0.48975,3.46575 0.483,3.2205 L0.483,4.61175 C0.483,4.632 0.483,4.653 0.483,4.67325 C0.47625,5.49825 0.97425,6.19425 1.97625,6.75975 C2.98575,7.33275 4.20675,7.6155 5.6385,7.60875 C7.071,7.60875 8.29875,7.31925 9.32175,6.7395 L9.32175,6.7395 Z M7.8795,1.9725 C7.845,1.959 7.815,1.94175 7.78725,1.9215 C7.2075,1.5945 6.5055,1.434 5.67975,1.44075 C4.86825,1.44075 4.1655,1.608 3.57225,1.94175 C3.54525,1.962 3.5175,1.97925 3.4905,1.99275 C2.95875,2.313 2.68575,2.69475 2.67225,3.13875 C2.67225,3.357 2.7405,3.56175 2.877,3.75225 C2.904,3.80025 2.9385,3.8475 2.979,3.8955 C3.10875,3.73875 3.279,3.5985 3.4905,3.47625 C3.5175,3.456 3.54525,3.43875 3.57225,3.42525 C4.1655,3.084 4.86825,2.91375 5.67975,2.91375 C6.50475,2.907 7.2075,3.0705 7.78725,3.405 C7.81425,3.4185 7.845,3.43575 7.8795,3.456 C8.0775,3.579 8.241,3.71175 8.37075,3.855 C8.40525,3.807 8.439,3.76275 8.47275,3.72225 C8.589,3.531 8.64675,3.33375 8.64675,3.129 C8.6535,2.67825 8.39775,2.29275 7.8795,1.9725 Z" id="Shape" fill="#3E4055"></path>
                            <path d="M10.85625,3.06675 C10.84275,2.2755 10.341,1.6005 9.3525,1.04175 C8.34975,0.46875 7.1325,0.18225 5.70075,0.18225 C4.269,0.18225 3.045,0.47175 2.02875,1.0515 C1.00575,1.63125 0.49125,2.3265 0.4845,3.138 C0.4845,3.1515 0.4845,3.162 0.4845,3.16875 L0.4845,3.21975 C0.49125,3.465 0.546,3.7005 0.648,3.9255 C0.86625,4.41675 1.3095,4.8495 1.97775,5.2245 C2.98725,5.80425 4.20825,6.09075 5.64,6.084 C7.0725,6.084 8.2995,5.7945 9.3225,5.21475 C10.011,4.8195 10.46775,4.37625 10.6935,3.885 C10.782,3.69375 10.833,3.4995 10.84725,3.30225 L10.85625,3.06675 L10.85625,3.06675 Z M7.78725,1.9215 C7.81425,1.94175 7.845,1.959 7.8795,1.9725 C8.39775,2.29275 8.6535,2.67825 8.64675,3.12825 C8.64675,3.333 8.589,3.53025 8.47275,3.7215 C8.43825,3.76275 8.4045,3.807 8.37075,3.85425 C8.22075,4.03125 8.01975,4.19175 7.767,4.335 C7.1805,4.662 6.47475,4.82625 5.64975,4.82625 C4.8315,4.82625 4.1325,4.66275 3.55275,4.335 C3.31425,4.19175 3.123,4.0455 2.97975,3.8955 C2.9385,3.8475 2.90475,3.80025 2.87775,3.75225 C2.74125,3.561 2.673,3.357 2.673,3.13875 C2.6865,2.6955 2.9595,2.31375 3.49125,1.99275 C3.51825,1.97925 3.546,1.962 3.573,1.94175 C4.16625,1.608 4.869,1.44075 5.6805,1.44075 C6.5055,1.434 7.2075,1.59375 7.78725,1.9215 Z" id="Shape" fill="#66687D"></path>
                        </g>
                    </g>
                </g>
            </g>
            <g id="olive-copy-2" transform="translate(169.000000, 53.000000)">
                <g id="Group" transform="translate(0.187500, 8.737500)">
                    <g id="people_0_Layer14_0_FILL">
                        <g>
                            <path d="M10.7715,4.308 C10.86,4.11675 10.911,3.9225 10.92525,3.72525 L10.93575,3.48975 C10.92225,2.6985 10.4205,2.0235 9.432,1.464 C8.42925,0.891 7.212,0.6045 5.78025,0.6045 C4.3485,0.6045 3.12375,0.89475 2.10825,1.47375 C1.08525,2.0535 0.57075,2.74875 0.564,3.56025 C0.564,3.57375 0.564,3.58425 0.564,3.591 L0.564,3.642 C0.57075,3.88725 0.6255,4.12275 0.7275,4.34775 C0.94575,4.839 1.389,5.27175 2.05725,5.64675 C3.06675,6.2265 4.287,6.513 5.7195,6.50625 C7.15125,6.50625 8.379,6.21675 9.402,5.637 C10.08975,5.2425 10.5465,4.79925 10.7715,4.308 L10.7715,4.308 Z M7.866,2.34375 C7.893,2.364 7.92375,2.38125 7.95825,2.39475 C8.4765,2.715 8.73225,3.1005 8.7255,3.5505 C8.7255,3.75525 8.66775,3.9525 8.5515,4.14375 C8.517,4.185 8.48325,4.22925 8.4495,4.2765 C8.2995,4.45425 8.0985,4.614 7.84575,4.75725 C7.25925,5.08425 6.5535,5.2485 5.7285,5.2485 C4.91025,5.2485 4.21125,5.085 3.6315,4.75725 C3.393,4.614 3.20175,4.467 3.0585,4.317 C3.01725,4.269 2.9835,4.22175 2.9565,4.17375 C2.82,3.9825 2.75175,3.7785 2.75175,3.56025 C2.76525,3.117 3.03825,2.73525 3.57,2.41425 C3.597,2.40075 3.62475,2.3835 3.65175,2.36325 C4.245,2.02875 4.94775,1.86225 5.75925,1.86225 C6.58425,1.85625 7.28625,2.01675 7.866,2.34375 Z" id="Shape" fill="#C5CA8A"></path>
                            <path d="M7.95825,2.3955 C7.9245,2.382 7.89375,2.36475 7.866,2.3445 C7.28625,2.0175 6.58425,1.857 5.7585,1.86375 C4.947,1.86375 4.24425,2.031 3.651,2.36475 C3.624,2.385 3.59625,2.40225 3.56925,2.41575 C3.0375,2.736 2.7645,3.1185 2.751,3.56175 C2.751,3.78 2.81925,3.98475 2.95575,4.17525 C2.98275,4.22325 3.01725,4.2705 3.05775,4.3185 C3.1875,4.16175 3.35775,4.02225 3.56925,3.89925 C3.59625,3.879 3.624,3.86175 3.651,3.84825 C4.24425,3.507 4.947,3.33675 5.7585,3.33675 C6.5835,3.33 7.28625,3.4935 7.866,3.828 C7.893,3.8415 7.92375,3.85875 7.95825,3.879 C8.15625,4.002 8.31975,4.13475 8.4495,4.278 C8.48325,4.23 8.51775,4.18575 8.5515,4.14525 C8.66775,3.954 8.7255,3.75675 8.7255,3.552 C8.73225,3.10125 8.4765,2.71575 7.95825,2.3955 L7.95825,2.3955 Z M10.9245,3.72525 C10.911,3.92325 10.86,4.1175 10.77075,4.308 C10.54575,4.79925 10.089,5.2425 9.39975,5.63775 C8.37675,6.2175 7.149,6.507 5.71725,6.507 C4.2855,6.51375 3.0645,6.22725 2.055,5.6475 C1.38675,5.2725 0.9435,4.83975 0.72525,4.3485 C0.62325,4.1235 0.5685,3.888 0.56175,3.64275 L0.56175,5.034 C0.56175,5.05425 0.56175,5.07525 0.56175,5.0955 C0.555,5.9205 1.053,6.6165 2.055,7.182 C3.0645,7.755 4.28475,8.03775 5.71725,8.031 C7.149,8.031 8.37675,7.74075 9.39975,7.16175 C10.3815,6.60225 10.893,5.934 10.93425,5.157 L10.9245,3.72525 Z" id="Shape" fill="#9BA166"></path>
                        </g>
                    </g>
                </g>
                <g id="Group" transform="translate(9.787500, 0.487500)">
                    <g id="people_0_Layer13_0_FILL">
                        <g>
                            <path d="M1.9485,6.84 C2.958,7.413 4.17825,7.69575 5.61075,7.689 C7.0425,7.689 8.27025,7.3995 9.29325,6.81975 C10.275,6.26025 10.7865,5.592 10.82775,4.815 L10.81725,3.38325 C10.80375,3.58125 10.75275,3.7755 10.6635,3.966 C10.4385,4.45725 9.98175,4.9005 9.2925,5.29575 C8.2695,5.8755 7.04175,6.165 5.61,6.165 C4.17825,6.17175 2.95725,5.88525 1.94775,5.3055 C1.2795,4.9305 0.83625,4.49775 0.618,4.0065 C0.516,3.7815 0.46125,3.546 0.4545,3.30075 L0.4545,4.692 C0.4545,4.71225 0.4545,4.73325 0.4545,4.7535 C0.4485,5.5785 0.9465,6.27375 1.9485,6.84 L1.9485,6.84 Z M7.851,2.05275 C7.81725,2.03925 7.7865,2.022 7.75875,2.00175 C7.179,1.67475 6.477,1.51425 5.65125,1.521 C4.83975,1.521 4.137,1.68825 3.54375,2.022 C3.51675,2.04225 3.489,2.0595 3.462,2.073 C2.93025,2.39325 2.65725,2.775 2.64375,3.219 C2.64375,3.43725 2.712,3.642 2.8485,3.8325 C2.8755,3.8805 2.91,3.92775 2.9505,3.97575 C3.08025,3.819 3.2505,3.67875 3.462,3.5565 C3.489,3.53625 3.51675,3.519 3.54375,3.5055 C4.137,3.16425 4.83975,2.994 5.65125,2.994 C6.47625,2.98725 7.179,3.15075 7.75875,3.48525 C7.78575,3.49875 7.8165,3.516 7.851,3.53625 C8.049,3.65925 8.2125,3.792 8.34225,3.93525 C8.376,3.88725 8.4105,3.843 8.44425,3.8025 C8.55975,3.61125 8.61825,3.414 8.61825,3.20925 C8.625,2.7585 8.36925,2.373 7.851,2.05275 Z" id="Shape" fill="#3E4055"></path>
                            <path d="M5.67225,0.2625 C4.2405,0.2625 3.01575,0.552 2.00025,1.13175 C0.97725,1.7115 0.46275,2.40675 0.45525,3.21825 C0.45525,3.23175 0.45525,3.24225 0.45525,3.249 L0.45525,3.3 C0.462,3.54525 0.51675,3.78075 0.61875,4.00575 C0.837,4.497 1.28025,4.92975 1.9485,5.30475 C2.958,5.8845 4.17825,6.171 5.61075,6.16425 C7.0425,6.16425 8.27025,5.87475 9.29325,5.295 C9.98175,4.89975 10.43925,4.4565 10.66425,3.96525 C10.75275,3.774 10.80375,3.57975 10.818,3.3825 L10.8285,3.147 C10.815,2.35575 10.31325,1.68075 9.32475,1.12125 C8.322,0.549 7.10475,0.2625 5.67225,0.2625 L5.67225,0.2625 Z M7.75875,2.00175 C7.78575,2.022 7.8165,2.03925 7.851,2.05275 C8.36925,2.373 8.625,2.7585 8.61825,3.2085 C8.61825,3.41325 8.5605,3.6105 8.44425,3.80175 C8.4105,3.843 8.376,3.88725 8.34225,3.9345 C8.19225,4.1115 7.99125,4.272 7.7385,4.41525 C7.152,4.743 6.44625,4.9065 5.62125,4.9065 C4.803,4.9065 4.104,4.743 3.52425,4.41525 C3.28575,4.272 3.0945,4.12575 2.95125,3.97575 C2.91,3.92775 2.87625,3.8805 2.84925,3.8325 C2.71275,3.64125 2.6445,3.43725 2.6445,3.219 C2.658,2.77575 2.931,2.394 3.46275,2.073 C3.48975,2.0595 3.5175,2.04225 3.5445,2.022 C4.13775,1.68825 4.8405,1.521 5.652,1.521 C6.477,1.5135 7.17975,1.674 7.75875,2.00175 Z" id="Shape" fill="#66687D"></path>
                        </g>
                    </g>
                </g>
                <g id="Group" transform="translate(15.487500, 9.487500)">
                    <g id="people_0_Layer13_19_FILL">
                        <g>
                            <path d="M9.32175,6.7395 C10.3035,6.18 10.815,5.51175 10.85625,4.73475 L10.84575,3.303 C10.83225,3.501 10.78125,3.69525 10.692,3.88575 C10.467,4.377 10.01025,4.82025 9.321,5.2155 C8.298,5.79525 7.07025,6.08475 5.6385,6.08475 C4.20675,6.0915 2.98575,5.805 1.97625,5.22525 C1.308,4.85025 0.86475,4.4175 0.6465,3.92625 C0.5445,3.70125 0.48975,3.46575 0.483,3.2205 L0.483,4.61175 C0.483,4.632 0.483,4.653 0.483,4.67325 C0.47625,5.49825 0.97425,6.19425 1.97625,6.75975 C2.98575,7.33275 4.20675,7.6155 5.6385,7.60875 C7.071,7.60875 8.29875,7.31925 9.32175,6.7395 L9.32175,6.7395 Z M7.8795,1.9725 C7.845,1.959 7.815,1.94175 7.78725,1.9215 C7.2075,1.5945 6.5055,1.434 5.67975,1.44075 C4.86825,1.44075 4.1655,1.608 3.57225,1.94175 C3.54525,1.962 3.5175,1.97925 3.4905,1.99275 C2.95875,2.313 2.68575,2.69475 2.67225,3.13875 C2.67225,3.357 2.7405,3.56175 2.877,3.75225 C2.904,3.80025 2.9385,3.8475 2.979,3.8955 C3.10875,3.73875 3.279,3.5985 3.4905,3.47625 C3.5175,3.456 3.54525,3.43875 3.57225,3.42525 C4.1655,3.084 4.86825,2.91375 5.67975,2.91375 C6.50475,2.907 7.2075,3.0705 7.78725,3.405 C7.81425,3.4185 7.845,3.43575 7.8795,3.456 C8.0775,3.579 8.241,3.71175 8.37075,3.855 C8.40525,3.807 8.439,3.76275 8.47275,3.72225 C8.589,3.531 8.64675,3.33375 8.64675,3.129 C8.6535,2.67825 8.39775,2.29275 7.8795,1.9725 Z" id="Shape" fill="#3E4055"></path>
                            <path d="M10.85625,3.06675 C10.84275,2.2755 10.341,1.6005 9.3525,1.04175 C8.34975,0.46875 7.1325,0.18225 5.70075,0.18225 C4.269,0.18225 3.045,0.47175 2.02875,1.0515 C1.00575,1.63125 0.49125,2.3265 0.4845,3.138 C0.4845,3.1515 0.4845,3.162 0.4845,3.16875 L0.4845,3.21975 C0.49125,3.465 0.546,3.7005 0.648,3.9255 C0.86625,4.41675 1.3095,4.8495 1.97775,5.2245 C2.98725,5.80425 4.20825,6.09075 5.64,6.084 C7.0725,6.084 8.2995,5.7945 9.3225,5.21475 C10.011,4.8195 10.46775,4.37625 10.6935,3.885 C10.782,3.69375 10.833,3.4995 10.84725,3.30225 L10.85625,3.06675 L10.85625,3.06675 Z M7.78725,1.9215 C7.81425,1.94175 7.845,1.959 7.8795,1.9725 C8.39775,2.29275 8.6535,2.67825 8.64675,3.12825 C8.64675,3.333 8.589,3.53025 8.47275,3.7215 C8.43825,3.76275 8.4045,3.807 8.37075,3.85425 C8.22075,4.03125 8.01975,4.19175 7.767,4.335 C7.1805,4.662 6.47475,4.82625 5.64975,4.82625 C4.8315,4.82625 4.1325,4.66275 3.55275,4.335 C3.31425,4.19175 3.123,4.0455 2.97975,3.8955 C2.9385,3.8475 2.90475,3.80025 2.87775,3.75225 C2.74125,3.561 2.673,3.357 2.673,3.13875 C2.6865,2.6955 2.9595,2.31375 3.49125,1.99275 C3.51825,1.97925 3.546,1.962 3.573,1.94175 C4.16625,1.608 4.869,1.44075 5.6805,1.44075 C6.5055,1.434 7.2075,1.59375 7.78725,1.9215 Z" id="Shape" fill="#66687D"></path>
                        </g>
                    </g>
                </g>
            </g>
            <g id="olive-copy-3" transform="translate(81.000000, 49.000000)">
                <g id="Group" transform="translate(0.187500, 8.737500)">
                    <g id="people_0_Layer14_0_FILL">
                        <g>
                            <path d="M10.7715,4.308 C10.86,4.11675 10.911,3.9225 10.92525,3.72525 L10.93575,3.48975 C10.92225,2.6985 10.4205,2.0235 9.432,1.464 C8.42925,0.891 7.212,0.6045 5.78025,0.6045 C4.3485,0.6045 3.12375,0.89475 2.10825,1.47375 C1.08525,2.0535 0.57075,2.74875 0.564,3.56025 C0.564,3.57375 0.564,3.58425 0.564,3.591 L0.564,3.642 C0.57075,3.88725 0.6255,4.12275 0.7275,4.34775 C0.94575,4.839 1.389,5.27175 2.05725,5.64675 C3.06675,6.2265 4.287,6.513 5.7195,6.50625 C7.15125,6.50625 8.379,6.21675 9.402,5.637 C10.08975,5.2425 10.5465,4.79925 10.7715,4.308 L10.7715,4.308 Z M7.866,2.34375 C7.893,2.364 7.92375,2.38125 7.95825,2.39475 C8.4765,2.715 8.73225,3.1005 8.7255,3.5505 C8.7255,3.75525 8.66775,3.9525 8.5515,4.14375 C8.517,4.185 8.48325,4.22925 8.4495,4.2765 C8.2995,4.45425 8.0985,4.614 7.84575,4.75725 C7.25925,5.08425 6.5535,5.2485 5.7285,5.2485 C4.91025,5.2485 4.21125,5.085 3.6315,4.75725 C3.393,4.614 3.20175,4.467 3.0585,4.317 C3.01725,4.269 2.9835,4.22175 2.9565,4.17375 C2.82,3.9825 2.75175,3.7785 2.75175,3.56025 C2.76525,3.117 3.03825,2.73525 3.57,2.41425 C3.597,2.40075 3.62475,2.3835 3.65175,2.36325 C4.245,2.02875 4.94775,1.86225 5.75925,1.86225 C6.58425,1.85625 7.28625,2.01675 7.866,2.34375 Z" id="Shape" fill="#C5CA8A"></path>
                            <path d="M7.95825,2.3955 C7.9245,2.382 7.89375,2.36475 7.866,2.3445 C7.28625,2.0175 6.58425,1.857 5.7585,1.86375 C4.947,1.86375 4.24425,2.031 3.651,2.36475 C3.624,2.385 3.59625,2.40225 3.56925,2.41575 C3.0375,2.736 2.7645,3.1185 2.751,3.56175 C2.751,3.78 2.81925,3.98475 2.95575,4.17525 C2.98275,4.22325 3.01725,4.2705 3.05775,4.3185 C3.1875,4.16175 3.35775,4.02225 3.56925,3.89925 C3.59625,3.879 3.624,3.86175 3.651,3.84825 C4.24425,3.507 4.947,3.33675 5.7585,3.33675 C6.5835,3.33 7.28625,3.4935 7.866,3.828 C7.893,3.8415 7.92375,3.85875 7.95825,3.879 C8.15625,4.002 8.31975,4.13475 8.4495,4.278 C8.48325,4.23 8.51775,4.18575 8.5515,4.14525 C8.66775,3.954 8.7255,3.75675 8.7255,3.552 C8.73225,3.10125 8.4765,2.71575 7.95825,2.3955 L7.95825,2.3955 Z M10.9245,3.72525 C10.911,3.92325 10.86,4.1175 10.77075,4.308 C10.54575,4.79925 10.089,5.2425 9.39975,5.63775 C8.37675,6.2175 7.149,6.507 5.71725,6.507 C4.2855,6.51375 3.0645,6.22725 2.055,5.6475 C1.38675,5.2725 0.9435,4.83975 0.72525,4.3485 C0.62325,4.1235 0.5685,3.888 0.56175,3.64275 L0.56175,5.034 C0.56175,5.05425 0.56175,5.07525 0.56175,5.0955 C0.555,5.9205 1.053,6.6165 2.055,7.182 C3.0645,7.755 4.28475,8.03775 5.71725,8.031 C7.149,8.031 8.37675,7.74075 9.39975,7.16175 C10.3815,6.60225 10.893,5.934 10.93425,5.157 L10.9245,3.72525 Z" id="Shape" fill="#9BA166"></path>
                        </g>
                    </g>
                </g>
                <g id="Group" transform="translate(9.787500, 0.487500)">
                    <g id="people_0_Layer13_0_FILL">
                        <g>
                            <path d="M1.9485,6.84 C2.958,7.413 4.17825,7.69575 5.61075,7.689 C7.0425,7.689 8.27025,7.3995 9.29325,6.81975 C10.275,6.26025 10.7865,5.592 10.82775,4.815 L10.81725,3.38325 C10.80375,3.58125 10.75275,3.7755 10.6635,3.966 C10.4385,4.45725 9.98175,4.9005 9.2925,5.29575 C8.2695,5.8755 7.04175,6.165 5.61,6.165 C4.17825,6.17175 2.95725,5.88525 1.94775,5.3055 C1.2795,4.9305 0.83625,4.49775 0.618,4.0065 C0.516,3.7815 0.46125,3.546 0.4545,3.30075 L0.4545,4.692 C0.4545,4.71225 0.4545,4.73325 0.4545,4.7535 C0.4485,5.5785 0.9465,6.27375 1.9485,6.84 L1.9485,6.84 Z M7.851,2.05275 C7.81725,2.03925 7.7865,2.022 7.75875,2.00175 C7.179,1.67475 6.477,1.51425 5.65125,1.521 C4.83975,1.521 4.137,1.68825 3.54375,2.022 C3.51675,2.04225 3.489,2.0595 3.462,2.073 C2.93025,2.39325 2.65725,2.775 2.64375,3.219 C2.64375,3.43725 2.712,3.642 2.8485,3.8325 C2.8755,3.8805 2.91,3.92775 2.9505,3.97575 C3.08025,3.819 3.2505,3.67875 3.462,3.5565 C3.489,3.53625 3.51675,3.519 3.54375,3.5055 C4.137,3.16425 4.83975,2.994 5.65125,2.994 C6.47625,2.98725 7.179,3.15075 7.75875,3.48525 C7.78575,3.49875 7.8165,3.516 7.851,3.53625 C8.049,3.65925 8.2125,3.792 8.34225,3.93525 C8.376,3.88725 8.4105,3.843 8.44425,3.8025 C8.55975,3.61125 8.61825,3.414 8.61825,3.20925 C8.625,2.7585 8.36925,2.373 7.851,2.05275 Z" id="Shape" fill="#3E4055"></path>
                            <path d="M5.67225,0.2625 C4.2405,0.2625 3.01575,0.552 2.00025,1.13175 C0.97725,1.7115 0.46275,2.40675 0.45525,3.21825 C0.45525,3.23175 0.45525,3.24225 0.45525,3.249 L0.45525,3.3 C0.462,3.54525 0.51675,3.78075 0.61875,4.00575 C0.837,4.497 1.28025,4.92975 1.9485,5.30475 C2.958,5.8845 4.17825,6.171 5.61075,6.16425 C7.0425,6.16425 8.27025,5.87475 9.29325,5.295 C9.98175,4.89975 10.43925,4.4565 10.66425,3.96525 C10.75275,3.774 10.80375,3.57975 10.818,3.3825 L10.8285,3.147 C10.815,2.35575 10.31325,1.68075 9.32475,1.12125 C8.322,0.549 7.10475,0.2625 5.67225,0.2625 L5.67225,0.2625 Z M7.75875,2.00175 C7.78575,2.022 7.8165,2.03925 7.851,2.05275 C8.36925,2.373 8.625,2.7585 8.61825,3.2085 C8.61825,3.41325 8.5605,3.6105 8.44425,3.80175 C8.4105,3.843 8.376,3.88725 8.34225,3.9345 C8.19225,4.1115 7.99125,4.272 7.7385,4.41525 C7.152,4.743 6.44625,4.9065 5.62125,4.9065 C4.803,4.9065 4.104,4.743 3.52425,4.41525 C3.28575,4.272 3.0945,4.12575 2.95125,3.97575 C2.91,3.92775 2.87625,3.8805 2.84925,3.8325 C2.71275,3.64125 2.6445,3.43725 2.6445,3.219 C2.658,2.77575 2.931,2.394 3.46275,2.073 C3.48975,2.0595 3.5175,2.04225 3.5445,2.022 C4.13775,1.68825 4.8405,1.521 5.652,1.521 C6.477,1.5135 7.17975,1.674 7.75875,2.00175 Z" id="Shape" fill="#66687D"></path>
                        </g>
                    </g>
                </g>
                <g id="Group" transform="translate(15.487500, 9.487500)">
                    <g id="people_0_Layer13_19_FILL">
                        <g>
                            <path d="M9.32175,6.7395 C10.3035,6.18 10.815,5.51175 10.85625,4.73475 L10.84575,3.303 C10.83225,3.501 10.78125,3.69525 10.692,3.88575 C10.467,4.377 10.01025,4.82025 9.321,5.2155 C8.298,5.79525 7.07025,6.08475 5.6385,6.08475 C4.20675,6.0915 2.98575,5.805 1.97625,5.22525 C1.308,4.85025 0.86475,4.4175 0.6465,3.92625 C0.5445,3.70125 0.48975,3.46575 0.483,3.2205 L0.483,4.61175 C0.483,4.632 0.483,4.653 0.483,4.67325 C0.47625,5.49825 0.97425,6.19425 1.97625,6.75975 C2.98575,7.33275 4.20675,7.6155 5.6385,7.60875 C7.071,7.60875 8.29875,7.31925 9.32175,6.7395 L9.32175,6.7395 Z M7.8795,1.9725 C7.845,1.959 7.815,1.94175 7.78725,1.9215 C7.2075,1.5945 6.5055,1.434 5.67975,1.44075 C4.86825,1.44075 4.1655,1.608 3.57225,1.94175 C3.54525,1.962 3.5175,1.97925 3.4905,1.99275 C2.95875,2.313 2.68575,2.69475 2.67225,3.13875 C2.67225,3.357 2.7405,3.56175 2.877,3.75225 C2.904,3.80025 2.9385,3.8475 2.979,3.8955 C3.10875,3.73875 3.279,3.5985 3.4905,3.47625 C3.5175,3.456 3.54525,3.43875 3.57225,3.42525 C4.1655,3.084 4.86825,2.91375 5.67975,2.91375 C6.50475,2.907 7.2075,3.0705 7.78725,3.405 C7.81425,3.4185 7.845,3.43575 7.8795,3.456 C8.0775,3.579 8.241,3.71175 8.37075,3.855 C8.40525,3.807 8.439,3.76275 8.47275,3.72225 C8.589,3.531 8.64675,3.33375 8.64675,3.129 C8.6535,2.67825 8.39775,2.29275 7.8795,1.9725 Z" id="Shape" fill="#3E4055"></path>
                            <path d="M10.85625,3.06675 C10.84275,2.2755 10.341,1.6005 9.3525,1.04175 C8.34975,0.46875 7.1325,0.18225 5.70075,0.18225 C4.269,0.18225 3.045,0.47175 2.02875,1.0515 C1.00575,1.63125 0.49125,2.3265 0.4845,3.138 C0.4845,3.1515 0.4845,3.162 0.4845,3.16875 L0.4845,3.21975 C0.49125,3.465 0.546,3.7005 0.648,3.9255 C0.86625,4.41675 1.3095,4.8495 1.97775,5.2245 C2.98725,5.80425 4.20825,6.09075 5.64,6.084 C7.0725,6.084 8.2995,5.7945 9.3225,5.21475 C10.011,4.8195 10.46775,4.37625 10.6935,3.885 C10.782,3.69375 10.833,3.4995 10.84725,3.30225 L10.85625,3.06675 L10.85625,3.06675 Z M7.78725,1.9215 C7.81425,1.94175 7.845,1.959 7.8795,1.9725 C8.39775,2.29275 8.6535,2.67825 8.64675,3.12825 C8.64675,3.333 8.589,3.53025 8.47275,3.7215 C8.43825,3.76275 8.4045,3.807 8.37075,3.85425 C8.22075,4.03125 8.01975,4.19175 7.767,4.335 C7.1805,4.662 6.47475,4.82625 5.64975,4.82625 C4.8315,4.82625 4.1325,4.66275 3.55275,4.335 C3.31425,4.19175 3.123,4.0455 2.97975,3.8955 C2.9385,3.8475 2.90475,3.80025 2.87775,3.75225 C2.74125,3.561 2.673,3.357 2.673,3.13875 C2.6865,2.6955 2.9595,2.31375 3.49125,1.99275 C3.51825,1.97925 3.546,1.962 3.573,1.94175 C4.16625,1.608 4.869,1.44075 5.6805,1.44075 C6.5055,1.434 7.2075,1.59375 7.78725,1.9215 Z" id="Shape" fill="#66687D"></path>
                        </g>
                    </g>
                </g>
            </g>
        </g>
    </g>
</svg>