<?xml version="1.0" encoding="UTF-8"?>
<svg width="225px" height="159px" viewBox="0 0 225 159" version="1.1" xmlns="http://www.w3.org/2000/svg" xmlns:xlink="http://www.w3.org/1999/xlink">
    <!-- Generator: Sketch 46.2 (44496) - http://www.bohemiancoding.com/sketch -->
    <title>Artboard</title>
    <desc>Created with Sketch.</desc>
    <defs></defs>
    <g id="Page-1" stroke="none" stroke-width="1" fill="none" fill-rule="evenodd">
        <g id="Artboard" fill-rule="nonzero">
            <g id="prawn" transform="translate(136.000000, 49.000000)">
                <g id="Group" transform="translate(12.604167, 8.464583) scale(-1, 1) translate(-12.604167, -8.464583) translate(0.451389, 0.318750)">
                    <g id="people_0_Layer10_0_FILL">
                        <g>
                            <path d="M12.0319444,10.1497083 C12.0069444,10.27225 11.9375,10.4075417 11.8236111,10.5555833 C11.7222222,10.690875 11.5583333,10.8552083 11.33125,11.0485833 C11.1541667,11.19025 10.9590278,11.3354583 10.74375,11.4835 C10.6236111,11.5607083 10.5006944,11.6379167 10.3743056,11.715125 C9.04236111,12.4942917 7.50138889,12.9256667 5.75208333,13.0099583 C4.89652778,13.0467917 4.11527778,12.9957917 3.40902778,12.8569583 C3.34097222,12.8435 3.27222222,12.824375 3.20625,12.801 C2.53263889,12.563 1.97916667,12.2754167 1.54652778,11.9375417 C1.54652778,11.9311667 1.54305556,11.9247917 1.53680556,11.9184167 C1.50555556,11.8929167 1.47083333,11.8667083 1.43263889,11.8412083 C1.11041667,11.570625 0.867361111,11.2681667 0.703472222,10.933125 C0.602083333,10.727 0.526388889,10.5109583 0.476388889,10.2857083 C0.470138889,10.227625 0.457638889,10.1667083 0.438194444,10.10225 C0.413194444,9.94145833 0.397222222,9.7835 0.390972222,9.62908333 L0.390972222,12.614 C0.390972222,12.6657083 0.390972222,12.72025 0.390972222,12.7783333 C0.390972222,12.9717083 0.406944444,13.1615417 0.438194444,13.3485417 C0.456944444,13.413 0.470138889,13.4739167 0.476388889,13.532 C0.609027778,14.137625 0.927777778,14.656125 1.43333333,15.0875 C1.47152778,15.113 1.50277778,15.1392083 1.52777778,15.1647083 C1.54027778,15.1710833 1.54652778,15.181 1.54652778,15.19375 C1.98125,15.5323333 2.53680556,15.8177917 3.21319444,16.0508333 C3.27430556,16.0720833 3.33819444,16.0897917 3.40138889,16.1025417 C4.10972222,16.2484583 4.89305556,16.2994583 5.75208333,16.25625 C7.50138889,16.1726667 9.04166667,15.7412917 10.3743056,14.9614167 C10.7277778,14.7489167 11.0472222,14.5265 11.33125,14.294875 C11.5583333,14.1015 11.7229167,13.9407083 11.8236111,13.8117917 C11.9375,13.66375 12.0069444,13.5249167 12.0319444,13.3967083 L12.0319444,10.1497083 Z" id="Shape" fill="#E8B282"></path>
                            <path d="M11.4159722,9.135375 C11.3652778,9.07729167 11.3145833,9.01920833 11.2645833,8.961125 L11.2548611,8.95120833 C11.2361111,8.93208333 11.2236111,8.91225 11.2173611,8.893125 C10.9395833,8.78970833 10.6458333,8.70329167 10.3368056,8.63245833 C9.61666667,8.47166667 8.80555556,8.41358333 7.90277778,8.45820833 C6.30555556,8.52904167 4.89375,8.91225 3.66875,9.60783333 C3.6375,9.62695833 3.60277778,9.64608333 3.56458333,9.66591667 C3.00902778,9.99458333 2.56666667,10.3452083 2.23888889,10.7192083 C2.22847222,10.7305417 2.21875,10.741875 2.20833333,10.7525 C2.45902778,10.6221667 1.44236111,11.1619167 1.5375,11.917 C1.58819444,12.3221667 2.68263889,12.4765833 2.60486111,12.55875 C2.79375,12.64375 2.99444444,12.7237917 3.20694444,12.798875 C3.27291667,12.82225 3.34166667,12.841375 3.40972222,12.8548333 C4.11597222,12.9936667 4.89652778,13.0446667 5.75277778,13.0078333 C7.50208333,12.92425 9.04236111,12.492875 10.375,11.713 C10.5013889,11.6357917 10.6243056,11.5585833 10.7444444,11.481375 C10.9590278,11.3333333 11.1548611,11.188125 11.3319444,11.0464583 C11.5590278,10.8530833 11.7236111,10.68875 11.8243056,10.5534583 C11.9381944,10.4054167 12.0076389,10.270125 12.0326389,10.1475833 C12.0388889,10.10225 12.0423611,10.057625 12.0423611,10.0122917 C12.0423611,9.99316667 12.0423611,9.97333333 12.0423611,9.95420833 C12.0236111,9.877 11.9541667,9.76083333 11.8340278,9.60641667 C11.7833333,9.54833333 11.6729167,9.42579167 11.5027778,9.2395 C11.4694444,9.20904167 11.4416667,9.173625 11.4159722,9.135375 L11.4159722,9.135375 Z M10.7909722,6.77804167 C10.6270833,6.636375 10.4277778,6.49754167 10.1944444,6.36295833 C10.0805556,6.292125 9.96111111,6.22766667 9.83472222,6.16958333 C9.02013889,5.77645833 8.06319444,5.5675 6.96458333,5.54129167 C6.90138889,5.53491667 6.84166667,5.531375 6.78472222,5.531375 C6.55763889,5.531375 6.32708333,5.53775 6.09305556,5.5505 C5.35416667,5.576 4.65972222,5.67304167 4.00972222,5.84020833 C3.21388889,6.04633333 2.47222222,6.34879167 1.78402778,6.74829167 L1.76527778,6.75820833 C1.49513889,6.916875 1.25208333,7.0805 1.03541667,7.24908333 C0.914583333,7.41625 0.799305556,7.57633333 0.678472222,7.7435 C0.4875,8.27333333 0.392361111,8.8145 0.392361111,9.367 C0.392361111,9.45058333 0.392361111,9.53770833 0.392361111,9.62766667 C0.398611111,9.78208333 0.414583333,9.94004167 0.439583333,10.1008333 C0.458333333,10.1652917 0.471527778,10.2262083 0.477777778,10.2842917 C0.534722222,10.1036667 0.613888889,9.930125 0.714583333,9.76295833 C0.916666667,9.39604167 1.22291667,9.05108333 1.63333333,8.7295 C1.87291667,8.536125 2.14444444,8.35266667 2.44791667,8.179125 C2.70069444,8.02470833 2.96597222,7.885875 3.24375,7.76333333 C3.31319444,7.73145833 3.37916667,7.70241667 3.44236111,7.67620833 C4.33263889,7.30291667 5.31111111,7.074125 6.37847222,6.99054167 C6.50486111,6.97779167 6.6375,6.967875 6.77638889,6.9615 C7.66666667,6.91616667 8.47152778,6.97779167 9.19166667,7.14495833 C9.60833333,7.23491667 9.99652778,7.35745833 10.3569444,7.511875 C10.4388889,7.55083333 10.5145833,7.58625 10.5840278,7.618125 C10.5840278,7.58625 10.5840278,7.55720833 10.5840278,7.531 C10.5902778,7.48566667 10.6,7.44104167 10.6125,7.39570833 C10.6375,7.22854167 10.6854167,7.06066667 10.7548611,6.8935 C10.7597222,6.85525 10.7722222,6.81629167 10.7909722,6.77804167 L10.7909722,6.77804167 Z M11.6243056,4.03395833 C11.4604167,3.89866667 11.2736111,3.76975 11.0652778,3.64720833 C9.99166667,3.02245833 8.62777778,2.74904167 6.97361111,2.82625 C6.525,2.85175 6.09305556,2.89708333 5.67569444,2.96154167 C5.65069444,2.97429167 5.62847222,2.98704167 5.60972222,3.0005 C5.37638889,3.13579167 5.15486111,3.26754167 4.94652778,3.39645833 C4.32152778,3.79595833 3.7625,4.182 3.27013889,4.556 C2.95416667,4.80745833 2.66388889,5.055375 2.39861111,5.29975 C2.70138889,5.13258333 3.01736111,4.987375 3.34583333,4.86483333 C3.95208333,4.63320833 4.59583333,4.45895833 5.27777778,4.3435 C5.66944444,4.28541667 6.07013889,4.24716667 6.48055556,4.22733333 C7.61111111,4.16925 8.61180556,4.281875 9.48333333,4.56520833 C9.86875,4.68775 10.23125,4.84854167 10.5722222,5.04829167 C10.9576389,5.26716667 11.2666667,5.51225 11.5006944,5.78283333 C11.7472222,5.531375 12.04375,5.28983333 12.3909722,5.05820833 C12.2590278,4.67854167 12.0034722,4.337125 11.6243056,4.03395833 L11.6243056,4.03395833 Z M12.8368056,0.595 C12.7041667,0.614125 12.575,0.630416667 12.4486111,0.643166667 C11.6909722,0.759333333 10.9583333,0.907375 10.2513889,1.08729167 C9.91041667,1.183625 9.57291667,1.2835 9.23819444,1.38691667 C9.52847222,1.41879167 9.81319444,1.46766667 10.0909722,1.532125 C10.7159722,1.66741667 11.28125,1.88345833 11.7861111,2.17954167 C12.5625,2.63004167 13.0270833,3.17475 13.1784722,3.81225 C13.2166667,3.97304167 13.2319444,4.14375 13.2256944,4.324375 C13.2256944,4.40158333 13.2194444,4.47879167 13.2069444,4.556 C13.2006944,4.562375 13.1972222,4.57229167 13.1972222,4.58504167 C13.3548611,4.50783333 13.5131944,4.43345833 13.6708333,4.362625 C14.1125,4.162875 14.5770833,4.00208333 15.0631944,3.87954167 C15.0694444,3.86041667 15.0791667,3.83775 15.0916667,3.81225 C15.1041667,3.76054167 15.1166667,3.70883333 15.1298611,3.65783333 C15.1486111,3.57425 15.1618056,3.487125 15.1680556,3.39716667 C15.3069444,2.437375 14.8368056,1.64545833 13.7569444,1.02070833 C13.4715278,0.852833333 13.1652778,0.710458333 12.8368056,0.595 L12.8368056,0.595 Z M20.7458333,3.95675 C20.8784722,4.00208333 21.0111111,4.05025 21.14375,4.10195833 C21.3965278,4.17279167 21.6805556,4.19829167 21.9958333,4.17916667 C22.5263889,4.16004167 22.99375,4.03395833 23.3979167,3.80233333 C23.8020833,3.56433333 24.0201389,3.287375 24.0513889,2.97145833 C24.0569444,2.94808333 24.0604167,2.92541667 24.0611111,2.90416667 L24.0611111,2.89425 C24.0673611,2.82341667 24.0576389,2.756125 24.0326389,2.69166667 C23.9756944,2.51741667 23.8493056,2.369375 23.6534722,2.24754167 L23.625,2.22841667 C23.61875,2.22204167 23.6090278,2.2185 23.5965278,2.2185 C23.5902778,2.212125 23.5840278,2.20575 23.5777778,2.199375 L23.5680556,2.18945833 C23.5555556,2.18308333 23.5395833,2.17670833 23.5208333,2.17033333 C23.4194444,2.11225 23.3222222,2.05770833 23.2270833,2.006 C23.0888889,1.931625 22.5680556,1.74320833 22.4256944,1.67379167 C21.9638889,1.44783333 21.7659722,1.63270833 21.4256944,2.02370833 C21.1513889,2.33891667 20.7791667,2.63570833 20.3097222,2.91408333 C19.8486111,3.18466667 19.3625,3.39716667 18.8513889,3.55158333 C19.2430556,3.58345833 19.61875,3.64508333 19.9784722,3.73504167 C20.1930556,3.780375 20.4048611,3.83491667 20.6131944,3.899375 C20.6569444,3.912125 20.7013889,3.93125 20.7458333,3.95675 L20.7458333,3.95675 Z M19.7701389,1.29058333 C19.8020833,1.10358333 19.8048611,0.930041667 19.7798611,0.76925 C19.1291667,0.627583333 18.4506944,0.527708333 17.74375,0.469625 C17.2951389,0.430666667 16.8375,0.408708333 16.3701389,0.402333333 C16.25,0.402333333 16.1305556,0.398791667 16.0104167,0.392416667 C16.0736111,0.444125 16.1368056,0.498666667 16.2,0.55675 C16.7493056,1.07808333 16.9763889,1.69008333 16.8819444,2.39204167 C16.84375,2.70158333 16.7493056,2.99766667 16.5979167,3.281 C16.5347222,3.39716667 16.4652778,3.50625 16.3895833,3.60966667 C16.6486111,3.58416667 16.9104167,3.5615 17.1756944,3.542375 C17.2513889,3.536 17.3243056,3.53245833 17.39375,3.53245833 C17.5388889,3.52608333 17.6902778,3.52254167 17.8486111,3.52254167 C17.8993056,3.48995833 17.95,3.45808333 18,3.42620833 C18.0381944,3.40708333 18.0729167,3.38725 18.1041667,3.368125 C19.1256944,2.768875 19.6819444,2.076125 19.7701389,1.29058333 Z" id="Shape" fill="#FFE5CC"></path>
                            <path d="M10.5826389,7.618125 C10.5131944,7.58625 10.4375,7.55083333 10.3555556,7.511875 C9.99583333,7.35745833 9.60763889,7.23491667 9.19027778,7.14495833 C8.47083333,6.97779167 7.66527778,6.91616667 6.775,6.9615 C6.63611111,6.967875 6.50347222,6.97779167 6.37708333,6.99054167 C5.30972222,7.074125 4.33125,7.30291667 3.44097222,7.67620833 C3.37777778,7.70170833 3.31180556,7.73075 3.24236111,7.76333333 C2.96458333,7.885875 2.69930556,8.024 2.44652778,8.179125 C2.14305556,8.35266667 1.87152778,8.53683333 1.63194444,8.7295 C1.22152778,9.05179167 0.915277778,9.39604167 0.713194444,9.76295833 C0.6125,9.930125 0.533333333,10.104375 0.476388889,10.2842917 C0.527083333,10.5095417 0.602777778,10.7255833 0.703472222,10.9317083 C0.867361111,11.26675 1.11041667,11.5692083 1.43263889,11.8397917 C1.47083333,11.8652917 1.50555556,11.8915 1.53680556,11.917 C1.66319444,11.492 1.89652778,11.0925 2.2375,10.7192083 C2.56597222,10.3459167 3.00763889,9.99458333 3.56319444,9.66591667 C3.60138889,9.64679167 3.63611111,9.62695833 3.66736111,9.60783333 C4.89236111,8.91225 6.30347222,8.52904167 7.90138889,8.45820833 C8.80416667,8.412875 9.61597222,8.47095833 10.3354167,8.63245833 C10.6451389,8.70329167 10.9381944,8.79041667 11.2159722,8.893125 C11.0458333,8.69975 10.9097222,8.51983333 10.8083333,8.35195833 C10.6520833,8.07570833 10.5763889,7.830625 10.5826389,7.618125 L10.5826389,7.618125 Z M10.1944444,6.36225 C10.4277778,6.49754167 10.6270833,6.63566667 10.7909722,6.77733333 C10.8416667,6.66116667 10.9048611,6.54854167 10.9805556,6.43945833 C11.05,6.31691667 11.1291667,6.20429167 11.2173611,6.10158333 C11.2993056,5.99179167 11.3944444,5.88554167 11.5013889,5.78283333 C11.2673611,5.51225 10.9583333,5.267875 10.5729167,5.04829167 C10.2319444,4.84854167 9.86875,4.68775 9.48402778,4.56520833 C8.6125,4.281875 7.61180556,4.16925 6.48125,4.22733333 C6.07083333,4.24645833 5.67013889,4.28541667 5.27847222,4.3435 C4.59652778,4.45966667 3.95277778,4.63320833 3.34652778,4.86483333 C3.07291667,4.96683333 2.80833333,5.08441667 2.55208333,5.21758333 C2.45,5.27070833 2.35347222,5.34154167 2.27013889,5.42229167 C1.96597222,5.71554167 1.70625,6.00666667 1.49027778,6.29495833 C1.41458333,6.39129167 1.34861111,6.48195833 1.29166667,6.56554167 C1.08958333,6.861625 0.925694444,7.154875 0.799305556,7.44458333 C1.07083333,7.20658333 1.39305556,6.97779167 1.76527778,6.75891667 L1.78402778,6.749 C2.47222222,6.3495 3.21388889,6.04704167 4.00972222,5.84091667 C4.66041667,5.67375 5.35486111,5.57670833 6.09305556,5.55120833 C6.32638889,5.53845833 6.55694444,5.53208333 6.78472222,5.53208333 C6.84166667,5.53208333 6.90138889,5.53491667 6.96458333,5.542 C8.06319444,5.5675 9.02013889,5.77716667 9.83472222,6.17029167 C9.96041667,6.22695833 10.0805556,6.29141667 10.1944444,6.36225 L10.1944444,6.36225 Z M16.1993056,0.556041667 C16.1361111,0.497958333 16.0729167,0.443416667 16.0097222,0.391708333 C15.6243056,0.385333333 15.2333333,0.391708333 14.8354167,0.410833333 C14.1534722,0.449791667 13.4875,0.510708333 12.8368056,0.594291667 C13.1652778,0.710458333 13.4715278,0.852125 13.7555556,1.01929167 C14.8354167,1.64404167 15.3055556,2.43595833 15.1666667,3.39575 C15.1604167,3.48570833 15.1479167,3.57283333 15.1284722,3.65641667 C15.1159722,3.708125 15.1034722,3.759125 15.0902778,3.81083333 C15.0777778,3.83633333 15.0680556,3.859 15.0618056,3.878125 C15.1125,3.859 15.1631944,3.84625 15.2131944,3.83916667 C15.5159722,3.76195833 15.8291667,3.6975 16.1506944,3.64579167 C16.2326389,3.63304167 16.3118056,3.62029167 16.3875,3.60683333 C16.4631944,3.504125 16.5326389,3.39433333 16.5958333,3.27816667 C16.7472222,2.99483333 16.8423611,2.69875 16.8798611,2.38920833 C16.9756944,1.69008333 16.7486111,1.07808333 16.1993056,0.556041667 L16.1993056,0.556041667 Z M11.0659722,3.64791667 C11.2743056,3.77045833 11.4604167,3.899375 11.625,4.03466667 C12.0041667,4.337125 12.2597222,4.67854167 12.3923611,5.05891667 C12.5125,4.98170833 12.6388889,4.9045 12.7715278,4.82729167 C12.9104167,4.74370833 13.0527778,4.66295833 13.1979167,4.58575 C13.1979167,4.573 13.2013889,4.56308333 13.2076389,4.55670833 C13.2201389,4.4795 13.2263889,4.40229167 13.2263889,4.32508333 C13.2326389,4.14445833 13.2166667,3.97375 13.1791667,3.81295833 C13.0277778,3.17545833 12.5631944,2.63075 11.7868056,2.18025 C11.2819444,1.88416667 10.7166667,1.668125 10.0916667,1.53283333 C9.81388889,1.468375 9.52986111,1.42020833 9.23888889,1.387625 C7.97569444,1.7935 6.78888889,2.318375 5.67777778,2.96225 C6.09444444,2.89779167 6.52708333,2.85245833 6.97569444,2.82695833 C8.62847222,2.74904167 9.99236111,3.02316667 11.0659722,3.64791667 L11.0659722,3.64791667 Z M19.7791667,0.768541667 C19.8041667,0.929333333 19.8013889,1.10358333 19.7694444,1.289875 C19.68125,2.07541667 19.1256944,2.76816667 18.1020833,3.36670833 C18.0708333,3.38583333 18.0361111,3.40566667 17.9979167,3.42479167 C17.9472222,3.45666667 17.8965278,3.48925 17.8465278,3.521125 C17.9541667,3.51475 18.0645833,3.51475 18.1777778,3.521125 C18.4048611,3.521125 18.6291667,3.53104167 18.85,3.55016667 C19.3618056,3.39575 19.8479167,3.18325 20.3083333,2.91266667 C20.3159722,2.90770833 20.3236111,2.90275 20.3319444,2.8985 C21.4430556,2.411875 23.0708333,1.65325 22.2993056,1.66245833 C22.2326389,1.663875 19.8465278,0.782708333 19.7791667,0.768541667 Z" id="Shape" fill="#FDCA97"></path>
                            <path d="M18.8513889,3.550875 C18.6305556,3.53175 18.40625,3.52183333 18.1791667,3.52183333 C18.0652778,3.51545833 17.9548611,3.51545833 17.8479167,3.52183333 C17.6902778,3.52183333 17.5388889,3.52466667 17.3930556,3.53175 C17.3236111,3.53175 17.2506944,3.53529167 17.175,3.54166667 C16.9097222,3.56079167 16.6479167,3.58345833 16.3888889,3.60895833 C16.3131944,3.62170833 16.2340278,3.63445833 16.1520833,3.64791667 C15.8298611,3.699625 15.5173611,3.76408333 15.2145833,3.84129167 C15.1638889,3.84766667 15.1138889,3.86041667 15.0631944,3.88025 C14.5770833,4.00279167 14.1131944,4.16358333 13.6708333,4.36333333 C13.5131944,4.43416667 13.3548611,4.50854167 13.1972222,4.58575 C13.0520833,4.66295833 12.9097222,4.74370833 12.7708333,4.82729167 C12.6381944,4.9045 12.5118056,4.98170833 12.3916667,5.05891667 C12.0444444,5.29054167 11.7479167,5.53208333 11.5013889,5.78354167 C11.39375,5.88695833 11.2993056,5.99320833 11.2173611,6.10229167 C11.1291667,6.20570833 11.05,6.31833333 10.9805556,6.44016667 C10.9048611,6.54925 10.8416667,6.66258333 10.7909722,6.77804167 C10.7722222,6.817 10.7597222,6.85525 10.7527778,6.89420833 C10.6833333,7.061375 10.6361111,7.22925 10.6104167,7.39641667 C10.5979167,7.44175 10.5881944,7.486375 10.5819444,7.53170833 C10.5819444,7.55720833 10.5819444,7.58625 10.5819444,7.61883333 C10.5756944,7.83133333 10.6513889,8.07641667 10.8090278,8.353375 C10.9104167,8.52054167 11.0458333,8.70116667 11.2166667,8.89454167 C11.2229167,8.91366667 11.2354167,8.93279167 11.2541667,8.952625 L11.2638889,8.96254167 C11.3145833,9.020625 11.3652778,9.07870833 11.4152778,9.13679167 C11.4340278,9.09783333 11.4625,9.06241667 11.5006944,9.03054167 C11.7472222,8.78616667 12.04375,8.54745833 12.3909722,8.31583333 C12.5111111,8.23225 12.6375,8.1515 12.7701389,8.07429167 C12.9090278,7.99070833 13.0513889,7.90995833 13.1965278,7.83275 C13.3541667,7.75554167 13.5125,7.68116667 13.6701389,7.61033333 C14.1118056,7.41695833 14.5763889,7.25616667 15.0625,7.12725 C15.1131944,7.1145 15.1638889,7.10175 15.2138889,7.089 C15.5930556,6.99266667 15.9840278,6.91829167 16.3881944,6.86658333 C16.6472222,6.83470833 16.9090278,6.81204167 17.1743056,6.79929167 C17.25,6.79291667 17.3229167,6.78654167 17.3923611,6.78016667 C17.5375,6.77379167 17.6888889,6.77025 17.8472222,6.77025 C17.9548611,6.763875 18.0652778,6.763875 18.1784722,6.77025 C18.4055556,6.77025 18.6298611,6.78016667 18.8506944,6.79929167 C19.2423611,6.83825 19.6180556,6.89916667 19.9777778,6.98275 C20.1923611,7.02808333 20.4041667,7.082625 20.6125,7.14708333 C20.6569444,7.16620833 20.7006944,7.18604167 20.7451389,7.20516667 C20.8777778,7.2505 21.0104167,7.3015 21.1430556,7.35958333 C21.3958333,7.43041667 21.6798611,7.45591667 21.9951389,7.43679167 C22.5256944,7.41129167 22.9930556,7.282375 23.3972222,7.05004167 C23.7506944,6.84391667 23.9625,6.60591667 24.0319444,6.33533333 L24.0604167,6.151875 C24.0604167,6.13275 24.0604167,6.11008333 24.0604167,6.08458333 L24.0604167,2.90416667 C24.0597222,2.926125 24.0569444,2.94808333 24.0506944,2.97145833 C24.0194444,3.287375 23.8013889,3.56433333 23.3972222,3.80233333 C22.9930556,4.03395833 22.5256944,4.16004167 21.9951389,4.17916667 C21.6791667,4.19829167 21.3951389,4.17279167 21.1430556,4.10195833 C21.0104167,4.05025 20.8777778,4.00208333 20.7451389,3.95675 C20.7006944,3.93125 20.6569444,3.91141667 20.6125,3.89866667 C20.4041667,3.83420833 20.1923611,3.77966667 19.9777778,3.73433333 C19.61875,3.644375 19.2430556,3.58345833 18.8513889,3.550875 Z" id="Shape" fill="#E4B585"></path>
                        </g>
                    </g>
                </g>
            </g>
            <g id="prawn-copy" transform="translate(100.000000, 45.000000)">
                <g id="Group" transform="translate(12.604167, 8.464583) scale(-1, 1) translate(-12.604167, -8.464583) translate(0.451389, 0.318750)">
                    <g id="people_0_Layer10_0_FILL">
                        <g>
                            <path d="M12.0319444,10.1497083 C12.0069444,10.27225 11.9375,10.4075417 11.8236111,10.5555833 C11.7222222,10.690875 11.5583333,10.8552083 11.33125,11.0485833 C11.1541667,11.19025 10.9590278,11.3354583 10.74375,11.4835 C10.6236111,11.5607083 10.5006944,11.6379167 10.3743056,11.715125 C9.04236111,12.4942917 7.50138889,12.9256667 5.75208333,13.0099583 C4.89652778,13.0467917 4.11527778,12.9957917 3.40902778,12.8569583 C3.34097222,12.8435 3.27222222,12.824375 3.20625,12.801 C2.53263889,12.563 1.97916667,12.2754167 1.54652778,11.9375417 C1.54652778,11.9311667 1.54305556,11.9247917 1.53680556,11.9184167 C1.50555556,11.8929167 1.47083333,11.8667083 1.43263889,11.8412083 C1.11041667,11.570625 0.867361111,11.2681667 0.703472222,10.933125 C0.602083333,10.727 0.526388889,10.5109583 0.476388889,10.2857083 C0.470138889,10.227625 0.457638889,10.1667083 0.438194444,10.10225 C0.413194444,9.94145833 0.397222222,9.7835 0.390972222,9.62908333 L0.390972222,12.614 C0.390972222,12.6657083 0.390972222,12.72025 0.390972222,12.7783333 C0.390972222,12.9717083 0.406944444,13.1615417 0.438194444,13.3485417 C0.456944444,13.413 0.470138889,13.4739167 0.476388889,13.532 C0.609027778,14.137625 0.927777778,14.656125 1.43333333,15.0875 C1.47152778,15.113 1.50277778,15.1392083 1.52777778,15.1647083 C1.54027778,15.1710833 1.54652778,15.181 1.54652778,15.19375 C1.98125,15.5323333 2.53680556,15.8177917 3.21319444,16.0508333 C3.27430556,16.0720833 3.33819444,16.0897917 3.40138889,16.1025417 C4.10972222,16.2484583 4.89305556,16.2994583 5.75208333,16.25625 C7.50138889,16.1726667 9.04166667,15.7412917 10.3743056,14.9614167 C10.7277778,14.7489167 11.0472222,14.5265 11.33125,14.294875 C11.5583333,14.1015 11.7229167,13.9407083 11.8236111,13.8117917 C11.9375,13.66375 12.0069444,13.5249167 12.0319444,13.3967083 L12.0319444,10.1497083 Z" id="Shape" fill="#E8B282"></path>
                            <path d="M11.4159722,9.135375 C11.3652778,9.07729167 11.3145833,9.01920833 11.2645833,8.961125 L11.2548611,8.95120833 C11.2361111,8.93208333 11.2236111,8.91225 11.2173611,8.893125 C10.9395833,8.78970833 10.6458333,8.70329167 10.3368056,8.63245833 C9.61666667,8.47166667 8.80555556,8.41358333 7.90277778,8.45820833 C6.30555556,8.52904167 4.89375,8.91225 3.66875,9.60783333 C3.6375,9.62695833 3.60277778,9.64608333 3.56458333,9.66591667 C3.00902778,9.99458333 2.56666667,10.3452083 2.23888889,10.7192083 C2.22847222,10.7305417 2.21875,10.741875 2.20833333,10.7525 C2.45902778,10.6221667 1.44236111,11.1619167 1.5375,11.917 C1.58819444,12.3221667 2.68263889,12.4765833 2.60486111,12.55875 C2.79375,12.64375 2.99444444,12.7237917 3.20694444,12.798875 C3.27291667,12.82225 3.34166667,12.841375 3.40972222,12.8548333 C4.11597222,12.9936667 4.89652778,13.0446667 5.75277778,13.0078333 C7.50208333,12.92425 9.04236111,12.492875 10.375,11.713 C10.5013889,11.6357917 10.6243056,11.5585833 10.7444444,11.481375 C10.9590278,11.3333333 11.1548611,11.188125 11.3319444,11.0464583 C11.5590278,10.8530833 11.7236111,10.68875 11.8243056,10.5534583 C11.9381944,10.4054167 12.0076389,10.270125 12.0326389,10.1475833 C12.0388889,10.10225 12.0423611,10.057625 12.0423611,10.0122917 C12.0423611,9.99316667 12.0423611,9.97333333 12.0423611,9.95420833 C12.0236111,9.877 11.9541667,9.76083333 11.8340278,9.60641667 C11.7833333,9.54833333 11.6729167,9.42579167 11.5027778,9.2395 C11.4694444,9.20904167 11.4416667,9.173625 11.4159722,9.135375 L11.4159722,9.135375 Z M10.7909722,6.77804167 C10.6270833,6.636375 10.4277778,6.49754167 10.1944444,6.36295833 C10.0805556,6.292125 9.96111111,6.22766667 9.83472222,6.16958333 C9.02013889,5.77645833 8.06319444,5.5675 6.96458333,5.54129167 C6.90138889,5.53491667 6.84166667,5.531375 6.78472222,5.531375 C6.55763889,5.531375 6.32708333,5.53775 6.09305556,5.5505 C5.35416667,5.576 4.65972222,5.67304167 4.00972222,5.84020833 C3.21388889,6.04633333 2.47222222,6.34879167 1.78402778,6.74829167 L1.76527778,6.75820833 C1.49513889,6.916875 1.25208333,7.0805 1.03541667,7.24908333 C0.914583333,7.41625 0.799305556,7.57633333 0.678472222,7.7435 C0.4875,8.27333333 0.392361111,8.8145 0.392361111,9.367 C0.392361111,9.45058333 0.392361111,9.53770833 0.392361111,9.62766667 C0.398611111,9.78208333 0.414583333,9.94004167 0.439583333,10.1008333 C0.458333333,10.1652917 0.471527778,10.2262083 0.477777778,10.2842917 C0.534722222,10.1036667 0.613888889,9.930125 0.714583333,9.76295833 C0.916666667,9.39604167 1.22291667,9.05108333 1.63333333,8.7295 C1.87291667,8.536125 2.14444444,8.35266667 2.44791667,8.179125 C2.70069444,8.02470833 2.96597222,7.885875 3.24375,7.76333333 C3.31319444,7.73145833 3.37916667,7.70241667 3.44236111,7.67620833 C4.33263889,7.30291667 5.31111111,7.074125 6.37847222,6.99054167 C6.50486111,6.97779167 6.6375,6.967875 6.77638889,6.9615 C7.66666667,6.91616667 8.47152778,6.97779167 9.19166667,7.14495833 C9.60833333,7.23491667 9.99652778,7.35745833 10.3569444,7.511875 C10.4388889,7.55083333 10.5145833,7.58625 10.5840278,7.618125 C10.5840278,7.58625 10.5840278,7.55720833 10.5840278,7.531 C10.5902778,7.48566667 10.6,7.44104167 10.6125,7.39570833 C10.6375,7.22854167 10.6854167,7.06066667 10.7548611,6.8935 C10.7597222,6.85525 10.7722222,6.81629167 10.7909722,6.77804167 L10.7909722,6.77804167 Z M11.6243056,4.03395833 C11.4604167,3.89866667 11.2736111,3.76975 11.0652778,3.64720833 C9.99166667,3.02245833 8.62777778,2.74904167 6.97361111,2.82625 C6.525,2.85175 6.09305556,2.89708333 5.67569444,2.96154167 C5.65069444,2.97429167 5.62847222,2.98704167 5.60972222,3.0005 C5.37638889,3.13579167 5.15486111,3.26754167 4.94652778,3.39645833 C4.32152778,3.79595833 3.7625,4.182 3.27013889,4.556 C2.95416667,4.80745833 2.66388889,5.055375 2.39861111,5.29975 C2.70138889,5.13258333 3.01736111,4.987375 3.34583333,4.86483333 C3.95208333,4.63320833 4.59583333,4.45895833 5.27777778,4.3435 C5.66944444,4.28541667 6.07013889,4.24716667 6.48055556,4.22733333 C7.61111111,4.16925 8.61180556,4.281875 9.48333333,4.56520833 C9.86875,4.68775 10.23125,4.84854167 10.5722222,5.04829167 C10.9576389,5.26716667 11.2666667,5.51225 11.5006944,5.78283333 C11.7472222,5.531375 12.04375,5.28983333 12.3909722,5.05820833 C12.2590278,4.67854167 12.0034722,4.337125 11.6243056,4.03395833 L11.6243056,4.03395833 Z M12.8368056,0.595 C12.7041667,0.614125 12.575,0.630416667 12.4486111,0.643166667 C11.6909722,0.759333333 10.9583333,0.907375 10.2513889,1.08729167 C9.91041667,1.183625 9.57291667,1.2835 9.23819444,1.38691667 C9.52847222,1.41879167 9.81319444,1.46766667 10.0909722,1.532125 C10.7159722,1.66741667 11.28125,1.88345833 11.7861111,2.17954167 C12.5625,2.63004167 13.0270833,3.17475 13.1784722,3.81225 C13.2166667,3.97304167 13.2319444,4.14375 13.2256944,4.324375 C13.2256944,4.40158333 13.2194444,4.47879167 13.2069444,4.556 C13.2006944,4.562375 13.1972222,4.57229167 13.1972222,4.58504167 C13.3548611,4.50783333 13.5131944,4.43345833 13.6708333,4.362625 C14.1125,4.162875 14.5770833,4.00208333 15.0631944,3.87954167 C15.0694444,3.86041667 15.0791667,3.83775 15.0916667,3.81225 C15.1041667,3.76054167 15.1166667,3.70883333 15.1298611,3.65783333 C15.1486111,3.57425 15.1618056,3.487125 15.1680556,3.39716667 C15.3069444,2.437375 14.8368056,1.64545833 13.7569444,1.02070833 C13.4715278,0.852833333 13.1652778,0.710458333 12.8368056,0.595 L12.8368056,0.595 Z M20.7458333,3.95675 C20.8784722,4.00208333 21.0111111,4.05025 21.14375,4.10195833 C21.3965278,4.17279167 21.6805556,4.19829167 21.9958333,4.17916667 C22.5263889,4.16004167 22.99375,4.03395833 23.3979167,3.80233333 C23.8020833,3.56433333 24.0201389,3.287375 24.0513889,2.97145833 C24.0569444,2.94808333 24.0604167,2.92541667 24.0611111,2.90416667 L24.0611111,2.89425 C24.0673611,2.82341667 24.0576389,2.756125 24.0326389,2.69166667 C23.9756944,2.51741667 23.8493056,2.369375 23.6534722,2.24754167 L23.625,2.22841667 C23.61875,2.22204167 23.6090278,2.2185 23.5965278,2.2185 C23.5902778,2.212125 23.5840278,2.20575 23.5777778,2.199375 L23.5680556,2.18945833 C23.5555556,2.18308333 23.5395833,2.17670833 23.5208333,2.17033333 C23.4194444,2.11225 23.3222222,2.05770833 23.2270833,2.006 C23.0888889,1.931625 22.5680556,1.74320833 22.4256944,1.67379167 C21.9638889,1.44783333 21.7659722,1.63270833 21.4256944,2.02370833 C21.1513889,2.33891667 20.7791667,2.63570833 20.3097222,2.91408333 C19.8486111,3.18466667 19.3625,3.39716667 18.8513889,3.55158333 C19.2430556,3.58345833 19.61875,3.64508333 19.9784722,3.73504167 C20.1930556,3.780375 20.4048611,3.83491667 20.6131944,3.899375 C20.6569444,3.912125 20.7013889,3.93125 20.7458333,3.95675 L20.7458333,3.95675 Z M19.7701389,1.29058333 C19.8020833,1.10358333 19.8048611,0.930041667 19.7798611,0.76925 C19.1291667,0.627583333 18.4506944,0.527708333 17.74375,0.469625 C17.2951389,0.430666667 16.8375,0.408708333 16.3701389,0.402333333 C16.25,0.402333333 16.1305556,0.398791667 16.0104167,0.392416667 C16.0736111,0.444125 16.1368056,0.498666667 16.2,0.55675 C16.7493056,1.07808333 16.9763889,1.69008333 16.8819444,2.39204167 C16.84375,2.70158333 16.7493056,2.99766667 16.5979167,3.281 C16.5347222,3.39716667 16.4652778,3.50625 16.3895833,3.60966667 C16.6486111,3.58416667 16.9104167,3.5615 17.1756944,3.542375 C17.2513889,3.536 17.3243056,3.53245833 17.39375,3.53245833 C17.5388889,3.52608333 17.6902778,3.52254167 17.8486111,3.52254167 C17.8993056,3.48995833 17.95,3.45808333 18,3.42620833 C18.0381944,3.40708333 18.0729167,3.38725 18.1041667,3.368125 C19.1256944,2.768875 19.6819444,2.076125 19.7701389,1.29058333 Z" id="Shape" fill="#FFE5CC"></path>
                            <path d="M10.5826389,7.618125 C10.5131944,7.58625 10.4375,7.55083333 10.3555556,7.511875 C9.99583333,7.35745833 9.60763889,7.23491667 9.19027778,7.14495833 C8.47083333,6.97779167 7.66527778,6.91616667 6.775,6.9615 C6.63611111,6.967875 6.50347222,6.97779167 6.37708333,6.99054167 C5.30972222,7.074125 4.33125,7.30291667 3.44097222,7.67620833 C3.37777778,7.70170833 3.31180556,7.73075 3.24236111,7.76333333 C2.96458333,7.885875 2.69930556,8.024 2.44652778,8.179125 C2.14305556,8.35266667 1.87152778,8.53683333 1.63194444,8.7295 C1.22152778,9.05179167 0.915277778,9.39604167 0.713194444,9.76295833 C0.6125,9.930125 0.533333333,10.104375 0.476388889,10.2842917 C0.527083333,10.5095417 0.602777778,10.7255833 0.703472222,10.9317083 C0.867361111,11.26675 1.11041667,11.5692083 1.43263889,11.8397917 C1.47083333,11.8652917 1.50555556,11.8915 1.53680556,11.917 C1.66319444,11.492 1.89652778,11.0925 2.2375,10.7192083 C2.56597222,10.3459167 3.00763889,9.99458333 3.56319444,9.66591667 C3.60138889,9.64679167 3.63611111,9.62695833 3.66736111,9.60783333 C4.89236111,8.91225 6.30347222,8.52904167 7.90138889,8.45820833 C8.80416667,8.412875 9.61597222,8.47095833 10.3354167,8.63245833 C10.6451389,8.70329167 10.9381944,8.79041667 11.2159722,8.893125 C11.0458333,8.69975 10.9097222,8.51983333 10.8083333,8.35195833 C10.6520833,8.07570833 10.5763889,7.830625 10.5826389,7.618125 L10.5826389,7.618125 Z M10.1944444,6.36225 C10.4277778,6.49754167 10.6270833,6.63566667 10.7909722,6.77733333 C10.8416667,6.66116667 10.9048611,6.54854167 10.9805556,6.43945833 C11.05,6.31691667 11.1291667,6.20429167 11.2173611,6.10158333 C11.2993056,5.99179167 11.3944444,5.88554167 11.5013889,5.78283333 C11.2673611,5.51225 10.9583333,5.267875 10.5729167,5.04829167 C10.2319444,4.84854167 9.86875,4.68775 9.48402778,4.56520833 C8.6125,4.281875 7.61180556,4.16925 6.48125,4.22733333 C6.07083333,4.24645833 5.67013889,4.28541667 5.27847222,4.3435 C4.59652778,4.45966667 3.95277778,4.63320833 3.34652778,4.86483333 C3.07291667,4.96683333 2.80833333,5.08441667 2.55208333,5.21758333 C2.45,5.27070833 2.35347222,5.34154167 2.27013889,5.42229167 C1.96597222,5.71554167 1.70625,6.00666667 1.49027778,6.29495833 C1.41458333,6.39129167 1.34861111,6.48195833 1.29166667,6.56554167 C1.08958333,6.861625 0.925694444,7.154875 0.799305556,7.44458333 C1.07083333,7.20658333 1.39305556,6.97779167 1.76527778,6.75891667 L1.78402778,6.749 C2.47222222,6.3495 3.21388889,6.04704167 4.00972222,5.84091667 C4.66041667,5.67375 5.35486111,5.57670833 6.09305556,5.55120833 C6.32638889,5.53845833 6.55694444,5.53208333 6.78472222,5.53208333 C6.84166667,5.53208333 6.90138889,5.53491667 6.96458333,5.542 C8.06319444,5.5675 9.02013889,5.77716667 9.83472222,6.17029167 C9.96041667,6.22695833 10.0805556,6.29141667 10.1944444,6.36225 L10.1944444,6.36225 Z M16.1993056,0.556041667 C16.1361111,0.497958333 16.0729167,0.443416667 16.0097222,0.391708333 C15.6243056,0.385333333 15.2333333,0.391708333 14.8354167,0.410833333 C14.1534722,0.449791667 13.4875,0.510708333 12.8368056,0.594291667 C13.1652778,0.710458333 13.4715278,0.852125 13.7555556,1.01929167 C14.8354167,1.64404167 15.3055556,2.43595833 15.1666667,3.39575 C15.1604167,3.48570833 15.1479167,3.57283333 15.1284722,3.65641667 C15.1159722,3.708125 15.1034722,3.759125 15.0902778,3.81083333 C15.0777778,3.83633333 15.0680556,3.859 15.0618056,3.878125 C15.1125,3.859 15.1631944,3.84625 15.2131944,3.83916667 C15.5159722,3.76195833 15.8291667,3.6975 16.1506944,3.64579167 C16.2326389,3.63304167 16.3118056,3.62029167 16.3875,3.60683333 C16.4631944,3.504125 16.5326389,3.39433333 16.5958333,3.27816667 C16.7472222,2.99483333 16.8423611,2.69875 16.8798611,2.38920833 C16.9756944,1.69008333 16.7486111,1.07808333 16.1993056,0.556041667 L16.1993056,0.556041667 Z M11.0659722,3.64791667 C11.2743056,3.77045833 11.4604167,3.899375 11.625,4.03466667 C12.0041667,4.337125 12.2597222,4.67854167 12.3923611,5.05891667 C12.5125,4.98170833 12.6388889,4.9045 12.7715278,4.82729167 C12.9104167,4.74370833 13.0527778,4.66295833 13.1979167,4.58575 C13.1979167,4.573 13.2013889,4.56308333 13.2076389,4.55670833 C13.2201389,4.4795 13.2263889,4.40229167 13.2263889,4.32508333 C13.2326389,4.14445833 13.2166667,3.97375 13.1791667,3.81295833 C13.0277778,3.17545833 12.5631944,2.63075 11.7868056,2.18025 C11.2819444,1.88416667 10.7166667,1.668125 10.0916667,1.53283333 C9.81388889,1.468375 9.52986111,1.42020833 9.23888889,1.387625 C7.97569444,1.7935 6.78888889,2.318375 5.67777778,2.96225 C6.09444444,2.89779167 6.52708333,2.85245833 6.97569444,2.82695833 C8.62847222,2.74904167 9.99236111,3.02316667 11.0659722,3.64791667 L11.0659722,3.64791667 Z M19.7791667,0.768541667 C19.8041667,0.929333333 19.8013889,1.10358333 19.7694444,1.289875 C19.68125,2.07541667 19.1256944,2.76816667 18.1020833,3.36670833 C18.0708333,3.38583333 18.0361111,3.40566667 17.9979167,3.42479167 C17.9472222,3.45666667 17.8965278,3.48925 17.8465278,3.521125 C17.9541667,3.51475 18.0645833,3.51475 18.1777778,3.521125 C18.4048611,3.521125 18.6291667,3.53104167 18.85,3.55016667 C19.3618056,3.39575 19.8479167,3.18325 20.3083333,2.91266667 C20.3159722,2.90770833 20.3236111,2.90275 20.3319444,2.8985 C21.4430556,2.411875 23.0708333,1.65325 22.2993056,1.66245833 C22.2326389,1.663875 19.8465278,0.782708333 19.7791667,0.768541667 Z" id="Shape" fill="#FDCA97"></path>
                            <path d="M18.8513889,3.550875 C18.6305556,3.53175 18.40625,3.52183333 18.1791667,3.52183333 C18.0652778,3.51545833 17.9548611,3.51545833 17.8479167,3.52183333 C17.6902778,3.52183333 17.5388889,3.52466667 17.3930556,3.53175 C17.3236111,3.53175 17.2506944,3.53529167 17.175,3.54166667 C16.9097222,3.56079167 16.6479167,3.58345833 16.3888889,3.60895833 C16.3131944,3.62170833 16.2340278,3.63445833 16.1520833,3.64791667 C15.8298611,3.699625 15.5173611,3.76408333 15.2145833,3.84129167 C15.1638889,3.84766667 15.1138889,3.86041667 15.0631944,3.88025 C14.5770833,4.00279167 14.1131944,4.16358333 13.6708333,4.36333333 C13.5131944,4.43416667 13.3548611,4.50854167 13.1972222,4.58575 C13.0520833,4.66295833 12.9097222,4.74370833 12.7708333,4.82729167 C12.6381944,4.9045 12.5118056,4.98170833 12.3916667,5.05891667 C12.0444444,5.29054167 11.7479167,5.53208333 11.5013889,5.78354167 C11.39375,5.88695833 11.2993056,5.99320833 11.2173611,6.10229167 C11.1291667,6.20570833 11.05,6.31833333 10.9805556,6.44016667 C10.9048611,6.54925 10.8416667,6.66258333 10.7909722,6.77804167 C10.7722222,6.817 10.7597222,6.85525 10.7527778,6.89420833 C10.6833333,7.061375 10.6361111,7.22925 10.6104167,7.39641667 C10.5979167,7.44175 10.5881944,7.486375 10.5819444,7.53170833 C10.5819444,7.55720833 10.5819444,7.58625 10.5819444,7.61883333 C10.5756944,7.83133333 10.6513889,8.07641667 10.8090278,8.353375 C10.9104167,8.52054167 11.0458333,8.70116667 11.2166667,8.89454167 C11.2229167,8.91366667 11.2354167,8.93279167 11.2541667,8.952625 L11.2638889,8.96254167 C11.3145833,9.020625 11.3652778,9.07870833 11.4152778,9.13679167 C11.4340278,9.09783333 11.4625,9.06241667 11.5006944,9.03054167 C11.7472222,8.78616667 12.04375,8.54745833 12.3909722,8.31583333 C12.5111111,8.23225 12.6375,8.1515 12.7701389,8.07429167 C12.9090278,7.99070833 13.0513889,7.90995833 13.1965278,7.83275 C13.3541667,7.75554167 13.5125,7.68116667 13.6701389,7.61033333 C14.1118056,7.41695833 14.5763889,7.25616667 15.0625,7.12725 C15.1131944,7.1145 15.1638889,7.10175 15.2138889,7.089 C15.5930556,6.99266667 15.9840278,6.91829167 16.3881944,6.86658333 C16.6472222,6.83470833 16.9090278,6.81204167 17.1743056,6.79929167 C17.25,6.79291667 17.3229167,6.78654167 17.3923611,6.78016667 C17.5375,6.77379167 17.6888889,6.77025 17.8472222,6.77025 C17.9548611,6.763875 18.0652778,6.763875 18.1784722,6.77025 C18.4055556,6.77025 18.6298611,6.78016667 18.8506944,6.79929167 C19.2423611,6.83825 19.6180556,6.89916667 19.9777778,6.98275 C20.1923611,7.02808333 20.4041667,7.082625 20.6125,7.14708333 C20.6569444,7.16620833 20.7006944,7.18604167 20.7451389,7.20516667 C20.8777778,7.2505 21.0104167,7.3015 21.1430556,7.35958333 C21.3958333,7.43041667 21.6798611,7.45591667 21.9951389,7.43679167 C22.5256944,7.41129167 22.9930556,7.282375 23.3972222,7.05004167 C23.7506944,6.84391667 23.9625,6.60591667 24.0319444,6.33533333 L24.0604167,6.151875 C24.0604167,6.13275 24.0604167,6.11008333 24.0604167,6.08458333 L24.0604167,2.90416667 C24.0597222,2.926125 24.0569444,2.94808333 24.0506944,2.97145833 C24.0194444,3.287375 23.8013889,3.56433333 23.3972222,3.80233333 C22.9930556,4.03395833 22.5256944,4.16004167 21.9951389,4.17916667 C21.6791667,4.19829167 21.3951389,4.17279167 21.1430556,4.10195833 C21.0104167,4.05025 20.8777778,4.00208333 20.7451389,3.95675 C20.7006944,3.93125 20.6569444,3.91141667 20.6125,3.89866667 C20.4041667,3.83420833 20.1923611,3.77966667 19.9777778,3.73433333 C19.61875,3.644375 19.2430556,3.58345833 18.8513889,3.550875 Z" id="Shape" fill="#E4B585"></path>
                        </g>
                    </g>
                </g>
            </g>
            <g id="prawn-copy-2" transform="translate(113.000000, 81.000000)">
                <g id="Group" transform="translate(12.604167, 8.464583) scale(-1, 1) translate(-12.604167, -8.464583) translate(0.451389, 0.318750)">
                    <g id="people_0_Layer10_0_FILL">
                        <g>
                            <path d="M12.0319444,10.1497083 C12.0069444,10.27225 11.9375,10.4075417 11.8236111,10.5555833 C11.7222222,10.690875 11.5583333,10.8552083 11.33125,11.0485833 C11.1541667,11.19025 10.9590278,11.3354583 10.74375,11.4835 C10.6236111,11.5607083 10.5006944,11.6379167 10.3743056,11.715125 C9.04236111,12.4942917 7.50138889,12.9256667 5.75208333,13.0099583 C4.89652778,13.0467917 4.11527778,12.9957917 3.40902778,12.8569583 C3.34097222,12.8435 3.27222222,12.824375 3.20625,12.801 C2.53263889,12.563 1.97916667,12.2754167 1.54652778,11.9375417 C1.54652778,11.9311667 1.54305556,11.9247917 1.53680556,11.9184167 C1.50555556,11.8929167 1.47083333,11.8667083 1.43263889,11.8412083 C1.11041667,11.570625 0.867361111,11.2681667 0.703472222,10.933125 C0.602083333,10.727 0.526388889,10.5109583 0.476388889,10.2857083 C0.470138889,10.227625 0.457638889,10.1667083 0.438194444,10.10225 C0.413194444,9.94145833 0.397222222,9.7835 0.390972222,9.62908333 L0.390972222,12.614 C0.390972222,12.6657083 0.390972222,12.72025 0.390972222,12.7783333 C0.390972222,12.9717083 0.406944444,13.1615417 0.438194444,13.3485417 C0.456944444,13.413 0.470138889,13.4739167 0.476388889,13.532 C0.609027778,14.137625 0.927777778,14.656125 1.43333333,15.0875 C1.47152778,15.113 1.50277778,15.1392083 1.52777778,15.1647083 C1.54027778,15.1710833 1.54652778,15.181 1.54652778,15.19375 C1.98125,15.5323333 2.53680556,15.8177917 3.21319444,16.0508333 C3.27430556,16.0720833 3.33819444,16.0897917 3.40138889,16.1025417 C4.10972222,16.2484583 4.89305556,16.2994583 5.75208333,16.25625 C7.50138889,16.1726667 9.04166667,15.7412917 10.3743056,14.9614167 C10.7277778,14.7489167 11.0472222,14.5265 11.33125,14.294875 C11.5583333,14.1015 11.7229167,13.9407083 11.8236111,13.8117917 C11.9375,13.66375 12.0069444,13.5249167 12.0319444,13.3967083 L12.0319444,10.1497083 Z" id="Shape" fill="#E8B282"></path>
                            <path d="M11.4159722,9.135375 C11.3652778,9.07729167 11.3145833,9.01920833 11.2645833,8.961125 L11.2548611,8.95120833 C11.2361111,8.93208333 11.2236111,8.91225 11.2173611,8.893125 C10.9395833,8.78970833 10.6458333,8.70329167 10.3368056,8.63245833 C9.61666667,8.47166667 8.80555556,8.41358333 7.90277778,8.45820833 C6.30555556,8.52904167 4.89375,8.91225 3.66875,9.60783333 C3.6375,9.62695833 3.60277778,9.64608333 3.56458333,9.66591667 C3.00902778,9.99458333 2.56666667,10.3452083 2.23888889,10.7192083 C2.22847222,10.7305417 2.21875,10.741875 2.20833333,10.7525 C2.45902778,10.6221667 1.44236111,11.1619167 1.5375,11.917 C1.58819444,12.3221667 2.68263889,12.4765833 2.60486111,12.55875 C2.79375,12.64375 2.99444444,12.7237917 3.20694444,12.798875 C3.27291667,12.82225 3.34166667,12.841375 3.40972222,12.8548333 C4.11597222,12.9936667 4.89652778,13.0446667 5.75277778,13.0078333 C7.50208333,12.92425 9.04236111,12.492875 10.375,11.713 C10.5013889,11.6357917 10.6243056,11.5585833 10.7444444,11.481375 C10.9590278,11.3333333 11.1548611,11.188125 11.3319444,11.0464583 C11.5590278,10.8530833 11.7236111,10.68875 11.8243056,10.5534583 C11.9381944,10.4054167 12.0076389,10.270125 12.0326389,10.1475833 C12.0388889,10.10225 12.0423611,10.057625 12.0423611,10.0122917 C12.0423611,9.99316667 12.0423611,9.97333333 12.0423611,9.95420833 C12.0236111,9.877 11.9541667,9.76083333 11.8340278,9.60641667 C11.7833333,9.54833333 11.6729167,9.42579167 11.5027778,9.2395 C11.4694444,9.20904167 11.4416667,9.173625 11.4159722,9.135375 L11.4159722,9.135375 Z M10.7909722,6.77804167 C10.6270833,6.636375 10.4277778,6.49754167 10.1944444,6.36295833 C10.0805556,6.292125 9.96111111,6.22766667 9.83472222,6.16958333 C9.02013889,5.77645833 8.06319444,5.5675 6.96458333,5.54129167 C6.90138889,5.53491667 6.84166667,5.531375 6.78472222,5.531375 C6.55763889,5.531375 6.32708333,5.53775 6.09305556,5.5505 C5.35416667,5.576 4.65972222,5.67304167 4.00972222,5.84020833 C3.21388889,6.04633333 2.47222222,6.34879167 1.78402778,6.74829167 L1.76527778,6.75820833 C1.49513889,6.916875 1.25208333,7.0805 1.03541667,7.24908333 C0.914583333,7.41625 0.799305556,7.57633333 0.678472222,7.7435 C0.4875,8.27333333 0.392361111,8.8145 0.392361111,9.367 C0.392361111,9.45058333 0.392361111,9.53770833 0.392361111,9.62766667 C0.398611111,9.78208333 0.414583333,9.94004167 0.439583333,10.1008333 C0.458333333,10.1652917 0.471527778,10.2262083 0.477777778,10.2842917 C0.534722222,10.1036667 0.613888889,9.930125 0.714583333,9.76295833 C0.916666667,9.39604167 1.22291667,9.05108333 1.63333333,8.7295 C1.87291667,8.536125 2.14444444,8.35266667 2.44791667,8.179125 C2.70069444,8.02470833 2.96597222,7.885875 3.24375,7.76333333 C3.31319444,7.73145833 3.37916667,7.70241667 3.44236111,7.67620833 C4.33263889,7.30291667 5.31111111,7.074125 6.37847222,6.99054167 C6.50486111,6.97779167 6.6375,6.967875 6.77638889,6.9615 C7.66666667,6.91616667 8.47152778,6.97779167 9.19166667,7.14495833 C9.60833333,7.23491667 9.99652778,7.35745833 10.3569444,7.511875 C10.4388889,7.55083333 10.5145833,7.58625 10.5840278,7.618125 C10.5840278,7.58625 10.5840278,7.55720833 10.5840278,7.531 C10.5902778,7.48566667 10.6,7.44104167 10.6125,7.39570833 C10.6375,7.22854167 10.6854167,7.06066667 10.7548611,6.8935 C10.7597222,6.85525 10.7722222,6.81629167 10.7909722,6.77804167 L10.7909722,6.77804167 Z M11.6243056,4.03395833 C11.4604167,3.89866667 11.2736111,3.76975 11.0652778,3.64720833 C9.99166667,3.02245833 8.62777778,2.74904167 6.97361111,2.82625 C6.525,2.85175 6.09305556,2.89708333 5.67569444,2.96154167 C5.65069444,2.97429167 5.62847222,2.98704167 5.60972222,3.0005 C5.37638889,3.13579167 5.15486111,3.26754167 4.94652778,3.39645833 C4.32152778,3.79595833 3.7625,4.182 3.27013889,4.556 C2.95416667,4.80745833 2.66388889,5.055375 2.39861111,5.29975 C2.70138889,5.13258333 3.01736111,4.987375 3.34583333,4.86483333 C3.95208333,4.63320833 4.59583333,4.45895833 5.27777778,4.3435 C5.66944444,4.28541667 6.07013889,4.24716667 6.48055556,4.22733333 C7.61111111,4.16925 8.61180556,4.281875 9.48333333,4.56520833 C9.86875,4.68775 10.23125,4.84854167 10.5722222,5.04829167 C10.9576389,5.26716667 11.2666667,5.51225 11.5006944,5.78283333 C11.7472222,5.531375 12.04375,5.28983333 12.3909722,5.05820833 C12.2590278,4.67854167 12.0034722,4.337125 11.6243056,4.03395833 L11.6243056,4.03395833 Z M12.8368056,0.595 C12.7041667,0.614125 12.575,0.630416667 12.4486111,0.643166667 C11.6909722,0.759333333 10.9583333,0.907375 10.2513889,1.08729167 C9.91041667,1.183625 9.57291667,1.2835 9.23819444,1.38691667 C9.52847222,1.41879167 9.81319444,1.46766667 10.0909722,1.532125 C10.7159722,1.66741667 11.28125,1.88345833 11.7861111,2.17954167 C12.5625,2.63004167 13.0270833,3.17475 13.1784722,3.81225 C13.2166667,3.97304167 13.2319444,4.14375 13.2256944,4.324375 C13.2256944,4.40158333 13.2194444,4.47879167 13.2069444,4.556 C13.2006944,4.562375 13.1972222,4.57229167 13.1972222,4.58504167 C13.3548611,4.50783333 13.5131944,4.43345833 13.6708333,4.362625 C14.1125,4.162875 14.5770833,4.00208333 15.0631944,3.87954167 C15.0694444,3.86041667 15.0791667,3.83775 15.0916667,3.81225 C15.1041667,3.76054167 15.1166667,3.70883333 15.1298611,3.65783333 C15.1486111,3.57425 15.1618056,3.487125 15.1680556,3.39716667 C15.3069444,2.437375 14.8368056,1.64545833 13.7569444,1.02070833 C13.4715278,0.852833333 13.1652778,0.710458333 12.8368056,0.595 L12.8368056,0.595 Z M20.7458333,3.95675 C20.8784722,4.00208333 21.0111111,4.05025 21.14375,4.10195833 C21.3965278,4.17279167 21.6805556,4.19829167 21.9958333,4.17916667 C22.5263889,4.16004167 22.99375,4.03395833 23.3979167,3.80233333 C23.8020833,3.56433333 24.0201389,3.287375 24.0513889,2.97145833 C24.0569444,2.94808333 24.0604167,2.92541667 24.0611111,2.90416667 L24.0611111,2.89425 C24.0673611,2.82341667 24.0576389,2.756125 24.0326389,2.69166667 C23.9756944,2.51741667 23.8493056,2.369375 23.6534722,2.24754167 L23.625,2.22841667 C23.61875,2.22204167 23.6090278,2.2185 23.5965278,2.2185 C23.5902778,2.212125 23.5840278,2.20575 23.5777778,2.199375 L23.5680556,2.18945833 C23.5555556,2.18308333 23.5395833,2.17670833 23.5208333,2.17033333 C23.4194444,2.11225 23.3222222,2.05770833 23.2270833,2.006 C23.0888889,1.931625 22.5680556,1.74320833 22.4256944,1.67379167 C21.9638889,1.44783333 21.7659722,1.63270833 21.4256944,2.02370833 C21.1513889,2.33891667 20.7791667,2.63570833 20.3097222,2.91408333 C19.8486111,3.18466667 19.3625,3.39716667 18.8513889,3.55158333 C19.2430556,3.58345833 19.61875,3.64508333 19.9784722,3.73504167 C20.1930556,3.780375 20.4048611,3.83491667 20.6131944,3.899375 C20.6569444,3.912125 20.7013889,3.93125 20.7458333,3.95675 L20.7458333,3.95675 Z M19.7701389,1.29058333 C19.8020833,1.10358333 19.8048611,0.930041667 19.7798611,0.76925 C19.1291667,0.627583333 18.4506944,0.527708333 17.74375,0.469625 C17.2951389,0.430666667 16.8375,0.408708333 16.3701389,0.402333333 C16.25,0.402333333 16.1305556,0.398791667 16.0104167,0.392416667 C16.0736111,0.444125 16.1368056,0.498666667 16.2,0.55675 C16.7493056,1.07808333 16.9763889,1.69008333 16.8819444,2.39204167 C16.84375,2.70158333 16.7493056,2.99766667 16.5979167,3.281 C16.5347222,3.39716667 16.4652778,3.50625 16.3895833,3.60966667 C16.6486111,3.58416667 16.9104167,3.5615 17.1756944,3.542375 C17.2513889,3.536 17.3243056,3.53245833 17.39375,3.53245833 C17.5388889,3.52608333 17.6902778,3.52254167 17.8486111,3.52254167 C17.8993056,3.48995833 17.95,3.45808333 18,3.42620833 C18.0381944,3.40708333 18.0729167,3.38725 18.1041667,3.368125 C19.1256944,2.768875 19.6819444,2.076125 19.7701389,1.29058333 Z" id="Shape" fill="#FFE5CC"></path>
                            <path d="M10.5826389,7.618125 C10.5131944,7.58625 10.4375,7.55083333 10.3555556,7.511875 C9.99583333,7.35745833 9.60763889,7.23491667 9.19027778,7.14495833 C8.47083333,6.97779167 7.66527778,6.91616667 6.775,6.9615 C6.63611111,6.967875 6.50347222,6.97779167 6.37708333,6.99054167 C5.30972222,7.074125 4.33125,7.30291667 3.44097222,7.67620833 C3.37777778,7.70170833 3.31180556,7.73075 3.24236111,7.76333333 C2.96458333,7.885875 2.69930556,8.024 2.44652778,8.179125 C2.14305556,8.35266667 1.87152778,8.53683333 1.63194444,8.7295 C1.22152778,9.05179167 0.915277778,9.39604167 0.713194444,9.76295833 C0.6125,9.930125 0.533333333,10.104375 0.476388889,10.2842917 C0.527083333,10.5095417 0.602777778,10.7255833 0.703472222,10.9317083 C0.867361111,11.26675 1.11041667,11.5692083 1.43263889,11.8397917 C1.47083333,11.8652917 1.50555556,11.8915 1.53680556,11.917 C1.66319444,11.492 1.89652778,11.0925 2.2375,10.7192083 C2.56597222,10.3459167 3.00763889,9.99458333 3.56319444,9.66591667 C3.60138889,9.64679167 3.63611111,9.62695833 3.66736111,9.60783333 C4.89236111,8.91225 6.30347222,8.52904167 7.90138889,8.45820833 C8.80416667,8.412875 9.61597222,8.47095833 10.3354167,8.63245833 C10.6451389,8.70329167 10.9381944,8.79041667 11.2159722,8.893125 C11.0458333,8.69975 10.9097222,8.51983333 10.8083333,8.35195833 C10.6520833,8.07570833 10.5763889,7.830625 10.5826389,7.618125 L10.5826389,7.618125 Z M10.1944444,6.36225 C10.4277778,6.49754167 10.6270833,6.63566667 10.7909722,6.77733333 C10.8416667,6.66116667 10.9048611,6.54854167 10.9805556,6.43945833 C11.05,6.31691667 11.1291667,6.20429167 11.2173611,6.10158333 C11.2993056,5.99179167 11.3944444,5.88554167 11.5013889,5.78283333 C11.2673611,5.51225 10.9583333,5.267875 10.5729167,5.04829167 C10.2319444,4.84854167 9.86875,4.68775 9.48402778,4.56520833 C8.6125,4.281875 7.61180556,4.16925 6.48125,4.22733333 C6.07083333,4.24645833 5.67013889,4.28541667 5.27847222,4.3435 C4.59652778,4.45966667 3.95277778,4.63320833 3.34652778,4.86483333 C3.07291667,4.96683333 2.80833333,5.08441667 2.55208333,5.21758333 C2.45,5.27070833 2.35347222,5.34154167 2.27013889,5.42229167 C1.96597222,5.71554167 1.70625,6.00666667 1.49027778,6.29495833 C1.41458333,6.39129167 1.34861111,6.48195833 1.29166667,6.56554167 C1.08958333,6.861625 0.925694444,7.154875 0.799305556,7.44458333 C1.07083333,7.20658333 1.39305556,6.97779167 1.76527778,6.75891667 L1.78402778,6.749 C2.47222222,6.3495 3.21388889,6.04704167 4.00972222,5.84091667 C4.66041667,5.67375 5.35486111,5.57670833 6.09305556,5.55120833 C6.32638889,5.53845833 6.55694444,5.53208333 6.78472222,5.53208333 C6.84166667,5.53208333 6.90138889,5.53491667 6.96458333,5.542 C8.06319444,5.5675 9.02013889,5.77716667 9.83472222,6.17029167 C9.96041667,6.22695833 10.0805556,6.29141667 10.1944444,6.36225 L10.1944444,6.36225 Z M16.1993056,0.556041667 C16.1361111,0.497958333 16.0729167,0.443416667 16.0097222,0.391708333 C15.6243056,0.385333333 15.2333333,0.391708333 14.8354167,0.410833333 C14.1534722,0.449791667 13.4875,0.510708333 12.8368056,0.594291667 C13.1652778,0.710458333 13.4715278,0.852125 13.7555556,1.01929167 C14.8354167,1.64404167 15.3055556,2.43595833 15.1666667,3.39575 C15.1604167,3.48570833 15.1479167,3.57283333 15.1284722,3.65641667 C15.1159722,3.708125 15.1034722,3.759125 15.0902778,3.81083333 C15.0777778,3.83633333 15.0680556,3.859 15.0618056,3.878125 C15.1125,3.859 15.1631944,3.84625 15.2131944,3.83916667 C15.5159722,3.76195833 15.8291667,3.6975 16.1506944,3.64579167 C16.2326389,3.63304167 16.3118056,3.62029167 16.3875,3.60683333 C16.4631944,3.504125 16.5326389,3.39433333 16.5958333,3.27816667 C16.7472222,2.99483333 16.8423611,2.69875 16.8798611,2.38920833 C16.9756944,1.69008333 16.7486111,1.07808333 16.1993056,0.556041667 L16.1993056,0.556041667 Z M11.0659722,3.64791667 C11.2743056,3.77045833 11.4604167,3.899375 11.625,4.03466667 C12.0041667,4.337125 12.2597222,4.67854167 12.3923611,5.05891667 C12.5125,4.98170833 12.6388889,4.9045 12.7715278,4.82729167 C12.9104167,4.74370833 13.0527778,4.66295833 13.1979167,4.58575 C13.1979167,4.573 13.2013889,4.56308333 13.2076389,4.55670833 C13.2201389,4.4795 13.2263889,4.40229167 13.2263889,4.32508333 C13.2326389,4.14445833 13.2166667,3.97375 13.1791667,3.81295833 C13.0277778,3.17545833 12.5631944,2.63075 11.7868056,2.18025 C11.2819444,1.88416667 10.7166667,1.668125 10.0916667,1.53283333 C9.81388889,1.468375 9.52986111,1.42020833 9.23888889,1.387625 C7.97569444,1.7935 6.78888889,2.318375 5.67777778,2.96225 C6.09444444,2.89779167 6.52708333,2.85245833 6.97569444,2.82695833 C8.62847222,2.74904167 9.99236111,3.02316667 11.0659722,3.64791667 L11.0659722,3.64791667 Z M19.7791667,0.768541667 C19.8041667,0.929333333 19.8013889,1.10358333 19.7694444,1.289875 C19.68125,2.07541667 19.1256944,2.76816667 18.1020833,3.36670833 C18.0708333,3.38583333 18.0361111,3.40566667 17.9979167,3.42479167 C17.9472222,3.45666667 17.8965278,3.48925 17.8465278,3.521125 C17.9541667,3.51475 18.0645833,3.51475 18.1777778,3.521125 C18.4048611,3.521125 18.6291667,3.53104167 18.85,3.55016667 C19.3618056,3.39575 19.8479167,3.18325 20.3083333,2.91266667 C20.3159722,2.90770833 20.3236111,2.90275 20.3319444,2.8985 C21.4430556,2.411875 23.0708333,1.65325 22.2993056,1.66245833 C22.2326389,1.663875 19.8465278,0.782708333 19.7791667,0.768541667 Z" id="Shape" fill="#FDCA97"></path>
                            <path d="M18.8513889,3.550875 C18.6305556,3.53175 18.40625,3.52183333 18.1791667,3.52183333 C18.0652778,3.51545833 17.9548611,3.51545833 17.8479167,3.52183333 C17.6902778,3.52183333 17.5388889,3.52466667 17.3930556,3.53175 C17.3236111,3.53175 17.2506944,3.53529167 17.175,3.54166667 C16.9097222,3.56079167 16.6479167,3.58345833 16.3888889,3.60895833 C16.3131944,3.62170833 16.2340278,3.63445833 16.1520833,3.64791667 C15.8298611,3.699625 15.5173611,3.76408333 15.2145833,3.84129167 C15.1638889,3.84766667 15.1138889,3.86041667 15.0631944,3.88025 C14.5770833,4.00279167 14.1131944,4.16358333 13.6708333,4.36333333 C13.5131944,4.43416667 13.3548611,4.50854167 13.1972222,4.58575 C13.0520833,4.66295833 12.9097222,4.74370833 12.7708333,4.82729167 C12.6381944,4.9045 12.5118056,4.98170833 12.3916667,5.05891667 C12.0444444,5.29054167 11.7479167,5.53208333 11.5013889,5.78354167 C11.39375,5.88695833 11.2993056,5.99320833 11.2173611,6.10229167 C11.1291667,6.20570833 11.05,6.31833333 10.9805556,6.44016667 C10.9048611,6.54925 10.8416667,6.66258333 10.7909722,6.77804167 C10.7722222,6.817 10.7597222,6.85525 10.7527778,6.89420833 C10.6833333,7.061375 10.6361111,7.22925 10.6104167,7.39641667 C10.5979167,7.44175 10.5881944,7.486375 10.5819444,7.53170833 C10.5819444,7.55720833 10.5819444,7.58625 10.5819444,7.61883333 C10.5756944,7.83133333 10.6513889,8.07641667 10.8090278,8.353375 C10.9104167,8.52054167 11.0458333,8.70116667 11.2166667,8.89454167 C11.2229167,8.91366667 11.2354167,8.93279167 11.2541667,8.952625 L11.2638889,8.96254167 C11.3145833,9.020625 11.3652778,9.07870833 11.4152778,9.13679167 C11.4340278,9.09783333 11.4625,9.06241667 11.5006944,9.03054167 C11.7472222,8.78616667 12.04375,8.54745833 12.3909722,8.31583333 C12.5111111,8.23225 12.6375,8.1515 12.7701389,8.07429167 C12.9090278,7.99070833 13.0513889,7.90995833 13.1965278,7.83275 C13.3541667,7.75554167 13.5125,7.68116667 13.6701389,7.61033333 C14.1118056,7.41695833 14.5763889,7.25616667 15.0625,7.12725 C15.1131944,7.1145 15.1638889,7.10175 15.2138889,7.089 C15.5930556,6.99266667 15.9840278,6.91829167 16.3881944,6.86658333 C16.6472222,6.83470833 16.9090278,6.81204167 17.1743056,6.79929167 C17.25,6.79291667 17.3229167,6.78654167 17.3923611,6.78016667 C17.5375,6.77379167 17.6888889,6.77025 17.8472222,6.77025 C17.9548611,6.763875 18.0652778,6.763875 18.1784722,6.77025 C18.4055556,6.77025 18.6298611,6.78016667 18.8506944,6.79929167 C19.2423611,6.83825 19.6180556,6.89916667 19.9777778,6.98275 C20.1923611,7.02808333 20.4041667,7.082625 20.6125,7.14708333 C20.6569444,7.16620833 20.7006944,7.18604167 20.7451389,7.20516667 C20.8777778,7.2505 21.0104167,7.3015 21.1430556,7.35958333 C21.3958333,7.43041667 21.6798611,7.45591667 21.9951389,7.43679167 C22.5256944,7.41129167 22.9930556,7.282375 23.3972222,7.05004167 C23.7506944,6.84391667 23.9625,6.60591667 24.0319444,6.33533333 L24.0604167,6.151875 C24.0604167,6.13275 24.0604167,6.11008333 24.0604167,6.08458333 L24.0604167,2.90416667 C24.0597222,2.926125 24.0569444,2.94808333 24.0506944,2.97145833 C24.0194444,3.287375 23.8013889,3.56433333 23.3972222,3.80233333 C22.9930556,4.03395833 22.5256944,4.16004167 21.9951389,4.17916667 C21.6791667,4.19829167 21.3951389,4.17279167 21.1430556,4.10195833 C21.0104167,4.05025 20.8777778,4.00208333 20.7451389,3.95675 C20.7006944,3.93125 20.6569444,3.91141667 20.6125,3.89866667 C20.4041667,3.83420833 20.1923611,3.77966667 19.9777778,3.73433333 C19.61875,3.644375 19.2430556,3.58345833 18.8513889,3.550875 Z" id="Shape" fill="#E4B585"></path>
                        </g>
                    </g>
                </g>
            </g>
        </g>
    </g>
</svg>