<?xml version="1.0" encoding="utf-8"?>
<!-- Generator: Adobe Illustrator 19.1.0, SVG Export Plug-In . SVG Version: 6.00 Build 0)  -->
<svg version="1.1" id="Layer_1" xmlns="http://www.w3.org/2000/svg" xmlns:xlink="http://www.w3.org/1999/xlink" x="0px" y="0px"
	 viewBox="0 0 35.393 20.568" style="enable-background:new 0 0 35.393 20.568;" xml:space="preserve">
<style type="text/css">
	.st0{fill:#CAA28A;}
	.st1{fill:#B66F46;}
	.st2{fill:#C68660;}
	.st3{fill:#F9E2D6;}
	.st4{fill:#BF9073;}
	.st5{fill:#AF8266;}
	.st6{fill:#D2B6A5;}
	.st7{fill:#B17F5F;}
	.st8{fill:#EECCB6;}
	.st9{fill:#C48863;}
</style>
<g transform="matrix( 1, 0, 0, 1, 743.7,187.05) ">
	<g>
		<g id="people_0_Layer8_1_FILL">
			<path class="st0" d="M-733.061-170.738h-0.014v1.2l2.319,1.296v-1.173v-0.014L-733.061-170.738z"/>
			<path class="st1" d="M-717.677-176.193c-1.055,0.646-2.269,2.014-3.642,4.105c-1.328,2.028-2.441,3.287-3.341,3.778
				c-0.627,0.345-1.609,0.577-2.946,0.696l-3.137-1.8h-0.014v1.173l3.151,1.759c1.764-0.1,3.019-0.35,3.764-0.75
				c0.9-0.491,2.019-1.75,3.355-3.778c1.364-2.091,2.578-3.46,3.642-4.105c1.091-0.664,2.873-1.05,5.346-1.159
				c1.327-0.045,2.25-0.104,2.769-0.177c0.127-0.018,0.25-0.036,0.368-0.055v-1.255c-0.364,0.1-0.764,0.177-1.2,0.232
				c-0.509,0.073-1.428,0.132-2.755,0.177C-714.789-177.243-716.576-176.857-717.677-176.193z"/>
			<path class="st2" d="M-721.318-172.088c1.373-2.091,2.587-3.46,3.642-4.105c1.1-0.664,2.887-1.05,5.36-1.159
				c1.327-0.046,2.246-0.105,2.755-0.177c0.436-0.055,0.836-0.132,1.2-0.232c0.018,0,0.036-0.005,0.055-0.014l-3.11-1.814
				c-0.4,0.118-0.841,0.209-1.323,0.273c-0.509,0.064-1.428,0.123-2.755,0.177c-2.473,0.1-4.26,0.482-5.36,1.146
				c-1.055,0.655-2.269,2.023-3.642,4.105c-1.327,2.037-2.441,3.296-3.341,3.778c-0.618,0.336-1.587,0.568-2.905,0.696l3.137,1.8
				c1.337-0.118,2.319-0.35,2.946-0.696C-723.759-168.801-722.646-170.06-721.318-172.088z"/>
			<path class="st3" d="M-713.639-180.899c-0.382,0.109-0.8,0.191-1.255,0.245c-0.509,0.064-1.427,0.123-2.755,0.177
				c-2.473,0.1-4.26,0.486-5.36,1.159c-1.055,0.646-2.269,2.009-3.642,4.092c-1.327,2.037-2.441,3.301-3.342,3.792
				c-0.637,0.346-1.659,0.577-3.069,0.696l2.305,1.309l0.014,0.014c1.318-0.127,2.287-0.359,2.905-0.696
				c0.9-0.482,2.014-1.741,3.341-3.778c1.373-2.082,2.587-3.451,3.642-4.105c1.1-0.664,2.887-1.046,5.36-1.146
				c1.328-0.055,2.246-0.114,2.755-0.177c0.482-0.064,0.923-0.155,1.323-0.273L-713.639-180.899z"/>
			<path class="st4" d="M-714.894-180.653c0.455-0.055,0.873-0.136,1.255-0.245l-3.751-2.196c-0.418,0.127-0.882,0.223-1.391,0.286
				c-0.518,0.064-1.441,0.123-2.769,0.177c-2.473,0.1-4.255,0.486-5.346,1.159c-1.064,0.646-2.278,2.01-3.642,4.092
				c-1.337,2.037-2.455,3.301-3.355,3.792c-0.618,0.337-1.6,0.564-2.946,0.682l3.764,2.169h0.014
				c1.409-0.118,2.432-0.35,3.069-0.696c0.9-0.491,2.014-1.755,3.342-3.792c1.373-2.082,2.587-3.446,3.642-4.092
				c1.1-0.673,2.887-1.059,5.36-1.159C-716.322-180.531-715.403-180.59-714.894-180.653z"/>
			<path class="st5" d="M-736.839-172.906v1.255l3.764,2.114v-1.2L-736.839-172.906z"/>
			<path class="st6" d="M-739.458-173.111l2.619,1.459v-1.255l-2.619-1.487V-173.111z"/>
			<path class="st7" d="M-739.458-174.393h-0.014l-4.228-2.215v1.342l4.242,2.155V-174.393z"/>
			<path class="st8" d="M-736.144-175.13c-0.673,0.364-1.778,0.609-3.314,0.736l2.619,1.487c1.346-0.118,2.328-0.346,2.946-0.682
				c0.9-0.491,2.019-1.755,3.355-3.792c1.364-2.082,2.578-3.446,3.642-4.092c1.091-0.673,2.873-1.059,5.346-1.159
				c1.328-0.055,2.25-0.114,2.769-0.177c0.509-0.064,0.973-0.159,1.391-0.286l-2.51-1.473c-0.355,0.091-0.737,0.164-1.146,0.218
				c-0.509,0.073-1.428,0.132-2.755,0.177c-2.482,0.109-4.269,0.495-5.36,1.159c-1.055,0.646-2.269,2.014-3.642,4.105
				C-734.13-176.88-735.244-175.62-736.144-175.13z"/>
			<path class="st9" d="M-739.458-174.393c1.537-0.127,2.641-0.373,3.314-0.736c0.9-0.491,2.014-1.75,3.342-3.778
				c1.373-2.091,2.587-3.46,3.642-4.105c1.091-0.664,2.878-1.05,5.36-1.159c1.328-0.046,2.246-0.105,2.755-0.177
				c0.409-0.055,0.791-0.127,1.146-0.218l-4.228-2.482c-0.373,0.109-0.782,0.191-1.228,0.245c-0.509,0.064-1.428,0.123-2.755,0.177
				c-2.473,0.1-4.26,0.482-5.36,1.146c-1.055,0.655-2.269,2.023-3.642,4.105c-1.328,2.037-2.441,3.296-3.342,3.778
				c-0.673,0.373-1.71,0.872-3.246,0.99l4.228,2.215H-739.458z"/>
		</g>
	</g>
</g>
</svg>
