<?xml version="1.0" encoding="utf-8"?>
<!-- Generator: Adobe Illustrator 19.1.0, SVG Export Plug-In . SVG Version: 6.00 Build 0)  -->
<svg version="1.1" id="Layer_1" xmlns="http://www.w3.org/2000/svg" xmlns:xlink="http://www.w3.org/1999/xlink" x="0px" y="0px"
	 viewBox="0 0 34.125 21.795" style="enable-background:new 0 0 34.125 21.795;" xml:space="preserve">
<style type="text/css">
	.st0{fill:#C5CA8A;}
	.st1{fill:#9BA166;}
	.st2{fill:#3E4055;}
	.st3{fill:#66687D;}
</style>
<g transform="matrix( 1, 0, 0, 1, 1065.25,288.65) ">
	<g>
		<g id="people_0_Layer14_0_FILL">
			<path class="st0" d="M-1051.638-272.256c0.118-0.255,0.186-0.514,0.205-0.777l0.014-0.314c-0.018-1.055-0.687-1.955-2.005-2.701
				c-1.337-0.764-2.96-1.146-4.869-1.146c-1.909,0-3.542,0.387-4.896,1.159c-1.364,0.773-2.05,1.7-2.059,2.782
				c0,0.018,0,0.032,0,0.041v0.068c0.009,0.327,0.082,0.641,0.218,0.941c0.291,0.655,0.882,1.232,1.773,1.732
				c1.346,0.773,2.973,1.155,4.883,1.146c1.909,0,3.546-0.386,4.91-1.159C-1052.547-271.01-1051.938-271.601-1051.638-272.256
				 M-1055.512-274.875c0.036,0.027,0.077,0.05,0.123,0.068c0.691,0.427,1.032,0.941,1.023,1.541c0,0.273-0.077,0.536-0.232,0.791
				c-0.046,0.055-0.091,0.114-0.136,0.177c-0.2,0.237-0.468,0.45-0.805,0.641c-0.782,0.436-1.723,0.655-2.823,0.655
				c-1.091,0-2.023-0.218-2.796-0.655c-0.318-0.191-0.573-0.387-0.764-0.587c-0.055-0.064-0.1-0.127-0.136-0.191
				c-0.182-0.255-0.273-0.527-0.273-0.818c0.018-0.591,0.382-1.1,1.091-1.528c0.036-0.018,0.073-0.041,0.109-0.068
				c0.791-0.446,1.728-0.668,2.81-0.668C-1057.221-275.525-1056.285-275.311-1055.512-274.875z"/>
			<path class="st1" d="M-1055.389-274.806c-0.045-0.018-0.086-0.041-0.123-0.068c-0.773-0.436-1.709-0.65-2.81-0.641
				c-1.082,0-2.019,0.223-2.81,0.668c-0.036,0.027-0.073,0.05-0.109,0.068c-0.709,0.427-1.073,0.937-1.091,1.528
				c0,0.291,0.091,0.564,0.273,0.818c0.036,0.064,0.082,0.127,0.136,0.191c0.173-0.209,0.4-0.395,0.682-0.559
				c0.036-0.027,0.073-0.05,0.109-0.068c0.791-0.455,1.728-0.682,2.81-0.682c1.1-0.009,2.037,0.209,2.81,0.655
				c0.036,0.018,0.077,0.041,0.123,0.068c0.264,0.164,0.482,0.341,0.655,0.532c0.045-0.064,0.091-0.123,0.136-0.177
				c0.155-0.255,0.232-0.518,0.232-0.791C-1054.357-273.865-1054.698-274.379-1055.389-274.806 M-1051.434-273.033
				c-0.018,0.264-0.086,0.523-0.205,0.777c-0.3,0.655-0.909,1.246-1.828,1.773c-1.364,0.773-3.001,1.159-4.91,1.159
				c-1.909,0.009-3.537-0.373-4.883-1.146c-0.891-0.5-1.482-1.077-1.773-1.732c-0.136-0.3-0.209-0.614-0.218-0.941v1.855
				c0,0.027,0,0.055,0,0.082c-0.009,1.1,0.655,2.028,1.991,2.782c1.346,0.764,2.973,1.141,4.883,1.132
				c1.909,0,3.546-0.387,4.91-1.159c1.309-0.746,1.991-1.637,2.046-2.673L-1051.434-273.033z"/>
		</g>
	</g>
</g>
<g transform="matrix( 1, 0, 0, 1, 982.05,352.65) ">
	<g>
		<g id="people_0_Layer13_0_FILL">
			<path class="st2" d="M-967.402-343.88c1.346,0.764,2.973,1.141,4.883,1.132c1.909,0,3.546-0.386,4.91-1.159
				c1.309-0.746,1.991-1.637,2.046-2.673l-0.014-1.909c-0.018,0.264-0.086,0.523-0.205,0.777c-0.3,0.655-0.909,1.246-1.828,1.773
				c-1.364,0.773-3.001,1.159-4.91,1.159c-1.909,0.009-3.537-0.373-4.883-1.146c-0.891-0.5-1.482-1.077-1.773-1.732
				c-0.136-0.3-0.209-0.614-0.218-0.941v1.855c0,0.027,0,0.055,0,0.082C-969.402-345.562-968.738-344.635-967.402-343.88
				 M-959.532-350.263c-0.045-0.018-0.086-0.041-0.123-0.068c-0.773-0.436-1.709-0.65-2.81-0.641c-1.082,0-2.019,0.223-2.81,0.668
				c-0.036,0.027-0.073,0.05-0.109,0.068c-0.709,0.427-1.073,0.936-1.091,1.528c0,0.291,0.091,0.564,0.273,0.818
				c0.036,0.064,0.082,0.127,0.136,0.191c0.173-0.209,0.4-0.396,0.682-0.559c0.036-0.027,0.073-0.05,0.109-0.068
				c0.791-0.455,1.728-0.682,2.81-0.682c1.1-0.009,2.037,0.209,2.81,0.655c0.036,0.018,0.077,0.041,0.123,0.068
				c0.264,0.164,0.482,0.341,0.655,0.532c0.045-0.064,0.091-0.123,0.136-0.177c0.154-0.255,0.232-0.518,0.232-0.791
				C-958.5-349.322-958.841-349.836-959.532-350.263z"/>
			<path class="st3" d="M-962.437-352.65c-1.909,0-3.542,0.386-4.896,1.159c-1.364,0.773-2.05,1.7-2.06,2.782
				c0,0.018,0,0.032,0,0.041v0.068c0.009,0.327,0.082,0.641,0.218,0.941c0.291,0.655,0.882,1.232,1.773,1.732
				c1.346,0.773,2.973,1.155,4.883,1.146c1.909,0,3.546-0.386,4.91-1.159c0.918-0.527,1.528-1.118,1.828-1.773
				c0.118-0.255,0.186-0.514,0.205-0.777l0.014-0.314c-0.018-1.055-0.687-1.955-2.005-2.701
				C-958.904-352.268-960.527-352.65-962.437-352.65 M-959.655-350.331c0.036,0.027,0.077,0.05,0.123,0.068
				c0.691,0.427,1.032,0.941,1.023,1.541c0,0.273-0.077,0.536-0.232,0.791c-0.045,0.055-0.091,0.114-0.136,0.177
				c-0.2,0.236-0.468,0.45-0.805,0.641c-0.782,0.437-1.723,0.655-2.823,0.655c-1.091,0-2.023-0.218-2.796-0.655
				c-0.318-0.191-0.573-0.386-0.764-0.586c-0.055-0.064-0.1-0.127-0.136-0.191c-0.182-0.255-0.273-0.527-0.273-0.818
				c0.018-0.591,0.382-1.1,1.091-1.528c0.036-0.018,0.073-0.041,0.109-0.068c0.791-0.445,1.728-0.668,2.81-0.668
				C-961.364-350.982-960.427-350.768-959.655-350.331z"/>
		</g>
	</g>
</g>
<g transform="matrix( 1, 0, 0, 1, 1075.65,346.65) ">
	<g>
		<g id="people_0_Layer13_19_FILL">
			<path class="st2" d="M-1043.571-326.014c1.309-0.746,1.991-1.637,2.046-2.673l-0.014-1.909c-0.018,0.264-0.086,0.523-0.205,0.777
				c-0.3,0.655-0.909,1.246-1.828,1.773c-1.364,0.773-3.001,1.159-4.91,1.159c-1.909,0.009-3.537-0.373-4.883-1.146
				c-0.891-0.5-1.482-1.077-1.773-1.732c-0.136-0.3-0.209-0.614-0.218-0.941v1.855c0,0.027,0,0.055,0,0.082
				c-0.009,1.1,0.655,2.028,1.991,2.782c1.346,0.764,2.974,1.141,4.883,1.132C-1046.572-324.855-1044.935-325.241-1043.571-326.014
				 M-1045.494-332.37c-0.046-0.018-0.086-0.041-0.123-0.068c-0.773-0.436-1.709-0.65-2.81-0.641c-1.082,0-2.019,0.223-2.81,0.668
				c-0.036,0.027-0.073,0.05-0.109,0.068c-0.709,0.427-1.073,0.936-1.091,1.528c0,0.291,0.091,0.564,0.273,0.818
				c0.036,0.064,0.082,0.127,0.136,0.191c0.173-0.209,0.4-0.396,0.682-0.559c0.036-0.027,0.073-0.05,0.109-0.068
				c0.791-0.455,1.728-0.682,2.81-0.682c1.1-0.009,2.037,0.209,2.81,0.655c0.036,0.018,0.077,0.041,0.123,0.068
				c0.264,0.164,0.482,0.341,0.655,0.532c0.046-0.064,0.091-0.123,0.136-0.177c0.155-0.255,0.232-0.518,0.232-0.791
				C-1044.462-331.429-1044.803-331.943-1045.494-332.37z"/>
			<path class="st3" d="M-1041.525-330.911c-0.018-1.055-0.687-1.955-2.005-2.7c-1.337-0.764-2.96-1.146-4.869-1.146
				c-1.909,0-3.541,0.386-4.896,1.159c-1.364,0.773-2.05,1.7-2.059,2.782c0,0.018,0,0.032,0,0.041v0.068
				c0.009,0.327,0.082,0.641,0.218,0.941c0.291,0.655,0.882,1.232,1.773,1.732c1.346,0.773,2.974,1.155,4.883,1.146
				c1.91,0,3.546-0.386,4.91-1.159c0.918-0.527,1.527-1.118,1.828-1.773c0.118-0.255,0.186-0.514,0.205-0.777L-1041.525-330.911
				 M-1045.617-332.438c0.036,0.027,0.077,0.05,0.123,0.068c0.691,0.427,1.032,0.941,1.023,1.541c0,0.273-0.077,0.536-0.232,0.791
				c-0.046,0.055-0.091,0.114-0.136,0.177c-0.2,0.236-0.468,0.45-0.805,0.641c-0.782,0.436-1.723,0.655-2.823,0.655
				c-1.091,0-2.023-0.218-2.796-0.655c-0.318-0.191-0.573-0.386-0.764-0.586c-0.055-0.064-0.1-0.127-0.136-0.191
				c-0.182-0.255-0.273-0.527-0.273-0.818c0.018-0.591,0.382-1.1,1.091-1.528c0.036-0.018,0.073-0.041,0.109-0.068
				c0.791-0.445,1.728-0.668,2.81-0.668C-1047.326-333.088-1046.39-332.875-1045.617-332.438z"/>
		</g>
	</g>
</g>
</svg>
