<?xml version="1.0" encoding="utf-8"?>
<!-- Generator: Adobe Illustrator 19.1.0, SVG Export Plug-In . SVG Version: 6.00 Build 0)  -->
<svg version="1.1" id="Layer_1" xmlns="http://www.w3.org/2000/svg" xmlns:xlink="http://www.w3.org/1999/xlink" x="0px" y="0px"
	 viewBox="0 0 33.852 24.918" style="enable-background:new 0 0 33.852 24.918;" xml:space="preserve">
<style type="text/css">
	.st0{fill:#815F83;}
	.st1{fill:#937596;}
	.st2{fill:#EFEEEE;}
	.st3{fill:#CFD0D0;}
	.st4{fill:#736077;}
	.st5{fill:#957C99;}
	.st6{fill:#F1F0F0;}
	.st7{fill:#DFDFDE;}
	.st8{fill:#977A9B;}
	.st9{fill:#C19BC7;}
	.st10{fill:#B394B7;}
	.st11{fill:#C6C5C5;}
	.st12{fill:#56AB46;}
</style>
<g transform="matrix( 1, 0, 0, 1, 409.45,416.45) ">
	<g>
		<g id="people_0_Layer11_6_FILL">
			<path class="st0" d="M-408.345-401.665v1.814c0.227,0.364,0.491,0.714,0.791,1.05v-1.814
				C-407.854-400.961-408.118-401.311-408.345-401.665 M-403.776-397.669c-0.018-0.009-0.032-0.018-0.041-0.027
				c-0.409-0.236-0.796-0.473-1.159-0.709v1.814c0.364,0.236,0.75,0.473,1.159,0.709c0.009,0.009,0.023,0.018,0.041,0.027V-397.669
				 M-402.821-397.164c-0.055-0.027-0.109-0.055-0.164-0.082v1.814c0.055,0.027,0.109,0.055,0.164,0.082V-397.164 M-405.713-398.924
				c-0.427-0.318-0.814-0.646-1.159-0.982v1.814c0.346,0.336,0.732,0.664,1.159,0.982V-398.924 M-409.45-405.211v1.473
				c0,0.018,0,0.041,0,0.068c-0.009,0.946,0.164,1.855,0.518,2.728l0.027-1.759c-0.245-0.582-0.409-1.178-0.491-1.787
				C-409.422-404.734-409.441-404.975-409.45-405.211z"/>
			<path class="st1" d="M-408.931-400.942c0.164,0.364,0.359,0.727,0.586,1.091v-1.814c-0.218-0.346-0.405-0.691-0.559-1.036
				L-408.931-400.942 M-402.985-397.246c-0.264-0.136-0.527-0.277-0.791-0.423v1.814c0.264,0.146,0.527,0.286,0.791,0.423V-397.246
				 M-406.872-398.092v-1.814c-0.245-0.227-0.473-0.464-0.682-0.709v1.814C-407.345-398.556-407.117-398.319-406.872-398.092
				 M-405.713-398.924v1.814c0.237,0.173,0.482,0.346,0.737,0.518v-1.814C-405.231-398.578-405.476-398.751-405.713-398.924z"/>
			<path class="st2" d="M-400.298-396.755l-0.123,0.068h0.014l0.273-0.15L-400.298-396.755 M-377.357-412.017h0.014v-0.014
				l1.228-0.696c-0.082-0.046-0.164-0.091-0.246-0.136c-3.692-2.046-8.161-3.069-13.407-3.069
				c-5.255-0.009-9.747,1.005-13.475,3.042c-3.328,1.81-5.187,3.955-5.578,6.438c-0.064,0.318-0.095,0.637-0.095,0.955
				c-0.036,2.901,1.796,5.374,5.496,7.42c0.391,0.218,0.791,0.423,1.2,0.614l0.014,0.014v-0.027l1.296-0.655l0.027-0.014
				c-0.009-0.009-0.018-0.014-0.027-0.014c-0.027-0.018-0.055-0.032-0.082-0.041c-0.518-0.227-1.018-0.468-1.5-0.723
				c-0.509-0.264-0.973-0.536-1.391-0.818c-2.5-1.646-3.737-3.564-3.71-5.756c0.027-2.546,1.778-4.724,5.251-6.533
				c0.746-0.391,1.523-0.732,2.332-1.023c2.964-1.118,6.374-1.678,10.229-1.678c3.655,0,6.906,0.514,9.752,1.541
				C-379.094-412.863-378.203-412.472-377.357-412.017z"/>
			<path class="st3" d="M-402.207-397.478v0.027v1.8l1.296-0.75v-1.732L-402.207-397.478 M-400.298-398.46v0.027v1.678l0.164-0.082
				l1.459-0.859v-1.582L-400.298-398.46z"/>
			<path class="st4" d="M-402.221-397.465l-0.6,0.3v1.814c0.018,0.009,0.036,0.018,0.055,0.027l0.559-0.327v-1.8L-402.221-397.465z"
				/>
			<path class="st5" d="M-400.312-398.447l-0.573,0.3l-0.027,0.014v1.732l0.491-0.286l0.123-0.068v-1.678L-400.312-398.447z"/>
			<path class="st6" d="M-377.534-410.067h0.014l0.327-0.191l-0.15,0.082L-377.534-410.067 M-379.28-410.94l1.446-0.805
				c-3.31-1.655-7.292-2.482-11.948-2.482c-4.774,0-8.852,0.85-12.234,2.551c-3.382,1.709-5.092,3.769-5.128,6.178
				c-0.018,1.519,0.618,2.896,1.909,4.133c0.782,0.746,1.8,1.441,3.055,2.087c0.4,0.209,0.814,0.405,1.241,0.586
				c0.2,0.082,0.409,0.164,0.627,0.245l0.014,0.014v-0.027l1.623-0.818c-0.727-0.237-1.423-0.5-2.087-0.791
				c-0.127-0.055-0.255-0.114-0.382-0.177c-2.464-1.155-3.928-2.51-4.392-4.064c-0.027-0.109-0.055-0.209-0.082-0.3
				c-0.045-0.282-0.068-0.568-0.068-0.859c0.027-2.046,1.591-3.787,4.692-5.224c3.091-1.427,6.824-2.141,11.198-2.141
				C-385.731-412.836-382.226-412.204-379.28-410.94z"/>
			<path class="st7" d="M-377.534-410.067l-0.3,0.164l-1.446,0.832v-1.869c-2.946-1.264-6.451-1.896-10.516-1.896
				c-4.374,0-8.106,0.714-11.198,2.141c-3.101,1.437-4.665,3.178-4.692,5.224c0,0.291,0.023,0.577,0.068,0.859
				c0.7-1.682,2.241-3.078,4.624-4.187c3.091-1.427,6.824-2.141,11.198-2.141c4.046,0,7.547,0.627,10.502,1.882l0.014,0.014h0.014
				l1.746-1.023H-377.534z"/>
			<path class="st8" d="M-376.102-410.899l0.505-0.286v-1.828l-0.505,0.286v0.014V-410.899 M-377.343-412.017h-0.014l-0.477,0.273
				v1.841l0.3-0.164l0.191-0.109V-412.017z"/>
			<path class="st9" d="M-376.361-412.863c0.082,0.046,0.164,0.091,0.246,0.136c0.009,0,0.013,0.005,0.014,0.014v-0.014l0.505-0.286
				c-0.127-0.073-0.255-0.146-0.382-0.218c-3.801-2.146-8.397-3.219-13.789-3.219c-5.41-0.009-10.034,1.055-13.871,3.191
				s-5.774,4.728-5.81,7.774c0,0.009,0,0.018,0,0.027v0.245c0.009,0.236,0.027,0.477,0.055,0.723
				c0.082,0.609,0.246,1.205,0.491,1.787c0.155,0.345,0.341,0.691,0.559,1.036c0.227,0.355,0.491,0.705,0.791,1.05
				c0.209,0.245,0.436,0.482,0.682,0.709c0.346,0.336,0.732,0.664,1.159,0.982c0.237,0.173,0.482,0.345,0.737,0.518
				c0.364,0.236,0.75,0.473,1.159,0.709c0.009,0.009,0.023,0.018,0.041,0.027c0.264,0.145,0.527,0.286,0.791,0.423
				c0.055,0.027,0.109,0.055,0.164,0.082l0.6-0.3c-0.409-0.191-0.809-0.395-1.2-0.614c-3.701-2.046-5.533-4.519-5.496-7.42
				c0-0.318,0.032-0.637,0.095-0.955c0.391-2.482,2.25-4.628,5.578-6.438c3.728-2.037,8.22-3.051,13.475-3.042
				C-384.522-415.932-380.053-414.909-376.361-412.863z"/>
			<path class="st10" d="M-377.834-411.745l0.477-0.273c-0.846-0.455-1.737-0.846-2.673-1.173c-2.846-1.027-6.097-1.541-9.752-1.541
				c-3.855,0-7.265,0.559-10.229,1.678c-0.809,0.291-1.587,0.632-2.332,1.023c-3.473,1.809-5.224,3.987-5.251,6.533
				c-0.027,2.191,1.209,4.11,3.71,5.756c0.418,0.282,0.882,0.555,1.391,0.818c0.482,0.255,0.982,0.496,1.5,0.723
				c0.027,0.009,0.055,0.023,0.082,0.041c0.009,0,0.018,0.004,0.027,0.014l0.573-0.3c-0.218-0.082-0.427-0.164-0.627-0.245
				c-0.427-0.182-0.841-0.377-1.241-0.586c-1.255-0.646-2.273-1.341-3.055-2.087c-1.291-1.237-1.928-2.614-1.909-4.133
				c0.036-2.41,1.746-4.469,5.128-6.178c3.383-1.7,7.461-2.551,12.234-2.551C-385.127-414.227-381.144-413.399-377.834-411.745z"/>
			<path class="st11" d="M-377.834-411.745l-1.446,0.805v1.869l1.446-0.832V-411.745 M-377.343-412.031v0.014v1.841l0.15-0.082
				l1.091-0.641v-1.814c0-0.009-0.005-0.014-0.014-0.014L-377.343-412.031z"/>
		</g>
	</g>
</g>
<g>
	<g>
		<path class="st12" d="M23.414,24.301c0.211,0.293,0.443,0.475,0.788,0.589c0.612,0.203,0.875-0.762,0.266-0.964
			c-0.081-0.018-0.144-0.061-0.19-0.13C23.905,23.278,23.037,23.777,23.414,24.301L23.414,24.301z"/>
	</g>
</g>
</svg>
