<?xml version="1.0" encoding="UTF-8"?>
<svg width="184px" height="247px" viewBox="0 0 184 247" version="1.1" xmlns="http://www.w3.org/2000/svg" xmlns:xlink="http://www.w3.org/1999/xlink">
    <!-- Generator: Sketch 47 (45396) - http://www.bohemiancoding.com/sketch -->
    <title>logo</title>
    <desc>Created with Sketch.</desc>
    <defs></defs>
    <g id="Page-1" stroke="none" stroke-width="1" fill="none" fill-rule="evenodd">
        <g id="logo" fill-rule="nonzero" fill="#FFFFFF">
            <path d="M18.1583703,147 L18.1583703,173.987788 C18.1583703,174.829041 17.8707971,175.534597 17.2956423,176.104478 C16.6930991,176.701496 15.9810132,177 15.1593634,177 L3.04008914,177 C2.19105099,177 1.47896516,176.701496 0.90381028,176.104478 C0.30126708,175.534597 0,174.829041 0,173.987788 L0,147 L6.03909599,147 L6.03909599,171.016282 L12.1192743,171.016282 L12.1192743,147 L18.1583703,147 Z M29.7307574,171.016282 L29.7307574,147 L23.6916614,147 L23.6916614,177 L41.8500317,177 L41.8500317,171.016282 L29.7307574,171.016282 Z M65.541693,147 L47.3833228,147 L47.3833228,152.983718 L53.4224188,152.983718 L53.4224188,177 L59.5025971,177 L59.5025971,152.983718 L65.541693,152.983718 L65.541693,147 Z M71.0749842,147 L77.1140802,147 L77.1140802,177 L71.0749842,177 L71.0749842,147 Z M112.925016,149.971506 L112.925016,177 L106.88592,177 L106.88592,152.983718 L100.805742,152.983718 L100.805742,177 L94.7666456,177 L94.7666456,152.983718 L88.6864673,152.983718 L88.6864673,177 L82.6473713,177 L82.6473713,149.971506 C82.6473713,149.157391 82.9486384,148.451835 83.5511816,147.854817 C84.1263365,147.284936 84.8384223,147 85.6874604,147 L94.7666456,147 C95.6156837,147 96.3277695,147.284936 96.9029244,147.854817 C97.5054676,148.451835 97.8067347,149.157391 97.8067347,149.971506 C97.8067347,149.157391 98.0943078,148.451835 98.6694627,147.854817 C99.272006,147.284936 99.984092,147 100.805742,147 L109.926009,147 C110.747659,147 111.459745,147.284936 112.062288,147.854817 C112.637443,148.451835 112.925016,149.157391 112.925016,149.971506 Z M136.616677,177 L130.577581,177 L130.577581,164.991859 L124.497403,164.991859 L124.497403,177 L118.458307,177 L118.458307,149.971506 C118.458307,149.157391 118.759574,148.451835 119.362117,147.854817 C119.937272,147.284936 120.649358,147 121.498396,147 L133.61767,147 C134.43932,147 135.151406,147.284936 135.753949,147.854817 C136.329104,148.451835 136.616677,149.157391 136.616677,149.971506 L136.616677,177 Z M130.577581,159.008141 L130.577581,152.983718 L124.497403,152.983718 L124.497403,159.008141 L130.577581,159.008141 Z M160.308339,147 L142.149968,147 L142.149968,152.983718 L148.189064,152.983718 L148.189064,177 L154.269243,177 L154.269243,152.983718 L160.308339,152.983718 L160.308339,147 Z M184,152.983718 L184,147 L165.84163,147 L165.84163,177 L184,177 L184,171.016282 L171.880726,171.016282 L171.880726,164.991859 L181.000993,164.991859 L181.000993,159.008141 L171.880726,159.008141 L171.880726,152.983718 L184,152.983718 Z" id="ULTIMATE"></path>
            <path d="M32.440367,198.348711 L32.440367,219.963365 C32.440367,221.47762 31.9266106,222.772043 30.8990826,223.846676 C29.8226246,224.872461 28.5504661,225.385346 27.0825688,225.385346 L10.7889908,225.385346 L10.7889908,247 L0,247 L0,193 L27.0825688,193 C28.5504661,193 29.8226246,193.512885 30.8990826,194.53867 C31.9266106,195.613303 32.440367,196.883303 32.440367,198.348711 Z M10.7889908,214.614654 L21.6513761,214.614654 L21.6513761,203.770692 L10.7889908,203.770692 L10.7889908,214.614654 Z M43.3027523,193 L54.0917431,193 L54.0917431,247 L43.3027523,247 L43.3027523,193 Z M64.9541284,193 L64.9541284,203.770692 L84.6972477,203.770692 C81.4189439,209.1927 74.8379699,220.012131 64.9541284,236.229308 L64.9541284,247 L97.3944954,247 L97.3944954,236.229308 L77.6513761,236.229308 C82.0550679,228.999964 88.6360418,218.180533 97.3944954,203.770692 L97.3944954,193 L64.9541284,193 Z M108.256881,193 L108.256881,203.770692 L128,203.770692 C124.721696,209.1927 118.140722,220.012131 108.256881,236.229308 L108.256881,247 L140.697248,247 L140.697248,236.229308 L120.954128,236.229308 C125.35782,228.999964 131.938794,218.180533 140.697248,203.770692 L140.697248,193 L108.256881,193 Z M184,247 L173.211009,247 L173.211009,225.385346 L162.348624,225.385346 L162.348624,247 L151.559633,247 L151.559633,198.348711 C151.559633,196.883303 152.097854,195.613303 153.174312,194.53867 C154.20184,193.512885 155.473999,193 156.990826,193 L178.642202,193 C180.110099,193 181.382258,193.512885 182.458716,194.53867 C183.486244,195.613303 184,196.883303 184,198.348711 L184,247 Z M173.211009,214.614654 L173.211009,203.770692 L162.348624,203.770692 L162.348624,214.614654 L173.211009,214.614654 Z" id="PIZZA"></path>
            <path d="M91.5736337,9.3893073 C105.325502,9.3893073 118.773329,12.8103183 130.753957,19.3208238 L127.449508,24.6400666 C127.296487,24.5741627 127.140466,24.5142501 126.987445,24.4493447 C126.670402,24.3165384 126.353359,24.1867277 126.036316,24.0559185 C125.592255,23.875182 125.148195,23.6974412 124.703135,23.5246932 C124.383091,23.3998752 124.061047,23.2760558 123.740004,23.155232 C123.291943,22.9854795 122.840882,22.8217183 122.390821,22.6599542 C122.072777,22.5461202 121.754734,22.4312877 121.434691,22.3204493 C120.970628,22.1596838 120.504564,22.0059081 120.037501,21.8521323 C119.730459,21.7522779 119.424417,21.6494279 119.116376,21.5515706 C118.612307,21.3918036 118.105238,21.240025 117.598169,21.0902434 C117.328133,21.0093613 117.058096,20.9264822 116.787059,20.8485958 C116.124969,20.6578739 115.460879,20.4781361 114.795789,20.3033909 C114.677773,20.2734346 114.560757,20.2394841 114.441741,20.2085292 C113.656634,20.0058248 112.868527,19.815103 112.076419,19.633368 C111.847388,19.5814437 111.618357,19.5355107 111.388326,19.484585 C110.826249,19.3607656 110.263173,19.2369461 109.698096,19.1241107 C109.398055,19.064198 109.096014,19.0092781 108.794973,18.9523611 C108.297906,18.8574995 107.800838,18.7636364 107.30077,18.6777616 C106.974726,18.6218431 106.648682,18.5699189 106.322637,18.516996 C105.844573,18.4401082 105.366508,18.3642188 104.887442,18.2953193 C104.548396,18.2463907 104.21035,18.2004577 103.871304,18.1545247 C103.39924,18.0916164 102.924176,18.0317038 102.450111,17.9757853 C102.109065,17.9358436 101.768019,17.8969004 101.427972,17.8609528 C100.946907,17.810027 100.465842,17.764094 99.984776,17.7201581 C99.648731,17.6902018 99.312685,17.6582484 98.9756393,17.6332848 C98.4775716,17.593343 97.9765036,17.5603911 97.4764356,17.5284377 C97.1563921,17.5084668 96.8373488,17.4864989 96.5173053,17.4695236 C95.9672306,17.4405658 95.4151556,17.4195964 94.8630806,17.4016226 C94.5920437,17.3906387 94.3210069,17.3776576 94.0509702,17.3706678 C93.2268583,17.3486998 92.400746,17.3367173 91.5736337,17.3367173 C90.7195176,17.3367173 89.868402,17.3496984 89.0182865,17.3726649 C88.7412489,17.3796547 88.4642112,17.3946328 88.1861734,17.4046183 C87.6150959,17.4255877 87.0440183,17.4465571 86.474941,17.4765134 C86.1448961,17.4944872 85.8178517,17.5184523 85.488807,17.5394217 C84.9727369,17.5733722 84.4566667,17.6083212 83.9425969,17.65026 C83.5955498,17.6782193 83.2505029,17.7111712 82.9044559,17.7431246 C82.4073883,17.7900562 81.9113209,17.8379863 81.4162537,17.8919076 C81.0662061,17.9308508 80.7171587,17.9717911 80.3671111,18.01373 C79.8770446,18.0736426 79.3879781,18.1365509 78.8999118,18.2044518 C78.5508644,18.2523819 78.2028171,18.300312 77.8557699,18.3532349 C77.3637031,18.4261286 76.8736365,18.5050135 76.3845701,18.5868941 C76.045524,18.6428126 75.7074781,18.698731 75.3694321,18.7586436 C74.8633634,18.8495111 74.3582948,18.9463699 73.8532262,19.0462243 C73.5351829,19.108134 73.2181399,19.1670481 72.9020969,19.2329519 C72.3500219,19.3467859 71.8009473,19.4696068 71.2518727,19.5944248 C70.9868367,19.6543374 70.7198004,19.7102559 70.4547644,19.7731641 C69.6626568,19.9598918 68.8735496,20.1576035 68.0874428,20.3653006 C68.06644,20.3712919 68.0474374,20.375286 68.0284348,20.3802788 C67.2193249,20.5949657 66.4132154,20.8226337 65.6101062,21.0612856 C65.3620725,21.1341793 65.1160391,21.2140628 64.8690056,21.2899522 C64.3169305,21.4587061 63.7648555,21.6284585 63.2157809,21.8081964 C62.9137399,21.9070522 62.6136991,22.0118993 62.3126582,22.1127522 C61.8195913,22.279509 61.3275244,22.4472644 60.8364577,22.6230081 C60.5164142,22.7378406 60.1973709,22.8566674 59.8773274,22.9754941 C59.4082637,23.1482421 58.9412002,23.3249844 58.4731366,23.5067194 C58.1470923,23.634533 57.821048,23.7643437 57.4960039,23.8951529 C57.0369415,24.0798835 56.5778791,24.2686083 56.1218172,24.4603287 C55.7977731,24.5981277 55.4737291,24.7349282 55.1506852,24.8757229 C54.9666602,24.956605 54.7806349,25.0314957 54.5976101,25.1133763 L51.270158,19.9379239 C63.5288235,13.0230081 77.3657034,9.3893073 91.5736337,9.3893073 Z M91.5046243,82.5096734 L59.74931,33.1236946 C60.1893698,32.9369669 60.6304297,32.7562305 61.0724898,32.5774912 C61.2345118,32.5125858 61.3955336,32.4446848 61.5575557,32.3797795 C62.2466493,32.1081756 62.9397434,31.8465571 63.6348379,31.5939255 C63.8008604,31.5340129 63.9688833,31.4780944 64.1349058,31.4191804 C64.6639777,31.2304556 65.1950499,31.0467235 65.7271221,30.8689827 C65.9781562,30.7851051 66.2311906,30.7072186 66.4832249,30.625338 C66.9362864,30.4795507 67.3883478,30.3367589 67.8434097,30.1999584 C68.118447,30.1170793 68.3944845,30.0361972 68.6695219,29.9563137 C69.1085815,29.8285001 69.5486413,29.7046807 69.9887011,29.5848554 C70.2687392,29.5089661 70.5497773,29.4330768 70.8308155,29.3591845 C71.2808767,29.2423549 71.731938,29.130518 72.1839994,29.0216767 C72.4510357,28.9567714 72.7180719,28.8898689 72.9861083,28.8279592 C73.4951775,28.7101311 74.0072471,28.6002912 74.5193167,28.4924485 C74.7283451,28.4495111 74.9363733,28.4005825 75.1464018,28.3576451 C75.8674998,28.2118577 76.5915982,28.0740587 77.3176968,27.9482421 C77.4397134,27.9272727 77.56173,27.9092989 77.6827464,27.8883295 C78.2898289,27.7854795 78.8959113,27.6876222 79.504994,27.5997504 C79.7590285,27.5608072 80.0140632,27.5298523 80.2680977,27.4959018 C80.749163,27.4289994 81.2302284,27.3650926 81.7112938,27.3081756 C81.9973326,27.2742251 82.2843716,27.2442688 82.5724108,27.2123154 C83.0284727,27.1633867 83.4865349,27.1174537 83.9455973,27.0755149 C84.2396373,27.0485542 84.5326771,27.0235906 84.826717,26.9996255 C85.2907801,26.963678 85.753843,26.930726 86.2189062,26.9017683 C86.5039449,26.8827959 86.7879835,26.8638236 87.0730222,26.8488454 C87.5770907,26.8218848 88.0841596,26.8019139 88.5902283,26.7849386 C88.8342615,26.7759517 89.0762944,26.7639692 89.3203275,26.7569794 C90.0704294,26.7370085 90.8205313,26.7260245 91.5736337,26.7260245 C92.3037329,26.7260245 93.0328319,26.7370085 93.7599307,26.7559809 C93.9919622,26.7619721 94.2249939,26.7729561 94.4590257,26.7809445 C94.9530928,26.7969212 95.4471599,26.8158935 95.9392268,26.8428542 C96.2142641,26.8568338 96.4883014,26.8728105 96.7613385,26.8907843 C97.2154002,26.9187435 97.6684617,26.9496984 98.1205231,26.9836488 C98.4035616,27.0066154 98.6855999,27.0305804 98.9676382,27.0545455 C99.4197,27.0954857 99.869761,27.1384231 100.320822,27.1873518 C100.590859,27.215311 100.861896,27.2442688 101.131932,27.2742251 C101.618998,27.3301435 102.104064,27.3920533 102.58913,27.4569586 C102.817161,27.4869149 103.046192,27.5148741 103.274223,27.5468275 C103.957316,27.6446848 104.639409,27.7495319 105.319501,27.8643645 C105.346505,27.8683586 105.372508,27.8713543 105.399512,27.876347 C106.107608,27.9961722 106.814704,28.1259829 107.5188,28.2647805 C107.731829,28.3067194 107.944858,28.3546495 108.157887,28.3975869 C108.646953,28.4974412 109.13602,28.6002912 109.623086,28.7091325 C109.880121,28.7670481 110.136156,28.8279592 110.39219,28.8888704 C110.838251,28.9937175 111.283311,29.1005617 111.726372,29.2123986 C111.992408,29.2802996 112.258444,29.347202 112.52348,29.4190971 C112.96254,29.5339297 113.400599,29.6547535 113.836658,29.7785729 C114.095694,29.8514666 114.354729,29.9223632 114.611764,29.9982525 C115.076827,30.1340545 115.53989,30.2758477 116.001953,30.4206366 C116.224983,30.4905346 116.449013,30.5564385 116.670043,30.6283337 C117.293128,30.8300395 117.914212,31.0367381 118.532296,31.2534221 C118.591304,31.273393 118.650312,31.2913668 118.70932,31.3123362 C119.387412,31.5509881 120.060504,31.798627 120.732595,32.0542542 C120.938623,32.1331392 121.141651,32.2160183 121.347679,32.2969004 C121.707728,32.4366965 122.067777,32.5804868 122.425825,32.7272727 L91.5046243,82.5096734 Z M87.616096,93.8421469 C88.4822137,95.1891824 89.9724161,96 91.5736337,96 C91.5846352,96 91.5976369,96 91.6096386,96 C93.2238579,95.9880175 94.719061,95.1502392 95.5691765,93.7802372 L141.292388,20.1685875 C142.661575,17.9667984 141.983482,15.0750156 139.779183,13.7070106 C125.326219,4.73908883 108.657955,0 91.5736337,0 C73.9802434,0 56.8929219,5.00170585 42.1589201,14.4649053 C39.9766237,15.8668608 39.3435376,18.7686291 40.7457281,20.9484502 L87.616096,93.8421469 L87.616096,93.8421469 Z" id="Fill-58"></path>
            <path d="M168.38403,123.609814 C168.367009,123.509961 168.346984,123.410108 168.328962,123.310255 C168.274895,123.003706 168.215823,122.696158 168.159754,122.390608 C168.079655,121.960241 167.997554,121.529874 167.91245,121.102503 C167.84737,120.783972 167.780287,120.468436 167.713205,120.1529 C167.624095,119.734515 167.532983,119.317129 167.437866,118.900742 C167.365778,118.583209 167.292688,118.266675 167.216594,117.949142 C167.116471,117.532755 167.013344,117.116367 166.907214,116.701977 C166.828117,116.392432 166.750021,116.081889 166.66792,115.774341 C166.55478,115.344973 166.434633,114.917602 166.314485,114.492228 C166.232384,114.200657 166.153287,113.909085 166.068182,113.619511 C165.929011,113.144211 165.782831,112.671906 165.637653,112.201597 C165.563562,111.962949 165.493476,111.722303 165.417382,111.484652 C165.194108,110.786679 164.962823,110.091701 164.72453,109.399719 C164.658449,109.209998 164.587362,109.022275 164.520279,108.833552 C164.340057,108.322304 164.158835,107.813054 163.968601,107.3058 C163.866475,107.031204 163.758342,106.757606 163.653213,106.485007 C163.492015,106.065624 163.329815,105.645243 163.16261,105.229854 C163.043463,104.934289 162.921313,104.640721 162.799163,104.347152 C162.636963,103.95473 162.472762,103.563306 162.305556,103.173878 C162.175396,102.873321 162.043233,102.573761 161.911071,102.274202 C161.741863,101.891765 161.569651,101.512323 161.395437,101.131883 C161.258268,100.833322 161.120098,100.53576 160.979926,100.239196 C160.799705,99.858756 160.616479,99.480312 160.43025,99.10087 C160.289077,98.812295 160.147903,98.5237195 160.002725,98.2351441 C159.805482,97.845717 159.604235,97.4572884 159.401986,97.0678613 C159.261814,96.7992565 159.122643,96.5286546 158.979467,96.2610483 C158.747181,95.8226931 158.506886,95.3913277 158.26659,94.9579653 C158.147444,94.7432811 158.031301,94.5265999 157.911153,94.3139128 C157.55071,93.6778485 157.186262,93.0467769 156.811801,92.4216965 C156.698662,92.2339727 156.581518,92.0482459 156.467378,91.8605221 C156.196044,91.4141787 155.924711,90.9688339 155.646368,90.5274832 C155.489175,90.2778504 155.325975,90.0302147 155.165778,89.7815805 C154.924481,89.4071314 154.682183,89.0316837 154.43588,88.6602302 C154.259664,88.396618 154.080443,88.1350028 153.902224,87.8723892 C153.661929,87.5199077 153.420632,87.1674263 153.17533,86.8179404 C152.989101,86.5523312 152.80087,86.2867219 152.611637,86.0241083 C152.365334,85.6806136 152.117029,85.339116 151.866721,84.9996154 C151.674485,84.7399974 151.481247,84.4793808 151.286007,84.2207612 C151.026689,83.876268 150.764366,83.5367675 150.501042,83.1952699 C150.307805,82.9476342 150.11657,82.700997 149.92133,82.4553584 C149.637981,82.0988828 149.351629,81.7454029 149.062273,81.3939199 C148.880049,81.1692505 148.699828,80.944581 148.5146,80.7229071 C148.168174,80.3075182 147.814739,79.8971219 147.461305,79.4877242 C147.330144,79.3339504 147.199984,79.1781796 147.06682,79.0264029 C146.580222,78.4702211 146.085613,77.9210291 145.584998,77.3748326 C145.442823,77.2210588 145.298646,77.0712792 145.156471,76.9175054 C144.789019,76.5240842 144.421568,76.1336585 144.048108,75.7462285 C143.851867,75.5415296 143.651621,75.342822 143.454378,75.1401202 C143.126976,74.8086079 142.800574,74.4770956 142.469167,74.1505759 C142.250899,73.9358918 142.030628,73.7232047 141.809356,73.5115161 C141.489963,73.2009729 141.167567,72.8924268 140.843168,72.5878749 C140.614887,72.3741892 140.385605,72.1625007 140.156323,71.9498136 C139.828921,71.6492557 139.499516,71.350695 139.168108,71.0551298 C138.936824,70.8474353 138.704538,70.6427365 138.471252,70.4370391 C138.128831,70.1384783 137.783406,69.8419146 137.43698,69.5463494 C137.210702,69.3536329 136.984423,69.1609164 136.755142,68.9711955 C136.378679,68.6566583 135.996208,68.3481122 135.613738,68.0405646 C135.409487,67.875807 135.207238,67.7080538 135.001986,67.5462918 C134.949922,67.505352 134.897858,67.4614166 134.846795,67.4204769 L138.669495,61.2735199 C159.337907,75.7392388 172.040525,98.5047475 173.453262,123.609814 L168.38403,123.609814 Z M99.905835,123.609814 L129.845646,75.4626457 C129.935757,75.5355385 130.024867,75.6094297 130.114977,75.6823225 C130.952007,76.3663163 131.778022,77.0602953 132.585014,77.774245 C132.621059,77.8051995 132.655101,77.8391495 132.691145,77.870104 C133.482117,78.5730698 134.25707,79.2930107 135.020008,80.0239354 C135.141157,80.1407635 135.26531,80.2555946 135.386459,80.3744198 C136.138383,81.1033474 136.874288,81.8492501 137.596176,82.6061366 C137.733344,82.7499251 137.869512,82.892715 138.004678,83.0385005 C138.731572,83.8113635 139.446451,84.5932133 140.142306,85.3930367 C140.212392,85.4719206 140.278474,85.5538002 140.347558,85.6336826 C141.023389,86.416531 141.685203,87.2133587 142.329996,88.0201718 C142.407091,88.1150322 142.485187,88.2088941 142.560279,88.3047531 C143.218088,89.1325353 143.854871,89.976294 144.478638,90.828041 C144.591777,90.9838118 144.703915,91.1365871 144.816053,91.2923579 C145.43181,92.1451034 146.032548,93.0078342 146.614263,93.8835459 C146.691358,94.0013726 146.768453,94.1211963 146.846549,94.2400215 C147.425261,95.1197273 147.988954,96.010417 148.533623,96.9120905 C148.56366,96.9610185 148.594698,97.008948 148.623734,97.0588745 C149.176414,97.9785216 149.707066,98.9121481 150.223701,99.852764 C150.309807,100.011531 150.396914,100.167302 150.482019,100.326068 C150.980632,101.247712 151.460222,102.176346 151.92279,103.114965 C151.996881,103.26774 152.06897,103.420516 152.143061,103.571294 C153.089224,105.527416 153.958293,107.521483 154.747263,109.546503 C154.809339,109.70527 154.872417,109.861041 154.93149,110.018809 C155.304949,110.993375 155.657382,111.975929 155.992794,112.965474 C156.05387,113.146208 156.112942,113.32794 156.174017,113.507676 C156.507427,114.518189 156.82682,115.535692 157.122183,116.558188 C157.146213,116.642065 157.167238,116.724943 157.190267,116.806822 C157.472614,117.798364 157.733935,118.796895 157.977234,119.79942 C158.013279,119.945205 158.051325,120.09199 158.086368,120.237775 C158.328666,121.255278 158.547936,122.277774 158.750185,123.306261 C158.770209,123.407113 158.788231,123.508963 158.808256,123.609814 L99.905835,123.609814 Z M24.1917439,123.609814 C24.2117686,123.508963 24.230792,123.407113 24.2498153,123.306261 C24.452064,122.277774 24.6713336,121.255278 24.9136315,120.237775 C24.9486746,120.09199 24.9867214,119.945205 25.0227657,119.79942 C25.2670661,118.796895 25.5273861,117.798364 25.8097333,116.806822 C25.8327616,116.724943 25.8537874,116.642065 25.877817,116.558188 C26.1731801,115.535692 26.4935741,114.518189 26.826984,113.507676 C26.8870579,113.32794 26.9461305,113.146208 27.0072056,112.965474 C27.342618,111.975929 27.6950513,110.993375 28.0685105,110.016812 C28.1285843,109.861041 28.1906606,109.70527 28.2507345,109.549499 C29.0407058,107.522481 29.9097743,105.527416 30.8569389,103.571294 C30.93103,103.420516 31.0031186,103.26774 31.0772097,103.114965 C31.5397784,102.176346 32.0203693,101.247712 32.5179811,100.326068 C32.6030858,100.167302 32.6901929,100.011531 32.7762987,99.852764 C33.2939352,98.9121481 33.8235864,97.9785216 34.3762659,97.0588745 C34.4053016,97.008948 34.437341,96.9610185 34.4663767,96.9120905 C35.0110464,96.010417 35.5747394,95.1197273 36.153451,94.2400215 C36.231547,94.1211963 36.3086418,94.0013726 36.3857366,93.8835459 C36.9674518,93.0078342 37.5691916,92.1451034 38.1839475,91.2923579 C38.2960854,91.1365871 38.4082232,90.9838118 38.5213623,90.828041 C39.1451293,89.976294 39.7819122,89.1325353 40.439721,88.3047531 C40.5148133,88.2088941 40.5939105,88.1150322 40.6690029,88.0201718 C41.3157981,87.2123602 41.9776118,86.4155324 42.654444,85.6316856 C42.7225277,85.5528016 42.7886089,85.4719206 42.8576939,85.3930367 C43.5535494,84.5942118 44.2674272,83.8113635 44.9953221,83.0385005 C45.1304883,82.892715 45.2666557,82.7499251 45.4038244,82.6061366 C46.1257119,81.8492501 46.8616167,81.1033474 47.6135412,80.3744198 C47.7346902,80.2555946 47.8588428,80.1407635 47.9799918,80.0239354 C48.7429298,79.2930107 49.5178826,78.5730698 50.3088551,77.870104 C50.3448995,77.8391495 50.3789413,77.8051995 50.4149856,77.774245 C51.2219778,77.0602953 52.0479934,76.3663163 52.8850226,75.6823225 C52.9751334,75.6094297 53.0652442,75.5355385 53.1543537,75.4626457 L83.094165,123.609814 L24.1917439,123.609814 Z M18.466705,108.867502 C18.4046286,109.045241 18.3385474,109.217987 18.2774723,109.394727 C18.0371769,110.088706 17.8058925,110.787678 17.582618,111.487648 C17.5085269,111.718308 17.4394419,111.953962 17.3673533,112.185621 C17.2191711,112.663917 17.0709889,113.141215 16.9308166,113.621509 C16.8477144,113.908087 16.7696184,114.195664 16.6885187,114.482242 C16.5663685,114.912609 16.4462208,115.344973 16.3310792,115.777337 C16.2499795,116.081889 16.1728847,116.389437 16.0947887,116.695986 C15.987657,117.11437 15.8835289,117.532755 15.7824046,117.954135 C15.7083135,118.268672 15.6352236,118.582211 15.563135,118.896748 C15.4670168,119.315132 15.3759048,119.735514 15.285794,120.155896 C15.2187115,120.470433 15.1526303,120.783972 15.0895527,121.098509 C15.0024456,121.529874 14.9193435,121.964235 14.839245,122.398596 C14.783176,122.700153 14.7251046,123.003706 14.6710382,123.306261 C14.6540172,123.408111 14.6329914,123.508963 14.6159705,123.609814 L9.5467378,123.609814 C10.9594748,98.5047475 23.6620927,75.7392388 44.3305047,61.2735199 L48.1532048,67.4204769 C48.102142,67.4614166 48.0510792,67.5043535 47.998014,67.5462918 C47.7917604,67.7090523 47.5895117,67.875807 47.3852606,68.0415632 C47.0027903,68.3491107 46.6233238,68.6566583 46.2468609,68.970197 C46.017579,69.1609164 45.7902995,69.3546315 45.5630201,69.5483465 C45.2165942,69.8429131 44.8711695,70.1384783 44.5287485,70.4370391 C44.2954616,70.6427365 44.063176,70.8474353 43.8318917,71.0551298 C43.5004842,71.350695 43.1710792,71.6492557 42.8436767,71.9498136 C42.6143947,72.1625007 42.3851128,72.3741892 42.1578334,72.5878749 C41.8324333,72.8924268 41.5110382,73.2009729 41.1906442,73.5115161 C40.9703734,73.7232047 40.7491014,73.9358918 40.5318342,74.1505759 C40.1994255,74.4770956 39.8730242,74.8086079 39.5466229,75.1401202 C39.3483792,75.342822 39.148133,75.5415296 38.9528929,75.7462285 C38.5774313,76.1346571 38.2069758,76.5290768 37.8385228,76.9244951 C37.6983504,77.0752733 37.5551744,77.2210588 37.4160033,77.3738341 C36.9153878,77.919032 36.4207796,78.4702211 35.9331801,79.0264029 C35.8000164,79.1781796 35.6708576,79.3339504 35.5386951,79.4877242 C35.1852606,79.8971219 34.8328272,80.3075182 34.4854001,80.7229071 C34.3001723,80.9435824 34.120952,81.1692505 33.9387279,81.3919229 C33.6493722,81.7454029 33.3610176,82.0988828 33.0786705,82.4563569 C32.8844317,82.700997 32.6931966,82.9466357 32.5019614,83.1922743 C32.2366352,83.5347704 31.9733114,83.876268 31.7129914,84.2217598 C31.5187526,84.4793808 31.325515,84.7389988 31.1342799,84.9966198 C30.8829709,85.3381175 30.6346656,85.6806136 30.3883627,86.0241083 C30.2001313,86.2877205 30.0108986,86.5523312 29.8256709,86.8179404 C29.5803693,87.1674263 29.3380714,87.5199077 29.097776,87.8723892 C28.9195568,88.1350028 28.7413377,88.396618 28.5651211,88.6592316 C28.317817,89.0316837 28.0745178,89.4071314 27.8322199,89.782579 C27.6730242,90.0312132 27.511826,90.2778504 27.3536315,90.5274832 C27.0752893,90.9698324 26.8019532,91.4171743 26.5306196,91.8635177 C26.4174805,92.050243 26.3013377,92.2349712 26.1891998,92.420698 C25.8157407,93.0467769 25.4482889,93.6778485 25.0888469,94.3149113 C24.9697005,94.5246028 24.8545589,94.739287 24.7364136,94.9519741 C24.4951169,95.3873336 24.2548215,95.8216946 24.0195322,96.2620468 C23.8773574,96.527656 23.7401888,96.7962609 23.6010176,97.0638672 C23.3967665,97.4542928 23.1945178,97.8447185 22.9962741,98.2381397 C22.8510956,98.5237195 22.7119245,98.8102979 22.5717522,99.099872 C22.384522,99.478315 22.2002954,99.858756 22.0190726,100.241193 C21.8799015,100.53576 21.7427329,100.832323 21.6065654,101.127888 C21.43135,101.511324 21.2571358,101.893762 21.0869265,102.279195 C20.9547641,102.57476 20.824604,102.871324 20.6964465,103.170883 C20.5272384,103.563306 20.3620353,103.957725 20.1988346,104.353144 C20.0786869,104.643716 19.9565367,104.934289 19.8393927,105.226858 C19.6701847,105.646241 19.506984,106.070617 19.3437833,106.492996 C19.2396553,106.762599 19.1335248,107.032202 19.0324005,107.303803 C18.8381617,107.82204 18.6509315,108.344272 18.466705,108.867502 Z M139.705769,50.7070647 C138.645466,50.0490328 137.364891,49.8403398 136.149397,50.122924 C134.932901,50.4065069 133.878605,51.1623948 133.220796,52.2198392 L91.5005006,119.312137 L49.7792039,52.2198392 C49.1213952,51.1623948 48.0681001,50.4065069 46.8516044,50.122924 C45.63611,49.8403398 44.3555355,50.0490328 43.2942306,50.7070647 C16.1848995,67.5103447 0,96.5176707 0,128.304907 C0,130.897094 2.10859253,133 4.70778826,133 L91.5535659,133 C91.558572,133 91.5645794,133 91.5675831,133 L178.292212,133 C180.892409,133 183,130.897094 183,128.303909 C183,96.5176707 166.815101,67.5103447 139.705769,50.7070647 L139.705769,50.7070647 Z" id="Fill-59"></path>
            <path d="M98.7907011,57.4174031 C98.361097,59.4294804 96.5595633,60.8907152 94.5046733,60.8907152 C94.1972409,60.8907152 93.8868043,60.8576647 93.5823761,60.7925651 C91.2160481,60.2867916 89.7019186,57.950218 90.2066285,55.5825969 C90.6382355,53.5695181 92.4397692,52.1092848 94.4926564,52.1092848 C94.8000887,52.1092848 95.1105253,52.1413338 95.4159549,52.2074349 C96.5615661,52.4528102 97.5449491,53.1288441 98.1818448,54.1133498 C98.819742,55.096854 99.035045,56.2696477 98.7907011,57.4174031 Z M96.2741619,48.188288 C95.688338,48.0630965 95.0884943,48 94.4926564,48 C90.5140608,48 87.0211484,50.8273241 86.1879766,54.7242842 C85.210602,59.308295 88.1417244,63.832214 92.7231677,64.811712 C93.309993,64.9369035 93.9088353,65 94.5046733,65 C98.4852716,65 101.977183,62.1716743 102.809353,58.2747143 C103.284021,56.0553199 102.865432,53.7848474 101.630695,51.877931 C100.395959,49.972016 98.4942843,48.6620125 96.2741619,48.188288 L96.2741619,48.188288 Z" id="Fill-60"></path>
            <path d="M82.4401825,37.1003977 C80.0092906,36.580709 77.6188314,38.1299138 77.1001097,40.5597295 C76.5813879,42.9905313 78.1296639,45.380902 80.5595696,45.8996045 C82.9884891,46.4192932 85.3809206,44.8700884 85.8996424,42.4392866 C86.4193503,40.0094709 84.869102,37.6200864 82.4401825,37.1003977" id="Fill-61"></path>
            <path d="M101.857306,32.1444335 C101.409237,32.0491271 100.951341,32 100.49541,32 C97.4532534,32 94.7825225,34.1635553 94.1438267,37.1426196 C93.3960613,40.6463608 95.6383748,44.1068702 99.143341,44.8555665 C99.59141,44.9508729 100.049306,45 100.505237,45 C103.548376,45 106.219107,42.8374273 106.855838,39.8573804 C107.604586,36.3536392 105.362272,32.8931298 101.857306,32.1444335" id="Fill-62"></path>
            <path d="M133.638108,96.9654827 C133.018118,98.7158509 131.355463,99.89044 129.499499,99.89044 C129.002706,99.89044 128.509919,99.805325 128.035161,99.637097 C125.753518,98.8300053 124.554603,96.3166048 125.361892,94.03652 C125.981882,92.2861519 127.645539,91.1105613 129.499499,91.1105613 C129.997294,91.1105613 130.490081,91.1956765 130.964839,91.3639041 C133.247484,92.1709961 134.445397,94.6843965 133.638108,96.9654827 Z M132.338032,87.4906638 C131.420567,87.1652235 130.466043,87 129.499499,87 C125.907764,87 122.687622,89.2770808 121.487706,92.664664 C119.924209,97.0806385 122.244915,101.946221 126.661968,103.511339 C127.579433,103.834776 128.533957,104 129.499499,104 C133.093238,104 136.31338,101.722919 137.512294,98.3373388 C139.075791,93.9203628 136.755085,89.05478 132.338032,87.4906638 L132.338032,87.4906638 Z" id="Fill-63"></path>
            <path d="M142.000589,108.258779 C139.659697,107.430457 137.089053,108.656176 136.258796,111.000127 C135.43051,113.34112 136.656175,115.911874 138.997068,116.740195 C141.340919,117.570489 143.911562,116.344771 144.740834,114.002791 C145.570105,111.659826 144.343454,109.089072 142.000589,108.258779" id="Fill-64"></path>
            <path d="M123.67014,106.374376 C122.968754,106.125775 122.23888,106 121.500165,106 C118.75356,106 116.291831,107.741194 115.376296,110.330385 C114.796719,111.96644 114.889059,113.731217 115.636615,115.298488 C116.383188,116.864777 117.695586,118.046863 119.332154,118.626606 C120.032558,118.874225 120.76145,119 121.500165,119 C124.24677,119 126.707516,117.259788 127.624034,114.669615 C128.202628,113.03356 128.111271,111.269766 127.364697,109.702494 C126.617141,108.136206 125.305726,106.953137 123.67014,106.374376" id="Fill-65"></path>
            <path d="M56.8428545,103.829219 C54.7945327,104.806657 53.2497816,106.523181 52.4919226,108.662327 C51.7340635,110.802474 51.8552008,113.110869 52.8323084,115.157879 C54.232896,118.099205 57.2453107,120 60.5050057,120 C61.7754458,120 63.0048393,119.721591 64.1571455,119.169779 C66.2054673,118.194345 67.7512195,116.476819 68.5080774,114.336672 C69.2659365,112.197526 69.1447992,109.891134 68.1676916,107.840118 C66.7661028,104.899794 63.7546893,103 60.4959955,103 C59.2255554,103 57.9961618,103.279411 56.8428545,103.829219" id="Fill-66"></path>
            <path d="M38.5639898,103.439154 C36.3197091,104.50925 35.3701299,107.193859 36.4390228,109.436622 C37.5098878,111.679384 40.1949389,112.630142 42.4372475,111.561033 C44.67857,110.490937 45.6311074,107.806328 44.5602424,105.562579 C43.4913495,103.319817 40.8062984,102.370045 38.5639898,103.439154" id="Fill-67"></path>
            <path d="M52.1757637,92.6781045 C52.3948043,92.0551735 52.8436902,91.5580077 53.4379483,91.2740534 C53.7738761,91.1138992 54.130431,91.0333308 54.4968083,91.0333308 C55.4436923,91.0333308 56.3178902,91.5845363 56.7265041,92.4383644 C57.0093906,93.0337843 57.0447514,93.7019122 56.8247286,94.3218955 C56.6047057,94.9448265 56.1558198,95.4429748 55.5615617,95.7259466 C55.2266162,95.8870834 54.8700613,95.9676517 54.503684,95.9676517 C53.5558177,95.9676517 52.6806376,95.4164462 52.2739882,94.5616356 C51.9911017,93.9662157 51.9547586,93.2971053 52.1757637,92.6781045 Z M48.3754584,91.3300582 C47.7969162,92.9669715 47.8892472,94.7296501 48.6367356,96.296803 C49.7083647,98.5468219 52.0117288,100 54.503684,100 C55.4751241,100 56.4151325,99.785806 57.2971883,99.365279 C58.8628866,98.6175648 60.0445271,97.3068551 60.6240516,95.6699418 C61.2035761,94.0330285 61.1102628,92.2693674 60.3637567,90.703197 C59.2921276,88.4531781 56.9887634,87 54.4968083,87 C53.5253681,87 52.5853598,87.2141939 51.703304,87.6347215 C50.1376057,88.3814526 48.9559651,89.6941274 48.3754584,91.3300582 L48.3754584,91.3300582 Z" id="Fill-68"></path>
        </g>
    </g>
</svg>