<?xml version="1.0" encoding="UTF-8"?>
<svg width="225px" height="159px" viewBox="0 0 225 159" version="1.1" xmlns="http://www.w3.org/2000/svg" xmlns:xlink="http://www.w3.org/1999/xlink">
    <!-- Generator: Sketch 46.2 (44496) - http://www.bohemiancoding.com/sketch -->
    <title>Artboard</title>
    <desc>Created with Sketch.</desc>
    <defs></defs>
    <g id="Page-1" stroke="none" stroke-width="1" fill="none" fill-rule="evenodd">
        <g id="Artboard" fill-rule="nonzero">
            <g id="board" transform="translate(1.000000, 14.000000)">
                <g id="Group" transform="translate(2.000000, 47.000000)" fill-opacity="0.2471" fill="#010101">
                    <g id="people_0_Layer22_0_FILL">
                        <g>
                            <path d="M0.121,81.561 C2.147,84.558 3.516,86.445 4.226,87.221 C4.681,87.721 5.203,88.221 5.794,88.721 C7.031,89.758 8.558,90.79 10.377,91.817 C10.722,92.017 11.073,92.208 11.427,92.39 C12.009,92.699 12.595,92.99 13.186,93.263 C14.923,94.081 16.682,94.754 18.464,95.282 C18.782,95.382 19.096,95.473 19.405,95.555 C21.896,96.228 23.983,96.451 25.665,96.223 C27.511,95.987 30.307,94.709 34.053,92.39 C36.899,90.626 40.291,88.262 44.228,85.298 C47.083,83.161 50.061,80.829 53.162,78.301 L56.954,75.137 C61.337,73.127 66.401,72.127 72.148,72.136 C73.285,72.136 74.394,72.177 75.476,72.259 C78.085,72.459 80.522,72.886 82.787,73.541 L83.101,73.609 C83.146,73.627 83.196,73.645 83.251,73.664 L83.66,73.787 C87.133,74.824 90.711,75.719 94.394,76.474 C95.294,76.656 96.204,76.833 97.122,77.006 C101.768,77.843 106.578,78.47 111.552,78.888 C115.462,79.206 119.481,79.393 123.609,79.447 C124.318,79.456 125.037,79.461 125.764,79.461 C131.947,79.461 137.921,79.165 143.686,78.574 C146.668,78.256 149.596,77.865 152.47,77.401 C159.335,76.273 165.891,74.687 172.137,72.641 C179.366,70.259 186.172,67.263 192.555,63.653 C198.747,60.152 203.939,56.411 208.131,52.428 C208.54,52.046 208.936,51.66 209.318,51.269 C212.591,47.968 215.196,44.509 217.133,40.89 C217.824,39.599 218.429,38.29 218.947,36.962 C219.556,35.407 220.052,33.821 220.434,32.202 C220.889,30.22 221.175,28.201 221.293,26.146 C221.302,25.901 221.311,25.66 221.32,25.423 C221.329,25.278 221.334,25.137 221.334,25 L221.334,24.918 C221.343,24.418 221.343,23.922 221.334,23.431 L216.11,0.108 L214.76,12.669 L0.121,81.561 Z" id="Shape"></path>
                        </g>
                    </g>
                </g>
                <g id="Group">
                    <g id="people_0_Layer21_4_FILL">
                        <g>
                            <path d="M218.831,53.888 C218.829,53.984 218.824,54.079 218.817,54.175 C218.744,56.157 218.517,58.098 218.135,59.999 C217.799,61.663 217.339,63.295 216.758,64.895 C216.658,65.177 216.553,65.454 216.444,65.727 C215.926,67.045 215.326,68.346 214.644,69.628 C214.644,69.637 214.639,69.646 214.63,69.655 L214.63,82.039 C215.321,80.748 215.926,79.438 216.444,78.111 C217.053,76.556 217.549,74.97 217.931,73.351 C218.386,71.369 218.672,69.35 218.79,67.295 C218.799,67.05 218.808,66.808 218.817,66.572 C218.826,66.426 218.831,66.286 218.831,66.149 L218.831,66.067 C218.84,65.567 218.84,65.071 218.831,64.58 L218.831,53.888 L218.831,53.888 Z M7.876,120.569 C7.776,120.515 7.681,120.46 7.59,120.405 C5.944,119.459 4.553,118.514 3.416,117.568 L3.294,129.87 C4.531,130.907 6.058,131.939 7.877,132.966 C8.223,133.166 8.573,133.357 8.927,133.539 C9.509,133.848 10.095,134.139 10.686,134.412 L10.591,121.973 C9.681,121.546 8.777,121.078 7.876,120.569 L7.876,120.569 Z M32.931,65.522 C32.576,64.431 32.285,63.331 32.058,62.221 C32.049,62.185 32.044,62.148 32.044,62.112 C31.698,60.43 31.485,58.716 31.403,56.97 L31.376,68.631 C31.367,68.831 31.362,69.036 31.362,69.245 C31.362,69.309 31.362,69.372 31.362,69.436 C31.371,73.428 32.058,77.256 33.421,80.92 C34.139,82.866 35.049,84.766 36.149,86.621 C36.485,87.194 36.845,87.767 37.226,88.34 C37.59,88.886 37.972,89.431 38.372,89.977 L37.745,75.138 C35.591,72.055 33.986,68.85 32.931,65.522 Z" id="Shape" fill="#68553A"></path>
                            <path d="M218.831,53.888 L218.831,53.656 C218.831,53.547 218.836,53.442 218.845,53.342 L121.094,108.198 C121.812,108.207 122.535,108.212 123.263,108.212 C129.391,108.212 135.324,107.921 141.062,107.339 L216.445,65.072 L216.759,64.895 C217.341,63.295 217.8,61.663 218.136,59.999 C218.518,58.099 218.745,56.157 218.818,54.175 C218.824,54.079 218.829,53.983 218.831,53.888 L218.831,53.888 Z M50.662,107.052 L54.454,103.888 C58.837,101.879 63.901,100.878 69.648,100.887 C70.766,100.887 71.858,100.928 72.921,101.01 L204.483,24.318 C202.883,22.918 201.155,21.549 199.3,20.213 L16.537,124.21 C16.564,124.21 16.592,124.215 16.619,124.224 C19.165,124.942 21.302,125.201 23.029,125.001 C23.074,124.992 23.12,124.983 23.165,124.974 C26.411,124.565 32.599,120.923 41.728,114.049 C44.584,111.912 47.561,109.58 50.662,107.052 L50.662,107.052 Z M37.8,34.861 C36.963,36.08 36.209,37.321 35.536,38.584 L99.435,2.182 C99.408,2.182 99.385,2.187 99.367,2.196 C84.873,4.66 71.793,9.188 60.127,15.78 C50.026,21.49 42.583,27.851 37.8,34.861 L37.8,34.861 Z M172.963,6.929 C169.208,5.656 165.325,4.56 161.315,3.642 L37.746,75.137 C37.764,75.164 37.782,75.192 37.801,75.219 C38.383,76.056 39.006,76.878 39.669,77.688 L41.797,80.116 C42.424,81.089 42.856,82.107 43.093,83.171 L172.963,6.929 L172.963,6.929 Z M206.815,80.034 L206.815,79.789 L169.294,101.502 C176.65,99.102 183.569,96.069 190.052,92.405 C196.244,88.904 201.436,85.167 205.628,81.194 C206.038,80.802 206.433,80.415 206.815,80.034 Z" id="Shape" fill="#836948"></path>
                            <path d="M16.537,124.21 C16.346,124.146 16.155,124.087 15.964,124.033 C14.154,123.497 12.363,122.81 10.59,121.973 L10.685,134.412 C12.422,135.23 14.181,135.903 15.963,136.431 C16.281,136.531 16.595,136.622 16.904,136.704 L16.537,124.21 Z" id="Shape" fill="#695233"></path>
                            <path d="M3.417,117.568 C2.771,117.041 2.208,116.509 1.726,115.972 C0.762,114.917 0.203,113.953 0.048,113.08 C0.039,113.063 0.035,113.045 0.034,113.025 L0.075,125.723 C0.293,126.523 0.843,127.405 1.725,128.369 C2.18,128.869 2.702,129.369 3.293,129.869 L3.417,117.568 Z" id="Shape" fill="#5F4B2E"></path>
                            <path d="M141.184,119.723 L141.061,107.339 C135.324,107.921 129.391,108.212 123.262,108.212 C122.535,108.212 121.812,108.207 121.093,108.198 L121.107,120.596 C121.816,120.605 122.535,120.61 123.262,120.61 C129.445,120.61 135.419,120.314 141.184,119.723 Z" id="Shape" fill="#604D31"></path>
                            <path d="M149.954,106.152 L149.968,118.55 C156.833,117.423 163.389,115.836 169.635,113.79 L169.294,101.501 C163.147,103.493 156.701,105.043 149.954,106.152 Z" id="Shape" fill="#625036"></path>
                            <path d="M149.954,106.152 C147.044,106.625 144.08,107.02 141.061,107.339 L141.184,119.723 C144.166,119.405 147.094,119.014 149.967,118.55 L149.954,106.152 Z" id="Shape" fill="#6F552E"></path>
                            <path d="M91.893,117.623 L91.798,105.198 C88.143,104.452 84.597,103.566 81.16,102.538 L80.751,102.415 C80.696,102.397 80.646,102.379 80.601,102.36 L80.287,102.292 C78.014,101.628 75.559,101.201 72.922,101.01 L72.977,113.408 C75.587,113.608 78.023,114.035 80.287,114.69 L80.601,114.758 C80.646,114.776 80.696,114.794 80.751,114.812 L81.16,114.935 C84.632,115.972 88.21,116.868 91.893,117.623 Z" id="Shape" fill="#5F4E36"></path>
                            <path d="M108.941,107.625 L109.05,120.036 C112.96,120.354 116.979,120.541 121.107,120.595 L121.093,108.197 C116.938,108.144 112.888,107.953 108.941,107.625 Z" id="Shape" fill="#6F5A3D"></path>
                            <path d="M109.051,120.037 L108.942,107.626 C103.996,107.217 99.217,106.589 94.607,105.744 L94.621,118.155 C99.267,118.991 104.077,119.618 109.051,120.037 Z" id="Shape" fill="#5C4C33"></path>
                            <path d="M94.607,105.743 C93.661,105.57 92.725,105.388 91.797,105.197 L91.892,117.622 C92.792,117.804 93.701,117.981 94.62,118.154 L94.607,105.743 Z" id="Shape" fill="#685233"></path>
                            <path d="M25.498,114.172 C25.507,113.936 25.484,113.713 25.43,113.504 C25.375,113.268 25.289,113.045 25.171,112.836 C24.853,112.263 24.303,111.749 23.521,111.295 C22.175,110.504 20.539,110.108 18.611,110.108 C17.629,110.108 16.715,110.208 15.87,110.408 C15.043,110.599 14.279,110.89 13.579,111.281 C12.852,111.69 12.315,112.149 11.97,112.659 C11.634,113.123 11.461,113.627 11.452,114.173 C11.397,115.282 12.043,116.237 13.389,117.037 C13.607,117.164 13.834,117.283 14.071,117.392 C14.998,117.819 16.053,118.083 17.235,118.183 C17.59,118.21 17.958,118.224 18.34,118.224 C20.277,118.224 21.941,117.828 23.332,117.037 C24.73,116.245 25.453,115.29 25.498,114.172 Z" id="Shape" fill="#5F4A2D"></path>
                            <path d="M54.454,103.888 L50.662,107.052 C47.561,109.58 44.584,111.912 41.728,114.049 C32.599,120.923 26.411,124.565 23.165,124.974 C23.12,124.983 23.074,124.992 23.029,125.001 C21.301,125.201 19.165,124.942 16.619,124.224 C16.592,124.215 16.565,124.21 16.537,124.21 L16.905,136.703 C19.396,137.376 21.483,137.599 23.165,137.371 C25.011,137.135 27.807,135.857 31.553,133.538 C34.399,131.774 37.791,129.41 41.728,126.446 C44.583,124.309 47.561,121.977 50.662,119.449 L54.454,116.285 C58.837,114.275 63.901,113.275 69.648,113.284 C70.785,113.284 71.894,113.325 72.976,113.407 L72.921,101.009 C71.857,100.927 70.766,100.886 69.648,100.886 C63.901,100.878 58.836,101.879 54.454,103.888 Z" id="Shape" fill="#5C482D"></path>
                            <path d="M39.669,77.688 C39.005,76.879 38.382,76.056 37.801,75.219 C37.783,75.192 37.765,75.164 37.746,75.137 L38.373,89.976 C38.782,90.54 39.214,91.099 39.669,91.654 C39.824,91.79 39.978,91.931 40.133,92.077 C41.642,90.559 42.611,88.913 43.038,87.14 C43.184,86.549 43.265,85.944 43.283,85.326 C43.301,84.589 43.238,83.871 43.092,83.171 C42.856,82.107 42.424,81.089 41.796,80.116 L39.669,77.688 Z" id="Shape" fill="#57462D"></path>
                            <path d="M109.269,0.859 C105.923,1.195 102.645,1.636 99.435,2.182 L35.536,38.585 C34.572,40.394 33.777,42.245 33.149,44.136 L109.269,0.859 L109.269,0.859 Z M161.315,3.642 C156.423,2.515 151.345,1.651 146.08,1.051 L32.931,65.522 C33.986,68.85 35.591,72.055 37.746,75.138 L161.315,3.642 L161.315,3.642 Z M218.845,52.483 C218.809,50.255 218.568,48.078 218.122,45.95 L108.942,107.626 C112.888,107.953 116.939,108.144 121.094,108.199 L218.845,53.343 C218.845,53.188 218.845,53.038 218.845,52.893 L218.845,52.483 L218.845,52.483 Z M205.628,25.355 C205.255,25.009 204.873,24.664 204.482,24.318 L72.921,101.01 C75.558,101.201 78.013,101.628 80.286,102.292 L80.6,102.36 C80.645,102.378 80.695,102.396 80.75,102.415 L81.159,102.538 C84.596,103.566 88.142,104.452 91.797,105.198 L213.811,35.203 C213.129,34.076 212.383,32.971 211.574,31.889 C209.884,29.642 207.902,27.464 205.628,25.355 Z" id="Shape" fill="#A17F55"></path>
                            <path d="M186.316,12.466 C183.388,11.002 180.365,9.67 177.246,8.47 L43.038,87.139 C42.611,88.912 41.642,90.558 40.133,92.076 C40.106,92.094 40.083,92.117 40.065,92.144 C39.765,92.435 39.447,92.721 39.11,93.003 C38.537,93.485 37.905,93.949 37.214,94.394 L31.772,96.372 C27.389,97.981 23.329,99.554 19.592,101.091 C7.653,105.965 1.193,109.461 0.211,111.579 C0.129,111.761 0.07,111.947 0.034,112.138 C0.034,112.147 0.034,112.165 0.034,112.193 C-0.011,112.457 -0.011,112.729 0.034,113.011 L0.034,113.025 C0.034,113.044 0.039,113.062 0.048,113.08 C0.202,113.953 0.762,114.917 1.726,115.972 C2.208,116.508 2.772,117.04 3.417,117.568 L11.969,112.658 C12.315,112.149 12.851,111.69 13.578,111.28 C14.278,110.889 15.042,110.598 15.869,110.407 L186.316,12.466 L186.316,12.466 Z M216.444,65.726 L216.444,65.071 L141.061,107.338 C144.08,107.02 147.044,106.624 149.954,106.151 L214.644,69.626 C215.326,68.345 215.926,67.045 216.444,65.726 L216.444,65.726 Z M214.521,36.416 C214.294,36.007 214.057,35.602 213.812,35.202 L91.797,105.198 C92.724,105.389 93.661,105.571 94.607,105.744 L214.521,36.416 Z" id="Shape" fill="#7E5E34"></path>
                            <path d="M194.417,16.967 C193.835,16.603 193.244,16.244 192.644,15.889 C190.589,14.68 188.479,13.538 186.316,12.466 L15.869,110.408 C16.715,110.208 17.628,110.108 18.61,110.108 C20.538,110.108 22.174,110.504 23.52,111.295 C24.302,111.75 24.852,112.263 25.17,112.836 C25.288,113.045 25.375,113.268 25.429,113.504 L194.417,16.967 L194.417,16.967 Z M126.945,0 C126.081,0 125.222,0.004 124.367,0.014 L31.417,53.724 L31.403,56.97 C31.485,58.716 31.698,60.43 32.044,62.112 L140.393,0.505 C136.038,0.168 131.555,0 126.945,0 Z" id="Shape" fill="#987C57"></path>
                            <path d="M199.3,20.213 C199.009,20.004 198.718,19.799 198.427,19.599 C197.154,18.708 195.817,17.831 194.417,16.967 L25.43,113.504 C25.485,113.713 25.507,113.936 25.498,114.172 C25.453,115.29 24.73,116.245 23.329,117.036 C21.938,117.827 20.274,118.223 18.337,118.223 C17.955,118.223 17.587,118.209 17.232,118.182 C16.05,118.082 14.995,117.818 14.068,117.391 C13.832,117.282 13.604,117.164 13.386,117.036 C12.04,116.236 11.395,115.281 11.449,114.172 C11.458,113.626 11.631,113.122 11.967,112.658 L3.415,117.568 C4.552,118.514 5.943,119.459 7.589,120.405 C7.68,120.46 7.775,120.514 7.875,120.569 C8.775,121.078 9.68,121.547 10.589,121.974 C12.362,122.811 14.153,123.497 15.963,124.034 C16.154,124.089 16.345,124.148 16.536,124.211 L199.3,20.213 L199.3,20.213 Z M177.246,8.47 C175.837,7.924 174.409,7.411 172.963,6.929 L43.092,83.171 C43.238,83.871 43.301,84.589 43.283,85.326 C43.265,85.944 43.183,86.549 43.038,87.14 L177.246,8.47 L177.246,8.47 Z M124.367,0.014 C123.203,0.032 122.044,0.06 120.889,0.096 C117.897,0.187 114.951,0.355 112.051,0.601 C111.114,0.683 110.187,0.769 109.269,0.86 L33.15,44.136 C32.159,47.118 31.582,50.205 31.418,53.397 L31.418,53.724 L124.367,0.014 L124.367,0.014 Z M214.63,69.654 C214.639,69.645 214.644,69.636 214.644,69.627 L149.954,106.152 C156.701,105.043 163.147,103.492 169.294,101.501 L206.815,79.788 L206.815,80.033 C206.997,79.842 207.183,79.651 207.374,79.46 C210.384,76.333 212.802,73.064 214.63,69.654 L214.63,69.654 Z M216.444,65.072 L216.444,65.727 C216.553,65.454 216.658,65.177 216.758,64.895 L216.444,65.072 Z" id="Shape" fill="#907046"></path>
                            <path d="M141.566,0.6 C141.175,0.564 140.784,0.532 140.393,0.504 L32.045,62.112 C32.045,62.148 32.05,62.185 32.059,62.221 C32.286,63.33 32.577,64.43 32.932,65.522 L146.08,1.05 C144.589,0.877 143.084,0.727 141.566,0.6 Z" id="Shape" fill="#795A30"></path>
                            <path d="M218.122,45.95 C217.422,42.649 216.222,39.471 214.521,36.416 L94.607,105.743 C99.217,106.589 103.995,107.216 108.942,107.625 L218.122,45.95 Z" id="Shape" fill="#8C6D46"></path>
                            <path d="M205.628,93.577 C206.037,93.195 206.433,92.809 206.815,92.418 L206.815,80.034 C206.433,80.416 206.038,80.802 205.628,81.193 C201.436,85.166 196.244,88.904 190.052,92.404 C183.569,96.068 176.649,99.101 169.294,101.501 L169.635,113.79 C176.864,111.408 183.67,108.412 190.053,104.802 C196.245,101.301 201.437,97.56 205.628,93.577 Z" id="Shape" fill="#604A29"></path>
                            <path d="M207.374,79.461 C207.183,79.652 206.997,79.843 206.815,80.034 L206.815,92.418 C210.088,89.117 212.693,85.658 214.63,82.039 L214.63,69.654 C212.802,73.064 210.384,76.333 207.374,79.461 Z" id="Shape" fill="#705631"></path>
                        </g>
                    </g>
                </g>
            </g>
            <g id="base" transform="translate(38.000000, 6.000000)">
                <path d="M175.5,53.3 C175.673,52.136 175.786,50.963 175.841,49.781 C175.849,49.733 175.853,49.688 175.855,49.645 L175.855,49.44 C175.864,49.049 175.873,48.658 175.882,48.267 C175.864,35.092 167.794,23.917 151.673,14.742 C134.943,5.213 114.439,0.639 90.161,1.021 C65.893,1.394 44.961,6.608 27.367,16.665 C9.763,26.722 0.653,38.678 0.034,52.536 C0.007,53.1 -0.002,53.664 0.007,54.227 L0.007,54.813 C0.043,56.177 0.171,57.518 0.389,58.836 C2.144,69.956 10.086,79.54 24.216,87.587 C40.946,97.107 61.446,101.676 85.714,101.294 C109.991,100.912 130.932,95.693 148.535,85.637 C164.629,76.446 173.618,65.666 175.5,53.3 L175.5,53.3 Z M167.794,47.845 C167.812,48.545 167.803,49.254 167.767,49.973 C167.749,50.373 167.722,50.773 167.685,51.173 C166.658,62.557 158.424,72.423 142.985,80.77 C127,89.408 107.974,93.886 85.906,94.205 C63.865,94.532 45.248,90.609 30.054,82.434 C16.451,75.114 9.164,66.308 8.191,56.015 C8.1,55.106 8.059,54.187 8.068,53.26 C8.068,52.951 8.077,52.642 8.095,52.333 C8.404,45.75 11.082,39.672 16.128,34.098 C20.183,29.588 25.78,25.405 32.918,21.55 C48.894,12.912 67.907,8.429 89.956,8.102 C112.015,7.784 130.641,11.712 145.835,19.886 C151.245,22.796 155.655,25.942 159.065,29.324 C164.657,34.86 167.566,41.034 167.794,47.845 Z" id="Shape" fill="#FFD8A1"></path>
                <path d="M145.835,22.394 C151.245,25.304 155.655,28.45 159.065,31.832 C163.911,36.642 166.821,41.979 167.794,47.844 C167.567,41.034 164.657,34.86 159.065,29.322 C155.655,25.94 151.245,22.793 145.835,19.884 C130.641,11.71 112.015,7.782 89.956,8.1 C67.906,8.427 48.894,12.91 32.918,21.548 C25.78,25.403 20.184,29.586 16.128,34.096 C11.081,39.67 8.404,45.748 8.095,52.331 C8.077,52.64 8.068,52.949 8.068,53.258 C8.905,47.175 11.591,41.624 16.129,36.605 C20.184,32.095 25.781,27.912 32.919,24.057 C48.895,15.419 67.908,10.936 89.957,10.609 C112.015,10.292 130.641,14.22 145.835,22.394 Z" id="Shape" fill="#E8C08A"></path>
                <path d="M167.766,49.972 C167.802,49.254 167.811,48.544 167.793,47.844 C166.82,41.979 163.91,36.642 159.064,31.832 C155.654,28.449 151.244,25.303 145.834,22.394 C130.64,14.22 112.014,10.292 89.955,10.61 C67.905,10.937 48.893,15.42 32.917,24.058 C25.779,27.913 20.183,32.096 16.127,36.606 C11.59,41.625 8.903,47.176 8.066,53.259 C8.057,54.186 8.098,55.105 8.189,56.014 C9.162,66.307 16.45,75.113 30.052,82.433 C45.246,90.607 63.863,94.531 85.904,94.204 C107.972,93.886 126.998,89.408 142.983,80.769 C158.422,72.422 166.656,62.556 167.683,51.172 C167.721,50.773 167.748,50.373 167.766,49.972 Z" id="Shape" fill="#FFDC71"></path>
                <path d="M175.841,49.781 C175.786,50.963 175.673,52.136 175.5,53.3 C173.618,65.666 164.63,76.445 148.536,85.638 C130.933,95.694 109.992,100.914 85.715,101.295 C61.447,101.677 40.947,97.108 24.217,87.588 C10.087,79.541 2.144,69.957 0.39,58.837 C0.172,57.519 0.045,56.177 0.008,54.814 L0.008,63.311 C-0.001,63.629 -0.001,63.943 0.008,64.252 C0.19,77.264 8.259,88.316 24.217,97.408 C40.947,106.928 61.447,111.497 85.715,111.115 C109.992,110.733 130.933,105.514 148.536,95.457 C166.13,85.401 175.232,73.448 175.841,59.6 C175.85,59.382 175.859,59.168 175.868,58.959 C175.877,58.304 175.873,57.654 175.855,57.009 L175.855,49.644 C175.853,49.688 175.849,49.734 175.841,49.781 Z" id="Shape" fill="#DFBA86"></path>
            </g>
        </g>
    </g>
</svg>