<?xml version="1.0" encoding="UTF-8"?>
<svg width="225px" height="159px" viewBox="0 0 225 159" version="1.1" xmlns="http://www.w3.org/2000/svg" xmlns:xlink="http://www.w3.org/1999/xlink">
    <!-- Generator: Sketch 46.2 (44496) - http://www.bohemiancoding.com/sketch -->
    <title>Artboard</title>
    <desc>Created with Sketch.</desc>
    <defs></defs>
    <g id="Page-1" stroke="none" stroke-width="1" fill="none" fill-rule="evenodd">
        <g id="Artboard" fill-rule="nonzero">
            <g id="bacon" transform="translate(127.000000, 18.000000)">
                <polygon id="Shape" fill="#CAA28A" points="6.92048649 10.5377391 6.91216216 10.5377391 6.91216216 11.2681739 8.29102703 12.0570435 8.29102703 11.3430435 8.29102703 11.3345217"></polygon>
                <path d="M16.0677297,7.21730435 C15.4404324,7.61052174 14.7185946,8.44321739 13.9022162,9.716 C13.1125946,10.9504348 12.4508108,11.7167826 11.9156757,12.0156522 C11.5428649,12.2256522 10.958973,12.3668696 10.164,12.4393043 L8.29875676,11.3436522 L8.29043243,11.3436522 L8.29043243,12.0576522 L10.164,13.1283478 C11.2128649,13.0674783 11.9590811,12.9153043 12.4020541,12.6718261 C12.9371892,12.3729565 13.6025405,11.6066087 14.3969189,10.3721739 C15.2079459,9.0993913 15.9297838,8.26608696 16.5624324,7.87347826 C17.2111351,7.46930435 18.2707027,7.23434783 19.7411351,7.168 C20.5301622,7.1406087 21.078973,7.10469565 21.3875676,7.06026087 C21.4630811,7.04930435 21.5362162,7.03834783 21.6063784,7.02678261 L21.6063784,6.26286957 C21.3899459,6.32373913 21.1521081,6.3706087 20.8928649,6.40408696 C20.5902162,6.44852174 20.0437838,6.48443478 19.2547568,6.51182609 C17.7849189,6.57817391 16.7223784,6.81313043 16.0677297,7.21730435 Z" id="Shape" fill="#B66F46"></path>
                <path d="M13.9028108,9.716 C14.7191892,8.44321739 15.441027,7.60991304 16.0683243,7.21730435 C16.7223784,6.81313043 17.7849189,6.57817391 19.2553514,6.51182609 C20.0443784,6.48382609 20.5908108,6.44791304 20.8934595,6.40408696 C21.1527027,6.3706087 21.3905405,6.32373913 21.606973,6.26286957 C21.6176757,6.26286957 21.6283784,6.25982609 21.6396757,6.25434783 L19.7904865,5.15017391 C19.5526486,5.222 19.2904324,5.2773913 19.0038378,5.31634783 C18.7011892,5.35530435 18.1547568,5.39121739 17.3657297,5.42408696 C15.8952973,5.48495652 14.8327568,5.71747826 14.1787027,6.12165217 C13.5514054,6.52034783 12.8295676,7.35304348 12.0131892,8.62034783 C11.2241622,9.86026087 10.5617838,10.6266087 10.0266486,10.92 C9.65918919,11.1245217 9.08302703,11.2657391 8.29935135,11.3436522 L10.1645946,12.4393043 C10.9595676,12.3674783 11.5434595,12.2262609 11.9162703,12.0156522 C12.4514054,11.7167826 13.1131892,10.9504348 13.9028108,9.716 Z" id="Shape" fill="#C68660"></path>
                <path d="M18.4687027,4.35278261 C18.2415676,4.41913043 17.993027,4.46904348 17.7224865,4.50191304 C17.4198378,4.54086957 16.874,4.57678261 16.0843784,4.60965217 C14.6139459,4.67052174 13.5514054,4.90547826 12.8973514,5.31513043 C12.2700541,5.70834783 11.5482162,6.538 10.7318378,7.80591304 C9.94281081,9.04582609 9.28043243,9.81521739 8.7447027,10.114087 C8.36594595,10.3246957 7.75827027,10.4653043 6.91989189,10.5377391 L8.29043243,11.3345217 L8.29875676,11.3430435 C9.08243243,11.2657391 9.65859459,11.1245217 10.0260541,10.9193913 C10.5611892,10.626 11.2235676,9.85965217 12.0125946,8.61973913 C12.828973,7.35243478 13.5508108,6.51913043 14.1781081,6.12104348 C14.8321622,5.71686957 15.8947027,5.48434783 17.3651351,5.42347826 C18.1547568,5.39 18.7005946,5.35408696 19.0032432,5.31573913 C19.2898378,5.27678261 19.5520541,5.2213913 19.7898919,5.14956522 L18.4687027,4.35278261 Z" id="Shape" fill="#F9E2D6"></path>
                <path d="M17.7224865,4.50252174 C17.993027,4.46904348 18.2415676,4.41973913 18.4687027,4.3533913 L16.2383784,3.01669565 C15.9898378,3.094 15.7139459,3.15243478 15.4112973,3.19078261 C15.1032973,3.22973913 14.5544865,3.26565217 13.7648649,3.29852174 C12.2944324,3.3593913 11.2348649,3.59434783 10.5861622,4.004 C9.95351351,4.39721739 9.23167568,5.22747826 8.42064865,6.49478261 C7.62567568,7.73469565 6.96091892,8.50408696 6.42578378,8.80295652 C6.05832432,9.00808696 5.47443243,9.14626087 4.67410811,9.21808696 L6.91216216,10.5383478 L6.92048649,10.5383478 C7.75827027,10.4665217 8.36654054,10.3253043 8.7452973,10.1146957 C9.28043243,9.81582609 9.94281081,9.04643478 10.7324324,7.80652174 C11.5488108,6.53921739 12.2706486,5.70895652 12.8979459,5.31573913 C13.552,4.90608696 14.6145405,4.67113043 16.084973,4.61026087 C16.8734054,4.57678261 17.4198378,4.54086957 17.7224865,4.50252174 Z" id="Shape" fill="#BF9073"></path>
                <polygon id="Shape" fill="#AF8266" points="4.67410811 9.21808696 4.67410811 9.982 6.91216216 11.2687826 6.91216216 10.5383478"></polygon>
                <polygon id="Shape" fill="#D2B6A5" points="3.11686486 9.09330435 4.67410811 9.9813913 4.67410811 9.21747826 3.11686486 8.31234783"></polygon>
                <polygon id="Shape" fill="#B17F5F" points="3.11686486 8.31295652 3.10854054 8.31295652 0.594594595 6.96469565 0.594594595 7.78156522 3.11686486 9.09330435"></polygon>
                <path d="M5.08735135,7.86434783 C4.68718919,8.08591304 4.03016216,8.23504348 3.11686486,8.31234783 L4.67410811,9.21747826 C5.47443243,9.14565217 6.05832432,9.00686957 6.42578378,8.80234783 C6.96091892,8.50347826 7.62627027,7.73408696 8.42064865,6.49417391 C9.23167568,5.22686957 9.95351351,4.3966087 10.5861622,4.0033913 C11.2348649,3.59373913 12.2944324,3.35878261 13.7648649,3.29791304 C14.5544865,3.26443478 15.1027027,3.22852174 15.4112973,3.19017391 C15.7139459,3.15121739 15.9898378,3.0933913 16.2383784,3.01608696 L14.7459459,2.11947826 C14.5348649,2.17486957 14.3077297,2.21930435 14.0645405,2.25217391 C13.7618919,2.2966087 13.2154595,2.33252174 12.4264324,2.35991304 C10.9506486,2.42626087 9.88810811,2.66121739 9.23940541,3.0653913 C8.61210811,3.4586087 7.89027027,4.29130435 7.07389189,5.56408696 C6.28486486,6.79913043 5.62248649,7.56608696 5.08735135,7.86434783 Z" id="Shape" fill="#EECCB6"></path>
                <path d="M3.11686486,8.31295652 C4.03075676,8.23565217 4.68718919,8.08591304 5.08735135,7.86495652 C5.62248649,7.56608696 6.28486486,6.79973913 7.07448649,5.56530435 C7.89086486,4.29252174 8.6127027,3.45921739 9.24,3.0666087 C9.8887027,2.66243478 10.9512432,2.42747826 12.427027,2.36113043 C13.2166486,2.33313043 13.7624865,2.29721739 14.0651351,2.2533913 C14.3083243,2.21991304 14.5354595,2.17608696 14.7465405,2.12069565 L12.2325946,0.609913043 C12.0108108,0.67626087 11.7676216,0.726173913 11.5024324,0.759043478 C11.1997838,0.798 10.6533514,0.833913043 9.86432432,0.866782609 C8.39389189,0.927652174 7.33135135,1.16017391 6.6772973,1.56434783 C6.05,1.96304348 5.32816216,2.79573913 4.51178378,4.06304348 C3.72216216,5.30295652 3.06037838,6.06930435 2.52464865,6.36269565 C2.12448649,6.58973913 1.50789189,6.89347826 0.594594595,6.96530435 L3.10854054,8.31356522 L3.11686486,8.31356522 L3.11686486,8.31295652 Z" id="Shape" fill="#C48863"></path>
            </g>
            <g id="bacon-copy" transform="translate(156.000000, 39.000000)">
                <polygon id="Shape" fill="#CAA28A" points="6.92048649 10.5377391 6.91216216 10.5377391 6.91216216 11.2681739 8.29102703 12.0570435 8.29102703 11.3430435 8.29102703 11.3345217"></polygon>
                <path d="M16.0677297,7.21730435 C15.4404324,7.61052174 14.7185946,8.44321739 13.9022162,9.716 C13.1125946,10.9504348 12.4508108,11.7167826 11.9156757,12.0156522 C11.5428649,12.2256522 10.958973,12.3668696 10.164,12.4393043 L8.29875676,11.3436522 L8.29043243,11.3436522 L8.29043243,12.0576522 L10.164,13.1283478 C11.2128649,13.0674783 11.9590811,12.9153043 12.4020541,12.6718261 C12.9371892,12.3729565 13.6025405,11.6066087 14.3969189,10.3721739 C15.2079459,9.0993913 15.9297838,8.26608696 16.5624324,7.87347826 C17.2111351,7.46930435 18.2707027,7.23434783 19.7411351,7.168 C20.5301622,7.1406087 21.078973,7.10469565 21.3875676,7.06026087 C21.4630811,7.04930435 21.5362162,7.03834783 21.6063784,7.02678261 L21.6063784,6.26286957 C21.3899459,6.32373913 21.1521081,6.3706087 20.8928649,6.40408696 C20.5902162,6.44852174 20.0437838,6.48443478 19.2547568,6.51182609 C17.7849189,6.57817391 16.7223784,6.81313043 16.0677297,7.21730435 Z" id="Shape" fill="#B66F46"></path>
                <path d="M13.9028108,9.716 C14.7191892,8.44321739 15.441027,7.60991304 16.0683243,7.21730435 C16.7223784,6.81313043 17.7849189,6.57817391 19.2553514,6.51182609 C20.0443784,6.48382609 20.5908108,6.44791304 20.8934595,6.40408696 C21.1527027,6.3706087 21.3905405,6.32373913 21.606973,6.26286957 C21.6176757,6.26286957 21.6283784,6.25982609 21.6396757,6.25434783 L19.7904865,5.15017391 C19.5526486,5.222 19.2904324,5.2773913 19.0038378,5.31634783 C18.7011892,5.35530435 18.1547568,5.39121739 17.3657297,5.42408696 C15.8952973,5.48495652 14.8327568,5.71747826 14.1787027,6.12165217 C13.5514054,6.52034783 12.8295676,7.35304348 12.0131892,8.62034783 C11.2241622,9.86026087 10.5617838,10.6266087 10.0266486,10.92 C9.65918919,11.1245217 9.08302703,11.2657391 8.29935135,11.3436522 L10.1645946,12.4393043 C10.9595676,12.3674783 11.5434595,12.2262609 11.9162703,12.0156522 C12.4514054,11.7167826 13.1131892,10.9504348 13.9028108,9.716 Z" id="Shape" fill="#C68660"></path>
                <path d="M18.4687027,4.35278261 C18.2415676,4.41913043 17.993027,4.46904348 17.7224865,4.50191304 C17.4198378,4.54086957 16.874,4.57678261 16.0843784,4.60965217 C14.6139459,4.67052174 13.5514054,4.90547826 12.8973514,5.31513043 C12.2700541,5.70834783 11.5482162,6.538 10.7318378,7.80591304 C9.94281081,9.04582609 9.28043243,9.81521739 8.7447027,10.114087 C8.36594595,10.3246957 7.75827027,10.4653043 6.91989189,10.5377391 L8.29043243,11.3345217 L8.29875676,11.3430435 C9.08243243,11.2657391 9.65859459,11.1245217 10.0260541,10.9193913 C10.5611892,10.626 11.2235676,9.85965217 12.0125946,8.61973913 C12.828973,7.35243478 13.5508108,6.51913043 14.1781081,6.12104348 C14.8321622,5.71686957 15.8947027,5.48434783 17.3651351,5.42347826 C18.1547568,5.39 18.7005946,5.35408696 19.0032432,5.31573913 C19.2898378,5.27678261 19.5520541,5.2213913 19.7898919,5.14956522 L18.4687027,4.35278261 Z" id="Shape" fill="#F9E2D6"></path>
                <path d="M17.7224865,4.50252174 C17.993027,4.46904348 18.2415676,4.41973913 18.4687027,4.3533913 L16.2383784,3.01669565 C15.9898378,3.094 15.7139459,3.15243478 15.4112973,3.19078261 C15.1032973,3.22973913 14.5544865,3.26565217 13.7648649,3.29852174 C12.2944324,3.3593913 11.2348649,3.59434783 10.5861622,4.004 C9.95351351,4.39721739 9.23167568,5.22747826 8.42064865,6.49478261 C7.62567568,7.73469565 6.96091892,8.50408696 6.42578378,8.80295652 C6.05832432,9.00808696 5.47443243,9.14626087 4.67410811,9.21808696 L6.91216216,10.5383478 L6.92048649,10.5383478 C7.75827027,10.4665217 8.36654054,10.3253043 8.7452973,10.1146957 C9.28043243,9.81582609 9.94281081,9.04643478 10.7324324,7.80652174 C11.5488108,6.53921739 12.2706486,5.70895652 12.8979459,5.31573913 C13.552,4.90608696 14.6145405,4.67113043 16.084973,4.61026087 C16.8734054,4.57678261 17.4198378,4.54086957 17.7224865,4.50252174 Z" id="Shape" fill="#BF9073"></path>
                <polygon id="Shape" fill="#AF8266" points="4.67410811 9.21808696 4.67410811 9.982 6.91216216 11.2687826 6.91216216 10.5383478"></polygon>
                <polygon id="Shape" fill="#D2B6A5" points="3.11686486 9.09330435 4.67410811 9.9813913 4.67410811 9.21747826 3.11686486 8.31234783"></polygon>
                <polygon id="Shape" fill="#B17F5F" points="3.11686486 8.31295652 3.10854054 8.31295652 0.594594595 6.96469565 0.594594595 7.78156522 3.11686486 9.09330435"></polygon>
                <path d="M5.08735135,7.86434783 C4.68718919,8.08591304 4.03016216,8.23504348 3.11686486,8.31234783 L4.67410811,9.21747826 C5.47443243,9.14565217 6.05832432,9.00686957 6.42578378,8.80234783 C6.96091892,8.50347826 7.62627027,7.73408696 8.42064865,6.49417391 C9.23167568,5.22686957 9.95351351,4.3966087 10.5861622,4.0033913 C11.2348649,3.59373913 12.2944324,3.35878261 13.7648649,3.29791304 C14.5544865,3.26443478 15.1027027,3.22852174 15.4112973,3.19017391 C15.7139459,3.15121739 15.9898378,3.0933913 16.2383784,3.01608696 L14.7459459,2.11947826 C14.5348649,2.17486957 14.3077297,2.21930435 14.0645405,2.25217391 C13.7618919,2.2966087 13.2154595,2.33252174 12.4264324,2.35991304 C10.9506486,2.42626087 9.88810811,2.66121739 9.23940541,3.0653913 C8.61210811,3.4586087 7.89027027,4.29130435 7.07389189,5.56408696 C6.28486486,6.79913043 5.62248649,7.56608696 5.08735135,7.86434783 Z" id="Shape" fill="#EECCB6"></path>
                <path d="M3.11686486,8.31295652 C4.03075676,8.23565217 4.68718919,8.08591304 5.08735135,7.86495652 C5.62248649,7.56608696 6.28486486,6.79973913 7.07448649,5.56530435 C7.89086486,4.29252174 8.6127027,3.45921739 9.24,3.0666087 C9.8887027,2.66243478 10.9512432,2.42747826 12.427027,2.36113043 C13.2166486,2.33313043 13.7624865,2.29721739 14.0651351,2.2533913 C14.3083243,2.21991304 14.5354595,2.17608696 14.7465405,2.12069565 L12.2325946,0.609913043 C12.0108108,0.67626087 11.7676216,0.726173913 11.5024324,0.759043478 C11.1997838,0.798 10.6533514,0.833913043 9.86432432,0.866782609 C8.39389189,0.927652174 7.33135135,1.16017391 6.6772973,1.56434783 C6.05,1.96304348 5.32816216,2.79573913 4.51178378,4.06304348 C3.72216216,5.30295652 3.06037838,6.06930435 2.52464865,6.36269565 C2.12448649,6.58973913 1.50789189,6.89347826 0.594594595,6.96530435 L3.10854054,8.31356522 L3.11686486,8.31356522 L3.11686486,8.31295652 Z" id="Shape" fill="#C48863"></path>
            </g>
            <g id="bacon-copy-2" transform="translate(128.000000, 73.000000)">
                <polygon id="Shape" fill="#CAA28A" points="6.92048649 10.5377391 6.91216216 10.5377391 6.91216216 11.2681739 8.29102703 12.0570435 8.29102703 11.3430435 8.29102703 11.3345217"></polygon>
                <path d="M16.0677297,7.21730435 C15.4404324,7.61052174 14.7185946,8.44321739 13.9022162,9.716 C13.1125946,10.9504348 12.4508108,11.7167826 11.9156757,12.0156522 C11.5428649,12.2256522 10.958973,12.3668696 10.164,12.4393043 L8.29875676,11.3436522 L8.29043243,11.3436522 L8.29043243,12.0576522 L10.164,13.1283478 C11.2128649,13.0674783 11.9590811,12.9153043 12.4020541,12.6718261 C12.9371892,12.3729565 13.6025405,11.6066087 14.3969189,10.3721739 C15.2079459,9.0993913 15.9297838,8.26608696 16.5624324,7.87347826 C17.2111351,7.46930435 18.2707027,7.23434783 19.7411351,7.168 C20.5301622,7.1406087 21.078973,7.10469565 21.3875676,7.06026087 C21.4630811,7.04930435 21.5362162,7.03834783 21.6063784,7.02678261 L21.6063784,6.26286957 C21.3899459,6.32373913 21.1521081,6.3706087 20.8928649,6.40408696 C20.5902162,6.44852174 20.0437838,6.48443478 19.2547568,6.51182609 C17.7849189,6.57817391 16.7223784,6.81313043 16.0677297,7.21730435 Z" id="Shape" fill="#B66F46"></path>
                <path d="M13.9028108,9.716 C14.7191892,8.44321739 15.441027,7.60991304 16.0683243,7.21730435 C16.7223784,6.81313043 17.7849189,6.57817391 19.2553514,6.51182609 C20.0443784,6.48382609 20.5908108,6.44791304 20.8934595,6.40408696 C21.1527027,6.3706087 21.3905405,6.32373913 21.606973,6.26286957 C21.6176757,6.26286957 21.6283784,6.25982609 21.6396757,6.25434783 L19.7904865,5.15017391 C19.5526486,5.222 19.2904324,5.2773913 19.0038378,5.31634783 C18.7011892,5.35530435 18.1547568,5.39121739 17.3657297,5.42408696 C15.8952973,5.48495652 14.8327568,5.71747826 14.1787027,6.12165217 C13.5514054,6.52034783 12.8295676,7.35304348 12.0131892,8.62034783 C11.2241622,9.86026087 10.5617838,10.6266087 10.0266486,10.92 C9.65918919,11.1245217 9.08302703,11.2657391 8.29935135,11.3436522 L10.1645946,12.4393043 C10.9595676,12.3674783 11.5434595,12.2262609 11.9162703,12.0156522 C12.4514054,11.7167826 13.1131892,10.9504348 13.9028108,9.716 Z" id="Shape" fill="#C68660"></path>
                <path d="M18.4687027,4.35278261 C18.2415676,4.41913043 17.993027,4.46904348 17.7224865,4.50191304 C17.4198378,4.54086957 16.874,4.57678261 16.0843784,4.60965217 C14.6139459,4.67052174 13.5514054,4.90547826 12.8973514,5.31513043 C12.2700541,5.70834783 11.5482162,6.538 10.7318378,7.80591304 C9.94281081,9.04582609 9.28043243,9.81521739 8.7447027,10.114087 C8.36594595,10.3246957 7.75827027,10.4653043 6.91989189,10.5377391 L8.29043243,11.3345217 L8.29875676,11.3430435 C9.08243243,11.2657391 9.65859459,11.1245217 10.0260541,10.9193913 C10.5611892,10.626 11.2235676,9.85965217 12.0125946,8.61973913 C12.828973,7.35243478 13.5508108,6.51913043 14.1781081,6.12104348 C14.8321622,5.71686957 15.8947027,5.48434783 17.3651351,5.42347826 C18.1547568,5.39 18.7005946,5.35408696 19.0032432,5.31573913 C19.2898378,5.27678261 19.5520541,5.2213913 19.7898919,5.14956522 L18.4687027,4.35278261 Z" id="Shape" fill="#F9E2D6"></path>
                <path d="M17.7224865,4.50252174 C17.993027,4.46904348 18.2415676,4.41973913 18.4687027,4.3533913 L16.2383784,3.01669565 C15.9898378,3.094 15.7139459,3.15243478 15.4112973,3.19078261 C15.1032973,3.22973913 14.5544865,3.26565217 13.7648649,3.29852174 C12.2944324,3.3593913 11.2348649,3.59434783 10.5861622,4.004 C9.95351351,4.39721739 9.23167568,5.22747826 8.42064865,6.49478261 C7.62567568,7.73469565 6.96091892,8.50408696 6.42578378,8.80295652 C6.05832432,9.00808696 5.47443243,9.14626087 4.67410811,9.21808696 L6.91216216,10.5383478 L6.92048649,10.5383478 C7.75827027,10.4665217 8.36654054,10.3253043 8.7452973,10.1146957 C9.28043243,9.81582609 9.94281081,9.04643478 10.7324324,7.80652174 C11.5488108,6.53921739 12.2706486,5.70895652 12.8979459,5.31573913 C13.552,4.90608696 14.6145405,4.67113043 16.084973,4.61026087 C16.8734054,4.57678261 17.4198378,4.54086957 17.7224865,4.50252174 Z" id="Shape" fill="#BF9073"></path>
                <polygon id="Shape" fill="#AF8266" points="4.67410811 9.21808696 4.67410811 9.982 6.91216216 11.2687826 6.91216216 10.5383478"></polygon>
                <polygon id="Shape" fill="#D2B6A5" points="3.11686486 9.09330435 4.67410811 9.9813913 4.67410811 9.21747826 3.11686486 8.31234783"></polygon>
                <polygon id="Shape" fill="#B17F5F" points="3.11686486 8.31295652 3.10854054 8.31295652 0.594594595 6.96469565 0.594594595 7.78156522 3.11686486 9.09330435"></polygon>
                <path d="M5.08735135,7.86434783 C4.68718919,8.08591304 4.03016216,8.23504348 3.11686486,8.31234783 L4.67410811,9.21747826 C5.47443243,9.14565217 6.05832432,9.00686957 6.42578378,8.80234783 C6.96091892,8.50347826 7.62627027,7.73408696 8.42064865,6.49417391 C9.23167568,5.22686957 9.95351351,4.3966087 10.5861622,4.0033913 C11.2348649,3.59373913 12.2944324,3.35878261 13.7648649,3.29791304 C14.5544865,3.26443478 15.1027027,3.22852174 15.4112973,3.19017391 C15.7139459,3.15121739 15.9898378,3.0933913 16.2383784,3.01608696 L14.7459459,2.11947826 C14.5348649,2.17486957 14.3077297,2.21930435 14.0645405,2.25217391 C13.7618919,2.2966087 13.2154595,2.33252174 12.4264324,2.35991304 C10.9506486,2.42626087 9.88810811,2.66121739 9.23940541,3.0653913 C8.61210811,3.4586087 7.89027027,4.29130435 7.07389189,5.56408696 C6.28486486,6.79913043 5.62248649,7.56608696 5.08735135,7.86434783 Z" id="Shape" fill="#EECCB6"></path>
                <path d="M3.11686486,8.31295652 C4.03075676,8.23565217 4.68718919,8.08591304 5.08735135,7.86495652 C5.62248649,7.56608696 6.28486486,6.79973913 7.07448649,5.56530435 C7.89086486,4.29252174 8.6127027,3.45921739 9.24,3.0666087 C9.8887027,2.66243478 10.9512432,2.42747826 12.427027,2.36113043 C13.2166486,2.33313043 13.7624865,2.29721739 14.0651351,2.2533913 C14.3083243,2.21991304 14.5354595,2.17608696 14.7465405,2.12069565 L12.2325946,0.609913043 C12.0108108,0.67626087 11.7676216,0.726173913 11.5024324,0.759043478 C11.1997838,0.798 10.6533514,0.833913043 9.86432432,0.866782609 C8.39389189,0.927652174 7.33135135,1.16017391 6.6772973,1.56434783 C6.05,1.96304348 5.32816216,2.79573913 4.51178378,4.06304348 C3.72216216,5.30295652 3.06037838,6.06930435 2.52464865,6.36269565 C2.12448649,6.58973913 1.50789189,6.89347826 0.594594595,6.96530435 L3.10854054,8.31356522 L3.11686486,8.31356522 L3.11686486,8.31295652 Z" id="Shape" fill="#C48863"></path>
            </g>
            <g id="bacon-copy-3" transform="translate(65.000000, 52.000000)">
                <polygon id="Shape" fill="#CAA28A" points="6.92048649 10.5377391 6.91216216 10.5377391 6.91216216 11.2681739 8.29102703 12.0570435 8.29102703 11.3430435 8.29102703 11.3345217"></polygon>
                <path d="M16.0677297,7.21730435 C15.4404324,7.61052174 14.7185946,8.44321739 13.9022162,9.716 C13.1125946,10.9504348 12.4508108,11.7167826 11.9156757,12.0156522 C11.5428649,12.2256522 10.958973,12.3668696 10.164,12.4393043 L8.29875676,11.3436522 L8.29043243,11.3436522 L8.29043243,12.0576522 L10.164,13.1283478 C11.2128649,13.0674783 11.9590811,12.9153043 12.4020541,12.6718261 C12.9371892,12.3729565 13.6025405,11.6066087 14.3969189,10.3721739 C15.2079459,9.0993913 15.9297838,8.26608696 16.5624324,7.87347826 C17.2111351,7.46930435 18.2707027,7.23434783 19.7411351,7.168 C20.5301622,7.1406087 21.078973,7.10469565 21.3875676,7.06026087 C21.4630811,7.04930435 21.5362162,7.03834783 21.6063784,7.02678261 L21.6063784,6.26286957 C21.3899459,6.32373913 21.1521081,6.3706087 20.8928649,6.40408696 C20.5902162,6.44852174 20.0437838,6.48443478 19.2547568,6.51182609 C17.7849189,6.57817391 16.7223784,6.81313043 16.0677297,7.21730435 Z" id="Shape" fill="#B66F46"></path>
                <path d="M13.9028108,9.716 C14.7191892,8.44321739 15.441027,7.60991304 16.0683243,7.21730435 C16.7223784,6.81313043 17.7849189,6.57817391 19.2553514,6.51182609 C20.0443784,6.48382609 20.5908108,6.44791304 20.8934595,6.40408696 C21.1527027,6.3706087 21.3905405,6.32373913 21.606973,6.26286957 C21.6176757,6.26286957 21.6283784,6.25982609 21.6396757,6.25434783 L19.7904865,5.15017391 C19.5526486,5.222 19.2904324,5.2773913 19.0038378,5.31634783 C18.7011892,5.35530435 18.1547568,5.39121739 17.3657297,5.42408696 C15.8952973,5.48495652 14.8327568,5.71747826 14.1787027,6.12165217 C13.5514054,6.52034783 12.8295676,7.35304348 12.0131892,8.62034783 C11.2241622,9.86026087 10.5617838,10.6266087 10.0266486,10.92 C9.65918919,11.1245217 9.08302703,11.2657391 8.29935135,11.3436522 L10.1645946,12.4393043 C10.9595676,12.3674783 11.5434595,12.2262609 11.9162703,12.0156522 C12.4514054,11.7167826 13.1131892,10.9504348 13.9028108,9.716 Z" id="Shape" fill="#C68660"></path>
                <path d="M18.4687027,4.35278261 C18.2415676,4.41913043 17.993027,4.46904348 17.7224865,4.50191304 C17.4198378,4.54086957 16.874,4.57678261 16.0843784,4.60965217 C14.6139459,4.67052174 13.5514054,4.90547826 12.8973514,5.31513043 C12.2700541,5.70834783 11.5482162,6.538 10.7318378,7.80591304 C9.94281081,9.04582609 9.28043243,9.81521739 8.7447027,10.114087 C8.36594595,10.3246957 7.75827027,10.4653043 6.91989189,10.5377391 L8.29043243,11.3345217 L8.29875676,11.3430435 C9.08243243,11.2657391 9.65859459,11.1245217 10.0260541,10.9193913 C10.5611892,10.626 11.2235676,9.85965217 12.0125946,8.61973913 C12.828973,7.35243478 13.5508108,6.51913043 14.1781081,6.12104348 C14.8321622,5.71686957 15.8947027,5.48434783 17.3651351,5.42347826 C18.1547568,5.39 18.7005946,5.35408696 19.0032432,5.31573913 C19.2898378,5.27678261 19.5520541,5.2213913 19.7898919,5.14956522 L18.4687027,4.35278261 Z" id="Shape" fill="#F9E2D6"></path>
                <path d="M17.7224865,4.50252174 C17.993027,4.46904348 18.2415676,4.41973913 18.4687027,4.3533913 L16.2383784,3.01669565 C15.9898378,3.094 15.7139459,3.15243478 15.4112973,3.19078261 C15.1032973,3.22973913 14.5544865,3.26565217 13.7648649,3.29852174 C12.2944324,3.3593913 11.2348649,3.59434783 10.5861622,4.004 C9.95351351,4.39721739 9.23167568,5.22747826 8.42064865,6.49478261 C7.62567568,7.73469565 6.96091892,8.50408696 6.42578378,8.80295652 C6.05832432,9.00808696 5.47443243,9.14626087 4.67410811,9.21808696 L6.91216216,10.5383478 L6.92048649,10.5383478 C7.75827027,10.4665217 8.36654054,10.3253043 8.7452973,10.1146957 C9.28043243,9.81582609 9.94281081,9.04643478 10.7324324,7.80652174 C11.5488108,6.53921739 12.2706486,5.70895652 12.8979459,5.31573913 C13.552,4.90608696 14.6145405,4.67113043 16.084973,4.61026087 C16.8734054,4.57678261 17.4198378,4.54086957 17.7224865,4.50252174 Z" id="Shape" fill="#BF9073"></path>
                <polygon id="Shape" fill="#AF8266" points="4.67410811 9.21808696 4.67410811 9.982 6.91216216 11.2687826 6.91216216 10.5383478"></polygon>
                <polygon id="Shape" fill="#D2B6A5" points="3.11686486 9.09330435 4.67410811 9.9813913 4.67410811 9.21747826 3.11686486 8.31234783"></polygon>
                <polygon id="Shape" fill="#B17F5F" points="3.11686486 8.31295652 3.10854054 8.31295652 0.594594595 6.96469565 0.594594595 7.78156522 3.11686486 9.09330435"></polygon>
                <path d="M5.08735135,7.86434783 C4.68718919,8.08591304 4.03016216,8.23504348 3.11686486,8.31234783 L4.67410811,9.21747826 C5.47443243,9.14565217 6.05832432,9.00686957 6.42578378,8.80234783 C6.96091892,8.50347826 7.62627027,7.73408696 8.42064865,6.49417391 C9.23167568,5.22686957 9.95351351,4.3966087 10.5861622,4.0033913 C11.2348649,3.59373913 12.2944324,3.35878261 13.7648649,3.29791304 C14.5544865,3.26443478 15.1027027,3.22852174 15.4112973,3.19017391 C15.7139459,3.15121739 15.9898378,3.0933913 16.2383784,3.01608696 L14.7459459,2.11947826 C14.5348649,2.17486957 14.3077297,2.21930435 14.0645405,2.25217391 C13.7618919,2.2966087 13.2154595,2.33252174 12.4264324,2.35991304 C10.9506486,2.42626087 9.88810811,2.66121739 9.23940541,3.0653913 C8.61210811,3.4586087 7.89027027,4.29130435 7.07389189,5.56408696 C6.28486486,6.79913043 5.62248649,7.56608696 5.08735135,7.86434783 Z" id="Shape" fill="#EECCB6"></path>
                <path d="M3.11686486,8.31295652 C4.03075676,8.23565217 4.68718919,8.08591304 5.08735135,7.86495652 C5.62248649,7.56608696 6.28486486,6.79973913 7.07448649,5.56530435 C7.89086486,4.29252174 8.6127027,3.45921739 9.24,3.0666087 C9.8887027,2.66243478 10.9512432,2.42747826 12.427027,2.36113043 C13.2166486,2.33313043 13.7624865,2.29721739 14.0651351,2.2533913 C14.3083243,2.21991304 14.5354595,2.17608696 14.7465405,2.12069565 L12.2325946,0.609913043 C12.0108108,0.67626087 11.7676216,0.726173913 11.5024324,0.759043478 C11.1997838,0.798 10.6533514,0.833913043 9.86432432,0.866782609 C8.39389189,0.927652174 7.33135135,1.16017391 6.6772973,1.56434783 C6.05,1.96304348 5.32816216,2.79573913 4.51178378,4.06304348 C3.72216216,5.30295652 3.06037838,6.06930435 2.52464865,6.36269565 C2.12448649,6.58973913 1.50789189,6.89347826 0.594594595,6.96530435 L3.10854054,8.31356522 L3.11686486,8.31356522 L3.11686486,8.31295652 Z" id="Shape" fill="#C48863"></path>
            </g>
            <g id="bacon-copy-4" transform="translate(106.000000, 56.000000)">
                <polygon id="Shape" fill="#CAA28A" points="6.92048649 10.5377391 6.91216216 10.5377391 6.91216216 11.2681739 8.29102703 12.0570435 8.29102703 11.3430435 8.29102703 11.3345217"></polygon>
                <path d="M16.0677297,7.21730435 C15.4404324,7.61052174 14.7185946,8.44321739 13.9022162,9.716 C13.1125946,10.9504348 12.4508108,11.7167826 11.9156757,12.0156522 C11.5428649,12.2256522 10.958973,12.3668696 10.164,12.4393043 L8.29875676,11.3436522 L8.29043243,11.3436522 L8.29043243,12.0576522 L10.164,13.1283478 C11.2128649,13.0674783 11.9590811,12.9153043 12.4020541,12.6718261 C12.9371892,12.3729565 13.6025405,11.6066087 14.3969189,10.3721739 C15.2079459,9.0993913 15.9297838,8.26608696 16.5624324,7.87347826 C17.2111351,7.46930435 18.2707027,7.23434783 19.7411351,7.168 C20.5301622,7.1406087 21.078973,7.10469565 21.3875676,7.06026087 C21.4630811,7.04930435 21.5362162,7.03834783 21.6063784,7.02678261 L21.6063784,6.26286957 C21.3899459,6.32373913 21.1521081,6.3706087 20.8928649,6.40408696 C20.5902162,6.44852174 20.0437838,6.48443478 19.2547568,6.51182609 C17.7849189,6.57817391 16.7223784,6.81313043 16.0677297,7.21730435 Z" id="Shape" fill="#B66F46"></path>
                <path d="M13.9028108,9.716 C14.7191892,8.44321739 15.441027,7.60991304 16.0683243,7.21730435 C16.7223784,6.81313043 17.7849189,6.57817391 19.2553514,6.51182609 C20.0443784,6.48382609 20.5908108,6.44791304 20.8934595,6.40408696 C21.1527027,6.3706087 21.3905405,6.32373913 21.606973,6.26286957 C21.6176757,6.26286957 21.6283784,6.25982609 21.6396757,6.25434783 L19.7904865,5.15017391 C19.5526486,5.222 19.2904324,5.2773913 19.0038378,5.31634783 C18.7011892,5.35530435 18.1547568,5.39121739 17.3657297,5.42408696 C15.8952973,5.48495652 14.8327568,5.71747826 14.1787027,6.12165217 C13.5514054,6.52034783 12.8295676,7.35304348 12.0131892,8.62034783 C11.2241622,9.86026087 10.5617838,10.6266087 10.0266486,10.92 C9.65918919,11.1245217 9.08302703,11.2657391 8.29935135,11.3436522 L10.1645946,12.4393043 C10.9595676,12.3674783 11.5434595,12.2262609 11.9162703,12.0156522 C12.4514054,11.7167826 13.1131892,10.9504348 13.9028108,9.716 Z" id="Shape" fill="#C68660"></path>
                <path d="M18.4687027,4.35278261 C18.2415676,4.41913043 17.993027,4.46904348 17.7224865,4.50191304 C17.4198378,4.54086957 16.874,4.57678261 16.0843784,4.60965217 C14.6139459,4.67052174 13.5514054,4.90547826 12.8973514,5.31513043 C12.2700541,5.70834783 11.5482162,6.538 10.7318378,7.80591304 C9.94281081,9.04582609 9.28043243,9.81521739 8.7447027,10.114087 C8.36594595,10.3246957 7.75827027,10.4653043 6.91989189,10.5377391 L8.29043243,11.3345217 L8.29875676,11.3430435 C9.08243243,11.2657391 9.65859459,11.1245217 10.0260541,10.9193913 C10.5611892,10.626 11.2235676,9.85965217 12.0125946,8.61973913 C12.828973,7.35243478 13.5508108,6.51913043 14.1781081,6.12104348 C14.8321622,5.71686957 15.8947027,5.48434783 17.3651351,5.42347826 C18.1547568,5.39 18.7005946,5.35408696 19.0032432,5.31573913 C19.2898378,5.27678261 19.5520541,5.2213913 19.7898919,5.14956522 L18.4687027,4.35278261 Z" id="Shape" fill="#F9E2D6"></path>
                <path d="M17.7224865,4.50252174 C17.993027,4.46904348 18.2415676,4.41973913 18.4687027,4.3533913 L16.2383784,3.01669565 C15.9898378,3.094 15.7139459,3.15243478 15.4112973,3.19078261 C15.1032973,3.22973913 14.5544865,3.26565217 13.7648649,3.29852174 C12.2944324,3.3593913 11.2348649,3.59434783 10.5861622,4.004 C9.95351351,4.39721739 9.23167568,5.22747826 8.42064865,6.49478261 C7.62567568,7.73469565 6.96091892,8.50408696 6.42578378,8.80295652 C6.05832432,9.00808696 5.47443243,9.14626087 4.67410811,9.21808696 L6.91216216,10.5383478 L6.92048649,10.5383478 C7.75827027,10.4665217 8.36654054,10.3253043 8.7452973,10.1146957 C9.28043243,9.81582609 9.94281081,9.04643478 10.7324324,7.80652174 C11.5488108,6.53921739 12.2706486,5.70895652 12.8979459,5.31573913 C13.552,4.90608696 14.6145405,4.67113043 16.084973,4.61026087 C16.8734054,4.57678261 17.4198378,4.54086957 17.7224865,4.50252174 Z" id="Shape" fill="#BF9073"></path>
                <polygon id="Shape" fill="#AF8266" points="4.67410811 9.21808696 4.67410811 9.982 6.91216216 11.2687826 6.91216216 10.5383478"></polygon>
                <polygon id="Shape" fill="#D2B6A5" points="3.11686486 9.09330435 4.67410811 9.9813913 4.67410811 9.21747826 3.11686486 8.31234783"></polygon>
                <polygon id="Shape" fill="#B17F5F" points="3.11686486 8.31295652 3.10854054 8.31295652 0.594594595 6.96469565 0.594594595 7.78156522 3.11686486 9.09330435"></polygon>
                <path d="M5.08735135,7.86434783 C4.68718919,8.08591304 4.03016216,8.23504348 3.11686486,8.31234783 L4.67410811,9.21747826 C5.47443243,9.14565217 6.05832432,9.00686957 6.42578378,8.80234783 C6.96091892,8.50347826 7.62627027,7.73408696 8.42064865,6.49417391 C9.23167568,5.22686957 9.95351351,4.3966087 10.5861622,4.0033913 C11.2348649,3.59373913 12.2944324,3.35878261 13.7648649,3.29791304 C14.5544865,3.26443478 15.1027027,3.22852174 15.4112973,3.19017391 C15.7139459,3.15121739 15.9898378,3.0933913 16.2383784,3.01608696 L14.7459459,2.11947826 C14.5348649,2.17486957 14.3077297,2.21930435 14.0645405,2.25217391 C13.7618919,2.2966087 13.2154595,2.33252174 12.4264324,2.35991304 C10.9506486,2.42626087 9.88810811,2.66121739 9.23940541,3.0653913 C8.61210811,3.4586087 7.89027027,4.29130435 7.07389189,5.56408696 C6.28486486,6.79913043 5.62248649,7.56608696 5.08735135,7.86434783 Z" id="Shape" fill="#EECCB6"></path>
                <path d="M3.11686486,8.31295652 C4.03075676,8.23565217 4.68718919,8.08591304 5.08735135,7.86495652 C5.62248649,7.56608696 6.28486486,6.79973913 7.07448649,5.56530435 C7.89086486,4.29252174 8.6127027,3.45921739 9.24,3.0666087 C9.8887027,2.66243478 10.9512432,2.42747826 12.427027,2.36113043 C13.2166486,2.33313043 13.7624865,2.29721739 14.0651351,2.2533913 C14.3083243,2.21991304 14.5354595,2.17608696 14.7465405,2.12069565 L12.2325946,0.609913043 C12.0108108,0.67626087 11.7676216,0.726173913 11.5024324,0.759043478 C11.1997838,0.798 10.6533514,0.833913043 9.86432432,0.866782609 C8.39389189,0.927652174 7.33135135,1.16017391 6.6772973,1.56434783 C6.05,1.96304348 5.32816216,2.79573913 4.51178378,4.06304348 C3.72216216,5.30295652 3.06037838,6.06930435 2.52464865,6.36269565 C2.12448649,6.58973913 1.50789189,6.89347826 0.594594595,6.96530435 L3.10854054,8.31356522 L3.11686486,8.31356522 L3.11686486,8.31295652 Z" id="Shape" fill="#C48863"></path>
            </g>
        </g>
    </g>
</svg>