<?xml version="1.0" encoding="UTF-8"?>
<svg width="225px" height="159px" viewBox="0 0 225 159" version="1.1" xmlns="http://www.w3.org/2000/svg" xmlns:xlink="http://www.w3.org/1999/xlink">
    <!-- Generator: Sketch 46.2 (44496) - http://www.bohemiancoding.com/sketch -->
    <title>Artboard</title>
    <desc>Created with Sketch.</desc>
    <defs></defs>
    <g id="Page-1" stroke="none" stroke-width="1" fill="none" fill-rule="evenodd">
        <g id="Artboard" fill-rule="nonzero">
            <g id="mozzarella" transform="translate(90.000000, 32.000000)">
                <path d="M15.6074146,7.7937931 L15.6074146,6.19655172 C15.5719024,6.456 15.500878,6.70427586 15.3943415,6.94137931 C15.107122,7.56206897 14.5639024,8.10951724 13.7654634,8.58372414 C12.3816585,9.40386207 11.0189268,9.432 9.67765854,8.66855172 C8.44058537,7.9617931 6.8257561,7.45944828 4.83434146,7.16151724 L5.0844878,7.18965517 C4.8737561,7.13793103 4.72468293,7.11517241 4.63726829,7.1217931 C4.26770732,7.07255172 4.06712195,7.04606897 4.03590244,7.04275862 C2.32897561,6.65131034 1.21834146,6.04013793 0.704,5.20841379 C0.576390244,4.9977931 0.489365854,4.77393103 0.443317073,4.53682759 C0.411317073,4.37875862 0.393756098,4.22648276 0.390243902,4.07958621 L0.395707317,6.28634483 C0.392195122,6.34262069 0.392195122,6.40096552 0.395707317,6.46137931 C0.399219512,6.60041379 0.415219512,6.74151724 0.443707317,6.88468966 C0.670829268,8.05489655 1.89502439,8.79806897 4.11629268,9.1137931 L4.27082927,9.11958621 C6.53463415,9.62358621 8.33717073,10.2558621 9.67843902,11.016 C11.0197073,11.7798621 12.382439,11.7517241 13.7662439,10.9311724 C15.0509268,10.1710345 15.6718049,9.21558621 15.6292683,8.064 C15.6253659,7.9742069 15.6183415,7.884 15.6074146,7.7937931 L15.6074146,7.7937931 Z M3.33385366,5.25972414 C3.32682927,5.25475862 3.31980488,5.24896552 3.31239024,5.24275862 C3.11180488,5.208 3.11882927,5.21337931 3.33385366,5.25972414 L3.33385366,5.25972414 Z M1.75843902,4.31710345 L2.23765854,4.85337931 C2.416,4.96510345 2.7582439,5.08344828 3.26478049,5.20882759 C1.55863415,3.93517241 1.82634146,2.79351724 4.06868293,1.78303448 C2.02068293,2.47531034 1.25073171,3.32027586 1.75843902,4.31710345 Z" id="Shape" fill="#E9E9E9"></path>
                <path d="M15.628878,5.98758621 C15.6359024,5.81089655 15.628878,5.63006897 15.6074146,5.44593103 C15.4583415,4.17062069 14.5838049,3.04344828 12.9834146,2.06524138 C11.3830244,1.08703448 9.52390244,0.543310345 7.40526829,0.434068966 C5.29404878,0.321103448 3.54653659,0.674896552 2.16273171,1.49503448 C0.970536585,2.2022069 0.379707317,3.05255172 0.390243902,4.04606897 L0.390243902,4.08 C0.393756098,4.22689655 0.411707317,4.37917241 0.443317073,4.53724138 C0.489365854,4.77434483 0.576390244,4.9982069 0.704,5.20882759 C1.21834146,6.04013793 2.32897561,6.65172414 4.03590244,7.04317241 C4.06712195,7.04648276 4.26770732,7.07296552 4.63726829,7.1222069 C4.72468293,7.11558621 4.8737561,7.13834483 5.0844878,7.19006897 L4.83434146,7.16193103 C6.82614634,7.45986207 8.44058537,7.9622069 9.67765854,8.66896552 C11.0189268,9.43282759 12.3816585,9.40468966 13.7654634,8.58413793 C14.5639024,8.10993103 15.1067317,7.56248276 15.3943415,6.9417931 C15.500878,6.70468966 15.5719024,6.45641379 15.6074146,6.19696552 C15.6183415,6.12868966 15.6253659,6.05917241 15.628878,5.98758621 L15.628878,5.98758621 Z M2.23726829,4.85337931 L1.75804878,4.31710345 C1.25073171,3.31986207 2.02068293,2.47531034 4.06790244,1.78303448 C1.82595122,2.79351724 1.55785366,3.93517241 3.264,5.20882759 C2.75785366,5.08344828 2.41560976,4.96468966 2.23726829,4.85337931 L2.23726829,4.85337931 Z M3.31239024,5.24275862 C3.31941463,5.24896552 3.32682927,5.25475862 3.33385366,5.25972414 C3.11882927,5.21337931 3.11180488,5.208 3.31239024,5.24275862 Z" id="Shape" fill="#FFFFFF"></path>
            </g>
            <g id="mozzarella-copy-5" transform="translate(62.000000, 51.000000)">
                <path d="M15.6074146,7.7937931 L15.6074146,6.19655172 C15.5719024,6.456 15.500878,6.70427586 15.3943415,6.94137931 C15.107122,7.56206897 14.5639024,8.10951724 13.7654634,8.58372414 C12.3816585,9.40386207 11.0189268,9.432 9.67765854,8.66855172 C8.44058537,7.9617931 6.8257561,7.45944828 4.83434146,7.16151724 L5.0844878,7.18965517 C4.8737561,7.13793103 4.72468293,7.11517241 4.63726829,7.1217931 C4.26770732,7.07255172 4.06712195,7.04606897 4.03590244,7.04275862 C2.32897561,6.65131034 1.21834146,6.04013793 0.704,5.20841379 C0.576390244,4.9977931 0.489365854,4.77393103 0.443317073,4.53682759 C0.411317073,4.37875862 0.393756098,4.22648276 0.390243902,4.07958621 L0.395707317,6.28634483 C0.392195122,6.34262069 0.392195122,6.40096552 0.395707317,6.46137931 C0.399219512,6.60041379 0.415219512,6.74151724 0.443707317,6.88468966 C0.670829268,8.05489655 1.89502439,8.79806897 4.11629268,9.1137931 L4.27082927,9.11958621 C6.53463415,9.62358621 8.33717073,10.2558621 9.67843902,11.016 C11.0197073,11.7798621 12.382439,11.7517241 13.7662439,10.9311724 C15.0509268,10.1710345 15.6718049,9.21558621 15.6292683,8.064 C15.6253659,7.9742069 15.6183415,7.884 15.6074146,7.7937931 L15.6074146,7.7937931 Z M3.33385366,5.25972414 C3.32682927,5.25475862 3.31980488,5.24896552 3.31239024,5.24275862 C3.11180488,5.208 3.11882927,5.21337931 3.33385366,5.25972414 L3.33385366,5.25972414 Z M1.75843902,4.31710345 L2.23765854,4.85337931 C2.416,4.96510345 2.7582439,5.08344828 3.26478049,5.20882759 C1.55863415,3.93517241 1.82634146,2.79351724 4.06868293,1.78303448 C2.02068293,2.47531034 1.25073171,3.32027586 1.75843902,4.31710345 Z" id="Shape" fill="#E9E9E9"></path>
                <path d="M15.628878,5.98758621 C15.6359024,5.81089655 15.628878,5.63006897 15.6074146,5.44593103 C15.4583415,4.17062069 14.5838049,3.04344828 12.9834146,2.06524138 C11.3830244,1.08703448 9.52390244,0.543310345 7.40526829,0.434068966 C5.29404878,0.321103448 3.54653659,0.674896552 2.16273171,1.49503448 C0.970536585,2.2022069 0.379707317,3.05255172 0.390243902,4.04606897 L0.390243902,4.08 C0.393756098,4.22689655 0.411707317,4.37917241 0.443317073,4.53724138 C0.489365854,4.77434483 0.576390244,4.9982069 0.704,5.20882759 C1.21834146,6.04013793 2.32897561,6.65172414 4.03590244,7.04317241 C4.06712195,7.04648276 4.26770732,7.07296552 4.63726829,7.1222069 C4.72468293,7.11558621 4.8737561,7.13834483 5.0844878,7.19006897 L4.83434146,7.16193103 C6.82614634,7.45986207 8.44058537,7.9622069 9.67765854,8.66896552 C11.0189268,9.43282759 12.3816585,9.40468966 13.7654634,8.58413793 C14.5639024,8.10993103 15.1067317,7.56248276 15.3943415,6.9417931 C15.500878,6.70468966 15.5719024,6.45641379 15.6074146,6.19696552 C15.6183415,6.12868966 15.6253659,6.05917241 15.628878,5.98758621 L15.628878,5.98758621 Z M2.23726829,4.85337931 L1.75804878,4.31710345 C1.25073171,3.31986207 2.02068293,2.47531034 4.06790244,1.78303448 C1.82595122,2.79351724 1.55785366,3.93517241 3.264,5.20882759 C2.75785366,5.08344828 2.41560976,4.96468966 2.23726829,4.85337931 L2.23726829,4.85337931 Z M3.31239024,5.24275862 C3.31941463,5.24896552 3.32682927,5.25475862 3.33385366,5.25972414 C3.11882927,5.21337931 3.11180488,5.208 3.31239024,5.24275862 Z" id="Shape" fill="#FFFFFF"></path>
            </g>
            <g id="mozzarella-copy-7" transform="translate(101.000000, 65.000000)">
                <path d="M15.6074146,7.7937931 L15.6074146,6.19655172 C15.5719024,6.456 15.500878,6.70427586 15.3943415,6.94137931 C15.107122,7.56206897 14.5639024,8.10951724 13.7654634,8.58372414 C12.3816585,9.40386207 11.0189268,9.432 9.67765854,8.66855172 C8.44058537,7.9617931 6.8257561,7.45944828 4.83434146,7.16151724 L5.0844878,7.18965517 C4.8737561,7.13793103 4.72468293,7.11517241 4.63726829,7.1217931 C4.26770732,7.07255172 4.06712195,7.04606897 4.03590244,7.04275862 C2.32897561,6.65131034 1.21834146,6.04013793 0.704,5.20841379 C0.576390244,4.9977931 0.489365854,4.77393103 0.443317073,4.53682759 C0.411317073,4.37875862 0.393756098,4.22648276 0.390243902,4.07958621 L0.395707317,6.28634483 C0.392195122,6.34262069 0.392195122,6.40096552 0.395707317,6.46137931 C0.399219512,6.60041379 0.415219512,6.74151724 0.443707317,6.88468966 C0.670829268,8.05489655 1.89502439,8.79806897 4.11629268,9.1137931 L4.27082927,9.11958621 C6.53463415,9.62358621 8.33717073,10.2558621 9.67843902,11.016 C11.0197073,11.7798621 12.382439,11.7517241 13.7662439,10.9311724 C15.0509268,10.1710345 15.6718049,9.21558621 15.6292683,8.064 C15.6253659,7.9742069 15.6183415,7.884 15.6074146,7.7937931 L15.6074146,7.7937931 Z M3.33385366,5.25972414 C3.32682927,5.25475862 3.31980488,5.24896552 3.31239024,5.24275862 C3.11180488,5.208 3.11882927,5.21337931 3.33385366,5.25972414 L3.33385366,5.25972414 Z M1.75843902,4.31710345 L2.23765854,4.85337931 C2.416,4.96510345 2.7582439,5.08344828 3.26478049,5.20882759 C1.55863415,3.93517241 1.82634146,2.79351724 4.06868293,1.78303448 C2.02068293,2.47531034 1.25073171,3.32027586 1.75843902,4.31710345 Z" id="Shape" fill="#E9E9E9"></path>
                <path d="M15.628878,5.98758621 C15.6359024,5.81089655 15.628878,5.63006897 15.6074146,5.44593103 C15.4583415,4.17062069 14.5838049,3.04344828 12.9834146,2.06524138 C11.3830244,1.08703448 9.52390244,0.543310345 7.40526829,0.434068966 C5.29404878,0.321103448 3.54653659,0.674896552 2.16273171,1.49503448 C0.970536585,2.2022069 0.379707317,3.05255172 0.390243902,4.04606897 L0.390243902,4.08 C0.393756098,4.22689655 0.411707317,4.37917241 0.443317073,4.53724138 C0.489365854,4.77434483 0.576390244,4.9982069 0.704,5.20882759 C1.21834146,6.04013793 2.32897561,6.65172414 4.03590244,7.04317241 C4.06712195,7.04648276 4.26770732,7.07296552 4.63726829,7.1222069 C4.72468293,7.11558621 4.8737561,7.13834483 5.0844878,7.19006897 L4.83434146,7.16193103 C6.82614634,7.45986207 8.44058537,7.9622069 9.67765854,8.66896552 C11.0189268,9.43282759 12.3816585,9.40468966 13.7654634,8.58413793 C14.5639024,8.10993103 15.1067317,7.56248276 15.3943415,6.9417931 C15.500878,6.70468966 15.5719024,6.45641379 15.6074146,6.19696552 C15.6183415,6.12868966 15.6253659,6.05917241 15.628878,5.98758621 L15.628878,5.98758621 Z M2.23726829,4.85337931 L1.75804878,4.31710345 C1.25073171,3.31986207 2.02068293,2.47531034 4.06790244,1.78303448 C1.82595122,2.79351724 1.55785366,3.93517241 3.264,5.20882759 C2.75785366,5.08344828 2.41560976,4.96468966 2.23726829,4.85337931 L2.23726829,4.85337931 Z M3.31239024,5.24275862 C3.31941463,5.24896552 3.32682927,5.25475862 3.33385366,5.25972414 C3.11882927,5.21337931 3.11180488,5.208 3.31239024,5.24275862 Z" id="Shape" fill="#FFFFFF"></path>
            </g>
            <g id="mozzarella-copy" transform="translate(113.000000, 59.000000)">
                <path d="M15.6074146,7.7937931 L15.6074146,6.19655172 C15.5719024,6.456 15.500878,6.70427586 15.3943415,6.94137931 C15.107122,7.56206897 14.5639024,8.10951724 13.7654634,8.58372414 C12.3816585,9.40386207 11.0189268,9.432 9.67765854,8.66855172 C8.44058537,7.9617931 6.8257561,7.45944828 4.83434146,7.16151724 L5.0844878,7.18965517 C4.8737561,7.13793103 4.72468293,7.11517241 4.63726829,7.1217931 C4.26770732,7.07255172 4.06712195,7.04606897 4.03590244,7.04275862 C2.32897561,6.65131034 1.21834146,6.04013793 0.704,5.20841379 C0.576390244,4.9977931 0.489365854,4.77393103 0.443317073,4.53682759 C0.411317073,4.37875862 0.393756098,4.22648276 0.390243902,4.07958621 L0.395707317,6.28634483 C0.392195122,6.34262069 0.392195122,6.40096552 0.395707317,6.46137931 C0.399219512,6.60041379 0.415219512,6.74151724 0.443707317,6.88468966 C0.670829268,8.05489655 1.89502439,8.79806897 4.11629268,9.1137931 L4.27082927,9.11958621 C6.53463415,9.62358621 8.33717073,10.2558621 9.67843902,11.016 C11.0197073,11.7798621 12.382439,11.7517241 13.7662439,10.9311724 C15.0509268,10.1710345 15.6718049,9.21558621 15.6292683,8.064 C15.6253659,7.9742069 15.6183415,7.884 15.6074146,7.7937931 L15.6074146,7.7937931 Z M3.33385366,5.25972414 C3.32682927,5.25475862 3.31980488,5.24896552 3.31239024,5.24275862 C3.11180488,5.208 3.11882927,5.21337931 3.33385366,5.25972414 L3.33385366,5.25972414 Z M1.75843902,4.31710345 L2.23765854,4.85337931 C2.416,4.96510345 2.7582439,5.08344828 3.26478049,5.20882759 C1.55863415,3.93517241 1.82634146,2.79351724 4.06868293,1.78303448 C2.02068293,2.47531034 1.25073171,3.32027586 1.75843902,4.31710345 Z" id="Shape" fill="#E9E9E9"></path>
                <path d="M15.628878,5.98758621 C15.6359024,5.81089655 15.628878,5.63006897 15.6074146,5.44593103 C15.4583415,4.17062069 14.5838049,3.04344828 12.9834146,2.06524138 C11.3830244,1.08703448 9.52390244,0.543310345 7.40526829,0.434068966 C5.29404878,0.321103448 3.54653659,0.674896552 2.16273171,1.49503448 C0.970536585,2.2022069 0.379707317,3.05255172 0.390243902,4.04606897 L0.390243902,4.08 C0.393756098,4.22689655 0.411707317,4.37917241 0.443317073,4.53724138 C0.489365854,4.77434483 0.576390244,4.9982069 0.704,5.20882759 C1.21834146,6.04013793 2.32897561,6.65172414 4.03590244,7.04317241 C4.06712195,7.04648276 4.26770732,7.07296552 4.63726829,7.1222069 C4.72468293,7.11558621 4.8737561,7.13834483 5.0844878,7.19006897 L4.83434146,7.16193103 C6.82614634,7.45986207 8.44058537,7.9622069 9.67765854,8.66896552 C11.0189268,9.43282759 12.3816585,9.40468966 13.7654634,8.58413793 C14.5639024,8.10993103 15.1067317,7.56248276 15.3943415,6.9417931 C15.500878,6.70468966 15.5719024,6.45641379 15.6074146,6.19696552 C15.6183415,6.12868966 15.6253659,6.05917241 15.628878,5.98758621 L15.628878,5.98758621 Z M2.23726829,4.85337931 L1.75804878,4.31710345 C1.25073171,3.31986207 2.02068293,2.47531034 4.06790244,1.78303448 C1.82595122,2.79351724 1.55785366,3.93517241 3.264,5.20882759 C2.75785366,5.08344828 2.41560976,4.96468966 2.23726829,4.85337931 L2.23726829,4.85337931 Z M3.31239024,5.24275862 C3.31941463,5.24896552 3.32682927,5.25475862 3.33385366,5.25972414 C3.11882927,5.21337931 3.11180488,5.208 3.31239024,5.24275862 Z" id="Shape" fill="#FFFFFF"></path>
            </g>
            <g id="mozzarella-copy-2" transform="translate(148.000000, 56.000000)">
                <path d="M15.6074146,7.7937931 L15.6074146,6.19655172 C15.5719024,6.456 15.500878,6.70427586 15.3943415,6.94137931 C15.107122,7.56206897 14.5639024,8.10951724 13.7654634,8.58372414 C12.3816585,9.40386207 11.0189268,9.432 9.67765854,8.66855172 C8.44058537,7.9617931 6.8257561,7.45944828 4.83434146,7.16151724 L5.0844878,7.18965517 C4.8737561,7.13793103 4.72468293,7.11517241 4.63726829,7.1217931 C4.26770732,7.07255172 4.06712195,7.04606897 4.03590244,7.04275862 C2.32897561,6.65131034 1.21834146,6.04013793 0.704,5.20841379 C0.576390244,4.9977931 0.489365854,4.77393103 0.443317073,4.53682759 C0.411317073,4.37875862 0.393756098,4.22648276 0.390243902,4.07958621 L0.395707317,6.28634483 C0.392195122,6.34262069 0.392195122,6.40096552 0.395707317,6.46137931 C0.399219512,6.60041379 0.415219512,6.74151724 0.443707317,6.88468966 C0.670829268,8.05489655 1.89502439,8.79806897 4.11629268,9.1137931 L4.27082927,9.11958621 C6.53463415,9.62358621 8.33717073,10.2558621 9.67843902,11.016 C11.0197073,11.7798621 12.382439,11.7517241 13.7662439,10.9311724 C15.0509268,10.1710345 15.6718049,9.21558621 15.6292683,8.064 C15.6253659,7.9742069 15.6183415,7.884 15.6074146,7.7937931 L15.6074146,7.7937931 Z M3.33385366,5.25972414 C3.32682927,5.25475862 3.31980488,5.24896552 3.31239024,5.24275862 C3.11180488,5.208 3.11882927,5.21337931 3.33385366,5.25972414 L3.33385366,5.25972414 Z M1.75843902,4.31710345 L2.23765854,4.85337931 C2.416,4.96510345 2.7582439,5.08344828 3.26478049,5.20882759 C1.55863415,3.93517241 1.82634146,2.79351724 4.06868293,1.78303448 C2.02068293,2.47531034 1.25073171,3.32027586 1.75843902,4.31710345 Z" id="Shape" fill="#E9E9E9"></path>
                <path d="M15.628878,5.98758621 C15.6359024,5.81089655 15.628878,5.63006897 15.6074146,5.44593103 C15.4583415,4.17062069 14.5838049,3.04344828 12.9834146,2.06524138 C11.3830244,1.08703448 9.52390244,0.543310345 7.40526829,0.434068966 C5.29404878,0.321103448 3.54653659,0.674896552 2.16273171,1.49503448 C0.970536585,2.2022069 0.379707317,3.05255172 0.390243902,4.04606897 L0.390243902,4.08 C0.393756098,4.22689655 0.411707317,4.37917241 0.443317073,4.53724138 C0.489365854,4.77434483 0.576390244,4.9982069 0.704,5.20882759 C1.21834146,6.04013793 2.32897561,6.65172414 4.03590244,7.04317241 C4.06712195,7.04648276 4.26770732,7.07296552 4.63726829,7.1222069 C4.72468293,7.11558621 4.8737561,7.13834483 5.0844878,7.19006897 L4.83434146,7.16193103 C6.82614634,7.45986207 8.44058537,7.9622069 9.67765854,8.66896552 C11.0189268,9.43282759 12.3816585,9.40468966 13.7654634,8.58413793 C14.5639024,8.10993103 15.1067317,7.56248276 15.3943415,6.9417931 C15.500878,6.70468966 15.5719024,6.45641379 15.6074146,6.19696552 C15.6183415,6.12868966 15.6253659,6.05917241 15.628878,5.98758621 L15.628878,5.98758621 Z M2.23726829,4.85337931 L1.75804878,4.31710345 C1.25073171,3.31986207 2.02068293,2.47531034 4.06790244,1.78303448 C1.82595122,2.79351724 1.55785366,3.93517241 3.264,5.20882759 C2.75785366,5.08344828 2.41560976,4.96468966 2.23726829,4.85337931 L2.23726829,4.85337931 Z M3.31239024,5.24275862 C3.31941463,5.24896552 3.32682927,5.25475862 3.33385366,5.25972414 C3.11882927,5.21337931 3.11180488,5.208 3.31239024,5.24275862 Z" id="Shape" fill="#FFFFFF"></path>
            </g>
            <g id="mozzarella-copy-3" transform="translate(139.000000, 39.000000)">
                <path d="M15.6074146,7.7937931 L15.6074146,6.19655172 C15.5719024,6.456 15.500878,6.70427586 15.3943415,6.94137931 C15.107122,7.56206897 14.5639024,8.10951724 13.7654634,8.58372414 C12.3816585,9.40386207 11.0189268,9.432 9.67765854,8.66855172 C8.44058537,7.9617931 6.8257561,7.45944828 4.83434146,7.16151724 L5.0844878,7.18965517 C4.8737561,7.13793103 4.72468293,7.11517241 4.63726829,7.1217931 C4.26770732,7.07255172 4.06712195,7.04606897 4.03590244,7.04275862 C2.32897561,6.65131034 1.21834146,6.04013793 0.704,5.20841379 C0.576390244,4.9977931 0.489365854,4.77393103 0.443317073,4.53682759 C0.411317073,4.37875862 0.393756098,4.22648276 0.390243902,4.07958621 L0.395707317,6.28634483 C0.392195122,6.34262069 0.392195122,6.40096552 0.395707317,6.46137931 C0.399219512,6.60041379 0.415219512,6.74151724 0.443707317,6.88468966 C0.670829268,8.05489655 1.89502439,8.79806897 4.11629268,9.1137931 L4.27082927,9.11958621 C6.53463415,9.62358621 8.33717073,10.2558621 9.67843902,11.016 C11.0197073,11.7798621 12.382439,11.7517241 13.7662439,10.9311724 C15.0509268,10.1710345 15.6718049,9.21558621 15.6292683,8.064 C15.6253659,7.9742069 15.6183415,7.884 15.6074146,7.7937931 L15.6074146,7.7937931 Z M3.33385366,5.25972414 C3.32682927,5.25475862 3.31980488,5.24896552 3.31239024,5.24275862 C3.11180488,5.208 3.11882927,5.21337931 3.33385366,5.25972414 L3.33385366,5.25972414 Z M1.75843902,4.31710345 L2.23765854,4.85337931 C2.416,4.96510345 2.7582439,5.08344828 3.26478049,5.20882759 C1.55863415,3.93517241 1.82634146,2.79351724 4.06868293,1.78303448 C2.02068293,2.47531034 1.25073171,3.32027586 1.75843902,4.31710345 Z" id="Shape" fill="#E9E9E9"></path>
                <path d="M15.628878,5.98758621 C15.6359024,5.81089655 15.628878,5.63006897 15.6074146,5.44593103 C15.4583415,4.17062069 14.5838049,3.04344828 12.9834146,2.06524138 C11.3830244,1.08703448 9.52390244,0.543310345 7.40526829,0.434068966 C5.29404878,0.321103448 3.54653659,0.674896552 2.16273171,1.49503448 C0.970536585,2.2022069 0.379707317,3.05255172 0.390243902,4.04606897 L0.390243902,4.08 C0.393756098,4.22689655 0.411707317,4.37917241 0.443317073,4.53724138 C0.489365854,4.77434483 0.576390244,4.9982069 0.704,5.20882759 C1.21834146,6.04013793 2.32897561,6.65172414 4.03590244,7.04317241 C4.06712195,7.04648276 4.26770732,7.07296552 4.63726829,7.1222069 C4.72468293,7.11558621 4.8737561,7.13834483 5.0844878,7.19006897 L4.83434146,7.16193103 C6.82614634,7.45986207 8.44058537,7.9622069 9.67765854,8.66896552 C11.0189268,9.43282759 12.3816585,9.40468966 13.7654634,8.58413793 C14.5639024,8.10993103 15.1067317,7.56248276 15.3943415,6.9417931 C15.500878,6.70468966 15.5719024,6.45641379 15.6074146,6.19696552 C15.6183415,6.12868966 15.6253659,6.05917241 15.628878,5.98758621 L15.628878,5.98758621 Z M2.23726829,4.85337931 L1.75804878,4.31710345 C1.25073171,3.31986207 2.02068293,2.47531034 4.06790244,1.78303448 C1.82595122,2.79351724 1.55785366,3.93517241 3.264,5.20882759 C2.75785366,5.08344828 2.41560976,4.96468966 2.23726829,4.85337931 L2.23726829,4.85337931 Z M3.31239024,5.24275862 C3.31941463,5.24896552 3.32682927,5.25475862 3.33385366,5.25972414 C3.11882927,5.21337931 3.11180488,5.208 3.31239024,5.24275862 Z" id="Shape" fill="#FFFFFF"></path>
            </g>
            <g id="mozzarella-copy-10" transform="translate(167.000000, 45.000000)">
                <path d="M15.6074146,7.7937931 L15.6074146,6.19655172 C15.5719024,6.456 15.500878,6.70427586 15.3943415,6.94137931 C15.107122,7.56206897 14.5639024,8.10951724 13.7654634,8.58372414 C12.3816585,9.40386207 11.0189268,9.432 9.67765854,8.66855172 C8.44058537,7.9617931 6.8257561,7.45944828 4.83434146,7.16151724 L5.0844878,7.18965517 C4.8737561,7.13793103 4.72468293,7.11517241 4.63726829,7.1217931 C4.26770732,7.07255172 4.06712195,7.04606897 4.03590244,7.04275862 C2.32897561,6.65131034 1.21834146,6.04013793 0.704,5.20841379 C0.576390244,4.9977931 0.489365854,4.77393103 0.443317073,4.53682759 C0.411317073,4.37875862 0.393756098,4.22648276 0.390243902,4.07958621 L0.395707317,6.28634483 C0.392195122,6.34262069 0.392195122,6.40096552 0.395707317,6.46137931 C0.399219512,6.60041379 0.415219512,6.74151724 0.443707317,6.88468966 C0.670829268,8.05489655 1.89502439,8.79806897 4.11629268,9.1137931 L4.27082927,9.11958621 C6.53463415,9.62358621 8.33717073,10.2558621 9.67843902,11.016 C11.0197073,11.7798621 12.382439,11.7517241 13.7662439,10.9311724 C15.0509268,10.1710345 15.6718049,9.21558621 15.6292683,8.064 C15.6253659,7.9742069 15.6183415,7.884 15.6074146,7.7937931 L15.6074146,7.7937931 Z M3.33385366,5.25972414 C3.32682927,5.25475862 3.31980488,5.24896552 3.31239024,5.24275862 C3.11180488,5.208 3.11882927,5.21337931 3.33385366,5.25972414 L3.33385366,5.25972414 Z M1.75843902,4.31710345 L2.23765854,4.85337931 C2.416,4.96510345 2.7582439,5.08344828 3.26478049,5.20882759 C1.55863415,3.93517241 1.82634146,2.79351724 4.06868293,1.78303448 C2.02068293,2.47531034 1.25073171,3.32027586 1.75843902,4.31710345 Z" id="Shape" fill="#E9E9E9"></path>
                <path d="M15.628878,5.98758621 C15.6359024,5.81089655 15.628878,5.63006897 15.6074146,5.44593103 C15.4583415,4.17062069 14.5838049,3.04344828 12.9834146,2.06524138 C11.3830244,1.08703448 9.52390244,0.543310345 7.40526829,0.434068966 C5.29404878,0.321103448 3.54653659,0.674896552 2.16273171,1.49503448 C0.970536585,2.2022069 0.379707317,3.05255172 0.390243902,4.04606897 L0.390243902,4.08 C0.393756098,4.22689655 0.411707317,4.37917241 0.443317073,4.53724138 C0.489365854,4.77434483 0.576390244,4.9982069 0.704,5.20882759 C1.21834146,6.04013793 2.32897561,6.65172414 4.03590244,7.04317241 C4.06712195,7.04648276 4.26770732,7.07296552 4.63726829,7.1222069 C4.72468293,7.11558621 4.8737561,7.13834483 5.0844878,7.19006897 L4.83434146,7.16193103 C6.82614634,7.45986207 8.44058537,7.9622069 9.67765854,8.66896552 C11.0189268,9.43282759 12.3816585,9.40468966 13.7654634,8.58413793 C14.5639024,8.10993103 15.1067317,7.56248276 15.3943415,6.9417931 C15.500878,6.70468966 15.5719024,6.45641379 15.6074146,6.19696552 C15.6183415,6.12868966 15.6253659,6.05917241 15.628878,5.98758621 L15.628878,5.98758621 Z M2.23726829,4.85337931 L1.75804878,4.31710345 C1.25073171,3.31986207 2.02068293,2.47531034 4.06790244,1.78303448 C1.82595122,2.79351724 1.55785366,3.93517241 3.264,5.20882759 C2.75785366,5.08344828 2.41560976,4.96468966 2.23726829,4.85337931 L2.23726829,4.85337931 Z M3.31239024,5.24275862 C3.31941463,5.24896552 3.32682927,5.25475862 3.33385366,5.25972414 C3.11882927,5.21337931 3.11180488,5.208 3.31239024,5.24275862 Z" id="Shape" fill="#FFFFFF"></path>
            </g>
            <g id="mozzarella-copy-4" transform="translate(117.000000, 32.000000)">
                <path d="M15.6074146,7.7937931 L15.6074146,6.19655172 C15.5719024,6.456 15.500878,6.70427586 15.3943415,6.94137931 C15.107122,7.56206897 14.5639024,8.10951724 13.7654634,8.58372414 C12.3816585,9.40386207 11.0189268,9.432 9.67765854,8.66855172 C8.44058537,7.9617931 6.8257561,7.45944828 4.83434146,7.16151724 L5.0844878,7.18965517 C4.8737561,7.13793103 4.72468293,7.11517241 4.63726829,7.1217931 C4.26770732,7.07255172 4.06712195,7.04606897 4.03590244,7.04275862 C2.32897561,6.65131034 1.21834146,6.04013793 0.704,5.20841379 C0.576390244,4.9977931 0.489365854,4.77393103 0.443317073,4.53682759 C0.411317073,4.37875862 0.393756098,4.22648276 0.390243902,4.07958621 L0.395707317,6.28634483 C0.392195122,6.34262069 0.392195122,6.40096552 0.395707317,6.46137931 C0.399219512,6.60041379 0.415219512,6.74151724 0.443707317,6.88468966 C0.670829268,8.05489655 1.89502439,8.79806897 4.11629268,9.1137931 L4.27082927,9.11958621 C6.53463415,9.62358621 8.33717073,10.2558621 9.67843902,11.016 C11.0197073,11.7798621 12.382439,11.7517241 13.7662439,10.9311724 C15.0509268,10.1710345 15.6718049,9.21558621 15.6292683,8.064 C15.6253659,7.9742069 15.6183415,7.884 15.6074146,7.7937931 L15.6074146,7.7937931 Z M3.33385366,5.25972414 C3.32682927,5.25475862 3.31980488,5.24896552 3.31239024,5.24275862 C3.11180488,5.208 3.11882927,5.21337931 3.33385366,5.25972414 L3.33385366,5.25972414 Z M1.75843902,4.31710345 L2.23765854,4.85337931 C2.416,4.96510345 2.7582439,5.08344828 3.26478049,5.20882759 C1.55863415,3.93517241 1.82634146,2.79351724 4.06868293,1.78303448 C2.02068293,2.47531034 1.25073171,3.32027586 1.75843902,4.31710345 Z" id="Shape" fill="#E9E9E9"></path>
                <path d="M15.628878,5.98758621 C15.6359024,5.81089655 15.628878,5.63006897 15.6074146,5.44593103 C15.4583415,4.17062069 14.5838049,3.04344828 12.9834146,2.06524138 C11.3830244,1.08703448 9.52390244,0.543310345 7.40526829,0.434068966 C5.29404878,0.321103448 3.54653659,0.674896552 2.16273171,1.49503448 C0.970536585,2.2022069 0.379707317,3.05255172 0.390243902,4.04606897 L0.390243902,4.08 C0.393756098,4.22689655 0.411707317,4.37917241 0.443317073,4.53724138 C0.489365854,4.77434483 0.576390244,4.9982069 0.704,5.20882759 C1.21834146,6.04013793 2.32897561,6.65172414 4.03590244,7.04317241 C4.06712195,7.04648276 4.26770732,7.07296552 4.63726829,7.1222069 C4.72468293,7.11558621 4.8737561,7.13834483 5.0844878,7.19006897 L4.83434146,7.16193103 C6.82614634,7.45986207 8.44058537,7.9622069 9.67765854,8.66896552 C11.0189268,9.43282759 12.3816585,9.40468966 13.7654634,8.58413793 C14.5639024,8.10993103 15.1067317,7.56248276 15.3943415,6.9417931 C15.500878,6.70468966 15.5719024,6.45641379 15.6074146,6.19696552 C15.6183415,6.12868966 15.6253659,6.05917241 15.628878,5.98758621 L15.628878,5.98758621 Z M2.23726829,4.85337931 L1.75804878,4.31710345 C1.25073171,3.31986207 2.02068293,2.47531034 4.06790244,1.78303448 C1.82595122,2.79351724 1.55785366,3.93517241 3.264,5.20882759 C2.75785366,5.08344828 2.41560976,4.96468966 2.23726829,4.85337931 L2.23726829,4.85337931 Z M3.31239024,5.24275862 C3.31941463,5.24896552 3.32682927,5.25475862 3.33385366,5.25972414 C3.11882927,5.21337931 3.11180488,5.208 3.31239024,5.24275862 Z" id="Shape" fill="#FFFFFF"></path>
            </g>
            <g id="mozzarella-copy-9" transform="translate(144.000000, 27.000000)">
                <path d="M15.6074146,7.7937931 L15.6074146,6.19655172 C15.5719024,6.456 15.500878,6.70427586 15.3943415,6.94137931 C15.107122,7.56206897 14.5639024,8.10951724 13.7654634,8.58372414 C12.3816585,9.40386207 11.0189268,9.432 9.67765854,8.66855172 C8.44058537,7.9617931 6.8257561,7.45944828 4.83434146,7.16151724 L5.0844878,7.18965517 C4.8737561,7.13793103 4.72468293,7.11517241 4.63726829,7.1217931 C4.26770732,7.07255172 4.06712195,7.04606897 4.03590244,7.04275862 C2.32897561,6.65131034 1.21834146,6.04013793 0.704,5.20841379 C0.576390244,4.9977931 0.489365854,4.77393103 0.443317073,4.53682759 C0.411317073,4.37875862 0.393756098,4.22648276 0.390243902,4.07958621 L0.395707317,6.28634483 C0.392195122,6.34262069 0.392195122,6.40096552 0.395707317,6.46137931 C0.399219512,6.60041379 0.415219512,6.74151724 0.443707317,6.88468966 C0.670829268,8.05489655 1.89502439,8.79806897 4.11629268,9.1137931 L4.27082927,9.11958621 C6.53463415,9.62358621 8.33717073,10.2558621 9.67843902,11.016 C11.0197073,11.7798621 12.382439,11.7517241 13.7662439,10.9311724 C15.0509268,10.1710345 15.6718049,9.21558621 15.6292683,8.064 C15.6253659,7.9742069 15.6183415,7.884 15.6074146,7.7937931 L15.6074146,7.7937931 Z M3.33385366,5.25972414 C3.32682927,5.25475862 3.31980488,5.24896552 3.31239024,5.24275862 C3.11180488,5.208 3.11882927,5.21337931 3.33385366,5.25972414 L3.33385366,5.25972414 Z M1.75843902,4.31710345 L2.23765854,4.85337931 C2.416,4.96510345 2.7582439,5.08344828 3.26478049,5.20882759 C1.55863415,3.93517241 1.82634146,2.79351724 4.06868293,1.78303448 C2.02068293,2.47531034 1.25073171,3.32027586 1.75843902,4.31710345 Z" id="Shape" fill="#E9E9E9"></path>
                <path d="M15.628878,5.98758621 C15.6359024,5.81089655 15.628878,5.63006897 15.6074146,5.44593103 C15.4583415,4.17062069 14.5838049,3.04344828 12.9834146,2.06524138 C11.3830244,1.08703448 9.52390244,0.543310345 7.40526829,0.434068966 C5.29404878,0.321103448 3.54653659,0.674896552 2.16273171,1.49503448 C0.970536585,2.2022069 0.379707317,3.05255172 0.390243902,4.04606897 L0.390243902,4.08 C0.393756098,4.22689655 0.411707317,4.37917241 0.443317073,4.53724138 C0.489365854,4.77434483 0.576390244,4.9982069 0.704,5.20882759 C1.21834146,6.04013793 2.32897561,6.65172414 4.03590244,7.04317241 C4.06712195,7.04648276 4.26770732,7.07296552 4.63726829,7.1222069 C4.72468293,7.11558621 4.8737561,7.13834483 5.0844878,7.19006897 L4.83434146,7.16193103 C6.82614634,7.45986207 8.44058537,7.9622069 9.67765854,8.66896552 C11.0189268,9.43282759 12.3816585,9.40468966 13.7654634,8.58413793 C14.5639024,8.10993103 15.1067317,7.56248276 15.3943415,6.9417931 C15.500878,6.70468966 15.5719024,6.45641379 15.6074146,6.19696552 C15.6183415,6.12868966 15.6253659,6.05917241 15.628878,5.98758621 L15.628878,5.98758621 Z M2.23726829,4.85337931 L1.75804878,4.31710345 C1.25073171,3.31986207 2.02068293,2.47531034 4.06790244,1.78303448 C1.82595122,2.79351724 1.55785366,3.93517241 3.264,5.20882759 C2.75785366,5.08344828 2.41560976,4.96468966 2.23726829,4.85337931 L2.23726829,4.85337931 Z M3.31239024,5.24275862 C3.31941463,5.24896552 3.32682927,5.25475862 3.33385366,5.25972414 C3.11882927,5.21337931 3.11180488,5.208 3.31239024,5.24275862 Z" id="Shape" fill="#FFFFFF"></path>
            </g>
            <g id="mozzarella-copy-6" transform="translate(74.000000, 68.000000)">
                <path d="M15.6074146,7.7937931 L15.6074146,6.19655172 C15.5719024,6.456 15.500878,6.70427586 15.3943415,6.94137931 C15.107122,7.56206897 14.5639024,8.10951724 13.7654634,8.58372414 C12.3816585,9.40386207 11.0189268,9.432 9.67765854,8.66855172 C8.44058537,7.9617931 6.8257561,7.45944828 4.83434146,7.16151724 L5.0844878,7.18965517 C4.8737561,7.13793103 4.72468293,7.11517241 4.63726829,7.1217931 C4.26770732,7.07255172 4.06712195,7.04606897 4.03590244,7.04275862 C2.32897561,6.65131034 1.21834146,6.04013793 0.704,5.20841379 C0.576390244,4.9977931 0.489365854,4.77393103 0.443317073,4.53682759 C0.411317073,4.37875862 0.393756098,4.22648276 0.390243902,4.07958621 L0.395707317,6.28634483 C0.392195122,6.34262069 0.392195122,6.40096552 0.395707317,6.46137931 C0.399219512,6.60041379 0.415219512,6.74151724 0.443707317,6.88468966 C0.670829268,8.05489655 1.89502439,8.79806897 4.11629268,9.1137931 L4.27082927,9.11958621 C6.53463415,9.62358621 8.33717073,10.2558621 9.67843902,11.016 C11.0197073,11.7798621 12.382439,11.7517241 13.7662439,10.9311724 C15.0509268,10.1710345 15.6718049,9.21558621 15.6292683,8.064 C15.6253659,7.9742069 15.6183415,7.884 15.6074146,7.7937931 L15.6074146,7.7937931 Z M3.33385366,5.25972414 C3.32682927,5.25475862 3.31980488,5.24896552 3.31239024,5.24275862 C3.11180488,5.208 3.11882927,5.21337931 3.33385366,5.25972414 L3.33385366,5.25972414 Z M1.75843902,4.31710345 L2.23765854,4.85337931 C2.416,4.96510345 2.7582439,5.08344828 3.26478049,5.20882759 C1.55863415,3.93517241 1.82634146,2.79351724 4.06868293,1.78303448 C2.02068293,2.47531034 1.25073171,3.32027586 1.75843902,4.31710345 Z" id="Shape" fill="#E9E9E9"></path>
                <path d="M15.628878,5.98758621 C15.6359024,5.81089655 15.628878,5.63006897 15.6074146,5.44593103 C15.4583415,4.17062069 14.5838049,3.04344828 12.9834146,2.06524138 C11.3830244,1.08703448 9.52390244,0.543310345 7.40526829,0.434068966 C5.29404878,0.321103448 3.54653659,0.674896552 2.16273171,1.49503448 C0.970536585,2.2022069 0.379707317,3.05255172 0.390243902,4.04606897 L0.390243902,4.08 C0.393756098,4.22689655 0.411707317,4.37917241 0.443317073,4.53724138 C0.489365854,4.77434483 0.576390244,4.9982069 0.704,5.20882759 C1.21834146,6.04013793 2.32897561,6.65172414 4.03590244,7.04317241 C4.06712195,7.04648276 4.26770732,7.07296552 4.63726829,7.1222069 C4.72468293,7.11558621 4.8737561,7.13834483 5.0844878,7.19006897 L4.83434146,7.16193103 C6.82614634,7.45986207 8.44058537,7.9622069 9.67765854,8.66896552 C11.0189268,9.43282759 12.3816585,9.40468966 13.7654634,8.58413793 C14.5639024,8.10993103 15.1067317,7.56248276 15.3943415,6.9417931 C15.500878,6.70468966 15.5719024,6.45641379 15.6074146,6.19696552 C15.6183415,6.12868966 15.6253659,6.05917241 15.628878,5.98758621 L15.628878,5.98758621 Z M2.23726829,4.85337931 L1.75804878,4.31710345 C1.25073171,3.31986207 2.02068293,2.47531034 4.06790244,1.78303448 C1.82595122,2.79351724 1.55785366,3.93517241 3.264,5.20882759 C2.75785366,5.08344828 2.41560976,4.96468966 2.23726829,4.85337931 L2.23726829,4.85337931 Z M3.31239024,5.24275862 C3.31941463,5.24896552 3.32682927,5.25475862 3.33385366,5.25972414 C3.11882927,5.21337931 3.11180488,5.208 3.31239024,5.24275862 Z" id="Shape" fill="#FFFFFF"></path>
            </g>
            <g id="mozzarella-copy-8" transform="translate(113.000000, 82.000000)">
                <path d="M15.6074146,7.7937931 L15.6074146,6.19655172 C15.5719024,6.456 15.500878,6.70427586 15.3943415,6.94137931 C15.107122,7.56206897 14.5639024,8.10951724 13.7654634,8.58372414 C12.3816585,9.40386207 11.0189268,9.432 9.67765854,8.66855172 C8.44058537,7.9617931 6.8257561,7.45944828 4.83434146,7.16151724 L5.0844878,7.18965517 C4.8737561,7.13793103 4.72468293,7.11517241 4.63726829,7.1217931 C4.26770732,7.07255172 4.06712195,7.04606897 4.03590244,7.04275862 C2.32897561,6.65131034 1.21834146,6.04013793 0.704,5.20841379 C0.576390244,4.9977931 0.489365854,4.77393103 0.443317073,4.53682759 C0.411317073,4.37875862 0.393756098,4.22648276 0.390243902,4.07958621 L0.395707317,6.28634483 C0.392195122,6.34262069 0.392195122,6.40096552 0.395707317,6.46137931 C0.399219512,6.60041379 0.415219512,6.74151724 0.443707317,6.88468966 C0.670829268,8.05489655 1.89502439,8.79806897 4.11629268,9.1137931 L4.27082927,9.11958621 C6.53463415,9.62358621 8.33717073,10.2558621 9.67843902,11.016 C11.0197073,11.7798621 12.382439,11.7517241 13.7662439,10.9311724 C15.0509268,10.1710345 15.6718049,9.21558621 15.6292683,8.064 C15.6253659,7.9742069 15.6183415,7.884 15.6074146,7.7937931 L15.6074146,7.7937931 Z M3.33385366,5.25972414 C3.32682927,5.25475862 3.31980488,5.24896552 3.31239024,5.24275862 C3.11180488,5.208 3.11882927,5.21337931 3.33385366,5.25972414 L3.33385366,5.25972414 Z M1.75843902,4.31710345 L2.23765854,4.85337931 C2.416,4.96510345 2.7582439,5.08344828 3.26478049,5.20882759 C1.55863415,3.93517241 1.82634146,2.79351724 4.06868293,1.78303448 C2.02068293,2.47531034 1.25073171,3.32027586 1.75843902,4.31710345 Z" id="Shape" fill="#E9E9E9"></path>
                <path d="M15.628878,5.98758621 C15.6359024,5.81089655 15.628878,5.63006897 15.6074146,5.44593103 C15.4583415,4.17062069 14.5838049,3.04344828 12.9834146,2.06524138 C11.3830244,1.08703448 9.52390244,0.543310345 7.40526829,0.434068966 C5.29404878,0.321103448 3.54653659,0.674896552 2.16273171,1.49503448 C0.970536585,2.2022069 0.379707317,3.05255172 0.390243902,4.04606897 L0.390243902,4.08 C0.393756098,4.22689655 0.411707317,4.37917241 0.443317073,4.53724138 C0.489365854,4.77434483 0.576390244,4.9982069 0.704,5.20882759 C1.21834146,6.04013793 2.32897561,6.65172414 4.03590244,7.04317241 C4.06712195,7.04648276 4.26770732,7.07296552 4.63726829,7.1222069 C4.72468293,7.11558621 4.8737561,7.13834483 5.0844878,7.19006897 L4.83434146,7.16193103 C6.82614634,7.45986207 8.44058537,7.9622069 9.67765854,8.66896552 C11.0189268,9.43282759 12.3816585,9.40468966 13.7654634,8.58413793 C14.5639024,8.10993103 15.1067317,7.56248276 15.3943415,6.9417931 C15.500878,6.70468966 15.5719024,6.45641379 15.6074146,6.19696552 C15.6183415,6.12868966 15.6253659,6.05917241 15.628878,5.98758621 L15.628878,5.98758621 Z M2.23726829,4.85337931 L1.75804878,4.31710345 C1.25073171,3.31986207 2.02068293,2.47531034 4.06790244,1.78303448 C1.82595122,2.79351724 1.55785366,3.93517241 3.264,5.20882759 C2.75785366,5.08344828 2.41560976,4.96468966 2.23726829,4.85337931 L2.23726829,4.85337931 Z M3.31239024,5.24275862 C3.31941463,5.24896552 3.32682927,5.25475862 3.33385366,5.25972414 C3.11882927,5.21337931 3.11180488,5.208 3.31239024,5.24275862 Z" id="Shape" fill="#FFFFFF"></path>
            </g>
        </g>
    </g>
</svg>