<?xml version="1.0" encoding="UTF-8"?>
<svg width="225px" height="159px" viewBox="0 0 225 159" version="1.1" xmlns="http://www.w3.org/2000/svg" xmlns:xlink="http://www.w3.org/1999/xlink">
    <!-- Generator: Sketch 46.2 (44496) - http://www.bohemiancoding.com/sketch -->
    <title>Artboard</title>
    <desc>Created with Sketch.</desc>
    <defs></defs>
    <g id="Page-1" stroke="none" stroke-width="1" fill="none" fill-rule="evenodd">
        <g id="Artboard" fill-rule="nonzero">
            <g id="mushroom" transform="translate(167.000000, 28.000000)">
                <path d="M9.28493103,7.26926316 C9.33827586,7.30631579 9.38341379,7.34568421 9.42093103,7.38794737 C9.45844828,7.43542105 9.47955172,7.48521053 9.48482759,7.53789474 L9.48482759,7.55352632 C9.48482759,7.56394737 9.48482759,7.57436842 9.48482759,7.58536842 C10.0124138,7.54310526 10.4602759,7.41689474 10.8278276,7.20615789 C10.8653448,7.18531579 10.899931,7.16389474 10.9315862,7.14305263 C11.4222414,6.82694737 11.6057241,6.42168421 11.4832069,5.92726316 C11.4298621,5.72173684 11.3284483,5.52431579 11.1795517,5.335 L10.7721379,5.57178947 C10.8307586,5.67194737 10.8735517,5.77442105 10.899931,5.87978947 C10.9743793,6.16405263 10.9239655,6.41415789 10.7481034,6.63010526 C10.7375517,6.64573684 10.724069,6.66426316 10.7082414,6.68568421 C10.6121034,6.78063158 10.4925172,6.86978947 10.3483103,6.95431579 C10.1777241,7.04926316 9.98837931,7.12568421 9.78086207,7.18357895 C9.62610345,7.21889474 9.4607931,7.24784211 9.28493103,7.26926316 L9.28493103,7.26926316 Z M7.61424138,3.85810526 L8.01403448,3.62884211 C7.72093103,3.57094737 7.42255172,3.53157895 7.11831034,3.51015789 C6.18037931,3.44705263 5.42593103,3.57847368 4.85555172,3.905 C4.53548276,4.08389474 4.32268966,4.29463158 4.216,4.53663158 C4.22127586,4.53663158 4.22948276,4.53663158 4.24003448,4.53663158 C4.42117241,4.54184211 4.58648276,4.57889474 4.73596552,4.64721053 C4.82682759,4.44689474 4.99682759,4.27610526 5.24772414,4.13368421 C5.72724138,3.85984211 6.36444828,3.75215789 7.15875862,3.81005263 C7.30765517,3.82105263 7.45948276,3.83668421 7.61424138,3.85810526 Z" id="Shape" fill="#918778"></path>
                <path d="M4.63162069,5.39752632 C4.54075862,5.41315789 4.44227586,5.42126316 4.33558621,5.42126316 C4.11693103,5.41605263 3.92524138,5.36857895 3.75993103,5.27942105 C3.72241379,5.25857895 3.69075862,5.23715789 3.6637931,5.21631579 C3.64796552,5.20068421 3.63155172,5.18736842 3.61572414,5.17694737 L3.60751724,5.16131579 C3.59168966,5.14047368 3.57,5.11384211 3.54362069,5.08257895 C3.22941379,4.68773684 3.01837931,4.27726316 2.91227586,3.85057895 L2.91227586,3.84247368 C2.87475862,3.68442105 2.85365517,3.53215789 2.84837931,3.38452632 L2.84017241,4.30852632 C2.84017241,4.31373684 2.84017241,4.32415789 2.84017241,4.34036842 C2.84017241,4.35657895 2.84017241,4.37221053 2.84017241,4.38784211 C2.84544828,4.55631579 2.86948276,4.73231579 2.91227586,4.917 C3.01368966,5.32226316 3.20537931,5.71189474 3.48793103,6.08531579 C3.91410345,5.88557895 4.33558621,5.68005263 4.7512069,5.46931579 C4.85789655,5.41142105 4.96458621,5.35642105 5.07127586,5.30373684 L5.07127586,5.05884211 C5.06072414,5.15378947 4.99682759,5.23542105 4.87958621,5.30373684 C4.8367931,5.32457895 4.79458621,5.346 4.7517931,5.36684211 C4.71427586,5.37668421 4.67441379,5.38710526 4.63162069,5.39752632 Z" id="Shape" fill="#C6C1B7"></path>
                <path d="M7.91789655,7.49794737 C7.91789655,7.48752632 7.91789655,7.47710526 7.91789655,7.46610526 C7.91789655,7.36594737 7.98472414,7.27678947 8.1177931,7.19747368 C8.26141379,7.11352632 8.4402069,7.07357895 8.65358621,7.07936842 C8.87224138,7.08457895 9.06158621,7.13436842 9.22103448,7.22931579 C9.22631034,7.22931579 9.23158621,7.22931579 9.23686207,7.22931579 C9.25268966,7.23973684 9.26910345,7.25305263 9.28493103,7.26868421 C9.4607931,7.24784211 9.62610345,7.21889474 9.78086207,7.18184211 C10.0792414,7.01336842 10.3887586,6.84778947 10.7082414,6.68452632 C10.724069,6.66368421 10.7375517,6.64515789 10.7481034,6.62894737 C10.9239655,6.413 10.9749655,6.16289474 10.899931,5.87863158 C10.8729655,5.77326316 10.8307586,5.67078947 10.7721379,5.57063158 C8.36282759,6.81305263 6.49986207,8.11568421 5.18324138,9.47910526 L5.16741379,9.471 L5.16741379,10.5449474 L5.18324138,10.5530526 C5.9242069,9.79 6.83575862,9.04489474 7.91731034,8.31831579 L7.91731034,8.53947368 C7.91731034,8.54989474 7.91731034,8.56031579 7.91731034,8.57073684 C7.93313793,8.69694737 8.02106897,8.80752632 8.18110345,8.90247368 C8.19693103,8.90768421 8.21334483,8.91578947 8.22917241,8.92621053 C8.28251724,8.94705263 8.33293103,8.96557895 8.381,8.98178947 C8.40210345,8.987 8.42086207,8.99221053 8.43668966,8.99742105 C9.27906897,9.23942105 10.168931,9.38936842 11.1068621,9.44726316 C12.9774483,9.57868421 14.481069,9.32105263 15.6159655,8.67321053 C16.4208276,8.21526316 16.8446552,7.68089474 16.8874483,7.07010526 C16.8927241,7.007 16.8927241,6.94389474 16.8874483,6.88078947 L16.8956552,5.93305263 C16.8851034,6.09631579 16.8528621,6.25668421 16.7995172,6.41473684 C16.628931,6.85184211 16.2344138,7.24668421 15.6159655,7.59926316 C14.4804828,8.24652632 12.9774483,8.50473684 11.1068621,8.37331579 C10.6754138,8.34726316 10.253931,8.30210526 9.84358621,8.239 C9.37989655,8.16026316 8.92968966,8.06010526 8.49237931,7.93910526 C8.47127586,7.93389474 8.45251724,7.92868421 8.43668966,7.92347368 C8.42086207,7.91826316 8.40210345,7.91305263 8.381,7.90784211 C8.33293103,7.89221053 8.28251724,7.87368421 8.22917241,7.85284211 C8.21334483,7.84242105 8.19693103,7.83431579 8.18110345,7.82910526 C8.02165517,7.73473684 7.93372414,7.62415789 7.91789655,7.49794737 Z" id="Shape" fill="#B4ADA3"></path>
                <path d="M7.61424138,3.85810526 C7.45948276,3.83726316 7.30765517,3.82105263 7.15875862,3.81063158 C6.36444828,3.75273684 5.72782759,3.86042105 5.24772414,4.13426316 C4.99741379,4.27668421 4.82682759,4.44747368 4.73596552,4.64778947 C4.7517931,4.653 4.77055172,4.66110526 4.79224138,4.67152632 C4.79751724,4.67673684 4.8027931,4.68194737 4.80806897,4.68715789 C4.97337931,4.77689474 5.06131034,4.87936842 5.07186207,4.99515789 L5.07186207,5.00326316 C5.07186207,5.01889474 5.07186207,5.03742105 5.07186207,5.05884211 L5.07186207,5.30373684 C5.13048276,5.27189474 5.18910345,5.24063158 5.24772414,5.20878947 C5.28524138,5.18794737 5.32510345,5.16652632 5.36789655,5.14568421 C6.14051724,4.73463158 6.88910345,4.30505263 7.61424138,3.85810526 Z" id="Shape" fill="#706B60"></path>
                <polygon id="Shape" fill="#C8C4BB" points="0.586206897 7.33236842 0.594413793 8.41384211 5.16741379 10.5461053 5.16741379 9.47215789"></polygon>
                <path d="M8.56565517,0.66 C6.81172414,0.444052632 5.36731034,0.66 4.23241379,1.30726316 C3.34782759,1.81268421 2.88648276,2.43910526 2.84955172,3.18652632 C2.84427586,3.23921053 2.84427586,3.29421053 2.84955172,3.35210526 L2.84955172,3.38394737 C2.85482759,3.53157895 2.87651724,3.68384211 2.91344828,3.84189474 L2.91344828,3.85 C3.02013793,4.27668421 3.23058621,4.68715789 3.5447931,5.082 C3.57175862,5.11384211 3.59286207,5.13989474 3.60868966,5.16073684 L3.61689655,5.17636842 C3.63272414,5.18678947 3.64913793,5.20010526 3.66496552,5.21573684 C3.69134483,5.23657895 3.72358621,5.258 3.76110345,5.27884211 C3.92641379,5.368 4.11810345,5.41547368 4.33675862,5.42068421 C4.44344828,5.42068421 4.54193103,5.41257895 4.6327931,5.39694737 C4.67558621,5.38652632 4.71544828,5.37610526 4.75296552,5.36510526 C4.79575862,5.34426316 4.83855172,5.32284211 4.88075862,5.302 C4.998,5.23368421 5.06189655,5.15205263 5.07244828,5.05710526 C5.07244828,5.03626316 5.07244828,5.01773684 5.07244828,5.00152632 L5.07244828,4.99342105 C5.06189655,4.87763158 4.97396552,4.77515789 4.80865517,4.68542105 C4.80337931,4.68021053 4.79810345,4.675 4.79282759,4.66978947 C4.77172414,4.65936842 4.75296552,4.65126316 4.73655172,4.64605263 C4.58706897,4.57773684 4.42234483,4.54068421 4.24062069,4.53547368 C4.23006897,4.53547368 4.22186207,4.53547368 4.21658621,4.53547368 C4.32327586,4.29347368 4.53665517,4.08273684 4.85613793,3.90384211 C5.42651724,3.57731579 6.18037931,3.44589474 7.11889655,3.509 C7.42255172,3.52984211 7.72151724,3.56978947 8.01462069,3.62768421 L7.61482759,3.85694737 C6.88968966,4.30447368 6.14110345,4.73347368 5.36789655,5.14394737 C5.32510345,5.16478947 5.28524138,5.18621053 5.24772414,5.20705263 C5.18910345,5.23889474 5.13048276,5.27015789 5.07186207,5.302 C4.96517241,5.35468421 4.85848276,5.40968421 4.7517931,5.46757895 C4.33617241,5.67831579 3.91468966,5.88326316 3.48851724,6.08357895 C2.55586207,6.52068421 1.58803448,6.93636842 0.586206897,7.33121053 L5.16741379,9.471 L5.18324138,9.47910526 C6.49986207,8.11568421 8.36282759,6.81305263 10.7721379,5.57063158 L11.1795517,5.33384211 C11.3290345,5.52315789 11.4298621,5.72057895 11.4832069,5.92610526 C11.6057241,6.42110526 11.4216552,6.82636842 10.9315862,7.14189474 C10.8993448,7.16273684 10.8647586,7.18415789 10.8278276,7.205 C10.4602759,7.41573684 10.0124138,7.54194737 9.48482759,7.58421053 C9.48482759,7.57378947 9.48482759,7.56336842 9.48482759,7.55236842 L9.48482759,7.53673684 C9.47955172,7.48405263 9.45844828,7.43426316 9.42093103,7.38678947 C9.38341379,7.34452632 9.33827586,7.30515789 9.28493103,7.26810526 C9.26910345,7.25247368 9.25268966,7.23915789 9.23686207,7.22873684 C9.23158621,7.22873684 9.22631034,7.22873684 9.22103448,7.22873684 C9.061,7.13378947 8.87165517,7.084 8.65358621,7.07878947 C8.4402069,7.07357895 8.262,7.11294737 8.1177931,7.19689474 C7.98472414,7.27563158 7.91789655,7.36536842 7.91789655,7.46552632 C7.91789655,7.47594737 7.91789655,7.48636842 7.91789655,7.49736842 C7.93372414,7.62357895 8.02165517,7.73415789 8.18168966,7.82910526 C8.19751724,7.83431579 8.21393103,7.84242105 8.22975862,7.85284211 C8.28310345,7.87368421 8.33351724,7.89221053 8.38158621,7.90784211 C8.40268966,7.91305263 8.42144828,7.91826316 8.43727586,7.92347368 C8.45310345,7.92868421 8.47186207,7.93389474 8.49296552,7.93910526 C8.93027586,8.06010526 9.38048276,8.16026316 9.84417241,8.239 C10.2545172,8.30210526 10.676,8.34668421 11.1074483,8.37331579 C12.9780345,8.50473684 14.4816552,8.24710526 15.6165517,7.59926316 C16.235,7.24668421 16.6295172,6.85184211 16.8001034,6.41473684 C16.8534483,6.25668421 16.8851034,6.09631579 16.8962414,5.93305263 L16.8962414,5.90121053 C16.8909655,5.67484211 16.8405517,5.44036842 16.7444138,5.19836842 C16.3604483,4.24021053 15.4225172,3.34515789 13.9300345,2.51378947 C13.9142069,2.50336842 13.8954483,2.49294737 13.8737586,2.48194737 C13.8526552,2.47152632 13.8286207,2.45821053 13.8016552,2.44257895 L13.7377586,2.40321053 C13.3326897,2.18205263 13.0952759,2.05294737 13.0261034,2.01647368 C11.6461724,1.30726316 10.1589655,0.854526316 8.56565517,0.66 Z" id="Shape" fill="#F7F1E6"></path>
            </g>
            <g id="mushroom-copy" transform="translate(140.000000, 21.000000)">
                <path d="M9.28493103,7.26926316 C9.33827586,7.30631579 9.38341379,7.34568421 9.42093103,7.38794737 C9.45844828,7.43542105 9.47955172,7.48521053 9.48482759,7.53789474 L9.48482759,7.55352632 C9.48482759,7.56394737 9.48482759,7.57436842 9.48482759,7.58536842 C10.0124138,7.54310526 10.4602759,7.41689474 10.8278276,7.20615789 C10.8653448,7.18531579 10.899931,7.16389474 10.9315862,7.14305263 C11.4222414,6.82694737 11.6057241,6.42168421 11.4832069,5.92726316 C11.4298621,5.72173684 11.3284483,5.52431579 11.1795517,5.335 L10.7721379,5.57178947 C10.8307586,5.67194737 10.8735517,5.77442105 10.899931,5.87978947 C10.9743793,6.16405263 10.9239655,6.41415789 10.7481034,6.63010526 C10.7375517,6.64573684 10.724069,6.66426316 10.7082414,6.68568421 C10.6121034,6.78063158 10.4925172,6.86978947 10.3483103,6.95431579 C10.1777241,7.04926316 9.98837931,7.12568421 9.78086207,7.18357895 C9.62610345,7.21889474 9.4607931,7.24784211 9.28493103,7.26926316 L9.28493103,7.26926316 Z M7.61424138,3.85810526 L8.01403448,3.62884211 C7.72093103,3.57094737 7.42255172,3.53157895 7.11831034,3.51015789 C6.18037931,3.44705263 5.42593103,3.57847368 4.85555172,3.905 C4.53548276,4.08389474 4.32268966,4.29463158 4.216,4.53663158 C4.22127586,4.53663158 4.22948276,4.53663158 4.24003448,4.53663158 C4.42117241,4.54184211 4.58648276,4.57889474 4.73596552,4.64721053 C4.82682759,4.44689474 4.99682759,4.27610526 5.24772414,4.13368421 C5.72724138,3.85984211 6.36444828,3.75215789 7.15875862,3.81005263 C7.30765517,3.82105263 7.45948276,3.83668421 7.61424138,3.85810526 Z" id="Shape" fill="#918778"></path>
                <path d="M4.63162069,5.39752632 C4.54075862,5.41315789 4.44227586,5.42126316 4.33558621,5.42126316 C4.11693103,5.41605263 3.92524138,5.36857895 3.75993103,5.27942105 C3.72241379,5.25857895 3.69075862,5.23715789 3.6637931,5.21631579 C3.64796552,5.20068421 3.63155172,5.18736842 3.61572414,5.17694737 L3.60751724,5.16131579 C3.59168966,5.14047368 3.57,5.11384211 3.54362069,5.08257895 C3.22941379,4.68773684 3.01837931,4.27726316 2.91227586,3.85057895 L2.91227586,3.84247368 C2.87475862,3.68442105 2.85365517,3.53215789 2.84837931,3.38452632 L2.84017241,4.30852632 C2.84017241,4.31373684 2.84017241,4.32415789 2.84017241,4.34036842 C2.84017241,4.35657895 2.84017241,4.37221053 2.84017241,4.38784211 C2.84544828,4.55631579 2.86948276,4.73231579 2.91227586,4.917 C3.01368966,5.32226316 3.20537931,5.71189474 3.48793103,6.08531579 C3.91410345,5.88557895 4.33558621,5.68005263 4.7512069,5.46931579 C4.85789655,5.41142105 4.96458621,5.35642105 5.07127586,5.30373684 L5.07127586,5.05884211 C5.06072414,5.15378947 4.99682759,5.23542105 4.87958621,5.30373684 C4.8367931,5.32457895 4.79458621,5.346 4.7517931,5.36684211 C4.71427586,5.37668421 4.67441379,5.38710526 4.63162069,5.39752632 Z" id="Shape" fill="#C6C1B7"></path>
                <path d="M7.91789655,7.49794737 C7.91789655,7.48752632 7.91789655,7.47710526 7.91789655,7.46610526 C7.91789655,7.36594737 7.98472414,7.27678947 8.1177931,7.19747368 C8.26141379,7.11352632 8.4402069,7.07357895 8.65358621,7.07936842 C8.87224138,7.08457895 9.06158621,7.13436842 9.22103448,7.22931579 C9.22631034,7.22931579 9.23158621,7.22931579 9.23686207,7.22931579 C9.25268966,7.23973684 9.26910345,7.25305263 9.28493103,7.26868421 C9.4607931,7.24784211 9.62610345,7.21889474 9.78086207,7.18184211 C10.0792414,7.01336842 10.3887586,6.84778947 10.7082414,6.68452632 C10.724069,6.66368421 10.7375517,6.64515789 10.7481034,6.62894737 C10.9239655,6.413 10.9749655,6.16289474 10.899931,5.87863158 C10.8729655,5.77326316 10.8307586,5.67078947 10.7721379,5.57063158 C8.36282759,6.81305263 6.49986207,8.11568421 5.18324138,9.47910526 L5.16741379,9.471 L5.16741379,10.5449474 L5.18324138,10.5530526 C5.9242069,9.79 6.83575862,9.04489474 7.91731034,8.31831579 L7.91731034,8.53947368 C7.91731034,8.54989474 7.91731034,8.56031579 7.91731034,8.57073684 C7.93313793,8.69694737 8.02106897,8.80752632 8.18110345,8.90247368 C8.19693103,8.90768421 8.21334483,8.91578947 8.22917241,8.92621053 C8.28251724,8.94705263 8.33293103,8.96557895 8.381,8.98178947 C8.40210345,8.987 8.42086207,8.99221053 8.43668966,8.99742105 C9.27906897,9.23942105 10.168931,9.38936842 11.1068621,9.44726316 C12.9774483,9.57868421 14.481069,9.32105263 15.6159655,8.67321053 C16.4208276,8.21526316 16.8446552,7.68089474 16.8874483,7.07010526 C16.8927241,7.007 16.8927241,6.94389474 16.8874483,6.88078947 L16.8956552,5.93305263 C16.8851034,6.09631579 16.8528621,6.25668421 16.7995172,6.41473684 C16.628931,6.85184211 16.2344138,7.24668421 15.6159655,7.59926316 C14.4804828,8.24652632 12.9774483,8.50473684 11.1068621,8.37331579 C10.6754138,8.34726316 10.253931,8.30210526 9.84358621,8.239 C9.37989655,8.16026316 8.92968966,8.06010526 8.49237931,7.93910526 C8.47127586,7.93389474 8.45251724,7.92868421 8.43668966,7.92347368 C8.42086207,7.91826316 8.40210345,7.91305263 8.381,7.90784211 C8.33293103,7.89221053 8.28251724,7.87368421 8.22917241,7.85284211 C8.21334483,7.84242105 8.19693103,7.83431579 8.18110345,7.82910526 C8.02165517,7.73473684 7.93372414,7.62415789 7.91789655,7.49794737 Z" id="Shape" fill="#B4ADA3"></path>
                <path d="M7.61424138,3.85810526 C7.45948276,3.83726316 7.30765517,3.82105263 7.15875862,3.81063158 C6.36444828,3.75273684 5.72782759,3.86042105 5.24772414,4.13426316 C4.99741379,4.27668421 4.82682759,4.44747368 4.73596552,4.64778947 C4.7517931,4.653 4.77055172,4.66110526 4.79224138,4.67152632 C4.79751724,4.67673684 4.8027931,4.68194737 4.80806897,4.68715789 C4.97337931,4.77689474 5.06131034,4.87936842 5.07186207,4.99515789 L5.07186207,5.00326316 C5.07186207,5.01889474 5.07186207,5.03742105 5.07186207,5.05884211 L5.07186207,5.30373684 C5.13048276,5.27189474 5.18910345,5.24063158 5.24772414,5.20878947 C5.28524138,5.18794737 5.32510345,5.16652632 5.36789655,5.14568421 C6.14051724,4.73463158 6.88910345,4.30505263 7.61424138,3.85810526 Z" id="Shape" fill="#706B60"></path>
                <polygon id="Shape" fill="#C8C4BB" points="0.586206897 7.33236842 0.594413793 8.41384211 5.16741379 10.5461053 5.16741379 9.47215789"></polygon>
                <path d="M8.56565517,0.66 C6.81172414,0.444052632 5.36731034,0.66 4.23241379,1.30726316 C3.34782759,1.81268421 2.88648276,2.43910526 2.84955172,3.18652632 C2.84427586,3.23921053 2.84427586,3.29421053 2.84955172,3.35210526 L2.84955172,3.38394737 C2.85482759,3.53157895 2.87651724,3.68384211 2.91344828,3.84189474 L2.91344828,3.85 C3.02013793,4.27668421 3.23058621,4.68715789 3.5447931,5.082 C3.57175862,5.11384211 3.59286207,5.13989474 3.60868966,5.16073684 L3.61689655,5.17636842 C3.63272414,5.18678947 3.64913793,5.20010526 3.66496552,5.21573684 C3.69134483,5.23657895 3.72358621,5.258 3.76110345,5.27884211 C3.92641379,5.368 4.11810345,5.41547368 4.33675862,5.42068421 C4.44344828,5.42068421 4.54193103,5.41257895 4.6327931,5.39694737 C4.67558621,5.38652632 4.71544828,5.37610526 4.75296552,5.36510526 C4.79575862,5.34426316 4.83855172,5.32284211 4.88075862,5.302 C4.998,5.23368421 5.06189655,5.15205263 5.07244828,5.05710526 C5.07244828,5.03626316 5.07244828,5.01773684 5.07244828,5.00152632 L5.07244828,4.99342105 C5.06189655,4.87763158 4.97396552,4.77515789 4.80865517,4.68542105 C4.80337931,4.68021053 4.79810345,4.675 4.79282759,4.66978947 C4.77172414,4.65936842 4.75296552,4.65126316 4.73655172,4.64605263 C4.58706897,4.57773684 4.42234483,4.54068421 4.24062069,4.53547368 C4.23006897,4.53547368 4.22186207,4.53547368 4.21658621,4.53547368 C4.32327586,4.29347368 4.53665517,4.08273684 4.85613793,3.90384211 C5.42651724,3.57731579 6.18037931,3.44589474 7.11889655,3.509 C7.42255172,3.52984211 7.72151724,3.56978947 8.01462069,3.62768421 L7.61482759,3.85694737 C6.88968966,4.30447368 6.14110345,4.73347368 5.36789655,5.14394737 C5.32510345,5.16478947 5.28524138,5.18621053 5.24772414,5.20705263 C5.18910345,5.23889474 5.13048276,5.27015789 5.07186207,5.302 C4.96517241,5.35468421 4.85848276,5.40968421 4.7517931,5.46757895 C4.33617241,5.67831579 3.91468966,5.88326316 3.48851724,6.08357895 C2.55586207,6.52068421 1.58803448,6.93636842 0.586206897,7.33121053 L5.16741379,9.471 L5.18324138,9.47910526 C6.49986207,8.11568421 8.36282759,6.81305263 10.7721379,5.57063158 L11.1795517,5.33384211 C11.3290345,5.52315789 11.4298621,5.72057895 11.4832069,5.92610526 C11.6057241,6.42110526 11.4216552,6.82636842 10.9315862,7.14189474 C10.8993448,7.16273684 10.8647586,7.18415789 10.8278276,7.205 C10.4602759,7.41573684 10.0124138,7.54194737 9.48482759,7.58421053 C9.48482759,7.57378947 9.48482759,7.56336842 9.48482759,7.55236842 L9.48482759,7.53673684 C9.47955172,7.48405263 9.45844828,7.43426316 9.42093103,7.38678947 C9.38341379,7.34452632 9.33827586,7.30515789 9.28493103,7.26810526 C9.26910345,7.25247368 9.25268966,7.23915789 9.23686207,7.22873684 C9.23158621,7.22873684 9.22631034,7.22873684 9.22103448,7.22873684 C9.061,7.13378947 8.87165517,7.084 8.65358621,7.07878947 C8.4402069,7.07357895 8.262,7.11294737 8.1177931,7.19689474 C7.98472414,7.27563158 7.91789655,7.36536842 7.91789655,7.46552632 C7.91789655,7.47594737 7.91789655,7.48636842 7.91789655,7.49736842 C7.93372414,7.62357895 8.02165517,7.73415789 8.18168966,7.82910526 C8.19751724,7.83431579 8.21393103,7.84242105 8.22975862,7.85284211 C8.28310345,7.87368421 8.33351724,7.89221053 8.38158621,7.90784211 C8.40268966,7.91305263 8.42144828,7.91826316 8.43727586,7.92347368 C8.45310345,7.92868421 8.47186207,7.93389474 8.49296552,7.93910526 C8.93027586,8.06010526 9.38048276,8.16026316 9.84417241,8.239 C10.2545172,8.30210526 10.676,8.34668421 11.1074483,8.37331579 C12.9780345,8.50473684 14.4816552,8.24710526 15.6165517,7.59926316 C16.235,7.24668421 16.6295172,6.85184211 16.8001034,6.41473684 C16.8534483,6.25668421 16.8851034,6.09631579 16.8962414,5.93305263 L16.8962414,5.90121053 C16.8909655,5.67484211 16.8405517,5.44036842 16.7444138,5.19836842 C16.3604483,4.24021053 15.4225172,3.34515789 13.9300345,2.51378947 C13.9142069,2.50336842 13.8954483,2.49294737 13.8737586,2.48194737 C13.8526552,2.47152632 13.8286207,2.45821053 13.8016552,2.44257895 L13.7377586,2.40321053 C13.3326897,2.18205263 13.0952759,2.05294737 13.0261034,2.01647368 C11.6461724,1.30726316 10.1589655,0.854526316 8.56565517,0.66 Z" id="Shape" fill="#F7F1E6"></path>
            </g>
            <g id="mushroom-copy-2" transform="translate(140.000000, 81.000000)">
                <path d="M9.28493103,7.26926316 C9.33827586,7.30631579 9.38341379,7.34568421 9.42093103,7.38794737 C9.45844828,7.43542105 9.47955172,7.48521053 9.48482759,7.53789474 L9.48482759,7.55352632 C9.48482759,7.56394737 9.48482759,7.57436842 9.48482759,7.58536842 C10.0124138,7.54310526 10.4602759,7.41689474 10.8278276,7.20615789 C10.8653448,7.18531579 10.899931,7.16389474 10.9315862,7.14305263 C11.4222414,6.82694737 11.6057241,6.42168421 11.4832069,5.92726316 C11.4298621,5.72173684 11.3284483,5.52431579 11.1795517,5.335 L10.7721379,5.57178947 C10.8307586,5.67194737 10.8735517,5.77442105 10.899931,5.87978947 C10.9743793,6.16405263 10.9239655,6.41415789 10.7481034,6.63010526 C10.7375517,6.64573684 10.724069,6.66426316 10.7082414,6.68568421 C10.6121034,6.78063158 10.4925172,6.86978947 10.3483103,6.95431579 C10.1777241,7.04926316 9.98837931,7.12568421 9.78086207,7.18357895 C9.62610345,7.21889474 9.4607931,7.24784211 9.28493103,7.26926316 L9.28493103,7.26926316 Z M7.61424138,3.85810526 L8.01403448,3.62884211 C7.72093103,3.57094737 7.42255172,3.53157895 7.11831034,3.51015789 C6.18037931,3.44705263 5.42593103,3.57847368 4.85555172,3.905 C4.53548276,4.08389474 4.32268966,4.29463158 4.216,4.53663158 C4.22127586,4.53663158 4.22948276,4.53663158 4.24003448,4.53663158 C4.42117241,4.54184211 4.58648276,4.57889474 4.73596552,4.64721053 C4.82682759,4.44689474 4.99682759,4.27610526 5.24772414,4.13368421 C5.72724138,3.85984211 6.36444828,3.75215789 7.15875862,3.81005263 C7.30765517,3.82105263 7.45948276,3.83668421 7.61424138,3.85810526 Z" id="Shape" fill="#918778"></path>
                <path d="M4.63162069,5.39752632 C4.54075862,5.41315789 4.44227586,5.42126316 4.33558621,5.42126316 C4.11693103,5.41605263 3.92524138,5.36857895 3.75993103,5.27942105 C3.72241379,5.25857895 3.69075862,5.23715789 3.6637931,5.21631579 C3.64796552,5.20068421 3.63155172,5.18736842 3.61572414,5.17694737 L3.60751724,5.16131579 C3.59168966,5.14047368 3.57,5.11384211 3.54362069,5.08257895 C3.22941379,4.68773684 3.01837931,4.27726316 2.91227586,3.85057895 L2.91227586,3.84247368 C2.87475862,3.68442105 2.85365517,3.53215789 2.84837931,3.38452632 L2.84017241,4.30852632 C2.84017241,4.31373684 2.84017241,4.32415789 2.84017241,4.34036842 C2.84017241,4.35657895 2.84017241,4.37221053 2.84017241,4.38784211 C2.84544828,4.55631579 2.86948276,4.73231579 2.91227586,4.917 C3.01368966,5.32226316 3.20537931,5.71189474 3.48793103,6.08531579 C3.91410345,5.88557895 4.33558621,5.68005263 4.7512069,5.46931579 C4.85789655,5.41142105 4.96458621,5.35642105 5.07127586,5.30373684 L5.07127586,5.05884211 C5.06072414,5.15378947 4.99682759,5.23542105 4.87958621,5.30373684 C4.8367931,5.32457895 4.79458621,5.346 4.7517931,5.36684211 C4.71427586,5.37668421 4.67441379,5.38710526 4.63162069,5.39752632 Z" id="Shape" fill="#C6C1B7"></path>
                <path d="M7.91789655,7.49794737 C7.91789655,7.48752632 7.91789655,7.47710526 7.91789655,7.46610526 C7.91789655,7.36594737 7.98472414,7.27678947 8.1177931,7.19747368 C8.26141379,7.11352632 8.4402069,7.07357895 8.65358621,7.07936842 C8.87224138,7.08457895 9.06158621,7.13436842 9.22103448,7.22931579 C9.22631034,7.22931579 9.23158621,7.22931579 9.23686207,7.22931579 C9.25268966,7.23973684 9.26910345,7.25305263 9.28493103,7.26868421 C9.4607931,7.24784211 9.62610345,7.21889474 9.78086207,7.18184211 C10.0792414,7.01336842 10.3887586,6.84778947 10.7082414,6.68452632 C10.724069,6.66368421 10.7375517,6.64515789 10.7481034,6.62894737 C10.9239655,6.413 10.9749655,6.16289474 10.899931,5.87863158 C10.8729655,5.77326316 10.8307586,5.67078947 10.7721379,5.57063158 C8.36282759,6.81305263 6.49986207,8.11568421 5.18324138,9.47910526 L5.16741379,9.471 L5.16741379,10.5449474 L5.18324138,10.5530526 C5.9242069,9.79 6.83575862,9.04489474 7.91731034,8.31831579 L7.91731034,8.53947368 C7.91731034,8.54989474 7.91731034,8.56031579 7.91731034,8.57073684 C7.93313793,8.69694737 8.02106897,8.80752632 8.18110345,8.90247368 C8.19693103,8.90768421 8.21334483,8.91578947 8.22917241,8.92621053 C8.28251724,8.94705263 8.33293103,8.96557895 8.381,8.98178947 C8.40210345,8.987 8.42086207,8.99221053 8.43668966,8.99742105 C9.27906897,9.23942105 10.168931,9.38936842 11.1068621,9.44726316 C12.9774483,9.57868421 14.481069,9.32105263 15.6159655,8.67321053 C16.4208276,8.21526316 16.8446552,7.68089474 16.8874483,7.07010526 C16.8927241,7.007 16.8927241,6.94389474 16.8874483,6.88078947 L16.8956552,5.93305263 C16.8851034,6.09631579 16.8528621,6.25668421 16.7995172,6.41473684 C16.628931,6.85184211 16.2344138,7.24668421 15.6159655,7.59926316 C14.4804828,8.24652632 12.9774483,8.50473684 11.1068621,8.37331579 C10.6754138,8.34726316 10.253931,8.30210526 9.84358621,8.239 C9.37989655,8.16026316 8.92968966,8.06010526 8.49237931,7.93910526 C8.47127586,7.93389474 8.45251724,7.92868421 8.43668966,7.92347368 C8.42086207,7.91826316 8.40210345,7.91305263 8.381,7.90784211 C8.33293103,7.89221053 8.28251724,7.87368421 8.22917241,7.85284211 C8.21334483,7.84242105 8.19693103,7.83431579 8.18110345,7.82910526 C8.02165517,7.73473684 7.93372414,7.62415789 7.91789655,7.49794737 Z" id="Shape" fill="#B4ADA3"></path>
                <path d="M7.61424138,3.85810526 C7.45948276,3.83726316 7.30765517,3.82105263 7.15875862,3.81063158 C6.36444828,3.75273684 5.72782759,3.86042105 5.24772414,4.13426316 C4.99741379,4.27668421 4.82682759,4.44747368 4.73596552,4.64778947 C4.7517931,4.653 4.77055172,4.66110526 4.79224138,4.67152632 C4.79751724,4.67673684 4.8027931,4.68194737 4.80806897,4.68715789 C4.97337931,4.77689474 5.06131034,4.87936842 5.07186207,4.99515789 L5.07186207,5.00326316 C5.07186207,5.01889474 5.07186207,5.03742105 5.07186207,5.05884211 L5.07186207,5.30373684 C5.13048276,5.27189474 5.18910345,5.24063158 5.24772414,5.20878947 C5.28524138,5.18794737 5.32510345,5.16652632 5.36789655,5.14568421 C6.14051724,4.73463158 6.88910345,4.30505263 7.61424138,3.85810526 Z" id="Shape" fill="#706B60"></path>
                <polygon id="Shape" fill="#C8C4BB" points="0.586206897 7.33236842 0.594413793 8.41384211 5.16741379 10.5461053 5.16741379 9.47215789"></polygon>
                <path d="M8.56565517,0.66 C6.81172414,0.444052632 5.36731034,0.66 4.23241379,1.30726316 C3.34782759,1.81268421 2.88648276,2.43910526 2.84955172,3.18652632 C2.84427586,3.23921053 2.84427586,3.29421053 2.84955172,3.35210526 L2.84955172,3.38394737 C2.85482759,3.53157895 2.87651724,3.68384211 2.91344828,3.84189474 L2.91344828,3.85 C3.02013793,4.27668421 3.23058621,4.68715789 3.5447931,5.082 C3.57175862,5.11384211 3.59286207,5.13989474 3.60868966,5.16073684 L3.61689655,5.17636842 C3.63272414,5.18678947 3.64913793,5.20010526 3.66496552,5.21573684 C3.69134483,5.23657895 3.72358621,5.258 3.76110345,5.27884211 C3.92641379,5.368 4.11810345,5.41547368 4.33675862,5.42068421 C4.44344828,5.42068421 4.54193103,5.41257895 4.6327931,5.39694737 C4.67558621,5.38652632 4.71544828,5.37610526 4.75296552,5.36510526 C4.79575862,5.34426316 4.83855172,5.32284211 4.88075862,5.302 C4.998,5.23368421 5.06189655,5.15205263 5.07244828,5.05710526 C5.07244828,5.03626316 5.07244828,5.01773684 5.07244828,5.00152632 L5.07244828,4.99342105 C5.06189655,4.87763158 4.97396552,4.77515789 4.80865517,4.68542105 C4.80337931,4.68021053 4.79810345,4.675 4.79282759,4.66978947 C4.77172414,4.65936842 4.75296552,4.65126316 4.73655172,4.64605263 C4.58706897,4.57773684 4.42234483,4.54068421 4.24062069,4.53547368 C4.23006897,4.53547368 4.22186207,4.53547368 4.21658621,4.53547368 C4.32327586,4.29347368 4.53665517,4.08273684 4.85613793,3.90384211 C5.42651724,3.57731579 6.18037931,3.44589474 7.11889655,3.509 C7.42255172,3.52984211 7.72151724,3.56978947 8.01462069,3.62768421 L7.61482759,3.85694737 C6.88968966,4.30447368 6.14110345,4.73347368 5.36789655,5.14394737 C5.32510345,5.16478947 5.28524138,5.18621053 5.24772414,5.20705263 C5.18910345,5.23889474 5.13048276,5.27015789 5.07186207,5.302 C4.96517241,5.35468421 4.85848276,5.40968421 4.7517931,5.46757895 C4.33617241,5.67831579 3.91468966,5.88326316 3.48851724,6.08357895 C2.55586207,6.52068421 1.58803448,6.93636842 0.586206897,7.33121053 L5.16741379,9.471 L5.18324138,9.47910526 C6.49986207,8.11568421 8.36282759,6.81305263 10.7721379,5.57063158 L11.1795517,5.33384211 C11.3290345,5.52315789 11.4298621,5.72057895 11.4832069,5.92610526 C11.6057241,6.42110526 11.4216552,6.82636842 10.9315862,7.14189474 C10.8993448,7.16273684 10.8647586,7.18415789 10.8278276,7.205 C10.4602759,7.41573684 10.0124138,7.54194737 9.48482759,7.58421053 C9.48482759,7.57378947 9.48482759,7.56336842 9.48482759,7.55236842 L9.48482759,7.53673684 C9.47955172,7.48405263 9.45844828,7.43426316 9.42093103,7.38678947 C9.38341379,7.34452632 9.33827586,7.30515789 9.28493103,7.26810526 C9.26910345,7.25247368 9.25268966,7.23915789 9.23686207,7.22873684 C9.23158621,7.22873684 9.22631034,7.22873684 9.22103448,7.22873684 C9.061,7.13378947 8.87165517,7.084 8.65358621,7.07878947 C8.4402069,7.07357895 8.262,7.11294737 8.1177931,7.19689474 C7.98472414,7.27563158 7.91789655,7.36536842 7.91789655,7.46552632 C7.91789655,7.47594737 7.91789655,7.48636842 7.91789655,7.49736842 C7.93372414,7.62357895 8.02165517,7.73415789 8.18168966,7.82910526 C8.19751724,7.83431579 8.21393103,7.84242105 8.22975862,7.85284211 C8.28310345,7.87368421 8.33351724,7.89221053 8.38158621,7.90784211 C8.40268966,7.91305263 8.42144828,7.91826316 8.43727586,7.92347368 C8.45310345,7.92868421 8.47186207,7.93389474 8.49296552,7.93910526 C8.93027586,8.06010526 9.38048276,8.16026316 9.84417241,8.239 C10.2545172,8.30210526 10.676,8.34668421 11.1074483,8.37331579 C12.9780345,8.50473684 14.4816552,8.24710526 15.6165517,7.59926316 C16.235,7.24668421 16.6295172,6.85184211 16.8001034,6.41473684 C16.8534483,6.25668421 16.8851034,6.09631579 16.8962414,5.93305263 L16.8962414,5.90121053 C16.8909655,5.67484211 16.8405517,5.44036842 16.7444138,5.19836842 C16.3604483,4.24021053 15.4225172,3.34515789 13.9300345,2.51378947 C13.9142069,2.50336842 13.8954483,2.49294737 13.8737586,2.48194737 C13.8526552,2.47152632 13.8286207,2.45821053 13.8016552,2.44257895 L13.7377586,2.40321053 C13.3326897,2.18205263 13.0952759,2.05294737 13.0261034,2.01647368 C11.6461724,1.30726316 10.1589655,0.854526316 8.56565517,0.66 Z" id="Shape" fill="#F7F1E6"></path>
            </g>
            <g id="mushroom-copy-3" transform="translate(59.000000, 62.000000)">
                <path d="M9.28493103,7.26926316 C9.33827586,7.30631579 9.38341379,7.34568421 9.42093103,7.38794737 C9.45844828,7.43542105 9.47955172,7.48521053 9.48482759,7.53789474 L9.48482759,7.55352632 C9.48482759,7.56394737 9.48482759,7.57436842 9.48482759,7.58536842 C10.0124138,7.54310526 10.4602759,7.41689474 10.8278276,7.20615789 C10.8653448,7.18531579 10.899931,7.16389474 10.9315862,7.14305263 C11.4222414,6.82694737 11.6057241,6.42168421 11.4832069,5.92726316 C11.4298621,5.72173684 11.3284483,5.52431579 11.1795517,5.335 L10.7721379,5.57178947 C10.8307586,5.67194737 10.8735517,5.77442105 10.899931,5.87978947 C10.9743793,6.16405263 10.9239655,6.41415789 10.7481034,6.63010526 C10.7375517,6.64573684 10.724069,6.66426316 10.7082414,6.68568421 C10.6121034,6.78063158 10.4925172,6.86978947 10.3483103,6.95431579 C10.1777241,7.04926316 9.98837931,7.12568421 9.78086207,7.18357895 C9.62610345,7.21889474 9.4607931,7.24784211 9.28493103,7.26926316 L9.28493103,7.26926316 Z M7.61424138,3.85810526 L8.01403448,3.62884211 C7.72093103,3.57094737 7.42255172,3.53157895 7.11831034,3.51015789 C6.18037931,3.44705263 5.42593103,3.57847368 4.85555172,3.905 C4.53548276,4.08389474 4.32268966,4.29463158 4.216,4.53663158 C4.22127586,4.53663158 4.22948276,4.53663158 4.24003448,4.53663158 C4.42117241,4.54184211 4.58648276,4.57889474 4.73596552,4.64721053 C4.82682759,4.44689474 4.99682759,4.27610526 5.24772414,4.13368421 C5.72724138,3.85984211 6.36444828,3.75215789 7.15875862,3.81005263 C7.30765517,3.82105263 7.45948276,3.83668421 7.61424138,3.85810526 Z" id="Shape" fill="#918778"></path>
                <path d="M4.63162069,5.39752632 C4.54075862,5.41315789 4.44227586,5.42126316 4.33558621,5.42126316 C4.11693103,5.41605263 3.92524138,5.36857895 3.75993103,5.27942105 C3.72241379,5.25857895 3.69075862,5.23715789 3.6637931,5.21631579 C3.64796552,5.20068421 3.63155172,5.18736842 3.61572414,5.17694737 L3.60751724,5.16131579 C3.59168966,5.14047368 3.57,5.11384211 3.54362069,5.08257895 C3.22941379,4.68773684 3.01837931,4.27726316 2.91227586,3.85057895 L2.91227586,3.84247368 C2.87475862,3.68442105 2.85365517,3.53215789 2.84837931,3.38452632 L2.84017241,4.30852632 C2.84017241,4.31373684 2.84017241,4.32415789 2.84017241,4.34036842 C2.84017241,4.35657895 2.84017241,4.37221053 2.84017241,4.38784211 C2.84544828,4.55631579 2.86948276,4.73231579 2.91227586,4.917 C3.01368966,5.32226316 3.20537931,5.71189474 3.48793103,6.08531579 C3.91410345,5.88557895 4.33558621,5.68005263 4.7512069,5.46931579 C4.85789655,5.41142105 4.96458621,5.35642105 5.07127586,5.30373684 L5.07127586,5.05884211 C5.06072414,5.15378947 4.99682759,5.23542105 4.87958621,5.30373684 C4.8367931,5.32457895 4.79458621,5.346 4.7517931,5.36684211 C4.71427586,5.37668421 4.67441379,5.38710526 4.63162069,5.39752632 Z" id="Shape" fill="#C6C1B7"></path>
                <path d="M7.91789655,7.49794737 C7.91789655,7.48752632 7.91789655,7.47710526 7.91789655,7.46610526 C7.91789655,7.36594737 7.98472414,7.27678947 8.1177931,7.19747368 C8.26141379,7.11352632 8.4402069,7.07357895 8.65358621,7.07936842 C8.87224138,7.08457895 9.06158621,7.13436842 9.22103448,7.22931579 C9.22631034,7.22931579 9.23158621,7.22931579 9.23686207,7.22931579 C9.25268966,7.23973684 9.26910345,7.25305263 9.28493103,7.26868421 C9.4607931,7.24784211 9.62610345,7.21889474 9.78086207,7.18184211 C10.0792414,7.01336842 10.3887586,6.84778947 10.7082414,6.68452632 C10.724069,6.66368421 10.7375517,6.64515789 10.7481034,6.62894737 C10.9239655,6.413 10.9749655,6.16289474 10.899931,5.87863158 C10.8729655,5.77326316 10.8307586,5.67078947 10.7721379,5.57063158 C8.36282759,6.81305263 6.49986207,8.11568421 5.18324138,9.47910526 L5.16741379,9.471 L5.16741379,10.5449474 L5.18324138,10.5530526 C5.9242069,9.79 6.83575862,9.04489474 7.91731034,8.31831579 L7.91731034,8.53947368 C7.91731034,8.54989474 7.91731034,8.56031579 7.91731034,8.57073684 C7.93313793,8.69694737 8.02106897,8.80752632 8.18110345,8.90247368 C8.19693103,8.90768421 8.21334483,8.91578947 8.22917241,8.92621053 C8.28251724,8.94705263 8.33293103,8.96557895 8.381,8.98178947 C8.40210345,8.987 8.42086207,8.99221053 8.43668966,8.99742105 C9.27906897,9.23942105 10.168931,9.38936842 11.1068621,9.44726316 C12.9774483,9.57868421 14.481069,9.32105263 15.6159655,8.67321053 C16.4208276,8.21526316 16.8446552,7.68089474 16.8874483,7.07010526 C16.8927241,7.007 16.8927241,6.94389474 16.8874483,6.88078947 L16.8956552,5.93305263 C16.8851034,6.09631579 16.8528621,6.25668421 16.7995172,6.41473684 C16.628931,6.85184211 16.2344138,7.24668421 15.6159655,7.59926316 C14.4804828,8.24652632 12.9774483,8.50473684 11.1068621,8.37331579 C10.6754138,8.34726316 10.253931,8.30210526 9.84358621,8.239 C9.37989655,8.16026316 8.92968966,8.06010526 8.49237931,7.93910526 C8.47127586,7.93389474 8.45251724,7.92868421 8.43668966,7.92347368 C8.42086207,7.91826316 8.40210345,7.91305263 8.381,7.90784211 C8.33293103,7.89221053 8.28251724,7.87368421 8.22917241,7.85284211 C8.21334483,7.84242105 8.19693103,7.83431579 8.18110345,7.82910526 C8.02165517,7.73473684 7.93372414,7.62415789 7.91789655,7.49794737 Z" id="Shape" fill="#B4ADA3"></path>
                <path d="M7.61424138,3.85810526 C7.45948276,3.83726316 7.30765517,3.82105263 7.15875862,3.81063158 C6.36444828,3.75273684 5.72782759,3.86042105 5.24772414,4.13426316 C4.99741379,4.27668421 4.82682759,4.44747368 4.73596552,4.64778947 C4.7517931,4.653 4.77055172,4.66110526 4.79224138,4.67152632 C4.79751724,4.67673684 4.8027931,4.68194737 4.80806897,4.68715789 C4.97337931,4.77689474 5.06131034,4.87936842 5.07186207,4.99515789 L5.07186207,5.00326316 C5.07186207,5.01889474 5.07186207,5.03742105 5.07186207,5.05884211 L5.07186207,5.30373684 C5.13048276,5.27189474 5.18910345,5.24063158 5.24772414,5.20878947 C5.28524138,5.18794737 5.32510345,5.16652632 5.36789655,5.14568421 C6.14051724,4.73463158 6.88910345,4.30505263 7.61424138,3.85810526 Z" id="Shape" fill="#706B60"></path>
                <polygon id="Shape" fill="#C8C4BB" points="0.586206897 7.33236842 0.594413793 8.41384211 5.16741379 10.5461053 5.16741379 9.47215789"></polygon>
                <path d="M8.56565517,0.66 C6.81172414,0.444052632 5.36731034,0.66 4.23241379,1.30726316 C3.34782759,1.81268421 2.88648276,2.43910526 2.84955172,3.18652632 C2.84427586,3.23921053 2.84427586,3.29421053 2.84955172,3.35210526 L2.84955172,3.38394737 C2.85482759,3.53157895 2.87651724,3.68384211 2.91344828,3.84189474 L2.91344828,3.85 C3.02013793,4.27668421 3.23058621,4.68715789 3.5447931,5.082 C3.57175862,5.11384211 3.59286207,5.13989474 3.60868966,5.16073684 L3.61689655,5.17636842 C3.63272414,5.18678947 3.64913793,5.20010526 3.66496552,5.21573684 C3.69134483,5.23657895 3.72358621,5.258 3.76110345,5.27884211 C3.92641379,5.368 4.11810345,5.41547368 4.33675862,5.42068421 C4.44344828,5.42068421 4.54193103,5.41257895 4.6327931,5.39694737 C4.67558621,5.38652632 4.71544828,5.37610526 4.75296552,5.36510526 C4.79575862,5.34426316 4.83855172,5.32284211 4.88075862,5.302 C4.998,5.23368421 5.06189655,5.15205263 5.07244828,5.05710526 C5.07244828,5.03626316 5.07244828,5.01773684 5.07244828,5.00152632 L5.07244828,4.99342105 C5.06189655,4.87763158 4.97396552,4.77515789 4.80865517,4.68542105 C4.80337931,4.68021053 4.79810345,4.675 4.79282759,4.66978947 C4.77172414,4.65936842 4.75296552,4.65126316 4.73655172,4.64605263 C4.58706897,4.57773684 4.42234483,4.54068421 4.24062069,4.53547368 C4.23006897,4.53547368 4.22186207,4.53547368 4.21658621,4.53547368 C4.32327586,4.29347368 4.53665517,4.08273684 4.85613793,3.90384211 C5.42651724,3.57731579 6.18037931,3.44589474 7.11889655,3.509 C7.42255172,3.52984211 7.72151724,3.56978947 8.01462069,3.62768421 L7.61482759,3.85694737 C6.88968966,4.30447368 6.14110345,4.73347368 5.36789655,5.14394737 C5.32510345,5.16478947 5.28524138,5.18621053 5.24772414,5.20705263 C5.18910345,5.23889474 5.13048276,5.27015789 5.07186207,5.302 C4.96517241,5.35468421 4.85848276,5.40968421 4.7517931,5.46757895 C4.33617241,5.67831579 3.91468966,5.88326316 3.48851724,6.08357895 C2.55586207,6.52068421 1.58803448,6.93636842 0.586206897,7.33121053 L5.16741379,9.471 L5.18324138,9.47910526 C6.49986207,8.11568421 8.36282759,6.81305263 10.7721379,5.57063158 L11.1795517,5.33384211 C11.3290345,5.52315789 11.4298621,5.72057895 11.4832069,5.92610526 C11.6057241,6.42110526 11.4216552,6.82636842 10.9315862,7.14189474 C10.8993448,7.16273684 10.8647586,7.18415789 10.8278276,7.205 C10.4602759,7.41573684 10.0124138,7.54194737 9.48482759,7.58421053 C9.48482759,7.57378947 9.48482759,7.56336842 9.48482759,7.55236842 L9.48482759,7.53673684 C9.47955172,7.48405263 9.45844828,7.43426316 9.42093103,7.38678947 C9.38341379,7.34452632 9.33827586,7.30515789 9.28493103,7.26810526 C9.26910345,7.25247368 9.25268966,7.23915789 9.23686207,7.22873684 C9.23158621,7.22873684 9.22631034,7.22873684 9.22103448,7.22873684 C9.061,7.13378947 8.87165517,7.084 8.65358621,7.07878947 C8.4402069,7.07357895 8.262,7.11294737 8.1177931,7.19689474 C7.98472414,7.27563158 7.91789655,7.36536842 7.91789655,7.46552632 C7.91789655,7.47594737 7.91789655,7.48636842 7.91789655,7.49736842 C7.93372414,7.62357895 8.02165517,7.73415789 8.18168966,7.82910526 C8.19751724,7.83431579 8.21393103,7.84242105 8.22975862,7.85284211 C8.28310345,7.87368421 8.33351724,7.89221053 8.38158621,7.90784211 C8.40268966,7.91305263 8.42144828,7.91826316 8.43727586,7.92347368 C8.45310345,7.92868421 8.47186207,7.93389474 8.49296552,7.93910526 C8.93027586,8.06010526 9.38048276,8.16026316 9.84417241,8.239 C10.2545172,8.30210526 10.676,8.34668421 11.1074483,8.37331579 C12.9780345,8.50473684 14.4816552,8.24710526 15.6165517,7.59926316 C16.235,7.24668421 16.6295172,6.85184211 16.8001034,6.41473684 C16.8534483,6.25668421 16.8851034,6.09631579 16.8962414,5.93305263 L16.8962414,5.90121053 C16.8909655,5.67484211 16.8405517,5.44036842 16.7444138,5.19836842 C16.3604483,4.24021053 15.4225172,3.34515789 13.9300345,2.51378947 C13.9142069,2.50336842 13.8954483,2.49294737 13.8737586,2.48194737 C13.8526552,2.47152632 13.8286207,2.45821053 13.8016552,2.44257895 L13.7377586,2.40321053 C13.3326897,2.18205263 13.0952759,2.05294737 13.0261034,2.01647368 C11.6461724,1.30726316 10.1589655,0.854526316 8.56565517,0.66 Z" id="Shape" fill="#F7F1E6"></path>
            </g>
            <g id="mushroom-copy-4" transform="translate(118.000000, 59.000000)">
                <path d="M9.28493103,7.26926316 C9.33827586,7.30631579 9.38341379,7.34568421 9.42093103,7.38794737 C9.45844828,7.43542105 9.47955172,7.48521053 9.48482759,7.53789474 L9.48482759,7.55352632 C9.48482759,7.56394737 9.48482759,7.57436842 9.48482759,7.58536842 C10.0124138,7.54310526 10.4602759,7.41689474 10.8278276,7.20615789 C10.8653448,7.18531579 10.899931,7.16389474 10.9315862,7.14305263 C11.4222414,6.82694737 11.6057241,6.42168421 11.4832069,5.92726316 C11.4298621,5.72173684 11.3284483,5.52431579 11.1795517,5.335 L10.7721379,5.57178947 C10.8307586,5.67194737 10.8735517,5.77442105 10.899931,5.87978947 C10.9743793,6.16405263 10.9239655,6.41415789 10.7481034,6.63010526 C10.7375517,6.64573684 10.724069,6.66426316 10.7082414,6.68568421 C10.6121034,6.78063158 10.4925172,6.86978947 10.3483103,6.95431579 C10.1777241,7.04926316 9.98837931,7.12568421 9.78086207,7.18357895 C9.62610345,7.21889474 9.4607931,7.24784211 9.28493103,7.26926316 L9.28493103,7.26926316 Z M7.61424138,3.85810526 L8.01403448,3.62884211 C7.72093103,3.57094737 7.42255172,3.53157895 7.11831034,3.51015789 C6.18037931,3.44705263 5.42593103,3.57847368 4.85555172,3.905 C4.53548276,4.08389474 4.32268966,4.29463158 4.216,4.53663158 C4.22127586,4.53663158 4.22948276,4.53663158 4.24003448,4.53663158 C4.42117241,4.54184211 4.58648276,4.57889474 4.73596552,4.64721053 C4.82682759,4.44689474 4.99682759,4.27610526 5.24772414,4.13368421 C5.72724138,3.85984211 6.36444828,3.75215789 7.15875862,3.81005263 C7.30765517,3.82105263 7.45948276,3.83668421 7.61424138,3.85810526 Z" id="Shape" fill="#918778"></path>
                <path d="M4.63162069,5.39752632 C4.54075862,5.41315789 4.44227586,5.42126316 4.33558621,5.42126316 C4.11693103,5.41605263 3.92524138,5.36857895 3.75993103,5.27942105 C3.72241379,5.25857895 3.69075862,5.23715789 3.6637931,5.21631579 C3.64796552,5.20068421 3.63155172,5.18736842 3.61572414,5.17694737 L3.60751724,5.16131579 C3.59168966,5.14047368 3.57,5.11384211 3.54362069,5.08257895 C3.22941379,4.68773684 3.01837931,4.27726316 2.91227586,3.85057895 L2.91227586,3.84247368 C2.87475862,3.68442105 2.85365517,3.53215789 2.84837931,3.38452632 L2.84017241,4.30852632 C2.84017241,4.31373684 2.84017241,4.32415789 2.84017241,4.34036842 C2.84017241,4.35657895 2.84017241,4.37221053 2.84017241,4.38784211 C2.84544828,4.55631579 2.86948276,4.73231579 2.91227586,4.917 C3.01368966,5.32226316 3.20537931,5.71189474 3.48793103,6.08531579 C3.91410345,5.88557895 4.33558621,5.68005263 4.7512069,5.46931579 C4.85789655,5.41142105 4.96458621,5.35642105 5.07127586,5.30373684 L5.07127586,5.05884211 C5.06072414,5.15378947 4.99682759,5.23542105 4.87958621,5.30373684 C4.8367931,5.32457895 4.79458621,5.346 4.7517931,5.36684211 C4.71427586,5.37668421 4.67441379,5.38710526 4.63162069,5.39752632 Z" id="Shape" fill="#C6C1B7"></path>
                <path d="M7.91789655,7.49794737 C7.91789655,7.48752632 7.91789655,7.47710526 7.91789655,7.46610526 C7.91789655,7.36594737 7.98472414,7.27678947 8.1177931,7.19747368 C8.26141379,7.11352632 8.4402069,7.07357895 8.65358621,7.07936842 C8.87224138,7.08457895 9.06158621,7.13436842 9.22103448,7.22931579 C9.22631034,7.22931579 9.23158621,7.22931579 9.23686207,7.22931579 C9.25268966,7.23973684 9.26910345,7.25305263 9.28493103,7.26868421 C9.4607931,7.24784211 9.62610345,7.21889474 9.78086207,7.18184211 C10.0792414,7.01336842 10.3887586,6.84778947 10.7082414,6.68452632 C10.724069,6.66368421 10.7375517,6.64515789 10.7481034,6.62894737 C10.9239655,6.413 10.9749655,6.16289474 10.899931,5.87863158 C10.8729655,5.77326316 10.8307586,5.67078947 10.7721379,5.57063158 C8.36282759,6.81305263 6.49986207,8.11568421 5.18324138,9.47910526 L5.16741379,9.471 L5.16741379,10.5449474 L5.18324138,10.5530526 C5.9242069,9.79 6.83575862,9.04489474 7.91731034,8.31831579 L7.91731034,8.53947368 C7.91731034,8.54989474 7.91731034,8.56031579 7.91731034,8.57073684 C7.93313793,8.69694737 8.02106897,8.80752632 8.18110345,8.90247368 C8.19693103,8.90768421 8.21334483,8.91578947 8.22917241,8.92621053 C8.28251724,8.94705263 8.33293103,8.96557895 8.381,8.98178947 C8.40210345,8.987 8.42086207,8.99221053 8.43668966,8.99742105 C9.27906897,9.23942105 10.168931,9.38936842 11.1068621,9.44726316 C12.9774483,9.57868421 14.481069,9.32105263 15.6159655,8.67321053 C16.4208276,8.21526316 16.8446552,7.68089474 16.8874483,7.07010526 C16.8927241,7.007 16.8927241,6.94389474 16.8874483,6.88078947 L16.8956552,5.93305263 C16.8851034,6.09631579 16.8528621,6.25668421 16.7995172,6.41473684 C16.628931,6.85184211 16.2344138,7.24668421 15.6159655,7.59926316 C14.4804828,8.24652632 12.9774483,8.50473684 11.1068621,8.37331579 C10.6754138,8.34726316 10.253931,8.30210526 9.84358621,8.239 C9.37989655,8.16026316 8.92968966,8.06010526 8.49237931,7.93910526 C8.47127586,7.93389474 8.45251724,7.92868421 8.43668966,7.92347368 C8.42086207,7.91826316 8.40210345,7.91305263 8.381,7.90784211 C8.33293103,7.89221053 8.28251724,7.87368421 8.22917241,7.85284211 C8.21334483,7.84242105 8.19693103,7.83431579 8.18110345,7.82910526 C8.02165517,7.73473684 7.93372414,7.62415789 7.91789655,7.49794737 Z" id="Shape" fill="#B4ADA3"></path>
                <path d="M7.61424138,3.85810526 C7.45948276,3.83726316 7.30765517,3.82105263 7.15875862,3.81063158 C6.36444828,3.75273684 5.72782759,3.86042105 5.24772414,4.13426316 C4.99741379,4.27668421 4.82682759,4.44747368 4.73596552,4.64778947 C4.7517931,4.653 4.77055172,4.66110526 4.79224138,4.67152632 C4.79751724,4.67673684 4.8027931,4.68194737 4.80806897,4.68715789 C4.97337931,4.77689474 5.06131034,4.87936842 5.07186207,4.99515789 L5.07186207,5.00326316 C5.07186207,5.01889474 5.07186207,5.03742105 5.07186207,5.05884211 L5.07186207,5.30373684 C5.13048276,5.27189474 5.18910345,5.24063158 5.24772414,5.20878947 C5.28524138,5.18794737 5.32510345,5.16652632 5.36789655,5.14568421 C6.14051724,4.73463158 6.88910345,4.30505263 7.61424138,3.85810526 Z" id="Shape" fill="#706B60"></path>
                <polygon id="Shape" fill="#C8C4BB" points="0.586206897 7.33236842 0.594413793 8.41384211 5.16741379 10.5461053 5.16741379 9.47215789"></polygon>
                <path d="M8.56565517,0.66 C6.81172414,0.444052632 5.36731034,0.66 4.23241379,1.30726316 C3.34782759,1.81268421 2.88648276,2.43910526 2.84955172,3.18652632 C2.84427586,3.23921053 2.84427586,3.29421053 2.84955172,3.35210526 L2.84955172,3.38394737 C2.85482759,3.53157895 2.87651724,3.68384211 2.91344828,3.84189474 L2.91344828,3.85 C3.02013793,4.27668421 3.23058621,4.68715789 3.5447931,5.082 C3.57175862,5.11384211 3.59286207,5.13989474 3.60868966,5.16073684 L3.61689655,5.17636842 C3.63272414,5.18678947 3.64913793,5.20010526 3.66496552,5.21573684 C3.69134483,5.23657895 3.72358621,5.258 3.76110345,5.27884211 C3.92641379,5.368 4.11810345,5.41547368 4.33675862,5.42068421 C4.44344828,5.42068421 4.54193103,5.41257895 4.6327931,5.39694737 C4.67558621,5.38652632 4.71544828,5.37610526 4.75296552,5.36510526 C4.79575862,5.34426316 4.83855172,5.32284211 4.88075862,5.302 C4.998,5.23368421 5.06189655,5.15205263 5.07244828,5.05710526 C5.07244828,5.03626316 5.07244828,5.01773684 5.07244828,5.00152632 L5.07244828,4.99342105 C5.06189655,4.87763158 4.97396552,4.77515789 4.80865517,4.68542105 C4.80337931,4.68021053 4.79810345,4.675 4.79282759,4.66978947 C4.77172414,4.65936842 4.75296552,4.65126316 4.73655172,4.64605263 C4.58706897,4.57773684 4.42234483,4.54068421 4.24062069,4.53547368 C4.23006897,4.53547368 4.22186207,4.53547368 4.21658621,4.53547368 C4.32327586,4.29347368 4.53665517,4.08273684 4.85613793,3.90384211 C5.42651724,3.57731579 6.18037931,3.44589474 7.11889655,3.509 C7.42255172,3.52984211 7.72151724,3.56978947 8.01462069,3.62768421 L7.61482759,3.85694737 C6.88968966,4.30447368 6.14110345,4.73347368 5.36789655,5.14394737 C5.32510345,5.16478947 5.28524138,5.18621053 5.24772414,5.20705263 C5.18910345,5.23889474 5.13048276,5.27015789 5.07186207,5.302 C4.96517241,5.35468421 4.85848276,5.40968421 4.7517931,5.46757895 C4.33617241,5.67831579 3.91468966,5.88326316 3.48851724,6.08357895 C2.55586207,6.52068421 1.58803448,6.93636842 0.586206897,7.33121053 L5.16741379,9.471 L5.18324138,9.47910526 C6.49986207,8.11568421 8.36282759,6.81305263 10.7721379,5.57063158 L11.1795517,5.33384211 C11.3290345,5.52315789 11.4298621,5.72057895 11.4832069,5.92610526 C11.6057241,6.42110526 11.4216552,6.82636842 10.9315862,7.14189474 C10.8993448,7.16273684 10.8647586,7.18415789 10.8278276,7.205 C10.4602759,7.41573684 10.0124138,7.54194737 9.48482759,7.58421053 C9.48482759,7.57378947 9.48482759,7.56336842 9.48482759,7.55236842 L9.48482759,7.53673684 C9.47955172,7.48405263 9.45844828,7.43426316 9.42093103,7.38678947 C9.38341379,7.34452632 9.33827586,7.30515789 9.28493103,7.26810526 C9.26910345,7.25247368 9.25268966,7.23915789 9.23686207,7.22873684 C9.23158621,7.22873684 9.22631034,7.22873684 9.22103448,7.22873684 C9.061,7.13378947 8.87165517,7.084 8.65358621,7.07878947 C8.4402069,7.07357895 8.262,7.11294737 8.1177931,7.19689474 C7.98472414,7.27563158 7.91789655,7.36536842 7.91789655,7.46552632 C7.91789655,7.47594737 7.91789655,7.48636842 7.91789655,7.49736842 C7.93372414,7.62357895 8.02165517,7.73415789 8.18168966,7.82910526 C8.19751724,7.83431579 8.21393103,7.84242105 8.22975862,7.85284211 C8.28310345,7.87368421 8.33351724,7.89221053 8.38158621,7.90784211 C8.40268966,7.91305263 8.42144828,7.91826316 8.43727586,7.92347368 C8.45310345,7.92868421 8.47186207,7.93389474 8.49296552,7.93910526 C8.93027586,8.06010526 9.38048276,8.16026316 9.84417241,8.239 C10.2545172,8.30210526 10.676,8.34668421 11.1074483,8.37331579 C12.9780345,8.50473684 14.4816552,8.24710526 15.6165517,7.59926316 C16.235,7.24668421 16.6295172,6.85184211 16.8001034,6.41473684 C16.8534483,6.25668421 16.8851034,6.09631579 16.8962414,5.93305263 L16.8962414,5.90121053 C16.8909655,5.67484211 16.8405517,5.44036842 16.7444138,5.19836842 C16.3604483,4.24021053 15.4225172,3.34515789 13.9300345,2.51378947 C13.9142069,2.50336842 13.8954483,2.49294737 13.8737586,2.48194737 C13.8526552,2.47152632 13.8286207,2.45821053 13.8016552,2.44257895 L13.7377586,2.40321053 C13.3326897,2.18205263 13.0952759,2.05294737 13.0261034,2.01647368 C11.6461724,1.30726316 10.1589655,0.854526316 8.56565517,0.66 Z" id="Shape" fill="#F7F1E6"></path>
            </g>
        </g>
    </g>
</svg>