<?xml version="1.0" encoding="UTF-8"?>
<svg width="225px" height="159px" viewBox="0 0 225 159" version="1.1" xmlns="http://www.w3.org/2000/svg" xmlns:xlink="http://www.w3.org/1999/xlink">
    <!-- Generator: Sketch 46.2 (44496) - http://www.bohemiancoding.com/sketch -->
    <title>Artboard</title>
    <desc>Created with Sketch.</desc>
    <defs></defs>
    <g id="Page-1" stroke="none" stroke-width="1" fill="none" fill-rule="evenodd">
        <g id="Artboard" fill-rule="nonzero">
            <g id="onion" transform="translate(88.000000, 66.000000)">
                <g id="Group" transform="translate(0.275000, 0.276923)">
                    <g id="people_0_Layer11_6_FILL">
                        <g>
                            <path d="M1.01138889,9.43692308 L1.01138889,10.5532308 C1.15011111,10.7772308 1.31144444,10.9926154 1.49477778,11.1993846 L1.49477778,10.0830769 C1.31144444,9.87015385 1.15011111,9.65476923 1.01138889,9.43692308 L1.01138889,9.43692308 Z M3.80355556,11.896 C3.79255556,11.8904615 3.784,11.8849231 3.7785,11.8793846 C3.52855556,11.7341538 3.29205556,11.5883077 3.07022222,11.4430769 L3.07022222,12.5593846 C3.29266667,12.7046154 3.52855556,12.8504615 3.7785,12.9956923 C3.784,13.0012308 3.79255556,13.0067692 3.80355556,13.0123077 L3.80355556,11.896 L3.80355556,11.896 Z M4.38716667,12.2067692 C4.35355556,12.1901538 4.32055556,12.1729231 4.28694444,12.1563077 L4.28694444,13.2726154 C4.32055556,13.2892308 4.35355556,13.3064615 4.38716667,13.3230769 L4.38716667,12.2067692 L4.38716667,12.2067692 Z M2.61983333,11.1236923 C2.35888889,10.928 2.12238889,10.7261538 1.91155556,10.5193846 L1.91155556,11.6356923 C2.123,11.8424615 2.35888889,12.0443077 2.61983333,12.24 L2.61983333,11.1236923 L2.61983333,11.1236923 Z M0.336111111,7.25476923 L0.336111111,8.16123077 C0.336111111,8.17230769 0.336111111,8.18646154 0.336111111,8.20307692 C0.330611111,8.78523077 0.436333333,9.34461538 0.652666667,9.88184615 L0.669166667,8.79938462 C0.519444444,8.44123077 0.419222222,8.07446154 0.369111111,7.69969231 C0.353222222,7.54830769 0.341611111,7.4 0.336111111,7.25476923 Z" id="Shape" fill="#815F83"></path>
                            <path d="M0.653277778,9.88184615 C0.7535,10.1058462 0.872666667,10.3292308 1.01138889,10.5532308 L1.01138889,9.43692308 C0.878166667,9.224 0.763888889,9.01169231 0.669777778,8.79938462 L0.653277778,9.88184615 L0.653277778,9.88184615 Z M4.28694444,12.1563077 C4.12561111,12.0726154 3.96488889,11.9858462 3.80355556,11.896 L3.80355556,13.0123077 C3.96488889,13.1021538 4.12561111,13.1883077 4.28694444,13.2726154 L4.28694444,12.1563077 L4.28694444,12.1563077 Z M1.91155556,11.6356923 L1.91155556,10.5193846 C1.76183333,10.3796923 1.6225,10.2338462 1.49477778,10.0830769 L1.49477778,11.1993846 C1.6225,11.3501538 1.76183333,11.496 1.91155556,11.6356923 L1.91155556,11.6356923 Z M2.61983333,11.1236923 L2.61983333,12.24 C2.76466667,12.3464615 2.91438889,12.4529231 3.07022222,12.5587692 L3.07022222,11.4424615 C2.91438889,11.3366154 2.76466667,11.2301538 2.61983333,11.1236923 Z" id="Shape" fill="#937596"></path>
                            <path d="M5.929,12.4584615 L5.85383333,12.5003077 L5.86238889,12.5003077 L6.02922222,12.408 L5.929,12.4584615 L5.929,12.4584615 Z M19.9485,3.06646154 L19.9570556,3.06646154 L19.9570556,3.05784615 L20.7075,2.62953846 C20.6573889,2.60123077 20.6072778,2.57353846 20.5571667,2.54584615 C18.3009444,1.28676923 15.5698889,0.657230769 12.364,0.657230769 C9.15261111,0.651692308 6.4075,1.27569231 4.12927778,2.52923077 C2.0955,3.64307692 0.959444444,4.96307692 0.7205,6.49107692 C0.681388889,6.68676923 0.662444444,6.88307692 0.662444444,7.07876923 C0.640444444,8.864 1.76,10.3858462 4.02111111,11.6449231 C4.26005556,11.7790769 4.5045,11.9052308 4.75444444,12.0227692 L4.763,12.0313846 L4.763,12.0147692 L5.555,11.6116923 L5.5715,11.6030769 C5.566,11.5975385 5.5605,11.5944615 5.555,11.5944615 C5.5385,11.5833846 5.52138889,11.5747692 5.50488889,11.5692308 C5.18833333,11.4295385 4.88277778,11.2812308 4.58822222,11.1243077 C4.27716667,10.9618462 3.99361111,10.7944615 3.73816667,10.6209231 C2.21038889,9.608 1.45444444,8.42769231 1.47094444,7.07876923 C1.48744444,5.512 2.5575,4.17169231 4.67988889,3.05846154 C5.13577778,2.81784615 5.61061111,2.608 6.105,2.42892308 C7.91633333,1.74092308 10.0002222,1.39630769 12.3560556,1.39630769 C14.5896667,1.39630769 16.5763889,1.71261538 18.3156111,2.34461538 C18.887,2.54584615 19.4315,2.78646154 19.9485,3.06646154 Z" id="Shape" fill="#EFEEEE"></path>
                            <path d="M4.76238889,12.0135385 L4.76238889,12.0301538 L4.76238889,13.1378462 L5.55438889,12.6763077 L5.55438889,11.6104615 L4.76238889,12.0135385 L4.76238889,12.0135385 Z M5.929,11.4092308 L5.929,11.4258462 L5.929,12.4584615 L6.02922222,12.408 L6.92083333,11.8793846 L6.92083333,10.9058462 L5.929,11.4092308 Z" id="Shape" fill="#CFD0D0"></path>
                            <path d="M4.75383333,12.0215385 L4.38716667,12.2061538 L4.38716667,13.3224615 C4.39816667,13.328 4.40916667,13.3335385 4.42077778,13.3390769 L4.76238889,13.1378462 L4.76238889,12.0301538 L4.75383333,12.0215385 Z" id="Shape" fill="#736077"></path>
                            <polygon id="Shape" fill="#957C99" points="5.92044444 11.4172308 5.57027778 11.6018462 5.55377778 11.6104615 5.55377778 12.6763077 5.85383333 12.5003077 5.929 12.4584615 5.929 11.4258462"></polygon>
                            <path d="M19.8403333,4.26646154 L19.8488889,4.26646154 L20.0487222,4.14892308 L19.9570556,4.19938462 L19.8403333,4.26646154 L19.8403333,4.26646154 Z M18.7733333,3.72923077 L19.657,3.23384615 C17.6342222,2.21538462 15.2007778,1.70646154 12.3554444,1.70646154 C9.438,1.70646154 6.94588889,2.22953846 4.87911111,3.27630769 C2.81233333,4.328 1.76733333,5.59569231 1.74533333,7.07815385 C1.73433333,8.01292308 2.123,8.86030769 2.91194444,9.62153846 C3.38983333,10.0806154 4.01194444,10.5083077 4.77888889,10.9058462 C5.02333333,11.0344615 5.27633333,11.1550769 5.53727778,11.2664615 C5.6595,11.3169231 5.78722222,11.3673846 5.92044444,11.4172308 L5.929,11.4258462 L5.929,11.4092308 L6.92083333,10.9058462 C6.47655556,10.76 6.05122222,10.5981538 5.64544444,10.4190769 C5.56783333,10.3852308 5.48961111,10.3489231 5.412,10.3101538 C3.90622222,9.59938462 3.01155556,8.76553846 2.728,7.80923077 C2.7115,7.74215385 2.69438889,7.68061538 2.67788889,7.62461538 C2.65038889,7.45107692 2.63633333,7.27507692 2.63633333,7.096 C2.65283333,5.83692308 3.60861111,4.76553846 5.50366667,3.88123077 C7.39261111,3.00307692 9.67388889,2.56369231 12.3468889,2.56369231 C14.8310556,2.56246154 16.973,2.95138462 18.7733333,3.72923077 Z" id="Shape" fill="#F1F0F0"></path>
                            <path d="M19.8403333,4.26646154 L19.657,4.36738462 L18.7733333,4.87938462 L18.7733333,3.72923077 C16.973,2.95138462 14.8310556,2.56246154 12.3468889,2.56246154 C9.67388889,2.56246154 7.39322222,3.00184615 5.50366667,3.88 C3.60861111,4.76430769 2.65283333,5.83569231 2.63633333,7.09476923 C2.63633333,7.27384615 2.65038889,7.44984615 2.67788889,7.62338462 C3.10566667,6.58830769 4.04738889,5.72923077 5.50366667,5.04676923 C7.39261111,4.16861538 9.67388889,3.72923077 12.3468889,3.72923077 C14.8194444,3.72923077 16.9589444,4.11507692 18.7647778,4.88738462 L18.7733333,4.896 L18.7818889,4.896 L19.8488889,4.26646154 L19.8403333,4.26646154 L19.8403333,4.26646154 Z" id="Shape" fill="#DFDFDE"></path>
                            <path d="M20.7154444,3.75446154 L21.0240556,3.57846154 L21.0240556,2.45353846 L20.7154444,2.62953846 L20.7154444,2.63815385 L20.7154444,3.75446154 L20.7154444,3.75446154 Z M19.9570556,3.06646154 L19.9485,3.06646154 L19.657,3.23446154 L19.657,4.36738462 L19.8403333,4.26646154 L19.9570556,4.19938462 L19.9570556,3.06646154 Z" id="Shape" fill="#977A9B"></path>
                            <path d="M20.5571667,2.54584615 C20.6072778,2.57415385 20.6573889,2.60184615 20.7075,2.62953846 C20.713,2.62953846 20.7154444,2.63261538 20.7160556,2.63815385 L20.7160556,2.62953846 L21.0246667,2.45353846 C20.9470556,2.40861538 20.8688333,2.36369231 20.7912222,2.31938462 C18.4683889,0.998769231 15.6597222,0.338461538 12.3646111,0.338461538 C9.0585,0.332923077 6.23272222,0.987692308 3.88788889,2.30215385 C1.54305556,3.61661538 0.359333333,5.21169231 0.337333333,7.08615385 C0.337333333,7.09169231 0.337333333,7.09723077 0.337333333,7.10276923 L0.337333333,7.25353846 C0.342833333,7.39876923 0.353833333,7.54707692 0.370944444,7.69846154 C0.421055556,8.07323077 0.521277778,8.44 0.671,8.79815385 C0.765722222,9.01046154 0.879388889,9.22338462 1.01261111,9.43569231 C1.15133333,9.65415385 1.31266667,9.86953846 1.496,10.0818462 C1.62372222,10.2326154 1.76244444,10.3784615 1.91277778,10.5181538 C2.12422222,10.7249231 2.36011111,10.9267692 2.62105556,11.1224615 C2.76588889,11.2289231 2.91561111,11.3347692 3.07144444,11.4412308 C3.29388889,11.5864615 3.52977778,11.7323077 3.77972222,11.8775385 C3.78522222,11.8830769 3.79377778,11.8886154 3.80477778,11.8941538 C3.96611111,11.9833846 4.12683333,12.0701538 4.28816667,12.1544615 C4.32177778,12.1710769 4.35477778,12.1883077 4.38838889,12.2049231 L4.75505556,12.0203077 C4.50511111,11.9027692 4.26066667,11.7772308 4.02172222,11.6424615 C1.76,10.3833846 0.640444444,8.86153846 0.663055556,7.07630769 C0.663055556,6.88061538 0.682611111,6.68430769 0.721111111,6.48861538 C0.960055556,4.96123077 2.09611111,3.64061538 4.12988889,2.52676923 C6.40811111,1.27323077 9.15322222,0.649230769 12.3646111,0.654769231 C15.5698889,0.657230769 18.3009444,1.28676923 20.5571667,2.54584615 Z" id="Shape" fill="#C19BC7"></path>
                            <path d="M19.657,3.23384615 L19.9485,3.06584615 C19.4315,2.78584615 18.887,2.54523077 18.315,2.344 C16.5757778,1.712 14.5890556,1.39569231 12.3554444,1.39569231 C9.99961111,1.39569231 7.91572222,1.73969231 6.10438889,2.42830769 C5.61,2.60738462 5.13455556,2.81723077 4.67927778,3.05784615 C2.55688889,4.17107692 1.48683333,5.51138462 1.47033333,7.07815385 C1.45383333,8.42646154 2.20916667,9.60738462 3.73755556,10.6203077 C3.993,10.7938462 4.27655556,10.9618462 4.58761111,11.1236923 C4.88216667,11.2806154 5.18772222,11.4289231 5.50427778,11.5686154 C5.52077778,11.5741538 5.53788889,11.5827692 5.55438889,11.5938462 C5.55988889,11.5938462 5.56538889,11.5963077 5.57088889,11.6024615 L5.92105556,11.4178462 C5.78783333,11.3673846 5.66011111,11.3169231 5.53788889,11.2670769 C5.27694444,11.1550769 5.02394444,11.0350769 4.7795,10.9064615 C4.01255556,10.5089231 3.39044444,10.0812308 2.91255556,9.62215385 C2.12361111,8.86092308 1.73433333,8.01353846 1.74594444,7.07876923 C1.76794444,5.59569231 2.81294444,4.32861538 4.87972222,3.27692308 C6.94711111,2.23076923 9.43922222,1.70707692 12.3560556,1.70707692 C15.2001667,1.70646154 17.6342222,2.216 19.657,3.23384615 Z" id="Shape" fill="#B394B7"></path>
                            <path d="M19.657,3.23384615 L18.7733333,3.72923077 L18.7733333,4.87938462 L19.657,4.36738462 L19.657,3.23384615 L19.657,3.23384615 Z M19.9570556,3.05784615 L19.9570556,3.06646154 L19.9570556,4.19938462 L20.0487222,4.14892308 L20.7154444,3.75446154 L20.7154444,2.63815385 C20.7154444,2.63261538 20.7123889,2.62953846 20.7068889,2.62953846 L19.9570556,3.05784615 Z" id="Shape" fill="#C6C5C5"></path>
                        </g>
                    </g>
                </g>
                <path d="M14.9196667,15.5698462 C15.0486111,15.7501538 15.1903889,15.8621538 15.4012222,15.9323077 C15.7752222,16.0572308 15.9359444,15.4633846 15.5637778,15.3390769 C15.5142778,15.328 15.4757778,15.3015385 15.4476667,15.2590769 C15.2197222,14.9403077 14.6892778,15.2473846 14.9196667,15.5698462 L14.9196667,15.5698462 Z" id="Shape" fill="#56AB46"></path>
            </g>
            <g id="onion-copy" transform="translate(130.000000, 68.000000)">
                <g id="Group" transform="translate(0.275000, 0.276923)">
                    <g id="people_0_Layer11_6_FILL">
                        <g>
                            <path d="M1.01138889,9.43692308 L1.01138889,10.5532308 C1.15011111,10.7772308 1.31144444,10.9926154 1.49477778,11.1993846 L1.49477778,10.0830769 C1.31144444,9.87015385 1.15011111,9.65476923 1.01138889,9.43692308 L1.01138889,9.43692308 Z M3.80355556,11.896 C3.79255556,11.8904615 3.784,11.8849231 3.7785,11.8793846 C3.52855556,11.7341538 3.29205556,11.5883077 3.07022222,11.4430769 L3.07022222,12.5593846 C3.29266667,12.7046154 3.52855556,12.8504615 3.7785,12.9956923 C3.784,13.0012308 3.79255556,13.0067692 3.80355556,13.0123077 L3.80355556,11.896 L3.80355556,11.896 Z M4.38716667,12.2067692 C4.35355556,12.1901538 4.32055556,12.1729231 4.28694444,12.1563077 L4.28694444,13.2726154 C4.32055556,13.2892308 4.35355556,13.3064615 4.38716667,13.3230769 L4.38716667,12.2067692 L4.38716667,12.2067692 Z M2.61983333,11.1236923 C2.35888889,10.928 2.12238889,10.7261538 1.91155556,10.5193846 L1.91155556,11.6356923 C2.123,11.8424615 2.35888889,12.0443077 2.61983333,12.24 L2.61983333,11.1236923 L2.61983333,11.1236923 Z M0.336111111,7.25476923 L0.336111111,8.16123077 C0.336111111,8.17230769 0.336111111,8.18646154 0.336111111,8.20307692 C0.330611111,8.78523077 0.436333333,9.34461538 0.652666667,9.88184615 L0.669166667,8.79938462 C0.519444444,8.44123077 0.419222222,8.07446154 0.369111111,7.69969231 C0.353222222,7.54830769 0.341611111,7.4 0.336111111,7.25476923 Z" id="Shape" fill="#815F83"></path>
                            <path d="M0.653277778,9.88184615 C0.7535,10.1058462 0.872666667,10.3292308 1.01138889,10.5532308 L1.01138889,9.43692308 C0.878166667,9.224 0.763888889,9.01169231 0.669777778,8.79938462 L0.653277778,9.88184615 L0.653277778,9.88184615 Z M4.28694444,12.1563077 C4.12561111,12.0726154 3.96488889,11.9858462 3.80355556,11.896 L3.80355556,13.0123077 C3.96488889,13.1021538 4.12561111,13.1883077 4.28694444,13.2726154 L4.28694444,12.1563077 L4.28694444,12.1563077 Z M1.91155556,11.6356923 L1.91155556,10.5193846 C1.76183333,10.3796923 1.6225,10.2338462 1.49477778,10.0830769 L1.49477778,11.1993846 C1.6225,11.3501538 1.76183333,11.496 1.91155556,11.6356923 L1.91155556,11.6356923 Z M2.61983333,11.1236923 L2.61983333,12.24 C2.76466667,12.3464615 2.91438889,12.4529231 3.07022222,12.5587692 L3.07022222,11.4424615 C2.91438889,11.3366154 2.76466667,11.2301538 2.61983333,11.1236923 Z" id="Shape" fill="#937596"></path>
                            <path d="M5.929,12.4584615 L5.85383333,12.5003077 L5.86238889,12.5003077 L6.02922222,12.408 L5.929,12.4584615 L5.929,12.4584615 Z M19.9485,3.06646154 L19.9570556,3.06646154 L19.9570556,3.05784615 L20.7075,2.62953846 C20.6573889,2.60123077 20.6072778,2.57353846 20.5571667,2.54584615 C18.3009444,1.28676923 15.5698889,0.657230769 12.364,0.657230769 C9.15261111,0.651692308 6.4075,1.27569231 4.12927778,2.52923077 C2.0955,3.64307692 0.959444444,4.96307692 0.7205,6.49107692 C0.681388889,6.68676923 0.662444444,6.88307692 0.662444444,7.07876923 C0.640444444,8.864 1.76,10.3858462 4.02111111,11.6449231 C4.26005556,11.7790769 4.5045,11.9052308 4.75444444,12.0227692 L4.763,12.0313846 L4.763,12.0147692 L5.555,11.6116923 L5.5715,11.6030769 C5.566,11.5975385 5.5605,11.5944615 5.555,11.5944615 C5.5385,11.5833846 5.52138889,11.5747692 5.50488889,11.5692308 C5.18833333,11.4295385 4.88277778,11.2812308 4.58822222,11.1243077 C4.27716667,10.9618462 3.99361111,10.7944615 3.73816667,10.6209231 C2.21038889,9.608 1.45444444,8.42769231 1.47094444,7.07876923 C1.48744444,5.512 2.5575,4.17169231 4.67988889,3.05846154 C5.13577778,2.81784615 5.61061111,2.608 6.105,2.42892308 C7.91633333,1.74092308 10.0002222,1.39630769 12.3560556,1.39630769 C14.5896667,1.39630769 16.5763889,1.71261538 18.3156111,2.34461538 C18.887,2.54584615 19.4315,2.78646154 19.9485,3.06646154 Z" id="Shape" fill="#EFEEEE"></path>
                            <path d="M4.76238889,12.0135385 L4.76238889,12.0301538 L4.76238889,13.1378462 L5.55438889,12.6763077 L5.55438889,11.6104615 L4.76238889,12.0135385 L4.76238889,12.0135385 Z M5.929,11.4092308 L5.929,11.4258462 L5.929,12.4584615 L6.02922222,12.408 L6.92083333,11.8793846 L6.92083333,10.9058462 L5.929,11.4092308 Z" id="Shape" fill="#CFD0D0"></path>
                            <path d="M4.75383333,12.0215385 L4.38716667,12.2061538 L4.38716667,13.3224615 C4.39816667,13.328 4.40916667,13.3335385 4.42077778,13.3390769 L4.76238889,13.1378462 L4.76238889,12.0301538 L4.75383333,12.0215385 Z" id="Shape" fill="#736077"></path>
                            <polygon id="Shape" fill="#957C99" points="5.92044444 11.4172308 5.57027778 11.6018462 5.55377778 11.6104615 5.55377778 12.6763077 5.85383333 12.5003077 5.929 12.4584615 5.929 11.4258462"></polygon>
                            <path d="M19.8403333,4.26646154 L19.8488889,4.26646154 L20.0487222,4.14892308 L19.9570556,4.19938462 L19.8403333,4.26646154 L19.8403333,4.26646154 Z M18.7733333,3.72923077 L19.657,3.23384615 C17.6342222,2.21538462 15.2007778,1.70646154 12.3554444,1.70646154 C9.438,1.70646154 6.94588889,2.22953846 4.87911111,3.27630769 C2.81233333,4.328 1.76733333,5.59569231 1.74533333,7.07815385 C1.73433333,8.01292308 2.123,8.86030769 2.91194444,9.62153846 C3.38983333,10.0806154 4.01194444,10.5083077 4.77888889,10.9058462 C5.02333333,11.0344615 5.27633333,11.1550769 5.53727778,11.2664615 C5.6595,11.3169231 5.78722222,11.3673846 5.92044444,11.4172308 L5.929,11.4258462 L5.929,11.4092308 L6.92083333,10.9058462 C6.47655556,10.76 6.05122222,10.5981538 5.64544444,10.4190769 C5.56783333,10.3852308 5.48961111,10.3489231 5.412,10.3101538 C3.90622222,9.59938462 3.01155556,8.76553846 2.728,7.80923077 C2.7115,7.74215385 2.69438889,7.68061538 2.67788889,7.62461538 C2.65038889,7.45107692 2.63633333,7.27507692 2.63633333,7.096 C2.65283333,5.83692308 3.60861111,4.76553846 5.50366667,3.88123077 C7.39261111,3.00307692 9.67388889,2.56369231 12.3468889,2.56369231 C14.8310556,2.56246154 16.973,2.95138462 18.7733333,3.72923077 Z" id="Shape" fill="#F1F0F0"></path>
                            <path d="M19.8403333,4.26646154 L19.657,4.36738462 L18.7733333,4.87938462 L18.7733333,3.72923077 C16.973,2.95138462 14.8310556,2.56246154 12.3468889,2.56246154 C9.67388889,2.56246154 7.39322222,3.00184615 5.50366667,3.88 C3.60861111,4.76430769 2.65283333,5.83569231 2.63633333,7.09476923 C2.63633333,7.27384615 2.65038889,7.44984615 2.67788889,7.62338462 C3.10566667,6.58830769 4.04738889,5.72923077 5.50366667,5.04676923 C7.39261111,4.16861538 9.67388889,3.72923077 12.3468889,3.72923077 C14.8194444,3.72923077 16.9589444,4.11507692 18.7647778,4.88738462 L18.7733333,4.896 L18.7818889,4.896 L19.8488889,4.26646154 L19.8403333,4.26646154 L19.8403333,4.26646154 Z" id="Shape" fill="#DFDFDE"></path>
                            <path d="M20.7154444,3.75446154 L21.0240556,3.57846154 L21.0240556,2.45353846 L20.7154444,2.62953846 L20.7154444,2.63815385 L20.7154444,3.75446154 L20.7154444,3.75446154 Z M19.9570556,3.06646154 L19.9485,3.06646154 L19.657,3.23446154 L19.657,4.36738462 L19.8403333,4.26646154 L19.9570556,4.19938462 L19.9570556,3.06646154 Z" id="Shape" fill="#977A9B"></path>
                            <path d="M20.5571667,2.54584615 C20.6072778,2.57415385 20.6573889,2.60184615 20.7075,2.62953846 C20.713,2.62953846 20.7154444,2.63261538 20.7160556,2.63815385 L20.7160556,2.62953846 L21.0246667,2.45353846 C20.9470556,2.40861538 20.8688333,2.36369231 20.7912222,2.31938462 C18.4683889,0.998769231 15.6597222,0.338461538 12.3646111,0.338461538 C9.0585,0.332923077 6.23272222,0.987692308 3.88788889,2.30215385 C1.54305556,3.61661538 0.359333333,5.21169231 0.337333333,7.08615385 C0.337333333,7.09169231 0.337333333,7.09723077 0.337333333,7.10276923 L0.337333333,7.25353846 C0.342833333,7.39876923 0.353833333,7.54707692 0.370944444,7.69846154 C0.421055556,8.07323077 0.521277778,8.44 0.671,8.79815385 C0.765722222,9.01046154 0.879388889,9.22338462 1.01261111,9.43569231 C1.15133333,9.65415385 1.31266667,9.86953846 1.496,10.0818462 C1.62372222,10.2326154 1.76244444,10.3784615 1.91277778,10.5181538 C2.12422222,10.7249231 2.36011111,10.9267692 2.62105556,11.1224615 C2.76588889,11.2289231 2.91561111,11.3347692 3.07144444,11.4412308 C3.29388889,11.5864615 3.52977778,11.7323077 3.77972222,11.8775385 C3.78522222,11.8830769 3.79377778,11.8886154 3.80477778,11.8941538 C3.96611111,11.9833846 4.12683333,12.0701538 4.28816667,12.1544615 C4.32177778,12.1710769 4.35477778,12.1883077 4.38838889,12.2049231 L4.75505556,12.0203077 C4.50511111,11.9027692 4.26066667,11.7772308 4.02172222,11.6424615 C1.76,10.3833846 0.640444444,8.86153846 0.663055556,7.07630769 C0.663055556,6.88061538 0.682611111,6.68430769 0.721111111,6.48861538 C0.960055556,4.96123077 2.09611111,3.64061538 4.12988889,2.52676923 C6.40811111,1.27323077 9.15322222,0.649230769 12.3646111,0.654769231 C15.5698889,0.657230769 18.3009444,1.28676923 20.5571667,2.54584615 Z" id="Shape" fill="#C19BC7"></path>
                            <path d="M19.657,3.23384615 L19.9485,3.06584615 C19.4315,2.78584615 18.887,2.54523077 18.315,2.344 C16.5757778,1.712 14.5890556,1.39569231 12.3554444,1.39569231 C9.99961111,1.39569231 7.91572222,1.73969231 6.10438889,2.42830769 C5.61,2.60738462 5.13455556,2.81723077 4.67927778,3.05784615 C2.55688889,4.17107692 1.48683333,5.51138462 1.47033333,7.07815385 C1.45383333,8.42646154 2.20916667,9.60738462 3.73755556,10.6203077 C3.993,10.7938462 4.27655556,10.9618462 4.58761111,11.1236923 C4.88216667,11.2806154 5.18772222,11.4289231 5.50427778,11.5686154 C5.52077778,11.5741538 5.53788889,11.5827692 5.55438889,11.5938462 C5.55988889,11.5938462 5.56538889,11.5963077 5.57088889,11.6024615 L5.92105556,11.4178462 C5.78783333,11.3673846 5.66011111,11.3169231 5.53788889,11.2670769 C5.27694444,11.1550769 5.02394444,11.0350769 4.7795,10.9064615 C4.01255556,10.5089231 3.39044444,10.0812308 2.91255556,9.62215385 C2.12361111,8.86092308 1.73433333,8.01353846 1.74594444,7.07876923 C1.76794444,5.59569231 2.81294444,4.32861538 4.87972222,3.27692308 C6.94711111,2.23076923 9.43922222,1.70707692 12.3560556,1.70707692 C15.2001667,1.70646154 17.6342222,2.216 19.657,3.23384615 Z" id="Shape" fill="#B394B7"></path>
                            <path d="M19.657,3.23384615 L18.7733333,3.72923077 L18.7733333,4.87938462 L19.657,4.36738462 L19.657,3.23384615 L19.657,3.23384615 Z M19.9570556,3.05784615 L19.9570556,3.06646154 L19.9570556,4.19938462 L20.0487222,4.14892308 L20.7154444,3.75446154 L20.7154444,2.63815385 C20.7154444,2.63261538 20.7123889,2.62953846 20.7068889,2.62953846 L19.9570556,3.05784615 Z" id="Shape" fill="#C6C5C5"></path>
                        </g>
                    </g>
                </g>
                <path d="M14.9196667,15.5698462 C15.0486111,15.7501538 15.1903889,15.8621538 15.4012222,15.9323077 C15.7752222,16.0572308 15.9359444,15.4633846 15.5637778,15.3390769 C15.5142778,15.328 15.4757778,15.3015385 15.4476667,15.2590769 C15.2197222,14.9403077 14.6892778,15.2473846 14.9196667,15.5698462 L14.9196667,15.5698462 Z" id="Shape" fill="#56AB46"></path>
            </g>
            <g id="onion-copy-2" transform="translate(149.000000, 55.000000)">
                <g id="Group" transform="translate(0.275000, 0.276923)">
                    <g id="people_0_Layer11_6_FILL">
                        <g>
                            <path d="M1.01138889,9.43692308 L1.01138889,10.5532308 C1.15011111,10.7772308 1.31144444,10.9926154 1.49477778,11.1993846 L1.49477778,10.0830769 C1.31144444,9.87015385 1.15011111,9.65476923 1.01138889,9.43692308 L1.01138889,9.43692308 Z M3.80355556,11.896 C3.79255556,11.8904615 3.784,11.8849231 3.7785,11.8793846 C3.52855556,11.7341538 3.29205556,11.5883077 3.07022222,11.4430769 L3.07022222,12.5593846 C3.29266667,12.7046154 3.52855556,12.8504615 3.7785,12.9956923 C3.784,13.0012308 3.79255556,13.0067692 3.80355556,13.0123077 L3.80355556,11.896 L3.80355556,11.896 Z M4.38716667,12.2067692 C4.35355556,12.1901538 4.32055556,12.1729231 4.28694444,12.1563077 L4.28694444,13.2726154 C4.32055556,13.2892308 4.35355556,13.3064615 4.38716667,13.3230769 L4.38716667,12.2067692 L4.38716667,12.2067692 Z M2.61983333,11.1236923 C2.35888889,10.928 2.12238889,10.7261538 1.91155556,10.5193846 L1.91155556,11.6356923 C2.123,11.8424615 2.35888889,12.0443077 2.61983333,12.24 L2.61983333,11.1236923 L2.61983333,11.1236923 Z M0.336111111,7.25476923 L0.336111111,8.16123077 C0.336111111,8.17230769 0.336111111,8.18646154 0.336111111,8.20307692 C0.330611111,8.78523077 0.436333333,9.34461538 0.652666667,9.88184615 L0.669166667,8.79938462 C0.519444444,8.44123077 0.419222222,8.07446154 0.369111111,7.69969231 C0.353222222,7.54830769 0.341611111,7.4 0.336111111,7.25476923 Z" id="Shape" fill="#815F83"></path>
                            <path d="M0.653277778,9.88184615 C0.7535,10.1058462 0.872666667,10.3292308 1.01138889,10.5532308 L1.01138889,9.43692308 C0.878166667,9.224 0.763888889,9.01169231 0.669777778,8.79938462 L0.653277778,9.88184615 L0.653277778,9.88184615 Z M4.28694444,12.1563077 C4.12561111,12.0726154 3.96488889,11.9858462 3.80355556,11.896 L3.80355556,13.0123077 C3.96488889,13.1021538 4.12561111,13.1883077 4.28694444,13.2726154 L4.28694444,12.1563077 L4.28694444,12.1563077 Z M1.91155556,11.6356923 L1.91155556,10.5193846 C1.76183333,10.3796923 1.6225,10.2338462 1.49477778,10.0830769 L1.49477778,11.1993846 C1.6225,11.3501538 1.76183333,11.496 1.91155556,11.6356923 L1.91155556,11.6356923 Z M2.61983333,11.1236923 L2.61983333,12.24 C2.76466667,12.3464615 2.91438889,12.4529231 3.07022222,12.5587692 L3.07022222,11.4424615 C2.91438889,11.3366154 2.76466667,11.2301538 2.61983333,11.1236923 Z" id="Shape" fill="#937596"></path>
                            <path d="M5.929,12.4584615 L5.85383333,12.5003077 L5.86238889,12.5003077 L6.02922222,12.408 L5.929,12.4584615 L5.929,12.4584615 Z M19.9485,3.06646154 L19.9570556,3.06646154 L19.9570556,3.05784615 L20.7075,2.62953846 C20.6573889,2.60123077 20.6072778,2.57353846 20.5571667,2.54584615 C18.3009444,1.28676923 15.5698889,0.657230769 12.364,0.657230769 C9.15261111,0.651692308 6.4075,1.27569231 4.12927778,2.52923077 C2.0955,3.64307692 0.959444444,4.96307692 0.7205,6.49107692 C0.681388889,6.68676923 0.662444444,6.88307692 0.662444444,7.07876923 C0.640444444,8.864 1.76,10.3858462 4.02111111,11.6449231 C4.26005556,11.7790769 4.5045,11.9052308 4.75444444,12.0227692 L4.763,12.0313846 L4.763,12.0147692 L5.555,11.6116923 L5.5715,11.6030769 C5.566,11.5975385 5.5605,11.5944615 5.555,11.5944615 C5.5385,11.5833846 5.52138889,11.5747692 5.50488889,11.5692308 C5.18833333,11.4295385 4.88277778,11.2812308 4.58822222,11.1243077 C4.27716667,10.9618462 3.99361111,10.7944615 3.73816667,10.6209231 C2.21038889,9.608 1.45444444,8.42769231 1.47094444,7.07876923 C1.48744444,5.512 2.5575,4.17169231 4.67988889,3.05846154 C5.13577778,2.81784615 5.61061111,2.608 6.105,2.42892308 C7.91633333,1.74092308 10.0002222,1.39630769 12.3560556,1.39630769 C14.5896667,1.39630769 16.5763889,1.71261538 18.3156111,2.34461538 C18.887,2.54584615 19.4315,2.78646154 19.9485,3.06646154 Z" id="Shape" fill="#EFEEEE"></path>
                            <path d="M4.76238889,12.0135385 L4.76238889,12.0301538 L4.76238889,13.1378462 L5.55438889,12.6763077 L5.55438889,11.6104615 L4.76238889,12.0135385 L4.76238889,12.0135385 Z M5.929,11.4092308 L5.929,11.4258462 L5.929,12.4584615 L6.02922222,12.408 L6.92083333,11.8793846 L6.92083333,10.9058462 L5.929,11.4092308 Z" id="Shape" fill="#CFD0D0"></path>
                            <path d="M4.75383333,12.0215385 L4.38716667,12.2061538 L4.38716667,13.3224615 C4.39816667,13.328 4.40916667,13.3335385 4.42077778,13.3390769 L4.76238889,13.1378462 L4.76238889,12.0301538 L4.75383333,12.0215385 Z" id="Shape" fill="#736077"></path>
                            <polygon id="Shape" fill="#957C99" points="5.92044444 11.4172308 5.57027778 11.6018462 5.55377778 11.6104615 5.55377778 12.6763077 5.85383333 12.5003077 5.929 12.4584615 5.929 11.4258462"></polygon>
                            <path d="M19.8403333,4.26646154 L19.8488889,4.26646154 L20.0487222,4.14892308 L19.9570556,4.19938462 L19.8403333,4.26646154 L19.8403333,4.26646154 Z M18.7733333,3.72923077 L19.657,3.23384615 C17.6342222,2.21538462 15.2007778,1.70646154 12.3554444,1.70646154 C9.438,1.70646154 6.94588889,2.22953846 4.87911111,3.27630769 C2.81233333,4.328 1.76733333,5.59569231 1.74533333,7.07815385 C1.73433333,8.01292308 2.123,8.86030769 2.91194444,9.62153846 C3.38983333,10.0806154 4.01194444,10.5083077 4.77888889,10.9058462 C5.02333333,11.0344615 5.27633333,11.1550769 5.53727778,11.2664615 C5.6595,11.3169231 5.78722222,11.3673846 5.92044444,11.4172308 L5.929,11.4258462 L5.929,11.4092308 L6.92083333,10.9058462 C6.47655556,10.76 6.05122222,10.5981538 5.64544444,10.4190769 C5.56783333,10.3852308 5.48961111,10.3489231 5.412,10.3101538 C3.90622222,9.59938462 3.01155556,8.76553846 2.728,7.80923077 C2.7115,7.74215385 2.69438889,7.68061538 2.67788889,7.62461538 C2.65038889,7.45107692 2.63633333,7.27507692 2.63633333,7.096 C2.65283333,5.83692308 3.60861111,4.76553846 5.50366667,3.88123077 C7.39261111,3.00307692 9.67388889,2.56369231 12.3468889,2.56369231 C14.8310556,2.56246154 16.973,2.95138462 18.7733333,3.72923077 Z" id="Shape" fill="#F1F0F0"></path>
                            <path d="M19.8403333,4.26646154 L19.657,4.36738462 L18.7733333,4.87938462 L18.7733333,3.72923077 C16.973,2.95138462 14.8310556,2.56246154 12.3468889,2.56246154 C9.67388889,2.56246154 7.39322222,3.00184615 5.50366667,3.88 C3.60861111,4.76430769 2.65283333,5.83569231 2.63633333,7.09476923 C2.63633333,7.27384615 2.65038889,7.44984615 2.67788889,7.62338462 C3.10566667,6.58830769 4.04738889,5.72923077 5.50366667,5.04676923 C7.39261111,4.16861538 9.67388889,3.72923077 12.3468889,3.72923077 C14.8194444,3.72923077 16.9589444,4.11507692 18.7647778,4.88738462 L18.7733333,4.896 L18.7818889,4.896 L19.8488889,4.26646154 L19.8403333,4.26646154 L19.8403333,4.26646154 Z" id="Shape" fill="#DFDFDE"></path>
                            <path d="M20.7154444,3.75446154 L21.0240556,3.57846154 L21.0240556,2.45353846 L20.7154444,2.62953846 L20.7154444,2.63815385 L20.7154444,3.75446154 L20.7154444,3.75446154 Z M19.9570556,3.06646154 L19.9485,3.06646154 L19.657,3.23446154 L19.657,4.36738462 L19.8403333,4.26646154 L19.9570556,4.19938462 L19.9570556,3.06646154 Z" id="Shape" fill="#977A9B"></path>
                            <path d="M20.5571667,2.54584615 C20.6072778,2.57415385 20.6573889,2.60184615 20.7075,2.62953846 C20.713,2.62953846 20.7154444,2.63261538 20.7160556,2.63815385 L20.7160556,2.62953846 L21.0246667,2.45353846 C20.9470556,2.40861538 20.8688333,2.36369231 20.7912222,2.31938462 C18.4683889,0.998769231 15.6597222,0.338461538 12.3646111,0.338461538 C9.0585,0.332923077 6.23272222,0.987692308 3.88788889,2.30215385 C1.54305556,3.61661538 0.359333333,5.21169231 0.337333333,7.08615385 C0.337333333,7.09169231 0.337333333,7.09723077 0.337333333,7.10276923 L0.337333333,7.25353846 C0.342833333,7.39876923 0.353833333,7.54707692 0.370944444,7.69846154 C0.421055556,8.07323077 0.521277778,8.44 0.671,8.79815385 C0.765722222,9.01046154 0.879388889,9.22338462 1.01261111,9.43569231 C1.15133333,9.65415385 1.31266667,9.86953846 1.496,10.0818462 C1.62372222,10.2326154 1.76244444,10.3784615 1.91277778,10.5181538 C2.12422222,10.7249231 2.36011111,10.9267692 2.62105556,11.1224615 C2.76588889,11.2289231 2.91561111,11.3347692 3.07144444,11.4412308 C3.29388889,11.5864615 3.52977778,11.7323077 3.77972222,11.8775385 C3.78522222,11.8830769 3.79377778,11.8886154 3.80477778,11.8941538 C3.96611111,11.9833846 4.12683333,12.0701538 4.28816667,12.1544615 C4.32177778,12.1710769 4.35477778,12.1883077 4.38838889,12.2049231 L4.75505556,12.0203077 C4.50511111,11.9027692 4.26066667,11.7772308 4.02172222,11.6424615 C1.76,10.3833846 0.640444444,8.86153846 0.663055556,7.07630769 C0.663055556,6.88061538 0.682611111,6.68430769 0.721111111,6.48861538 C0.960055556,4.96123077 2.09611111,3.64061538 4.12988889,2.52676923 C6.40811111,1.27323077 9.15322222,0.649230769 12.3646111,0.654769231 C15.5698889,0.657230769 18.3009444,1.28676923 20.5571667,2.54584615 Z" id="Shape" fill="#C19BC7"></path>
                            <path d="M19.657,3.23384615 L19.9485,3.06584615 C19.4315,2.78584615 18.887,2.54523077 18.315,2.344 C16.5757778,1.712 14.5890556,1.39569231 12.3554444,1.39569231 C9.99961111,1.39569231 7.91572222,1.73969231 6.10438889,2.42830769 C5.61,2.60738462 5.13455556,2.81723077 4.67927778,3.05784615 C2.55688889,4.17107692 1.48683333,5.51138462 1.47033333,7.07815385 C1.45383333,8.42646154 2.20916667,9.60738462 3.73755556,10.6203077 C3.993,10.7938462 4.27655556,10.9618462 4.58761111,11.1236923 C4.88216667,11.2806154 5.18772222,11.4289231 5.50427778,11.5686154 C5.52077778,11.5741538 5.53788889,11.5827692 5.55438889,11.5938462 C5.55988889,11.5938462 5.56538889,11.5963077 5.57088889,11.6024615 L5.92105556,11.4178462 C5.78783333,11.3673846 5.66011111,11.3169231 5.53788889,11.2670769 C5.27694444,11.1550769 5.02394444,11.0350769 4.7795,10.9064615 C4.01255556,10.5089231 3.39044444,10.0812308 2.91255556,9.62215385 C2.12361111,8.86092308 1.73433333,8.01353846 1.74594444,7.07876923 C1.76794444,5.59569231 2.81294444,4.32861538 4.87972222,3.27692308 C6.94711111,2.23076923 9.43922222,1.70707692 12.3560556,1.70707692 C15.2001667,1.70646154 17.6342222,2.216 19.657,3.23384615 Z" id="Shape" fill="#B394B7"></path>
                            <path d="M19.657,3.23384615 L18.7733333,3.72923077 L18.7733333,4.87938462 L19.657,4.36738462 L19.657,3.23384615 L19.657,3.23384615 Z M19.9570556,3.05784615 L19.9570556,3.06646154 L19.9570556,4.19938462 L20.0487222,4.14892308 L20.7154444,3.75446154 L20.7154444,2.63815385 C20.7154444,2.63261538 20.7123889,2.62953846 20.7068889,2.62953846 L19.9570556,3.05784615 Z" id="Shape" fill="#C6C5C5"></path>
                        </g>
                    </g>
                </g>
                <path d="M14.9196667,15.5698462 C15.0486111,15.7501538 15.1903889,15.8621538 15.4012222,15.9323077 C15.7752222,16.0572308 15.9359444,15.4633846 15.5637778,15.3390769 C15.5142778,15.328 15.4757778,15.3015385 15.4476667,15.2590769 C15.2197222,14.9403077 14.6892778,15.2473846 14.9196667,15.5698462 L14.9196667,15.5698462 Z" id="Shape" fill="#56AB46"></path>
            </g>
            <g id="onion-copy-3" transform="translate(113.000000, 46.000000)">
                <g id="Group" transform="translate(0.275000, 0.276923)">
                    <g id="people_0_Layer11_6_FILL">
                        <g>
                            <path d="M1.01138889,9.43692308 L1.01138889,10.5532308 C1.15011111,10.7772308 1.31144444,10.9926154 1.49477778,11.1993846 L1.49477778,10.0830769 C1.31144444,9.87015385 1.15011111,9.65476923 1.01138889,9.43692308 L1.01138889,9.43692308 Z M3.80355556,11.896 C3.79255556,11.8904615 3.784,11.8849231 3.7785,11.8793846 C3.52855556,11.7341538 3.29205556,11.5883077 3.07022222,11.4430769 L3.07022222,12.5593846 C3.29266667,12.7046154 3.52855556,12.8504615 3.7785,12.9956923 C3.784,13.0012308 3.79255556,13.0067692 3.80355556,13.0123077 L3.80355556,11.896 L3.80355556,11.896 Z M4.38716667,12.2067692 C4.35355556,12.1901538 4.32055556,12.1729231 4.28694444,12.1563077 L4.28694444,13.2726154 C4.32055556,13.2892308 4.35355556,13.3064615 4.38716667,13.3230769 L4.38716667,12.2067692 L4.38716667,12.2067692 Z M2.61983333,11.1236923 C2.35888889,10.928 2.12238889,10.7261538 1.91155556,10.5193846 L1.91155556,11.6356923 C2.123,11.8424615 2.35888889,12.0443077 2.61983333,12.24 L2.61983333,11.1236923 L2.61983333,11.1236923 Z M0.336111111,7.25476923 L0.336111111,8.16123077 C0.336111111,8.17230769 0.336111111,8.18646154 0.336111111,8.20307692 C0.330611111,8.78523077 0.436333333,9.34461538 0.652666667,9.88184615 L0.669166667,8.79938462 C0.519444444,8.44123077 0.419222222,8.07446154 0.369111111,7.69969231 C0.353222222,7.54830769 0.341611111,7.4 0.336111111,7.25476923 Z" id="Shape" fill="#815F83"></path>
                            <path d="M0.653277778,9.88184615 C0.7535,10.1058462 0.872666667,10.3292308 1.01138889,10.5532308 L1.01138889,9.43692308 C0.878166667,9.224 0.763888889,9.01169231 0.669777778,8.79938462 L0.653277778,9.88184615 L0.653277778,9.88184615 Z M4.28694444,12.1563077 C4.12561111,12.0726154 3.96488889,11.9858462 3.80355556,11.896 L3.80355556,13.0123077 C3.96488889,13.1021538 4.12561111,13.1883077 4.28694444,13.2726154 L4.28694444,12.1563077 L4.28694444,12.1563077 Z M1.91155556,11.6356923 L1.91155556,10.5193846 C1.76183333,10.3796923 1.6225,10.2338462 1.49477778,10.0830769 L1.49477778,11.1993846 C1.6225,11.3501538 1.76183333,11.496 1.91155556,11.6356923 L1.91155556,11.6356923 Z M2.61983333,11.1236923 L2.61983333,12.24 C2.76466667,12.3464615 2.91438889,12.4529231 3.07022222,12.5587692 L3.07022222,11.4424615 C2.91438889,11.3366154 2.76466667,11.2301538 2.61983333,11.1236923 Z" id="Shape" fill="#937596"></path>
                            <path d="M5.929,12.4584615 L5.85383333,12.5003077 L5.86238889,12.5003077 L6.02922222,12.408 L5.929,12.4584615 L5.929,12.4584615 Z M19.9485,3.06646154 L19.9570556,3.06646154 L19.9570556,3.05784615 L20.7075,2.62953846 C20.6573889,2.60123077 20.6072778,2.57353846 20.5571667,2.54584615 C18.3009444,1.28676923 15.5698889,0.657230769 12.364,0.657230769 C9.15261111,0.651692308 6.4075,1.27569231 4.12927778,2.52923077 C2.0955,3.64307692 0.959444444,4.96307692 0.7205,6.49107692 C0.681388889,6.68676923 0.662444444,6.88307692 0.662444444,7.07876923 C0.640444444,8.864 1.76,10.3858462 4.02111111,11.6449231 C4.26005556,11.7790769 4.5045,11.9052308 4.75444444,12.0227692 L4.763,12.0313846 L4.763,12.0147692 L5.555,11.6116923 L5.5715,11.6030769 C5.566,11.5975385 5.5605,11.5944615 5.555,11.5944615 C5.5385,11.5833846 5.52138889,11.5747692 5.50488889,11.5692308 C5.18833333,11.4295385 4.88277778,11.2812308 4.58822222,11.1243077 C4.27716667,10.9618462 3.99361111,10.7944615 3.73816667,10.6209231 C2.21038889,9.608 1.45444444,8.42769231 1.47094444,7.07876923 C1.48744444,5.512 2.5575,4.17169231 4.67988889,3.05846154 C5.13577778,2.81784615 5.61061111,2.608 6.105,2.42892308 C7.91633333,1.74092308 10.0002222,1.39630769 12.3560556,1.39630769 C14.5896667,1.39630769 16.5763889,1.71261538 18.3156111,2.34461538 C18.887,2.54584615 19.4315,2.78646154 19.9485,3.06646154 Z" id="Shape" fill="#EFEEEE"></path>
                            <path d="M4.76238889,12.0135385 L4.76238889,12.0301538 L4.76238889,13.1378462 L5.55438889,12.6763077 L5.55438889,11.6104615 L4.76238889,12.0135385 L4.76238889,12.0135385 Z M5.929,11.4092308 L5.929,11.4258462 L5.929,12.4584615 L6.02922222,12.408 L6.92083333,11.8793846 L6.92083333,10.9058462 L5.929,11.4092308 Z" id="Shape" fill="#CFD0D0"></path>
                            <path d="M4.75383333,12.0215385 L4.38716667,12.2061538 L4.38716667,13.3224615 C4.39816667,13.328 4.40916667,13.3335385 4.42077778,13.3390769 L4.76238889,13.1378462 L4.76238889,12.0301538 L4.75383333,12.0215385 Z" id="Shape" fill="#736077"></path>
                            <polygon id="Shape" fill="#957C99" points="5.92044444 11.4172308 5.57027778 11.6018462 5.55377778 11.6104615 5.55377778 12.6763077 5.85383333 12.5003077 5.929 12.4584615 5.929 11.4258462"></polygon>
                            <path d="M19.8403333,4.26646154 L19.8488889,4.26646154 L20.0487222,4.14892308 L19.9570556,4.19938462 L19.8403333,4.26646154 L19.8403333,4.26646154 Z M18.7733333,3.72923077 L19.657,3.23384615 C17.6342222,2.21538462 15.2007778,1.70646154 12.3554444,1.70646154 C9.438,1.70646154 6.94588889,2.22953846 4.87911111,3.27630769 C2.81233333,4.328 1.76733333,5.59569231 1.74533333,7.07815385 C1.73433333,8.01292308 2.123,8.86030769 2.91194444,9.62153846 C3.38983333,10.0806154 4.01194444,10.5083077 4.77888889,10.9058462 C5.02333333,11.0344615 5.27633333,11.1550769 5.53727778,11.2664615 C5.6595,11.3169231 5.78722222,11.3673846 5.92044444,11.4172308 L5.929,11.4258462 L5.929,11.4092308 L6.92083333,10.9058462 C6.47655556,10.76 6.05122222,10.5981538 5.64544444,10.4190769 C5.56783333,10.3852308 5.48961111,10.3489231 5.412,10.3101538 C3.90622222,9.59938462 3.01155556,8.76553846 2.728,7.80923077 C2.7115,7.74215385 2.69438889,7.68061538 2.67788889,7.62461538 C2.65038889,7.45107692 2.63633333,7.27507692 2.63633333,7.096 C2.65283333,5.83692308 3.60861111,4.76553846 5.50366667,3.88123077 C7.39261111,3.00307692 9.67388889,2.56369231 12.3468889,2.56369231 C14.8310556,2.56246154 16.973,2.95138462 18.7733333,3.72923077 Z" id="Shape" fill="#F1F0F0"></path>
                            <path d="M19.8403333,4.26646154 L19.657,4.36738462 L18.7733333,4.87938462 L18.7733333,3.72923077 C16.973,2.95138462 14.8310556,2.56246154 12.3468889,2.56246154 C9.67388889,2.56246154 7.39322222,3.00184615 5.50366667,3.88 C3.60861111,4.76430769 2.65283333,5.83569231 2.63633333,7.09476923 C2.63633333,7.27384615 2.65038889,7.44984615 2.67788889,7.62338462 C3.10566667,6.58830769 4.04738889,5.72923077 5.50366667,5.04676923 C7.39261111,4.16861538 9.67388889,3.72923077 12.3468889,3.72923077 C14.8194444,3.72923077 16.9589444,4.11507692 18.7647778,4.88738462 L18.7733333,4.896 L18.7818889,4.896 L19.8488889,4.26646154 L19.8403333,4.26646154 L19.8403333,4.26646154 Z" id="Shape" fill="#DFDFDE"></path>
                            <path d="M20.7154444,3.75446154 L21.0240556,3.57846154 L21.0240556,2.45353846 L20.7154444,2.62953846 L20.7154444,2.63815385 L20.7154444,3.75446154 L20.7154444,3.75446154 Z M19.9570556,3.06646154 L19.9485,3.06646154 L19.657,3.23446154 L19.657,4.36738462 L19.8403333,4.26646154 L19.9570556,4.19938462 L19.9570556,3.06646154 Z" id="Shape" fill="#977A9B"></path>
                            <path d="M20.5571667,2.54584615 C20.6072778,2.57415385 20.6573889,2.60184615 20.7075,2.62953846 C20.713,2.62953846 20.7154444,2.63261538 20.7160556,2.63815385 L20.7160556,2.62953846 L21.0246667,2.45353846 C20.9470556,2.40861538 20.8688333,2.36369231 20.7912222,2.31938462 C18.4683889,0.998769231 15.6597222,0.338461538 12.3646111,0.338461538 C9.0585,0.332923077 6.23272222,0.987692308 3.88788889,2.30215385 C1.54305556,3.61661538 0.359333333,5.21169231 0.337333333,7.08615385 C0.337333333,7.09169231 0.337333333,7.09723077 0.337333333,7.10276923 L0.337333333,7.25353846 C0.342833333,7.39876923 0.353833333,7.54707692 0.370944444,7.69846154 C0.421055556,8.07323077 0.521277778,8.44 0.671,8.79815385 C0.765722222,9.01046154 0.879388889,9.22338462 1.01261111,9.43569231 C1.15133333,9.65415385 1.31266667,9.86953846 1.496,10.0818462 C1.62372222,10.2326154 1.76244444,10.3784615 1.91277778,10.5181538 C2.12422222,10.7249231 2.36011111,10.9267692 2.62105556,11.1224615 C2.76588889,11.2289231 2.91561111,11.3347692 3.07144444,11.4412308 C3.29388889,11.5864615 3.52977778,11.7323077 3.77972222,11.8775385 C3.78522222,11.8830769 3.79377778,11.8886154 3.80477778,11.8941538 C3.96611111,11.9833846 4.12683333,12.0701538 4.28816667,12.1544615 C4.32177778,12.1710769 4.35477778,12.1883077 4.38838889,12.2049231 L4.75505556,12.0203077 C4.50511111,11.9027692 4.26066667,11.7772308 4.02172222,11.6424615 C1.76,10.3833846 0.640444444,8.86153846 0.663055556,7.07630769 C0.663055556,6.88061538 0.682611111,6.68430769 0.721111111,6.48861538 C0.960055556,4.96123077 2.09611111,3.64061538 4.12988889,2.52676923 C6.40811111,1.27323077 9.15322222,0.649230769 12.3646111,0.654769231 C15.5698889,0.657230769 18.3009444,1.28676923 20.5571667,2.54584615 Z" id="Shape" fill="#C19BC7"></path>
                            <path d="M19.657,3.23384615 L19.9485,3.06584615 C19.4315,2.78584615 18.887,2.54523077 18.315,2.344 C16.5757778,1.712 14.5890556,1.39569231 12.3554444,1.39569231 C9.99961111,1.39569231 7.91572222,1.73969231 6.10438889,2.42830769 C5.61,2.60738462 5.13455556,2.81723077 4.67927778,3.05784615 C2.55688889,4.17107692 1.48683333,5.51138462 1.47033333,7.07815385 C1.45383333,8.42646154 2.20916667,9.60738462 3.73755556,10.6203077 C3.993,10.7938462 4.27655556,10.9618462 4.58761111,11.1236923 C4.88216667,11.2806154 5.18772222,11.4289231 5.50427778,11.5686154 C5.52077778,11.5741538 5.53788889,11.5827692 5.55438889,11.5938462 C5.55988889,11.5938462 5.56538889,11.5963077 5.57088889,11.6024615 L5.92105556,11.4178462 C5.78783333,11.3673846 5.66011111,11.3169231 5.53788889,11.2670769 C5.27694444,11.1550769 5.02394444,11.0350769 4.7795,10.9064615 C4.01255556,10.5089231 3.39044444,10.0812308 2.91255556,9.62215385 C2.12361111,8.86092308 1.73433333,8.01353846 1.74594444,7.07876923 C1.76794444,5.59569231 2.81294444,4.32861538 4.87972222,3.27692308 C6.94711111,2.23076923 9.43922222,1.70707692 12.3560556,1.70707692 C15.2001667,1.70646154 17.6342222,2.216 19.657,3.23384615 Z" id="Shape" fill="#B394B7"></path>
                            <path d="M19.657,3.23384615 L18.7733333,3.72923077 L18.7733333,4.87938462 L19.657,4.36738462 L19.657,3.23384615 L19.657,3.23384615 Z M19.9570556,3.05784615 L19.9570556,3.06646154 L19.9570556,4.19938462 L20.0487222,4.14892308 L20.7154444,3.75446154 L20.7154444,2.63815385 C20.7154444,2.63261538 20.7123889,2.62953846 20.7068889,2.62953846 L19.9570556,3.05784615 Z" id="Shape" fill="#C6C5C5"></path>
                        </g>
                    </g>
                </g>
                <path d="M14.9196667,15.5698462 C15.0486111,15.7501538 15.1903889,15.8621538 15.4012222,15.9323077 C15.7752222,16.0572308 15.9359444,15.4633846 15.5637778,15.3390769 C15.5142778,15.328 15.4757778,15.3015385 15.4476667,15.2590769 C15.2197222,14.9403077 14.6892778,15.2473846 14.9196667,15.5698462 L14.9196667,15.5698462 Z" id="Shape" fill="#56AB46"></path>
            </g>
            <g id="onion-copy-4" transform="translate(102.000000, 36.000000)">
                <g id="Group" transform="translate(0.275000, 0.276923)">
                    <g id="people_0_Layer11_6_FILL">
                        <g>
                            <path d="M1.01138889,9.43692308 L1.01138889,10.5532308 C1.15011111,10.7772308 1.31144444,10.9926154 1.49477778,11.1993846 L1.49477778,10.0830769 C1.31144444,9.87015385 1.15011111,9.65476923 1.01138889,9.43692308 L1.01138889,9.43692308 Z M3.80355556,11.896 C3.79255556,11.8904615 3.784,11.8849231 3.7785,11.8793846 C3.52855556,11.7341538 3.29205556,11.5883077 3.07022222,11.4430769 L3.07022222,12.5593846 C3.29266667,12.7046154 3.52855556,12.8504615 3.7785,12.9956923 C3.784,13.0012308 3.79255556,13.0067692 3.80355556,13.0123077 L3.80355556,11.896 L3.80355556,11.896 Z M4.38716667,12.2067692 C4.35355556,12.1901538 4.32055556,12.1729231 4.28694444,12.1563077 L4.28694444,13.2726154 C4.32055556,13.2892308 4.35355556,13.3064615 4.38716667,13.3230769 L4.38716667,12.2067692 L4.38716667,12.2067692 Z M2.61983333,11.1236923 C2.35888889,10.928 2.12238889,10.7261538 1.91155556,10.5193846 L1.91155556,11.6356923 C2.123,11.8424615 2.35888889,12.0443077 2.61983333,12.24 L2.61983333,11.1236923 L2.61983333,11.1236923 Z M0.336111111,7.25476923 L0.336111111,8.16123077 C0.336111111,8.17230769 0.336111111,8.18646154 0.336111111,8.20307692 C0.330611111,8.78523077 0.436333333,9.34461538 0.652666667,9.88184615 L0.669166667,8.79938462 C0.519444444,8.44123077 0.419222222,8.07446154 0.369111111,7.69969231 C0.353222222,7.54830769 0.341611111,7.4 0.336111111,7.25476923 Z" id="Shape" fill="#815F83"></path>
                            <path d="M0.653277778,9.88184615 C0.7535,10.1058462 0.872666667,10.3292308 1.01138889,10.5532308 L1.01138889,9.43692308 C0.878166667,9.224 0.763888889,9.01169231 0.669777778,8.79938462 L0.653277778,9.88184615 L0.653277778,9.88184615 Z M4.28694444,12.1563077 C4.12561111,12.0726154 3.96488889,11.9858462 3.80355556,11.896 L3.80355556,13.0123077 C3.96488889,13.1021538 4.12561111,13.1883077 4.28694444,13.2726154 L4.28694444,12.1563077 L4.28694444,12.1563077 Z M1.91155556,11.6356923 L1.91155556,10.5193846 C1.76183333,10.3796923 1.6225,10.2338462 1.49477778,10.0830769 L1.49477778,11.1993846 C1.6225,11.3501538 1.76183333,11.496 1.91155556,11.6356923 L1.91155556,11.6356923 Z M2.61983333,11.1236923 L2.61983333,12.24 C2.76466667,12.3464615 2.91438889,12.4529231 3.07022222,12.5587692 L3.07022222,11.4424615 C2.91438889,11.3366154 2.76466667,11.2301538 2.61983333,11.1236923 Z" id="Shape" fill="#937596"></path>
                            <path d="M5.929,12.4584615 L5.85383333,12.5003077 L5.86238889,12.5003077 L6.02922222,12.408 L5.929,12.4584615 L5.929,12.4584615 Z M19.9485,3.06646154 L19.9570556,3.06646154 L19.9570556,3.05784615 L20.7075,2.62953846 C20.6573889,2.60123077 20.6072778,2.57353846 20.5571667,2.54584615 C18.3009444,1.28676923 15.5698889,0.657230769 12.364,0.657230769 C9.15261111,0.651692308 6.4075,1.27569231 4.12927778,2.52923077 C2.0955,3.64307692 0.959444444,4.96307692 0.7205,6.49107692 C0.681388889,6.68676923 0.662444444,6.88307692 0.662444444,7.07876923 C0.640444444,8.864 1.76,10.3858462 4.02111111,11.6449231 C4.26005556,11.7790769 4.5045,11.9052308 4.75444444,12.0227692 L4.763,12.0313846 L4.763,12.0147692 L5.555,11.6116923 L5.5715,11.6030769 C5.566,11.5975385 5.5605,11.5944615 5.555,11.5944615 C5.5385,11.5833846 5.52138889,11.5747692 5.50488889,11.5692308 C5.18833333,11.4295385 4.88277778,11.2812308 4.58822222,11.1243077 C4.27716667,10.9618462 3.99361111,10.7944615 3.73816667,10.6209231 C2.21038889,9.608 1.45444444,8.42769231 1.47094444,7.07876923 C1.48744444,5.512 2.5575,4.17169231 4.67988889,3.05846154 C5.13577778,2.81784615 5.61061111,2.608 6.105,2.42892308 C7.91633333,1.74092308 10.0002222,1.39630769 12.3560556,1.39630769 C14.5896667,1.39630769 16.5763889,1.71261538 18.3156111,2.34461538 C18.887,2.54584615 19.4315,2.78646154 19.9485,3.06646154 Z" id="Shape" fill="#EFEEEE"></path>
                            <path d="M4.76238889,12.0135385 L4.76238889,12.0301538 L4.76238889,13.1378462 L5.55438889,12.6763077 L5.55438889,11.6104615 L4.76238889,12.0135385 L4.76238889,12.0135385 Z M5.929,11.4092308 L5.929,11.4258462 L5.929,12.4584615 L6.02922222,12.408 L6.92083333,11.8793846 L6.92083333,10.9058462 L5.929,11.4092308 Z" id="Shape" fill="#CFD0D0"></path>
                            <path d="M4.75383333,12.0215385 L4.38716667,12.2061538 L4.38716667,13.3224615 C4.39816667,13.328 4.40916667,13.3335385 4.42077778,13.3390769 L4.76238889,13.1378462 L4.76238889,12.0301538 L4.75383333,12.0215385 Z" id="Shape" fill="#736077"></path>
                            <polygon id="Shape" fill="#957C99" points="5.92044444 11.4172308 5.57027778 11.6018462 5.55377778 11.6104615 5.55377778 12.6763077 5.85383333 12.5003077 5.929 12.4584615 5.929 11.4258462"></polygon>
                            <path d="M19.8403333,4.26646154 L19.8488889,4.26646154 L20.0487222,4.14892308 L19.9570556,4.19938462 L19.8403333,4.26646154 L19.8403333,4.26646154 Z M18.7733333,3.72923077 L19.657,3.23384615 C17.6342222,2.21538462 15.2007778,1.70646154 12.3554444,1.70646154 C9.438,1.70646154 6.94588889,2.22953846 4.87911111,3.27630769 C2.81233333,4.328 1.76733333,5.59569231 1.74533333,7.07815385 C1.73433333,8.01292308 2.123,8.86030769 2.91194444,9.62153846 C3.38983333,10.0806154 4.01194444,10.5083077 4.77888889,10.9058462 C5.02333333,11.0344615 5.27633333,11.1550769 5.53727778,11.2664615 C5.6595,11.3169231 5.78722222,11.3673846 5.92044444,11.4172308 L5.929,11.4258462 L5.929,11.4092308 L6.92083333,10.9058462 C6.47655556,10.76 6.05122222,10.5981538 5.64544444,10.4190769 C5.56783333,10.3852308 5.48961111,10.3489231 5.412,10.3101538 C3.90622222,9.59938462 3.01155556,8.76553846 2.728,7.80923077 C2.7115,7.74215385 2.69438889,7.68061538 2.67788889,7.62461538 C2.65038889,7.45107692 2.63633333,7.27507692 2.63633333,7.096 C2.65283333,5.83692308 3.60861111,4.76553846 5.50366667,3.88123077 C7.39261111,3.00307692 9.67388889,2.56369231 12.3468889,2.56369231 C14.8310556,2.56246154 16.973,2.95138462 18.7733333,3.72923077 Z" id="Shape" fill="#F1F0F0"></path>
                            <path d="M19.8403333,4.26646154 L19.657,4.36738462 L18.7733333,4.87938462 L18.7733333,3.72923077 C16.973,2.95138462 14.8310556,2.56246154 12.3468889,2.56246154 C9.67388889,2.56246154 7.39322222,3.00184615 5.50366667,3.88 C3.60861111,4.76430769 2.65283333,5.83569231 2.63633333,7.09476923 C2.63633333,7.27384615 2.65038889,7.44984615 2.67788889,7.62338462 C3.10566667,6.58830769 4.04738889,5.72923077 5.50366667,5.04676923 C7.39261111,4.16861538 9.67388889,3.72923077 12.3468889,3.72923077 C14.8194444,3.72923077 16.9589444,4.11507692 18.7647778,4.88738462 L18.7733333,4.896 L18.7818889,4.896 L19.8488889,4.26646154 L19.8403333,4.26646154 L19.8403333,4.26646154 Z" id="Shape" fill="#DFDFDE"></path>
                            <path d="M20.7154444,3.75446154 L21.0240556,3.57846154 L21.0240556,2.45353846 L20.7154444,2.62953846 L20.7154444,2.63815385 L20.7154444,3.75446154 L20.7154444,3.75446154 Z M19.9570556,3.06646154 L19.9485,3.06646154 L19.657,3.23446154 L19.657,4.36738462 L19.8403333,4.26646154 L19.9570556,4.19938462 L19.9570556,3.06646154 Z" id="Shape" fill="#977A9B"></path>
                            <path d="M20.5571667,2.54584615 C20.6072778,2.57415385 20.6573889,2.60184615 20.7075,2.62953846 C20.713,2.62953846 20.7154444,2.63261538 20.7160556,2.63815385 L20.7160556,2.62953846 L21.0246667,2.45353846 C20.9470556,2.40861538 20.8688333,2.36369231 20.7912222,2.31938462 C18.4683889,0.998769231 15.6597222,0.338461538 12.3646111,0.338461538 C9.0585,0.332923077 6.23272222,0.987692308 3.88788889,2.30215385 C1.54305556,3.61661538 0.359333333,5.21169231 0.337333333,7.08615385 C0.337333333,7.09169231 0.337333333,7.09723077 0.337333333,7.10276923 L0.337333333,7.25353846 C0.342833333,7.39876923 0.353833333,7.54707692 0.370944444,7.69846154 C0.421055556,8.07323077 0.521277778,8.44 0.671,8.79815385 C0.765722222,9.01046154 0.879388889,9.22338462 1.01261111,9.43569231 C1.15133333,9.65415385 1.31266667,9.86953846 1.496,10.0818462 C1.62372222,10.2326154 1.76244444,10.3784615 1.91277778,10.5181538 C2.12422222,10.7249231 2.36011111,10.9267692 2.62105556,11.1224615 C2.76588889,11.2289231 2.91561111,11.3347692 3.07144444,11.4412308 C3.29388889,11.5864615 3.52977778,11.7323077 3.77972222,11.8775385 C3.78522222,11.8830769 3.79377778,11.8886154 3.80477778,11.8941538 C3.96611111,11.9833846 4.12683333,12.0701538 4.28816667,12.1544615 C4.32177778,12.1710769 4.35477778,12.1883077 4.38838889,12.2049231 L4.75505556,12.0203077 C4.50511111,11.9027692 4.26066667,11.7772308 4.02172222,11.6424615 C1.76,10.3833846 0.640444444,8.86153846 0.663055556,7.07630769 C0.663055556,6.88061538 0.682611111,6.68430769 0.721111111,6.48861538 C0.960055556,4.96123077 2.09611111,3.64061538 4.12988889,2.52676923 C6.40811111,1.27323077 9.15322222,0.649230769 12.3646111,0.654769231 C15.5698889,0.657230769 18.3009444,1.28676923 20.5571667,2.54584615 Z" id="Shape" fill="#C19BC7"></path>
                            <path d="M19.657,3.23384615 L19.9485,3.06584615 C19.4315,2.78584615 18.887,2.54523077 18.315,2.344 C16.5757778,1.712 14.5890556,1.39569231 12.3554444,1.39569231 C9.99961111,1.39569231 7.91572222,1.73969231 6.10438889,2.42830769 C5.61,2.60738462 5.13455556,2.81723077 4.67927778,3.05784615 C2.55688889,4.17107692 1.48683333,5.51138462 1.47033333,7.07815385 C1.45383333,8.42646154 2.20916667,9.60738462 3.73755556,10.6203077 C3.993,10.7938462 4.27655556,10.9618462 4.58761111,11.1236923 C4.88216667,11.2806154 5.18772222,11.4289231 5.50427778,11.5686154 C5.52077778,11.5741538 5.53788889,11.5827692 5.55438889,11.5938462 C5.55988889,11.5938462 5.56538889,11.5963077 5.57088889,11.6024615 L5.92105556,11.4178462 C5.78783333,11.3673846 5.66011111,11.3169231 5.53788889,11.2670769 C5.27694444,11.1550769 5.02394444,11.0350769 4.7795,10.9064615 C4.01255556,10.5089231 3.39044444,10.0812308 2.91255556,9.62215385 C2.12361111,8.86092308 1.73433333,8.01353846 1.74594444,7.07876923 C1.76794444,5.59569231 2.81294444,4.32861538 4.87972222,3.27692308 C6.94711111,2.23076923 9.43922222,1.70707692 12.3560556,1.70707692 C15.2001667,1.70646154 17.6342222,2.216 19.657,3.23384615 Z" id="Shape" fill="#B394B7"></path>
                            <path d="M19.657,3.23384615 L18.7733333,3.72923077 L18.7733333,4.87938462 L19.657,4.36738462 L19.657,3.23384615 L19.657,3.23384615 Z M19.9570556,3.05784615 L19.9570556,3.06646154 L19.9570556,4.19938462 L20.0487222,4.14892308 L20.7154444,3.75446154 L20.7154444,2.63815385 C20.7154444,2.63261538 20.7123889,2.62953846 20.7068889,2.62953846 L19.9570556,3.05784615 Z" id="Shape" fill="#C6C5C5"></path>
                        </g>
                    </g>
                </g>
                <path d="M14.9196667,15.5698462 C15.0486111,15.7501538 15.1903889,15.8621538 15.4012222,15.9323077 C15.7752222,16.0572308 15.9359444,15.4633846 15.5637778,15.3390769 C15.5142778,15.328 15.4757778,15.3015385 15.4476667,15.2590769 C15.2197222,14.9403077 14.6892778,15.2473846 14.9196667,15.5698462 L14.9196667,15.5698462 Z" id="Shape" fill="#56AB46"></path>
            </g>
            <g id="onion-copy-5" transform="translate(146.000000, 30.000000)">
                <g id="Group" transform="translate(0.275000, 0.276923)">
                    <g id="people_0_Layer11_6_FILL">
                        <g>
                            <path d="M1.01138889,9.43692308 L1.01138889,10.5532308 C1.15011111,10.7772308 1.31144444,10.9926154 1.49477778,11.1993846 L1.49477778,10.0830769 C1.31144444,9.87015385 1.15011111,9.65476923 1.01138889,9.43692308 L1.01138889,9.43692308 Z M3.80355556,11.896 C3.79255556,11.8904615 3.784,11.8849231 3.7785,11.8793846 C3.52855556,11.7341538 3.29205556,11.5883077 3.07022222,11.4430769 L3.07022222,12.5593846 C3.29266667,12.7046154 3.52855556,12.8504615 3.7785,12.9956923 C3.784,13.0012308 3.79255556,13.0067692 3.80355556,13.0123077 L3.80355556,11.896 L3.80355556,11.896 Z M4.38716667,12.2067692 C4.35355556,12.1901538 4.32055556,12.1729231 4.28694444,12.1563077 L4.28694444,13.2726154 C4.32055556,13.2892308 4.35355556,13.3064615 4.38716667,13.3230769 L4.38716667,12.2067692 L4.38716667,12.2067692 Z M2.61983333,11.1236923 C2.35888889,10.928 2.12238889,10.7261538 1.91155556,10.5193846 L1.91155556,11.6356923 C2.123,11.8424615 2.35888889,12.0443077 2.61983333,12.24 L2.61983333,11.1236923 L2.61983333,11.1236923 Z M0.336111111,7.25476923 L0.336111111,8.16123077 C0.336111111,8.17230769 0.336111111,8.18646154 0.336111111,8.20307692 C0.330611111,8.78523077 0.436333333,9.34461538 0.652666667,9.88184615 L0.669166667,8.79938462 C0.519444444,8.44123077 0.419222222,8.07446154 0.369111111,7.69969231 C0.353222222,7.54830769 0.341611111,7.4 0.336111111,7.25476923 Z" id="Shape" fill="#815F83"></path>
                            <path d="M0.653277778,9.88184615 C0.7535,10.1058462 0.872666667,10.3292308 1.01138889,10.5532308 L1.01138889,9.43692308 C0.878166667,9.224 0.763888889,9.01169231 0.669777778,8.79938462 L0.653277778,9.88184615 L0.653277778,9.88184615 Z M4.28694444,12.1563077 C4.12561111,12.0726154 3.96488889,11.9858462 3.80355556,11.896 L3.80355556,13.0123077 C3.96488889,13.1021538 4.12561111,13.1883077 4.28694444,13.2726154 L4.28694444,12.1563077 L4.28694444,12.1563077 Z M1.91155556,11.6356923 L1.91155556,10.5193846 C1.76183333,10.3796923 1.6225,10.2338462 1.49477778,10.0830769 L1.49477778,11.1993846 C1.6225,11.3501538 1.76183333,11.496 1.91155556,11.6356923 L1.91155556,11.6356923 Z M2.61983333,11.1236923 L2.61983333,12.24 C2.76466667,12.3464615 2.91438889,12.4529231 3.07022222,12.5587692 L3.07022222,11.4424615 C2.91438889,11.3366154 2.76466667,11.2301538 2.61983333,11.1236923 Z" id="Shape" fill="#937596"></path>
                            <path d="M5.929,12.4584615 L5.85383333,12.5003077 L5.86238889,12.5003077 L6.02922222,12.408 L5.929,12.4584615 L5.929,12.4584615 Z M19.9485,3.06646154 L19.9570556,3.06646154 L19.9570556,3.05784615 L20.7075,2.62953846 C20.6573889,2.60123077 20.6072778,2.57353846 20.5571667,2.54584615 C18.3009444,1.28676923 15.5698889,0.657230769 12.364,0.657230769 C9.15261111,0.651692308 6.4075,1.27569231 4.12927778,2.52923077 C2.0955,3.64307692 0.959444444,4.96307692 0.7205,6.49107692 C0.681388889,6.68676923 0.662444444,6.88307692 0.662444444,7.07876923 C0.640444444,8.864 1.76,10.3858462 4.02111111,11.6449231 C4.26005556,11.7790769 4.5045,11.9052308 4.75444444,12.0227692 L4.763,12.0313846 L4.763,12.0147692 L5.555,11.6116923 L5.5715,11.6030769 C5.566,11.5975385 5.5605,11.5944615 5.555,11.5944615 C5.5385,11.5833846 5.52138889,11.5747692 5.50488889,11.5692308 C5.18833333,11.4295385 4.88277778,11.2812308 4.58822222,11.1243077 C4.27716667,10.9618462 3.99361111,10.7944615 3.73816667,10.6209231 C2.21038889,9.608 1.45444444,8.42769231 1.47094444,7.07876923 C1.48744444,5.512 2.5575,4.17169231 4.67988889,3.05846154 C5.13577778,2.81784615 5.61061111,2.608 6.105,2.42892308 C7.91633333,1.74092308 10.0002222,1.39630769 12.3560556,1.39630769 C14.5896667,1.39630769 16.5763889,1.71261538 18.3156111,2.34461538 C18.887,2.54584615 19.4315,2.78646154 19.9485,3.06646154 Z" id="Shape" fill="#EFEEEE"></path>
                            <path d="M4.76238889,12.0135385 L4.76238889,12.0301538 L4.76238889,13.1378462 L5.55438889,12.6763077 L5.55438889,11.6104615 L4.76238889,12.0135385 L4.76238889,12.0135385 Z M5.929,11.4092308 L5.929,11.4258462 L5.929,12.4584615 L6.02922222,12.408 L6.92083333,11.8793846 L6.92083333,10.9058462 L5.929,11.4092308 Z" id="Shape" fill="#CFD0D0"></path>
                            <path d="M4.75383333,12.0215385 L4.38716667,12.2061538 L4.38716667,13.3224615 C4.39816667,13.328 4.40916667,13.3335385 4.42077778,13.3390769 L4.76238889,13.1378462 L4.76238889,12.0301538 L4.75383333,12.0215385 Z" id="Shape" fill="#736077"></path>
                            <polygon id="Shape" fill="#957C99" points="5.92044444 11.4172308 5.57027778 11.6018462 5.55377778 11.6104615 5.55377778 12.6763077 5.85383333 12.5003077 5.929 12.4584615 5.929 11.4258462"></polygon>
                            <path d="M19.8403333,4.26646154 L19.8488889,4.26646154 L20.0487222,4.14892308 L19.9570556,4.19938462 L19.8403333,4.26646154 L19.8403333,4.26646154 Z M18.7733333,3.72923077 L19.657,3.23384615 C17.6342222,2.21538462 15.2007778,1.70646154 12.3554444,1.70646154 C9.438,1.70646154 6.94588889,2.22953846 4.87911111,3.27630769 C2.81233333,4.328 1.76733333,5.59569231 1.74533333,7.07815385 C1.73433333,8.01292308 2.123,8.86030769 2.91194444,9.62153846 C3.38983333,10.0806154 4.01194444,10.5083077 4.77888889,10.9058462 C5.02333333,11.0344615 5.27633333,11.1550769 5.53727778,11.2664615 C5.6595,11.3169231 5.78722222,11.3673846 5.92044444,11.4172308 L5.929,11.4258462 L5.929,11.4092308 L6.92083333,10.9058462 C6.47655556,10.76 6.05122222,10.5981538 5.64544444,10.4190769 C5.56783333,10.3852308 5.48961111,10.3489231 5.412,10.3101538 C3.90622222,9.59938462 3.01155556,8.76553846 2.728,7.80923077 C2.7115,7.74215385 2.69438889,7.68061538 2.67788889,7.62461538 C2.65038889,7.45107692 2.63633333,7.27507692 2.63633333,7.096 C2.65283333,5.83692308 3.60861111,4.76553846 5.50366667,3.88123077 C7.39261111,3.00307692 9.67388889,2.56369231 12.3468889,2.56369231 C14.8310556,2.56246154 16.973,2.95138462 18.7733333,3.72923077 Z" id="Shape" fill="#F1F0F0"></path>
                            <path d="M19.8403333,4.26646154 L19.657,4.36738462 L18.7733333,4.87938462 L18.7733333,3.72923077 C16.973,2.95138462 14.8310556,2.56246154 12.3468889,2.56246154 C9.67388889,2.56246154 7.39322222,3.00184615 5.50366667,3.88 C3.60861111,4.76430769 2.65283333,5.83569231 2.63633333,7.09476923 C2.63633333,7.27384615 2.65038889,7.44984615 2.67788889,7.62338462 C3.10566667,6.58830769 4.04738889,5.72923077 5.50366667,5.04676923 C7.39261111,4.16861538 9.67388889,3.72923077 12.3468889,3.72923077 C14.8194444,3.72923077 16.9589444,4.11507692 18.7647778,4.88738462 L18.7733333,4.896 L18.7818889,4.896 L19.8488889,4.26646154 L19.8403333,4.26646154 L19.8403333,4.26646154 Z" id="Shape" fill="#DFDFDE"></path>
                            <path d="M20.7154444,3.75446154 L21.0240556,3.57846154 L21.0240556,2.45353846 L20.7154444,2.62953846 L20.7154444,2.63815385 L20.7154444,3.75446154 L20.7154444,3.75446154 Z M19.9570556,3.06646154 L19.9485,3.06646154 L19.657,3.23446154 L19.657,4.36738462 L19.8403333,4.26646154 L19.9570556,4.19938462 L19.9570556,3.06646154 Z" id="Shape" fill="#977A9B"></path>
                            <path d="M20.5571667,2.54584615 C20.6072778,2.57415385 20.6573889,2.60184615 20.7075,2.62953846 C20.713,2.62953846 20.7154444,2.63261538 20.7160556,2.63815385 L20.7160556,2.62953846 L21.0246667,2.45353846 C20.9470556,2.40861538 20.8688333,2.36369231 20.7912222,2.31938462 C18.4683889,0.998769231 15.6597222,0.338461538 12.3646111,0.338461538 C9.0585,0.332923077 6.23272222,0.987692308 3.88788889,2.30215385 C1.54305556,3.61661538 0.359333333,5.21169231 0.337333333,7.08615385 C0.337333333,7.09169231 0.337333333,7.09723077 0.337333333,7.10276923 L0.337333333,7.25353846 C0.342833333,7.39876923 0.353833333,7.54707692 0.370944444,7.69846154 C0.421055556,8.07323077 0.521277778,8.44 0.671,8.79815385 C0.765722222,9.01046154 0.879388889,9.22338462 1.01261111,9.43569231 C1.15133333,9.65415385 1.31266667,9.86953846 1.496,10.0818462 C1.62372222,10.2326154 1.76244444,10.3784615 1.91277778,10.5181538 C2.12422222,10.7249231 2.36011111,10.9267692 2.62105556,11.1224615 C2.76588889,11.2289231 2.91561111,11.3347692 3.07144444,11.4412308 C3.29388889,11.5864615 3.52977778,11.7323077 3.77972222,11.8775385 C3.78522222,11.8830769 3.79377778,11.8886154 3.80477778,11.8941538 C3.96611111,11.9833846 4.12683333,12.0701538 4.28816667,12.1544615 C4.32177778,12.1710769 4.35477778,12.1883077 4.38838889,12.2049231 L4.75505556,12.0203077 C4.50511111,11.9027692 4.26066667,11.7772308 4.02172222,11.6424615 C1.76,10.3833846 0.640444444,8.86153846 0.663055556,7.07630769 C0.663055556,6.88061538 0.682611111,6.68430769 0.721111111,6.48861538 C0.960055556,4.96123077 2.09611111,3.64061538 4.12988889,2.52676923 C6.40811111,1.27323077 9.15322222,0.649230769 12.3646111,0.654769231 C15.5698889,0.657230769 18.3009444,1.28676923 20.5571667,2.54584615 Z" id="Shape" fill="#C19BC7"></path>
                            <path d="M19.657,3.23384615 L19.9485,3.06584615 C19.4315,2.78584615 18.887,2.54523077 18.315,2.344 C16.5757778,1.712 14.5890556,1.39569231 12.3554444,1.39569231 C9.99961111,1.39569231 7.91572222,1.73969231 6.10438889,2.42830769 C5.61,2.60738462 5.13455556,2.81723077 4.67927778,3.05784615 C2.55688889,4.17107692 1.48683333,5.51138462 1.47033333,7.07815385 C1.45383333,8.42646154 2.20916667,9.60738462 3.73755556,10.6203077 C3.993,10.7938462 4.27655556,10.9618462 4.58761111,11.1236923 C4.88216667,11.2806154 5.18772222,11.4289231 5.50427778,11.5686154 C5.52077778,11.5741538 5.53788889,11.5827692 5.55438889,11.5938462 C5.55988889,11.5938462 5.56538889,11.5963077 5.57088889,11.6024615 L5.92105556,11.4178462 C5.78783333,11.3673846 5.66011111,11.3169231 5.53788889,11.2670769 C5.27694444,11.1550769 5.02394444,11.0350769 4.7795,10.9064615 C4.01255556,10.5089231 3.39044444,10.0812308 2.91255556,9.62215385 C2.12361111,8.86092308 1.73433333,8.01353846 1.74594444,7.07876923 C1.76794444,5.59569231 2.81294444,4.32861538 4.87972222,3.27692308 C6.94711111,2.23076923 9.43922222,1.70707692 12.3560556,1.70707692 C15.2001667,1.70646154 17.6342222,2.216 19.657,3.23384615 Z" id="Shape" fill="#B394B7"></path>
                            <path d="M19.657,3.23384615 L18.7733333,3.72923077 L18.7733333,4.87938462 L19.657,4.36738462 L19.657,3.23384615 L19.657,3.23384615 Z M19.9570556,3.05784615 L19.9570556,3.06646154 L19.9570556,4.19938462 L20.0487222,4.14892308 L20.7154444,3.75446154 L20.7154444,2.63815385 C20.7154444,2.63261538 20.7123889,2.62953846 20.7068889,2.62953846 L19.9570556,3.05784615 Z" id="Shape" fill="#C6C5C5"></path>
                        </g>
                    </g>
                </g>
                <path d="M14.9196667,15.5698462 C15.0486111,15.7501538 15.1903889,15.8621538 15.4012222,15.9323077 C15.7752222,16.0572308 15.9359444,15.4633846 15.5637778,15.3390769 C15.5142778,15.328 15.4757778,15.3015385 15.4476667,15.2590769 C15.2197222,14.9403077 14.6892778,15.2473846 14.9196667,15.5698462 L14.9196667,15.5698462 Z" id="Shape" fill="#56AB46"></path>
            </g>
        </g>
    </g>
</svg>