<?xml version="1.0" encoding="UTF-8"?>
<svg width="225px" height="159px" viewBox="0 0 225 159" version="1.1" xmlns="http://www.w3.org/2000/svg" xmlns:xlink="http://www.w3.org/1999/xlink">
    <!-- Generator: Sketch 46.2 (44496) - http://www.bohemiancoding.com/sketch -->
    <title>Artboard</title>
    <desc>Created with Sketch.</desc>
    <defs></defs>
    <g id="Page-1" stroke="none" stroke-width="1" fill="none" fill-rule="evenodd">
        <g id="Artboard" fill-rule="nonzero">
            <g id="pepper" transform="translate(125.000000, 29.000000)">
                <path d="M33.9952578,9.75682069 C33.9842438,9.96185644 33.9616039,10.1662838 33.9285618,10.3707111 C33.5889626,12.1631008 32.1400059,13.7979111 29.5804681,15.275142 C27.4774005,16.4919714 25.474683,17.0675317 23.5717037,17.0012145 C22.8986241,16.9738358 22.2390062,16.865538 21.5940737,16.6775378 C21.5604197,16.7049165 21.5243181,16.7298615 21.485769,16.7523729 C19.989085,17.7982377 17.7722058,18.3482446 14.8345196,18.4036103 C11.8246304,18.4644518 8.57793955,17.5846842 5.09505898,15.7649158 C2.15186582,14.2323192 0.485688062,12.6394895 0.0959138314,10.98521 C0.0402317985,10.7527955 0.00963727493,10.5179475 0.00413026068,10.2800573 L0.00413026068,11.8150876 C-0.00137675356,11.8430747 -0.00137675356,11.8674113 0.00413026068,11.8899226 C0.0487982651,13.7930438 1.74557054,15.6158542 5.09505898,17.3583539 C8.57793955,19.1781222 11.8240185,20.0578899 14.8345196,19.9970484 C17.8444089,19.9416827 20.0980015,19.3661224 21.5946856,18.2709759 C24.0703944,18.9846464 26.7327298,18.5173839 29.58108,16.8685801 C32.4294301,15.225252 33.9010267,13.3860143 33.9958697,11.3502588 C34.0013768,11.2395273 34.0013768,11.1287958 33.9958697,11.0180644 C33.9958697,11.0016372 33.9958697,10.9846015 33.9958697,10.9681743 L33.9958697,9.75682069 L33.9952578,9.75682069 Z M8.55835905,2.73693194 C6.83343981,3.76028545 6.2882454,4.76173604 6.92277582,5.74067529 C7.21220002,5.27584646 7.75739443,4.8055419 8.55835905,4.32976161 C10.5837165,3.13483515 13.5409832,2.55684119 17.4295471,2.59517131 C21.329737,2.62863412 24.3506402,3.27842101 26.4928688,4.54514041 C27.2662983,4.99901777 27.7974193,5.44985306 28.0868435,5.89764628 C28.715255,4.92418276 28.184134,3.94220145 26.4928688,2.95170232 C24.3506402,1.68498293 21.329737,1.03458762 17.4295471,1.00173323 C13.5403713,0.964011514 10.5837165,1.54200547 8.55835905,2.73693194 Z" id="Shape" fill="#D75D27"></path>
                <path d="M4.2679149,5.91905871 C4.32359067,6.02930913 4.39027923,6.14198265 4.46798058,6.25768502 C4.34561625,6.30190634 4.22569921,6.34612767 4.10945309,6.38974322 C1.45047619,7.35897774 0.0818311462,8.7940506 0.00412979616,10.694356 C0.00412979616,10.7276735 0.00412979616,10.757962 0.00412979616,10.7852218 C-0.00137659872,10.8130873 -0.00137659872,10.840347 0.00412979616,10.8676067 L0.00412979616,10.9087992 C0.00963619105,11.1456559 0.0402272737,11.3794837 0.0959030443,11.6108884 C0.485633438,13.2579813 2.1516238,14.8438913 5.09448596,16.3698299 C8.57697481,18.1816927 11.8226887,19.0576384 14.8328512,18.9970612 C17.770207,18.941936 19.9868368,18.3937128 21.4833526,17.3529972 C21.5225092,17.3311894 21.5586067,17.3063528 21.591645,17.2784873 C22.2371169,17.4656707 22.8960488,17.5728923 23.5690526,17.6007578 C25.471818,17.6667869 27.4743102,17.0943327 29.5771413,15.8821838 C32.1363912,14.4113704 33.5851849,12.7836622 33.9247459,10.9990591 C33.9583961,10.7955199 33.9804217,10.5913749 33.9914345,10.3878356 C33.9969409,10.3054507 34,10.2254888 34,10.1485558 C33.9779744,8.44633772 32.9960007,7.33111225 31.0540787,6.80227366 C30.8430003,6.74169651 30.6172381,6.68960015 30.3780158,6.64537882 C30.5780815,6.4412338 30.734096,6.23769455 30.8454476,6.03415531 C31.4744002,4.87167965 30.6839266,3.64378067 28.4758623,2.34924681 C25.8780675,0.823308215 22.2144795,0.0412571119 17.4857099,0.00248773106 C12.7624467,-0.0471855381 9.17717185,0.647028687 6.72927342,2.08452464 C4.48205248,3.40692398 3.66159964,4.68510201 4.2679149,5.91905871 L4.2679149,5.91905871 Z M6.92199724,6.38974322 C6.28753818,5.41505676 6.83267128,4.41795674 8.55739652,3.39904895 C10.5825262,2.20931358 13.5394602,1.63383058 17.4275869,1.67199419 C21.3273381,1.70531163 24.3479016,2.35227567 26.4898892,3.61349209 C28.1809642,4.59968822 28.7126373,5.57740354 28.0836846,6.54663806 C27.9111509,6.79985058 27.6578567,7.05609195 27.3244139,7.31475642 L27.3329794,7.31475642 C27.6890596,7.3535258 28.0231143,7.40562215 28.3345315,7.47165125 C30.1981402,7.86843163 31.1024126,8.7855698 31.0467369,10.2230657 C31.0357241,10.4599224 31.0020739,10.6967791 30.9463981,10.9336358 C30.5958243,12.3384201 29.4192913,13.6190212 27.416799,14.7754391 C25.0637329,16.1196463 22.8636223,16.3728588 20.8158552,15.5356825 C19.5867055,16.6927062 17.7286031,17.2954489 15.2415481,17.3451222 C12.7551049,17.3893435 10.078997,16.6648407 7.21383617,15.1722195 C4.87178288,13.9606764 3.50864423,12.7043061 3.12503205,11.4049261 C3.0301997,11.1020403 2.99165493,10.7961257 3.00817412,10.4877879 C3.06935628,8.98971482 4.2905523,7.8520758 6.67115036,7.07547664 C6.87733426,7.0039956 7.09147184,6.9379665 7.3135631,6.87738934 C7.31906949,6.87193739 7.32457589,6.86890854 7.33008228,6.86890854 C7.1581604,6.70898484 7.02172417,6.54966692 6.92199724,6.38974322 Z" id="Shape" fill="#F58857"></path>
                <path d="M28.289581,7.65694407 C27.9786466,7.58402462 27.6451098,7.52649184 27.2895816,7.48367675 L27.2895816,9.2357506 C29.344559,9.47324057 30.5473684,10.2211667 30.8973987,11.480198 C30.9529882,11.2186246 30.9865862,10.9570511 30.9975819,10.6954777 C31.0531714,9.10730533 30.1503008,8.0944608 28.289581,7.65694407 L28.289581,7.65694407 Z M7.3024216,7 C7.08006376,7.06689858 6.86625814,7.13981804 6.66100475,7.21875836 C4.28348628,8.07639818 3.06479426,9.33275355 3.00370694,10.9871555 C2.98721337,11.3276693 3.02569838,11.6655071 3.12038372,12 C3.50889907,10.5703773 4.90902043,9.48461333 7.31952605,8.74270805 C7.31402819,8.74270805 7.31097383,8.73936313 7.31097383,8.73334225 L7.3024216,7 Z" id="Shape" fill="#D95D2E"></path>
            </g>
            <g id="pepper-copy" transform="translate(144.000000, 67.000000)">
                <path d="M33.9952578,9.75682069 C33.9842438,9.96185644 33.9616039,10.1662838 33.9285618,10.3707111 C33.5889626,12.1631008 32.1400059,13.7979111 29.5804681,15.275142 C27.4774005,16.4919714 25.474683,17.0675317 23.5717037,17.0012145 C22.8986241,16.9738358 22.2390062,16.865538 21.5940737,16.6775378 C21.5604197,16.7049165 21.5243181,16.7298615 21.485769,16.7523729 C19.989085,17.7982377 17.7722058,18.3482446 14.8345196,18.4036103 C11.8246304,18.4644518 8.57793955,17.5846842 5.09505898,15.7649158 C2.15186582,14.2323192 0.485688062,12.6394895 0.0959138314,10.98521 C0.0402317985,10.7527955 0.00963727493,10.5179475 0.00413026068,10.2800573 L0.00413026068,11.8150876 C-0.00137675356,11.8430747 -0.00137675356,11.8674113 0.00413026068,11.8899226 C0.0487982651,13.7930438 1.74557054,15.6158542 5.09505898,17.3583539 C8.57793955,19.1781222 11.8240185,20.0578899 14.8345196,19.9970484 C17.8444089,19.9416827 20.0980015,19.3661224 21.5946856,18.2709759 C24.0703944,18.9846464 26.7327298,18.5173839 29.58108,16.8685801 C32.4294301,15.225252 33.9010267,13.3860143 33.9958697,11.3502588 C34.0013768,11.2395273 34.0013768,11.1287958 33.9958697,11.0180644 C33.9958697,11.0016372 33.9958697,10.9846015 33.9958697,10.9681743 L33.9958697,9.75682069 L33.9952578,9.75682069 Z M8.55835905,2.73693194 C6.83343981,3.76028545 6.2882454,4.76173604 6.92277582,5.74067529 C7.21220002,5.27584646 7.75739443,4.8055419 8.55835905,4.32976161 C10.5837165,3.13483515 13.5409832,2.55684119 17.4295471,2.59517131 C21.329737,2.62863412 24.3506402,3.27842101 26.4928688,4.54514041 C27.2662983,4.99901777 27.7974193,5.44985306 28.0868435,5.89764628 C28.715255,4.92418276 28.184134,3.94220145 26.4928688,2.95170232 C24.3506402,1.68498293 21.329737,1.03458762 17.4295471,1.00173323 C13.5403713,0.964011514 10.5837165,1.54200547 8.55835905,2.73693194 Z" id="Shape" fill="#D75D27"></path>
                <path d="M4.2679149,5.91905871 C4.32359067,6.02930913 4.39027923,6.14198265 4.46798058,6.25768502 C4.34561625,6.30190634 4.22569921,6.34612767 4.10945309,6.38974322 C1.45047619,7.35897774 0.0818311462,8.7940506 0.00412979616,10.694356 C0.00412979616,10.7276735 0.00412979616,10.757962 0.00412979616,10.7852218 C-0.00137659872,10.8130873 -0.00137659872,10.840347 0.00412979616,10.8676067 L0.00412979616,10.9087992 C0.00963619105,11.1456559 0.0402272737,11.3794837 0.0959030443,11.6108884 C0.485633438,13.2579813 2.1516238,14.8438913 5.09448596,16.3698299 C8.57697481,18.1816927 11.8226887,19.0576384 14.8328512,18.9970612 C17.770207,18.941936 19.9868368,18.3937128 21.4833526,17.3529972 C21.5225092,17.3311894 21.5586067,17.3063528 21.591645,17.2784873 C22.2371169,17.4656707 22.8960488,17.5728923 23.5690526,17.6007578 C25.471818,17.6667869 27.4743102,17.0943327 29.5771413,15.8821838 C32.1363912,14.4113704 33.5851849,12.7836622 33.9247459,10.9990591 C33.9583961,10.7955199 33.9804217,10.5913749 33.9914345,10.3878356 C33.9969409,10.3054507 34,10.2254888 34,10.1485558 C33.9779744,8.44633772 32.9960007,7.33111225 31.0540787,6.80227366 C30.8430003,6.74169651 30.6172381,6.68960015 30.3780158,6.64537882 C30.5780815,6.4412338 30.734096,6.23769455 30.8454476,6.03415531 C31.4744002,4.87167965 30.6839266,3.64378067 28.4758623,2.34924681 C25.8780675,0.823308215 22.2144795,0.0412571119 17.4857099,0.00248773106 C12.7624467,-0.0471855381 9.17717185,0.647028687 6.72927342,2.08452464 C4.48205248,3.40692398 3.66159964,4.68510201 4.2679149,5.91905871 L4.2679149,5.91905871 Z M6.92199724,6.38974322 C6.28753818,5.41505676 6.83267128,4.41795674 8.55739652,3.39904895 C10.5825262,2.20931358 13.5394602,1.63383058 17.4275869,1.67199419 C21.3273381,1.70531163 24.3479016,2.35227567 26.4898892,3.61349209 C28.1809642,4.59968822 28.7126373,5.57740354 28.0836846,6.54663806 C27.9111509,6.79985058 27.6578567,7.05609195 27.3244139,7.31475642 L27.3329794,7.31475642 C27.6890596,7.3535258 28.0231143,7.40562215 28.3345315,7.47165125 C30.1981402,7.86843163 31.1024126,8.7855698 31.0467369,10.2230657 C31.0357241,10.4599224 31.0020739,10.6967791 30.9463981,10.9336358 C30.5958243,12.3384201 29.4192913,13.6190212 27.416799,14.7754391 C25.0637329,16.1196463 22.8636223,16.3728588 20.8158552,15.5356825 C19.5867055,16.6927062 17.7286031,17.2954489 15.2415481,17.3451222 C12.7551049,17.3893435 10.078997,16.6648407 7.21383617,15.1722195 C4.87178288,13.9606764 3.50864423,12.7043061 3.12503205,11.4049261 C3.0301997,11.1020403 2.99165493,10.7961257 3.00817412,10.4877879 C3.06935628,8.98971482 4.2905523,7.8520758 6.67115036,7.07547664 C6.87733426,7.0039956 7.09147184,6.9379665 7.3135631,6.87738934 C7.31906949,6.87193739 7.32457589,6.86890854 7.33008228,6.86890854 C7.1581604,6.70898484 7.02172417,6.54966692 6.92199724,6.38974322 Z" id="Shape" fill="#F58857"></path>
                <path d="M28.289581,7.65694407 C27.9786466,7.58402462 27.6451098,7.52649184 27.2895816,7.48367675 L27.2895816,9.2357506 C29.344559,9.47324057 30.5473684,10.2211667 30.8973987,11.480198 C30.9529882,11.2186246 30.9865862,10.9570511 30.9975819,10.6954777 C31.0531714,9.10730533 30.1503008,8.0944608 28.289581,7.65694407 L28.289581,7.65694407 Z M7.3024216,7 C7.08006376,7.06689858 6.86625814,7.13981804 6.66100475,7.21875836 C4.28348628,8.07639818 3.06479426,9.33275355 3.00370694,10.9871555 C2.98721337,11.3276693 3.02569838,11.6655071 3.12038372,12 C3.50889907,10.5703773 4.90902043,9.48461333 7.31952605,8.74270805 C7.31402819,8.74270805 7.31097383,8.73936313 7.31097383,8.73334225 L7.3024216,7 Z" id="Shape" fill="#D95D2E"></path>
            </g>
            <g id="pepper-copy-2" transform="translate(71.000000, 66.000000)">
                <path d="M33.9952578,9.75682069 C33.9842438,9.96185644 33.9616039,10.1662838 33.9285618,10.3707111 C33.5889626,12.1631008 32.1400059,13.7979111 29.5804681,15.275142 C27.4774005,16.4919714 25.474683,17.0675317 23.5717037,17.0012145 C22.8986241,16.9738358 22.2390062,16.865538 21.5940737,16.6775378 C21.5604197,16.7049165 21.5243181,16.7298615 21.485769,16.7523729 C19.989085,17.7982377 17.7722058,18.3482446 14.8345196,18.4036103 C11.8246304,18.4644518 8.57793955,17.5846842 5.09505898,15.7649158 C2.15186582,14.2323192 0.485688062,12.6394895 0.0959138314,10.98521 C0.0402317985,10.7527955 0.00963727493,10.5179475 0.00413026068,10.2800573 L0.00413026068,11.8150876 C-0.00137675356,11.8430747 -0.00137675356,11.8674113 0.00413026068,11.8899226 C0.0487982651,13.7930438 1.74557054,15.6158542 5.09505898,17.3583539 C8.57793955,19.1781222 11.8240185,20.0578899 14.8345196,19.9970484 C17.8444089,19.9416827 20.0980015,19.3661224 21.5946856,18.2709759 C24.0703944,18.9846464 26.7327298,18.5173839 29.58108,16.8685801 C32.4294301,15.225252 33.9010267,13.3860143 33.9958697,11.3502588 C34.0013768,11.2395273 34.0013768,11.1287958 33.9958697,11.0180644 C33.9958697,11.0016372 33.9958697,10.9846015 33.9958697,10.9681743 L33.9958697,9.75682069 L33.9952578,9.75682069 Z M8.55835905,2.73693194 C6.83343981,3.76028545 6.2882454,4.76173604 6.92277582,5.74067529 C7.21220002,5.27584646 7.75739443,4.8055419 8.55835905,4.32976161 C10.5837165,3.13483515 13.5409832,2.55684119 17.4295471,2.59517131 C21.329737,2.62863412 24.3506402,3.27842101 26.4928688,4.54514041 C27.2662983,4.99901777 27.7974193,5.44985306 28.0868435,5.89764628 C28.715255,4.92418276 28.184134,3.94220145 26.4928688,2.95170232 C24.3506402,1.68498293 21.329737,1.03458762 17.4295471,1.00173323 C13.5403713,0.964011514 10.5837165,1.54200547 8.55835905,2.73693194 Z" id="Shape" fill="#D75D27"></path>
                <path d="M4.2679149,5.91905871 C4.32359067,6.02930913 4.39027923,6.14198265 4.46798058,6.25768502 C4.34561625,6.30190634 4.22569921,6.34612767 4.10945309,6.38974322 C1.45047619,7.35897774 0.0818311462,8.7940506 0.00412979616,10.694356 C0.00412979616,10.7276735 0.00412979616,10.757962 0.00412979616,10.7852218 C-0.00137659872,10.8130873 -0.00137659872,10.840347 0.00412979616,10.8676067 L0.00412979616,10.9087992 C0.00963619105,11.1456559 0.0402272737,11.3794837 0.0959030443,11.6108884 C0.485633438,13.2579813 2.1516238,14.8438913 5.09448596,16.3698299 C8.57697481,18.1816927 11.8226887,19.0576384 14.8328512,18.9970612 C17.770207,18.941936 19.9868368,18.3937128 21.4833526,17.3529972 C21.5225092,17.3311894 21.5586067,17.3063528 21.591645,17.2784873 C22.2371169,17.4656707 22.8960488,17.5728923 23.5690526,17.6007578 C25.471818,17.6667869 27.4743102,17.0943327 29.5771413,15.8821838 C32.1363912,14.4113704 33.5851849,12.7836622 33.9247459,10.9990591 C33.9583961,10.7955199 33.9804217,10.5913749 33.9914345,10.3878356 C33.9969409,10.3054507 34,10.2254888 34,10.1485558 C33.9779744,8.44633772 32.9960007,7.33111225 31.0540787,6.80227366 C30.8430003,6.74169651 30.6172381,6.68960015 30.3780158,6.64537882 C30.5780815,6.4412338 30.734096,6.23769455 30.8454476,6.03415531 C31.4744002,4.87167965 30.6839266,3.64378067 28.4758623,2.34924681 C25.8780675,0.823308215 22.2144795,0.0412571119 17.4857099,0.00248773106 C12.7624467,-0.0471855381 9.17717185,0.647028687 6.72927342,2.08452464 C4.48205248,3.40692398 3.66159964,4.68510201 4.2679149,5.91905871 L4.2679149,5.91905871 Z M6.92199724,6.38974322 C6.28753818,5.41505676 6.83267128,4.41795674 8.55739652,3.39904895 C10.5825262,2.20931358 13.5394602,1.63383058 17.4275869,1.67199419 C21.3273381,1.70531163 24.3479016,2.35227567 26.4898892,3.61349209 C28.1809642,4.59968822 28.7126373,5.57740354 28.0836846,6.54663806 C27.9111509,6.79985058 27.6578567,7.05609195 27.3244139,7.31475642 L27.3329794,7.31475642 C27.6890596,7.3535258 28.0231143,7.40562215 28.3345315,7.47165125 C30.1981402,7.86843163 31.1024126,8.7855698 31.0467369,10.2230657 C31.0357241,10.4599224 31.0020739,10.6967791 30.9463981,10.9336358 C30.5958243,12.3384201 29.4192913,13.6190212 27.416799,14.7754391 C25.0637329,16.1196463 22.8636223,16.3728588 20.8158552,15.5356825 C19.5867055,16.6927062 17.7286031,17.2954489 15.2415481,17.3451222 C12.7551049,17.3893435 10.078997,16.6648407 7.21383617,15.1722195 C4.87178288,13.9606764 3.50864423,12.7043061 3.12503205,11.4049261 C3.0301997,11.1020403 2.99165493,10.7961257 3.00817412,10.4877879 C3.06935628,8.98971482 4.2905523,7.8520758 6.67115036,7.07547664 C6.87733426,7.0039956 7.09147184,6.9379665 7.3135631,6.87738934 C7.31906949,6.87193739 7.32457589,6.86890854 7.33008228,6.86890854 C7.1581604,6.70898484 7.02172417,6.54966692 6.92199724,6.38974322 Z" id="Shape" fill="#F58857"></path>
                <path d="M28.289581,7.65694407 C27.9786466,7.58402462 27.6451098,7.52649184 27.2895816,7.48367675 L27.2895816,9.2357506 C29.344559,9.47324057 30.5473684,10.2211667 30.8973987,11.480198 C30.9529882,11.2186246 30.9865862,10.9570511 30.9975819,10.6954777 C31.0531714,9.10730533 30.1503008,8.0944608 28.289581,7.65694407 L28.289581,7.65694407 Z M7.3024216,7 C7.08006376,7.06689858 6.86625814,7.13981804 6.66100475,7.21875836 C4.28348628,8.07639818 3.06479426,9.33275355 3.00370694,10.9871555 C2.98721337,11.3276693 3.02569838,11.6655071 3.12038372,12 C3.50889907,10.5703773 4.90902043,9.48461333 7.31952605,8.74270805 C7.31402819,8.74270805 7.31097383,8.73936313 7.31097383,8.73334225 L7.3024216,7 Z" id="Shape" fill="#D95D2E"></path>
            </g>
        </g>
    </g>
</svg>