<?xml version="1.0" encoding="UTF-8"?>
<svg width="225px" height="159px" viewBox="0 0 225 159" version="1.1" xmlns="http://www.w3.org/2000/svg" xmlns:xlink="http://www.w3.org/1999/xlink">
    <!-- Generator: Sketch 46.2 (44496) - http://www.bohemiancoding.com/sketch -->
    <title>Artboard</title>
    <desc>Created with Sketch.</desc>
    <defs></defs>
    <g id="Page-1" stroke="none" stroke-width="1" fill="none" fill-rule="evenodd">
        <g id="Artboard" fill-rule="nonzero">
            <g id="sweetcorn" transform="translate(124.000000, 24.000000)">
                <g id="Group" transform="translate(8.950000, 0.325000)">
                    <g id="people_0_Layer4_0_FILL">
                        <g>
                            <path d="M1.3085,5.093 C1.3495,5.1155 1.388,5.1405 1.4245,5.168 C1.679,5.3455 2.5975,5.1225 4.1795,4.4995 C5.548,3.954 6.266,3.522 6.3345,3.204 C6.339,3.172 6.339,3.1425 6.3345,3.1155 L6.3345,1.7925 C6.33,1.956 6.1275,2.1585 5.7275,2.3995 C5.45,2.563 5.082,2.7405 4.6225,2.9315 C4.4815,2.995 4.334,3.059 4.1795,3.1225 C2.5975,3.741 1.679,3.9615 1.4245,3.784 C1.388,3.7615 1.3495,3.7385 1.3085,3.716 L1.3085,5.093 L1.3085,5.093 Z M0.272,3.279 C0.1585,3.22 0.097,3.1315 0.088,3.013 L0.081,4.3495 C0.081,4.3585 0.081,4.3655 0.081,4.37 C0.0855,4.502 0.149,4.5995 0.272,4.663 L0.272,3.279 L0.272,3.279 Z" id="Shape" fill="#EFCE48"></path>
                            <path d="M0.5925,3.388 C0.5195,3.3605 0.44,3.336 0.354,3.313 C0.322,3.2995 0.295,3.288 0.272,3.279 L0.272,4.6635 L0.279,4.6635 C0.302,4.668 0.3265,4.677 0.354,4.691 C0.745,4.809 1.063,4.9435 1.309,5.0935 L1.309,3.716 L1.309,3.709 C1.291,3.7045 1.2725,3.6955 1.2545,3.6815 C1.0725,3.577 0.852,3.479 0.5925,3.388 Z" id="Shape" fill="#EBD784"></path>
                            <path d="M3.3545,1.09 C2.986,1.09 2.67,1.1625 2.4065,1.308 C2.1475,1.458 1.504,2.047 0.4765,3.0745 C0.399,3.1425 0.331,3.211 0.272,3.279 C0.2945,3.288 0.322,3.2995 0.354,3.313 C0.4405,3.3355 0.52,3.3605 0.5925,3.388 C0.8515,3.479 1.072,3.5765 1.254,3.6815 C1.272,3.695 1.2905,3.704 1.3085,3.709 C1.922,3.468 2.461,3.2455 2.9245,3.0405 C3.361,2.845 3.711,2.6815 3.9745,2.5495 C4.1155,2.4765 4.2335,2.4155 4.329,2.3655 C4.5835,2.229 4.711,2.061 4.711,1.861 C4.711,1.8565 4.711,1.8495 4.711,1.8405 C4.711,1.636 4.579,1.461 4.3155,1.3155 C4.048,1.165 3.7275,1.09 3.3545,1.09 Z" id="Shape" fill="#FFF0B5"></path>
                            <path d="M2.4065,1.308 C2.67,1.1625 2.986,1.09 3.3545,1.09 C3.7275,1.09 4.048,1.165 4.316,1.315 C4.5795,1.4605 4.7115,1.6355 4.7115,1.84 C4.7115,1.849 4.7115,1.856 4.7115,1.8605 C4.7115,2.0605 4.584,2.2285 4.3295,2.365 C4.234,2.415 4.116,2.4765 3.975,2.549 C3.7115,2.681 3.361,2.8445 2.925,3.04 C2.4615,3.2445 1.9225,3.4675 1.309,3.7085 L1.309,3.7155 C1.35,3.738 1.3885,3.761 1.425,3.7835 C1.6795,3.961 2.598,3.7405 4.18,3.122 C4.3345,3.0585 4.4825,2.9945 4.623,2.931 C5.082,2.74 5.4505,2.5625 5.728,2.399 C6.128,2.158 6.3305,1.956 6.335,1.792 L6.335,1.7785 C6.335,1.7515 6.3305,1.724 6.3215,1.6965 C6.176,1.3645 5.8395,1.053 5.3125,0.762 C4.785,0.471 4.2215,0.287 3.621,0.2095 C3.0205,0.132 2.5615,0.182 2.2435,0.3595 C1.9205,0.537 1.4115,1.037 0.716,1.86 C0.275,2.3785 0.066,2.7625 0.0885,3.0125 C0.0975,3.1305 0.159,3.2195 0.2725,3.2785 C0.3315,3.2105 0.4,3.142 0.477,3.074 C1.504,2.047 2.1475,1.458 2.4065,1.308 Z" id="Shape" fill="#FEE581"></path>
                        </g>
                    </g>
                </g>
                <g id="Group" transform="translate(11.650000, 3.625000)">
                    <g id="people_0_Layer4_1_FILL">
                        <g>
                            <path d="M0.5385,3.6 C0.425,3.541 0.3635,3.4525 0.3545,3.334 L0.3475,4.6705 C0.3475,4.6795 0.3475,4.6865 0.3475,4.691 C0.352,4.823 0.4155,4.9205 0.5385,4.984 L0.5385,3.6 L0.5385,3.6 Z M5.994,2.7205 C5.7165,2.884 5.3485,3.0615 4.889,3.2525 C4.748,3.316 4.6005,3.38 4.446,3.4435 C2.864,4.062 1.9455,4.2825 1.691,4.105 C1.6545,4.0825 1.616,4.0595 1.575,4.037 L1.575,5.4145 C1.616,5.4375 1.6545,5.4625 1.691,5.4895 C1.9455,5.667 2.864,5.444 4.446,4.821 C5.8145,4.2755 6.5325,3.8435 6.601,3.5255 C6.6055,3.4935 6.6055,3.464 6.601,3.437 L6.601,2.114 C6.5965,2.277 6.3945,2.4795 5.994,2.7205 Z" id="Shape" fill="#EFCE48"></path>
                            <path d="M0.6205,3.634 C0.5885,3.6205 0.5615,3.609 0.5385,3.6 L0.5385,4.9845 L0.5455,4.9845 C0.568,4.989 0.593,4.998 0.6205,5.012 C1.0115,5.13 1.3295,5.2645 1.5755,5.4145 L1.5755,4.037 L1.5755,4.03 C1.5575,4.0255 1.539,4.0165 1.521,4.0025 C1.339,3.898 1.1185,3.8 0.8595,3.7095 C0.7865,3.682 0.707,3.657 0.6205,3.634 Z" id="Shape" fill="#EBD784"></path>
                            <path d="M4.978,2.1815 C4.978,2.177 4.978,2.17 4.978,2.161 C4.978,1.9565 4.846,1.7815 4.5825,1.636 C4.3145,1.486 3.994,1.411 3.621,1.411 C3.2525,1.411 2.9365,1.484 2.673,1.6295 C2.414,1.7795 1.7705,2.368 0.743,3.396 C0.6655,3.464 0.5975,3.5325 0.5385,3.6005 C0.5615,3.6095 0.5885,3.621 0.6205,3.6345 C0.707,3.657 0.7865,3.682 0.859,3.7095 C1.118,3.8005 1.3385,3.898 1.5205,4.0025 C1.5385,4.016 1.557,4.0255 1.575,4.03 C2.1885,3.789 2.7275,3.5665 3.191,3.3615 C3.6275,3.166 3.9775,3.0025 4.241,2.8705 C4.382,2.7975 4.5,2.7365 4.5955,2.6865 C4.851,2.55 4.978,2.3815 4.978,2.1815 Z" id="Shape" fill="#FFF0B5"></path>
                            <path d="M6.601,2.1135 L6.601,2.1 C6.601,2.0725 6.5965,2.0455 6.5875,2.018 C6.442,1.686 6.1055,1.3745 5.5785,1.0835 C5.051,0.7925 4.4875,0.6085 3.887,0.531 C3.287,0.4535 2.8275,0.5035 2.5095,0.681 C2.1865,0.8585 1.6775,1.3585 0.982,2.1815 C0.541,2.7 0.332,3.084 0.3545,3.334 C0.3635,3.452 0.425,3.541 0.5385,3.6 C0.5975,3.532 0.666,3.4635 0.743,3.3955 C1.7705,2.368 2.414,1.779 2.673,1.629 C2.9365,1.4835 3.2525,1.4105 3.621,1.4105 C3.994,1.4105 4.3145,1.4855 4.5825,1.6355 C4.846,1.781 4.978,1.956 4.978,2.1605 C4.978,2.1695 4.978,2.1765 4.978,2.181 C4.978,2.381 4.8505,2.5495 4.596,2.6855 C4.5005,2.7355 4.3825,2.797 4.2415,2.8695 C3.978,3.0015 3.6275,3.165 3.1915,3.3605 C2.728,3.565 2.189,3.788 1.5755,4.029 L1.5755,4.036 C1.6165,4.0585 1.655,4.0815 1.6915,4.104 C1.946,4.2815 2.8645,4.061 4.4465,3.4425 C4.601,3.379 4.749,3.315 4.8895,3.2515 C5.3485,3.0605 5.717,2.8835 5.9945,2.7195 C6.3945,2.4795 6.5965,2.277 6.601,2.1135 Z" id="Shape" fill="#FEE581"></path>
                        </g>
                    </g>
                </g>
                <g id="Group" transform="translate(0.450000, 0.825000)">
                    <g id="people_0_Layer4_2_FILL">
                        <g>
                            <path d="M1.3935,4.0885 C1.357,4.066 1.3185,4.043 1.2775,4.0205 L1.2775,5.398 C1.3185,5.4205 1.357,5.446 1.3935,5.473 C1.648,5.6505 2.5665,5.4275 4.1485,4.8045 C5.517,4.259 6.235,3.827 6.3035,3.509 C6.308,3.477 6.308,3.4475 6.3035,3.4205 L6.3035,2.0975 C6.299,2.261 6.0965,2.4635 5.6965,2.7045 C5.419,2.868 5.051,3.0455 4.5915,3.2365 C4.4505,3.3 4.303,3.364 4.1485,3.4275 C2.5665,4.045 1.648,4.2655 1.3935,4.0885 L1.3935,4.0885 Z M0.05,4.675 C0.0545,4.807 0.118,4.9045 0.241,4.968 L0.241,3.5835 C0.1275,3.5245 0.066,3.4355 0.057,3.3175 L0.05,4.654 C0.05,4.6635 0.05,4.67 0.05,4.675 Z" id="Shape" fill="#EFCE48"></path>
                            <path d="M0.241,3.5835 C0.2635,3.5925 0.291,3.604 0.323,3.6175 C0.4095,3.6405 0.489,3.6655 0.5615,3.6925 C0.8205,3.7835 1.041,3.881 1.223,3.9855 C1.241,3.999 1.2595,4.008 1.2775,4.013 C1.8915,3.772 2.43,3.549 2.8935,3.3445 C3.33,3.149 3.68,2.9855 3.9435,2.8535 C4.0845,2.7805 4.2025,2.7195 4.298,2.6695 C4.5525,2.533 4.68,2.365 4.68,2.165 C4.68,2.1605 4.68,2.1535 4.68,2.1445 C4.68,1.94 4.548,1.765 4.2845,1.6195 C4.0165,1.4695 3.696,1.3945 3.323,1.3945 C2.9545,1.3945 2.639,1.4675 2.375,1.613 C2.116,1.763 1.4725,2.3515 0.445,3.379 C0.368,3.447 0.3,3.5155 0.241,3.5835 Z" id="Shape" fill="#FFF0B5"></path>
                            <path d="M0.241,3.5835 L0.241,4.968 L0.248,4.968 C0.271,4.9725 0.2955,4.9815 0.323,4.9955 C0.714,5.1135 1.032,5.248 1.2775,5.398 L1.2775,4.0205 L1.2775,4.0135 C1.2595,4.009 1.241,4 1.223,3.986 C1.041,3.8815 0.8205,3.7835 0.5615,3.693 C0.4885,3.6655 0.409,3.6405 0.323,3.618 C0.291,3.604 0.2635,3.5925 0.241,3.5835 Z" id="Shape" fill="#EBD784"></path>
                            <path d="M0.684,2.165 C0.243,2.6835 0.034,3.0675 0.0565,3.3175 C0.0655,3.4355 0.127,3.5245 0.2405,3.5835 C0.2995,3.5155 0.368,3.447 0.445,3.379 C1.4725,2.3515 2.116,1.763 2.375,1.613 C2.6385,1.4675 2.9545,1.3945 3.323,1.3945 C3.696,1.3945 4.0165,1.4695 4.2845,1.6195 C4.548,1.765 4.68,1.94 4.68,2.1445 C4.68,2.1535 4.68,2.1605 4.68,2.165 C4.68,2.365 4.5525,2.5335 4.298,2.6695 C4.2025,2.7195 4.0845,2.781 3.9435,2.8535 C3.68,2.9855 3.3295,3.149 2.8935,3.3445 C2.43,3.549 1.891,3.772 1.2775,4.013 L1.2775,4.02 C1.3185,4.043 1.357,4.0655 1.3935,4.088 C1.648,4.2655 2.5665,4.045 4.1485,3.4265 C4.303,3.363 4.451,3.299 4.5915,3.2355 C5.0505,3.0445 5.419,2.867 5.6965,2.7035 C6.0965,2.4625 6.299,2.26 6.3035,2.0965 L6.3035,2.083 C6.3035,2.0555 6.299,2.0285 6.29,2.001 C6.1445,1.669 5.808,1.3575 5.2805,1.0665 C4.753,0.7755 4.1895,0.5915 3.5895,0.514 C2.9895,0.4365 2.53,0.4865 2.212,0.664 C1.889,0.8425 1.38,1.3425 0.684,2.165 Z" id="Shape" fill="#FEE581"></path>
                        </g>
                    </g>
                </g>
            </g>
            <g id="sweetcorn-copy" transform="translate(103.000000, 38.000000)">
                <g id="Group" transform="translate(8.950000, 0.325000)">
                    <g id="people_0_Layer4_0_FILL">
                        <g>
                            <path d="M1.3085,5.093 C1.3495,5.1155 1.388,5.1405 1.4245,5.168 C1.679,5.3455 2.5975,5.1225 4.1795,4.4995 C5.548,3.954 6.266,3.522 6.3345,3.204 C6.339,3.172 6.339,3.1425 6.3345,3.1155 L6.3345,1.7925 C6.33,1.956 6.1275,2.1585 5.7275,2.3995 C5.45,2.563 5.082,2.7405 4.6225,2.9315 C4.4815,2.995 4.334,3.059 4.1795,3.1225 C2.5975,3.741 1.679,3.9615 1.4245,3.784 C1.388,3.7615 1.3495,3.7385 1.3085,3.716 L1.3085,5.093 L1.3085,5.093 Z M0.272,3.279 C0.1585,3.22 0.097,3.1315 0.088,3.013 L0.081,4.3495 C0.081,4.3585 0.081,4.3655 0.081,4.37 C0.0855,4.502 0.149,4.5995 0.272,4.663 L0.272,3.279 L0.272,3.279 Z" id="Shape" fill="#EFCE48"></path>
                            <path d="M0.5925,3.388 C0.5195,3.3605 0.44,3.336 0.354,3.313 C0.322,3.2995 0.295,3.288 0.272,3.279 L0.272,4.6635 L0.279,4.6635 C0.302,4.668 0.3265,4.677 0.354,4.691 C0.745,4.809 1.063,4.9435 1.309,5.0935 L1.309,3.716 L1.309,3.709 C1.291,3.7045 1.2725,3.6955 1.2545,3.6815 C1.0725,3.577 0.852,3.479 0.5925,3.388 Z" id="Shape" fill="#EBD784"></path>
                            <path d="M3.3545,1.09 C2.986,1.09 2.67,1.1625 2.4065,1.308 C2.1475,1.458 1.504,2.047 0.4765,3.0745 C0.399,3.1425 0.331,3.211 0.272,3.279 C0.2945,3.288 0.322,3.2995 0.354,3.313 C0.4405,3.3355 0.52,3.3605 0.5925,3.388 C0.8515,3.479 1.072,3.5765 1.254,3.6815 C1.272,3.695 1.2905,3.704 1.3085,3.709 C1.922,3.468 2.461,3.2455 2.9245,3.0405 C3.361,2.845 3.711,2.6815 3.9745,2.5495 C4.1155,2.4765 4.2335,2.4155 4.329,2.3655 C4.5835,2.229 4.711,2.061 4.711,1.861 C4.711,1.8565 4.711,1.8495 4.711,1.8405 C4.711,1.636 4.579,1.461 4.3155,1.3155 C4.048,1.165 3.7275,1.09 3.3545,1.09 Z" id="Shape" fill="#FFF0B5"></path>
                            <path d="M2.4065,1.308 C2.67,1.1625 2.986,1.09 3.3545,1.09 C3.7275,1.09 4.048,1.165 4.316,1.315 C4.5795,1.4605 4.7115,1.6355 4.7115,1.84 C4.7115,1.849 4.7115,1.856 4.7115,1.8605 C4.7115,2.0605 4.584,2.2285 4.3295,2.365 C4.234,2.415 4.116,2.4765 3.975,2.549 C3.7115,2.681 3.361,2.8445 2.925,3.04 C2.4615,3.2445 1.9225,3.4675 1.309,3.7085 L1.309,3.7155 C1.35,3.738 1.3885,3.761 1.425,3.7835 C1.6795,3.961 2.598,3.7405 4.18,3.122 C4.3345,3.0585 4.4825,2.9945 4.623,2.931 C5.082,2.74 5.4505,2.5625 5.728,2.399 C6.128,2.158 6.3305,1.956 6.335,1.792 L6.335,1.7785 C6.335,1.7515 6.3305,1.724 6.3215,1.6965 C6.176,1.3645 5.8395,1.053 5.3125,0.762 C4.785,0.471 4.2215,0.287 3.621,0.2095 C3.0205,0.132 2.5615,0.182 2.2435,0.3595 C1.9205,0.537 1.4115,1.037 0.716,1.86 C0.275,2.3785 0.066,2.7625 0.0885,3.0125 C0.0975,3.1305 0.159,3.2195 0.2725,3.2785 C0.3315,3.2105 0.4,3.142 0.477,3.074 C1.504,2.047 2.1475,1.458 2.4065,1.308 Z" id="Shape" fill="#FEE581"></path>
                        </g>
                    </g>
                </g>
                <g id="Group" transform="translate(11.650000, 3.625000)">
                    <g id="people_0_Layer4_1_FILL">
                        <g>
                            <path d="M0.5385,3.6 C0.425,3.541 0.3635,3.4525 0.3545,3.334 L0.3475,4.6705 C0.3475,4.6795 0.3475,4.6865 0.3475,4.691 C0.352,4.823 0.4155,4.9205 0.5385,4.984 L0.5385,3.6 L0.5385,3.6 Z M5.994,2.7205 C5.7165,2.884 5.3485,3.0615 4.889,3.2525 C4.748,3.316 4.6005,3.38 4.446,3.4435 C2.864,4.062 1.9455,4.2825 1.691,4.105 C1.6545,4.0825 1.616,4.0595 1.575,4.037 L1.575,5.4145 C1.616,5.4375 1.6545,5.4625 1.691,5.4895 C1.9455,5.667 2.864,5.444 4.446,4.821 C5.8145,4.2755 6.5325,3.8435 6.601,3.5255 C6.6055,3.4935 6.6055,3.464 6.601,3.437 L6.601,2.114 C6.5965,2.277 6.3945,2.4795 5.994,2.7205 Z" id="Shape" fill="#EFCE48"></path>
                            <path d="M0.6205,3.634 C0.5885,3.6205 0.5615,3.609 0.5385,3.6 L0.5385,4.9845 L0.5455,4.9845 C0.568,4.989 0.593,4.998 0.6205,5.012 C1.0115,5.13 1.3295,5.2645 1.5755,5.4145 L1.5755,4.037 L1.5755,4.03 C1.5575,4.0255 1.539,4.0165 1.521,4.0025 C1.339,3.898 1.1185,3.8 0.8595,3.7095 C0.7865,3.682 0.707,3.657 0.6205,3.634 Z" id="Shape" fill="#EBD784"></path>
                            <path d="M4.978,2.1815 C4.978,2.177 4.978,2.17 4.978,2.161 C4.978,1.9565 4.846,1.7815 4.5825,1.636 C4.3145,1.486 3.994,1.411 3.621,1.411 C3.2525,1.411 2.9365,1.484 2.673,1.6295 C2.414,1.7795 1.7705,2.368 0.743,3.396 C0.6655,3.464 0.5975,3.5325 0.5385,3.6005 C0.5615,3.6095 0.5885,3.621 0.6205,3.6345 C0.707,3.657 0.7865,3.682 0.859,3.7095 C1.118,3.8005 1.3385,3.898 1.5205,4.0025 C1.5385,4.016 1.557,4.0255 1.575,4.03 C2.1885,3.789 2.7275,3.5665 3.191,3.3615 C3.6275,3.166 3.9775,3.0025 4.241,2.8705 C4.382,2.7975 4.5,2.7365 4.5955,2.6865 C4.851,2.55 4.978,2.3815 4.978,2.1815 Z" id="Shape" fill="#FFF0B5"></path>
                            <path d="M6.601,2.1135 L6.601,2.1 C6.601,2.0725 6.5965,2.0455 6.5875,2.018 C6.442,1.686 6.1055,1.3745 5.5785,1.0835 C5.051,0.7925 4.4875,0.6085 3.887,0.531 C3.287,0.4535 2.8275,0.5035 2.5095,0.681 C2.1865,0.8585 1.6775,1.3585 0.982,2.1815 C0.541,2.7 0.332,3.084 0.3545,3.334 C0.3635,3.452 0.425,3.541 0.5385,3.6 C0.5975,3.532 0.666,3.4635 0.743,3.3955 C1.7705,2.368 2.414,1.779 2.673,1.629 C2.9365,1.4835 3.2525,1.4105 3.621,1.4105 C3.994,1.4105 4.3145,1.4855 4.5825,1.6355 C4.846,1.781 4.978,1.956 4.978,2.1605 C4.978,2.1695 4.978,2.1765 4.978,2.181 C4.978,2.381 4.8505,2.5495 4.596,2.6855 C4.5005,2.7355 4.3825,2.797 4.2415,2.8695 C3.978,3.0015 3.6275,3.165 3.1915,3.3605 C2.728,3.565 2.189,3.788 1.5755,4.029 L1.5755,4.036 C1.6165,4.0585 1.655,4.0815 1.6915,4.104 C1.946,4.2815 2.8645,4.061 4.4465,3.4425 C4.601,3.379 4.749,3.315 4.8895,3.2515 C5.3485,3.0605 5.717,2.8835 5.9945,2.7195 C6.3945,2.4795 6.5965,2.277 6.601,2.1135 Z" id="Shape" fill="#FEE581"></path>
                        </g>
                    </g>
                </g>
                <g id="Group" transform="translate(0.450000, 0.825000)">
                    <g id="people_0_Layer4_2_FILL">
                        <g>
                            <path d="M1.3935,4.0885 C1.357,4.066 1.3185,4.043 1.2775,4.0205 L1.2775,5.398 C1.3185,5.4205 1.357,5.446 1.3935,5.473 C1.648,5.6505 2.5665,5.4275 4.1485,4.8045 C5.517,4.259 6.235,3.827 6.3035,3.509 C6.308,3.477 6.308,3.4475 6.3035,3.4205 L6.3035,2.0975 C6.299,2.261 6.0965,2.4635 5.6965,2.7045 C5.419,2.868 5.051,3.0455 4.5915,3.2365 C4.4505,3.3 4.303,3.364 4.1485,3.4275 C2.5665,4.045 1.648,4.2655 1.3935,4.0885 L1.3935,4.0885 Z M0.05,4.675 C0.0545,4.807 0.118,4.9045 0.241,4.968 L0.241,3.5835 C0.1275,3.5245 0.066,3.4355 0.057,3.3175 L0.05,4.654 C0.05,4.6635 0.05,4.67 0.05,4.675 Z" id="Shape" fill="#EFCE48"></path>
                            <path d="M0.241,3.5835 C0.2635,3.5925 0.291,3.604 0.323,3.6175 C0.4095,3.6405 0.489,3.6655 0.5615,3.6925 C0.8205,3.7835 1.041,3.881 1.223,3.9855 C1.241,3.999 1.2595,4.008 1.2775,4.013 C1.8915,3.772 2.43,3.549 2.8935,3.3445 C3.33,3.149 3.68,2.9855 3.9435,2.8535 C4.0845,2.7805 4.2025,2.7195 4.298,2.6695 C4.5525,2.533 4.68,2.365 4.68,2.165 C4.68,2.1605 4.68,2.1535 4.68,2.1445 C4.68,1.94 4.548,1.765 4.2845,1.6195 C4.0165,1.4695 3.696,1.3945 3.323,1.3945 C2.9545,1.3945 2.639,1.4675 2.375,1.613 C2.116,1.763 1.4725,2.3515 0.445,3.379 C0.368,3.447 0.3,3.5155 0.241,3.5835 Z" id="Shape" fill="#FFF0B5"></path>
                            <path d="M0.241,3.5835 L0.241,4.968 L0.248,4.968 C0.271,4.9725 0.2955,4.9815 0.323,4.9955 C0.714,5.1135 1.032,5.248 1.2775,5.398 L1.2775,4.0205 L1.2775,4.0135 C1.2595,4.009 1.241,4 1.223,3.986 C1.041,3.8815 0.8205,3.7835 0.5615,3.693 C0.4885,3.6655 0.409,3.6405 0.323,3.618 C0.291,3.604 0.2635,3.5925 0.241,3.5835 Z" id="Shape" fill="#EBD784"></path>
                            <path d="M0.684,2.165 C0.243,2.6835 0.034,3.0675 0.0565,3.3175 C0.0655,3.4355 0.127,3.5245 0.2405,3.5835 C0.2995,3.5155 0.368,3.447 0.445,3.379 C1.4725,2.3515 2.116,1.763 2.375,1.613 C2.6385,1.4675 2.9545,1.3945 3.323,1.3945 C3.696,1.3945 4.0165,1.4695 4.2845,1.6195 C4.548,1.765 4.68,1.94 4.68,2.1445 C4.68,2.1535 4.68,2.1605 4.68,2.165 C4.68,2.365 4.5525,2.5335 4.298,2.6695 C4.2025,2.7195 4.0845,2.781 3.9435,2.8535 C3.68,2.9855 3.3295,3.149 2.8935,3.3445 C2.43,3.549 1.891,3.772 1.2775,4.013 L1.2775,4.02 C1.3185,4.043 1.357,4.0655 1.3935,4.088 C1.648,4.2655 2.5665,4.045 4.1485,3.4265 C4.303,3.363 4.451,3.299 4.5915,3.2355 C5.0505,3.0445 5.419,2.867 5.6965,2.7035 C6.0965,2.4625 6.299,2.26 6.3035,2.0965 L6.3035,2.083 C6.3035,2.0555 6.299,2.0285 6.29,2.001 C6.1445,1.669 5.808,1.3575 5.2805,1.0665 C4.753,0.7755 4.1895,0.5915 3.5895,0.514 C2.9895,0.4365 2.53,0.4865 2.212,0.664 C1.889,0.8425 1.38,1.3425 0.684,2.165 Z" id="Shape" fill="#FEE581"></path>
                        </g>
                    </g>
                </g>
            </g>
            <g id="sweetcorn-copy-2" transform="translate(130.000000, 49.000000)">
                <g id="Group" transform="translate(8.950000, 0.325000)">
                    <g id="people_0_Layer4_0_FILL">
                        <g>
                            <path d="M1.3085,5.093 C1.3495,5.1155 1.388,5.1405 1.4245,5.168 C1.679,5.3455 2.5975,5.1225 4.1795,4.4995 C5.548,3.954 6.266,3.522 6.3345,3.204 C6.339,3.172 6.339,3.1425 6.3345,3.1155 L6.3345,1.7925 C6.33,1.956 6.1275,2.1585 5.7275,2.3995 C5.45,2.563 5.082,2.7405 4.6225,2.9315 C4.4815,2.995 4.334,3.059 4.1795,3.1225 C2.5975,3.741 1.679,3.9615 1.4245,3.784 C1.388,3.7615 1.3495,3.7385 1.3085,3.716 L1.3085,5.093 L1.3085,5.093 Z M0.272,3.279 C0.1585,3.22 0.097,3.1315 0.088,3.013 L0.081,4.3495 C0.081,4.3585 0.081,4.3655 0.081,4.37 C0.0855,4.502 0.149,4.5995 0.272,4.663 L0.272,3.279 L0.272,3.279 Z" id="Shape" fill="#EFCE48"></path>
                            <path d="M0.5925,3.388 C0.5195,3.3605 0.44,3.336 0.354,3.313 C0.322,3.2995 0.295,3.288 0.272,3.279 L0.272,4.6635 L0.279,4.6635 C0.302,4.668 0.3265,4.677 0.354,4.691 C0.745,4.809 1.063,4.9435 1.309,5.0935 L1.309,3.716 L1.309,3.709 C1.291,3.7045 1.2725,3.6955 1.2545,3.6815 C1.0725,3.577 0.852,3.479 0.5925,3.388 Z" id="Shape" fill="#EBD784"></path>
                            <path d="M3.3545,1.09 C2.986,1.09 2.67,1.1625 2.4065,1.308 C2.1475,1.458 1.504,2.047 0.4765,3.0745 C0.399,3.1425 0.331,3.211 0.272,3.279 C0.2945,3.288 0.322,3.2995 0.354,3.313 C0.4405,3.3355 0.52,3.3605 0.5925,3.388 C0.8515,3.479 1.072,3.5765 1.254,3.6815 C1.272,3.695 1.2905,3.704 1.3085,3.709 C1.922,3.468 2.461,3.2455 2.9245,3.0405 C3.361,2.845 3.711,2.6815 3.9745,2.5495 C4.1155,2.4765 4.2335,2.4155 4.329,2.3655 C4.5835,2.229 4.711,2.061 4.711,1.861 C4.711,1.8565 4.711,1.8495 4.711,1.8405 C4.711,1.636 4.579,1.461 4.3155,1.3155 C4.048,1.165 3.7275,1.09 3.3545,1.09 Z" id="Shape" fill="#FFF0B5"></path>
                            <path d="M2.4065,1.308 C2.67,1.1625 2.986,1.09 3.3545,1.09 C3.7275,1.09 4.048,1.165 4.316,1.315 C4.5795,1.4605 4.7115,1.6355 4.7115,1.84 C4.7115,1.849 4.7115,1.856 4.7115,1.8605 C4.7115,2.0605 4.584,2.2285 4.3295,2.365 C4.234,2.415 4.116,2.4765 3.975,2.549 C3.7115,2.681 3.361,2.8445 2.925,3.04 C2.4615,3.2445 1.9225,3.4675 1.309,3.7085 L1.309,3.7155 C1.35,3.738 1.3885,3.761 1.425,3.7835 C1.6795,3.961 2.598,3.7405 4.18,3.122 C4.3345,3.0585 4.4825,2.9945 4.623,2.931 C5.082,2.74 5.4505,2.5625 5.728,2.399 C6.128,2.158 6.3305,1.956 6.335,1.792 L6.335,1.7785 C6.335,1.7515 6.3305,1.724 6.3215,1.6965 C6.176,1.3645 5.8395,1.053 5.3125,0.762 C4.785,0.471 4.2215,0.287 3.621,0.2095 C3.0205,0.132 2.5615,0.182 2.2435,0.3595 C1.9205,0.537 1.4115,1.037 0.716,1.86 C0.275,2.3785 0.066,2.7625 0.0885,3.0125 C0.0975,3.1305 0.159,3.2195 0.2725,3.2785 C0.3315,3.2105 0.4,3.142 0.477,3.074 C1.504,2.047 2.1475,1.458 2.4065,1.308 Z" id="Shape" fill="#FEE581"></path>
                        </g>
                    </g>
                </g>
                <g id="Group" transform="translate(11.650000, 3.625000)">
                    <g id="people_0_Layer4_1_FILL">
                        <g>
                            <path d="M0.5385,3.6 C0.425,3.541 0.3635,3.4525 0.3545,3.334 L0.3475,4.6705 C0.3475,4.6795 0.3475,4.6865 0.3475,4.691 C0.352,4.823 0.4155,4.9205 0.5385,4.984 L0.5385,3.6 L0.5385,3.6 Z M5.994,2.7205 C5.7165,2.884 5.3485,3.0615 4.889,3.2525 C4.748,3.316 4.6005,3.38 4.446,3.4435 C2.864,4.062 1.9455,4.2825 1.691,4.105 C1.6545,4.0825 1.616,4.0595 1.575,4.037 L1.575,5.4145 C1.616,5.4375 1.6545,5.4625 1.691,5.4895 C1.9455,5.667 2.864,5.444 4.446,4.821 C5.8145,4.2755 6.5325,3.8435 6.601,3.5255 C6.6055,3.4935 6.6055,3.464 6.601,3.437 L6.601,2.114 C6.5965,2.277 6.3945,2.4795 5.994,2.7205 Z" id="Shape" fill="#EFCE48"></path>
                            <path d="M0.6205,3.634 C0.5885,3.6205 0.5615,3.609 0.5385,3.6 L0.5385,4.9845 L0.5455,4.9845 C0.568,4.989 0.593,4.998 0.6205,5.012 C1.0115,5.13 1.3295,5.2645 1.5755,5.4145 L1.5755,4.037 L1.5755,4.03 C1.5575,4.0255 1.539,4.0165 1.521,4.0025 C1.339,3.898 1.1185,3.8 0.8595,3.7095 C0.7865,3.682 0.707,3.657 0.6205,3.634 Z" id="Shape" fill="#EBD784"></path>
                            <path d="M4.978,2.1815 C4.978,2.177 4.978,2.17 4.978,2.161 C4.978,1.9565 4.846,1.7815 4.5825,1.636 C4.3145,1.486 3.994,1.411 3.621,1.411 C3.2525,1.411 2.9365,1.484 2.673,1.6295 C2.414,1.7795 1.7705,2.368 0.743,3.396 C0.6655,3.464 0.5975,3.5325 0.5385,3.6005 C0.5615,3.6095 0.5885,3.621 0.6205,3.6345 C0.707,3.657 0.7865,3.682 0.859,3.7095 C1.118,3.8005 1.3385,3.898 1.5205,4.0025 C1.5385,4.016 1.557,4.0255 1.575,4.03 C2.1885,3.789 2.7275,3.5665 3.191,3.3615 C3.6275,3.166 3.9775,3.0025 4.241,2.8705 C4.382,2.7975 4.5,2.7365 4.5955,2.6865 C4.851,2.55 4.978,2.3815 4.978,2.1815 Z" id="Shape" fill="#FFF0B5"></path>
                            <path d="M6.601,2.1135 L6.601,2.1 C6.601,2.0725 6.5965,2.0455 6.5875,2.018 C6.442,1.686 6.1055,1.3745 5.5785,1.0835 C5.051,0.7925 4.4875,0.6085 3.887,0.531 C3.287,0.4535 2.8275,0.5035 2.5095,0.681 C2.1865,0.8585 1.6775,1.3585 0.982,2.1815 C0.541,2.7 0.332,3.084 0.3545,3.334 C0.3635,3.452 0.425,3.541 0.5385,3.6 C0.5975,3.532 0.666,3.4635 0.743,3.3955 C1.7705,2.368 2.414,1.779 2.673,1.629 C2.9365,1.4835 3.2525,1.4105 3.621,1.4105 C3.994,1.4105 4.3145,1.4855 4.5825,1.6355 C4.846,1.781 4.978,1.956 4.978,2.1605 C4.978,2.1695 4.978,2.1765 4.978,2.181 C4.978,2.381 4.8505,2.5495 4.596,2.6855 C4.5005,2.7355 4.3825,2.797 4.2415,2.8695 C3.978,3.0015 3.6275,3.165 3.1915,3.3605 C2.728,3.565 2.189,3.788 1.5755,4.029 L1.5755,4.036 C1.6165,4.0585 1.655,4.0815 1.6915,4.104 C1.946,4.2815 2.8645,4.061 4.4465,3.4425 C4.601,3.379 4.749,3.315 4.8895,3.2515 C5.3485,3.0605 5.717,2.8835 5.9945,2.7195 C6.3945,2.4795 6.5965,2.277 6.601,2.1135 Z" id="Shape" fill="#FEE581"></path>
                        </g>
                    </g>
                </g>
                <g id="Group" transform="translate(0.450000, 0.825000)">
                    <g id="people_0_Layer4_2_FILL">
                        <g>
                            <path d="M1.3935,4.0885 C1.357,4.066 1.3185,4.043 1.2775,4.0205 L1.2775,5.398 C1.3185,5.4205 1.357,5.446 1.3935,5.473 C1.648,5.6505 2.5665,5.4275 4.1485,4.8045 C5.517,4.259 6.235,3.827 6.3035,3.509 C6.308,3.477 6.308,3.4475 6.3035,3.4205 L6.3035,2.0975 C6.299,2.261 6.0965,2.4635 5.6965,2.7045 C5.419,2.868 5.051,3.0455 4.5915,3.2365 C4.4505,3.3 4.303,3.364 4.1485,3.4275 C2.5665,4.045 1.648,4.2655 1.3935,4.0885 L1.3935,4.0885 Z M0.05,4.675 C0.0545,4.807 0.118,4.9045 0.241,4.968 L0.241,3.5835 C0.1275,3.5245 0.066,3.4355 0.057,3.3175 L0.05,4.654 C0.05,4.6635 0.05,4.67 0.05,4.675 Z" id="Shape" fill="#EFCE48"></path>
                            <path d="M0.241,3.5835 C0.2635,3.5925 0.291,3.604 0.323,3.6175 C0.4095,3.6405 0.489,3.6655 0.5615,3.6925 C0.8205,3.7835 1.041,3.881 1.223,3.9855 C1.241,3.999 1.2595,4.008 1.2775,4.013 C1.8915,3.772 2.43,3.549 2.8935,3.3445 C3.33,3.149 3.68,2.9855 3.9435,2.8535 C4.0845,2.7805 4.2025,2.7195 4.298,2.6695 C4.5525,2.533 4.68,2.365 4.68,2.165 C4.68,2.1605 4.68,2.1535 4.68,2.1445 C4.68,1.94 4.548,1.765 4.2845,1.6195 C4.0165,1.4695 3.696,1.3945 3.323,1.3945 C2.9545,1.3945 2.639,1.4675 2.375,1.613 C2.116,1.763 1.4725,2.3515 0.445,3.379 C0.368,3.447 0.3,3.5155 0.241,3.5835 Z" id="Shape" fill="#FFF0B5"></path>
                            <path d="M0.241,3.5835 L0.241,4.968 L0.248,4.968 C0.271,4.9725 0.2955,4.9815 0.323,4.9955 C0.714,5.1135 1.032,5.248 1.2775,5.398 L1.2775,4.0205 L1.2775,4.0135 C1.2595,4.009 1.241,4 1.223,3.986 C1.041,3.8815 0.8205,3.7835 0.5615,3.693 C0.4885,3.6655 0.409,3.6405 0.323,3.618 C0.291,3.604 0.2635,3.5925 0.241,3.5835 Z" id="Shape" fill="#EBD784"></path>
                            <path d="M0.684,2.165 C0.243,2.6835 0.034,3.0675 0.0565,3.3175 C0.0655,3.4355 0.127,3.5245 0.2405,3.5835 C0.2995,3.5155 0.368,3.447 0.445,3.379 C1.4725,2.3515 2.116,1.763 2.375,1.613 C2.6385,1.4675 2.9545,1.3945 3.323,1.3945 C3.696,1.3945 4.0165,1.4695 4.2845,1.6195 C4.548,1.765 4.68,1.94 4.68,2.1445 C4.68,2.1535 4.68,2.1605 4.68,2.165 C4.68,2.365 4.5525,2.5335 4.298,2.6695 C4.2025,2.7195 4.0845,2.781 3.9435,2.8535 C3.68,2.9855 3.3295,3.149 2.8935,3.3445 C2.43,3.549 1.891,3.772 1.2775,4.013 L1.2775,4.02 C1.3185,4.043 1.357,4.0655 1.3935,4.088 C1.648,4.2655 2.5665,4.045 4.1485,3.4265 C4.303,3.363 4.451,3.299 4.5915,3.2355 C5.0505,3.0445 5.419,2.867 5.6965,2.7035 C6.0965,2.4625 6.299,2.26 6.3035,2.0965 L6.3035,2.083 C6.3035,2.0555 6.299,2.0285 6.29,2.001 C6.1445,1.669 5.808,1.3575 5.2805,1.0665 C4.753,0.7755 4.1895,0.5915 3.5895,0.514 C2.9895,0.4365 2.53,0.4865 2.212,0.664 C1.889,0.8425 1.38,1.3425 0.684,2.165 Z" id="Shape" fill="#FEE581"></path>
                        </g>
                    </g>
                </g>
            </g>
            <g id="sweetcorn-copy-3" transform="translate(103.000000, 64.000000)">
                <g id="Group" transform="translate(8.950000, 0.325000)">
                    <g id="people_0_Layer4_0_FILL">
                        <g>
                            <path d="M1.3085,5.093 C1.3495,5.1155 1.388,5.1405 1.4245,5.168 C1.679,5.3455 2.5975,5.1225 4.1795,4.4995 C5.548,3.954 6.266,3.522 6.3345,3.204 C6.339,3.172 6.339,3.1425 6.3345,3.1155 L6.3345,1.7925 C6.33,1.956 6.1275,2.1585 5.7275,2.3995 C5.45,2.563 5.082,2.7405 4.6225,2.9315 C4.4815,2.995 4.334,3.059 4.1795,3.1225 C2.5975,3.741 1.679,3.9615 1.4245,3.784 C1.388,3.7615 1.3495,3.7385 1.3085,3.716 L1.3085,5.093 L1.3085,5.093 Z M0.272,3.279 C0.1585,3.22 0.097,3.1315 0.088,3.013 L0.081,4.3495 C0.081,4.3585 0.081,4.3655 0.081,4.37 C0.0855,4.502 0.149,4.5995 0.272,4.663 L0.272,3.279 L0.272,3.279 Z" id="Shape" fill="#EFCE48"></path>
                            <path d="M0.5925,3.388 C0.5195,3.3605 0.44,3.336 0.354,3.313 C0.322,3.2995 0.295,3.288 0.272,3.279 L0.272,4.6635 L0.279,4.6635 C0.302,4.668 0.3265,4.677 0.354,4.691 C0.745,4.809 1.063,4.9435 1.309,5.0935 L1.309,3.716 L1.309,3.709 C1.291,3.7045 1.2725,3.6955 1.2545,3.6815 C1.0725,3.577 0.852,3.479 0.5925,3.388 Z" id="Shape" fill="#EBD784"></path>
                            <path d="M3.3545,1.09 C2.986,1.09 2.67,1.1625 2.4065,1.308 C2.1475,1.458 1.504,2.047 0.4765,3.0745 C0.399,3.1425 0.331,3.211 0.272,3.279 C0.2945,3.288 0.322,3.2995 0.354,3.313 C0.4405,3.3355 0.52,3.3605 0.5925,3.388 C0.8515,3.479 1.072,3.5765 1.254,3.6815 C1.272,3.695 1.2905,3.704 1.3085,3.709 C1.922,3.468 2.461,3.2455 2.9245,3.0405 C3.361,2.845 3.711,2.6815 3.9745,2.5495 C4.1155,2.4765 4.2335,2.4155 4.329,2.3655 C4.5835,2.229 4.711,2.061 4.711,1.861 C4.711,1.8565 4.711,1.8495 4.711,1.8405 C4.711,1.636 4.579,1.461 4.3155,1.3155 C4.048,1.165 3.7275,1.09 3.3545,1.09 Z" id="Shape" fill="#FFF0B5"></path>
                            <path d="M2.4065,1.308 C2.67,1.1625 2.986,1.09 3.3545,1.09 C3.7275,1.09 4.048,1.165 4.316,1.315 C4.5795,1.4605 4.7115,1.6355 4.7115,1.84 C4.7115,1.849 4.7115,1.856 4.7115,1.8605 C4.7115,2.0605 4.584,2.2285 4.3295,2.365 C4.234,2.415 4.116,2.4765 3.975,2.549 C3.7115,2.681 3.361,2.8445 2.925,3.04 C2.4615,3.2445 1.9225,3.4675 1.309,3.7085 L1.309,3.7155 C1.35,3.738 1.3885,3.761 1.425,3.7835 C1.6795,3.961 2.598,3.7405 4.18,3.122 C4.3345,3.0585 4.4825,2.9945 4.623,2.931 C5.082,2.74 5.4505,2.5625 5.728,2.399 C6.128,2.158 6.3305,1.956 6.335,1.792 L6.335,1.7785 C6.335,1.7515 6.3305,1.724 6.3215,1.6965 C6.176,1.3645 5.8395,1.053 5.3125,0.762 C4.785,0.471 4.2215,0.287 3.621,0.2095 C3.0205,0.132 2.5615,0.182 2.2435,0.3595 C1.9205,0.537 1.4115,1.037 0.716,1.86 C0.275,2.3785 0.066,2.7625 0.0885,3.0125 C0.0975,3.1305 0.159,3.2195 0.2725,3.2785 C0.3315,3.2105 0.4,3.142 0.477,3.074 C1.504,2.047 2.1475,1.458 2.4065,1.308 Z" id="Shape" fill="#FEE581"></path>
                        </g>
                    </g>
                </g>
                <g id="Group" transform="translate(11.650000, 3.625000)">
                    <g id="people_0_Layer4_1_FILL">
                        <g>
                            <path d="M0.5385,3.6 C0.425,3.541 0.3635,3.4525 0.3545,3.334 L0.3475,4.6705 C0.3475,4.6795 0.3475,4.6865 0.3475,4.691 C0.352,4.823 0.4155,4.9205 0.5385,4.984 L0.5385,3.6 L0.5385,3.6 Z M5.994,2.7205 C5.7165,2.884 5.3485,3.0615 4.889,3.2525 C4.748,3.316 4.6005,3.38 4.446,3.4435 C2.864,4.062 1.9455,4.2825 1.691,4.105 C1.6545,4.0825 1.616,4.0595 1.575,4.037 L1.575,5.4145 C1.616,5.4375 1.6545,5.4625 1.691,5.4895 C1.9455,5.667 2.864,5.444 4.446,4.821 C5.8145,4.2755 6.5325,3.8435 6.601,3.5255 C6.6055,3.4935 6.6055,3.464 6.601,3.437 L6.601,2.114 C6.5965,2.277 6.3945,2.4795 5.994,2.7205 Z" id="Shape" fill="#EFCE48"></path>
                            <path d="M0.6205,3.634 C0.5885,3.6205 0.5615,3.609 0.5385,3.6 L0.5385,4.9845 L0.5455,4.9845 C0.568,4.989 0.593,4.998 0.6205,5.012 C1.0115,5.13 1.3295,5.2645 1.5755,5.4145 L1.5755,4.037 L1.5755,4.03 C1.5575,4.0255 1.539,4.0165 1.521,4.0025 C1.339,3.898 1.1185,3.8 0.8595,3.7095 C0.7865,3.682 0.707,3.657 0.6205,3.634 Z" id="Shape" fill="#EBD784"></path>
                            <path d="M4.978,2.1815 C4.978,2.177 4.978,2.17 4.978,2.161 C4.978,1.9565 4.846,1.7815 4.5825,1.636 C4.3145,1.486 3.994,1.411 3.621,1.411 C3.2525,1.411 2.9365,1.484 2.673,1.6295 C2.414,1.7795 1.7705,2.368 0.743,3.396 C0.6655,3.464 0.5975,3.5325 0.5385,3.6005 C0.5615,3.6095 0.5885,3.621 0.6205,3.6345 C0.707,3.657 0.7865,3.682 0.859,3.7095 C1.118,3.8005 1.3385,3.898 1.5205,4.0025 C1.5385,4.016 1.557,4.0255 1.575,4.03 C2.1885,3.789 2.7275,3.5665 3.191,3.3615 C3.6275,3.166 3.9775,3.0025 4.241,2.8705 C4.382,2.7975 4.5,2.7365 4.5955,2.6865 C4.851,2.55 4.978,2.3815 4.978,2.1815 Z" id="Shape" fill="#FFF0B5"></path>
                            <path d="M6.601,2.1135 L6.601,2.1 C6.601,2.0725 6.5965,2.0455 6.5875,2.018 C6.442,1.686 6.1055,1.3745 5.5785,1.0835 C5.051,0.7925 4.4875,0.6085 3.887,0.531 C3.287,0.4535 2.8275,0.5035 2.5095,0.681 C2.1865,0.8585 1.6775,1.3585 0.982,2.1815 C0.541,2.7 0.332,3.084 0.3545,3.334 C0.3635,3.452 0.425,3.541 0.5385,3.6 C0.5975,3.532 0.666,3.4635 0.743,3.3955 C1.7705,2.368 2.414,1.779 2.673,1.629 C2.9365,1.4835 3.2525,1.4105 3.621,1.4105 C3.994,1.4105 4.3145,1.4855 4.5825,1.6355 C4.846,1.781 4.978,1.956 4.978,2.1605 C4.978,2.1695 4.978,2.1765 4.978,2.181 C4.978,2.381 4.8505,2.5495 4.596,2.6855 C4.5005,2.7355 4.3825,2.797 4.2415,2.8695 C3.978,3.0015 3.6275,3.165 3.1915,3.3605 C2.728,3.565 2.189,3.788 1.5755,4.029 L1.5755,4.036 C1.6165,4.0585 1.655,4.0815 1.6915,4.104 C1.946,4.2815 2.8645,4.061 4.4465,3.4425 C4.601,3.379 4.749,3.315 4.8895,3.2515 C5.3485,3.0605 5.717,2.8835 5.9945,2.7195 C6.3945,2.4795 6.5965,2.277 6.601,2.1135 Z" id="Shape" fill="#FEE581"></path>
                        </g>
                    </g>
                </g>
                <g id="Group" transform="translate(0.450000, 0.825000)">
                    <g id="people_0_Layer4_2_FILL">
                        <g>
                            <path d="M1.3935,4.0885 C1.357,4.066 1.3185,4.043 1.2775,4.0205 L1.2775,5.398 C1.3185,5.4205 1.357,5.446 1.3935,5.473 C1.648,5.6505 2.5665,5.4275 4.1485,4.8045 C5.517,4.259 6.235,3.827 6.3035,3.509 C6.308,3.477 6.308,3.4475 6.3035,3.4205 L6.3035,2.0975 C6.299,2.261 6.0965,2.4635 5.6965,2.7045 C5.419,2.868 5.051,3.0455 4.5915,3.2365 C4.4505,3.3 4.303,3.364 4.1485,3.4275 C2.5665,4.045 1.648,4.2655 1.3935,4.0885 L1.3935,4.0885 Z M0.05,4.675 C0.0545,4.807 0.118,4.9045 0.241,4.968 L0.241,3.5835 C0.1275,3.5245 0.066,3.4355 0.057,3.3175 L0.05,4.654 C0.05,4.6635 0.05,4.67 0.05,4.675 Z" id="Shape" fill="#EFCE48"></path>
                            <path d="M0.241,3.5835 C0.2635,3.5925 0.291,3.604 0.323,3.6175 C0.4095,3.6405 0.489,3.6655 0.5615,3.6925 C0.8205,3.7835 1.041,3.881 1.223,3.9855 C1.241,3.999 1.2595,4.008 1.2775,4.013 C1.8915,3.772 2.43,3.549 2.8935,3.3445 C3.33,3.149 3.68,2.9855 3.9435,2.8535 C4.0845,2.7805 4.2025,2.7195 4.298,2.6695 C4.5525,2.533 4.68,2.365 4.68,2.165 C4.68,2.1605 4.68,2.1535 4.68,2.1445 C4.68,1.94 4.548,1.765 4.2845,1.6195 C4.0165,1.4695 3.696,1.3945 3.323,1.3945 C2.9545,1.3945 2.639,1.4675 2.375,1.613 C2.116,1.763 1.4725,2.3515 0.445,3.379 C0.368,3.447 0.3,3.5155 0.241,3.5835 Z" id="Shape" fill="#FFF0B5"></path>
                            <path d="M0.241,3.5835 L0.241,4.968 L0.248,4.968 C0.271,4.9725 0.2955,4.9815 0.323,4.9955 C0.714,5.1135 1.032,5.248 1.2775,5.398 L1.2775,4.0205 L1.2775,4.0135 C1.2595,4.009 1.241,4 1.223,3.986 C1.041,3.8815 0.8205,3.7835 0.5615,3.693 C0.4885,3.6655 0.409,3.6405 0.323,3.618 C0.291,3.604 0.2635,3.5925 0.241,3.5835 Z" id="Shape" fill="#EBD784"></path>
                            <path d="M0.684,2.165 C0.243,2.6835 0.034,3.0675 0.0565,3.3175 C0.0655,3.4355 0.127,3.5245 0.2405,3.5835 C0.2995,3.5155 0.368,3.447 0.445,3.379 C1.4725,2.3515 2.116,1.763 2.375,1.613 C2.6385,1.4675 2.9545,1.3945 3.323,1.3945 C3.696,1.3945 4.0165,1.4695 4.2845,1.6195 C4.548,1.765 4.68,1.94 4.68,2.1445 C4.68,2.1535 4.68,2.1605 4.68,2.165 C4.68,2.365 4.5525,2.5335 4.298,2.6695 C4.2025,2.7195 4.0845,2.781 3.9435,2.8535 C3.68,2.9855 3.3295,3.149 2.8935,3.3445 C2.43,3.549 1.891,3.772 1.2775,4.013 L1.2775,4.02 C1.3185,4.043 1.357,4.0655 1.3935,4.088 C1.648,4.2655 2.5665,4.045 4.1485,3.4265 C4.303,3.363 4.451,3.299 4.5915,3.2355 C5.0505,3.0445 5.419,2.867 5.6965,2.7035 C6.0965,2.4625 6.299,2.26 6.3035,2.0965 L6.3035,2.083 C6.3035,2.0555 6.299,2.0285 6.29,2.001 C6.1445,1.669 5.808,1.3575 5.2805,1.0665 C4.753,0.7755 4.1895,0.5915 3.5895,0.514 C2.9895,0.4365 2.53,0.4865 2.212,0.664 C1.889,0.8425 1.38,1.3425 0.684,2.165 Z" id="Shape" fill="#FEE581"></path>
                        </g>
                    </g>
                </g>
            </g>
            <g id="sweetcorn-copy-4" transform="translate(136.000000, 67.000000)">
                <g id="Group" transform="translate(8.950000, 0.325000)">
                    <g id="people_0_Layer4_0_FILL">
                        <g>
                            <path d="M1.3085,5.093 C1.3495,5.1155 1.388,5.1405 1.4245,5.168 C1.679,5.3455 2.5975,5.1225 4.1795,4.4995 C5.548,3.954 6.266,3.522 6.3345,3.204 C6.339,3.172 6.339,3.1425 6.3345,3.1155 L6.3345,1.7925 C6.33,1.956 6.1275,2.1585 5.7275,2.3995 C5.45,2.563 5.082,2.7405 4.6225,2.9315 C4.4815,2.995 4.334,3.059 4.1795,3.1225 C2.5975,3.741 1.679,3.9615 1.4245,3.784 C1.388,3.7615 1.3495,3.7385 1.3085,3.716 L1.3085,5.093 L1.3085,5.093 Z M0.272,3.279 C0.1585,3.22 0.097,3.1315 0.088,3.013 L0.081,4.3495 C0.081,4.3585 0.081,4.3655 0.081,4.37 C0.0855,4.502 0.149,4.5995 0.272,4.663 L0.272,3.279 L0.272,3.279 Z" id="Shape" fill="#EFCE48"></path>
                            <path d="M0.5925,3.388 C0.5195,3.3605 0.44,3.336 0.354,3.313 C0.322,3.2995 0.295,3.288 0.272,3.279 L0.272,4.6635 L0.279,4.6635 C0.302,4.668 0.3265,4.677 0.354,4.691 C0.745,4.809 1.063,4.9435 1.309,5.0935 L1.309,3.716 L1.309,3.709 C1.291,3.7045 1.2725,3.6955 1.2545,3.6815 C1.0725,3.577 0.852,3.479 0.5925,3.388 Z" id="Shape" fill="#EBD784"></path>
                            <path d="M3.3545,1.09 C2.986,1.09 2.67,1.1625 2.4065,1.308 C2.1475,1.458 1.504,2.047 0.4765,3.0745 C0.399,3.1425 0.331,3.211 0.272,3.279 C0.2945,3.288 0.322,3.2995 0.354,3.313 C0.4405,3.3355 0.52,3.3605 0.5925,3.388 C0.8515,3.479 1.072,3.5765 1.254,3.6815 C1.272,3.695 1.2905,3.704 1.3085,3.709 C1.922,3.468 2.461,3.2455 2.9245,3.0405 C3.361,2.845 3.711,2.6815 3.9745,2.5495 C4.1155,2.4765 4.2335,2.4155 4.329,2.3655 C4.5835,2.229 4.711,2.061 4.711,1.861 C4.711,1.8565 4.711,1.8495 4.711,1.8405 C4.711,1.636 4.579,1.461 4.3155,1.3155 C4.048,1.165 3.7275,1.09 3.3545,1.09 Z" id="Shape" fill="#FFF0B5"></path>
                            <path d="M2.4065,1.308 C2.67,1.1625 2.986,1.09 3.3545,1.09 C3.7275,1.09 4.048,1.165 4.316,1.315 C4.5795,1.4605 4.7115,1.6355 4.7115,1.84 C4.7115,1.849 4.7115,1.856 4.7115,1.8605 C4.7115,2.0605 4.584,2.2285 4.3295,2.365 C4.234,2.415 4.116,2.4765 3.975,2.549 C3.7115,2.681 3.361,2.8445 2.925,3.04 C2.4615,3.2445 1.9225,3.4675 1.309,3.7085 L1.309,3.7155 C1.35,3.738 1.3885,3.761 1.425,3.7835 C1.6795,3.961 2.598,3.7405 4.18,3.122 C4.3345,3.0585 4.4825,2.9945 4.623,2.931 C5.082,2.74 5.4505,2.5625 5.728,2.399 C6.128,2.158 6.3305,1.956 6.335,1.792 L6.335,1.7785 C6.335,1.7515 6.3305,1.724 6.3215,1.6965 C6.176,1.3645 5.8395,1.053 5.3125,0.762 C4.785,0.471 4.2215,0.287 3.621,0.2095 C3.0205,0.132 2.5615,0.182 2.2435,0.3595 C1.9205,0.537 1.4115,1.037 0.716,1.86 C0.275,2.3785 0.066,2.7625 0.0885,3.0125 C0.0975,3.1305 0.159,3.2195 0.2725,3.2785 C0.3315,3.2105 0.4,3.142 0.477,3.074 C1.504,2.047 2.1475,1.458 2.4065,1.308 Z" id="Shape" fill="#FEE581"></path>
                        </g>
                    </g>
                </g>
                <g id="Group" transform="translate(11.650000, 3.625000)">
                    <g id="people_0_Layer4_1_FILL">
                        <g>
                            <path d="M0.5385,3.6 C0.425,3.541 0.3635,3.4525 0.3545,3.334 L0.3475,4.6705 C0.3475,4.6795 0.3475,4.6865 0.3475,4.691 C0.352,4.823 0.4155,4.9205 0.5385,4.984 L0.5385,3.6 L0.5385,3.6 Z M5.994,2.7205 C5.7165,2.884 5.3485,3.0615 4.889,3.2525 C4.748,3.316 4.6005,3.38 4.446,3.4435 C2.864,4.062 1.9455,4.2825 1.691,4.105 C1.6545,4.0825 1.616,4.0595 1.575,4.037 L1.575,5.4145 C1.616,5.4375 1.6545,5.4625 1.691,5.4895 C1.9455,5.667 2.864,5.444 4.446,4.821 C5.8145,4.2755 6.5325,3.8435 6.601,3.5255 C6.6055,3.4935 6.6055,3.464 6.601,3.437 L6.601,2.114 C6.5965,2.277 6.3945,2.4795 5.994,2.7205 Z" id="Shape" fill="#EFCE48"></path>
                            <path d="M0.6205,3.634 C0.5885,3.6205 0.5615,3.609 0.5385,3.6 L0.5385,4.9845 L0.5455,4.9845 C0.568,4.989 0.593,4.998 0.6205,5.012 C1.0115,5.13 1.3295,5.2645 1.5755,5.4145 L1.5755,4.037 L1.5755,4.03 C1.5575,4.0255 1.539,4.0165 1.521,4.0025 C1.339,3.898 1.1185,3.8 0.8595,3.7095 C0.7865,3.682 0.707,3.657 0.6205,3.634 Z" id="Shape" fill="#EBD784"></path>
                            <path d="M4.978,2.1815 C4.978,2.177 4.978,2.17 4.978,2.161 C4.978,1.9565 4.846,1.7815 4.5825,1.636 C4.3145,1.486 3.994,1.411 3.621,1.411 C3.2525,1.411 2.9365,1.484 2.673,1.6295 C2.414,1.7795 1.7705,2.368 0.743,3.396 C0.6655,3.464 0.5975,3.5325 0.5385,3.6005 C0.5615,3.6095 0.5885,3.621 0.6205,3.6345 C0.707,3.657 0.7865,3.682 0.859,3.7095 C1.118,3.8005 1.3385,3.898 1.5205,4.0025 C1.5385,4.016 1.557,4.0255 1.575,4.03 C2.1885,3.789 2.7275,3.5665 3.191,3.3615 C3.6275,3.166 3.9775,3.0025 4.241,2.8705 C4.382,2.7975 4.5,2.7365 4.5955,2.6865 C4.851,2.55 4.978,2.3815 4.978,2.1815 Z" id="Shape" fill="#FFF0B5"></path>
                            <path d="M6.601,2.1135 L6.601,2.1 C6.601,2.0725 6.5965,2.0455 6.5875,2.018 C6.442,1.686 6.1055,1.3745 5.5785,1.0835 C5.051,0.7925 4.4875,0.6085 3.887,0.531 C3.287,0.4535 2.8275,0.5035 2.5095,0.681 C2.1865,0.8585 1.6775,1.3585 0.982,2.1815 C0.541,2.7 0.332,3.084 0.3545,3.334 C0.3635,3.452 0.425,3.541 0.5385,3.6 C0.5975,3.532 0.666,3.4635 0.743,3.3955 C1.7705,2.368 2.414,1.779 2.673,1.629 C2.9365,1.4835 3.2525,1.4105 3.621,1.4105 C3.994,1.4105 4.3145,1.4855 4.5825,1.6355 C4.846,1.781 4.978,1.956 4.978,2.1605 C4.978,2.1695 4.978,2.1765 4.978,2.181 C4.978,2.381 4.8505,2.5495 4.596,2.6855 C4.5005,2.7355 4.3825,2.797 4.2415,2.8695 C3.978,3.0015 3.6275,3.165 3.1915,3.3605 C2.728,3.565 2.189,3.788 1.5755,4.029 L1.5755,4.036 C1.6165,4.0585 1.655,4.0815 1.6915,4.104 C1.946,4.2815 2.8645,4.061 4.4465,3.4425 C4.601,3.379 4.749,3.315 4.8895,3.2515 C5.3485,3.0605 5.717,2.8835 5.9945,2.7195 C6.3945,2.4795 6.5965,2.277 6.601,2.1135 Z" id="Shape" fill="#FEE581"></path>
                        </g>
                    </g>
                </g>
                <g id="Group" transform="translate(0.450000, 0.825000)">
                    <g id="people_0_Layer4_2_FILL">
                        <g>
                            <path d="M1.3935,4.0885 C1.357,4.066 1.3185,4.043 1.2775,4.0205 L1.2775,5.398 C1.3185,5.4205 1.357,5.446 1.3935,5.473 C1.648,5.6505 2.5665,5.4275 4.1485,4.8045 C5.517,4.259 6.235,3.827 6.3035,3.509 C6.308,3.477 6.308,3.4475 6.3035,3.4205 L6.3035,2.0975 C6.299,2.261 6.0965,2.4635 5.6965,2.7045 C5.419,2.868 5.051,3.0455 4.5915,3.2365 C4.4505,3.3 4.303,3.364 4.1485,3.4275 C2.5665,4.045 1.648,4.2655 1.3935,4.0885 L1.3935,4.0885 Z M0.05,4.675 C0.0545,4.807 0.118,4.9045 0.241,4.968 L0.241,3.5835 C0.1275,3.5245 0.066,3.4355 0.057,3.3175 L0.05,4.654 C0.05,4.6635 0.05,4.67 0.05,4.675 Z" id="Shape" fill="#EFCE48"></path>
                            <path d="M0.241,3.5835 C0.2635,3.5925 0.291,3.604 0.323,3.6175 C0.4095,3.6405 0.489,3.6655 0.5615,3.6925 C0.8205,3.7835 1.041,3.881 1.223,3.9855 C1.241,3.999 1.2595,4.008 1.2775,4.013 C1.8915,3.772 2.43,3.549 2.8935,3.3445 C3.33,3.149 3.68,2.9855 3.9435,2.8535 C4.0845,2.7805 4.2025,2.7195 4.298,2.6695 C4.5525,2.533 4.68,2.365 4.68,2.165 C4.68,2.1605 4.68,2.1535 4.68,2.1445 C4.68,1.94 4.548,1.765 4.2845,1.6195 C4.0165,1.4695 3.696,1.3945 3.323,1.3945 C2.9545,1.3945 2.639,1.4675 2.375,1.613 C2.116,1.763 1.4725,2.3515 0.445,3.379 C0.368,3.447 0.3,3.5155 0.241,3.5835 Z" id="Shape" fill="#FFF0B5"></path>
                            <path d="M0.241,3.5835 L0.241,4.968 L0.248,4.968 C0.271,4.9725 0.2955,4.9815 0.323,4.9955 C0.714,5.1135 1.032,5.248 1.2775,5.398 L1.2775,4.0205 L1.2775,4.0135 C1.2595,4.009 1.241,4 1.223,3.986 C1.041,3.8815 0.8205,3.7835 0.5615,3.693 C0.4885,3.6655 0.409,3.6405 0.323,3.618 C0.291,3.604 0.2635,3.5925 0.241,3.5835 Z" id="Shape" fill="#EBD784"></path>
                            <path d="M0.684,2.165 C0.243,2.6835 0.034,3.0675 0.0565,3.3175 C0.0655,3.4355 0.127,3.5245 0.2405,3.5835 C0.2995,3.5155 0.368,3.447 0.445,3.379 C1.4725,2.3515 2.116,1.763 2.375,1.613 C2.6385,1.4675 2.9545,1.3945 3.323,1.3945 C3.696,1.3945 4.0165,1.4695 4.2845,1.6195 C4.548,1.765 4.68,1.94 4.68,2.1445 C4.68,2.1535 4.68,2.1605 4.68,2.165 C4.68,2.365 4.5525,2.5335 4.298,2.6695 C4.2025,2.7195 4.0845,2.781 3.9435,2.8535 C3.68,2.9855 3.3295,3.149 2.8935,3.3445 C2.43,3.549 1.891,3.772 1.2775,4.013 L1.2775,4.02 C1.3185,4.043 1.357,4.0655 1.3935,4.088 C1.648,4.2655 2.5665,4.045 4.1485,3.4265 C4.303,3.363 4.451,3.299 4.5915,3.2355 C5.0505,3.0445 5.419,2.867 5.6965,2.7035 C6.0965,2.4625 6.299,2.26 6.3035,2.0965 L6.3035,2.083 C6.3035,2.0555 6.299,2.0285 6.29,2.001 C6.1445,1.669 5.808,1.3575 5.2805,1.0665 C4.753,0.7755 4.1895,0.5915 3.5895,0.514 C2.9895,0.4365 2.53,0.4865 2.212,0.664 C1.889,0.8425 1.38,1.3425 0.684,2.165 Z" id="Shape" fill="#FEE581"></path>
                        </g>
                    </g>
                </g>
            </g>
            <g id="sweetcorn-copy-5" transform="translate(155.000000, 48.000000)">
                <g id="Group" transform="translate(8.950000, 0.325000)">
                    <g id="people_0_Layer4_0_FILL">
                        <g>
                            <path d="M1.3085,5.093 C1.3495,5.1155 1.388,5.1405 1.4245,5.168 C1.679,5.3455 2.5975,5.1225 4.1795,4.4995 C5.548,3.954 6.266,3.522 6.3345,3.204 C6.339,3.172 6.339,3.1425 6.3345,3.1155 L6.3345,1.7925 C6.33,1.956 6.1275,2.1585 5.7275,2.3995 C5.45,2.563 5.082,2.7405 4.6225,2.9315 C4.4815,2.995 4.334,3.059 4.1795,3.1225 C2.5975,3.741 1.679,3.9615 1.4245,3.784 C1.388,3.7615 1.3495,3.7385 1.3085,3.716 L1.3085,5.093 L1.3085,5.093 Z M0.272,3.279 C0.1585,3.22 0.097,3.1315 0.088,3.013 L0.081,4.3495 C0.081,4.3585 0.081,4.3655 0.081,4.37 C0.0855,4.502 0.149,4.5995 0.272,4.663 L0.272,3.279 L0.272,3.279 Z" id="Shape" fill="#EFCE48"></path>
                            <path d="M0.5925,3.388 C0.5195,3.3605 0.44,3.336 0.354,3.313 C0.322,3.2995 0.295,3.288 0.272,3.279 L0.272,4.6635 L0.279,4.6635 C0.302,4.668 0.3265,4.677 0.354,4.691 C0.745,4.809 1.063,4.9435 1.309,5.0935 L1.309,3.716 L1.309,3.709 C1.291,3.7045 1.2725,3.6955 1.2545,3.6815 C1.0725,3.577 0.852,3.479 0.5925,3.388 Z" id="Shape" fill="#EBD784"></path>
                            <path d="M3.3545,1.09 C2.986,1.09 2.67,1.1625 2.4065,1.308 C2.1475,1.458 1.504,2.047 0.4765,3.0745 C0.399,3.1425 0.331,3.211 0.272,3.279 C0.2945,3.288 0.322,3.2995 0.354,3.313 C0.4405,3.3355 0.52,3.3605 0.5925,3.388 C0.8515,3.479 1.072,3.5765 1.254,3.6815 C1.272,3.695 1.2905,3.704 1.3085,3.709 C1.922,3.468 2.461,3.2455 2.9245,3.0405 C3.361,2.845 3.711,2.6815 3.9745,2.5495 C4.1155,2.4765 4.2335,2.4155 4.329,2.3655 C4.5835,2.229 4.711,2.061 4.711,1.861 C4.711,1.8565 4.711,1.8495 4.711,1.8405 C4.711,1.636 4.579,1.461 4.3155,1.3155 C4.048,1.165 3.7275,1.09 3.3545,1.09 Z" id="Shape" fill="#FFF0B5"></path>
                            <path d="M2.4065,1.308 C2.67,1.1625 2.986,1.09 3.3545,1.09 C3.7275,1.09 4.048,1.165 4.316,1.315 C4.5795,1.4605 4.7115,1.6355 4.7115,1.84 C4.7115,1.849 4.7115,1.856 4.7115,1.8605 C4.7115,2.0605 4.584,2.2285 4.3295,2.365 C4.234,2.415 4.116,2.4765 3.975,2.549 C3.7115,2.681 3.361,2.8445 2.925,3.04 C2.4615,3.2445 1.9225,3.4675 1.309,3.7085 L1.309,3.7155 C1.35,3.738 1.3885,3.761 1.425,3.7835 C1.6795,3.961 2.598,3.7405 4.18,3.122 C4.3345,3.0585 4.4825,2.9945 4.623,2.931 C5.082,2.74 5.4505,2.5625 5.728,2.399 C6.128,2.158 6.3305,1.956 6.335,1.792 L6.335,1.7785 C6.335,1.7515 6.3305,1.724 6.3215,1.6965 C6.176,1.3645 5.8395,1.053 5.3125,0.762 C4.785,0.471 4.2215,0.287 3.621,0.2095 C3.0205,0.132 2.5615,0.182 2.2435,0.3595 C1.9205,0.537 1.4115,1.037 0.716,1.86 C0.275,2.3785 0.066,2.7625 0.0885,3.0125 C0.0975,3.1305 0.159,3.2195 0.2725,3.2785 C0.3315,3.2105 0.4,3.142 0.477,3.074 C1.504,2.047 2.1475,1.458 2.4065,1.308 Z" id="Shape" fill="#FEE581"></path>
                        </g>
                    </g>
                </g>
                <g id="Group" transform="translate(11.650000, 3.625000)">
                    <g id="people_0_Layer4_1_FILL">
                        <g>
                            <path d="M0.5385,3.6 C0.425,3.541 0.3635,3.4525 0.3545,3.334 L0.3475,4.6705 C0.3475,4.6795 0.3475,4.6865 0.3475,4.691 C0.352,4.823 0.4155,4.9205 0.5385,4.984 L0.5385,3.6 L0.5385,3.6 Z M5.994,2.7205 C5.7165,2.884 5.3485,3.0615 4.889,3.2525 C4.748,3.316 4.6005,3.38 4.446,3.4435 C2.864,4.062 1.9455,4.2825 1.691,4.105 C1.6545,4.0825 1.616,4.0595 1.575,4.037 L1.575,5.4145 C1.616,5.4375 1.6545,5.4625 1.691,5.4895 C1.9455,5.667 2.864,5.444 4.446,4.821 C5.8145,4.2755 6.5325,3.8435 6.601,3.5255 C6.6055,3.4935 6.6055,3.464 6.601,3.437 L6.601,2.114 C6.5965,2.277 6.3945,2.4795 5.994,2.7205 Z" id="Shape" fill="#EFCE48"></path>
                            <path d="M0.6205,3.634 C0.5885,3.6205 0.5615,3.609 0.5385,3.6 L0.5385,4.9845 L0.5455,4.9845 C0.568,4.989 0.593,4.998 0.6205,5.012 C1.0115,5.13 1.3295,5.2645 1.5755,5.4145 L1.5755,4.037 L1.5755,4.03 C1.5575,4.0255 1.539,4.0165 1.521,4.0025 C1.339,3.898 1.1185,3.8 0.8595,3.7095 C0.7865,3.682 0.707,3.657 0.6205,3.634 Z" id="Shape" fill="#EBD784"></path>
                            <path d="M4.978,2.1815 C4.978,2.177 4.978,2.17 4.978,2.161 C4.978,1.9565 4.846,1.7815 4.5825,1.636 C4.3145,1.486 3.994,1.411 3.621,1.411 C3.2525,1.411 2.9365,1.484 2.673,1.6295 C2.414,1.7795 1.7705,2.368 0.743,3.396 C0.6655,3.464 0.5975,3.5325 0.5385,3.6005 C0.5615,3.6095 0.5885,3.621 0.6205,3.6345 C0.707,3.657 0.7865,3.682 0.859,3.7095 C1.118,3.8005 1.3385,3.898 1.5205,4.0025 C1.5385,4.016 1.557,4.0255 1.575,4.03 C2.1885,3.789 2.7275,3.5665 3.191,3.3615 C3.6275,3.166 3.9775,3.0025 4.241,2.8705 C4.382,2.7975 4.5,2.7365 4.5955,2.6865 C4.851,2.55 4.978,2.3815 4.978,2.1815 Z" id="Shape" fill="#FFF0B5"></path>
                            <path d="M6.601,2.1135 L6.601,2.1 C6.601,2.0725 6.5965,2.0455 6.5875,2.018 C6.442,1.686 6.1055,1.3745 5.5785,1.0835 C5.051,0.7925 4.4875,0.6085 3.887,0.531 C3.287,0.4535 2.8275,0.5035 2.5095,0.681 C2.1865,0.8585 1.6775,1.3585 0.982,2.1815 C0.541,2.7 0.332,3.084 0.3545,3.334 C0.3635,3.452 0.425,3.541 0.5385,3.6 C0.5975,3.532 0.666,3.4635 0.743,3.3955 C1.7705,2.368 2.414,1.779 2.673,1.629 C2.9365,1.4835 3.2525,1.4105 3.621,1.4105 C3.994,1.4105 4.3145,1.4855 4.5825,1.6355 C4.846,1.781 4.978,1.956 4.978,2.1605 C4.978,2.1695 4.978,2.1765 4.978,2.181 C4.978,2.381 4.8505,2.5495 4.596,2.6855 C4.5005,2.7355 4.3825,2.797 4.2415,2.8695 C3.978,3.0015 3.6275,3.165 3.1915,3.3605 C2.728,3.565 2.189,3.788 1.5755,4.029 L1.5755,4.036 C1.6165,4.0585 1.655,4.0815 1.6915,4.104 C1.946,4.2815 2.8645,4.061 4.4465,3.4425 C4.601,3.379 4.749,3.315 4.8895,3.2515 C5.3485,3.0605 5.717,2.8835 5.9945,2.7195 C6.3945,2.4795 6.5965,2.277 6.601,2.1135 Z" id="Shape" fill="#FEE581"></path>
                        </g>
                    </g>
                </g>
                <g id="Group" transform="translate(0.450000, 0.825000)">
                    <g id="people_0_Layer4_2_FILL">
                        <g>
                            <path d="M1.3935,4.0885 C1.357,4.066 1.3185,4.043 1.2775,4.0205 L1.2775,5.398 C1.3185,5.4205 1.357,5.446 1.3935,5.473 C1.648,5.6505 2.5665,5.4275 4.1485,4.8045 C5.517,4.259 6.235,3.827 6.3035,3.509 C6.308,3.477 6.308,3.4475 6.3035,3.4205 L6.3035,2.0975 C6.299,2.261 6.0965,2.4635 5.6965,2.7045 C5.419,2.868 5.051,3.0455 4.5915,3.2365 C4.4505,3.3 4.303,3.364 4.1485,3.4275 C2.5665,4.045 1.648,4.2655 1.3935,4.0885 L1.3935,4.0885 Z M0.05,4.675 C0.0545,4.807 0.118,4.9045 0.241,4.968 L0.241,3.5835 C0.1275,3.5245 0.066,3.4355 0.057,3.3175 L0.05,4.654 C0.05,4.6635 0.05,4.67 0.05,4.675 Z" id="Shape" fill="#EFCE48"></path>
                            <path d="M0.241,3.5835 C0.2635,3.5925 0.291,3.604 0.323,3.6175 C0.4095,3.6405 0.489,3.6655 0.5615,3.6925 C0.8205,3.7835 1.041,3.881 1.223,3.9855 C1.241,3.999 1.2595,4.008 1.2775,4.013 C1.8915,3.772 2.43,3.549 2.8935,3.3445 C3.33,3.149 3.68,2.9855 3.9435,2.8535 C4.0845,2.7805 4.2025,2.7195 4.298,2.6695 C4.5525,2.533 4.68,2.365 4.68,2.165 C4.68,2.1605 4.68,2.1535 4.68,2.1445 C4.68,1.94 4.548,1.765 4.2845,1.6195 C4.0165,1.4695 3.696,1.3945 3.323,1.3945 C2.9545,1.3945 2.639,1.4675 2.375,1.613 C2.116,1.763 1.4725,2.3515 0.445,3.379 C0.368,3.447 0.3,3.5155 0.241,3.5835 Z" id="Shape" fill="#FFF0B5"></path>
                            <path d="M0.241,3.5835 L0.241,4.968 L0.248,4.968 C0.271,4.9725 0.2955,4.9815 0.323,4.9955 C0.714,5.1135 1.032,5.248 1.2775,5.398 L1.2775,4.0205 L1.2775,4.0135 C1.2595,4.009 1.241,4 1.223,3.986 C1.041,3.8815 0.8205,3.7835 0.5615,3.693 C0.4885,3.6655 0.409,3.6405 0.323,3.618 C0.291,3.604 0.2635,3.5925 0.241,3.5835 Z" id="Shape" fill="#EBD784"></path>
                            <path d="M0.684,2.165 C0.243,2.6835 0.034,3.0675 0.0565,3.3175 C0.0655,3.4355 0.127,3.5245 0.2405,3.5835 C0.2995,3.5155 0.368,3.447 0.445,3.379 C1.4725,2.3515 2.116,1.763 2.375,1.613 C2.6385,1.4675 2.9545,1.3945 3.323,1.3945 C3.696,1.3945 4.0165,1.4695 4.2845,1.6195 C4.548,1.765 4.68,1.94 4.68,2.1445 C4.68,2.1535 4.68,2.1605 4.68,2.165 C4.68,2.365 4.5525,2.5335 4.298,2.6695 C4.2025,2.7195 4.0845,2.781 3.9435,2.8535 C3.68,2.9855 3.3295,3.149 2.8935,3.3445 C2.43,3.549 1.891,3.772 1.2775,4.013 L1.2775,4.02 C1.3185,4.043 1.357,4.0655 1.3935,4.088 C1.648,4.2655 2.5665,4.045 4.1485,3.4265 C4.303,3.363 4.451,3.299 4.5915,3.2355 C5.0505,3.0445 5.419,2.867 5.6965,2.7035 C6.0965,2.4625 6.299,2.26 6.3035,2.0965 L6.3035,2.083 C6.3035,2.0555 6.299,2.0285 6.29,2.001 C6.1445,1.669 5.808,1.3575 5.2805,1.0665 C4.753,0.7755 4.1895,0.5915 3.5895,0.514 C2.9895,0.4365 2.53,0.4865 2.212,0.664 C1.889,0.8425 1.38,1.3425 0.684,2.165 Z" id="Shape" fill="#FEE581"></path>
                        </g>
                    </g>
                </g>
            </g>
            <g id="sweetcorn-copy-6" transform="translate(59.000000, 66.000000)">
                <g id="Group" transform="translate(8.950000, 0.325000)">
                    <g id="people_0_Layer4_0_FILL">
                        <g>
                            <path d="M1.3085,5.093 C1.3495,5.1155 1.388,5.1405 1.4245,5.168 C1.679,5.3455 2.5975,5.1225 4.1795,4.4995 C5.548,3.954 6.266,3.522 6.3345,3.204 C6.339,3.172 6.339,3.1425 6.3345,3.1155 L6.3345,1.7925 C6.33,1.956 6.1275,2.1585 5.7275,2.3995 C5.45,2.563 5.082,2.7405 4.6225,2.9315 C4.4815,2.995 4.334,3.059 4.1795,3.1225 C2.5975,3.741 1.679,3.9615 1.4245,3.784 C1.388,3.7615 1.3495,3.7385 1.3085,3.716 L1.3085,5.093 L1.3085,5.093 Z M0.272,3.279 C0.1585,3.22 0.097,3.1315 0.088,3.013 L0.081,4.3495 C0.081,4.3585 0.081,4.3655 0.081,4.37 C0.0855,4.502 0.149,4.5995 0.272,4.663 L0.272,3.279 L0.272,3.279 Z" id="Shape" fill="#EFCE48"></path>
                            <path d="M0.5925,3.388 C0.5195,3.3605 0.44,3.336 0.354,3.313 C0.322,3.2995 0.295,3.288 0.272,3.279 L0.272,4.6635 L0.279,4.6635 C0.302,4.668 0.3265,4.677 0.354,4.691 C0.745,4.809 1.063,4.9435 1.309,5.0935 L1.309,3.716 L1.309,3.709 C1.291,3.7045 1.2725,3.6955 1.2545,3.6815 C1.0725,3.577 0.852,3.479 0.5925,3.388 Z" id="Shape" fill="#EBD784"></path>
                            <path d="M3.3545,1.09 C2.986,1.09 2.67,1.1625 2.4065,1.308 C2.1475,1.458 1.504,2.047 0.4765,3.0745 C0.399,3.1425 0.331,3.211 0.272,3.279 C0.2945,3.288 0.322,3.2995 0.354,3.313 C0.4405,3.3355 0.52,3.3605 0.5925,3.388 C0.8515,3.479 1.072,3.5765 1.254,3.6815 C1.272,3.695 1.2905,3.704 1.3085,3.709 C1.922,3.468 2.461,3.2455 2.9245,3.0405 C3.361,2.845 3.711,2.6815 3.9745,2.5495 C4.1155,2.4765 4.2335,2.4155 4.329,2.3655 C4.5835,2.229 4.711,2.061 4.711,1.861 C4.711,1.8565 4.711,1.8495 4.711,1.8405 C4.711,1.636 4.579,1.461 4.3155,1.3155 C4.048,1.165 3.7275,1.09 3.3545,1.09 Z" id="Shape" fill="#FFF0B5"></path>
                            <path d="M2.4065,1.308 C2.67,1.1625 2.986,1.09 3.3545,1.09 C3.7275,1.09 4.048,1.165 4.316,1.315 C4.5795,1.4605 4.7115,1.6355 4.7115,1.84 C4.7115,1.849 4.7115,1.856 4.7115,1.8605 C4.7115,2.0605 4.584,2.2285 4.3295,2.365 C4.234,2.415 4.116,2.4765 3.975,2.549 C3.7115,2.681 3.361,2.8445 2.925,3.04 C2.4615,3.2445 1.9225,3.4675 1.309,3.7085 L1.309,3.7155 C1.35,3.738 1.3885,3.761 1.425,3.7835 C1.6795,3.961 2.598,3.7405 4.18,3.122 C4.3345,3.0585 4.4825,2.9945 4.623,2.931 C5.082,2.74 5.4505,2.5625 5.728,2.399 C6.128,2.158 6.3305,1.956 6.335,1.792 L6.335,1.7785 C6.335,1.7515 6.3305,1.724 6.3215,1.6965 C6.176,1.3645 5.8395,1.053 5.3125,0.762 C4.785,0.471 4.2215,0.287 3.621,0.2095 C3.0205,0.132 2.5615,0.182 2.2435,0.3595 C1.9205,0.537 1.4115,1.037 0.716,1.86 C0.275,2.3785 0.066,2.7625 0.0885,3.0125 C0.0975,3.1305 0.159,3.2195 0.2725,3.2785 C0.3315,3.2105 0.4,3.142 0.477,3.074 C1.504,2.047 2.1475,1.458 2.4065,1.308 Z" id="Shape" fill="#FEE581"></path>
                        </g>
                    </g>
                </g>
                <g id="Group" transform="translate(11.650000, 3.625000)">
                    <g id="people_0_Layer4_1_FILL">
                        <g>
                            <path d="M0.5385,3.6 C0.425,3.541 0.3635,3.4525 0.3545,3.334 L0.3475,4.6705 C0.3475,4.6795 0.3475,4.6865 0.3475,4.691 C0.352,4.823 0.4155,4.9205 0.5385,4.984 L0.5385,3.6 L0.5385,3.6 Z M5.994,2.7205 C5.7165,2.884 5.3485,3.0615 4.889,3.2525 C4.748,3.316 4.6005,3.38 4.446,3.4435 C2.864,4.062 1.9455,4.2825 1.691,4.105 C1.6545,4.0825 1.616,4.0595 1.575,4.037 L1.575,5.4145 C1.616,5.4375 1.6545,5.4625 1.691,5.4895 C1.9455,5.667 2.864,5.444 4.446,4.821 C5.8145,4.2755 6.5325,3.8435 6.601,3.5255 C6.6055,3.4935 6.6055,3.464 6.601,3.437 L6.601,2.114 C6.5965,2.277 6.3945,2.4795 5.994,2.7205 Z" id="Shape" fill="#EFCE48"></path>
                            <path d="M0.6205,3.634 C0.5885,3.6205 0.5615,3.609 0.5385,3.6 L0.5385,4.9845 L0.5455,4.9845 C0.568,4.989 0.593,4.998 0.6205,5.012 C1.0115,5.13 1.3295,5.2645 1.5755,5.4145 L1.5755,4.037 L1.5755,4.03 C1.5575,4.0255 1.539,4.0165 1.521,4.0025 C1.339,3.898 1.1185,3.8 0.8595,3.7095 C0.7865,3.682 0.707,3.657 0.6205,3.634 Z" id="Shape" fill="#EBD784"></path>
                            <path d="M4.978,2.1815 C4.978,2.177 4.978,2.17 4.978,2.161 C4.978,1.9565 4.846,1.7815 4.5825,1.636 C4.3145,1.486 3.994,1.411 3.621,1.411 C3.2525,1.411 2.9365,1.484 2.673,1.6295 C2.414,1.7795 1.7705,2.368 0.743,3.396 C0.6655,3.464 0.5975,3.5325 0.5385,3.6005 C0.5615,3.6095 0.5885,3.621 0.6205,3.6345 C0.707,3.657 0.7865,3.682 0.859,3.7095 C1.118,3.8005 1.3385,3.898 1.5205,4.0025 C1.5385,4.016 1.557,4.0255 1.575,4.03 C2.1885,3.789 2.7275,3.5665 3.191,3.3615 C3.6275,3.166 3.9775,3.0025 4.241,2.8705 C4.382,2.7975 4.5,2.7365 4.5955,2.6865 C4.851,2.55 4.978,2.3815 4.978,2.1815 Z" id="Shape" fill="#FFF0B5"></path>
                            <path d="M6.601,2.1135 L6.601,2.1 C6.601,2.0725 6.5965,2.0455 6.5875,2.018 C6.442,1.686 6.1055,1.3745 5.5785,1.0835 C5.051,0.7925 4.4875,0.6085 3.887,0.531 C3.287,0.4535 2.8275,0.5035 2.5095,0.681 C2.1865,0.8585 1.6775,1.3585 0.982,2.1815 C0.541,2.7 0.332,3.084 0.3545,3.334 C0.3635,3.452 0.425,3.541 0.5385,3.6 C0.5975,3.532 0.666,3.4635 0.743,3.3955 C1.7705,2.368 2.414,1.779 2.673,1.629 C2.9365,1.4835 3.2525,1.4105 3.621,1.4105 C3.994,1.4105 4.3145,1.4855 4.5825,1.6355 C4.846,1.781 4.978,1.956 4.978,2.1605 C4.978,2.1695 4.978,2.1765 4.978,2.181 C4.978,2.381 4.8505,2.5495 4.596,2.6855 C4.5005,2.7355 4.3825,2.797 4.2415,2.8695 C3.978,3.0015 3.6275,3.165 3.1915,3.3605 C2.728,3.565 2.189,3.788 1.5755,4.029 L1.5755,4.036 C1.6165,4.0585 1.655,4.0815 1.6915,4.104 C1.946,4.2815 2.8645,4.061 4.4465,3.4425 C4.601,3.379 4.749,3.315 4.8895,3.2515 C5.3485,3.0605 5.717,2.8835 5.9945,2.7195 C6.3945,2.4795 6.5965,2.277 6.601,2.1135 Z" id="Shape" fill="#FEE581"></path>
                        </g>
                    </g>
                </g>
                <g id="Group" transform="translate(0.450000, 0.825000)">
                    <g id="people_0_Layer4_2_FILL">
                        <g>
                            <path d="M1.3935,4.0885 C1.357,4.066 1.3185,4.043 1.2775,4.0205 L1.2775,5.398 C1.3185,5.4205 1.357,5.446 1.3935,5.473 C1.648,5.6505 2.5665,5.4275 4.1485,4.8045 C5.517,4.259 6.235,3.827 6.3035,3.509 C6.308,3.477 6.308,3.4475 6.3035,3.4205 L6.3035,2.0975 C6.299,2.261 6.0965,2.4635 5.6965,2.7045 C5.419,2.868 5.051,3.0455 4.5915,3.2365 C4.4505,3.3 4.303,3.364 4.1485,3.4275 C2.5665,4.045 1.648,4.2655 1.3935,4.0885 L1.3935,4.0885 Z M0.05,4.675 C0.0545,4.807 0.118,4.9045 0.241,4.968 L0.241,3.5835 C0.1275,3.5245 0.066,3.4355 0.057,3.3175 L0.05,4.654 C0.05,4.6635 0.05,4.67 0.05,4.675 Z" id="Shape" fill="#EFCE48"></path>
                            <path d="M0.241,3.5835 C0.2635,3.5925 0.291,3.604 0.323,3.6175 C0.4095,3.6405 0.489,3.6655 0.5615,3.6925 C0.8205,3.7835 1.041,3.881 1.223,3.9855 C1.241,3.999 1.2595,4.008 1.2775,4.013 C1.8915,3.772 2.43,3.549 2.8935,3.3445 C3.33,3.149 3.68,2.9855 3.9435,2.8535 C4.0845,2.7805 4.2025,2.7195 4.298,2.6695 C4.5525,2.533 4.68,2.365 4.68,2.165 C4.68,2.1605 4.68,2.1535 4.68,2.1445 C4.68,1.94 4.548,1.765 4.2845,1.6195 C4.0165,1.4695 3.696,1.3945 3.323,1.3945 C2.9545,1.3945 2.639,1.4675 2.375,1.613 C2.116,1.763 1.4725,2.3515 0.445,3.379 C0.368,3.447 0.3,3.5155 0.241,3.5835 Z" id="Shape" fill="#FFF0B5"></path>
                            <path d="M0.241,3.5835 L0.241,4.968 L0.248,4.968 C0.271,4.9725 0.2955,4.9815 0.323,4.9955 C0.714,5.1135 1.032,5.248 1.2775,5.398 L1.2775,4.0205 L1.2775,4.0135 C1.2595,4.009 1.241,4 1.223,3.986 C1.041,3.8815 0.8205,3.7835 0.5615,3.693 C0.4885,3.6655 0.409,3.6405 0.323,3.618 C0.291,3.604 0.2635,3.5925 0.241,3.5835 Z" id="Shape" fill="#EBD784"></path>
                            <path d="M0.684,2.165 C0.243,2.6835 0.034,3.0675 0.0565,3.3175 C0.0655,3.4355 0.127,3.5245 0.2405,3.5835 C0.2995,3.5155 0.368,3.447 0.445,3.379 C1.4725,2.3515 2.116,1.763 2.375,1.613 C2.6385,1.4675 2.9545,1.3945 3.323,1.3945 C3.696,1.3945 4.0165,1.4695 4.2845,1.6195 C4.548,1.765 4.68,1.94 4.68,2.1445 C4.68,2.1535 4.68,2.1605 4.68,2.165 C4.68,2.365 4.5525,2.5335 4.298,2.6695 C4.2025,2.7195 4.0845,2.781 3.9435,2.8535 C3.68,2.9855 3.3295,3.149 2.8935,3.3445 C2.43,3.549 1.891,3.772 1.2775,4.013 L1.2775,4.02 C1.3185,4.043 1.357,4.0655 1.3935,4.088 C1.648,4.2655 2.5665,4.045 4.1485,3.4265 C4.303,3.363 4.451,3.299 4.5915,3.2355 C5.0505,3.0445 5.419,2.867 5.6965,2.7035 C6.0965,2.4625 6.299,2.26 6.3035,2.0965 L6.3035,2.083 C6.3035,2.0555 6.299,2.0285 6.29,2.001 C6.1445,1.669 5.808,1.3575 5.2805,1.0665 C4.753,0.7755 4.1895,0.5915 3.5895,0.514 C2.9895,0.4365 2.53,0.4865 2.212,0.664 C1.889,0.8425 1.38,1.3425 0.684,2.165 Z" id="Shape" fill="#FEE581"></path>
                        </g>
                    </g>
                </g>
            </g>
            <g id="sweetcorn-copy-7" transform="translate(97.000000, 53.000000)">
                <g id="Group" transform="translate(8.950000, 0.325000)">
                    <g id="people_0_Layer4_0_FILL">
                        <g>
                            <path d="M1.3085,5.093 C1.3495,5.1155 1.388,5.1405 1.4245,5.168 C1.679,5.3455 2.5975,5.1225 4.1795,4.4995 C5.548,3.954 6.266,3.522 6.3345,3.204 C6.339,3.172 6.339,3.1425 6.3345,3.1155 L6.3345,1.7925 C6.33,1.956 6.1275,2.1585 5.7275,2.3995 C5.45,2.563 5.082,2.7405 4.6225,2.9315 C4.4815,2.995 4.334,3.059 4.1795,3.1225 C2.5975,3.741 1.679,3.9615 1.4245,3.784 C1.388,3.7615 1.3495,3.7385 1.3085,3.716 L1.3085,5.093 L1.3085,5.093 Z M0.272,3.279 C0.1585,3.22 0.097,3.1315 0.088,3.013 L0.081,4.3495 C0.081,4.3585 0.081,4.3655 0.081,4.37 C0.0855,4.502 0.149,4.5995 0.272,4.663 L0.272,3.279 L0.272,3.279 Z" id="Shape" fill="#EFCE48"></path>
                            <path d="M0.5925,3.388 C0.5195,3.3605 0.44,3.336 0.354,3.313 C0.322,3.2995 0.295,3.288 0.272,3.279 L0.272,4.6635 L0.279,4.6635 C0.302,4.668 0.3265,4.677 0.354,4.691 C0.745,4.809 1.063,4.9435 1.309,5.0935 L1.309,3.716 L1.309,3.709 C1.291,3.7045 1.2725,3.6955 1.2545,3.6815 C1.0725,3.577 0.852,3.479 0.5925,3.388 Z" id="Shape" fill="#EBD784"></path>
                            <path d="M3.3545,1.09 C2.986,1.09 2.67,1.1625 2.4065,1.308 C2.1475,1.458 1.504,2.047 0.4765,3.0745 C0.399,3.1425 0.331,3.211 0.272,3.279 C0.2945,3.288 0.322,3.2995 0.354,3.313 C0.4405,3.3355 0.52,3.3605 0.5925,3.388 C0.8515,3.479 1.072,3.5765 1.254,3.6815 C1.272,3.695 1.2905,3.704 1.3085,3.709 C1.922,3.468 2.461,3.2455 2.9245,3.0405 C3.361,2.845 3.711,2.6815 3.9745,2.5495 C4.1155,2.4765 4.2335,2.4155 4.329,2.3655 C4.5835,2.229 4.711,2.061 4.711,1.861 C4.711,1.8565 4.711,1.8495 4.711,1.8405 C4.711,1.636 4.579,1.461 4.3155,1.3155 C4.048,1.165 3.7275,1.09 3.3545,1.09 Z" id="Shape" fill="#FFF0B5"></path>
                            <path d="M2.4065,1.308 C2.67,1.1625 2.986,1.09 3.3545,1.09 C3.7275,1.09 4.048,1.165 4.316,1.315 C4.5795,1.4605 4.7115,1.6355 4.7115,1.84 C4.7115,1.849 4.7115,1.856 4.7115,1.8605 C4.7115,2.0605 4.584,2.2285 4.3295,2.365 C4.234,2.415 4.116,2.4765 3.975,2.549 C3.7115,2.681 3.361,2.8445 2.925,3.04 C2.4615,3.2445 1.9225,3.4675 1.309,3.7085 L1.309,3.7155 C1.35,3.738 1.3885,3.761 1.425,3.7835 C1.6795,3.961 2.598,3.7405 4.18,3.122 C4.3345,3.0585 4.4825,2.9945 4.623,2.931 C5.082,2.74 5.4505,2.5625 5.728,2.399 C6.128,2.158 6.3305,1.956 6.335,1.792 L6.335,1.7785 C6.335,1.7515 6.3305,1.724 6.3215,1.6965 C6.176,1.3645 5.8395,1.053 5.3125,0.762 C4.785,0.471 4.2215,0.287 3.621,0.2095 C3.0205,0.132 2.5615,0.182 2.2435,0.3595 C1.9205,0.537 1.4115,1.037 0.716,1.86 C0.275,2.3785 0.066,2.7625 0.0885,3.0125 C0.0975,3.1305 0.159,3.2195 0.2725,3.2785 C0.3315,3.2105 0.4,3.142 0.477,3.074 C1.504,2.047 2.1475,1.458 2.4065,1.308 Z" id="Shape" fill="#FEE581"></path>
                        </g>
                    </g>
                </g>
                <g id="Group" transform="translate(11.650000, 3.625000)">
                    <g id="people_0_Layer4_1_FILL">
                        <g>
                            <path d="M0.5385,3.6 C0.425,3.541 0.3635,3.4525 0.3545,3.334 L0.3475,4.6705 C0.3475,4.6795 0.3475,4.6865 0.3475,4.691 C0.352,4.823 0.4155,4.9205 0.5385,4.984 L0.5385,3.6 L0.5385,3.6 Z M5.994,2.7205 C5.7165,2.884 5.3485,3.0615 4.889,3.2525 C4.748,3.316 4.6005,3.38 4.446,3.4435 C2.864,4.062 1.9455,4.2825 1.691,4.105 C1.6545,4.0825 1.616,4.0595 1.575,4.037 L1.575,5.4145 C1.616,5.4375 1.6545,5.4625 1.691,5.4895 C1.9455,5.667 2.864,5.444 4.446,4.821 C5.8145,4.2755 6.5325,3.8435 6.601,3.5255 C6.6055,3.4935 6.6055,3.464 6.601,3.437 L6.601,2.114 C6.5965,2.277 6.3945,2.4795 5.994,2.7205 Z" id="Shape" fill="#EFCE48"></path>
                            <path d="M0.6205,3.634 C0.5885,3.6205 0.5615,3.609 0.5385,3.6 L0.5385,4.9845 L0.5455,4.9845 C0.568,4.989 0.593,4.998 0.6205,5.012 C1.0115,5.13 1.3295,5.2645 1.5755,5.4145 L1.5755,4.037 L1.5755,4.03 C1.5575,4.0255 1.539,4.0165 1.521,4.0025 C1.339,3.898 1.1185,3.8 0.8595,3.7095 C0.7865,3.682 0.707,3.657 0.6205,3.634 Z" id="Shape" fill="#EBD784"></path>
                            <path d="M4.978,2.1815 C4.978,2.177 4.978,2.17 4.978,2.161 C4.978,1.9565 4.846,1.7815 4.5825,1.636 C4.3145,1.486 3.994,1.411 3.621,1.411 C3.2525,1.411 2.9365,1.484 2.673,1.6295 C2.414,1.7795 1.7705,2.368 0.743,3.396 C0.6655,3.464 0.5975,3.5325 0.5385,3.6005 C0.5615,3.6095 0.5885,3.621 0.6205,3.6345 C0.707,3.657 0.7865,3.682 0.859,3.7095 C1.118,3.8005 1.3385,3.898 1.5205,4.0025 C1.5385,4.016 1.557,4.0255 1.575,4.03 C2.1885,3.789 2.7275,3.5665 3.191,3.3615 C3.6275,3.166 3.9775,3.0025 4.241,2.8705 C4.382,2.7975 4.5,2.7365 4.5955,2.6865 C4.851,2.55 4.978,2.3815 4.978,2.1815 Z" id="Shape" fill="#FFF0B5"></path>
                            <path d="M6.601,2.1135 L6.601,2.1 C6.601,2.0725 6.5965,2.0455 6.5875,2.018 C6.442,1.686 6.1055,1.3745 5.5785,1.0835 C5.051,0.7925 4.4875,0.6085 3.887,0.531 C3.287,0.4535 2.8275,0.5035 2.5095,0.681 C2.1865,0.8585 1.6775,1.3585 0.982,2.1815 C0.541,2.7 0.332,3.084 0.3545,3.334 C0.3635,3.452 0.425,3.541 0.5385,3.6 C0.5975,3.532 0.666,3.4635 0.743,3.3955 C1.7705,2.368 2.414,1.779 2.673,1.629 C2.9365,1.4835 3.2525,1.4105 3.621,1.4105 C3.994,1.4105 4.3145,1.4855 4.5825,1.6355 C4.846,1.781 4.978,1.956 4.978,2.1605 C4.978,2.1695 4.978,2.1765 4.978,2.181 C4.978,2.381 4.8505,2.5495 4.596,2.6855 C4.5005,2.7355 4.3825,2.797 4.2415,2.8695 C3.978,3.0015 3.6275,3.165 3.1915,3.3605 C2.728,3.565 2.189,3.788 1.5755,4.029 L1.5755,4.036 C1.6165,4.0585 1.655,4.0815 1.6915,4.104 C1.946,4.2815 2.8645,4.061 4.4465,3.4425 C4.601,3.379 4.749,3.315 4.8895,3.2515 C5.3485,3.0605 5.717,2.8835 5.9945,2.7195 C6.3945,2.4795 6.5965,2.277 6.601,2.1135 Z" id="Shape" fill="#FEE581"></path>
                        </g>
                    </g>
                </g>
                <g id="Group" transform="translate(0.450000, 0.825000)">
                    <g id="people_0_Layer4_2_FILL">
                        <g>
                            <path d="M1.3935,4.0885 C1.357,4.066 1.3185,4.043 1.2775,4.0205 L1.2775,5.398 C1.3185,5.4205 1.357,5.446 1.3935,5.473 C1.648,5.6505 2.5665,5.4275 4.1485,4.8045 C5.517,4.259 6.235,3.827 6.3035,3.509 C6.308,3.477 6.308,3.4475 6.3035,3.4205 L6.3035,2.0975 C6.299,2.261 6.0965,2.4635 5.6965,2.7045 C5.419,2.868 5.051,3.0455 4.5915,3.2365 C4.4505,3.3 4.303,3.364 4.1485,3.4275 C2.5665,4.045 1.648,4.2655 1.3935,4.0885 L1.3935,4.0885 Z M0.05,4.675 C0.0545,4.807 0.118,4.9045 0.241,4.968 L0.241,3.5835 C0.1275,3.5245 0.066,3.4355 0.057,3.3175 L0.05,4.654 C0.05,4.6635 0.05,4.67 0.05,4.675 Z" id="Shape" fill="#EFCE48"></path>
                            <path d="M0.241,3.5835 C0.2635,3.5925 0.291,3.604 0.323,3.6175 C0.4095,3.6405 0.489,3.6655 0.5615,3.6925 C0.8205,3.7835 1.041,3.881 1.223,3.9855 C1.241,3.999 1.2595,4.008 1.2775,4.013 C1.8915,3.772 2.43,3.549 2.8935,3.3445 C3.33,3.149 3.68,2.9855 3.9435,2.8535 C4.0845,2.7805 4.2025,2.7195 4.298,2.6695 C4.5525,2.533 4.68,2.365 4.68,2.165 C4.68,2.1605 4.68,2.1535 4.68,2.1445 C4.68,1.94 4.548,1.765 4.2845,1.6195 C4.0165,1.4695 3.696,1.3945 3.323,1.3945 C2.9545,1.3945 2.639,1.4675 2.375,1.613 C2.116,1.763 1.4725,2.3515 0.445,3.379 C0.368,3.447 0.3,3.5155 0.241,3.5835 Z" id="Shape" fill="#FFF0B5"></path>
                            <path d="M0.241,3.5835 L0.241,4.968 L0.248,4.968 C0.271,4.9725 0.2955,4.9815 0.323,4.9955 C0.714,5.1135 1.032,5.248 1.2775,5.398 L1.2775,4.0205 L1.2775,4.0135 C1.2595,4.009 1.241,4 1.223,3.986 C1.041,3.8815 0.8205,3.7835 0.5615,3.693 C0.4885,3.6655 0.409,3.6405 0.323,3.618 C0.291,3.604 0.2635,3.5925 0.241,3.5835 Z" id="Shape" fill="#EBD784"></path>
                            <path d="M0.684,2.165 C0.243,2.6835 0.034,3.0675 0.0565,3.3175 C0.0655,3.4355 0.127,3.5245 0.2405,3.5835 C0.2995,3.5155 0.368,3.447 0.445,3.379 C1.4725,2.3515 2.116,1.763 2.375,1.613 C2.6385,1.4675 2.9545,1.3945 3.323,1.3945 C3.696,1.3945 4.0165,1.4695 4.2845,1.6195 C4.548,1.765 4.68,1.94 4.68,2.1445 C4.68,2.1535 4.68,2.1605 4.68,2.165 C4.68,2.365 4.5525,2.5335 4.298,2.6695 C4.2025,2.7195 4.0845,2.781 3.9435,2.8535 C3.68,2.9855 3.3295,3.149 2.8935,3.3445 C2.43,3.549 1.891,3.772 1.2775,4.013 L1.2775,4.02 C1.3185,4.043 1.357,4.0655 1.3935,4.088 C1.648,4.2655 2.5665,4.045 4.1485,3.4265 C4.303,3.363 4.451,3.299 4.5915,3.2355 C5.0505,3.0445 5.419,2.867 5.6965,2.7035 C6.0965,2.4625 6.299,2.26 6.3035,2.0965 L6.3035,2.083 C6.3035,2.0555 6.299,2.0285 6.29,2.001 C6.1445,1.669 5.808,1.3575 5.2805,1.0665 C4.753,0.7755 4.1895,0.5915 3.5895,0.514 C2.9895,0.4365 2.53,0.4865 2.212,0.664 C1.889,0.8425 1.38,1.3425 0.684,2.165 Z" id="Shape" fill="#FEE581"></path>
                        </g>
                    </g>
                </g>
            </g>
        </g>
    </g>
</svg>